<?xml version="1.0" encoding="utf-8"?>
<!-- Generator: Adobe Illustrator 17.1.0, SVG Export Plug-In . SVG Version: 6.00 Build 0)  -->
<!DOCTYPE svg PUBLIC "-//W3C//DTD SVG 1.1//EN" "http://www.w3.org/Graphics/SVG/1.1/DTD/svg11.dtd">
<svg version="1.1" id="Layer_1" xmlns="http://www.w3.org/2000/svg" xmlns:xlink="http://www.w3.org/1999/xlink" x="0px" y="0px"
	 viewBox="0 0 90.5 120.6" enable-background="new 0 0 90.5 120.6" xml:space="preserve">
<g>
	<path fill="#FFFFFF" d="M52,28.1v64.4c0,16.7-10.6,28.1-26.1,28.1C10.8,120.6,0,109.3,0,92.5V28.1C0,11.2,9.7,0,25.9,0
		C42.5,0,52,11.2,52,28.1z M38.3,28.4c0-11.2-5-15.5-12.4-15.5c-7,0-12.2,4.3-12.2,15.5v63.7c0,11.2,5.2,15.5,12.2,15.5
		c7.4,0,12.4-4.3,12.4-15.5V28.4z"/>
	<path fill="#FFFFFF" d="M90.5,3.8v112.7c0,1.1-0.9,2-2,2h-9.2c-1.1,0-1.8-0.9-1.8-2V22.7H65.9c-1.1,0-2-0.9-2-2v-4.9
		c0-1.1,0.9-2,1.8-2C80.1,8.6,76.3,1.8,82.4,1.8c1.4,0,6.1,0,6.1,0C89.6,1.8,90.5,2.7,90.5,3.8z"/>
</g>
</svg>
