<?xml version="1.0" encoding="utf-8"?>
<!-- Generator: Adobe Illustrator 17.1.0, SVG Export Plug-In . SVG Version: 6.00 Build 0)  -->
<!DOCTYPE svg PUBLIC "-//W3C//DTD SVG 1.1//EN" "http://www.w3.org/Graphics/SVG/1.1/DTD/svg11.dtd">
<svg version="1.1" id="Layer_1" xmlns="http://www.w3.org/2000/svg" xmlns:xlink="http://www.w3.org/1999/xlink" x="0px" y="0px"
	 viewBox="0 0 90 120.6" enable-background="new 0 0 90 120.6" xml:space="preserve">
<g>
	<path fill="#FFFFFF" d="M53.3,89.6c0,19.4-9,31-27,31C9.9,120.6,0,109.3,0,92.3v-11c0-0.9,0.7-2,1.8-2h9.5c0.9,0,1.8,1.1,1.8,2
		v11.9c0,7.7,3.8,15.5,13.5,15.5c12.6,0,13.1-10.6,13.1-18.2V78.3c0-10.8-14-13.9-17.3-14c-1.8,0-1.8-0.9-1.8-2v-8.6
		c0-0.7,0.5-1.4,1.6-2c0,0,17.8-5.6,17.8-17.8v-4.5C40.1,18.5,36,13,26.8,13C17.3,13,14,19.6,14,27.4v10.1c0,0.9-0.9,1.8-1.8,1.8
		H2.2c-1.1,0-1.8-0.9-1.8-1.8v-9.4C0.4,11,10.8,0,27.2,0c17.6,0,26.1,11.9,26.1,29c0,0,0,0.9,0,3.1c0,14.9-13,25.2-18.2,25.2
		c0,0,18.2,3.1,18.2,24.5V89.6z"/>
	<path fill="#FFFFFF" d="M90,4v112.7c0,1.1-0.9,2-2,2h-9.2c-1.1,0-1.8-0.9-1.8-2V22.9H65.3c-1.1,0-2-0.9-2-2V16c0-1.1,0.9-2,1.8-2
		C79.6,8.8,75.8,2,81.9,2C83.3,2,88,2,88,2C89.1,2,90,2.9,90,4z"/>
</g>
</svg>
