<?xml version="1.0" encoding="utf-8"?>
<!-- Generator: Adobe Illustrator 17.1.0, SVG Export Plug-In . SVG Version: 6.00 Build 0)  -->
<!DOCTYPE svg PUBLIC "-//W3C//DTD SVG 1.1//EN" "http://www.w3.org/Graphics/SVG/1.1/DTD/svg11.dtd">
<svg version="1.1" id="Layer_1" xmlns="http://www.w3.org/2000/svg" xmlns:xlink="http://www.w3.org/1999/xlink" x="0px" y="0px"
	 viewBox="0 0 120.8 120.6" enable-background="new 0 0 120.8 120.6" xml:space="preserve">
<g>
	<path fill="#FFFFFF" d="M53.3,70.2c0,8.8,0,19.1,0,19.1c0,15.8-6.8,31.1-26.8,31.1C6.8,120.4,0,106.6,0,89.3v-7.9c0-1.1,0.9-2,2-2
		h9.5c1.1,0,2,0.9,2,2v9c0,8.5,1.1,17.1,13.3,17.1c11.2,0,12.8-8.6,12.8-17.1V66.6c0-12.4-7.9-15.3-12.8-15.3
		c-5.2,0-10.8,1.6-12.8,6.8l-0.5,1.4c-0.4,0.5-1.1,0.9-1.8,0.9H2c-0.9,0-1.8-0.5-2-1.4c0,0,0-1.8,0-2.5V18.7V4c0-1.1,0.9-2,2-2h13
		h35.8c0.9,0,1.8,0.9,1.8,2v9.2c0,1.1-0.9,2-1.8,2H13.7V45c2.5-6.3,9.5-6.8,15.1-6.8C45.5,38.2,53.3,48.6,53.3,70.2z"/>
	<path fill="#FFFFFF" d="M120.8,28.1v64.4c0,16.7-10.6,28.1-26.1,28.1c-15.1,0-25.9-11.3-25.9-28.1V28.1C68.8,11.2,78.5,0,94.7,0
		C111.2,0,120.8,11.2,120.8,28.1z M107.1,28.4c0-11.2-5-15.5-12.4-15.5c-7,0-12.2,4.3-12.2,15.5v63.7c0,11.2,5.2,15.5,12.2,15.5
		c7.4,0,12.4-4.3,12.4-15.5V28.4z"/>
</g>
</svg>
