<?xml version="1.0" encoding="utf-8"?>
<!-- Generator: Adobe Illustrator 17.1.0, SVG Export Plug-In . SVG Version: 6.00 Build 0)  -->
<!DOCTYPE svg PUBLIC "-//W3C//DTD SVG 1.1//EN" "http://www.w3.org/Graphics/SVG/1.1/DTD/svg11.dtd">
<svg version="1.1" id="Layer_1" xmlns="http://www.w3.org/2000/svg" xmlns:xlink="http://www.w3.org/1999/xlink" x="0px" y="0px"
	 viewBox="0 0 789 567.6" enable-background="new 0 0 789 567.6" xml:space="preserve">
<g>
	<path fill="#353535" d="M134.1,294.1v22.5c0,0.2-0.2,0.4-0.4,0.4H132c-0.2,0-0.4-0.2-0.4-0.4v-16.7l-3.9,16.8
		c0,0.1-0.2,0.3-0.4,0.3h-1.8c-0.1,0-0.3-0.1-0.4-0.3c0,0-3.8-16.2-3.9-16.8v16.7c0,0.2-0.2,0.4-0.4,0.4h0h-1.7
		c-0.2,0-0.4-0.2-0.4-0.4v-22.5c0-0.2,0.2-0.4,0.4-0.4h2.4c0.2,0,0.4,0.1,0.4,0.4l4.4,18.8l4.4-18.8c0-0.2,0.3-0.4,0.4-0.4h2.4
		C134,293.7,134.1,293.9,134.1,294.1z"/>
	<path fill="#353535" d="M148.1,298.9v12.9c0,3.3-2.1,5.6-5.3,5.6c-3.2,0-5.3-2.3-5.3-5.6v-12.9c0-3.4,1.8-5.6,5.3-5.6
		C146.3,293.3,148.1,295.5,148.1,298.9z M145.4,299c0-2.2-1-3.1-2.6-3.1c-1.5,0-2.6,0.8-2.6,3.1v12.8c0,2.2,1,3.1,2.6,3.1
		c1.5,0,2.6-0.8,2.6-3.1V299z"/>
	<path fill="#353535" d="M163.2,315v1.7c0,0.2-0.1,0.3-0.4,0.3c-3.1,0-3.5-2.4-3.5-6.2c0-3-0.7-3.9-3.4-3.9h-1.7v9.8
		c0,0.2-0.2,0.4-0.4,0.4H152c-0.2,0-0.4-0.2-0.4-0.4v-22.5c0-0.2,0.2-0.4,0.4-0.4h3.9c3.9,0,6.4,2.1,6.4,6.7c0,2.8-1,4.6-2.8,5.1
		c2.3,0.5,2.4,2.6,2.4,4.4c0,0.2,0,2.1,0,2.3c0,2.3,0.6,2.3,1,2.4C163,314.6,163.2,314.8,163.2,315z M154.3,304.3h1.8
		c3,0,3.6-1.8,3.6-4c0-1.8-0.5-4-3.6-4h-1.8V304.3z"/>
	<path fill="#353535" d="M168.6,296.3v7.2h4.6c0.2,0,0.4,0.2,0.4,0.4v1.7c0,0.2-0.2,0.4-0.4,0.4h-4.6v8.4h6.6c0.2,0,0.4,0.2,0.4,0.4
		v1.8c0,0.2-0.2,0.4-0.4,0.4h-9c-0.2,0-0.4-0.2-0.4-0.4v-22.5c0-0.2,0.2-0.4,0.4-0.4h9c0.2,0,0.4,0.2,0.4,0.4v1.8
		c0,0.2-0.2,0.4-0.4,0.4H168.6z"/>
	<path fill="#353535" d="M194.3,298.9v2.2c0,0.2-0.2,0.4-0.4,0.4H192c-0.2,0-0.4-0.2-0.4-0.4V299c0-2.2-1.1-3.1-2.7-3.1
		c-1.5,0-2.6,0.8-2.6,3.1v12.8c0,2.2,1.1,3.1,2.6,3.1c1.5,0,2.7-0.8,2.7-3.1v-2.2c0-0.2,0.2-0.4,0.4-0.4h1.9c0.2,0,0.4,0.2,0.4,0.4
		v2.2c0,3.3-2.1,5.6-5.3,5.6c-3.2,0-5.3-2.3-5.3-5.6v-12.9c0-3.4,1.8-5.6,5.3-5.6C192.5,293.3,194.3,295.5,194.3,298.9z"/>
	<path fill="#353535" d="M200,314.4h6.7c0.2,0,0.4,0.1,0.4,0.4v1.9c0,0.2-0.1,0.4-0.4,0.4h-9c-0.2,0-0.4-0.2-0.4-0.4v-22.5
		c0-0.2,0.2-0.4,0.4-0.4h1.9c0.2,0,0.4,0.2,0.4,0.4V314.4z"/>
	<path fill="#353535" d="M213.8,296.3v18.1h1.8c0.2,0,0.4,0.2,0.4,0.4v1.9c0,0.2-0.2,0.4-0.4,0.4h-6.1c-0.2,0-0.4-0.1-0.4-0.4v-1.9
		c0-0.2,0.2-0.4,0.4-0.4h1.8v-18.1h-1.8c-0.2,0-0.4-0.1-0.4-0.4v-1.9c0-0.2,0.2-0.4,0.4-0.4h6.1c0.2,0,0.4,0.1,0.4,0.4v1.9
		c0,0.2-0.2,0.4-0.4,0.4H213.8z"/>
	<path fill="#353535" d="M221.7,296.3v7.2h4.6c0.2,0,0.4,0.2,0.4,0.4v1.7c0,0.2-0.2,0.4-0.4,0.4h-4.6v8.4h6.6c0.2,0,0.4,0.2,0.4,0.4
		v1.8c0,0.2-0.2,0.4-0.4,0.4h-9c-0.2,0-0.4-0.2-0.4-0.4v-22.5c0-0.2,0.2-0.4,0.4-0.4h9c0.2,0,0.4,0.2,0.4,0.4v1.8
		c0,0.2-0.2,0.4-0.4,0.4H221.7z"/>
	<path fill="#353535" d="M243,294.1v22.5c0,0.2-0.2,0.4-0.4,0.4h-1.8c-0.2,0-0.5-0.3-0.6-0.4l-6.3-16.3v16.3c0,0.2-0.1,0.4-0.4,0.4
		h-1.8c-0.2,0-0.4-0.2-0.4-0.4v-22.5c0-0.2,0.2-0.4,0.4-0.4h1.8c0.2,0,0.4,0.1,0.4,0.4l6.4,17.3v-17.2c0-0.2,0.1-0.4,0.4-0.4h1.8
		C242.8,293.7,243,293.9,243,294.1z"/>
	<path fill="#353535" d="M255.8,294.1v1.8c0,0.2-0.2,0.4-0.4,0.4H252v20.3c0,0.2-0.2,0.4-0.4,0.4h-1.9c-0.2,0-0.4-0.2-0.4-0.4v-20.3
		h-3.4c-0.2,0-0.4-0.2-0.4-0.4v-1.8c0-0.2,0.2-0.4,0.4-0.4h9.5C255.6,293.7,255.8,293.9,255.8,294.1z"/>
	<path fill="#353535" d="M268.4,309.9c0,0.6,0,2.2,0,2.2c0,3.2-2.3,5.3-5.3,5.3c-3.2,0-5.5-2.3-5.5-5.8v-2.1c0-0.2,0.1-0.4,0.4-0.4
		h1.9c0.2,0,0.4,0.2,0.4,0.4v2.6c0,2.1,1.3,2.9,2.9,2.9c1.9,0,2.6-1.3,2.6-2.9v-1.9c0-1.4-0.5-2.1-2.3-3.7l-2.8-2.6
		c-1.5-1.4-2.7-3.5-2.7-5.1c0-3.3,1.9-5.5,5.2-5.5c3.2,0,5.3,2.2,5.3,5.6v1.9c0,0.2-0.1,0.3-0.3,0.3h-2c-0.1,0-0.3-0.1-0.3-0.3v-2.2
		c0-2.2-1.1-3-2.6-3c-1.5,0-2.4,1-2.4,3c0,0.5,0.1,1.7,2.1,3.5c0.6,0.6,3.5,3.3,3.5,3.3C268.3,307.3,268.4,309,268.4,309.9z"/>
	<path fill="#353535" d="M150.3,324.1v1.8c0,0.2-0.2,0.4-0.4,0.4h-3.4v20.3c0,0.2-0.2,0.4-0.4,0.4h-1.9c-0.2,0-0.4-0.2-0.4-0.4
		v-20.3h-3.4c-0.2,0-0.4-0.2-0.4-0.4v-1.8c0-0.2,0.2-0.4,0.4-0.4h9.5C150.1,323.7,150.3,323.9,150.3,324.1z"/>
	<path fill="#353535" d="M163.5,324.1v22.5c0,0.2-0.2,0.4-0.4,0.4h-2c-0.2,0-0.4-0.2-0.4-0.4v-10.3h-5.3v10.3c0,0.2-0.1,0.4-0.4,0.4
		h-2c-0.2,0-0.4-0.2-0.4-0.4v-22.5c0-0.2,0.2-0.4,0.4-0.4h2c0.2,0,0.4,0.2,0.4,0.4v9.7h5.3v-9.7c0-0.2,0.1-0.4,0.4-0.4h2
		C163.4,323.7,163.5,323.9,163.5,324.1z"/>
	<path fill="#353535" d="M178.4,346.6c0,0.2-0.2,0.4-0.4,0.4h-2c-0.2,0-0.4-0.1-0.4-0.4l-0.7-4.5h-5.3l-0.7,4.5
		c-0.1,0.3-0.2,0.4-0.4,0.4h-2c-0.2,0-0.4-0.2-0.4-0.4l4.2-22.5c0.1-0.2,0.2-0.4,0.4-0.4h3c0.2,0,0.3,0.2,0.4,0.4L178.4,346.6z
		 M174.5,339.6l-2.2-13l-2.2,13H174.5z"/>
	<path fill="#353535" d="M192.5,324.1v22.5c0,0.2-0.2,0.4-0.4,0.4h-1.8c-0.2,0-0.5-0.3-0.6-0.4l-6.3-16.3v16.3
		c0,0.2-0.1,0.4-0.4,0.4h-1.8c-0.2,0-0.4-0.2-0.4-0.4v-22.5c0-0.2,0.2-0.4,0.4-0.4h1.8c0.2,0,0.4,0.1,0.4,0.4l6.4,17.3v-17.2
		c0-0.2,0.1-0.4,0.4-0.4h1.8C192.3,323.7,192.5,323.9,192.5,324.1z"/>
	<path fill="#353535" d="M211.4,344.8v1.8c0,0.2-0.2,0.4-0.4,0.4h-9.8c-0.2,0-0.4-0.2-0.4-0.4c0,0,0-2.1,0-2.3
		c0-1.6,0.8-4.2,2.1-5.8c0.8-0.9,3.2-3.9,3.9-4.6c1.5-1.9,1.9-2.6,1.9-4.3c0-1.8-0.4-3.8-2.6-3.8c-1.2,0-2.6,0.5-2.6,3.8v1.3
		c0,0.2-0.2,0.4-0.4,0.4h-1.9c-0.2,0-0.4-0.2-0.4-0.4v-1.5c0-3.7,1.8-6.2,5.4-6.2c3.3,0,5.1,2.4,5.2,6v0.6c0,2.8-1.3,4.2-2.6,5.8
		c-2.6,3.1-5.2,5.8-5.2,8.1v0.6h7.3C211.2,344.4,211.4,344.6,211.4,344.8z"/>
	<path fill="#353535" d="M224.7,329v12.9c0,3.3-2.1,5.6-5.2,5.6c-3,0-5.2-2.3-5.2-5.6V329c0-3.4,1.9-5.6,5.2-5.6
		C222.8,323.3,224.7,325.6,224.7,329z M222,329c0-2.2-1-3.1-2.5-3.1c-1.4,0-2.4,0.9-2.4,3.1v12.7c0,2.2,1,3.1,2.4,3.1
		c1.5,0,2.5-0.9,2.5-3.1V329z"/>
	<path fill="#353535" d="M232.4,324.1v22.5c0,0.2-0.2,0.4-0.4,0.4h-1.8c-0.2,0-0.4-0.2-0.4-0.4v-18.8h-2.3c-0.2,0-0.4-0.2-0.4-0.4
		v-1c0-0.2,0.2-0.4,0.4-0.4c2.9-1,2.1-2.4,3.3-2.4c0.3,0,1.2,0,1.2,0C232.3,323.7,232.4,323.9,232.4,324.1z"/>
	<path fill="#353535" d="M246.1,341.2c0,3.9-1.8,6.2-5.4,6.2c-3.3,0-5.3-2.3-5.3-5.7v-2.2c0-0.2,0.1-0.4,0.4-0.4h1.9
		c0.2,0,0.4,0.2,0.4,0.4v2.4c0,1.5,0.8,3.1,2.7,3.1c2.5,0,2.6-2.1,2.6-3.6V339c0-2.2-2.8-2.8-3.5-2.8c-0.4,0-0.4-0.2-0.4-0.4V334
		c0-0.1,0.1-0.3,0.3-0.4c0,0,3.6-1.1,3.6-3.6v-0.9c0-2.2-0.8-3.3-2.7-3.3c-1.9,0-2.6,1.3-2.6,2.9v2c0,0.2-0.2,0.4-0.4,0.4h-2
		c-0.2,0-0.4-0.2-0.4-0.4v-1.9c0-3.4,2.1-5.6,5.4-5.6c3.5,0,5.2,2.4,5.2,5.8c0,0,0,0.2,0,0.6c0,3-2.6,5-3.6,5c0,0,3.6,0.6,3.6,4.9
		V341.2z"/>
</g>
<path fill="none" stroke="#353535" stroke-width="6" stroke-linecap="round" stroke-linejoin="round" stroke-miterlimit="10" d="
	M720.1,281.3v54.3c0,2.4-1.9,4.3-4.3,4.3H592.6c-2.4,0-4.3-1.9-4.3-4.3v-54.3"/>
<path fill="none" stroke="#353535" stroke-width="6" stroke-linecap="round" stroke-linejoin="round" stroke-miterlimit="10" d="
	M705.4,341.2v7.3c0,28.3-23,51.3-51.3,51.3l0,0c-28.3,0-51.3-23-51.3-51.3v-7.3"/>
<path fill="none" stroke="#353535" stroke-width="6" stroke-linecap="round" stroke-linejoin="round" stroke-miterlimit="10" d="
	M786,134.8C786,57.1,718.7-5,639.1,3.8C577.1,10.7,527.6,62,522.8,124.3c-3.5,44.5,15.2,84.7,46.1,110.9
	c12.7,10.8,19.4,27,19.4,43.6v2.5h131.8v-3.7c0-16.1,6.7-31.7,19-42.1C767.7,211.4,786,175.3,786,134.8z"/>
<line fill="none" stroke="#353535" stroke-width="6" stroke-linecap="round" stroke-linejoin="round" stroke-miterlimit="10" x1="609.5" y1="370.5" x2="699.6" y2="370.5"/>
<g>
	<g>
		<path fill="#FFFFFF" d="M630.6,136.4c0,10.8-5,17.2-15,17.2c-9.1,0-14.6-6.3-14.6-15.7v-6.1c0-0.5,0.4-1.1,1-1.1h5.3
			c0.5,0,1,0.6,1,1.1v6.6c0,4.3,2.1,8.6,7.5,8.6c7,0,7.3-5.9,7.3-10.1v-6.8c0-6-7.8-7.7-9.6-7.8c-1,0-1-0.5-1-1.1v-4.8
			c0-0.4,0.3-0.8,0.9-1.1c0,0,9.9-3.1,9.9-9.9v-2.5c0-6-2.3-9.1-7.4-9.1c-5.3,0-7.1,3.7-7.1,8v5.6c0,0.5-0.5,1-1,1h-5.6
			c-0.6,0-1-0.5-1-1v-5.2c0-9.5,5.8-15.6,14.9-15.6c9.8,0,14.5,6.6,14.5,16.1c0,0,0,0.5,0,1.7c0,8.3-7.2,14-10.1,14
			c0,0,10.1,1.7,10.1,13.6V136.4z"/>
		<path fill="#FFFFFF" d="M667.7,102.3v35.8c0,9.3-5.9,15.6-14.5,15.6c-8.4,0-14.4-6.3-14.4-15.6v-35.8c0-9.4,5.4-15.6,14.4-15.6
			C662.4,86.7,667.7,92.9,667.7,102.3z M660.1,102.5c0-6.2-2.8-8.6-6.9-8.6c-3.9,0-6.8,2.4-6.8,8.6v35.4c0,6.2,2.9,8.6,6.8,8.6
			c4.1,0,6.9-2.4,6.9-8.6V102.5z"/>
		<path fill="#FFFFFF" d="M706.7,125.7c0,4.9,0,10.6,0,10.6c0,8.8-3.8,17.3-14.9,17.3c-10.9,0-14.7-7.7-14.7-17.3v-4.4
			c0-0.6,0.5-1.1,1.1-1.1h5.3c0.6,0,1.1,0.5,1.1,1.1v5c0,4.7,0.6,9.5,7.4,9.5c6.2,0,7.1-4.8,7.1-9.5v-13.2c0-6.9-4.4-8.5-7.1-8.5
			c-2.9,0-6,0.9-7.1,3.8l-0.3,0.8c-0.2,0.3-0.6,0.5-1,0.5h-5.4c-0.5,0-1-0.3-1.1-0.8c0,0,0-1,0-1.4v-21v-8.2c0-0.6,0.5-1.1,1.1-1.1
			h7.2h19.9c0.5,0,1,0.5,1,1.1V94c0,0.6-0.5,1.1-1,1.1h-20.6v16.6c1.4-3.5,5.3-3.8,8.4-3.8C702.4,107.9,706.7,113.7,706.7,125.7z"/>
	</g>
</g>
<g>
	<g>
		<path fill="#353535" d="M563.3,189.6h-1.4l3.9-13.4h1.4l3.9,13.4h-1.5l-1.1-3.8h-4.2L563.3,189.6z M567.5,182.5
			c-0.5-1.6-0.8-2.8-1.1-4.1h0c-0.3,1.3-0.7,2.5-1.1,4.1l-0.6,2.1h3.4L567.5,182.5z"/>
		<path fill="#353535" d="M572.2,184.9c0-3.4,1.7-5,3.7-5c1.9,0,2.7,1.3,3.2,2.8l-1.3,0.4c-0.3-1.2-0.8-1.9-1.9-1.9
			c-1.2,0-2.2,1.1-2.2,3.7c0,2.3,0.8,3.7,2.2,3.7c1,0,1.6-0.6,2-2l1.3,0.3c-0.5,1.8-1.6,2.8-3.3,2.8
			C573.8,189.8,572.2,188.2,572.2,184.9z"/>
		<path fill="#353535" d="M581.5,187.5v-6.2H580v-1.2h1.4v-3.4h1.4v3.4h2.1v1.2h-2.1v5.8c0,1,0.3,1.4,1.3,1.4c0.3,0,0.6-0.1,0.8-0.1
			v1.2c-0.2,0.1-0.7,0.1-1.1,0.1C582.1,189.8,581.5,189.1,581.5,187.5z"/>
		<path fill="#353535" d="M586.8,176.7h1.5v1.6h-1.5V176.7z M586.8,180.1h1.5v9.5h-1.5V180.1z"/>
		<path fill="#353535" d="M590.2,184.9c0-3.3,1.6-5,3.8-5c2.1,0,3.7,1.7,3.7,5c0,3.3-1.6,5-3.7,5S590.2,188.2,590.2,184.9z
			 M596.3,184.9c0-2.1-0.7-3.7-2.3-3.7c-1.5,0-2.3,1.5-2.3,3.7c0,2.1,0.7,3.7,2.3,3.7C595.5,188.6,596.3,187.1,596.3,184.9z"/>
		<path fill="#353535" d="M599.6,180.1h1.5v1.3c0.6-0.7,1.8-1.5,3-1.5c1.5,0,2.3,0.9,2.3,2.6v7.1H605v-6.8c0-1.1-0.4-1.7-1.4-1.7
			c-0.9,0-1.9,0.7-2.6,1.4v7.1h-1.5V180.1z"/>
		<path fill="#353535" d="M608.1,187.4c0-1.9,1.6-3.3,5.3-4v-0.6c0-1.1-0.5-1.6-1.4-1.6c-1.2,0-2.1,0.6-2.8,1.3l-0.8-0.9
			c1-1,2.3-1.7,3.8-1.7c1.9,0,2.7,1,2.7,2.9v4.5c0,1.2,0.1,1.9,0.2,2.3h-1.5c-0.1-0.4-0.2-0.7-0.2-1.2c-0.8,0.8-1.8,1.4-3,1.4
			C609,189.8,608.1,188.9,608.1,187.4z M613.4,187.3v-2.9c-2.9,0.6-3.9,1.6-3.9,2.8c0,1,0.5,1.4,1.3,1.4
			C611.9,188.6,612.8,188.1,613.4,187.3z"/>
		<path fill="#353535" d="M618.6,188.5v1.1h-1.5v-13.3h1.5v5c0.6-0.7,1.4-1.4,2.6-1.4c1.9,0,3.2,1.5,3.2,4.9c0,3.4-1.5,4.9-3.3,4.9
			C620,189.8,619.2,189.3,618.6,188.5z M622.9,184.9c0-2.5-0.9-3.7-2.1-3.7c-0.9,0-1.6,0.6-2.2,1.3v4.8c0.7,0.8,1.4,1.3,2.2,1.3
			C622.1,188.6,622.9,187.5,622.9,184.9z"/>
		<path fill="#353535" d="M626.3,176.3h1.5v13.3h-1.5V176.3z"/>
		<path fill="#353535" d="M629.8,184.9c0-3.4,1.8-5,3.7-5c2.1,0,3.4,1.7,3.4,4.9v0.4h-5.6c0.1,2.2,0.9,3.4,2.3,3.4
			c1.1,0,1.7-0.6,2.3-1.7l1,0.6c-0.7,1.4-1.8,2.3-3.3,2.3C631.3,189.8,629.8,188.2,629.8,184.9z M635.4,184.1
			c-0.1-1.7-0.7-2.9-2-2.9c-1.1,0-2,0.9-2.2,2.9H635.4z"/>
		<path fill="#353535" d="M642.3,176.7h1.5v1.6h-1.5V176.7z M642.3,180.1h1.5v9.5h-1.5V180.1z"/>
		<path fill="#353535" d="M645.8,184.9c0-3.4,1.4-5,3.3-5c1.1,0,1.9,0.5,2.6,1.3v-5h1.4v11c0,1.2,0.1,1.9,0.2,2.3h-1.5
			c-0.1-0.3-0.2-0.9-0.2-1.2c-0.6,0.7-1.4,1.4-2.6,1.4C647.2,189.8,645.8,188.3,645.8,184.9z M651.6,187.3v-4.8
			c-0.7-0.8-1.4-1.3-2.2-1.3c-1.3,0-2.1,1.1-2.1,3.7c0,2.5,0.9,3.7,2.2,3.7C650.3,188.6,651,188,651.6,187.3z"/>
		<path fill="#353535" d="M654.9,184.9c0-3.4,1.8-5,3.7-5c2.1,0,3.4,1.7,3.4,4.9v0.4h-5.6c0.1,2.2,0.9,3.4,2.3,3.4
			c1.1,0,1.7-0.6,2.3-1.7l1,0.6c-0.7,1.4-1.8,2.3-3.3,2.3C656.5,189.8,654.9,188.2,654.9,184.9z M660.6,184.1
			c-0.1-1.7-0.7-2.9-2-2.9c-1.1,0-2,0.9-2.2,2.9H660.6z"/>
		<path fill="#353535" d="M663.3,187.4c0-1.9,1.6-3.3,5.3-4v-0.6c0-1.1-0.5-1.6-1.4-1.6c-1.2,0-2.1,0.6-2.8,1.3l-0.8-0.9
			c1-1,2.2-1.7,3.8-1.7c1.9,0,2.7,1,2.7,2.9v4.5c0,1.2,0.1,1.9,0.2,2.3h-1.5c-0.1-0.4-0.2-0.7-0.2-1.2c-0.8,0.8-1.8,1.4-3,1.4
			C664.2,189.8,663.3,188.9,663.3,187.4z M668.6,187.3v-2.9c-2.9,0.6-3.9,1.6-3.9,2.8c0,1,0.5,1.4,1.3,1.4
			C667.1,188.6,668,188.1,668.6,187.3z"/>
		<path fill="#353535" d="M671.5,187.9l1-0.7c0.6,1,1.6,1.5,2.6,1.5c1.2,0,1.9-0.5,1.9-1.4c0-2.3-5-1.4-5-4.8c0-1.5,1.2-2.6,3-2.6
			c1.4,0,2.4,0.7,3.1,1.7l-1,0.8c-0.5-0.7-1.2-1.3-2.2-1.3c-1.1,0-1.6,0.5-1.6,1.3c0,2.4,4.9,1.3,4.9,4.8c0,1.7-1.5,2.7-3.3,2.7
			C673.4,189.8,672.2,189.1,671.5,187.9z"/>
		<path fill="#353535" d="M683.3,184.9c0-3.4,1.7-5,3.7-5c1.9,0,2.7,1.3,3.2,2.8l-1.3,0.4c-0.3-1.2-0.8-1.9-1.9-1.9
			c-1.2,0-2.2,1.1-2.2,3.7c0,2.3,0.8,3.7,2.2,3.7c1,0,1.6-0.6,2-2l1.3,0.3c-0.5,1.8-1.6,2.8-3.3,2.8
			C684.9,189.8,683.3,188.2,683.3,184.9z"/>
		<path fill="#353535" d="M691.9,180.1h1.5v1.6h0c0.5-1,1.5-1.8,3-1.8h0.2l-0.1,1.4c0,0-0.3,0-0.3,0c-1.2,0-2.2,0.8-2.8,1.9v6.4
			h-1.5V180.1z"/>
		<path fill="#353535" d="M697.7,184.9c0-3.4,1.8-5,3.7-5c2.1,0,3.4,1.7,3.4,4.9v0.4h-5.6c0.1,2.2,0.9,3.4,2.3,3.4
			c1.1,0,1.7-0.6,2.3-1.7l1,0.6c-0.7,1.4-1.8,2.3-3.3,2.3C699.3,189.8,697.7,188.2,697.7,184.9z M703.4,184.1
			c-0.1-1.7-0.7-2.9-2-2.9c-1.1,0-2,0.9-2.2,2.9H703.4z"/>
		<path fill="#353535" d="M706.1,187.4c0-1.9,1.6-3.3,5.3-4v-0.6c0-1.1-0.5-1.6-1.4-1.6c-1.2,0-2.1,0.6-2.8,1.3l-0.8-0.9
			c1-1,2.3-1.7,3.8-1.7c1.9,0,2.7,1,2.7,2.9v4.5c0,1.2,0.1,1.9,0.2,2.3h-1.5c-0.1-0.4-0.2-0.7-0.2-1.2c-0.8,0.8-1.8,1.4-3,1.4
			C706.9,189.8,706.1,188.9,706.1,187.4z M711.4,187.3v-2.9c-2.9,0.6-3.9,1.6-3.9,2.8c0,1,0.5,1.4,1.3,1.4
			C709.8,188.6,710.7,188.1,711.4,187.3z"/>
		<path fill="#353535" d="M715.6,187.5v-6.2h-1.4v-1.2h1.4v-3.4h1.4v3.4h2.1v1.2h-2.1v5.8c0,1,0.3,1.4,1.3,1.4
			c0.3,0,0.6-0.1,0.8-0.1v1.2c-0.2,0.1-0.7,0.1-1.1,0.1C716.3,189.8,715.6,189.1,715.6,187.5z"/>
		<path fill="#353535" d="M720.5,184.9c0-3.4,1.8-5,3.7-5c2.1,0,3.4,1.7,3.4,4.9v0.4h-5.6c0.1,2.2,0.9,3.4,2.3,3.4
			c1.1,0,1.7-0.6,2.3-1.7l1,0.6c-0.7,1.4-1.8,2.3-3.3,2.3C722.1,189.8,720.5,188.2,720.5,184.9z M726.1,184.1
			c-0.1-1.7-0.7-2.9-2-2.9c-1.1,0-2,0.9-2.2,2.9H726.1z"/>
		<path fill="#353535" d="M728.9,184.9c0-3.4,1.4-5,3.3-5c1.1,0,1.9,0.5,2.6,1.3v-5h1.4v11c0,1.2,0.1,1.9,0.2,2.3H735
			c-0.1-0.3-0.2-0.9-0.2-1.2c-0.6,0.7-1.4,1.4-2.6,1.4C730.3,189.8,728.9,188.3,728.9,184.9z M734.8,187.3v-4.8
			c-0.7-0.8-1.4-1.3-2.2-1.3c-1.3,0-2.1,1.1-2.1,3.7c0,2.5,0.9,3.7,2.2,3.7C733.4,188.6,734.2,188,734.8,187.3z"/>
		<path fill="#353535" d="M738.6,187.8h1.7v1.9h-1.7V187.8z"/>
	</g>
</g>
<g>
	<path fill="#353535" d="M61.2,313.8v7.7c0,1.1-0.9,2-2,2h-8.8v22.7c0,1.1-0.9,2-2,2h-8.3c-1.1,0-2-0.9-2-2v-22.7H2
		c-1.1,0-2-0.9-2-2c0,0,0-3.6,0-6.3c0-3.2,0.2-4,1.6-7.4c1.6-3.6,29.2-74.3,29.2-74.3c0.4-1.1,1.3-2,2.3-2h15.3c1.1,0,2,0.9,2,2V312
		h8.8C60.3,312,61.2,312.7,61.2,313.8z M12.2,312h25.9v-67.5L12.2,312z"/>
	<path fill="#353535" d="M118.3,261.7l-16,41.9l15.8,42.7c0.5,1.1,0,1.8-1.1,1.8h-9c-1.1,0-1.8-0.7-2.2-1.8l-12.4-32.6L81,346.3
		c-0.4,1.1-1.1,1.8-2.2,1.8h-9c-1.1,0-1.6-0.7-1.1-1.8l15.8-42.7l-16-41.9c-0.4-0.9,0.2-1.8,1.3-1.8h9c1.1,0,1.8,0.9,2.2,1.8
		l12.4,32.9l12.4-32.9c0.4-0.9,1.1-1.8,2.2-1.8h9C118.1,259.9,118.6,260.8,118.3,261.7z"/>
</g>
<g>
	<path fill="#353535" d="M333.3,291.7c0-5.8,6-5.7,6-9.7c0-1.4-0.7-2.3-2.1-2.3c-1.2,0-2,0.8-2.6,2.2l-1.2-0.5c0.8-1.9,2-3,3.9-3
		c2.2,0,3.4,1.4,3.4,3.5c0,4.4-5.9,5.1-5.9,8.7h5.9v1.3h-7.5V291.7z"/>
	<path fill="#353535" d="M342.5,285.3c0-4.5,1.5-6.9,4.3-6.9c2.8,0,4.3,2.4,4.3,6.9s-1.5,6.9-4.3,6.9
		C344,292.2,342.5,289.8,342.5,285.3z M349.5,285.3c0-3.9-1-5.6-2.8-5.6c-1.8,0-2.8,1.7-2.8,5.6s1,5.6,2.8,5.6
		C348.5,290.9,349.5,289.2,349.5,285.3z"/>
	<path fill="#353535" d="M352.6,285.3c0-4.5,1.5-6.9,4.3-6.9c2.8,0,4.3,2.4,4.3,6.9s-1.5,6.9-4.3,6.9
		C354.1,292.2,352.6,289.8,352.6,285.3z M359.7,285.3c0-3.9-1-5.6-2.8-5.6c-1.8,0-2.8,1.7-2.8,5.6s1,5.6,2.8,5.6
		C358.7,290.9,359.7,289.2,359.7,285.3z"/>
	<path fill="#353535" d="M366.7,282.5h1.5v1.2c0.6-0.7,1.4-1.4,2.6-1.4c1.9,0,3.2,1.5,3.2,4.9c0,3.4-1.4,4.9-3.3,4.9
		c-1.1,0-1.9-0.5-2.5-1.3v4.8h-1.5V282.5z M372.5,287.2c0-2.5-0.9-3.7-2.1-3.7c-0.9,0-1.7,0.6-2.2,1.3v4.8c0.7,0.8,1.4,1.3,2.3,1.3
		C371.6,290.9,372.5,289.8,372.5,287.2z"/>
	<path fill="#353535" d="M375.3,289.7c0-1.9,1.6-3.3,5.3-4v-0.6c0-1.1-0.5-1.6-1.4-1.6c-1.2,0-2.1,0.6-2.8,1.3l-0.8-0.9
		c1-1,2.3-1.7,3.8-1.7c1.9,0,2.7,1,2.7,2.9v4.5c0,1.2,0.1,1.9,0.2,2.3h-1.5c-0.1-0.4-0.2-0.7-0.2-1.2c-0.8,0.8-1.8,1.4-3,1.4
		C376.2,292.1,375.3,291.2,375.3,289.7z M380.6,289.7v-2.9c-2.9,0.6-3.9,1.6-3.9,2.8c0,1,0.5,1.4,1.3,1.4
		C379.1,290.9,380,290.4,380.6,289.7z"/>
	<path fill="#353535" d="M384.3,282.5h1.5v1.6h0c0.5-1,1.5-1.8,3-1.8h0.2l-0.1,1.4c0,0-0.3,0-0.3,0c-1.2,0-2.3,0.8-2.8,1.9v6.4h-1.5
		V282.5z"/>
	<path fill="#353535" d="M391.1,289.8v-6.2h-1.4v-1.2h1.4v-3.4h1.4v3.4h2.1v1.2h-2.1v5.8c0,1,0.3,1.4,1.3,1.4c0.3,0,0.6-0.1,0.8-0.1
		v1.2c-0.2,0.1-0.7,0.1-1.1,0.1C391.7,292.1,391.1,291.5,391.1,289.8z"/>
	<path fill="#353535" d="M396.4,279h1.5v1.6h-1.5V279z M396.4,282.5h1.5v9.5h-1.5V282.5z"/>
	<path fill="#353535" d="M399.9,287.2c0-3.4,1.7-5,3.7-5c1.9,0,2.7,1.3,3.2,2.8l-1.3,0.4c-0.3-1.2-0.8-1.9-1.9-1.9
		c-1.2,0-2.2,1.1-2.2,3.7c0,2.3,0.8,3.7,2.2,3.7c1,0,1.6-0.6,2-2l1.3,0.3c-0.5,1.8-1.6,2.8-3.3,2.8
		C401.5,292.2,399.9,290.5,399.9,287.2z"/>
	<path fill="#353535" d="M408.6,279h1.5v1.6h-1.5V279z M408.6,282.5h1.5v9.5h-1.5V282.5z"/>
	<path fill="#353535" d="M412.5,282.5h1.5v1.2c0.6-0.7,1.4-1.4,2.6-1.4c1.9,0,3.2,1.5,3.2,4.9c0,3.4-1.4,4.9-3.3,4.9
		c-1.1,0-1.9-0.5-2.5-1.3v4.8h-1.5V282.5z M418.3,287.2c0-2.5-0.9-3.7-2.1-3.7c-0.9,0-1.7,0.6-2.2,1.3v4.8c0.7,0.8,1.4,1.3,2.3,1.3
		C417.4,290.9,418.3,289.8,418.3,287.2z"/>
	<path fill="#353535" d="M421.1,289.7c0-1.9,1.6-3.3,5.3-4v-0.6c0-1.1-0.5-1.6-1.4-1.6c-1.2,0-2.1,0.6-2.8,1.3l-0.8-0.9
		c1-1,2.3-1.7,3.8-1.7c1.9,0,2.7,1,2.7,2.9v4.5c0,1.2,0.1,1.9,0.2,2.3h-1.5c-0.1-0.4-0.2-0.7-0.2-1.2c-0.8,0.8-1.8,1.4-3,1.4
		C422,292.1,421.1,291.2,421.1,289.7z M426.4,289.7v-2.9c-2.9,0.6-3.9,1.6-3.9,2.8c0,1,0.5,1.4,1.3,1.4
		C424.9,290.9,425.8,290.4,426.4,289.7z"/>
	<path fill="#353535" d="M430.1,282.5h1.5v1.3c0.6-0.7,1.8-1.5,3-1.5c1.5,0,2.3,0.9,2.3,2.6v7.1h-1.4v-6.8c0-1.1-0.4-1.7-1.3-1.7
		c-0.9,0-1.9,0.7-2.6,1.4v7.1h-1.5V282.5z"/>
	<path fill="#353535" d="M439.7,289.8v-6.2h-1.4v-1.2h1.4v-3.4h1.4v3.4h2.1v1.2h-2.1v5.8c0,1,0.3,1.4,1.3,1.4c0.3,0,0.6-0.1,0.8-0.1
		v1.2c-0.2,0.1-0.7,0.1-1.1,0.1C440.4,292.1,439.7,291.5,439.7,289.8z"/>
	<path fill="#353535" d="M444.2,290.2l1-0.7c0.6,1,1.6,1.5,2.6,1.5c1.2,0,1.9-0.5,1.9-1.4c0-2.3-5-1.4-5-4.8c0-1.5,1.2-2.6,3-2.6
		c1.4,0,2.4,0.7,3.1,1.7l-1,0.8c-0.5-0.7-1.2-1.3-2.2-1.3c-1.1,0-1.6,0.5-1.6,1.3c0,2.4,4.9,1.3,4.9,4.8c0,1.7-1.5,2.7-3.3,2.7
		C446.1,292.2,444.9,291.4,444.2,290.2z"/>
	<path fill="#353535" d="M457,283.7h-1.4v-1.2h1.4V281c0-1.6,0.8-2.4,2.6-2.4c0.2,0,0.7,0,0.7,0v1.2c0,0-0.5,0-0.5,0
		c-0.8,0-1.3,0.3-1.3,1.2v1.4h1.8v1.2h-1.8v8.3H457V283.7z"/>
	<path fill="#353535" d="M461.7,282.5h1.5v1.6h0c0.5-1,1.5-1.8,3-1.8h0.2l-0.1,1.4c0,0-0.3,0-0.3,0c-1.2,0-2.3,0.8-2.8,1.9v6.4h-1.5
		V282.5z"/>
	<path fill="#353535" d="M467.5,287.2c0-3.3,1.6-5,3.8-5c2.1,0,3.7,1.7,3.7,5c0,3.3-1.6,5-3.7,5
		C469.2,292.2,467.5,290.5,467.5,287.2z M473.6,287.2c0-2.1-0.7-3.7-2.3-3.7c-1.5,0-2.3,1.5-2.3,3.7c0,2.1,0.7,3.7,2.3,3.7
		C472.8,291,473.6,289.5,473.6,287.2z"/>
	<path fill="#353535" d="M476.9,282.5h1.5v1.3c0.7-0.7,1.7-1.5,2.9-1.5c1.3,0,1.9,0.5,2.2,1.5c0.7-0.8,1.7-1.5,3-1.5
		c1.5,0,2.3,0.9,2.3,2.6v7.1h-1.4v-6.8c0-1.1-0.4-1.7-1.3-1.7c-0.9,0-1.7,0.6-2.4,1.3v7.1H482v-6.8c0-1.1-0.3-1.7-1.3-1.7
		c-0.8,0-1.6,0.6-2.4,1.4v7.1h-1.5V282.5z"/>
	<path fill="#353535" d="M333.6,318.8c0-1.9,1.3-2.9,3-3.8c-1.4-0.8-2.4-1.8-2.4-3.4c0-1.7,1.2-3.2,3.7-3.2c2.4,0,3.6,1.5,3.6,3.2
		c0,1.6-1,2.4-2.4,3.3c1.7,0.9,3,1.9,3,3.9c0,1.9-1.5,3.5-4.2,3.5C335,322.3,333.6,320.7,333.6,318.8z M340.4,318.7
		c0-1.4-1.1-2.2-2.8-3.1c-1.6,0.9-2.6,1.7-2.6,3.1c0,1.4,1,2.3,2.7,2.3C339.4,321,340.4,320.1,340.4,318.7z M340,311.7
		c0-1-0.6-2-2.2-2c-1.5,0-2.2,1-2.2,2c0,1.2,0.8,1.9,2.3,2.6C339.2,313.5,340,312.9,340,311.7z"/>
	<path fill="#353535" d="M346.8,317.2c0-3.4,1.4-5,3.3-5c1.1,0,1.9,0.5,2.6,1.3v-5h1.4v11c0,1.2,0.1,1.9,0.2,2.3h-1.5
		c-0.1-0.3-0.2-0.9-0.2-1.2c-0.6,0.7-1.4,1.4-2.6,1.4C348.2,322.1,346.8,320.7,346.8,317.2z M352.7,319.6v-4.8
		c-0.7-0.8-1.4-1.3-2.3-1.3c-1.3,0-2.1,1.1-2.1,3.7c0,2.5,0.9,3.7,2.2,3.7C351.3,320.9,352.1,320.3,352.7,319.6z"/>
	<path fill="#353535" d="M356.5,309h1.5v1.6h-1.5V309z M356.5,312.5h1.5v9.5h-1.5V312.5z"/>
	<path fill="#353535" d="M360.9,313.7h-1.4v-1.2h1.4V311c0-1.6,0.8-2.4,2.6-2.4c0.2,0,0.7,0,0.7,0v1.2c0,0-0.5,0-0.5,0
		c-0.8,0-1.3,0.3-1.3,1.2v1.4h1.8v1.2h-1.8v8.3h-1.4V313.7z"/>
	<path fill="#353535" d="M366.3,313.7h-1.4v-1.2h1.4V311c0-1.6,0.8-2.4,2.6-2.4c0.2,0,0.7,0,0.7,0v1.2c0,0-0.5,0-0.5,0
		c-0.8,0-1.3,0.3-1.3,1.2v1.4h1.8v1.2h-1.8v8.3h-1.4V313.7z"/>
	<path fill="#353535" d="M370.6,317.2c0-3.4,1.8-5,3.7-5c2.1,0,3.4,1.7,3.4,4.9v0.4H372c0.1,2.2,0.9,3.4,2.3,3.4
		c1.1,0,1.7-0.6,2.2-1.7l1,0.6c-0.7,1.4-1.8,2.3-3.3,2.3C372.2,322.2,370.6,320.5,370.6,317.2z M376.2,316.4c-0.1-1.7-0.7-2.9-2-2.9
		c-1.1,0-2,0.9-2.2,2.9H376.2z"/>
	<path fill="#353535" d="M379.5,312.5h1.5v1.6h0c0.5-1,1.5-1.8,3-1.8h0.2l-0.1,1.4c0,0-0.3,0-0.3,0c-1.2,0-2.3,0.8-2.8,1.9v6.4h-1.5
		V312.5z"/>
	<path fill="#353535" d="M385.2,317.2c0-3.4,1.8-5,3.7-5c2.1,0,3.4,1.7,3.4,4.9v0.4h-5.6c0.1,2.2,0.9,3.4,2.3,3.4
		c1.1,0,1.7-0.6,2.2-1.7l1,0.6c-0.7,1.4-1.8,2.3-3.3,2.3C386.8,322.2,385.2,320.5,385.2,317.2z M390.9,316.4c-0.1-1.7-0.7-2.9-2-2.9
		c-1.1,0-2,0.9-2.2,2.9H390.9z"/>
	<path fill="#353535" d="M394.2,312.5h1.5v1.3c0.6-0.7,1.8-1.5,3-1.5c1.5,0,2.3,0.9,2.3,2.6v7.1h-1.4v-6.8c0-1.1-0.4-1.7-1.3-1.7
		c-0.9,0-1.9,0.7-2.6,1.4v7.1h-1.5V312.5z"/>
	<path fill="#353535" d="M403.8,319.8v-6.2h-1.4v-1.2h1.4v-3.4h1.4v3.4h2.1v1.2h-2.1v5.8c0,1,0.3,1.4,1.3,1.4c0.3,0,0.6-0.1,0.8-0.1
		v1.2c-0.2,0.1-0.7,0.1-1.1,0.1C404.4,322.1,403.8,321.5,403.8,319.8z"/>
	<path fill="#353535" d="M412.2,317.2c0-3.4,1.7-5,3.7-5c1.9,0,2.7,1.3,3.2,2.8l-1.3,0.4c-0.3-1.2-0.8-1.9-1.9-1.9
		c-1.2,0-2.2,1.1-2.2,3.7c0,2.3,0.8,3.7,2.2,3.7c1,0,1.6-0.6,2-2l1.3,0.3c-0.5,1.8-1.6,2.8-3.3,2.8
		C413.8,322.2,412.2,320.5,412.2,317.2z"/>
	<path fill="#353535" d="M420.4,317.2c0-3.3,1.6-5,3.8-5c2.1,0,3.7,1.7,3.7,5c0,3.3-1.6,5-3.7,5C422,322.2,420.4,320.5,420.4,317.2z
		 M426.4,317.2c0-2.1-0.7-3.7-2.3-3.7c-1.5,0-2.3,1.5-2.3,3.7c0,2.1,0.7,3.7,2.3,3.7C425.7,321,426.4,319.5,426.4,317.2z"/>
	<path fill="#353535" d="M429.7,312.5h1.5v1.3c0.7-0.7,1.7-1.5,2.9-1.5c1.3,0,1.9,0.5,2.2,1.5c0.7-0.8,1.7-1.5,3-1.5
		c1.5,0,2.3,0.9,2.3,2.6v7.1h-1.4v-6.8c0-1.1-0.4-1.7-1.3-1.7c-0.9,0-1.7,0.6-2.4,1.3v7.1h-1.5v-6.8c0-1.1-0.3-1.7-1.3-1.7
		c-0.8,0-1.6,0.6-2.4,1.4v7.1h-1.5V312.5z"/>
	<path fill="#353535" d="M443.8,312.5h1.5v1.2c0.6-0.7,1.4-1.4,2.6-1.4c1.9,0,3.2,1.5,3.2,4.9c0,3.4-1.4,4.9-3.3,4.9
		c-1.1,0-1.9-0.5-2.5-1.3v4.8h-1.5V312.5z M449.6,317.2c0-2.5-0.9-3.7-2.1-3.7c-0.9,0-1.7,0.6-2.2,1.3v4.8c0.7,0.8,1.4,1.3,2.3,1.3
		C448.7,320.9,449.6,319.8,449.6,317.2z"/>
	<path fill="#353535" d="M452.4,319.7c0-1.9,1.6-3.3,5.3-4v-0.6c0-1.1-0.5-1.6-1.4-1.6c-1.2,0-2.1,0.6-2.8,1.3l-0.8-0.9
		c1-1,2.3-1.7,3.8-1.7c1.9,0,2.7,1,2.7,2.9v4.5c0,1.2,0.1,1.9,0.2,2.3h-1.5c-0.1-0.4-0.2-0.7-0.2-1.2c-0.8,0.8-1.8,1.4-3,1.4
		C453.2,322.1,452.4,321.2,452.4,319.7z M457.7,319.7v-2.9c-2.9,0.6-3.9,1.6-3.9,2.8c0,1,0.5,1.4,1.3,1.4
		C456.1,320.9,457,320.4,457.7,319.7z"/>
	<path fill="#353535" d="M461.4,312.5h1.5v1.3c0.6-0.7,1.8-1.5,3-1.5c1.5,0,2.3,0.9,2.3,2.6v7.1h-1.4v-6.8c0-1.1-0.4-1.7-1.3-1.7
		c-0.9,0-1.9,0.7-2.6,1.4v7.1h-1.5V312.5z"/>
	<path fill="#353535" d="M470.5,309h1.5v1.6h-1.5V309z M470.5,312.5h1.5v9.5h-1.5V312.5z"/>
	<path fill="#353535" d="M473.9,317.2c0-3.4,1.8-5,3.7-5c2.1,0,3.4,1.7,3.4,4.9v0.4h-5.6c0.1,2.2,0.9,3.4,2.3,3.4
		c1.1,0,1.7-0.6,2.2-1.7l1,0.6c-0.7,1.4-1.8,2.3-3.3,2.3C475.5,322.2,473.9,320.5,473.9,317.2z M479.6,316.4c-0.1-1.7-0.7-2.9-2-2.9
		c-1.1,0-2,0.9-2.2,2.9H479.6z"/>
	<path fill="#353535" d="M482,320.2l1-0.7c0.6,1,1.6,1.5,2.6,1.5c1.2,0,1.9-0.5,1.9-1.4c0-2.3-5-1.4-5-4.8c0-1.5,1.2-2.6,3-2.6
		c1.4,0,2.4,0.7,3.1,1.7l-1,0.8c-0.5-0.7-1.2-1.3-2.2-1.3c-1.1,0-1.6,0.5-1.6,1.3c0,2.4,4.9,1.3,4.9,4.8c0,1.7-1.5,2.7-3.3,2.7
		C484,322.2,482.8,321.4,482,320.2z"/>
</g>
<g>
	<g>
		<path fill="none" stroke="#000000" stroke-linecap="round" stroke-linejoin="round" d="M290.3,366.1c4.9,0,8.4-4.9,8.4-10.7v-23.3
			c0-15.1-1.8-25.8,12.3-32.4"/>
	</g>
	<g>
		<path fill="none" stroke="#000000" stroke-linecap="round" stroke-linejoin="round" d="M311,299.8c-14-6.6-12.3-17.4-12.3-32.4
			v-20c0-5.9-3.6-10.7-8.4-10.7"/>
	</g>
</g>
<g>
	<g>
		<path fill="none" stroke="#000000" stroke-linecap="round" stroke-linejoin="round" d="M185,437.6c-4.9,0-8.4,4.9-8.4,10.7v23.3
			c0,15.1,1.8,25.8-12.3,32.4"/>
	</g>
	<g>
		<path fill="none" stroke="#000000" stroke-linecap="round" stroke-linejoin="round" d="M164.3,503.9c14,6.6,12.3,17.4,12.3,32.4
			v20c0,5.9,3.6,10.7,8.4,10.7"/>
	</g>
</g>
<g>
	<g>
		<path fill="#353535" d="M12.8,483.1v2.2c0,0.2-0.2,0.4-0.4,0.4h-1.9c-0.2,0-0.4-0.2-0.4-0.4v-2.1c0-2.2-1.1-3.1-2.7-3.1
			c-1.5,0-2.6,0.8-2.6,3.1v12.8c0,2.2,1.1,3.1,2.6,3.1c1.5,0,2.7-0.8,2.7-3.1v-2.2c0-0.2,0.2-0.4,0.4-0.4h1.9c0.2,0,0.4,0.2,0.4,0.4
			v2.2c0,3.3-2.1,5.6-5.3,5.6c-3.2,0-5.3-2.3-5.3-5.6v-12.9c0-3.4,1.8-5.6,5.3-5.6C10.9,477.5,12.8,479.7,12.8,483.1z"/>
		<path fill="#353535" d="M26.4,478.3v22.5c0,0.2-0.2,0.4-0.4,0.4h-2c-0.2,0-0.4-0.2-0.4-0.4v-10.3h-5.3v10.3c0,0.2-0.1,0.4-0.4,0.4
			h-2c-0.2,0-0.4-0.2-0.4-0.4v-22.5c0-0.2,0.2-0.4,0.4-0.4h2c0.2,0,0.4,0.2,0.4,0.4v9.7h5.3v-9.7c0-0.2,0.1-0.4,0.4-0.4h2
			C26.2,477.9,26.4,478,26.4,478.3z"/>
		<path fill="#353535" d="M41.3,500.8c0,0.2-0.2,0.4-0.4,0.4h-2c-0.2,0-0.4-0.1-0.4-0.4l-0.7-4.5h-5.3l-0.7,4.5
			c-0.1,0.3-0.2,0.4-0.4,0.4h-2c-0.2,0-0.4-0.2-0.4-0.4l4.2-22.5c0.1-0.2,0.2-0.4,0.4-0.4h3c0.2,0,0.3,0.2,0.4,0.4L41.3,500.8z
			 M37.3,493.8l-2.2-13l-2.2,13H37.3z"/>
		<path fill="#353535" d="M46.6,498.6h6.7c0.2,0,0.4,0.1,0.4,0.4v1.9c0,0.2-0.1,0.4-0.4,0.4h-9c-0.2,0-0.4-0.2-0.4-0.4v-22.5
			c0-0.2,0.2-0.4,0.4-0.4h1.9c0.2,0,0.4,0.2,0.4,0.4V498.6z"/>
		<path fill="#353535" d="M58.9,498.6h6.7c0.2,0,0.4,0.1,0.4,0.4v1.9c0,0.2-0.1,0.4-0.4,0.4h-9c-0.2,0-0.4-0.2-0.4-0.4v-22.5
			c0-0.2,0.2-0.4,0.4-0.4h1.9c0.2,0,0.4,0.2,0.4,0.4V498.6z"/>
		<path fill="#353535" d="M71.3,480.5v7.2h4.6c0.2,0,0.4,0.2,0.4,0.4v1.7c0,0.2-0.2,0.4-0.4,0.4h-4.6v8.4h6.6c0.2,0,0.4,0.2,0.4,0.4
			v1.8c0,0.2-0.2,0.4-0.4,0.4h-9c-0.2,0-0.4-0.2-0.4-0.4v-22.5c0-0.2,0.2-0.4,0.4-0.4h9c0.2,0,0.4,0.2,0.4,0.4v1.8
			c0,0.2-0.2,0.4-0.4,0.4H71.3z"/>
		<path fill="#353535" d="M92.6,478.3v22.5c0,0.2-0.2,0.4-0.4,0.4h-1.8c-0.2,0-0.5-0.3-0.6-0.4l-6.3-16.3v16.3
			c0,0.2-0.1,0.4-0.4,0.4h-1.8c-0.2,0-0.4-0.2-0.4-0.4v-22.5c0-0.2,0.2-0.4,0.4-0.4h1.8c0.2,0,0.4,0.1,0.4,0.4l6.4,17.3v-17.2
			c0-0.2,0.1-0.4,0.4-0.4h1.8C92.5,477.9,92.6,478,92.6,478.3z"/>
		<path fill="#353535" d="M107.1,490.4v10.5c0,0.1-0.1,0.3-0.3,0.3h-0.7c-0.1,0-0.3-0.1-0.3-0.2l-0.2-1.1c-1,1.1-2.4,1.7-4.1,1.7
			c-3.2,0-5.5-2.3-5.5-5.6v-12.9c0-3.4,1.8-5.6,5.3-5.6c3.5,0,5.3,2.2,5.3,5.6v2.2c0,0.2-0.2,0.4-0.4,0.4h-1.9
			c-0.2,0-0.4-0.2-0.4-0.4v-2.1c0-2.2-1.1-3.1-2.6-3.1c-1.5,0-2.6,0.8-2.6,3.1v12.8c0,2.2,1.3,3.1,2.8,3.1c1.5,0,2.8-0.8,2.8-3.1
			v-3.4h-1.5c-0.2,0-0.4-0.1-0.4-0.4v-1.8c0-0.2,0.2-0.4,0.4-0.4h3.9C106.9,490,107.1,490.2,107.1,490.4z"/>
		<path fill="#353535" d="M113,480.5v7.2h4.6c0.2,0,0.4,0.2,0.4,0.4v1.7c0,0.2-0.2,0.4-0.4,0.4H113v8.4h6.6c0.2,0,0.4,0.2,0.4,0.4
			v1.8c0,0.2-0.2,0.4-0.4,0.4h-9c-0.2,0-0.4-0.2-0.4-0.4v-22.5c0-0.2,0.2-0.4,0.4-0.4h9c0.2,0,0.4,0.2,0.4,0.4v1.8
			c0,0.2-0.2,0.4-0.4,0.4H113z"/>
		<path fill="#353535" d="M133,494.1c0,0.6,0,2.2,0,2.2c0,3.2-2.3,5.3-5.3,5.3c-3.2,0-5.5-2.3-5.5-5.8v-2.1c0-0.2,0.1-0.4,0.4-0.4
			h1.9c0.2,0,0.4,0.2,0.4,0.4v2.6c0,2.1,1.3,2.9,2.9,2.9c1.9,0,2.6-1.3,2.6-2.9v-1.9c0-1.4-0.5-2.1-2.3-3.7l-2.8-2.6
			c-1.5-1.4-2.7-3.5-2.7-5.1c0-3.3,1.9-5.5,5.2-5.5c3.2,0,5.3,2.2,5.3,5.6v1.9c0,0.2-0.1,0.3-0.3,0.3h-2c-0.1,0-0.3-0.1-0.3-0.3
			v-2.2c0-2.2-1.1-3-2.6-3c-1.5,0-2.4,1-2.4,3c0,0.5,0.1,1.7,2.1,3.5c0.6,0.6,3.5,3.3,3.5,3.3C132.8,491.4,133,493.2,133,494.1z"/>
		<path fill="#353535" d="M11.5,514.3v1.8c0,0.2-0.2,0.4-0.4,0.4H7.7v20.3c0,0.2-0.2,0.4-0.4,0.4H5.4c-0.2,0-0.4-0.2-0.4-0.4v-20.3
			H1.6c-0.2,0-0.4-0.2-0.4-0.4v-1.8c0-0.2,0.2-0.4,0.4-0.4h9.5C11.3,513.9,11.5,514,11.5,514.3z"/>
		<path fill="#353535" d="M23.7,536.8c0,0.2-0.2,0.4-0.4,0.4h-2c-0.2,0-0.4-0.1-0.4-0.4l-0.7-4.5h-5.3l-0.7,4.5
			c-0.1,0.3-0.2,0.4-0.4,0.4h-2c-0.2,0-0.4-0.2-0.4-0.4l4.2-22.5c0.1-0.2,0.2-0.4,0.4-0.4h3c0.2,0,0.3,0.2,0.4,0.4L23.7,536.8z
			 M19.7,529.8l-2.2-13l-2.2,13H19.7z"/>
		<path fill="#353535" d="M36.5,519.1v2.2c0,0.2-0.2,0.4-0.4,0.4h-1.9c-0.2,0-0.4-0.2-0.4-0.4v-2.1c0-2.2-1.1-3.1-2.7-3.1
			c-1.5,0-2.6,0.8-2.6,3.1v12.8c0,2.2,1.1,3.1,2.6,3.1c1.5,0,2.7-0.8,2.7-3.1v-2.2c0-0.2,0.2-0.4,0.4-0.4h1.9c0.2,0,0.4,0.2,0.4,0.4
			v2.2c0,3.3-2.1,5.6-5.3,5.6c-3.2,0-5.3-2.3-5.3-5.6v-12.9c0-3.4,1.8-5.6,5.3-5.6C34.7,513.5,36.5,515.7,36.5,519.1z"/>
		<path fill="#353535" d="M50.8,537.2H49c-0.3,0-0.5-0.2-0.6-0.4l-3.9-11.1l-2.3,5.1v6c0,0.2-0.2,0.4-0.4,0.4h-1.9
			c-0.2,0-0.4-0.2-0.4-0.4v-22.5c0-0.2,0.2-0.4,0.4-0.4h1.9c0.2,0,0.4,0.3,0.4,0.4v11.4l5-11.4c0.1-0.2,0.2-0.5,0.5-0.5h2.1
			c0.3,0,0.4,0.1,0.3,0.5l-4,8.7l4.9,13.6C51.2,536.9,51,537.1,50.8,537.2z"/>
		<path fill="#353535" d="M56.2,534.6h6.7c0.2,0,0.4,0.1,0.4,0.4v1.9c0,0.2-0.1,0.4-0.4,0.4h-9c-0.2,0-0.4-0.2-0.4-0.4v-22.5
			c0-0.2,0.2-0.4,0.4-0.4h1.9c0.2,0,0.4,0.2,0.4,0.4V534.6z"/>
		<path fill="#353535" d="M68.5,516.5v7.2h4.6c0.2,0,0.4,0.2,0.4,0.4v1.7c0,0.2-0.2,0.4-0.4,0.4h-4.6v8.4h6.6c0.2,0,0.4,0.2,0.4,0.4
			v1.8c0,0.2-0.2,0.4-0.4,0.4h-9c-0.2,0-0.4-0.2-0.4-0.4v-22.5c0-0.2,0.2-0.4,0.4-0.4h9c0.2,0,0.4,0.2,0.4,0.4v1.8
			c0,0.2-0.2,0.4-0.4,0.4H68.5z"/>
		<path fill="#353535" d="M89.1,531.4c0,3.5-1.8,5.8-5.3,5.8h-5c-0.2,0-0.4-0.2-0.4-0.4v-22.5c0-0.2,0.2-0.4,0.4-0.4h5
			c3.8,0,5.4,2.7,5.4,6.3V531.4z M83.8,534.6c1.8,0,2.5-1.2,2.5-2.6v-12.5c0-1.5-0.5-3-2.5-3H81v18.1H83.8z"/>
	</g>
	<g>
		
			<circle fill="none" stroke="#353535" stroke-width="2" stroke-linecap="round" stroke-linejoin="round" stroke-miterlimit="10" cx="294.5" cy="483.4" r="37"/>
		<g>
			<path fill="none" stroke="#353535" stroke-width="2" stroke-linecap="round" stroke-linejoin="round" stroke-miterlimit="10" d="
				M295.1,470.3c-0.2,0.1-0.4,0.3-0.5,0.4C294.9,470.4,295.1,470.3,295.1,470.3z"/>
			<path fill="none" stroke="#353535" stroke-width="2" stroke-linecap="round" stroke-linejoin="round" stroke-miterlimit="10" d="
				M264.2,463.1c-0.2,2.5,0.1,4.9,2,6.7c0.5,0.5,1.3,0.7,1.8,1.3c0.7,0.9,1.3,1.3,2.1,1.6c1.3,0.4,1.6,1.3,2.5,2.4
				c0.9,1.1,1.6,1.7,2.1,3.1c0.6,1.6,4.8,1.6,6.3,2.4c2,1.1,10,6.5,12.3,6.2c0,0,2.8-0.1,2.3,2.1c-0.3,1-1.2,1.6-1.5,2.5
				c-0.3,0.9-0.1,1.6-0.2,2.4c-0.1,0.8-0.8,0-0.1,1.4c0.3,0.7,0.7,1.3,1.1,1.9c0.8,1.2,1.3,2.3,2.4,3.3c0.7,0.7,2.3,1.5,2.7,2.5
				c0.3,0.9,0.1,2.9-0.1,3.9c-0.4,2-0.3,4.5-0.9,6.4c-0.5,1.8-1.1,2.4-0.7,4.4c0.2,0.9-0.2,2.4-0.1,2.3c-0.1,0.2-0.1,0.3-0.2,0.4
				c1.6-0.1,3.1-0.4,4.6-0.7c0,0,0-0.1,0-0.1c0.2-0.6,1.3-3.2,1.9-3.3c-0.3-2.2,3.1-0.3,3.4-2.6c-0.4-0.2-0.3-0.1-0.4-0.4
				c0.1,0.4,1.6-0.2,1.8,0.1c0.1,0.2,2.1-2.5,2.3-2.8c0.6-0.6,1-1.1,1.4-1.8c1.1-2.2,1-1.8,3.1-2.8c-0.3,0.1,2.2-2,2.3-2.8
				c0.2-1-0.1-2,0.3-2.9c0.4-1.2,1.4-1.6,2-2.6c0.5-0.8,1-2,0.3-2.8c-1.2-1.3-4.8-1.6-5.7-2c-2.4-0.9-3-1-3.2-2.3
				c-0.3-2.8-3.8-2.5-4.7-3.3c-2.5-2.1-7.3-3-9.6-2.3c-1.7,0.5-0.8,1.8-2.4,1.1c-2.7-1.3-4.3-2.3-5.3-4c-0.4-0.6-1.1-0.2-0.9-0.9
				c0.2-0.8,2.1-2.8,0.1-2.8c-1.5,0.1-3.3,0.9-3.4-0.5c-0.2-2-0.3-3.1,1.5-4.2c1.5-0.9,3.7-1.8,4.9,0.2c0.4,0.6,1.3,2.8,1.8,1.4
				c0.1-0.4-0.4-2.4-0.5-3.2c0,0,0,0,0,0c0-0.1,0-0.2,0-0.3c0,0.1,0,0.1,0,0.2c0.5-0.8,2-1.9,1.7-1.6c0.5-0.4,1.2-0.8,1.4-1.3
				c0.1-0.4-0.4-0.8-0.1-1.3c-0.1,0.1,2.5-3.8,4.5-4.4c0.5-0.2,1.6,0,2.7,0.1c0.9,0.1,1.6-1,2.3-1.5c1.3-0.9,2.7-0.9,4.3-0.6
				c0.5,0.1-0.8-1.9-1-2c-1.3-1.2-0.8-1.2-0.7-1.7c0.2-0.7-1.5-1.9-1.9-2.3c-0.8-0.7-1.3-1.1-1.7-2.3c-0.5-1.2-0.6-2-2-1.5
				c-1.6,0.5-1.6,0.3-3.9-1.4c-0.5-0.4-2.5-1.1-3.4-0.4c-0.7,0.5,0.1,2.4,0.3,3.1c0.4,1.5-0.1,1-0.5,2.5c-0.5,1.6-0.5,2.5-1.8,2.7
				c-1.2,0.1-0.1-1.2-0.6-1.9c-0.4-0.5-2.4-1-3.1-1.3c-1.5-0.7-5.6-1.5-4.3-3.9c0.6-1.1,4.2-3.3,4-3.1c0.3-0.3,0.7-0.7,1-1
				c-10.6,1.1-19.9,6.8-25.9,15C264.4,462.1,264.2,462.6,264.2,463.1z"/>
			<path fill="none" stroke="#353535" stroke-width="2" stroke-linecap="round" stroke-linejoin="round" stroke-miterlimit="10" d="
				M302.6,519.5c0,0,0-0.1,0.1-0.2C302.7,519.3,302.7,519.4,302.6,519.5C302.6,519.5,302.6,519.5,302.6,519.5
				C302.6,519.5,302.6,519.5,302.6,519.5z"/>
		</g>
	</g>
	<g>
		<g>
			<path fill="#353535" d="M220.5,540.9h1.5v13.3h-1.5V540.9z"/>
			<path fill="#353535" d="M224.6,544.7h1.5v1.3c0.6-0.7,1.8-1.5,3-1.5c1.5,0,2.3,0.9,2.3,2.6v7.1H230v-6.8c0-1.1-0.4-1.7-1.3-1.7
				c-0.9,0-1.9,0.7-2.6,1.4v7.1h-1.5V544.7z"/>
			<path fill="#353535" d="M234.3,552.1v-6.2h-1.4v-1.2h1.4v-3.4h1.4v3.4h2.1v1.2h-2.1v5.8c0,1,0.3,1.4,1.3,1.4
				c0.3,0,0.6-0.1,0.8-0.1v1.2c-0.2,0.1-0.7,0.1-1.1,0.1C234.9,554.4,234.3,553.7,234.3,552.1z"/>
			<path fill="#353535" d="M239.1,549.5c0-3.4,1.8-5,3.7-5c2.1,0,3.4,1.7,3.4,4.9v0.4h-5.6c0.1,2.2,0.9,3.4,2.3,3.4
				c1.1,0,1.7-0.6,2.2-1.7l1,0.6c-0.7,1.4-1.8,2.3-3.3,2.3C240.7,554.4,239.1,552.8,239.1,549.5z M244.8,548.7
				c-0.1-1.7-0.7-2.9-2-2.9c-1.1,0-2,0.9-2.2,2.9H244.8z"/>
			<path fill="#353535" d="M248,544.7h1.5v1.6h0c0.5-1,1.5-1.8,3-1.8h0.2l-0.1,1.4c0,0-0.3,0-0.3,0c-1.2,0-2.3,0.8-2.8,1.9v6.4H248
				V544.7z"/>
			<path fill="#353535" d="M254.2,544.7h1.5v1.3c0.6-0.7,1.8-1.5,3-1.5c1.5,0,2.3,0.9,2.3,2.6v7.1h-1.4v-6.8c0-1.1-0.4-1.7-1.3-1.7
				c-0.9,0-1.9,0.7-2.6,1.4v7.1h-1.5V544.7z"/>
			<path fill="#353535" d="M262.7,552c0-1.9,1.6-3.3,5.3-4v-0.6c0-1.1-0.5-1.6-1.4-1.6c-1.2,0-2.1,0.6-2.8,1.3l-0.8-0.9
				c1-1,2.3-1.7,3.8-1.7c1.9,0,2.7,1,2.7,2.9v4.5c0,1.2,0.1,1.9,0.2,2.3h-1.5c-0.1-0.4-0.2-0.7-0.2-1.2c-0.8,0.8-1.8,1.4-3,1.4
				C263.6,554.4,262.7,553.5,262.7,552z M268,551.9V549c-2.9,0.6-3.9,1.6-3.9,2.8c0,1,0.5,1.4,1.3,1.4
				C266.5,553.2,267.4,552.7,268,551.9z"/>
			<path fill="#353535" d="M272.3,552.1v-6.2h-1.4v-1.2h1.4v-3.4h1.4v3.4h2.1v1.2h-2.1v5.8c0,1,0.3,1.4,1.3,1.4
				c0.3,0,0.6-0.1,0.8-0.1v1.2c-0.2,0.1-0.7,0.1-1.1,0.1C272.9,554.4,272.3,553.7,272.3,552.1z"/>
			<path fill="#353535" d="M277.7,541.3h1.5v1.6h-1.5V541.3z M277.7,544.7h1.5v9.5h-1.5V544.7z"/>
			<path fill="#353535" d="M281.1,549.5c0-3.3,1.6-5,3.8-5c2.1,0,3.7,1.7,3.7,5c0,3.3-1.6,5-3.7,5
				C282.7,554.4,281.1,552.8,281.1,549.5z M287.1,549.5c0-2.1-0.7-3.7-2.3-3.7c-1.5,0-2.3,1.5-2.3,3.7c0,2.1,0.7,3.7,2.3,3.7
				C286.4,553.2,287.1,551.7,287.1,549.5z"/>
			<path fill="#353535" d="M290.4,544.7h1.5v1.3c0.6-0.7,1.8-1.5,3-1.5c1.5,0,2.3,0.9,2.3,2.6v7.1h-1.4v-6.8c0-1.1-0.4-1.7-1.3-1.7
				c-0.9,0-1.9,0.7-2.6,1.4v7.1h-1.5V544.7z"/>
			<path fill="#353535" d="M299,552c0-1.9,1.6-3.3,5.3-4v-0.6c0-1.1-0.5-1.6-1.4-1.6c-1.2,0-2.1,0.6-2.8,1.3l-0.8-0.9
				c1-1,2.3-1.7,3.8-1.7c1.9,0,2.7,1,2.7,2.9v4.5c0,1.2,0.1,1.9,0.2,2.3h-1.5c-0.1-0.4-0.2-0.7-0.2-1.2c-0.8,0.8-1.8,1.4-3,1.4
				C299.8,554.4,299,553.5,299,552z M304.3,551.9V549c-2.9,0.6-3.9,1.6-3.9,2.8c0,1,0.5,1.4,1.3,1.4
				C302.7,553.2,303.6,552.7,304.3,551.9z"/>
			<path fill="#353535" d="M308,540.9h1.5v13.3H308V540.9z"/>
			<path fill="#353535" d="M315.7,540.9h1.9l3.4,11.2h0l3.3-11.2h1.9v13.3h-1.5v-10.9h0c-0.2,0.8-0.6,2.3-0.9,3.4l-2.3,7.5h-1.2
				l-2.3-7.6c-0.3-1-0.7-2.5-0.9-3.4h0v10.9h-1.4V540.9z"/>
			<path fill="#353535" d="M328.3,549.5c0-3.3,1.6-5,3.8-5c2.1,0,3.7,1.7,3.7,5c0,3.3-1.6,5-3.7,5
				C329.9,554.4,328.3,552.8,328.3,549.5z M334.3,549.5c0-2.1-0.7-3.7-2.3-3.7c-1.5,0-2.3,1.5-2.3,3.7c0,2.1,0.7,3.7,2.3,3.7
				C333.5,553.2,334.3,551.7,334.3,549.5z"/>
			<path fill="#353535" d="M339.1,553.1v1.1h-1.5v-13.3h1.5v5c0.6-0.7,1.4-1.4,2.6-1.4c1.9,0,3.2,1.5,3.2,4.9c0,3.4-1.5,4.9-3.3,4.9
				C340.5,554.4,339.7,553.9,339.1,553.1z M343.5,549.5c0-2.5-0.9-3.7-2.1-3.7c-0.9,0-1.6,0.6-2.2,1.3v4.8c0.7,0.8,1.4,1.3,2.3,1.3
				C342.6,553.2,343.5,552.1,343.5,549.5z"/>
			<path fill="#353535" d="M346.9,541.3h1.5v1.6h-1.5V541.3z M346.9,544.7h1.5v9.5h-1.5V544.7z"/>
			<path fill="#353535" d="M350.8,540.9h1.5v13.3h-1.5V540.9z"/>
			<path fill="#353535" d="M354.8,541.3h1.5v1.6h-1.5V541.3z M354.8,544.7h1.5v9.5h-1.5V544.7z"/>
			<path fill="#353535" d="M359.2,552.1v-6.2h-1.4v-1.2h1.4v-3.4h1.4v3.4h2.1v1.2h-2.1v5.8c0,1,0.3,1.4,1.3,1.4
				c0.3,0,0.6-0.1,0.8-0.1v1.2c-0.2,0.1-0.7,0.1-1.1,0.1C359.9,554.4,359.2,553.7,359.2,552.1z"/>
			<path fill="#353535" d="M363.5,557.7l0.3-1.2c0.2,0.1,0.7,0.1,1.2,0.1c0.8,0,1.2-0.5,1.5-1.5l0.3-0.8l-3-9.6h1.5l1.4,5
				c0.3,1,0.5,1.9,0.8,2.9h0c0.3-1,0.5-1.9,0.8-3l1.4-4.9h1.4l-3.3,10.6c-0.6,1.7-1.2,2.6-2.8,2.6
				C364.3,557.9,363.7,557.7,363.5,557.7z"/>
		</g>
	</g>
	<g>
		<g>
			<path fill="#353535" d="M638.6,540.9h6.7v1.4h-5.2v4.3h3.8v1.4h-3.8v6.3h-1.5V540.9z"/>
			<path fill="#353535" d="M647.1,541.3h1.5v1.6h-1.5V541.3z M647.1,544.7h1.5v9.5h-1.5V544.7z"/>
			<path fill="#353535" d="M651,544.7h1.5v1.3c0.6-0.7,1.8-1.5,3-1.5c1.5,0,2.3,0.9,2.3,2.6v7.1h-1.4v-6.8c0-1.1-0.4-1.7-1.3-1.7
				c-0.9,0-1.9,0.7-2.6,1.4v7.1H651V544.7z"/>
			<path fill="#353535" d="M659.5,552c0-1.9,1.6-3.3,5.3-4v-0.6c0-1.1-0.5-1.6-1.4-1.6c-1.2,0-2.1,0.6-2.8,1.3l-0.8-0.9
				c1-1,2.3-1.7,3.8-1.7c1.9,0,2.7,1,2.7,2.9v4.5c0,1.2,0.1,1.9,0.2,2.3H665c-0.1-0.4-0.2-0.7-0.2-1.2c-0.8,0.8-1.8,1.4-3,1.4
				C660.4,554.4,659.5,553.5,659.5,552z M664.8,551.9V549c-2.9,0.6-3.9,1.6-3.9,2.8c0,1,0.5,1.4,1.3,1.4
				C663.3,553.2,664.2,552.7,664.8,551.9z"/>
			<path fill="#353535" d="M668.5,544.7h1.5v1.3c0.6-0.7,1.8-1.5,3-1.5c1.5,0,2.3,0.9,2.3,2.6v7.1h-1.4v-6.8c0-1.1-0.4-1.7-1.3-1.7
				c-0.9,0-1.9,0.7-2.6,1.4v7.1h-1.5V544.7z"/>
			<path fill="#353535" d="M677.1,549.5c0-3.4,1.7-5,3.7-5c1.9,0,2.7,1.3,3.2,2.8l-1.3,0.4c-0.3-1.2-0.8-1.9-1.9-1.9
				c-1.2,0-2.2,1.1-2.2,3.7c0,2.3,0.8,3.7,2.2,3.7c1,0,1.6-0.6,2-2l1.3,0.3c-0.5,1.8-1.6,2.8-3.3,2.8
				C678.7,554.4,677.1,552.8,677.1,549.5z"/>
			<path fill="#353535" d="M685.8,541.3h1.5v1.6h-1.5V541.3z M685.8,544.7h1.5v9.5h-1.5V544.7z"/>
			<path fill="#353535" d="M689.2,552c0-1.9,1.6-3.3,5.3-4v-0.6c0-1.1-0.5-1.6-1.4-1.6c-1.2,0-2.1,0.6-2.8,1.3l-0.8-0.9
				c1-1,2.3-1.7,3.8-1.7c1.9,0,2.7,1,2.7,2.9v4.5c0,1.2,0.1,1.9,0.2,2.3h-1.5c-0.1-0.4-0.2-0.7-0.2-1.2c-0.8,0.8-1.8,1.4-3,1.4
				C690.1,554.4,689.2,553.5,689.2,552z M694.5,551.9V549c-2.9,0.6-3.9,1.6-3.9,2.8c0,1,0.5,1.4,1.3,1.4
				C693,553.2,693.9,552.7,694.5,551.9z"/>
			<path fill="#353535" d="M698.3,540.9h1.5v13.3h-1.5V540.9z"/>
			<path fill="#353535" d="M705.2,551.3l1.3-0.6c0.6,1.4,1.6,2.4,3.1,2.4c1.6,0,2.5-0.8,2.5-2.1c0-1.5-1.3-2.2-2.7-2.9
				c-1.7-0.8-3.6-1.7-3.6-4.1c0-1.9,1.6-3.3,3.6-3.3c2.1,0,3.3,1.3,4,2.8l-1.3,0.6c-0.5-1.1-1.3-2.1-2.7-2.1c-1.3,0-2.1,0.8-2.1,1.9
				c0,1.5,1.3,2.2,2.7,2.9c1.7,0.8,3.6,1.7,3.6,4.1c0,1.9-1.5,3.5-4,3.5C707.4,554.5,706,553.2,705.2,551.3z"/>
			<path fill="#353535" d="M715.1,549.5c0-3.4,1.8-5,3.7-5c2.1,0,3.4,1.7,3.4,4.9v0.4h-5.6c0.1,2.2,0.9,3.4,2.3,3.4
				c1.1,0,1.7-0.6,2.2-1.7l1,0.6c-0.7,1.4-1.8,2.3-3.3,2.3C716.7,554.4,715.1,552.8,715.1,549.5z M720.8,548.7
				c-0.1-1.7-0.7-2.9-2-2.9c-1.1,0-2,0.9-2.2,2.9H720.8z"/>
			<path fill="#353535" d="M724,544.7h1.5v1.6h0c0.5-1,1.5-1.8,3-1.8h0.2l-0.1,1.4c0,0-0.3,0-0.3,0c-1.2,0-2.3,0.8-2.8,1.9v6.4H724
				V544.7z"/>
			<path fill="#353535" d="M729.4,544.7h1.5l1.5,5.4c0.2,0.8,0.4,1.5,0.7,2.6h0c0.3-1.1,0.4-1.7,0.7-2.6l1.5-5.4h1.4l-2.9,9.5h-1.5
				L729.4,544.7z"/>
			<path fill="#353535" d="M738.3,541.3h1.5v1.6h-1.5V541.3z M738.3,544.7h1.5v9.5h-1.5V544.7z"/>
			<path fill="#353535" d="M741.7,549.5c0-3.4,1.7-5,3.7-5c1.9,0,2.7,1.3,3.2,2.8l-1.3,0.4c-0.3-1.2-0.8-1.9-1.9-1.9
				c-1.2,0-2.2,1.1-2.2,3.7c0,2.3,0.8,3.7,2.2,3.7c1,0,1.6-0.6,2-2l1.3,0.3c-0.5,1.8-1.6,2.8-3.3,2.8
				C743.3,554.4,741.7,552.8,741.7,549.5z"/>
			<path fill="#353535" d="M749.9,549.5c0-3.4,1.8-5,3.7-5c2.1,0,3.4,1.7,3.4,4.9v0.4h-5.6c0.1,2.2,0.9,3.4,2.3,3.4
				c1.1,0,1.7-0.6,2.2-1.7l1,0.6c-0.7,1.4-1.8,2.3-3.3,2.3C751.5,554.4,749.9,552.8,749.9,549.5z M755.6,548.7
				c-0.1-1.7-0.7-2.9-2-2.9c-1.1,0-2,0.9-2.2,2.9H755.6z"/>
			<path fill="#353535" d="M758,552.5l1-0.7c0.6,1,1.6,1.5,2.6,1.5c1.2,0,1.9-0.5,1.9-1.4c0-2.3-5-1.4-5-4.8c0-1.5,1.2-2.6,3-2.6
				c1.4,0,2.4,0.7,3.1,1.7l-1,0.8c-0.5-0.7-1.2-1.3-2.2-1.3c-1.1,0-1.6,0.5-1.6,1.3c0,2.4,4.9,1.3,4.9,4.8c0,1.7-1.5,2.7-3.3,2.7
				C759.9,554.4,758.8,553.7,758,552.5z"/>
		</g>
	</g>
	<g>
		<path fill="none" stroke="#353535" stroke-width="2" stroke-linecap="round" stroke-linejoin="round" stroke-miterlimit="10" d="
			M659.2,481.5c-4.6,0-8.4-3.8-8.4-8.4c0-4.6,3.8-8.4,8.4-8.4"/>
		<path fill="none" stroke="#353535" stroke-width="2" stroke-linecap="round" stroke-linejoin="round" stroke-miterlimit="10" d="
			M695.6,480.1c0-2.3,1.9-4.2,4.2-4.2c2.3,0,4.2,1.9,4.2,4.2"/>
		<path fill="none" stroke="#353535" stroke-width="2" stroke-linecap="round" stroke-linejoin="round" stroke-miterlimit="10" d="
			M724.9,473.1h-0.5c-3.5,0-6.9-1.6-9-4.5c-0.2-0.3-0.4-0.6-0.6-0.8c3.6-2.1,7.8-9.9,6.7-12.4c-0.7-1.6-11.5-0.8-15.4,4.8
			c0,0.1-0.1,0.1-0.1,0.2c-4.7-2.6-10.2-4.1-16.1-4.1c-17,0-30.7,12.5-30.7,27.9c0,5.3,1.6,10.2,4.4,14.4c2,3,2.6,6.6,1.7,10
			l-1.1,3.6c-1.5,5.6,15.2,9.3,16.6,4.6l0.6-2c0.5-1.9,2.3-3.2,4.3-2.9c1.4,0.2,2.7,0.3,4.2,0.3c1.2,0,2.4-0.1,3.6-0.2
			c2-0.2,3.9,1,4.4,2.9l0.7,2.1c1.6,4.9,18.4,0.7,16.6-4.7l-1-3.1c-0.9-3.4-0.3-7.1,1.7-10.1c0,0,0,0,0,0c1.6-2.3,4-3.7,6.8-3.7h2.1
			c3.9,0,7-5,7-11.2C731.9,478.1,728.8,473.1,724.9,473.1z"/>
		<path fill="none" stroke="#353535" stroke-width="2" stroke-linecap="round" stroke-linejoin="round" stroke-miterlimit="10" d="
			M669.7,505.3c-2.2-1.8-4.2-3.8-6.1-6.6"/>
		<path fill="none" stroke="#353535" stroke-width="2" stroke-linecap="round" stroke-linejoin="round" stroke-miterlimit="10" d="
			M686.7,512c-3.1-0.3-5.7-1.2-7.2-1.8"/>
		<path fill="none" stroke="#353535" stroke-width="2" stroke-linecap="round" stroke-linejoin="round" stroke-miterlimit="10" d="
			M699.8,510.8c-2,0.6-4,1-6.2,1.3"/>
		<path fill="none" stroke="#353535" stroke-width="2" stroke-linecap="round" stroke-linejoin="round" stroke-miterlimit="10" d="
			M716,499.2c-1.9,2.7-3.2,4.4-6,6.3"/>
		<path fill="none" stroke="#353535" stroke-width="2" stroke-linecap="round" stroke-linejoin="round" stroke-miterlimit="10" d="
			M719.9,490.7c-0.7,2.7-1.8,5.2-3.3,7.6"/>
		<path fill="none" stroke="#353535" stroke-width="2" stroke-linecap="round" stroke-linejoin="round" stroke-miterlimit="10" d="
			M680,457.5c-0.2-0.7-0.2-1.5-0.2-2.2c0-5.7,4.6-10.3,10.3-10.3c5.7,0,10.3,4.6,10.3,10.3c0,0.7-0.1,1.4-0.2,2.1"/>
	</g>
	<g>
		<g>
			<path fill="#353535" d="M434.5,547.6c0-4.4,1.9-6.9,4.8-6.9c2.5,0,3.7,1.7,4.1,4.2l-1.4,0.3c-0.4-2-1.2-3.1-2.8-3.1
				c-2.1,0-3.2,2.1-3.2,5.5c0,3.6,1.2,5.6,3.2,5.6c1.6,0,2.4-1,2.9-3.2l1.4,0.2c-0.5,2.6-1.8,4.4-4.3,4.4
				C436.3,554.5,434.5,552.1,434.5,547.6z"/>
			<path fill="#353535" d="M444.8,552c0-1.9,1.6-3.3,5.3-4v-0.6c0-1.1-0.5-1.6-1.4-1.6c-1.2,0-2.1,0.6-2.8,1.3l-0.8-0.9
				c1-1,2.3-1.7,3.8-1.7c1.9,0,2.7,1,2.7,2.9v4.5c0,1.2,0.1,1.9,0.2,2.3h-1.5c-0.1-0.4-0.2-0.7-0.2-1.2c-0.8,0.8-1.8,1.4-3,1.4
				C445.7,554.4,444.8,553.5,444.8,552z M450.2,551.9V549c-2.9,0.6-3.9,1.6-3.9,2.8c0,1,0.5,1.4,1.3,1.4
				C448.6,553.2,449.5,552.7,450.2,551.9z"/>
			<path fill="#353535" d="M453.8,544.7h1.5v1.6h0c0.5-1,1.5-1.8,3-1.8h0.2l-0.1,1.4c0,0-0.3,0-0.3,0c-1.2,0-2.3,0.8-2.8,1.9v6.4
				h-1.5V544.7z"/>
			<path fill="#353535" d="M459.6,549.5c0-3.4,1.8-5,3.7-5c2.1,0,3.4,1.7,3.4,4.9v0.4H461c0.1,2.2,0.9,3.4,2.3,3.4
				c1.1,0,1.7-0.6,2.2-1.7l1,0.6c-0.7,1.4-1.8,2.3-3.3,2.3C461.2,554.4,459.6,552.8,459.6,549.5z M465.3,548.7
				c-0.1-1.7-0.7-2.9-2-2.9c-1.1,0-2,0.9-2.2,2.9H465.3z"/>
			<path fill="#353535" d="M468,549.5c0-3.4,1.8-5,3.7-5c2.1,0,3.4,1.7,3.4,4.9v0.4h-5.6c0.1,2.2,0.9,3.4,2.3,3.4
				c1.1,0,1.7-0.6,2.2-1.7l1,0.6c-0.7,1.4-1.8,2.3-3.3,2.3C469.6,554.4,468,552.8,468,549.5z M473.7,548.7c-0.1-1.7-0.7-2.9-2-2.9
				c-1.1,0-2,0.9-2.2,2.9H473.7z"/>
			<path fill="#353535" d="M477,544.7h1.5v1.6h0c0.5-1,1.5-1.8,3-1.8h0.2l-0.1,1.4c0,0-0.3,0-0.3,0c-1.2,0-2.3,0.8-2.8,1.9v6.4H477
				V544.7z"/>
			<path fill="#353535" d="M487,540.9h3.7c2.4,0,4.1,1.1,4.1,3.8c0,3-1.9,4-4.2,4h-2.1v5.6H487V540.9z M490.7,547.4
				c1.8,0,2.7-0.7,2.7-2.6c0-1.8-0.9-2.5-2.7-2.5h-2.2v5.1H490.7z"/>
			<path fill="#353535" d="M496.8,540.9h1.5v13.3h-1.5V540.9z"/>
			<path fill="#353535" d="M500.2,552c0-1.9,1.6-3.3,5.3-4v-0.6c0-1.1-0.5-1.6-1.4-1.6c-1.2,0-2.1,0.6-2.8,1.3l-0.8-0.9
				c1-1,2.3-1.7,3.8-1.7c1.9,0,2.7,1,2.7,2.9v4.5c0,1.2,0.1,1.9,0.2,2.3h-1.5c-0.1-0.4-0.2-0.7-0.2-1.2c-0.8,0.8-1.8,1.4-3,1.4
				C501,554.4,500.2,553.5,500.2,552z M505.5,551.9V549c-2.9,0.6-3.9,1.6-3.9,2.8c0,1,0.5,1.4,1.3,1.4
				C503.9,553.2,504.8,552.7,505.5,551.9z"/>
			<path fill="#353535" d="M508.7,549.5c0-3.4,1.7-5,3.7-5c1.9,0,2.7,1.3,3.2,2.8l-1.3,0.4c-0.3-1.2-0.8-1.9-1.9-1.9
				c-1.2,0-2.2,1.1-2.2,3.7c0,2.3,0.8,3.7,2.2,3.7c1,0,1.6-0.6,2-2l1.3,0.3c-0.5,1.8-1.6,2.8-3.3,2.8
				C510.3,554.4,508.7,552.8,508.7,549.5z"/>
			<path fill="#353535" d="M516.9,549.5c0-3.4,1.8-5,3.7-5c2.1,0,3.4,1.7,3.4,4.9v0.4h-5.6c0.1,2.2,0.9,3.4,2.3,3.4
				c1.1,0,1.7-0.6,2.2-1.7l1,0.6c-0.7,1.4-1.8,2.3-3.3,2.3C518.5,554.4,516.9,552.8,516.9,549.5z M522.6,548.7
				c-0.1-1.7-0.7-2.9-2-2.9c-1.1,0-2,0.9-2.2,2.9H522.6z"/>
			<path fill="#353535" d="M525.8,544.7h1.5v1.3c0.7-0.7,1.7-1.5,2.9-1.5c1.3,0,1.9,0.5,2.2,1.5c0.7-0.8,1.7-1.5,3-1.5
				c1.5,0,2.3,0.9,2.3,2.6v7.1h-1.4v-6.8c0-1.1-0.4-1.7-1.3-1.7c-0.9,0-1.7,0.6-2.4,1.3v7.1H531v-6.8c0-1.1-0.3-1.7-1.3-1.7
				c-0.8,0-1.6,0.6-2.4,1.4v7.1h-1.5V544.7z"/>
			<path fill="#353535" d="M539.4,549.5c0-3.4,1.8-5,3.7-5c2.1,0,3.4,1.7,3.4,4.9v0.4h-5.6c0.1,2.2,0.9,3.4,2.3,3.4
				c1.1,0,1.7-0.6,2.2-1.7l1,0.6c-0.7,1.4-1.8,2.3-3.3,2.3C541,554.4,539.4,552.8,539.4,549.5z M545.1,548.7c-0.1-1.7-0.7-2.9-2-2.9
				c-1.1,0-2,0.9-2.2,2.9H545.1z"/>
			<path fill="#353535" d="M548.3,544.7h1.5v1.3c0.6-0.7,1.8-1.5,3-1.5c1.5,0,2.3,0.9,2.3,2.6v7.1h-1.4v-6.8c0-1.1-0.4-1.7-1.3-1.7
				c-0.9,0-1.9,0.7-2.6,1.4v7.1h-1.5V544.7z"/>
			<path fill="#353535" d="M557.9,552.1v-6.2h-1.4v-1.2h1.4v-3.4h1.4v3.4h2.1v1.2h-2.1v5.8c0,1,0.3,1.4,1.3,1.4
				c0.3,0,0.6-0.1,0.8-0.1v1.2c-0.2,0.1-0.7,0.1-1.1,0.1C558.6,554.4,557.9,553.7,557.9,552.1z"/>
		</g>
	</g>
	<g>
		
			<path fill-rule="evenodd" clip-rule="evenodd" fill="none" stroke="#353535" stroke-width="2" stroke-linecap="round" stroke-linejoin="round" stroke-miterlimit="10" d="
			M462.3,475.6v34.9c0,1.9,1.6,3.5,3.5,3.5h7c1.9,0,3.5-1.6,3.5-3.5v-34.9"/>
		
			<line fill="none" stroke="#353535" stroke-width="2" stroke-linecap="round" stroke-linejoin="round" stroke-miterlimit="10" x1="469.3" y1="492.1" x2="469.3" y2="514"/>
		
			<path fill-rule="evenodd" clip-rule="evenodd" fill="none" stroke="#353535" stroke-width="2" stroke-linecap="round" stroke-linejoin="round" stroke-miterlimit="10" d="
			M479.7,488.5c-1.3,0.9-1.7,1.1-2.2,1.1h-1.3"/>
		
			<path fill-rule="evenodd" clip-rule="evenodd" fill="none" stroke="#353535" stroke-width="2" stroke-linecap="round" stroke-linejoin="round" stroke-miterlimit="10" d="
			M462.3,489.6H461c-1.1,0-5.7-1-5.7-5.6c0-4.8,0-3.8,0-10c0-4.1,2.7-7.2,10.5-7.8v-0.8c-2-1.1-2.7-3.3-2.7-5.9c0-3.6,2.7-6.5,6-6.5
			h0.2c3.3,0,6,2.9,6,6.5c0,2.6-0.7,4.8-2.7,5.9v0.8c2.7,0.2,4.8,0.7,6.4,1.5"/>
		<g>
			
				<path fill-rule="evenodd" clip-rule="evenodd" fill="none" stroke="#353535" stroke-width="2" stroke-linecap="round" stroke-linejoin="round" stroke-miterlimit="10" d="
				M511.7,501.6c-7.6,0.6-18.4-4.1-22.1-6.6c-2-1.4-4.5-4.8-6-7.4c-2.7-4.8-3.3-7.8-1.7-9.6c1.6-1.8,6.5-0.9,10.3,7.4
				c2.6-0.4,4.7-0.9,6.5-1.1c0.9-3.7-3.4-11.4-5.9-15.1c-0.8,1.9-2.4,2.9-4.1,3.8c-3.7,2.1-8.1,0.4-6.7-3c2-4.6,8.6-11.3,11.1-12.4
				c6.4-2.7,14.6,17.1,14.6,17.1"/>
			
				<path fill-rule="evenodd" clip-rule="evenodd" fill="none" stroke="#353535" stroke-width="2" stroke-linecap="round" stroke-linejoin="round" stroke-miterlimit="10" d="
				M511.6,459.5c1-1.2,2.1-1.9,3-2.3c3.2-1.4,7-0.3,8.6,2.9l4.1,8.3 M499.6,460.4c0.6-2.1,3.5-3.1,3.5-3.1c3.2-1.6,7-0.3,8.6,2.9
				l5.1,10.4"/>
			
				<path fill-rule="evenodd" clip-rule="evenodd" fill="none" stroke="#353535" stroke-width="2" stroke-linecap="round" stroke-linejoin="round" stroke-miterlimit="10" d="
				M522.8,459.3c0.6-0.6,1.5-1.2,2.1-1.5c3.5-1.7,6.2-0.2,8.6,2.9c4,5.2,6.2,10.6,7.8,15.7c1.9,6.1,0.1,11.9,0.1,11.9
				c2.2,4.4,0.4,9.8-4.1,12l-15,7.4c-4.4,2.2-9.8,0.4-12-4.1l-0.9-1.8"/>
			<path fill="none" stroke="#353535" stroke-width="2" stroke-linecap="round" stroke-linejoin="round" stroke-miterlimit="10" d="
				M538.3,488.5l0.7-0.3c1.4-0.7,2.6-1.4,3.1-3.5"/>
		</g>
	</g>
	
		<line fill="none" stroke="#353535" stroke-width="2" stroke-linecap="round" stroke-linejoin="round" stroke-miterlimit="10" stroke-dasharray="1,6" x1="396" y1="434.4" x2="396" y2="565.3"/>
	
		<line fill="none" stroke="#353535" stroke-width="2" stroke-linecap="round" stroke-linejoin="round" stroke-miterlimit="10" stroke-dasharray="1,6" x1="599.9" y1="434.4" x2="599.9" y2="565.3"/>
</g>
</svg>
