<?xml version="1.0" encoding="utf-8"?>
<!-- Generator: Adobe Illustrator 17.1.0, SVG Export Plug-In . SVG Version: 6.00 Build 0)  -->
<!DOCTYPE svg PUBLIC "-//W3C//DTD SVG 1.1//EN" "http://www.w3.org/Graphics/SVG/1.1/DTD/svg11.dtd">
<svg version="1.1" id="Layer_1" xmlns="http://www.w3.org/2000/svg" xmlns:xlink="http://www.w3.org/1999/xlink" x="0px" y="0px"
	 viewBox="0 0 861.5 571" enable-background="new 0 0 861.5 571" xml:space="preserve">
<rect x="87.8" y="293.2" fill="none" width="220" height="55.1"/>
<text transform="matrix(1 0 0 1 121.4791 317.0338)"><tspan x="0" y="0" fill="#353535" font-family="'Interborough'" font-size="36">MORE CLIENTS</tspan><tspan x="22.3" y="30" fill="#353535" font-family="'Interborough'" font-size="36">THAN 2013</tspan></text>
<rect x="119.5" y="434.7" fill="none" width="264.9" height="66.4"/>
<text transform="matrix(1 0 0 1 119.5035 500.9)" fill="#FFFFFF" font-family="'Interborough'" font-size="100">123 HRS.</text>
<rect x="547.5" y="434.7" fill="none" width="274.9" height="66.4"/>
<text transform="matrix(1 0 0 1 547.5035 500.9)" fill="#FFFFFF" font-family="'Interborough'" font-size="100">10,564</text>
<g>
	
		<line fill="none" stroke="#353535" stroke-width="3" stroke-linecap="round" stroke-linejoin="round" stroke-miterlimit="10" x1="485.2" y1="480.2" x2="461.5" y2="480.2"/>
	
		<line fill="none" stroke="#353535" stroke-width="3" stroke-linecap="round" stroke-linejoin="round" stroke-miterlimit="10" x1="501" y1="513.1" x2="445.6" y2="513.1"/>
	
		<line fill="none" stroke="#353535" stroke-width="3" stroke-linecap="round" stroke-linejoin="round" stroke-miterlimit="10" x1="501" y1="496.6" x2="445.6" y2="496.6"/>
	
		<polygon fill="none" stroke="#353535" stroke-width="3" stroke-linecap="round" stroke-linejoin="round" stroke-miterlimit="10" points="
		425.1,451.4 521.6,451.4 521.6,546 445.6,546 425.1,525.4 	"/>
	
		<polyline fill="none" stroke="#353535" stroke-width="3" stroke-linecap="round" stroke-linejoin="round" stroke-miterlimit="10" points="
		445.6,546 445.6,525.4 425.1,525.4 	"/>
</g>
<g>
	
		<polyline fill="none" stroke="#353535" stroke-width="3" stroke-linecap="round" stroke-linejoin="round" stroke-miterlimit="10" points="
		412.4,515.6 412.4,438.8 508,438.8 	"/>
</g>
<polygon fill="none" points="364.6,552.4 124.5,552.4 124.5,520 365.5,520 "/>
<text transform="matrix(1 0 0 1 124.5057 543.8234)" fill="#353535" font-family="'Interborough'" font-size="36">SPENT IN WORKSHOPS</text>
<path fill="none" stroke="#353535" stroke-width="6" stroke-linecap="round" stroke-linejoin="round" stroke-miterlimit="10" d="
	M724.6,281.3v54.3c0,2.4-1.9,4.3-4.3,4.3H597.1c-2.4,0-4.3-1.9-4.3-4.3v-54.3"/>
<path fill="none" stroke="#353535" stroke-width="6" stroke-linecap="round" stroke-linejoin="round" stroke-miterlimit="10" d="
	M709.9,341.2v7.3c0,28.3-23,51.3-51.3,51.3l0,0c-28.3,0-51.3-23-51.3-51.3v-7.3"/>
<path fill="none" stroke="#353535" stroke-width="6" stroke-linecap="round" stroke-linejoin="round" stroke-miterlimit="10" d="
	M790.5,134.8c0-77.8-67.3-139.8-146.9-131C581.6,10.7,532.1,62,527.3,124.3c-3.5,44.5,15.2,84.7,46.1,110.9
	c12.7,10.8,19.4,27,19.4,43.6v2.5h131.8v-3.7c0-16.1,6.7-31.7,19-42.1C772.2,211.4,790.5,175.3,790.5,134.8z"/>
<line fill="none" stroke="#353535" stroke-width="6" stroke-linecap="round" stroke-linejoin="round" stroke-miterlimit="10" x1="614" y1="370.5" x2="704.1" y2="370.5"/>
<g>
	<rect x="518.4" y="86.3" fill="none" width="280.5" height="79"/>
	<text transform="matrix(1 0 0 1 602.1134 152.488)" fill="#FFFFFF" font-family="'Interborough'" font-size="100">305</text>
</g>
<g>
	<rect x="514" y="176.3" fill="none" width="284" height="55"/>
	<text transform="matrix(1 0 0 1 565.8654 189.6461)" fill="#353535" font-family="'BentonSans-CondensedRegular'" font-size="18">Actionable ideas created.</text>
</g>
<rect x="0" y="229" fill-rule="evenodd" clip-rule="evenodd" fill="none" width="149" height="142"/>
<text transform="matrix(1 0 0 1 1.042128e-04 348.132)" fill="#353535" font-family="'Interborough'" font-size="180">4x</text>
<g>
	
		<circle fill="none" stroke="#353535" stroke-width="3" stroke-linecap="round" stroke-linejoin="round" stroke-miterlimit="10" cx="56.5" cy="490" r="52.6"/>
	
		<line fill="none" stroke="#353535" stroke-width="3" stroke-linecap="round" stroke-linejoin="round" stroke-miterlimit="10" x1="56.5" y1="447.4" x2="56.5" y2="447.4"/>
	
		<line fill="none" stroke="#353535" stroke-width="3" stroke-linecap="round" stroke-linejoin="round" stroke-miterlimit="10" x1="56.5" y1="532.5" x2="56.5" y2="532.5"/>
	
		<line fill="none" stroke="#353535" stroke-width="3" stroke-linecap="round" stroke-linejoin="round" stroke-miterlimit="10" x1="99.1" y1="490" x2="99.1" y2="490"/>
	
		<line fill="none" stroke="#353535" stroke-width="3" stroke-linecap="round" stroke-linejoin="round" stroke-miterlimit="10" x1="14" y1="490" x2="14" y2="490"/>
	
		<circle fill="none" stroke="#353535" stroke-width="3" stroke-linecap="round" stroke-linejoin="round" stroke-miterlimit="10" cx="56.5" cy="490" r="5"/>
	
		<line fill="none" stroke="#353535" stroke-width="3" stroke-linecap="round" stroke-linejoin="round" stroke-miterlimit="10" x1="56.5" y1="460" x2="56.5" y2="485"/>
	
		<line fill="none" stroke="#353535" stroke-width="3" stroke-linecap="round" stroke-linejoin="round" stroke-miterlimit="10" x1="51.5" y1="490" x2="29" y2="490"/>
</g>
<polygon fill="none" points="565.9,345.2 328.9,345.2 327.9,278.7 564.9,278.7 "/>
<text transform="matrix(1 0 0 1 328.0968 291.9809)"><tspan x="0" y="0" fill="#353535" font-family="'BentonSans-CondensedRegular'" font-size="18">Over 250 participants from</tspan><tspan x="0.5" y="30" fill="#353535" font-family="'BentonSans-CondensedRegular'" font-size="18">12 different companies</tspan></text>
<g>
	<g>
		<path fill="none" stroke="#000000" stroke-linecap="round" stroke-linejoin="round" d="M294.8,366.1c4.9,0,8.4-4.9,8.4-10.7v-23.3
			c0-15.1-1.8-25.8,12.3-32.4"/>
	</g>
	<g>
		<path fill="none" stroke="#000000" stroke-linecap="round" stroke-linejoin="round" d="M315.5,299.8c-14-6.6-12.3-17.4-12.3-32.4
			v-20c0-5.9-3.6-10.7-8.4-10.7"/>
	</g>
</g>
<rect x="546.5" y="518" fill="none" width="315" height="53"/>
<text transform="matrix(1 0 0 1 546.5056 541.8234)" fill="#353535" font-family="'Interborough'" font-size="36">Post-Its Sacrificed</text>
</svg>
