<?xml version="1.0" encoding="utf-8"?>
<!-- Generator: Adobe Illustrator 17.1.0, SVG Export Plug-In . SVG Version: 6.00 Build 0)  -->
<!DOCTYPE svg PUBLIC "-//W3C//DTD SVG 1.1//EN" "http://www.w3.org/Graphics/SVG/1.1/DTD/svg11.dtd">
<svg version="1.1" id="Layer_1" xmlns="http://www.w3.org/2000/svg" xmlns:xlink="http://www.w3.org/1999/xlink" x="0px" y="0px"
	 viewBox="0 0 104 90" enable-background="new 0 0 104 90" xml:space="preserve">
<g>
	<g>
		
			<path fill-rule="evenodd" clip-rule="evenodd" fill="none" stroke="#3DAFFC" stroke-width="2" stroke-linecap="round" stroke-linejoin="round" stroke-miterlimit="10" d="
			M58.4,50.2c-4.6-2.5-9.7-12.6-9.4-16.8c0.1-2,0.8-3.3,3-5.5c2.1-2.1,3-2.3,4.8-2.5c4.1-0.3,14.4,4.6,17.1,9
			c2.3,3.9,0.9,9-2.8,12.8C67.3,50.9,62.3,52.4,58.4,50.2L58.4,50.2z"/>
		
			<path fill-rule="evenodd" clip-rule="evenodd" fill="none" stroke="#3DAFFC" stroke-width="2" stroke-linecap="round" stroke-linejoin="round" stroke-miterlimit="10" d="
			M38.9,47.5c0.1,1.2-1.7,2.3-4,1.7c-2.9-0.7-6.3-4.4-5.7-6.5c0.7-2.8,4.4-2.9,6-2.7c1.5,0.2,3.8,1.1,3.5,2.3"/>
		
			<path fill-rule="evenodd" clip-rule="evenodd" fill="none" stroke="#3DAFFC" stroke-width="2" stroke-linecap="round" stroke-linejoin="round" stroke-miterlimit="10" d="
			M49.4,36.5c-0.1-0.5-0.4-0.9-0.9-1.2c-1.8-0.8-7.4,2.5-8.4,3.9c-1.1,1.6-1.9,3.8-1.3,7.7c1.2,7.7,11.9,8.9,16.3,5.6
			c1.1-0.9,1.8-2.2,1.8-3.4l0,0"/>
		
			<path fill-rule="evenodd" clip-rule="evenodd" fill="none" stroke="#3DAFFC" stroke-width="2" stroke-linecap="round" stroke-linejoin="round" stroke-miterlimit="10" d="
			M71,15.3c1.2,0.1,2.3-1.7,1.7-4c-0.7-2.9-4.4-6.3-6.5-5.7c-2.8,0.7-2.9,4.4-2.7,6c0.2,1.5,1.1,3.8,2.3,3.5"/>
		
			<path fill-rule="evenodd" clip-rule="evenodd" fill="none" stroke="#3DAFFC" stroke-width="2" stroke-linecap="round" stroke-linejoin="round" stroke-miterlimit="10" d="
			M59.9,25.8c-0.5-0.1-0.7-0.3-1-0.8c-0.8-1.8,2.5-7.4,3.9-8.4c1.6-1.1,3.8-1.9,7.7-1.3c7.7,1.2,9.1,11.7,5.8,16.1
			c-0.9,1.1-2.2,1.8-3.4,1.8l0,0"/>
	</g>
	<g>
		<path fill="#3DAFFC" d="M15.6,75.9l-1.6,2c-0.7-0.9-1.8-1.5-2.8-1.5c-1.8,0-3.1,1.4-3.1,3.2c0,1.9,1.3,3.3,3.1,3.3
			c0.9,0,2-0.5,2.8-1.3l1.7,1.8c-1.2,1.2-3,2-4.6,2c-3.4,0-5.9-2.5-5.9-5.8c0-3.2,2.6-5.7,6-5.7C12.7,74,14.5,74.7,15.6,75.9z"/>
		<path fill="#3DAFFC" d="M20.9,83.2l-0.8,2.1h-2.9L22,74.1h2.9l4.7,11.2h-3l-0.8-2.1H20.9z M23.4,76.9l-1.6,4.1H25L23.4,76.9z"/>
		<path fill="#3DAFFC" d="M36.3,76.4v8.9h-2.8v-8.9h-3.3v-2.3h9.6v2.3H36.3z"/>
		<path fill="#3DAFFC" d="M45.3,76.3v2.2h5.3v2.2h-5.3V83h6.1v2.2h-8.9V74.1h8.8v2.2H45.3z"/>
		<path fill="#3DAFFC" d="M59.9,82.1L59.9,82.1h-2.2v3.2h-2.8V74.1h5c3,0,4.7,1.4,4.7,3.9c0,1.7-0.7,2.9-2,3.6l2.4,3.7h-3.2
			L59.9,82.1z M59.9,79.9c1.2,0,2-0.6,2-1.8c0-1.2-0.7-1.8-2-1.8h-2.2v3.6H59.9z"/>
		<path fill="#3DAFFC" d="M68,85.3V74.1h2.8v11.2H68z"/>
		<path fill="#3DAFFC" d="M82.6,85.3l-5.2-6.9v6.9h-2.7V74.1h2.5l5.2,6.9v-6.9h2.7v11.2H82.6z"/>
		<path fill="#3DAFFC" d="M98.8,79.6V84c-1.2,0.8-3.1,1.5-4.7,1.5c-3.4,0-6-2.5-6-5.7c0-3.2,2.6-5.7,6.2-5.7c1.7,0,3.4,0.6,4.6,1.7
			l-1.6,1.9c-0.8-0.8-2-1.2-3-1.2c-1.8,0-3.2,1.4-3.2,3.3c0,1.9,1.4,3.3,3.3,3.3c0.6,0,1.3-0.2,2-0.5v-2.9H98.8z"/>
	</g>
</g>
</svg>
