<?xml version="1.0" encoding="utf-8"?>
<!-- Generator: Adobe Illustrator 17.1.0, SVG Export Plug-In . SVG Version: 6.00 Build 0)  -->
<!DOCTYPE svg PUBLIC "-//W3C//DTD SVG 1.1//EN" "http://www.w3.org/Graphics/SVG/1.1/DTD/svg11.dtd">
<svg version="1.1" id="Layer_1" xmlns="http://www.w3.org/2000/svg" xmlns:xlink="http://www.w3.org/1999/xlink" x="0px" y="0px"
	 viewBox="0 0 104 90" enable-background="new 0 0 104 90" xml:space="preserve">
<g>
	<g>
		<path fill="#3DAFFC" d="M10.6,78.1l-1.6,2c-0.7-0.9-1.8-1.5-2.8-1.5C4.4,78.6,3,80,3,81.9c0,1.9,1.3,3.3,3.1,3.3
			c0.9,0,2-0.5,2.8-1.3l1.7,1.8c-1.2,1.2-3,2-4.6,2c-3.4,0-5.9-2.5-5.9-5.8c0-3.2,2.6-5.7,6-5.7C7.7,76.2,9.5,77,10.6,78.1z"/>
		<path fill="#3DAFFC" d="M24.7,81.9c0,3.3-2.6,5.7-6.1,5.7c-3.5,0-6-2.5-6-5.7c0-3.3,2.6-5.7,6-5.7C22.1,76.2,24.7,78.7,24.7,81.9z
			 M15.5,81.9c0,1.9,1.5,3.3,3.2,3.3c1.7,0,3.1-1.5,3.1-3.3s-1.4-3.3-3.1-3.3S15.5,80,15.5,81.9z"/>
		<path fill="#3DAFFC" d="M37.3,78.1l-1.6,2c-0.7-0.9-1.8-1.5-2.8-1.5c-1.8,0-3.1,1.4-3.1,3.2c0,1.9,1.3,3.3,3.1,3.3
			c0.9,0,2-0.5,2.8-1.3l1.7,1.8c-1.2,1.2-3,2-4.6,2c-3.4,0-5.9-2.5-5.9-5.8c0-3.2,2.6-5.7,6-5.7C34.5,76.2,36.2,77,37.3,78.1z"/>
		<path fill="#3DAFFC" d="M44.6,83.1l-1.5,1.6v2.8h-2.8V76.3h2.8v4.8l4.3-4.8h3.3L46.5,81l4.4,6.6h-3.4L44.6,83.1z"/>
		<path fill="#3DAFFC" d="M59,78.6v8.9h-2.8v-8.9h-3.3v-2.3h9.6v2.3H59z"/>
		<path fill="#3DAFFC" d="M66.5,85.5l-0.8,2.1h-2.9l4.8-11.2h2.9l4.7,11.2h-3l-0.8-2.1H66.5z M69,79.2l-1.6,4.1h3.2L69,79.2z"/>
		<path fill="#3DAFFC" d="M77.9,87.5V76.3h2.8v11.2H77.9z"/>
		<path fill="#3DAFFC" d="M92.2,85.1v2.4h-7.6V76.3h2.8v8.8H92.2z"/>
		<path fill="#3DAFFC" d="M103.9,77.4l-1.1,2.2c-1.2-0.7-2.7-1.2-3.6-1.2c-0.7,0-1.2,0.3-1.2,0.8c0,1.9,5.9,0.8,5.9,4.9
			c0,2.2-2,3.4-4.5,3.4c-1.9,0-3.8-0.7-5.1-1.8l1.1-2.2c1.2,1,2.9,1.7,4,1.7c0.9,0,1.5-0.3,1.5-1c0-2-5.9-0.8-5.9-4.8
			c0-2.1,1.8-3.4,4.5-3.4C101.1,76.2,102.7,76.7,103.9,77.4z"/>
	</g>
	<g>
		
			<path fill-rule="evenodd" clip-rule="evenodd" fill="none" stroke="#3DAFFC" stroke-width="2" stroke-linecap="round" stroke-linejoin="round" stroke-miterlimit="10" d="
			M73.2,16.2L70,52.5c-0.3,2.3-2.3,4.1-4.7,4.1H42.1c-2.4,0-4.4-1.7-4.7-4.1l-4.2-36.3H73.2z"/>
		
			<line fill="none" stroke="#3DAFFC" stroke-width="2" stroke-linecap="round" stroke-linejoin="round" stroke-miterlimit="10" x1="35.3" y1="32.2" x2="71.3" y2="32.2"/>
		
			<line fill="none" stroke="#3DAFFC" stroke-width="2" stroke-linecap="round" stroke-linejoin="round" stroke-miterlimit="10" x1="42.5" y1="48.4" x2="49.4" y2="41.5"/>
		
			<line fill="none" stroke="#3DAFFC" stroke-width="2" stroke-linecap="round" stroke-linejoin="round" stroke-miterlimit="10" x1="43.9" y1="41.3" x2="47.9" y2="37.3"/>
		
			<line fill="none" stroke="#3DAFFC" stroke-width="2" stroke-linecap="round" stroke-linejoin="round" stroke-miterlimit="10" x1="52.5" y1="38.4" x2="52.6" y2="38.3"/>
		<g>
			<g>
				
					<line fill="none" stroke="#3DAFFC" stroke-width="2" stroke-linecap="round" stroke-linejoin="round" stroke-miterlimit="10" x1="79.5" y1="15.3" x2="73.3" y2="16"/>
				
					<line fill="none" stroke="#3DAFFC" stroke-width="2" stroke-linecap="round" stroke-linejoin="round" stroke-miterlimit="10" x1="72.6" y1="15.3" x2="71.9" y2="9.2"/>
				
					<line fill="none" stroke="#3DAFFC" stroke-width="2" stroke-linecap="round" stroke-linejoin="round" stroke-miterlimit="10" x1="71.4" y1="15.1" x2="67.2" y2="11.8"/>
				
					<line fill="none" stroke="#3DAFFC" stroke-width="2" stroke-linecap="round" stroke-linejoin="round" stroke-miterlimit="10" x1="78" y1="20.4" x2="73.5" y2="16.8"/>
				
					<line fill="none" stroke="#3DAFFC" stroke-width="2" stroke-linecap="round" stroke-linejoin="round" stroke-miterlimit="10" x1="73.2" y1="15.4" x2="76.9" y2="10.7"/>
				
					<path fill="none" stroke="#3DAFFC" stroke-width="2" stroke-linecap="round" stroke-linejoin="round" stroke-miterlimit="10" d="
					M76.8,10.8c0.2-0.8-0.7-1.8-2-2.2c-1.4-0.4-2.7,0-2.9,0.8"/>
				
					<path fill="none" stroke="#3DAFFC" stroke-width="2" stroke-linecap="round" stroke-linejoin="round" stroke-miterlimit="10" d="
					M79.3,15.3c0.8-0.4,0.8-1.8,0.2-3c-0.7-1.2-1.9-1.9-2.6-1.5"/>
				
					<path fill="none" stroke="#3DAFFC" stroke-width="2" stroke-linecap="round" stroke-linejoin="round" stroke-miterlimit="10" d="
					M77.9,20.2c0.8,0.2,1.8-0.7,2.2-2c0.4-1.4,0-2.7-0.8-2.9"/>
				
					<path fill="none" stroke="#3DAFFC" stroke-width="2" stroke-linecap="round" stroke-linejoin="round" stroke-miterlimit="10" d="
					M71.8,9.4c-0.4-0.8-1.8-0.8-3-0.2c-1.2,0.7-1.9,1.9-1.5,2.6"/>
			</g>
			<g>
				
					<path fill="none" stroke="#3DAFFC" stroke-width="2" stroke-linecap="round" stroke-linejoin="round" stroke-miterlimit="10" d="
					M67.7,11.9c-0.8-0.2-2.5,1-2.3,3.7"/>
				
					<path fill="none" stroke="#3DAFFC" stroke-width="2" stroke-linecap="round" stroke-linejoin="round" stroke-miterlimit="10" d="
					M72.8,21.7c0.4,0.8,2,2,4,1.3c1.3-0.5,1.9-1.9,1.5-2.6"/>
			</g>
		</g>
		
			<line fill="none" stroke="#3DAFFC" stroke-width="2" stroke-linecap="round" stroke-linejoin="round" stroke-miterlimit="10" x1="60.4" y1="44.5" x2="41.5" y2="7.9"/>
		<path fill="none" stroke="#3DAFFC" stroke-width="2" stroke-linecap="round" stroke-linejoin="round" stroke-miterlimit="10" d="
			M60.1,16.1c0-7,5.7-12.8,12.8-12.8c7,0,12.8,5.7,12.8,12.8s-5.7,12.8-12.8,12.8"/>
	</g>
</g>
</svg>
