<?xml version="1.0" encoding="utf-8"?>
<!-- Generator: Adobe Illustrator 17.1.0, SVG Export Plug-In . SVG Version: 6.00 Build 0)  -->
<!DOCTYPE svg PUBLIC "-//W3C//DTD SVG 1.1//EN" "http://www.w3.org/Graphics/SVG/1.1/DTD/svg11.dtd">
<svg version="1.1" id="Layer_1" xmlns="http://www.w3.org/2000/svg" xmlns:xlink="http://www.w3.org/1999/xlink" x="0px" y="0px"
	 viewBox="0 0 104 90" enable-background="new 0 0 104 90" xml:space="preserve">
<g>
	<g>
		
			<path fill-rule="evenodd" clip-rule="evenodd" fill="none" stroke="#3DAFFC" stroke-width="2" stroke-linecap="round" stroke-linejoin="round" stroke-miterlimit="10" d="
			M31.1,16.9c-1.7,0-3.1,1.4-3.1,3.1v7.2c0,9.3,5.6,17.3,13.7,20.7l0,0c0,2.1,1.7,3.8,3.8,3.8h15.1c2.1,0,3.8-1.7,3.8-3.8v-0.5
			C71.9,43.6,77,36,77,27.1V20c0-1.7-1.4-3.1-3.1-3.1H31.1z"/>
		
			<path fill-rule="evenodd" clip-rule="evenodd" fill="none" stroke="#3DAFFC" stroke-width="2" stroke-linecap="round" stroke-linejoin="round" stroke-miterlimit="10" d="
			M37.1,37c0.3,0.5,1.8,2.2,4,3.6"/>
		
			<path fill-rule="evenodd" clip-rule="evenodd" fill="none" stroke="#3DAFFC" stroke-width="2" stroke-linecap="round" stroke-linejoin="round" stroke-miterlimit="10" d="
			M33.8,26.6c0,2.3,0.2,4.8,1.2,6.7"/>
		
			<path fill-rule="evenodd" clip-rule="evenodd" fill="none" stroke="#3DAFFC" stroke-width="2" stroke-linecap="round" stroke-linejoin="round" stroke-miterlimit="10" d="
			M77,23h4.6c3.1,0,5.6,2.5,5.6,5.6l0,0c0,3.1-2.5,5.6-5.6,5.6l0,0c-1,0-1.9,0.4-2.6,1.1l-7.1,6.1"/>
		<path fill="none" stroke="#3DAFFC" stroke-width="2" stroke-linecap="round" stroke-linejoin="round" stroke-miterlimit="10" d="
			M40.3,2.6c-2.6,2.7,2.5,5.6,0,8.2"/>
		<path fill="none" stroke="#3DAFFC" stroke-width="2" stroke-linecap="round" stroke-linejoin="round" stroke-miterlimit="10" d="
			M52.9,2.6c-2.6,2.7,2.5,5.6,0,8.2"/>
		<path fill="none" stroke="#3DAFFC" stroke-width="2" stroke-linecap="round" stroke-linejoin="round" stroke-miterlimit="10" d="
			M65.4,2.6c-2.6,2.7,2.5,5.6,0,8.2"/>
	</g>
	<g>
		<path fill="#3DAFFC" d="M26.2,78.8l-1.6,2c-0.7-0.9-1.8-1.5-2.8-1.5c-1.8,0-3.1,1.4-3.1,3.2c0,1.9,1.3,3.3,3.1,3.3
			c0.9,0,2-0.5,2.8-1.3l1.7,1.8c-1.2,1.2-3,2-4.6,2c-3.4,0-5.9-2.5-5.9-5.8c0-3.2,2.6-5.7,6-5.7C23.4,77,25.1,77.7,26.2,78.8z"/>
		<path fill="#3DAFFC" d="M40.3,82.6c0,3.3-2.6,5.7-6.1,5.7c-3.5,0-6.1-2.5-6.1-5.7c0-3.3,2.6-5.7,6.1-5.7
			C37.7,77,40.3,79.4,40.3,82.6z M31.1,82.7c0,1.9,1.5,3.3,3.2,3.3c1.7,0,3.1-1.5,3.1-3.3s-1.4-3.3-3.1-3.3
			C32.6,79.3,31.1,80.8,31.1,82.7z"/>
		<path fill="#3DAFFC" d="M46.3,79.3v2.6h5v2.2h-5v4.1h-2.8V77.1h8.3v2.2H46.3z"/>
		<path fill="#3DAFFC" d="M57.5,79.3v2.6h5v2.2h-5v4.1h-2.8V77.1H63v2.2H57.5z"/>
		<path fill="#3DAFFC" d="M68.8,79.3v2.2h5.3v2.2h-5.3V86h6.1v2.2H66V77.1h8.8v2.2H68.8z"/>
		<path fill="#3DAFFC" d="M81.2,79.3v2.2h5.3v2.2h-5.3V86h6.1v2.2h-8.9V77.1h8.8v2.2H81.2z"/>
	</g>
</g>
</svg>
