<?xml version="1.0" encoding="utf-8"?>
<!-- Generator: Adobe Illustrator 17.1.0, SVG Export Plug-In . SVG Version: 6.00 Build 0)  -->
<!DOCTYPE svg PUBLIC "-//W3C//DTD SVG 1.1//EN" "http://www.w3.org/Graphics/SVG/1.1/DTD/svg11.dtd">
<svg version="1.1" id="Layer_1" xmlns="http://www.w3.org/2000/svg" xmlns:xlink="http://www.w3.org/1999/xlink" x="0px" y="0px"
	 viewBox="1.7 328.2 1220.6 911.3" enable-background="new 1.7 328.2 1220.6 911.3" xml:space="preserve">
<g>
	<g>
		<path fill="#00E8A6" d="M1047.3,379.1c0,1.3,0.9,2.2,1.7,3c0.9,0.9,2.2,0.9,3,0.9c1.3,0,2.6-0.9,3.5-1.7l12.2-14.8
			c0.4-0.4,0.4-0.9,0.4-1.7c0-0.4-0.4-0.9-0.9-1.3l-4.8-3c-0.9-0.4-1.7-0.4-2.6,0.4l-11.7,14.8
			C1047.8,376.5,1047.3,377.8,1047.3,379.1z"/>
		<path fill="#00E8A6" d="M981.6,383.4c-10,0-17.8,7.8-17.8,17.8s7.8,17.8,17.8,17.8c10,0,17.8-7.8,17.8-17.8
			C999.5,391.3,991.6,383.4,981.6,383.4z M981.6,411.3c-5.7,0-10.4-4.8-10.4-10.4s4.8-10.4,10.4-10.4c5.7,0,10.4,4.8,10.4,10.4
			C991.6,406.9,987.3,411.3,981.6,411.3z"/>
		<path fill="#00E8A6" d="M931.6,417.4h5.2l0,0c0.9,0,1.7-0.9,1.7-1.7c0-0.4,0-0.4,0-0.9c-4.4-25.7,3.5-55.7,4.4-59.2
			c0.9-3,1.7-4.4,2.6-5.2l0.4-0.4l0.4,0.4c0.9,0.4,1.7,1.7,3,3c3.5,7,8.3,16.1,8.3,16.1c0.4,0.9,1.3,1.7,2.6,2.2
			c5.2,2.2,10.4,3,15.7,3c9.6,0,17.4-3.5,22.2-6.1h0.4l15.7-9.1c0.9-0.4,1.7-1.7,2.2-2.6c0.4-1.3,0-2.6-0.4-3.5
			c-1.3-2.2-3.9-3-6.1-1.7l-5.7,3.5v-1.3c-0.4-10,1.7-13.5,2.6-14.8c0.9-0.9,1.7-1.3,3-1.3c5.2,0,12.6,5.2,16.5,8.7
			c2.2,2.2,6.1,5.2,11.3,8.7l0.9,0.4l-7,9.1c-0.9,0.9-1.3,2.2-0.9,3.5c0,1.3,0.9,2.2,1.7,3s2.2,0.9,3,0.9c1.3,0,2.6-0.4,3.5-1.7
			l12.2-15.2c0.4-0.4,0.4-0.9,0.4-1.3s-0.4-0.9-0.9-1.3c-8.3-5.7-13.9-10-17.4-13.1c-1.3-1.3-12.6-11.3-23.1-11.3
			c-3.9,0-7.4,1.3-10,4.4c-4.4,4.8-6.1,13.9-4.8,27v0.4l-0.4,0.4c-3.5,1.7-10,5.2-18.7,5.2c-3.5,0-7-0.4-10.4-1.7h-0.4l-7.4-15.2
			c-0.4-0.9-5.2-8.3-11.7-8.3c-1.7,0-7.8,0-11.7,12.2c-0.4,1.3-9.1,33.9-4.8,63.1C929.9,416.5,930.7,417.4,931.6,417.4z"/>
		<path fill="#00E8A6" d="M1067.4,392.1c0.9,0.4,1.7,0.9,3,0.9c1.3,0,2.6-0.4,3.5-1.7l11.3-13.9c0.4-0.4,0.4-0.9,0.4-1.7
			c0-0.4-0.4-0.9-0.9-1.3l-4.8-2.6c-0.9-0.4-1.7-0.4-2.6,0.4l-10.9,13.5C1065.2,387.3,1065.6,390.4,1067.4,392.1z"/>
		<path fill="#00E8A6" d="M1092.2,389.9c2.6,1.3,5.7,2.6,9.1,3.9l0.9,0.4l-0.4,0.9c-3.5,5.7-6.1,12.2-7.4,20c0,0.4,0,1.3,0.4,1.7
			s0.9,0.9,1.3,0.9h5.7c0.9,0,1.7-0.4,1.7-1.7c2.2-10,5.7-15.7,7.8-18.3l0.4-0.4h0.4c4.4,1.3,7.4,1.7,8.7,2.2
			c15.2,3.9,22.2,11.3,25.2,17c0.4,0.4,0.9,0.9,1.7,0.9h5.7l0,0c0.9,0,1.7-0.9,1.7-1.7c0-0.4,0-0.9-0.4-1.3
			c-3.5-8.3-12.2-19.1-32.2-23.9c-1.7-0.4-16.5-3.5-25.7-7.8c-0.9-0.4-1.7,0-2.6,0.4l-3.5,4.4c-0.4,0.4-0.4,0.9-0.4,1.7
			C1091.3,389.1,1091.7,389.5,1092.2,389.9z"/>
		<path fill="#00E8A6" d="M1160,431.3c-0.4-0.9-0.9-1.7-1.3-2.2c-0.4-0.4-0.9-0.4-1.3-0.9h-0.4H938.1c-1.7,0-3.9,1.7-4.4,2.6
			c-0.4,0.4-0.9,1.3-0.9,2.2c-0.9,3.5-3.9,15.7-0.4,22.6c0.9,1.3,2.2,2.2,3.9,2.2h220.2c2.2,0,3.9-1.3,4.4-3.5
			C1160.9,453.9,1164,442.6,1160,431.3z M1152.6,447.8v0.9H939.4v-0.9c0-2.6,0.4-6.1,1.3-9.6v-0.9h211.5v0.9
			C1153.1,441.7,1152.6,445.6,1152.6,447.8z"/>
	</g>
</g>
<g>
	<rect x="49.6" y="338.6" fill="none" width="642.7" height="108.3"/>
	<g enable-background="new    ">
		<path fill="#00E8A6" d="M102.3,363.8v56.1c0,14.6-9.2,24.4-22.7,24.4c-13.2,0-22.6-9.9-22.6-24.4v-56.1c0-14.7,8.5-24.4,22.6-24.4
			C94,339.4,102.3,349.1,102.3,363.8z M90.4,364.1c0-9.7-4.4-13.5-10.8-13.5c-6.1,0-10.7,3.8-10.7,13.5v55.5
			c0,9.7,4.5,13.5,10.7,13.5c6.4,0,10.8-3.8,10.8-13.5V364.1z"/>
		<path fill="#00E8A6" d="M160.7,432.7v8c0,0.9-0.8,1.7-1.7,1.7h-42.5c-0.9,0-1.7-0.8-1.7-1.7c0,0,0-8.9,0-10
			c0-6.9,3.4-18.2,9.2-25.1c3.3-4.1,13.9-16.8,16.9-20.2c6.7-8.1,8.5-11.3,8.5-18.6c0-7.7-1.9-16.6-11.3-16.6
			c-5.2,0-11.4,2-11.4,16.6v5.8c0,0.9-0.8,1.7-1.7,1.7h-8.1c-0.9,0-1.7-0.8-1.7-1.7V366c0-16,7.7-26.8,23.3-26.8
			c14.4,0,22.4,10.5,22.6,26.3v2.7c0,12.4-5.8,18.2-11.4,25.2C138.1,407,127,418.6,127,428.7v2.5h32
			C159.9,431.2,160.7,431.9,160.7,432.7z"/>
		<path fill="#00E8A6" d="M196.1,396.1c0-0.8,0.6-1.6,1.6-1.6h8.8c0.8,0,1.6,0.8,1.6,1.6v8.3c0,0.9-0.8,1.6-1.6,1.6h-8.8
			c-0.9,0-1.6-0.6-1.6-1.6V396.1z M196.1,432.6c0-0.8,0.6-1.6,1.6-1.6h8.8c0.8,0,1.6,0.8,1.6,1.6v8.3c0,0.9-0.8,1.6-1.6,1.6h-8.8
			c-0.9,0-1.6-0.6-1.6-1.6V432.6z"/>
		<path fill="#00E8A6" d="M257.5,352.4v32.4h19.9c0.9,0,1.7,0.8,1.7,1.7v7.5c0,0.9-0.8,1.7-1.7,1.7h-19.9v45c0,0.9-0.8,1.7-1.7,1.7
			h-8.5c-0.9,0-1.7-0.8-1.7-1.7v-98.1c0-0.9,0.8-1.7,1.7-1.7h39c0.9,0,1.7,0.8,1.7,1.7v8c0,0.9-0.8,1.7-1.7,1.7H257.5z"/>
		<path fill="#00E8A6" d="M344.4,363.6v56.1c0,14.6-8.9,24.4-23.2,24.4c-14.1,0-23-9.9-23-24.4v-56.1c0-14.7,8-24.4,23-24.4
			C336.4,339.2,344.4,348.9,344.4,363.6z M332.5,363.8c0-9.7-4.5-13.3-11.3-13.3c-6.6,0-11.1,3.6-11.1,13.3v55.8
			c0,9.7,4.5,13.3,11.1,13.3c6.7,0,11.3-3.6,11.3-13.3V363.8z"/>
		<path fill="#00E8A6" d="M405,363.6v56.1c0,14.6-8.9,24.4-23.2,24.4c-14.1,0-23-9.9-23-24.4v-56.1c0-14.7,8-24.4,23-24.4
			C397.1,339.2,405,348.9,405,363.6z M393.1,363.8c0-9.7-4.5-13.3-11.3-13.3c-6.6,0-11.1,3.6-11.1,13.3v55.8
			c0,9.7,4.5,13.3,11.1,13.3c6.7,0,11.3-3.6,11.3-13.3V363.8z"/>
		<path fill="#00E8A6" d="M459.6,342.7v7.8c0,0.9-0.8,1.7-1.7,1.7H443v88.5c0,0.9-0.8,1.7-1.7,1.7h-8.3c-0.9,0-1.7-0.8-1.7-1.7
			v-88.5h-14.9c-0.9,0-1.7-0.8-1.7-1.7v-7.8c0-0.9,0.8-1.7,1.7-1.7h41.5C458.8,340.9,459.6,341.7,459.6,342.7z"/>
	</g>
</g>
<g>
	
		<line fill="none" stroke="#00E8A6" stroke-width="2" stroke-linecap="round" stroke-linejoin="round" stroke-miterlimit="10" x1="1038.6" y1="939.5" x2="1010.4" y2="881.6"/>
	
		<circle fill="none" stroke="#00E8A6" stroke-width="2" stroke-linecap="round" stroke-linejoin="round" stroke-miterlimit="10" cx="971.2" cy="951.3" r="43.5"/>
	
		<circle fill="none" stroke="#00E8A6" stroke-width="2" stroke-linecap="round" stroke-linejoin="round" stroke-miterlimit="10" cx="1045.2" cy="951.3" r="13.1"/>
	
		<circle fill="none" stroke="#00E8A6" stroke-width="2" stroke-linecap="round" stroke-linejoin="round" stroke-miterlimit="10" cx="1119.1" cy="951.3" r="43.5"/>
	
		<polyline fill="none" stroke="#00E8A6" stroke-width="2" stroke-linecap="round" stroke-linejoin="round" stroke-miterlimit="10" points="
		1010.4,881.6 971.2,951.3 1032.1,951.3 	"/>
	
		<line fill="none" stroke="#00E8A6" stroke-width="2" stroke-linecap="round" stroke-linejoin="round" stroke-miterlimit="10" x1="1119.1" y1="951.3" x2="1073.9" y2="856"/>
	<path fill="none" stroke="#00E8A6" stroke-width="2" stroke-linecap="round" stroke-linejoin="round" stroke-miterlimit="10" d="
		M1052.6,939.1l33.9-57.4h-88.8c-4.8,0-8.7-3.9-8.7-8.7l0,0c0-4.8,3.9-8.7,8.7-8.7h26.1"/>
	<path fill="none" stroke="#00E8A6" stroke-width="2" stroke-linecap="round" stroke-linejoin="round" stroke-miterlimit="10" d="
		M1049.5,842.5l3.9,8.3c1.3,3,4.4,4.8,7.8,4.8h24.8c3,0,5.2-3.5,3.9-6.1l-3-7"/>
</g>
<rect x="49.6" y="865.5" fill="none" width="551.3" height="106.2"/>
<g enable-background="new    ">
	<path fill="#00E8A6" d="M102.3,890.7v56.1c0,14.6-9.2,24.4-22.7,24.4c-13.2,0-22.6-9.9-22.6-24.4v-56.1c0-14.7,8.5-24.4,22.6-24.4
		C94,866.3,102.3,876,102.3,890.7z M90.4,891c0-9.7-4.4-13.5-10.8-13.5c-6.1,0-10.7,3.8-10.7,13.5v55.5c0,9.7,4.5,13.5,10.7,13.5
		c6.4,0,10.8-3.8,10.8-13.5V891z"/>
	<path fill="#00E8A6" d="M161.2,944.1c0,16.9-7.8,26.9-23.5,26.9c-14.3,0-22.9-9.9-22.9-24.6v-9.6c0-0.8,0.6-1.7,1.6-1.7h8.3
		c0.8,0,1.6,0.9,1.6,1.7v10.3c0,6.7,3.3,13.5,11.7,13.5c11,0,11.4-9.2,11.4-15.8v-10.7c0-9.4-12.2-12.1-15-12.2
		c-1.6,0-1.6-0.8-1.6-1.7v-7.5c0-0.6,0.5-1.3,1.4-1.7c0,0,15.5-4.9,15.5-15.5v-3.9c0-9.4-3.6-14.3-11.6-14.3
		c-8.3,0-11.1,5.8-11.1,12.5v8.8c0,0.8-0.8,1.6-1.6,1.6h-8.8c-0.9,0-1.6-0.8-1.6-1.6v-8.1c0-14.9,9.1-24.4,23.3-24.4
		c15.4,0,22.7,10.3,22.7,25.2c0,0,0,0.8,0,2.7c0,13-11.3,21.9-15.8,21.9c0,0,15.8,2.7,15.8,21.3V944.1z"/>
	<path fill="#00E8A6" d="M196.6,923c0-0.8,0.6-1.6,1.6-1.6h8.8c0.8,0,1.6,0.8,1.6,1.6v8.3c0,0.9-0.8,1.6-1.6,1.6h-8.8
		c-0.9,0-1.6-0.6-1.6-1.6V923z M196.6,959.5c0-0.8,0.6-1.6,1.6-1.6h8.8c0.8,0,1.6,0.8,1.6,1.6v8.3c0,0.9-0.8,1.6-1.6,1.6h-8.8
		c-0.9,0-1.6-0.6-1.6-1.6V959.5z"/>
	<path fill="#00E8A6" d="M282.6,915.9c8.1,2,12.2,11.3,12.2,24.1c0,16.3-5.2,29.3-25.4,29.3h-21.6c-0.9,0-1.7-0.8-1.7-1.7v-98.1
		c0-0.9,0.8-1.7,1.7-1.7h17.5c16.4,0,26.8,11.1,26.8,27.9C292.1,904.7,289.9,912.7,282.6,915.9z M281,895.1
		c0-5.6-3.4-15.7-14.4-15.7H258v32.4h8.6C276.6,911.9,281,904.7,281,895.1z M283.2,941c0-12.8-5.2-17.5-14.6-17.5H258v34.5h10.7
		C278,957.9,283.2,953.1,283.2,941z"/>
	<path fill="#00E8A6" d="M325,879.1v79h7.7c0.9,0,1.7,0.8,1.7,1.6v8.1c0,0.9-0.8,1.6-1.7,1.6H306c-0.9,0-1.7-0.6-1.7-1.6v-8.1
		c0-0.8,0.8-1.6,1.7-1.6h7.7v-79H306c-0.9,0-1.7-0.6-1.7-1.6v-8.1c0-0.9,0.8-1.6,1.7-1.6h26.6c0.9,0,1.7,0.6,1.7,1.6v8.1
		c0,0.9-0.8,1.6-1.7,1.6H325z"/>
	<path fill="#00E8A6" d="M396.6,969.4h-7.5c-1.4,0-2.2-0.9-2.7-1.9l-16.8-48.1l-10.2,22.1v26.2c0,0.9-0.8,1.7-1.7,1.7h-8.5
		c-0.9,0-1.7-0.8-1.7-1.7v-97.9c0-0.8,0.8-1.9,1.7-1.9h8.5c0.9,0,1.7,1.1,1.7,1.9v49.7l21.9-49.5c0.5-0.9,0.9-2,2.3-2h9.2
		c1.3,0,1.9,0.5,1.1,2L376.7,908l21.1,59.2C398.3,968.1,397.7,968.9,396.6,969.4z"/>
	<path fill="#00E8A6" d="M420.1,879.3v31.2H440c0.9,0,1.7,0.8,1.7,1.7v7.5c0,0.9-0.8,1.7-1.7,1.7h-19.9v36.5h28.8
		c0.9,0,1.7,0.8,1.7,1.7v8c0,0.9-0.8,1.7-1.7,1.7h-39c-0.9,0-1.7-0.8-1.7-1.7v-98.1c0-0.9,0.8-1.7,1.7-1.7h39c0.9,0,1.7,0.8,1.7,1.7
		v8c0,0.9-0.8,1.7-1.7,1.7H420.1z"/>
</g>
<g>
	
		<line fill="none" stroke="#00E8A6" stroke-width="2" stroke-linecap="round" stroke-linejoin="round" stroke-miterlimit="10" x1="988.6" y1="1212.3" x2="1101.7" y2="1212.3"/>
	<path fill="none" stroke="#00E8A6" stroke-width="2" stroke-linecap="round" stroke-linejoin="round" stroke-miterlimit="10" d="
		M1122.2,1160.1H945.1c-14.4,0-26.1,11.7-26.1,26.1l0,0c0,14.4,11.7,26.1,26.1,26.1l0,0"/>
	<path fill="none" stroke="#00E8A6" stroke-width="2" stroke-linecap="round" stroke-linejoin="round" stroke-miterlimit="10" d="
		M1053.9,1125.3h-15.7c-9.1,0-17.4,4.8-22.2,12.2l-13.9,22.6h-21.8"/>
	
		<line fill="none" stroke="#00E8A6" stroke-width="2" stroke-linecap="round" stroke-linejoin="round" stroke-miterlimit="10" x1="1153.9" y1="1186.2" x2="1170.9" y2="1186.2"/>
	
		<line fill="none" stroke="#00E8A6" stroke-width="2" stroke-linecap="round" stroke-linejoin="round" stroke-miterlimit="10" x1="1045.2" y1="1177.5" x2="1053.9" y2="1177.5"/>
	
		<circle fill="none" stroke="#00E8A6" stroke-width="2" stroke-linecap="round" stroke-linejoin="round" stroke-miterlimit="10" cx="966.8" cy="1216.7" r="21.8"/>
	
		<circle fill="none" stroke="#00E8A6" stroke-width="2" stroke-linecap="round" stroke-linejoin="round" stroke-miterlimit="10" cx="966.8" cy="1216.7" r="4.4"/>
	
		<circle fill="none" stroke="#00E8A6" stroke-width="2" stroke-linecap="round" stroke-linejoin="round" stroke-miterlimit="10" cx="1123.5" cy="1216.7" r="4.4"/>
	
		<circle fill="none" stroke="#00E8A6" stroke-width="2" stroke-linecap="round" stroke-linejoin="round" stroke-miterlimit="10" cx="1123.5" cy="1216.7" r="21.8"/>
	<path fill="none" stroke="#00E8A6" stroke-width="2" stroke-linecap="round" stroke-linejoin="round" stroke-miterlimit="10" d="
		M945.1,1160.1L945.1,1160.1c8.3,0,16.5-2.6,23.5-7.8l25.7-18.7c7.4-5.2,16.5-8.3,25.7-8.3h34.4c8.3,0,16.1,2.2,23.1,6.5
		c7.4,4.8,19.1,12.2,35.7,22.6c6.1,3.9,13.1,6.5,20.5,7.8l20.9,3.5c9.6,1.7,16.5,10,16.5,19.6v9.6c0,9.6-7.8,17.4-17.4,17.4h-8.7"/>
</g>
<rect x="49.6" y="1128.8" fill="none" width="536.1" height="106.2"/>
<g enable-background="new    ">
	<path fill="#00E8A6" d="M76.1,1132.5v98.1c0,0.9-0.8,1.7-1.7,1.7h-8c-0.9,0-1.6-0.8-1.6-1.7V1149H54.6c-0.9,0-1.7-0.8-1.7-1.7v-4.2
		c0-0.9,0.8-1.7,1.6-1.7c12.5-4.5,9.2-10.5,14.6-10.5c1.3,0,5.3,0,5.3,0C75.3,1130.8,76.1,1131.6,76.1,1132.5z"/>
	<path fill="#00E8A6" d="M137.7,1198.8v10.5c0,13.2-8.9,24.8-23.7,24.8c-14.3,0-22.9-10-22.9-22.7v-55.5c0-16.8,8.6-26.6,22.7-26.6
		c14.3,0,23.5,9.9,23.5,24.6v8c0,0.9-0.8,1.6-1.4,1.6h-9.1c-0.8,0-1.6-0.6-1.6-1.6v-8.8c0-6.7-2.5-12.5-11.1-12.5
		c-8,0-11.1,5.8-11.1,12.5v26.6c3.3-5.2,8.5-5.5,12.4-5.5C127.2,1174.2,137.7,1183.4,137.7,1198.8z M102.9,1198.5v12.4
		c0,8.3,4.7,12.4,11.4,12.4s11.4-5.5,11.4-12.4v-12.4c0-9.4-4.7-13-11.4-13C107.9,1185.4,102.9,1189.1,102.9,1198.5z"/>
	<path fill="#00E8A6" d="M174,1185.9c0-0.8,0.6-1.6,1.6-1.6h8.8c0.8,0,1.6,0.8,1.6,1.6v8.3c0,0.9-0.8,1.6-1.6,1.6h-8.8
		c-0.9,0-1.6-0.6-1.6-1.6V1185.9z M174,1222.4c0-0.8,0.6-1.6,1.6-1.6h8.8c0.8,0,1.6,0.8,1.6,1.6v8.3c0,0.9-0.8,1.6-1.6,1.6h-8.8
		c-0.9,0-1.6-0.6-1.6-1.6V1222.4z"/>
	<path fill="#00E8A6" d="M269.1,1153.5v9.4c0,0.9-0.8,1.7-1.7,1.7h-8.1c-0.9,0-1.7-0.8-1.7-1.7v-9.2c0-9.7-4.9-13.3-11.6-13.3
		c-6.6,0-11.3,3.6-11.3,13.3v55.8c0,9.7,4.7,13.3,11.3,13.3c6.7,0,11.6-3.6,11.6-13.3v-9.6c0-0.9,0.8-1.7,1.7-1.7h8.1
		c0.9,0,1.7,0.8,1.7,1.7v9.7c0,14.6-8.9,24.4-23.2,24.4c-14.1,0-23-9.9-23-24.4v-56.1c0-14.7,8-24.4,23-24.4
		C261.1,1129.1,269.1,1138.8,269.1,1153.5z"/>
	<path fill="#00E8A6" d="M330,1230.6c0,0.9-0.8,1.7-1.7,1.7h-8.6c-0.9,0-1.6-0.6-1.7-1.7l-3.1-19.4h-22.9l-3.1,19.4
		c-0.3,1.1-0.8,1.7-1.7,1.7h-8.6c-0.9,0-1.7-0.8-1.7-1.7l18.5-98.1c0.3-0.9,0.8-1.7,1.7-1.7h12.8c0.9,0,1.4,0.8,1.7,1.7L330,1230.6z
		 M312.9,1200l-9.6-56.4l-9.6,56.4H312.9z"/>
	<path fill="#00E8A6" d="M391.9,1223.5v7.5c0,0.8-0.6,1.3-1.6,1.3c-13.6,0-15.4-10.7-15.4-27.1c0-13.2-3-17.1-14.7-17.1h-7.5v42.5
		c0,0.9-0.8,1.7-1.7,1.7h-8c-0.9,0-1.7-0.8-1.7-1.7v-98.1c0-0.9,0.8-1.7,1.7-1.7h17.1c16.8,0,27.9,8.9,27.9,29
		c0,12.1-4.4,19.9-12.4,22.1c9.9,2,10.5,11.3,10.5,19.3c0,0.9,0,9.1,0,9.9c0,10,2.8,10.2,4.4,10.7
		C391.1,1221.8,391.9,1222.4,391.9,1223.5z M353.2,1176.7h7.7c13.2,0,15.5-8,15.5-17.2c0-8-2.4-17.2-15.5-17.2h-7.7V1176.7z"/>
</g>
<g>
	
		<line fill="none" stroke="#00E8A6" stroke-width="2" stroke-linecap="round" stroke-linejoin="round" stroke-miterlimit="10" x1="1045.2" y1="696.3" x2="1045.2" y2="696.3"/>
	<path fill="none" stroke="#00E8A6" stroke-width="2" stroke-linecap="round" stroke-linejoin="round" stroke-miterlimit="10" d="
		M1140.9,708H949.4c-3,0-5.7-2.6-5.7-5.7V586.2c0-3,2.6-5.7,5.7-5.7h191.5c3,0,5.7,2.6,5.7,5.7v116.2
		C1147,705.4,1144.4,708,1140.9,708z"/>
	
		<rect x="1025.1" y="708" fill="none" stroke="#00E8A6" stroke-width="2" stroke-linecap="round" stroke-linejoin="round" stroke-miterlimit="10" width="40.5" height="23.1"/>
	
		<line fill="none" stroke="#00E8A6" stroke-width="2" stroke-linecap="round" stroke-linejoin="round" stroke-miterlimit="10" x1="1147" y1="685" x2="943.8" y2="685"/>
	
		<line fill="none" stroke="#00E8A6" stroke-width="2" stroke-linecap="round" stroke-linejoin="round" stroke-miterlimit="10" x1="1077.4" y1="731.1" x2="1013.4" y2="731.1"/>
</g>
<rect x="49.6" y="601.9" fill="none" width="823.3" height="108.3"/>
<g enable-background="new    ">
	<path fill="#00E8A6" d="M102.3,626.7v56.1c0,14.6-9.2,24.4-22.7,24.4c-13.2,0-22.6-9.9-22.6-24.4v-56.1c0-14.7,8.5-24.4,22.6-24.4
		C94,602.3,102.3,612,102.3,626.7z M90.4,627c0-9.7-4.4-13.5-10.8-13.5c-6.1,0-10.7,3.8-10.7,13.5v55.5c0,9.7,4.5,13.5,10.7,13.5
		c6.4,0,10.8-3.8,10.8-13.5V627z"/>
	<path fill="#00E8A6" d="M160.7,695.6v8c0,0.9-0.8,1.7-1.7,1.7h-42.5c-0.9,0-1.7-0.8-1.7-1.7c0,0,0-8.9,0-10
		c0-6.9,3.4-18.2,9.2-25.1c3.3-4.1,13.9-16.8,16.9-20.2c6.7-8.1,8.5-11.3,8.5-18.6c0-7.7-1.9-16.6-11.3-16.6
		c-5.2,0-11.4,2-11.4,16.6v5.8c0,0.9-0.8,1.7-1.7,1.7h-8.1c-0.9,0-1.7-0.8-1.7-1.7v-6.6c0-16,7.7-26.8,23.3-26.8
		c14.4,0,22.4,10.5,22.6,26.3v2.7c0,12.4-5.8,18.2-11.4,25.2C138.1,670,127,681.5,127,691.6v2.5h32
		C159.9,694.1,160.7,694.9,160.7,695.6z"/>
	<path fill="#00E8A6" d="M196.1,659c0-0.8,0.6-1.6,1.6-1.6h8.8c0.8,0,1.6,0.8,1.6,1.6v8.3c0,0.9-0.8,1.6-1.6,1.6h-8.8
		c-0.9,0-1.6-0.6-1.6-1.6V659z M196.1,695.5c0-0.8,0.6-1.6,1.6-1.6h8.8c0.8,0,1.6,0.8,1.6,1.6v8.3c0,0.9-0.8,1.6-1.6,1.6h-8.8
		c-0.9,0-1.6-0.6-1.6-1.6V695.5z"/>
	<path fill="#00E8A6" d="M263.8,615.1v79h7.7c0.9,0,1.7,0.8,1.7,1.6v8.1c0,0.9-0.8,1.6-1.7,1.6h-26.6c-0.9,0-1.7-0.6-1.7-1.6v-8.1
		c0-0.8,0.8-1.6,1.7-1.6h7.7v-79h-7.7c-0.9,0-1.7-0.6-1.7-1.6v-8.1c0-0.9,0.8-1.6,1.7-1.6h26.6c0.9,0,1.7,0.6,1.7,1.6v8.1
		c0,0.9-0.8,1.6-1.7,1.6H263.8z"/>
	<path fill="#00E8A6" d="M336.4,605.6v98.1c0,0.9-0.8,1.7-1.7,1.7H327c-0.8,0-2.3-1.3-2.5-1.9L297,632.7v71c0,0.9-0.6,1.7-1.6,1.7
		h-7.7c-0.9,0-1.7-0.8-1.7-1.7v-98.1c0-0.9,0.8-1.7,1.7-1.7h7.7c0.9,0,1.7,0.6,1.9,1.6l28,75.2v-75c0-0.9,0.6-1.7,1.6-1.7h7.8
		C335.7,603.8,336.4,604.6,336.4,605.6z"/>
	<path fill="#00E8A6" d="M392,605.6v7.8c0,0.9-0.8,1.7-1.7,1.7h-14.9v88.5c0,0.9-0.8,1.7-1.7,1.7h-8.3c-0.9,0-1.7-0.8-1.7-1.7v-88.5
		h-14.9c-0.9,0-1.7-0.8-1.7-1.7v-7.8c0-0.9,0.8-1.7,1.7-1.7h41.5C391.3,603.8,392,604.6,392,605.6z"/>
	<path fill="#00E8A6" d="M414.9,615.3v31.2h19.9c0.9,0,1.7,0.8,1.7,1.7v7.5c0,0.9-0.8,1.7-1.7,1.7h-19.9v36.5h28.8
		c0.9,0,1.7,0.8,1.7,1.7v8c0,0.9-0.8,1.7-1.7,1.7h-39c-0.9,0-1.7-0.8-1.7-1.7v-98.1c0-0.9,0.8-1.7,1.7-1.7h39c0.9,0,1.7,0.8,1.7,1.7
		v8c0,0.9-0.8,1.7-1.7,1.7H414.9z"/>
	<path fill="#00E8A6" d="M508.3,696.6v7.5c0,0.8-0.6,1.3-1.6,1.3c-13.6,0-15.4-10.7-15.4-27.1c0-13.2-3-17.1-14.7-17.1h-7.5v42.5
		c0,0.9-0.8,1.7-1.7,1.7h-8c-0.9,0-1.7-0.8-1.7-1.7v-98.1c0-0.9,0.8-1.7,1.7-1.7h17.1c16.8,0,27.9,8.9,27.9,29
		c0,12.1-4.4,19.9-12.4,22.1c9.9,2,10.5,11.3,10.5,19.3c0,0.9,0,9.1,0,9.9c0,10,2.8,10.2,4.4,10.7
		C507.5,694.9,508.3,695.5,508.3,696.6z M469.6,649.7h7.7c13.2,0,15.5-8,15.5-17.2c0-8-2.4-17.2-15.5-17.2h-7.7V649.7z"/>
	<path fill="#00E8A6" d="M569.8,605.6v98.1c0,0.9-0.8,1.7-1.7,1.7h-7.7c-0.8,0-2.3-1.3-2.5-1.9l-27.6-70.8v71c0,0.9-0.6,1.7-1.6,1.7
		h-7.7c-0.9,0-1.7-0.8-1.7-1.7v-98.1c0-0.9,0.8-1.7,1.7-1.7h7.7c0.9,0,1.7,0.6,1.9,1.6l28,75.2v-75c0-0.9,0.6-1.7,1.6-1.7h7.8
		C569.1,603.8,569.8,604.6,569.8,605.6z"/>
	<path fill="#00E8A6" d="M597.1,615.3v31.2H617c0.9,0,1.7,0.8,1.7,1.7v7.5c0,0.9-0.8,1.7-1.7,1.7h-19.9v36.5h28.8
		c0.9,0,1.7,0.8,1.7,1.7v8c0,0.9-0.8,1.7-1.7,1.7h-39c-0.9,0-1.7-0.8-1.7-1.7v-98.1c0-0.9,0.8-1.7,1.7-1.7h39c0.9,0,1.7,0.8,1.7,1.7
		v8c0,0.9-0.8,1.7-1.7,1.7H597.1z"/>
	<path fill="#00E8A6" d="M680.1,605.6v7.8c0,0.9-0.8,1.7-1.7,1.7h-14.9v88.5c0,0.9-0.8,1.7-1.7,1.7h-8.3c-0.9,0-1.7-0.8-1.7-1.7
		v-88.5h-14.9c-0.9,0-1.7-0.8-1.7-1.7v-7.8c0-0.9,0.8-1.7,1.7-1.7h41.5C679.3,603.8,680.1,604.6,680.1,605.6z"/>
</g>
<line fill="none" stroke="#00E8A6" stroke-linecap="round" stroke-linejoin="round" stroke-miterlimit="10" stroke-dasharray="1,6" x1="2.2" y1="524.4" x2="1221.8" y2="524.4"/>
<line fill="none" stroke="#00E8A6" stroke-linecap="round" stroke-linejoin="round" stroke-miterlimit="10" stroke-dasharray="1,6" x1="2.2" y1="1050" x2="1221.8" y2="1050"/>
<line fill="none" stroke="#00E8A6" stroke-linecap="round" stroke-linejoin="round" stroke-miterlimit="10" stroke-dasharray="1,6" x1="2.2" y1="787.2" x2="1221.8" y2="787.2"/>
</svg>
