<?xml version="1.0" encoding="utf-8"?>
<!-- Generator: Adobe Illustrator 17.1.0, SVG Export Plug-In . SVG Version: 6.00 Build 0)  -->
<!DOCTYPE svg PUBLIC "-//W3C//DTD SVG 1.1//EN" "http://www.w3.org/Graphics/SVG/1.1/DTD/svg11.dtd">
<svg version="1.1" id="Layer_1" xmlns="http://www.w3.org/2000/svg" xmlns:xlink="http://www.w3.org/1999/xlink" x="0px" y="0px"
	 viewBox="0 0 281.3 220" enable-background="new 0 0 281.3 220" xml:space="preserve">
<g>
	<g>
		<path fill="#00E8A6" d="M240.7,15.1c0,0.3,0.2,0.5,0.4,0.7c0.2,0.2,0.5,0.2,0.7,0.2c0.3,0,0.6-0.2,0.8-0.4l2.8-3.4
			c0.1-0.1,0.1-0.2,0.1-0.4c0-0.1-0.1-0.2-0.2-0.3l-1.1-0.7c-0.2-0.1-0.4-0.1-0.6,0.1l-2.7,3.4C240.8,14.5,240.7,14.8,240.7,15.1z"
			/>
		<path fill="#00E8A6" d="M225.6,16.1c-2.3,0-4.1,1.8-4.1,4.1c0,2.3,1.8,4.1,4.1,4.1c2.3,0,4.1-1.8,4.1-4.1
			C229.7,17.9,227.9,16.1,225.6,16.1z M225.6,22.5c-1.3,0-2.4-1.1-2.4-2.4c0-1.3,1.1-2.4,2.4-2.4c1.3,0,2.4,1.1,2.4,2.4
			C227.9,21.5,226.9,22.5,225.6,22.5z"/>
		<path fill="#00E8A6" d="M214.1,23.9h1.2c0,0,0,0,0,0c0.2,0,0.4-0.2,0.4-0.4c0-0.1,0-0.1,0-0.2c-1-5.9,0.8-12.8,1-13.6
			c0.2-0.7,0.4-1,0.6-1.2l0.1-0.1l0.1,0.1c0.2,0.1,0.4,0.4,0.7,0.7c0.8,1.6,1.9,3.7,1.9,3.7c0.1,0.2,0.3,0.4,0.6,0.5
			c1.2,0.5,2.4,0.7,3.6,0.7c2.2,0,4-0.8,5.1-1.4c0,0,0.1,0,0.1,0l3.6-2.1c0.2-0.1,0.4-0.4,0.5-0.6c0.1-0.3,0-0.6-0.1-0.8
			c-0.3-0.5-0.9-0.7-1.4-0.4l-1.3,0.8l0-0.3c-0.1-2.3,0.4-3.1,0.6-3.4c0.2-0.2,0.4-0.3,0.7-0.3c1.2,0,2.9,1.2,3.8,2
			c0.5,0.5,1.4,1.2,2.6,2l0.2,0.1l-1.6,2.1c-0.2,0.2-0.3,0.5-0.2,0.8c0,0.3,0.2,0.5,0.4,0.7c0.2,0.2,0.5,0.2,0.7,0.2
			c0.3,0,0.6-0.1,0.8-0.4l2.8-3.5c0.1-0.1,0.1-0.2,0.1-0.3c0-0.1-0.1-0.2-0.2-0.3c-1.9-1.3-3.2-2.3-4-3c-0.3-0.3-2.9-2.6-5.3-2.6
			c-0.9,0-1.7,0.3-2.3,1c-1,1.1-1.4,3.2-1.1,6.2l0,0.1l-0.1,0.1c-0.8,0.4-2.3,1.2-4.3,1.2c-0.8,0-1.6-0.1-2.4-0.4l-0.1,0l-1.7-3.5
			c-0.1-0.2-1.2-1.9-2.7-1.9c-0.4,0-1.8,0-2.7,2.8c-0.1,0.3-2.1,7.8-1.1,14.5C213.7,23.7,213.9,23.9,214.1,23.9z"/>
		<path fill="#00E8A6" d="M245.3,18.1c0.2,0.1,0.4,0.2,0.7,0.2c0.3,0,0.6-0.1,0.8-0.4l2.6-3.2c0.1-0.1,0.1-0.2,0.1-0.4
			s-0.1-0.2-0.2-0.3l-1.1-0.6c-0.2-0.1-0.4-0.1-0.6,0.1l-2.5,3.1C244.8,17,244.9,17.7,245.3,18.1z"/>
		<path fill="#00E8A6" d="M251,17.6c0.6,0.3,1.3,0.6,2.1,0.9l0.2,0.1l-0.1,0.2c-0.8,1.3-1.4,2.8-1.7,4.6c0,0.1,0,0.3,0.1,0.4
			c0.1,0.1,0.2,0.2,0.3,0.2h1.3c0.2,0,0.4-0.1,0.4-0.4c0.5-2.3,1.3-3.6,1.8-4.2l0.1-0.1l0.1,0c1,0.3,1.7,0.4,2,0.5
			c3.5,0.9,5.1,2.6,5.8,3.9c0.1,0.1,0.2,0.2,0.4,0.2h1.3c0,0,0,0,0,0c0.2,0,0.4-0.2,0.4-0.4c0-0.1,0-0.2-0.1-0.3
			c-0.8-1.9-2.8-4.4-7.4-5.5c-0.4-0.1-3.8-0.8-5.9-1.8c-0.2-0.1-0.4,0-0.6,0.1l-0.8,1c-0.1,0.1-0.1,0.2-0.1,0.4
			C250.8,17.4,250.9,17.5,251,17.6z"/>
		<path fill="#00E8A6" d="M266.6,27.1c-0.1-0.2-0.2-0.4-0.3-0.5c-0.1-0.1-0.2-0.1-0.3-0.2c0,0-0.1,0-0.1,0l-50.3,0
			c-0.4,0-0.9,0.4-1,0.6c-0.1,0.1-0.2,0.3-0.2,0.5c-0.2,0.8-0.9,3.6-0.1,5.2c0.2,0.3,0.5,0.5,0.9,0.5h50.6c0.5,0,0.9-0.3,1-0.8
			C266.8,32.3,267.5,29.7,266.6,27.1z M264.9,30.9l0,0.2h-49l0-0.2c0-0.6,0.1-1.4,0.3-2.2l0-0.2h48.6l0,0.2
			C265,29.5,264.9,30.4,264.9,30.9z"/>
	</g>
</g>
<g>
	<g>
		<path fill="#00E8A6" d="M23.5,11.6v12.9c0,3.3-2.1,5.6-5.2,5.6c-3,0-5.2-2.3-5.2-5.6V11.6C13.1,8.2,15,6,18.3,6
			C21.6,6,23.5,8.2,23.5,11.6z M20.8,11.7c0-2.2-1-3.1-2.5-3.1c-1.4,0-2.4,0.9-2.4,3.1v12.7c0,2.2,1,3.1,2.4,3.1
			c1.5,0,2.5-0.9,2.5-3.1V11.7z"/>
		<path fill="#00E8A6" d="M36.9,27.4v1.8c0,0.2-0.2,0.4-0.4,0.4h-9.8c-0.2,0-0.4-0.2-0.4-0.4c0,0,0-2.1,0-2.3c0-1.6,0.8-4.2,2.1-5.8
			c0.8-0.9,3.2-3.9,3.9-4.6c1.5-1.9,1.9-2.6,1.9-4.3c0-1.8-0.4-3.8-2.6-3.8c-1.2,0-2.6,0.5-2.6,3.8v1.3c0,0.2-0.2,0.4-0.4,0.4h-1.9
			c-0.2,0-0.4-0.2-0.4-0.4v-1.5c0-3.7,1.8-6.2,5.4-6.2c3.3,0,5.1,2.4,5.2,6v0.6c0,2.8-1.3,4.2-2.6,5.8c-2.6,3.1-5.2,5.8-5.2,8.1v0.6
			h7.3C36.7,27.1,36.9,27.3,36.9,27.4z"/>
		<path fill="#00E8A6" d="M45.1,19c0-0.2,0.1-0.4,0.4-0.4h2c0.2,0,0.4,0.2,0.4,0.4v1.9c0,0.2-0.2,0.4-0.4,0.4h-2
			c-0.2,0-0.4-0.1-0.4-0.4V19z M45.1,27.4c0-0.2,0.1-0.4,0.4-0.4h2c0.2,0,0.4,0.2,0.4,0.4v1.9c0,0.2-0.2,0.4-0.4,0.4h-2
			c-0.2,0-0.4-0.1-0.4-0.4V27.4z"/>
		<path fill="#00E8A6" d="M74.2,6.7l-3.3,22.5c0,0.2-0.2,0.4-0.4,0.4h-2.6h0c-0.2,0-0.4-0.2-0.4-0.4l-2.6-17.4l-2.6,17.4
			c0,0.2-0.2,0.4-0.4,0.4h0h-2.6c-0.2,0-0.4-0.2-0.4-0.4L55.6,6.7c0-0.2,0.2-0.4,0.4-0.4H58c0.2,0,0.3,0.1,0.4,0.4v0l2.4,18.7
			l3-18.7c0.1-0.3,0.2-0.4,0.4-0.4h1.7c0.2,0,0.3,0.1,0.4,0.4l3,18.7l2.4-18.7v0c0.1-0.3,0.2-0.4,0.4-0.4h1.9
			C74,6.3,74.2,6.5,74.2,6.7z"/>
		<path fill="#00E8A6" d="M87,29.3c0,0.2-0.2,0.4-0.4,0.4h-2c-0.2,0-0.4-0.1-0.4-0.4l-0.7-4.5h-5.3l-0.7,4.5
			c-0.1,0.3-0.2,0.4-0.4,0.4h-2c-0.2,0-0.4-0.2-0.4-0.4L79,6.7c0.1-0.2,0.2-0.4,0.4-0.4h3c0.2,0,0.3,0.2,0.4,0.4L87,29.3z
			 M83.1,22.2l-2.2-13l-2.2,13H83.1z"/>
		<path fill="#00E8A6" d="M92.3,27H99c0.2,0,0.4,0.1,0.4,0.4v1.9c0,0.2-0.1,0.4-0.4,0.4h-9c-0.2,0-0.4-0.2-0.4-0.4V6.7
			c0-0.2,0.2-0.4,0.4-0.4h1.9c0.2,0,0.4,0.2,0.4,0.4V27z"/>
		<path fill="#00E8A6" d="M113.2,29.7h-1.7c-0.3,0-0.5-0.2-0.6-0.4L107,18.2l-2.3,5.1v6c0,0.2-0.2,0.4-0.4,0.4h-1.9
			c-0.2,0-0.4-0.2-0.4-0.4V6.8c0-0.2,0.2-0.4,0.4-0.4h1.9c0.2,0,0.4,0.3,0.4,0.4v11.4l5-11.4c0.1-0.2,0.2-0.5,0.5-0.5h2.1
			c0.3,0,0.4,0.1,0.3,0.5l-4,8.7l4.9,13.6C113.6,29.4,113.5,29.6,113.2,29.7z"/>
		<path fill="#00E8A6" d="M118.6,9v7.2h4.6c0.2,0,0.4,0.2,0.4,0.4v1.7c0,0.2-0.2,0.4-0.4,0.4h-4.6V27h6.6c0.2,0,0.4,0.2,0.4,0.4v1.8
			c0,0.2-0.2,0.4-0.4,0.4h-9c-0.2,0-0.4-0.2-0.4-0.4V6.7c0-0.2,0.2-0.4,0.4-0.4h9c0.2,0,0.4,0.2,0.4,0.4v1.8c0,0.2-0.2,0.4-0.4,0.4
			H118.6z"/>
		<path fill="#00E8A6" d="M140.1,27.6v1.7c0,0.2-0.1,0.3-0.4,0.3c-3.1,0-3.5-2.4-3.5-6.2c0-3-0.7-3.9-3.4-3.9h-1.7v9.8
			c0,0.2-0.2,0.4-0.4,0.4h-1.8c-0.2,0-0.4-0.2-0.4-0.4V6.7c0-0.2,0.2-0.4,0.4-0.4h3.9c3.9,0,6.4,2.1,6.4,6.7c0,2.8-1,4.6-2.8,5.1
			c2.3,0.5,2.4,2.6,2.4,4.4c0,0.2,0,2.1,0,2.3c0,2.3,0.6,2.3,1,2.4C139.9,27.3,140.1,27.4,140.1,27.6z M131.2,16.9h1.8
			c3,0,3.6-1.8,3.6-4c0-1.8-0.5-4-3.6-4h-1.8V16.9z"/>
		<path fill="#00E8A6" d="M153,22.5c0,0.6,0,2.2,0,2.2c0,3.2-2.3,5.3-5.3,5.3c-3.2,0-5.5-2.3-5.5-5.8v-2.1c0-0.2,0.1-0.4,0.4-0.4
			h1.9c0.2,0,0.4,0.2,0.4,0.4v2.6c0,2.1,1.3,2.9,2.9,2.9c1.9,0,2.6-1.3,2.6-2.9v-1.9c0-1.4-0.5-2.1-2.3-3.7l-2.8-2.6
			c-1.5-1.4-2.7-3.5-2.7-5.1c0-3.3,1.9-5.5,5.2-5.5c3.2,0,5.3,2.2,5.3,5.6v1.9c0,0.2-0.1,0.3-0.3,0.3h-2c-0.1,0-0.3-0.1-0.3-0.3
			v-2.2c0-2.2-1.1-3-2.6-3c-1.5,0-2.4,1-2.4,3c0,0.5,0.1,1.7,2.1,3.5c0.6,0.6,3.5,3.3,3.5,3.3C152.8,19.9,153,21.7,153,22.5z"/>
	</g>
</g>
<g>
	
		<line fill="none" stroke="#00E8A6" stroke-width="2" stroke-linecap="round" stroke-linejoin="round" stroke-miterlimit="10" x1="238.7" y1="143.9" x2="232.2" y2="130.6"/>
	
		<circle fill="none" stroke="#00E8A6" stroke-width="2" stroke-linecap="round" stroke-linejoin="round" stroke-miterlimit="10" cx="223.2" cy="146.6" r="10"/>
	
		<circle fill="none" stroke="#00E8A6" stroke-width="2" stroke-linecap="round" stroke-linejoin="round" stroke-miterlimit="10" cx="240.2" cy="146.6" r="3"/>
	
		<circle fill="none" stroke="#00E8A6" stroke-width="2" stroke-linecap="round" stroke-linejoin="round" stroke-miterlimit="10" cx="257.2" cy="146.6" r="10"/>
	
		<polyline fill="none" stroke="#00E8A6" stroke-width="2" stroke-linecap="round" stroke-linejoin="round" stroke-miterlimit="10" points="
		232.2,130.6 223.2,146.6 237.2,146.6 	"/>
	
		<line fill="none" stroke="#00E8A6" stroke-width="2" stroke-linecap="round" stroke-linejoin="round" stroke-miterlimit="10" x1="257.2" y1="146.6" x2="246.8" y2="124.7"/>
	<path fill="none" stroke="#00E8A6" stroke-width="2" stroke-linecap="round" stroke-linejoin="round" stroke-miterlimit="10" d="
		M241.9,143.8l7.8-13.2h-20.4c-1.1,0-2-0.9-2-2v0c0-1.1,0.9-2,2-2h6"/>
	<path fill="none" stroke="#00E8A6" stroke-width="2" stroke-linecap="round" stroke-linejoin="round" stroke-miterlimit="10" d="
		M241.2,121.6l0.9,1.9c0.3,0.7,1,1.1,1.8,1.1h5.7c0.7,0,1.2-0.8,0.9-1.4l-0.7-1.6"/>
</g>
<g>
	<path fill="#00E8A6" d="M23.5,132.7v12.9c0,3.3-2.1,5.6-5.2,5.6c-3,0-5.2-2.3-5.2-5.6v-12.9c0-3.4,1.9-5.6,5.2-5.6
		C21.6,127.1,23.5,129.3,23.5,132.7z M20.8,132.8c0-2.2-1-3.1-2.5-3.1c-1.4,0-2.4,0.9-2.4,3.1v12.7c0,2.2,1,3.1,2.4,3.1
		c1.5,0,2.5-0.9,2.5-3.1V132.8z"/>
	<path fill="#00E8A6" d="M38.3,143.9v1.5c0,0.2-0.2,0.4-0.4,0.4h-1.8v4.5c0,0.2-0.2,0.4-0.4,0.4h-1.7c-0.2,0-0.4-0.2-0.4-0.4v-4.5
		h-7.2c-0.2,0-0.4-0.2-0.4-0.4c0,0,0-0.7,0-1.3c0-0.6,0-0.8,0.3-1.5c0.3-0.7,5.8-14.9,5.8-14.9c0.1-0.2,0.3-0.4,0.5-0.4h3.1
		c0.2,0,0.4,0.2,0.4,0.4v15.7h1.8C38.1,143.5,38.3,143.7,38.3,143.9z M28.5,143.5h5.2V130L28.5,143.5z"/>
	<path fill="#00E8A6" d="M45.9,140.1c0-0.2,0.1-0.4,0.4-0.4h2c0.2,0,0.4,0.2,0.4,0.4v1.9c0,0.2-0.2,0.4-0.4,0.4h-2
		c-0.2,0-0.4-0.1-0.4-0.4V140.1z M45.9,148.5c0-0.2,0.1-0.4,0.4-0.4h2c0.2,0,0.4,0.2,0.4,0.4v1.9c0,0.2-0.2,0.4-0.4,0.4h-2
		c-0.2,0-0.4-0.1-0.4-0.4V148.5z"/>
	<path fill="#00E8A6" d="M65.6,138.5c1.9,0.5,2.8,2.6,2.8,5.5c0,3.7-1.2,6.7-5.8,6.7h-5c-0.2,0-0.4-0.2-0.4-0.4v-22.5
		c0-0.2,0.2-0.4,0.4-0.4h4c3.8,0,6.2,2.6,6.2,6.4C67.8,135.9,67.3,137.7,65.6,138.5z M65.3,133.7c0-1.3-0.8-3.6-3.3-3.6h-2v7.5h2
		C64.3,137.6,65.3,135.9,65.3,133.7z M65.8,144.2c0-3-1.2-4-3.3-4H60v7.9h2.4C64.6,148.1,65.8,147,65.8,144.2z"/>
	<path fill="#00E8A6" d="M75.4,130v18.1h1.8c0.2,0,0.4,0.2,0.4,0.4v1.9c0,0.2-0.2,0.4-0.4,0.4H71c-0.2,0-0.4-0.1-0.4-0.4v-1.9
		c0-0.2,0.2-0.4,0.4-0.4h1.8V130H71c-0.2,0-0.4-0.1-0.4-0.4v-1.9c0-0.2,0.2-0.4,0.4-0.4h6.1c0.2,0,0.4,0.1,0.4,0.4v1.9
		c0,0.2-0.2,0.4-0.4,0.4H75.4z"/>
	<path fill="#00E8A6" d="M91.8,150.8h-1.7c-0.3,0-0.5-0.2-0.6-0.4l-3.9-11l-2.3,5.1v6c0,0.2-0.2,0.4-0.4,0.4H81
		c-0.2,0-0.4-0.2-0.4-0.4v-22.5c0-0.2,0.2-0.4,0.4-0.4h1.9c0.2,0,0.4,0.3,0.4,0.4v11.4l5-11.4c0.1-0.2,0.2-0.5,0.5-0.5H91
		c0.3,0,0.4,0.1,0.3,0.5l-4,8.7l4.9,13.6C92.2,150.5,92.1,150.7,91.8,150.8z"/>
	<path fill="#00E8A6" d="M97.2,130.1v7.2h4.6c0.2,0,0.4,0.2,0.4,0.4v1.7c0,0.2-0.2,0.4-0.4,0.4h-4.6v8.4h6.6c0.2,0,0.4,0.2,0.4,0.4
		v1.8c0,0.2-0.2,0.4-0.4,0.4h-9c-0.2,0-0.4-0.2-0.4-0.4v-22.5c0-0.2,0.2-0.4,0.4-0.4h9c0.2,0,0.4,0.2,0.4,0.4v1.8
		c0,0.2-0.2,0.4-0.4,0.4H97.2z"/>
	<path fill="#00E8A6" d="M118.7,148.7v1.7c0,0.2-0.1,0.3-0.4,0.3c-3.1,0-3.5-2.4-3.5-6.2c0-3-0.7-3.9-3.4-3.9h-1.7v9.8
		c0,0.2-0.2,0.4-0.4,0.4h-1.8c-0.2,0-0.4-0.2-0.4-0.4v-22.5c0-0.2,0.2-0.4,0.4-0.4h3.9c3.9,0,6.4,2.1,6.4,6.7c0,2.8-1,4.6-2.8,5.1
		c2.3,0.5,2.4,2.6,2.4,4.4c0,0.2,0,2.1,0,2.3c0,2.3,0.6,2.3,1,2.4C118.5,148.4,118.7,148.5,118.7,148.7z M109.8,138h1.8
		c3,0,3.6-1.8,3.6-4c0-1.8-0.5-4-3.6-4h-1.8V138z"/>
	<path fill="#00E8A6" d="M131.6,143.6c0,0.6,0,2.2,0,2.2c0,3.2-2.3,5.3-5.3,5.3c-3.2,0-5.5-2.3-5.5-5.8v-2.1c0-0.2,0.1-0.4,0.4-0.4
		h1.9c0.2,0,0.4,0.2,0.4,0.4v2.6c0,2.1,1.3,2.9,2.9,2.9c1.9,0,2.6-1.3,2.6-2.9V144c0-1.4-0.5-2.1-2.3-3.7l-2.8-2.6
		c-1.5-1.4-2.7-3.5-2.7-5.1c0-3.3,1.9-5.5,5.2-5.5c3.2,0,5.3,2.2,5.3,5.6v1.9c0,0.2-0.1,0.3-0.3,0.3h-2c-0.1,0-0.3-0.1-0.3-0.3v-2.2
		c0-2.2-1.1-3-2.6-3c-1.5,0-2.4,1-2.4,3c0,0.5,0.1,1.7,2.1,3.5c0.6,0.6,3.5,3.3,3.5,3.3C131.5,141,131.6,142.8,131.6,143.6z"/>
</g>
<g>
	
		<line fill="none" stroke="#00E8A6" stroke-width="2" stroke-linecap="round" stroke-linejoin="round" stroke-miterlimit="10" x1="227.2" y1="206.6" x2="253.2" y2="206.6"/>
	<path fill="none" stroke="#00E8A6" stroke-width="2" stroke-linecap="round" stroke-linejoin="round" stroke-miterlimit="10" d="
		M257.9,194.6h-40.7c-3.3,0-6,2.7-6,6l0,0c0,3.3,2.7,6,6,6l0,0"/>
	<path fill="none" stroke="#00E8A6" stroke-width="2" stroke-linecap="round" stroke-linejoin="round" stroke-miterlimit="10" d="
		M242.2,186.6h-3.6c-2.1,0-4,1.1-5.1,2.8l-3.2,5.2h-5"/>
	
		<line fill="none" stroke="#00E8A6" stroke-width="2" stroke-linecap="round" stroke-linejoin="round" stroke-miterlimit="10" x1="265.2" y1="200.6" x2="269.1" y2="200.6"/>
	
		<line fill="none" stroke="#00E8A6" stroke-width="2" stroke-linecap="round" stroke-linejoin="round" stroke-miterlimit="10" x1="240.2" y1="198.6" x2="242.2" y2="198.6"/>
	
		<circle fill="none" stroke="#00E8A6" stroke-width="2" stroke-linecap="round" stroke-linejoin="round" stroke-miterlimit="10" cx="222.2" cy="207.6" r="5"/>
	
		<circle fill="none" stroke="#00E8A6" stroke-width="2" stroke-linecap="round" stroke-linejoin="round" stroke-miterlimit="10" cx="222.2" cy="207.6" r="1"/>
	
		<circle fill="none" stroke="#00E8A6" stroke-width="2" stroke-linecap="round" stroke-linejoin="round" stroke-miterlimit="10" cx="258.2" cy="207.6" r="1"/>
	
		<circle fill="none" stroke="#00E8A6" stroke-width="2" stroke-linecap="round" stroke-linejoin="round" stroke-miterlimit="10" cx="258.2" cy="207.6" r="5"/>
	<path fill="none" stroke="#00E8A6" stroke-width="2" stroke-linecap="round" stroke-linejoin="round" stroke-miterlimit="10" d="
		M217.2,194.6L217.2,194.6c1.9,0,3.8-0.6,5.4-1.8l5.9-4.3c1.7-1.2,3.8-1.9,5.9-1.9h7.9c1.9,0,3.7,0.5,5.3,1.5
		c1.7,1.1,4.4,2.8,8.2,5.2c1.4,0.9,3,1.5,4.7,1.8l4.8,0.8c2.2,0.4,3.8,2.3,3.8,4.5v2.2c0,2.2-1.8,4-4,4h-2"/>
</g>
<g>
	<path fill="#00E8A6" d="M17.5,188.3v22.5c0,0.2-0.2,0.4-0.4,0.4h-1.8c-0.2,0-0.4-0.2-0.4-0.4V192h-2.3c-0.2,0-0.4-0.2-0.4-0.4v-1
		c0-0.2,0.2-0.4,0.4-0.4c2.9-1,2.1-2.4,3.3-2.4c0.3,0,1.2,0,1.2,0C17.3,187.9,17.5,188,17.5,188.3z"/>
	<path fill="#00E8A6" d="M31.6,203.5v2.4c0,3-2.1,5.7-5.4,5.7c-3.3,0-5.3-2.3-5.3-5.2v-12.7c0-3.9,2-6.1,5.2-6.1
		c3.3,0,5.4,2.3,5.4,5.7v1.8c0,0.2-0.2,0.4-0.3,0.4h-2.1c-0.2,0-0.4-0.1-0.4-0.4v-2c0-1.5-0.6-2.9-2.6-2.9c-1.8,0-2.6,1.3-2.6,2.9
		v6.1c0.8-1.2,1.9-1.3,2.8-1.3C29.2,197.8,31.6,200,31.6,203.5z M23.6,203.4v2.8c0,1.9,1.1,2.8,2.6,2.8c1.5,0,2.6-1.3,2.6-2.8v-2.8
		c0-2.2-1.1-3-2.6-3C24.8,200.4,23.6,201.3,23.6,203.4z"/>
	<path fill="#00E8A6" d="M40,200.5c0-0.2,0.1-0.4,0.4-0.4h2c0.2,0,0.4,0.2,0.4,0.4v1.9c0,0.2-0.2,0.4-0.4,0.4h-2
		c-0.2,0-0.4-0.1-0.4-0.4V200.5z M40,208.9c0-0.2,0.1-0.4,0.4-0.4h2c0.2,0,0.4,0.2,0.4,0.4v1.9c0,0.2-0.2,0.4-0.4,0.4h-2
		c-0.2,0-0.4-0.1-0.4-0.4V208.9z"/>
	<path fill="#00E8A6" d="M59.8,198.9c1.9,0.5,2.8,2.6,2.8,5.5c0,3.7-1.2,6.7-5.8,6.7h-5c-0.2,0-0.4-0.2-0.4-0.4v-22.5
		c0-0.2,0.2-0.4,0.4-0.4h4c3.8,0,6.2,2.6,6.2,6.4C61.9,196.3,61.4,198.2,59.8,198.9z M59.4,194.1c0-1.3-0.8-3.6-3.3-3.6h-2v7.5h2
		C58.4,198,59.4,196.3,59.4,194.1z M59.9,204.7c0-3-1.2-4-3.3-4h-2.4v7.9h2.4C58.7,208.6,59.9,207.4,59.9,204.7z"/>
	<path fill="#00E8A6" d="M69.5,190.5v18.1h1.8c0.2,0,0.4,0.2,0.4,0.4v1.9c0,0.2-0.2,0.4-0.4,0.4h-6.1c-0.2,0-0.4-0.1-0.4-0.4V209
		c0-0.2,0.2-0.4,0.4-0.4h1.8v-18.1h-1.8c-0.2,0-0.4-0.1-0.4-0.4v-1.9c0-0.2,0.2-0.4,0.4-0.4h6.1c0.2,0,0.4,0.1,0.4,0.4v1.9
		c0,0.2-0.2,0.4-0.4,0.4H69.5z"/>
	<path fill="#00E8A6" d="M86,211.2h-1.7c-0.3,0-0.5-0.2-0.6-0.4l-3.9-11l-2.3,5.1v6c0,0.2-0.2,0.4-0.4,0.4h-1.9
		c-0.2,0-0.4-0.2-0.4-0.4v-22.5c0-0.2,0.2-0.4,0.4-0.4H77c0.2,0,0.4,0.3,0.4,0.4v11.4l5-11.4c0.1-0.2,0.2-0.5,0.5-0.5h2.1
		c0.3,0,0.4,0.1,0.3,0.5l-4,8.7l4.9,13.6C86.4,210.9,86.2,211.1,86,211.2z"/>
	<path fill="#00E8A6" d="M91.4,190.5v7.2h4.6c0.2,0,0.4,0.2,0.4,0.4v1.7c0,0.2-0.2,0.4-0.4,0.4h-4.6v8.4H98c0.2,0,0.4,0.2,0.4,0.4
		v1.8c0,0.2-0.2,0.4-0.4,0.4h-9c-0.2,0-0.4-0.2-0.4-0.4v-22.5c0-0.2,0.2-0.4,0.4-0.4h9c0.2,0,0.4,0.2,0.4,0.4v1.8
		c0,0.2-0.2,0.4-0.4,0.4H91.4z"/>
	<path fill="#00E8A6" d="M112.8,209.2v1.7c0,0.2-0.1,0.3-0.4,0.3c-3.1,0-3.5-2.4-3.5-6.2c0-3-0.7-3.9-3.4-3.9h-1.7v9.8
		c0,0.2-0.2,0.4-0.4,0.4h-1.8c-0.2,0-0.4-0.2-0.4-0.4v-22.5c0-0.2,0.2-0.4,0.4-0.4h3.9c3.9,0,6.4,2.1,6.4,6.7c0,2.8-1,4.6-2.8,5.1
		c2.3,0.5,2.4,2.6,2.4,4.4c0,0.2,0,2.1,0,2.3c0,2.3,0.6,2.3,1,2.4C112.6,208.8,112.8,208.9,112.8,209.2z M103.9,198.4h1.8
		c3,0,3.6-1.8,3.6-4c0-1.8-0.5-4-3.6-4h-1.8V198.4z"/>
	<path fill="#00E8A6" d="M125.7,204.1c0,0.6,0,2.2,0,2.2c0,3.2-2.3,5.3-5.3,5.3c-3.2,0-5.5-2.3-5.5-5.8v-2.1c0-0.2,0.1-0.4,0.4-0.4
		h1.9c0.2,0,0.4,0.2,0.4,0.4v2.6c0,2.1,1.3,2.9,2.9,2.9c1.9,0,2.6-1.3,2.6-2.9v-1.9c0-1.4-0.5-2.1-2.3-3.7l-2.8-2.6
		c-1.5-1.4-2.7-3.5-2.7-5.1c0-3.3,1.9-5.5,5.2-5.5c3.2,0,5.3,2.2,5.3,5.6v1.9c0,0.2-0.1,0.3-0.3,0.3h-2c-0.1,0-0.3-0.1-0.3-0.3v-2.2
		c0-2.2-1.1-3-2.6-3c-1.5,0-2.4,1-2.4,3c0,0.5,0.1,1.7,2.1,3.5c0.6,0.6,3.5,3.3,3.5,3.3C125.6,201.4,125.7,203.2,125.7,204.1z"/>
</g>
<g>
	
		<line fill="none" stroke="#00E8A6" stroke-width="2" stroke-linecap="round" stroke-linejoin="round" stroke-miterlimit="10" x1="240.2" y1="88" x2="240.2" y2="88"/>
	<path fill="none" stroke="#00E8A6" stroke-width="2" stroke-linecap="round" stroke-linejoin="round" stroke-miterlimit="10" d="
		M262.2,90.7h-44c-0.7,0-1.3-0.6-1.3-1.3V62.7c0-0.7,0.6-1.3,1.3-1.3h44c0.7,0,1.3,0.6,1.3,1.3v26.7C263.6,90.1,263,90.7,262.2,90.7
		z"/>
	
		<rect x="235.6" y="90.7" fill="none" stroke="#00E8A6" stroke-width="2" stroke-linecap="round" stroke-linejoin="round" stroke-miterlimit="10" width="9.3" height="5.3"/>
	
		<line fill="none" stroke="#00E8A6" stroke-width="2" stroke-linecap="round" stroke-linejoin="round" stroke-miterlimit="10" x1="263.6" y1="85.4" x2="216.9" y2="85.4"/>
	
		<line fill="none" stroke="#00E8A6" stroke-width="2" stroke-linecap="round" stroke-linejoin="round" stroke-miterlimit="10" x1="247.6" y1="96" x2="232.9" y2="96"/>
</g>
<g>
	<path fill="#00E8A6" d="M23.5,72v12.9c0,3.3-2.1,5.6-5.2,5.6c-3,0-5.2-2.3-5.2-5.6V72c0-3.4,1.9-5.6,5.2-5.6
		C21.6,66.4,23.5,68.6,23.5,72z M20.8,72.1c0-2.2-1-3.1-2.5-3.1c-1.4,0-2.4,0.9-2.4,3.1v12.7c0,2.2,1,3.1,2.4,3.1
		c1.5,0,2.5-0.9,2.5-3.1V72.1z"/>
	<path fill="#00E8A6" d="M36.9,87.9v1.8c0,0.2-0.2,0.4-0.4,0.4h-9.8c-0.2,0-0.4-0.2-0.4-0.4c0,0,0-2.1,0-2.3c0-1.6,0.8-4.2,2.1-5.8
		c0.8-0.9,3.2-3.9,3.9-4.6c1.5-1.9,1.9-2.6,1.9-4.3c0-1.8-0.4-3.8-2.6-3.8c-1.2,0-2.6,0.5-2.6,3.8V74c0,0.2-0.2,0.4-0.4,0.4h-1.9
		c-0.2,0-0.4-0.2-0.4-0.4v-1.5c0-3.7,1.8-6.2,5.4-6.2c3.3,0,5.1,2.4,5.2,6V73c0,2.8-1.3,4.2-2.6,5.8c-2.6,3.1-5.2,5.8-5.2,8.1v0.6
		h7.3C36.7,87.5,36.9,87.7,36.9,87.9z"/>
	<path fill="#00E8A6" d="M45.1,79.4c0-0.2,0.1-0.4,0.4-0.4h2c0.2,0,0.4,0.2,0.4,0.4v1.9c0,0.2-0.2,0.4-0.4,0.4h-2
		c-0.2,0-0.4-0.1-0.4-0.4V79.4z M45.1,87.8c0-0.2,0.1-0.4,0.4-0.4h2c0.2,0,0.4,0.2,0.4,0.4v1.9c0,0.2-0.2,0.4-0.4,0.4h-2
		c-0.2,0-0.4-0.1-0.4-0.4V87.8z"/>
	<path fill="#00E8A6" d="M60.6,69.4v18.1h1.8c0.2,0,0.4,0.2,0.4,0.4v1.9c0,0.2-0.2,0.4-0.4,0.4h-6.1c-0.2,0-0.4-0.1-0.4-0.4v-1.9
		c0-0.2,0.2-0.4,0.4-0.4H58V69.4h-1.8c-0.2,0-0.4-0.1-0.4-0.4v-1.9c0-0.2,0.2-0.4,0.4-0.4h6.1c0.2,0,0.4,0.1,0.4,0.4V69
		c0,0.2-0.2,0.4-0.4,0.4H60.6z"/>
	<path fill="#00E8A6" d="M77.3,67.2v22.5c0,0.2-0.2,0.4-0.4,0.4h-1.8c-0.2,0-0.5-0.3-0.6-0.4l-6.3-16.3v16.3c0,0.2-0.1,0.4-0.4,0.4
		h-1.8c-0.2,0-0.4-0.2-0.4-0.4V67.2c0-0.2,0.2-0.4,0.4-0.4h1.8c0.2,0,0.4,0.1,0.4,0.4l6.4,17.3V67.2c0-0.2,0.1-0.4,0.4-0.4h1.8
		C77.1,66.8,77.3,66.9,77.3,67.2z"/>
	<path fill="#00E8A6" d="M90.1,67.2V69c0,0.2-0.2,0.4-0.4,0.4h-3.4v20.3c0,0.2-0.2,0.4-0.4,0.4H84c-0.2,0-0.4-0.2-0.4-0.4V69.4h-3.4
		c-0.2,0-0.4-0.2-0.4-0.4v-1.8c0-0.2,0.2-0.4,0.4-0.4h9.5C89.9,66.8,90.1,66.9,90.1,67.2z"/>
	<path fill="#00E8A6" d="M95.4,69.4v7.2h4.6c0.2,0,0.4,0.2,0.4,0.4v1.7c0,0.2-0.2,0.4-0.4,0.4h-4.6v8.4h6.6c0.2,0,0.4,0.2,0.4,0.4
		v1.8c0,0.2-0.2,0.4-0.4,0.4h-9c-0.2,0-0.4-0.2-0.4-0.4V67.2c0-0.2,0.2-0.4,0.4-0.4h9c0.2,0,0.4,0.2,0.4,0.4V69
		c0,0.2-0.2,0.4-0.4,0.4H95.4z"/>
	<path fill="#00E8A6" d="M116.8,88.1v1.7c0,0.2-0.1,0.3-0.4,0.3c-3.1,0-3.5-2.4-3.5-6.2c0-3-0.7-3.9-3.4-3.9h-1.7v9.8
		c0,0.2-0.2,0.4-0.4,0.4h-1.8c-0.2,0-0.4-0.2-0.4-0.4V67.2c0-0.2,0.2-0.4,0.4-0.4h3.9c3.9,0,6.4,2.1,6.4,6.7c0,2.8-1,4.6-2.8,5.1
		c2.3,0.5,2.4,2.6,2.4,4.4c0,0.2,0,2.1,0,2.3c0,2.3,0.6,2.3,1,2.4C116.6,87.7,116.8,87.8,116.8,88.1z M107.9,77.3h1.8
		c3,0,3.6-1.8,3.6-4c0-1.8-0.5-4-3.6-4h-1.8V77.3z"/>
	<path fill="#00E8A6" d="M131,67.2v22.5c0,0.2-0.2,0.4-0.4,0.4h-1.8c-0.2,0-0.5-0.3-0.6-0.4l-6.3-16.3v16.3c0,0.2-0.1,0.4-0.4,0.4
		h-1.8c-0.2,0-0.4-0.2-0.4-0.4V67.2c0-0.2,0.2-0.4,0.4-0.4h1.8c0.2,0,0.4,0.1,0.4,0.4l6.4,17.3V67.2c0-0.2,0.1-0.4,0.4-0.4h1.8
		C130.8,66.8,131,66.9,131,67.2z"/>
	<path fill="#00E8A6" d="M137.2,69.4v7.2h4.6c0.2,0,0.4,0.2,0.4,0.4v1.7c0,0.2-0.2,0.4-0.4,0.4h-4.6v8.4h6.6c0.2,0,0.4,0.2,0.4,0.4
		v1.8c0,0.2-0.2,0.4-0.4,0.4h-9c-0.2,0-0.4-0.2-0.4-0.4V67.2c0-0.2,0.2-0.4,0.4-0.4h9c0.2,0,0.4,0.2,0.4,0.4V69
		c0,0.2-0.2,0.4-0.4,0.4H137.2z"/>
	<path fill="#00E8A6" d="M156.3,67.2V69c0,0.2-0.2,0.4-0.4,0.4h-3.4v20.3c0,0.2-0.2,0.4-0.4,0.4h-1.9c-0.2,0-0.4-0.2-0.4-0.4V69.4
		h-3.4c-0.2,0-0.4-0.2-0.4-0.4v-1.8c0-0.2,0.2-0.4,0.4-0.4h9.5C156.1,66.8,156.3,66.9,156.3,67.2z"/>
	<path fill="#00E8A6" d="M161.6,69.4v7.2h4.6c0.2,0,0.4,0.2,0.4,0.4v1.7c0,0.2-0.2,0.4-0.4,0.4h-4.6v8.4h6.6c0.2,0,0.4,0.2,0.4,0.4
		v1.8c0,0.2-0.2,0.4-0.4,0.4h-9c-0.2,0-0.4-0.2-0.4-0.4V67.2c0-0.2,0.2-0.4,0.4-0.4h9c0.2,0,0.4,0.2,0.4,0.4V69
		c0,0.2-0.2,0.4-0.4,0.4H161.6z"/>
	<path fill="#00E8A6" d="M183,88.1v1.7c0,0.2-0.1,0.3-0.4,0.3c-3.1,0-3.5-2.4-3.5-6.2c0-3-0.7-3.9-3.4-3.9H174v9.8
		c0,0.2-0.2,0.4-0.4,0.4h-1.8c-0.2,0-0.4-0.2-0.4-0.4V67.2c0-0.2,0.2-0.4,0.4-0.4h3.9c3.9,0,6.4,2.1,6.4,6.7c0,2.8-1,4.6-2.8,5.1
		c2.3,0.5,2.4,2.6,2.4,4.4c0,0.2,0,2.1,0,2.3c0,2.3,0.6,2.3,1,2.4C182.8,87.7,183,87.8,183,88.1z M174.1,77.3h1.8c3,0,3.6-1.8,3.6-4
		c0-1.8-0.5-4-3.6-4h-1.8V77.3z"/>
	<path fill="#00E8A6" d="M195.9,83c0,0.6,0,2.2,0,2.2c0,3.2-2.3,5.3-5.3,5.3c-3.2,0-5.5-2.3-5.5-5.8v-2.1c0-0.2,0.1-0.4,0.4-0.4h1.9
		c0.2,0,0.4,0.2,0.4,0.4v2.6c0,2.1,1.3,2.9,2.9,2.9c1.9,0,2.6-1.3,2.6-2.9v-1.9c0-1.4-0.5-2.1-2.3-3.7l-2.8-2.6
		c-1.5-1.4-2.7-3.5-2.7-5.1c0-3.3,1.9-5.5,5.2-5.5c3.2,0,5.3,2.2,5.3,5.6v1.9c0,0.2-0.1,0.3-0.3,0.3h-2c-0.1,0-0.3-0.1-0.3-0.3v-2.2
		c0-2.2-1.1-3-2.6-3c-1.5,0-2.4,1-2.4,3c0,0.5,0.1,1.7,2.1,3.5c0.6,0.6,3.5,3.3,3.5,3.3C195.8,80.3,195.9,82.1,195.9,83z"/>
</g>
<line fill="none" stroke="#00E8A6" stroke-linecap="round" stroke-linejoin="round" stroke-miterlimit="10" stroke-dasharray="1,6" x1="0.5" y1="48.5" x2="280.8" y2="48.5"/>
<line fill="none" stroke="#00E8A6" stroke-linecap="round" stroke-linejoin="round" stroke-miterlimit="10" stroke-dasharray="1,6" x1="0.5" y1="169.3" x2="280.8" y2="169.3"/>
<line fill="none" stroke="#00E8A6" stroke-linecap="round" stroke-linejoin="round" stroke-miterlimit="10" stroke-dasharray="1,6" x1="0.5" y1="108.9" x2="280.8" y2="108.9"/>
</svg>
