<?xml version="1.0" encoding="utf-8"?>
<!-- Generator: Adobe Illustrator 17.1.0, SVG Export Plug-In . SVG Version: 6.00 Build 0)  -->
<!DOCTYPE svg PUBLIC "-//W3C//DTD SVG 1.1//EN" "http://www.w3.org/Graphics/SVG/1.1/DTD/svg11.dtd">
<svg version="1.1" id="Layer_1" xmlns="http://www.w3.org/2000/svg" xmlns:xlink="http://www.w3.org/1999/xlink" x="0px" y="0px"
	 viewBox="0 0 282 98.9" enable-background="new 0 0 282 98.9" xml:space="preserve">
<path display="none" fill="#00E8A6" d="M134.5,32.1l0,3c2.8,0,5.1,1.8,6.6,5c0.5,1,1.5,1.7,2.7,1.8c0,0,0,0,0.1,0
	c1.1,0,2.2-0.6,2.7-1.6c1.7-3.3,4.1-5.1,6.9-5.1c1.8,0,3.6,0.8,4.9,2.2c1.4,1.5,2.2,3.6,2,5.8c-0.4,6.5-7.6,12.2-12.9,16.4
	c-1.4,1.1-2.6,2-3.6,2.9c-1-0.9-2.3-1.9-3.6-3c-5.2-4.2-12.4-9.8-12.9-16.4c-0.2-2.1,0.5-4.1,1.9-5.6c1.4-1.5,3.4-2.4,5.3-2.4V32.1
	 M134.5,32.1c-5.4,0-10.7,4.7-10.2,11.2c0.8,11.4,16.7,19.2,19.5,23.6c2.9-4.3,18.9-12.4,19.5-23.6c0.4-6.5-4.6-11.2-10-11.2
	c-3.5,0-7.1,2-9.6,6.7C141.7,34.1,138.1,32.1,134.5,32.1L134.5,32.1z"/>
<path display="none" fill="#353535" d="M163.6,58.5l-11.5-8.9c-0.3-0.2-0.8-0.3-1.1-0.1c-0.4,0.2-0.5,0.6-0.5,1l1.7,14.4
	c0,0.4,0.3,0.7,0.7,0.8c0,0,0,0,0.1,0c0.4,0.1,0.9-0.1,1.1-0.5l2.1-3.6l2.4,4.2c0.2,0.4,0.5,0.6,0.9,0.7c0.4,0.1,0.8,0.1,1.1-0.1
	c0.7-0.4,1-1.3,0.6-2l-2.4-4.2l4.2,0.1c0.4,0,0.8-0.3,1-0.7C164.1,59.2,163.9,58.7,163.6,58.5z"/>
<g display="none">
	<g display="inline">
		<path fill="#00E8A6" d="M178.5,2c0.7,0,1.3,0.6,1.3,1.3v92.3c0,0.7-0.6,1.3-1.3,1.3h-69c-0.7,0-1.3-0.6-1.3-1.3V61.3
			c0-2.4-1.3-5.4-2.9-7.1l-4.1-4.1c-0.5-0.5-0.5-1.4,0-1.9l4.1-4.1c1.7-1.7,2.9-4.7,2.9-7.1V3.3c0-0.7,0.6-1.3,1.3-1.3H178.5
			 M178.5,0h-69c-1.8,0-3.3,1.5-3.3,3.3v33.8c0,1.8-1.1,4.4-2.4,5.7l-4.1,4.1c-1.3,1.3-1.3,3.4,0,4.7l4.1,4.1
			c1.3,1.3,2.4,3.8,2.4,5.7v34.3c0,1.8,1.5,3.3,3.3,3.3h69c1.8,0,3.3-1.5,3.3-3.3V3.3C181.9,1.5,180.4,0,178.5,0L178.5,0z"/>
	</g>
</g>
<g>
	<g>
		<path fill="#00E8A6" d="M277.5,4.9c1.4,0,2.5,1.1,2.5,2.5v71.8c0,1.4-1.1,2.5-2.5,2.5H158.7c-3,0-7,1.7-9.2,3.8l-5.6,5.6
			c-0.5,0.5-1.1,0.7-1.8,0.7c-0.7,0-1.3-0.3-1.8-0.7l-5.6-5.6c-2.1-2.1-6.2-3.8-9.2-3.8H4.5c-1.4,0-2.5-1.1-2.5-2.5V7.5
			c0-1.4,1.1-2.5,2.5-2.5H277.5 M277.5,2.9H4.5C2,2.9,0,5,0,7.5v71.8c0,2.5,2,4.5,4.5,4.5h121c2.5,0,6,1.4,7.8,3.2l5.6,5.6
			c0.9,0.9,2.1,1.3,3.2,1.3s2.3-0.4,3.2-1.3l5.6-5.6c1.8-1.8,5.3-3.2,7.8-3.2h118.8c2.5,0,4.5-2,4.5-4.5V7.5
			C282,5,280,2.9,277.5,2.9L277.5,2.9z"/>
	</g>
</g>
<rect x="1.9" y="40.6" fill="none" width="278.3" height="26.8"/>
<text transform="matrix(1 0 0 1 69.9815 52.4581)" fill="#00E8A6" font-family="'Montserrat-Bold'" font-size="16" letter-spacing="1">OUR COMMUTE</text>
</svg>
