<?xml version="1.0" encoding="utf-8"?>
<!-- Generator: Adobe Illustrator 17.1.0, SVG Export Plug-In . SVG Version: 6.00 Build 0)  -->
<!DOCTYPE svg PUBLIC "-//W3C//DTD SVG 1.1//EN" "http://www.w3.org/Graphics/SVG/1.1/DTD/svg11.dtd">
<svg version="1.1" id="Layer_1" xmlns="http://www.w3.org/2000/svg" xmlns:xlink="http://www.w3.org/1999/xlink" x="0px" y="0px"
	 viewBox="0 0 282 91.1" enable-background="new 0 0 282 91.1" xml:space="preserve">
<g>
	<g>
		<path fill="#00E8A6" d="M277.5,2c1.4,0,2.5,1.1,2.5,2.5v71.8c0,1.4-1.1,2.5-2.5,2.5H158.7c-3,0-7,1.7-9.2,3.8l-5.6,5.6
			c-0.5,0.5-1.1,0.7-1.8,0.7c-0.7,0-1.3-0.3-1.8-0.7l-5.6-5.6c-2.1-2.1-6.2-3.8-9.2-3.8H4.5c-1.4,0-2.5-1.1-2.5-2.5V4.5
			C2,3.1,3.1,2,4.5,2H277.5 M277.5,0H4.5C2,0,0,2,0,4.5v71.8c0,2.5,2,4.5,4.5,4.5h121c2.5,0,6,1.4,7.8,3.2l5.6,5.6
			c0.9,0.9,2.1,1.3,3.2,1.3s2.3-0.4,3.2-1.3l5.6-5.6c1.8-1.8,5.3-3.2,7.8-3.2h118.8c2.5,0,4.5-2,4.5-4.5V4.5C282,2,280,0,277.5,0
			L277.5,0z"/>
	</g>
</g>
<g>
	<path fill="#00E8A6" d="M82.6,43.9c0,3.3-2.6,5.7-6.1,5.7c-3.5,0-6.1-2.5-6.1-5.7c0-3.3,2.6-5.7,6.1-5.7
		C80,38.2,82.6,40.7,82.6,43.9z M73.4,43.9c0,1.9,1.5,3.3,3.2,3.3c1.7,0,3.1-1.5,3.1-3.3c0-1.9-1.4-3.3-3.1-3.3
		C74.8,40.6,73.4,42,73.4,43.9z"/>
	<path fill="#00E8A6" d="M95.8,44.8c0,3-2,4.8-5.1,4.8c-3.2,0-5.2-1.9-5.2-4.8v-6.5h2.8v6.5c0,1.5,1,2.4,2.3,2.4
		c1.3,0,2.3-0.9,2.3-2.4v-6.5h2.8V44.8z"/>
	<path fill="#00E8A6" d="M104.5,46.4L104.5,46.4h-2.2v3.2h-2.8V38.3h5c3,0,4.7,1.4,4.7,3.9c0,1.7-0.7,2.9-2,3.6l2.4,3.7h-3.2
		L104.5,46.4z M104.4,44.1c1.2,0,2-0.6,2-1.8c0-1.2-0.7-1.8-2-1.8h-2.2v3.6H104.4z"/>
	<path fill="#00E8A6" d="M127.7,40.1l-1.6,2c-0.7-0.9-1.8-1.5-2.8-1.5c-1.8,0-3.1,1.4-3.1,3.2c0,1.9,1.3,3.3,3.1,3.3
		c0.9,0,2-0.5,2.8-1.3l1.7,1.8c-1.2,1.2-3,2-4.6,2c-3.4,0-5.9-2.5-5.9-5.8c0-3.2,2.6-5.7,6-5.7C124.8,38.2,126.5,39,127.7,40.1z"/>
	<path fill="#00E8A6" d="M141.8,43.9c0,3.3-2.6,5.7-6.1,5.7c-3.5,0-6.1-2.5-6.1-5.7c0-3.3,2.6-5.7,6.1-5.7
		C139.2,38.2,141.8,40.7,141.8,43.9z M132.6,43.9c0,1.9,1.5,3.3,3.2,3.3c1.7,0,3.1-1.5,3.1-3.3c0-1.9-1.4-3.3-3.1-3.3
		C134,40.6,132.6,42,132.6,43.9z"/>
	<path fill="#00E8A6" d="M154.7,49.5l0-7.3l-2.7,6.2h-1.9l-2.7-6.2v7.3h-2.5V38.3h3.1l3,6.7l3-6.7h3.1v11.2H154.7z"/>
	<path fill="#00E8A6" d="M170.8,49.5l0-7.3l-2.7,6.2h-1.9l-2.7-6.2v7.3H161V38.3h3.1l3,6.7l3-6.7h3.1v11.2H170.8z"/>
	<path fill="#00E8A6" d="M187.3,44.8c0,3-2,4.8-5.1,4.8c-3.2,0-5.2-1.9-5.2-4.8v-6.5h2.8v6.5c0,1.5,1,2.4,2.3,2.4
		c1.3,0,2.3-0.9,2.3-2.4v-6.5h2.8V44.8z"/>
	<path fill="#00E8A6" d="M196.1,40.6v8.9h-2.8v-8.9h-3.3v-2.3h9.6v2.3H196.1z"/>
	<path fill="#00E8A6" d="M205.1,40.6v2.2h5.3V45h-5.3v2.3h6.1v2.2h-8.9V38.3h8.8v2.2H205.1z"/>
</g>
</svg>
