<?xml version="1.0" encoding="utf-8"?>
<!-- Generator: Adobe Illustrator 17.1.0, SVG Export Plug-In . SVG Version: 6.00 Build 0)  -->
<!DOCTYPE svg PUBLIC "-//W3C//DTD SVG 1.1//EN" "http://www.w3.org/Graphics/SVG/1.1/DTD/svg11.dtd">
<svg version="1.1" id="Layer_1" xmlns="http://www.w3.org/2000/svg" xmlns:xlink="http://www.w3.org/1999/xlink" x="0px" y="0px"
	 viewBox="0 0 281.3 220" enable-background="new 0 0 281.3 220" xml:space="preserve">
<path display="none" fill="#00E8A6" d="M134.2,92.9l0,3c2.8,0,5.1,1.8,6.6,5c0.5,1,1.5,1.7,2.7,1.8c0,0,0,0,0.1,0
	c1.1,0,2.2-0.6,2.7-1.6c1.7-3.3,4.1-5.1,6.9-5.1c1.8,0,3.6,0.8,4.9,2.2c1.4,1.5,2.2,3.6,2,5.8c-0.4,6.5-7.6,12.2-12.9,16.4
	c-1.4,1.1-2.6,2-3.6,2.9c-1-0.9-2.3-1.9-3.6-3c-5.2-4.2-12.4-9.8-12.9-16.4c-0.2-2.1,0.5-4.1,1.9-5.6c1.4-1.5,3.4-2.4,5.3-2.4V92.9
	 M134.2,92.9c-5.4,0-10.7,4.7-10.2,11.2c0.8,11.4,16.7,19.2,19.5,23.6c2.9-4.3,18.9-12.4,19.5-23.6c0.4-6.5-4.6-11.2-10-11.2
	c-3.5,0-7.1,2-9.6,6.7C141.4,94.9,137.8,92.9,134.2,92.9L134.2,92.9z"/>
<path display="none" fill="#353535" d="M163.3,119.3l-11.5-8.9c-0.3-0.2-0.8-0.3-1.1-0.1c-0.4,0.2-0.5,0.6-0.5,1l1.7,14.4
	c0,0.4,0.3,0.7,0.7,0.8c0,0,0,0,0.1,0c0.4,0.1,0.9-0.1,1.1-0.5l2.1-3.6l2.4,4.2c0.2,0.4,0.5,0.6,0.9,0.7c0.4,0.1,0.8,0.1,1.1-0.1
	c0.7-0.4,1-1.3,0.6-2l-2.4-4.2l4.2,0.1c0.4,0,0.8-0.3,1-0.7C163.8,120,163.6,119.6,163.3,119.3z"/>
<g display="none">
	<g display="inline">
		<path fill="#00E8A6" d="M178.2,62.8c0.7,0,1.3,0.6,1.3,1.3v92.3c0,0.7-0.6,1.3-1.3,1.3h-69c-0.7,0-1.3-0.6-1.3-1.3v-34.3
			c0-2.4-1.3-5.4-2.9-7.1l-4.1-4.1c-0.5-0.5-0.5-1.4,0-1.9l4.1-4.1c1.7-1.7,2.9-4.7,2.9-7.1V64.1c0-0.7,0.6-1.3,1.3-1.3H178.2
			 M178.2,60.8h-69c-1.8,0-3.3,1.5-3.3,3.3v33.8c0,1.8-1.1,4.4-2.4,5.7l-4.1,4.1c-1.3,1.3-1.3,3.4,0,4.7l4.1,4.1
			c1.3,1.3,2.4,3.8,2.4,5.7v34.3c0,1.8,1.5,3.3,3.3,3.3h69c1.8,0,3.3-1.5,3.3-3.3V64.1C181.6,62.3,180.1,60.8,178.2,60.8L178.2,60.8
			z"/>
	</g>
</g>
<g>
	<g>
		<path fill="#00E8A6" d="M240.7,15.1c0,0.3,0.2,0.5,0.4,0.7c0.2,0.2,0.5,0.2,0.7,0.2c0.3,0,0.6-0.2,0.8-0.4l2.8-3.4
			c0.1-0.1,0.1-0.2,0.1-0.4c0-0.1-0.1-0.2-0.2-0.3l-1.1-0.7c-0.2-0.1-0.4-0.1-0.6,0.1l-2.7,3.4C240.8,14.5,240.7,14.8,240.7,15.1z"
			/>
		<path fill="#00E8A6" d="M225.6,16.1c-2.3,0-4.1,1.8-4.1,4.1c0,2.3,1.8,4.1,4.1,4.1c2.3,0,4.1-1.8,4.1-4.1
			C229.7,17.9,227.9,16.1,225.6,16.1z M225.6,22.5c-1.3,0-2.4-1.1-2.4-2.4c0-1.3,1.1-2.4,2.4-2.4c1.3,0,2.4,1.1,2.4,2.4
			C227.9,21.5,226.9,22.5,225.6,22.5z"/>
		<path fill="#00E8A6" d="M214.1,23.9h1.2c0,0,0,0,0,0c0.2,0,0.4-0.2,0.4-0.4c0-0.1,0-0.1,0-0.2c-1-5.9,0.8-12.8,1-13.6
			c0.2-0.7,0.4-1,0.6-1.2l0.1-0.1l0.1,0.1c0.2,0.1,0.4,0.4,0.7,0.7c0.8,1.6,1.9,3.7,1.9,3.7c0.1,0.2,0.3,0.4,0.6,0.5
			c1.2,0.5,2.4,0.7,3.6,0.7c2.2,0,4-0.8,5.1-1.4c0,0,0.1,0,0.1,0l3.6-2.1c0.2-0.1,0.4-0.4,0.5-0.6c0.1-0.3,0-0.6-0.1-0.8
			c-0.3-0.5-0.9-0.7-1.4-0.4l-1.3,0.8l0-0.3c-0.1-2.3,0.4-3.1,0.6-3.4c0.2-0.2,0.4-0.3,0.7-0.3c1.2,0,2.9,1.2,3.8,2
			c0.5,0.5,1.4,1.2,2.6,2l0.2,0.1l-1.6,2.1c-0.2,0.2-0.3,0.5-0.2,0.8c0,0.3,0.2,0.5,0.4,0.7c0.2,0.2,0.5,0.2,0.7,0.2
			c0.3,0,0.6-0.1,0.8-0.4l2.8-3.5c0.1-0.1,0.1-0.2,0.1-0.3c0-0.1-0.1-0.2-0.2-0.3c-1.9-1.3-3.2-2.3-4-3c-0.3-0.3-2.9-2.6-5.3-2.6
			c-0.9,0-1.7,0.3-2.3,1c-1,1.1-1.4,3.2-1.1,6.2l0,0.1l-0.1,0.1c-0.8,0.4-2.3,1.2-4.3,1.2c-0.8,0-1.6-0.1-2.4-0.4l-0.1,0l-1.7-3.5
			c-0.1-0.2-1.2-1.9-2.7-1.9c-0.4,0-1.8,0-2.7,2.8c-0.1,0.3-2.1,7.8-1.1,14.5C213.7,23.7,213.9,23.9,214.1,23.9z"/>
		<path fill="#00E8A6" d="M245.3,18.1c0.2,0.1,0.4,0.2,0.7,0.2c0.3,0,0.6-0.1,0.8-0.4l2.6-3.2c0.1-0.1,0.1-0.2,0.1-0.4
			c0-0.1-0.1-0.2-0.2-0.3l-1.1-0.6c-0.2-0.1-0.4-0.1-0.6,0.1l-2.5,3.1C244.8,17,244.9,17.7,245.3,18.1z"/>
		<path fill="#00E8A6" d="M251,17.6c0.6,0.3,1.3,0.6,2.1,0.9l0.2,0.1l-0.1,0.2c-0.8,1.3-1.4,2.8-1.7,4.6c0,0.1,0,0.3,0.1,0.4
			c0.1,0.1,0.2,0.2,0.3,0.2h1.3c0.2,0,0.4-0.1,0.4-0.4c0.5-2.3,1.3-3.6,1.8-4.2l0.1-0.1l0.1,0c1,0.3,1.7,0.4,2,0.5
			c3.5,0.9,5.1,2.6,5.8,3.9c0.1,0.1,0.2,0.2,0.4,0.2h1.3c0,0,0,0,0,0c0.2,0,0.4-0.2,0.4-0.4c0-0.1,0-0.2-0.1-0.3
			c-0.8-1.9-2.8-4.4-7.4-5.5c-0.4-0.1-3.8-0.8-5.9-1.8c-0.2-0.1-0.4,0-0.6,0.1l-0.8,1c-0.1,0.1-0.1,0.2-0.1,0.4
			C250.8,17.4,250.9,17.5,251,17.6z"/>
		<path fill="#00E8A6" d="M266.6,27.1c-0.1-0.2-0.2-0.4-0.3-0.5c-0.1-0.1-0.2-0.1-0.3-0.2c0,0-0.1,0-0.1,0l-50.3,0
			c-0.4,0-0.9,0.4-1,0.6c-0.1,0.1-0.2,0.3-0.2,0.5c-0.2,0.8-0.9,3.6-0.1,5.2c0.2,0.3,0.5,0.5,0.9,0.5h50.6c0.5,0,0.9-0.3,1-0.8
			C266.8,32.3,267.5,29.7,266.6,27.1z M264.9,30.9l0,0.2h-49l0-0.2c0-0.6,0.1-1.4,0.3-2.2l0-0.2h48.6l0,0.2
			C265,29.5,264.9,30.4,264.9,30.9z"/>
	</g>
</g>
<g>
	<rect x="11.4" y="5.8" fill="none" width="147.7" height="24.9"/>
	<text transform="matrix(1 0 0 1 11.4409 29.6634)" fill="#00E8A6" font-family="'Interborough'" font-size="36">02 : FOOT</text>
</g>
<g>
	
		<line fill="none" stroke="#00E8A6" stroke-width="2" stroke-linecap="round" stroke-linejoin="round" stroke-miterlimit="10" x1="238.7" y1="143.9" x2="232.2" y2="130.6"/>
	
		<circle fill="none" stroke="#00E8A6" stroke-width="2" stroke-linecap="round" stroke-linejoin="round" stroke-miterlimit="10" cx="223.2" cy="146.6" r="10"/>
	
		<circle fill="none" stroke="#00E8A6" stroke-width="2" stroke-linecap="round" stroke-linejoin="round" stroke-miterlimit="10" cx="240.2" cy="146.6" r="3"/>
	
		<circle fill="none" stroke="#00E8A6" stroke-width="2" stroke-linecap="round" stroke-linejoin="round" stroke-miterlimit="10" cx="257.2" cy="146.6" r="10"/>
	
		<polyline fill="none" stroke="#00E8A6" stroke-width="2" stroke-linecap="round" stroke-linejoin="round" stroke-miterlimit="10" points="
		232.2,130.6 223.2,146.6 237.2,146.6 	"/>
	
		<line fill="none" stroke="#00E8A6" stroke-width="2" stroke-linecap="round" stroke-linejoin="round" stroke-miterlimit="10" x1="257.2" y1="146.6" x2="246.8" y2="124.7"/>
	<path fill="none" stroke="#00E8A6" stroke-width="2" stroke-linecap="round" stroke-linejoin="round" stroke-miterlimit="10" d="
		M241.9,143.8l7.8-13.2h-20.4c-1.1,0-2-0.9-2-2v0c0-1.1,0.9-2,2-2h6"/>
	<path fill="none" stroke="#00E8A6" stroke-width="2" stroke-linecap="round" stroke-linejoin="round" stroke-miterlimit="10" d="
		M241.2,121.6l0.9,1.9c0.3,0.7,1,1.1,1.8,1.1h5.7c0.7,0,1.2-0.8,0.9-1.4l-0.7-1.6"/>
</g>
<rect x="11.4" y="126.9" fill="none" width="126.7" height="24.4"/>
<text transform="matrix(1 0 0 1 11.4409 150.7618)" fill="#00E8A6" font-family="'Interborough'" font-size="36">04 : BIKER</text>
<g>
	
		<line fill="none" stroke="#00E8A6" stroke-width="2" stroke-linecap="round" stroke-linejoin="round" stroke-miterlimit="10" x1="227.2" y1="206.6" x2="253.2" y2="206.6"/>
	<path fill="none" stroke="#00E8A6" stroke-width="2" stroke-linecap="round" stroke-linejoin="round" stroke-miterlimit="10" d="
		M257.9,194.6h-40.7c-3.3,0-6,2.7-6,6l0,0c0,3.3,2.7,6,6,6l0,0"/>
	<path fill="none" stroke="#00E8A6" stroke-width="2" stroke-linecap="round" stroke-linejoin="round" stroke-miterlimit="10" d="
		M242.2,186.6h-3.6c-2.1,0-4,1.1-5.1,2.8l-3.2,5.2h-5"/>
	
		<line fill="none" stroke="#00E8A6" stroke-width="2" stroke-linecap="round" stroke-linejoin="round" stroke-miterlimit="10" x1="265.2" y1="200.6" x2="269.1" y2="200.6"/>
	
		<line fill="none" stroke="#00E8A6" stroke-width="2" stroke-linecap="round" stroke-linejoin="round" stroke-miterlimit="10" x1="240.2" y1="198.6" x2="242.2" y2="198.6"/>
	
		<circle fill="none" stroke="#00E8A6" stroke-width="2" stroke-linecap="round" stroke-linejoin="round" stroke-miterlimit="10" cx="222.2" cy="207.6" r="5"/>
	
		<circle fill="none" stroke="#00E8A6" stroke-width="2" stroke-linecap="round" stroke-linejoin="round" stroke-miterlimit="10" cx="222.2" cy="207.6" r="1"/>
	
		<circle fill="none" stroke="#00E8A6" stroke-width="2" stroke-linecap="round" stroke-linejoin="round" stroke-miterlimit="10" cx="258.2" cy="207.6" r="1"/>
	
		<circle fill="none" stroke="#00E8A6" stroke-width="2" stroke-linecap="round" stroke-linejoin="round" stroke-miterlimit="10" cx="258.2" cy="207.6" r="5"/>
	<path fill="none" stroke="#00E8A6" stroke-width="2" stroke-linecap="round" stroke-linejoin="round" stroke-miterlimit="10" d="
		M217.2,194.6L217.2,194.6c1.9,0,3.8-0.6,5.4-1.8l5.9-4.3c1.7-1.2,3.8-1.9,5.9-1.9h7.9c1.9,0,3.7,0.5,5.3,1.5
		c1.7,1.1,4.4,2.8,8.2,5.2c1.4,0.9,3,1.5,4.7,1.8l4.8,0.8c2.2,0.4,3.8,2.3,3.8,4.5v2.2c0,2.2-1.8,4-4,4h-2"/>
</g>
<rect x="11.4" y="187.4" fill="none" width="123.2" height="24.4"/>
<text transform="matrix(1 0 0 1 11.4409 211.1865)" fill="#00E8A6" font-family="'Interborough'" font-size="36">16 : CAR</text>
<g>
	
		<line fill="none" stroke="#00E8A6" stroke-width="2" stroke-linecap="round" stroke-linejoin="round" stroke-miterlimit="10" x1="240.2" y1="88" x2="240.2" y2="88"/>
	<path fill="none" stroke="#00E8A6" stroke-width="2" stroke-linecap="round" stroke-linejoin="round" stroke-miterlimit="10" d="
		M262.2,90.7h-44c-0.7,0-1.3-0.6-1.3-1.3V62.7c0-0.7,0.6-1.3,1.3-1.3h44c0.7,0,1.3,0.6,1.3,1.3v26.7C263.6,90.1,263,90.7,262.2,90.7
		z"/>
	
		<rect x="235.6" y="90.7" fill="none" stroke="#00E8A6" stroke-width="2" stroke-linecap="round" stroke-linejoin="round" stroke-miterlimit="10" width="9.3" height="5.3"/>
	
		<line fill="none" stroke="#00E8A6" stroke-width="2" stroke-linecap="round" stroke-linejoin="round" stroke-miterlimit="10" x1="263.6" y1="85.4" x2="216.9" y2="85.4"/>
	
		<line fill="none" stroke="#00E8A6" stroke-width="2" stroke-linecap="round" stroke-linejoin="round" stroke-miterlimit="10" x1="247.6" y1="96" x2="232.9" y2="96"/>
</g>
<rect x="11.4" y="66.3" fill="none" width="189.2" height="24.9"/>
<text transform="matrix(1 0 0 1 11.4409 90.0876)" fill="#00E8A6" font-family="'Interborough'" font-size="36">02 : INTERNET</text>
<line fill="none" stroke="#00E8A6" stroke-linecap="round" stroke-linejoin="round" stroke-miterlimit="10" stroke-dasharray="1,6" x1="0.5" y1="48.5" x2="280.8" y2="48.5"/>
<line fill="none" stroke="#00E8A6" stroke-linecap="round" stroke-linejoin="round" stroke-miterlimit="10" stroke-dasharray="1,6" x1="0.5" y1="169.3" x2="280.8" y2="169.3"/>
<line fill="none" stroke="#00E8A6" stroke-linecap="round" stroke-linejoin="round" stroke-miterlimit="10" stroke-dasharray="1,6" x1="0.5" y1="108.9" x2="280.8" y2="108.9"/>
</svg>
