<?xml version="1.0" encoding="utf-8"?>
<!-- Generator: Adobe Illustrator 17.1.0, SVG Export Plug-In . SVG Version: 6.00 Build 0)  -->
<!DOCTYPE svg PUBLIC "-//W3C//DTD SVG 1.1//EN" "http://www.w3.org/Graphics/SVG/1.1/DTD/svg11.dtd">
<svg version="1.1" id="Layer_1" xmlns="http://www.w3.org/2000/svg" xmlns:xlink="http://www.w3.org/1999/xlink" x="0px" y="0px"
	 viewBox="0 0 281.3 178.5" enable-background="new 0 0 281.3 178.5" xml:space="preserve">
<g>
	
		<circle fill="none" stroke="#3DAFFC" stroke-width="2" stroke-linecap="round" stroke-linejoin="round" stroke-miterlimit="10" cx="251.9" cy="82.4" r="10.1"/>
	<path fill="none" stroke="#3DAFFC" stroke-width="2" stroke-linecap="round" stroke-linejoin="round" stroke-miterlimit="10" d="
		M244.1,75.9c0.3,7.8,6.5,14,14.3,14.3"/>
	<path fill="none" stroke="#3DAFFC" stroke-width="2" stroke-linecap="round" stroke-linejoin="round" stroke-miterlimit="10" d="
		M246.5,73.8c0.4,7.5,6.4,13.6,14,14"/>
	
		<line fill="none" stroke="#3DAFFC" stroke-width="2" stroke-linecap="round" stroke-linejoin="round" stroke-miterlimit="10" x1="225.8" y1="108.5" x2="219.9" y2="114.4"/>
	
		<line fill="none" stroke="#3DAFFC" stroke-width="2" stroke-linecap="round" stroke-linejoin="round" stroke-miterlimit="10" x1="240.2" y1="94.1" x2="239.4" y2="94.9"/>
	<path fill="none" stroke="#3DAFFC" stroke-width="2" stroke-linecap="round" stroke-linejoin="round" stroke-miterlimit="10" d="
		M242,84.6l-17.5,20.6c-0.5,0.6-0.5,1.5,0.1,2.1l2.4,2.4c0.6,0.6,1.5,0.6,2.1,0.1l20.6-17.5C245.9,91.4,242.8,88.4,242,84.6z"/>
</g>
<g>
	<g>
		<path fill="#3DAFFC" d="M24.5,41c0,0.2-0.2,0.4-0.4,0.4h-2c-0.2,0-0.4-0.1-0.4-0.4L21,36.5h-5.3L15,41c-0.1,0.3-0.2,0.4-0.4,0.4
			h-2c-0.2,0-0.4-0.2-0.4-0.4l4.2-22.5c0.1-0.2,0.2-0.4,0.4-0.4h3c0.2,0,0.3,0.2,0.4,0.4L24.5,41z M20.5,34l-2.2-13l-2.2,13H20.5z"
			/>
		<path fill="#3DAFFC" d="M34.7,18.4v1.8c0,0.2-0.2,0.4-0.4,0.4h-3.4V41c0,0.2-0.2,0.4-0.4,0.4h-1.9c-0.2,0-0.4-0.2-0.4-0.4V20.6
			h-3.4c-0.2,0-0.4-0.2-0.4-0.4v-1.8c0-0.2,0.2-0.4,0.4-0.4h9.5C34.5,18,34.7,18.2,34.7,18.4z"/>
		<path fill="#3DAFFC" d="M46.6,18.4v1.8c0,0.2-0.2,0.4-0.4,0.4h-3.4V41c0,0.2-0.2,0.4-0.4,0.4h-1.9c-0.2,0-0.4-0.2-0.4-0.4V20.6
			h-3.4c-0.2,0-0.4-0.2-0.4-0.4v-1.8c0-0.2,0.2-0.4,0.4-0.4h9.5C46.5,18,46.6,18.2,46.6,18.4z"/>
		<path fill="#3DAFFC" d="M51.9,20.7v7.2h4.6c0.2,0,0.4,0.2,0.4,0.4V30c0,0.2-0.2,0.4-0.4,0.4h-4.6v8.4h6.6c0.2,0,0.4,0.2,0.4,0.4
			V41c0,0.2-0.2,0.4-0.4,0.4h-9c-0.2,0-0.4-0.2-0.4-0.4V18.4c0-0.2,0.2-0.4,0.4-0.4h9c0.2,0,0.4,0.2,0.4,0.4v1.8
			c0,0.2-0.2,0.4-0.4,0.4H51.9z"/>
		<path fill="#3DAFFC" d="M73.3,18.4V41c0,0.2-0.2,0.4-0.4,0.4h-1.8c-0.2,0-0.5-0.3-0.6-0.4l-6.3-16.3V41c0,0.2-0.1,0.4-0.4,0.4
			h-1.8c-0.2,0-0.4-0.2-0.4-0.4V18.4c0-0.2,0.2-0.4,0.4-0.4h1.8c0.2,0,0.4,0.1,0.4,0.4l6.4,17.3V18.4c0-0.2,0.1-0.4,0.4-0.4h1.8
			C73.1,18,73.3,18.2,73.3,18.4z"/>
		<path fill="#3DAFFC" d="M87.5,35.6c0,3.5-1.8,5.8-5.3,5.8h-5c-0.2,0-0.4-0.2-0.4-0.4V18.4c0-0.2,0.2-0.4,0.4-0.4h5
			c3.8,0,5.4,2.7,5.4,6.3V35.6z M82.3,38.7c1.8,0,2.5-1.2,2.5-2.6V23.7c0-1.5-0.5-3-2.5-3h-2.8v18.1H82.3z"/>
		<path fill="#3DAFFC" d="M93.7,20.7v7.2h4.6c0.2,0,0.4,0.2,0.4,0.4V30c0,0.2-0.2,0.4-0.4,0.4h-4.6v8.4h6.6c0.2,0,0.4,0.2,0.4,0.4
			V41c0,0.2-0.2,0.4-0.4,0.4h-9c-0.2,0-0.4-0.2-0.4-0.4V18.4c0-0.2,0.2-0.4,0.4-0.4h9c0.2,0,0.4,0.2,0.4,0.4v1.8
			c0,0.2-0.2,0.4-0.4,0.4H93.7z"/>
		<path fill="#3DAFFC" d="M114.3,35.6c0,3.5-1.8,5.8-5.3,5.8h-5c-0.2,0-0.4-0.2-0.4-0.4V18.4c0-0.2,0.2-0.4,0.4-0.4h5
			c3.8,0,5.4,2.7,5.4,6.3V35.6z M109,38.7c1.8,0,2.5-1.2,2.5-2.6V23.7c0-1.5-0.5-3-2.5-3h-2.8v18.1H109z"/>
		<path fill="#3DAFFC" d="M117.4,30.7c0-0.2,0.1-0.4,0.4-0.4h2c0.2,0,0.4,0.2,0.4,0.4v1.9c0,0.2-0.2,0.4-0.4,0.4h-2
			c-0.2,0-0.4-0.1-0.4-0.4V30.7z M117.4,39.1c0-0.2,0.1-0.4,0.4-0.4h2c0.2,0,0.4,0.2,0.4,0.4V41c0,0.2-0.2,0.4-0.4,0.4h-2
			c-0.2,0-0.4-0.1-0.4-0.4V39.1z"/>
		<path fill="#3DAFFC" d="M138.7,39.1V41c0,0.2-0.2,0.4-0.4,0.4h-9.8c-0.2,0-0.4-0.2-0.4-0.4c0,0,0-2.1,0-2.3c0-1.6,0.8-4.2,2.1-5.8
			c0.8-0.9,3.2-3.9,3.9-4.6c1.5-1.9,1.9-2.6,1.9-4.3c0-1.8-0.4-3.8-2.6-3.8c-1.2,0-2.6,0.5-2.6,3.8v1.3c0,0.2-0.2,0.4-0.4,0.4h-1.9
			c-0.2,0-0.4-0.2-0.4-0.4v-1.5c0-3.7,1.8-6.2,5.4-6.2c3.3,0,5.1,2.4,5.2,6v0.6c0,2.8-1.3,4.2-2.6,5.8c-2.6,3.1-5.2,5.8-5.2,8.1v0.6
			h7.3C138.5,38.8,138.7,39,138.7,39.1z"/>
		<path fill="#3DAFFC" d="M146,18.4V41c0,0.2-0.2,0.4-0.4,0.4h-1.8c-0.2,0-0.4-0.2-0.4-0.4V22.2h-2.3c-0.2,0-0.4-0.2-0.4-0.4v-1
			c0-0.2,0.2-0.4,0.4-0.4c2.9-1,2.1-2.4,3.3-2.4c0.3,0,1.2,0,1.2,0C145.9,18,146,18.2,146,18.4z"/>
	</g>
</g>
<g>
	<g>
		<path fill="#3DAFFC" d="M23.5,162.5c0,0.6,0,2.2,0,2.2c0,3.2-2.3,5.3-5.3,5.3c-3.2,0-5.5-2.3-5.5-5.8v-2.1c0-0.2,0.1-0.4,0.4-0.4
			h1.9c0.2,0,0.4,0.2,0.4,0.4v2.6c0,2.1,1.3,2.9,2.9,2.9c1.9,0,2.6-1.3,2.6-2.9v-1.9c0-1.4-0.5-2.1-2.3-3.7l-2.8-2.6
			c-1.5-1.4-2.7-3.5-2.7-5.1c0-3.3,1.9-5.5,5.2-5.5c3.2,0,5.3,2.2,5.3,5.6v1.9c0,0.2-0.1,0.3-0.3,0.3h-2c-0.1,0-0.3-0.1-0.3-0.3
			v-2.2c0-2.2-1.1-3-2.6-3c-1.5,0-2.4,1-2.4,3c0,0.5,0.1,1.7,2.1,3.5c0.6,0.6,3.5,3.3,3.5,3.3C23.4,159.9,23.5,161.7,23.5,162.5z"/>
		<path fill="#3DAFFC" d="M37.2,153.2c0,4.2-2.6,6.7-6.4,6.7h-1.7v9.5c0,0.2-0.2,0.4-0.4,0.4h-1.8c-0.2,0-0.4-0.2-0.4-0.4v-22.5
			c0-0.2,0.2-0.4,0.4-0.4h3.9C34.7,146.3,37.2,148.5,37.2,153.2z M34.6,153.1c0-1.8-0.5-4.1-3.6-4.1h-1.8v8.2H31
			C34,157.2,34.6,155.2,34.6,153.1z"/>
		<path fill="#3DAFFC" d="M50.3,151.6v12.9c0,3.3-2.1,5.6-5.3,5.6c-3.2,0-5.3-2.3-5.3-5.6v-12.9c0-3.4,1.8-5.6,5.3-5.6
			C48.4,146,50.3,148.2,50.3,151.6z M47.5,151.6c0-2.2-1-3.1-2.6-3.1c-1.5,0-2.6,0.8-2.6,3.1v12.8c0,2.2,1,3.1,2.6,3.1
			c1.5,0,2.6-0.8,2.6-3.1V151.6z"/>
		<path fill="#3DAFFC" d="M65.3,146.7v22.5c0,0.2-0.2,0.4-0.4,0.4h-1.8c-0.2,0-0.5-0.3-0.6-0.4L56.2,153v16.3c0,0.2-0.1,0.4-0.4,0.4
			h-1.8c-0.2,0-0.4-0.2-0.4-0.4v-22.5c0-0.2,0.2-0.4,0.4-0.4h1.8c0.2,0,0.4,0.1,0.4,0.4l6.4,17.3v-17.2c0-0.2,0.1-0.4,0.4-0.4h1.8
			C65.1,146.3,65.3,146.5,65.3,146.7z"/>
		<path fill="#3DAFFC" d="M79.1,162.5c0,0.6,0,2.2,0,2.2c0,3.2-2.3,5.3-5.3,5.3c-3.2,0-5.5-2.3-5.5-5.8v-2.1c0-0.2,0.1-0.4,0.4-0.4
			h1.9c0.2,0,0.4,0.2,0.4,0.4v2.6c0,2.1,1.3,2.9,2.9,2.9c1.9,0,2.6-1.3,2.6-2.9v-1.9c0-1.4-0.5-2.1-2.3-3.7l-2.8-2.6
			c-1.5-1.4-2.7-3.5-2.7-5.1c0-3.3,1.9-5.5,5.2-5.5c3.2,0,5.3,2.2,5.3,5.6v1.9c0,0.2-0.1,0.3-0.3,0.3h-2c-0.1,0-0.3-0.1-0.3-0.3
			v-2.2c0-2.2-1.1-3-2.6-3c-1.5,0-2.4,1-2.4,3c0,0.5,0.1,1.7,2.1,3.5c0.6,0.6,3.5,3.3,3.5,3.3C78.9,159.9,79.1,161.7,79.1,162.5z"/>
		<path fill="#3DAFFC" d="M92.5,151.6v12.9c0,3.3-2.1,5.6-5.3,5.6c-3.2,0-5.3-2.3-5.3-5.6v-12.9c0-3.4,1.8-5.6,5.3-5.6
			C90.7,146,92.5,148.2,92.5,151.6z M89.8,151.6c0-2.2-1-3.1-2.6-3.1c-1.5,0-2.6,0.8-2.6,3.1v12.8c0,2.2,1,3.1,2.6,3.1
			c1.5,0,2.6-0.8,2.6-3.1V151.6z"/>
		<path fill="#3DAFFC" d="M107.6,167.7v1.7c0,0.2-0.1,0.3-0.4,0.3c-3.1,0-3.5-2.4-3.5-6.2c0-3-0.7-3.9-3.4-3.9h-1.7v9.8
			c0,0.2-0.2,0.4-0.4,0.4h-1.8c-0.2,0-0.4-0.2-0.4-0.4v-22.5c0-0.2,0.2-0.4,0.4-0.4h3.9c3.9,0,6.4,2.1,6.4,6.7c0,2.8-1,4.6-2.8,5.1
			c2.3,0.5,2.4,2.6,2.4,4.4c0,0.2,0,2.1,0,2.3c0,2.3,0.6,2.3,1,2.4C107.4,167.3,107.6,167.4,107.6,167.7z M98.7,156.9h1.8
			c3,0,3.6-1.8,3.6-4c0-1.8-0.5-4-3.6-4h-1.8V156.9z"/>
		<path fill="#3DAFFC" d="M113,149v7.2h4.6c0.2,0,0.4,0.2,0.4,0.4v1.7c0,0.2-0.2,0.4-0.4,0.4H113v8.4h6.6c0.2,0,0.4,0.2,0.4,0.4v1.8
			c0,0.2-0.2,0.4-0.4,0.4h-9c-0.2,0-0.4-0.2-0.4-0.4v-22.5c0-0.2,0.2-0.4,0.4-0.4h9c0.2,0,0.4,0.2,0.4,0.4v1.8
			c0,0.2-0.2,0.4-0.4,0.4H113z"/>
		<path fill="#3DAFFC" d="M133.5,163.9c0,3.5-1.8,5.8-5.3,5.8h-5c-0.2,0-0.4-0.2-0.4-0.4v-22.5c0-0.2,0.2-0.4,0.4-0.4h5
			c3.8,0,5.4,2.7,5.4,6.3V163.9z M128.3,167c1.8,0,2.5-1.2,2.5-2.6V152c0-1.5-0.5-3-2.5-3h-2.8V167H128.3z"/>
		<path fill="#3DAFFC" d="M136.6,159c0-0.2,0.1-0.4,0.4-0.4h2c0.2,0,0.4,0.2,0.4,0.4v1.9c0,0.2-0.2,0.4-0.4,0.4h-2
			c-0.2,0-0.4-0.1-0.4-0.4V159z M136.6,167.4c0-0.2,0.1-0.4,0.4-0.4h2c0.2,0,0.4,0.2,0.4,0.4v1.9c0,0.2-0.2,0.4-0.4,0.4h-2
			c-0.2,0-0.4-0.1-0.4-0.4V167.4z"/>
		<path fill="#3DAFFC" d="M158.2,151.6v12.9c0,3.3-2.1,5.6-5.2,5.6c-3,0-5.2-2.3-5.2-5.6v-12.9c0-3.4,1.9-5.6,5.2-5.6
			C156.3,146,158.2,148.2,158.2,151.6z M155.5,151.7c0-2.2-1-3.1-2.5-3.1c-1.4,0-2.4,0.9-2.4,3.1v12.7c0,2.2,1,3.1,2.4,3.1
			c1.5,0,2.5-0.9,2.5-3.1V151.7z"/>
		<path fill="#3DAFFC" d="M173,162.8v1.5c0,0.2-0.2,0.4-0.4,0.4h-1.8v4.5c0,0.2-0.2,0.4-0.4,0.4h-1.7c-0.2,0-0.4-0.2-0.4-0.4v-4.5
			h-7.2c-0.2,0-0.4-0.2-0.4-0.4c0,0,0-0.7,0-1.3c0-0.6,0-0.8,0.3-1.5c0.3-0.7,5.8-14.9,5.8-14.9c0.1-0.2,0.3-0.4,0.5-0.4h3.1
			c0.2,0,0.4,0.2,0.4,0.4v15.7h1.8C172.9,162.4,173,162.6,173,162.8z M163.3,162.4h5.2v-13.5L163.3,162.4z"/>
	</g>
</g>
<g>
	<g>
		<path fill="#3DAFFC" d="M23.5,97.6c0,0.6,0,2.2,0,2.2c0,3.2-2.3,5.3-5.3,5.3c-3.2,0-5.5-2.3-5.5-5.8v-2.1c0-0.2,0.1-0.4,0.4-0.4
			h1.9c0.2,0,0.4,0.2,0.4,0.4v2.6c0,2.1,1.3,2.9,2.9,2.9c1.9,0,2.6-1.3,2.6-2.9v-1.9c0-1.4-0.5-2.1-2.3-3.7l-2.8-2.6
			c-1.5-1.4-2.7-3.5-2.7-5.1c0-3.3,1.9-5.5,5.2-5.5c3.2,0,5.3,2.2,5.3,5.6v1.9c0,0.2-0.1,0.3-0.3,0.3h-2c-0.1,0-0.3-0.1-0.3-0.3
			v-2.2c0-2.2-1.1-3-2.6-3c-1.5,0-2.4,1-2.4,3c0,0.5,0.1,1.7,2.1,3.5c0.6,0.6,3.5,3.3,3.5,3.3C23.4,94.9,23.5,96.7,23.5,97.6z"/>
		<path fill="#3DAFFC" d="M37.2,88.2c0,4.2-2.6,6.7-6.4,6.7h-1.7v9.5c0,0.2-0.2,0.4-0.4,0.4h-1.8c-0.2,0-0.4-0.2-0.4-0.4V81.7
			c0-0.2,0.2-0.4,0.4-0.4h3.9C34.7,81.4,37.2,83.5,37.2,88.2z M34.6,88.1c0-1.8-0.5-4.1-3.6-4.1h-1.8v8.2H31
			C34,92.2,34.6,90.2,34.6,88.1z"/>
		<path fill="#3DAFFC" d="M50.3,86.6v12.9c0,3.3-2.1,5.6-5.3,5.6c-3.2,0-5.3-2.3-5.3-5.6V86.6c0-3.4,1.8-5.6,5.3-5.6
			C48.4,81,50.3,83.2,50.3,86.6z M47.5,86.6c0-2.2-1-3.1-2.6-3.1c-1.5,0-2.6,0.8-2.6,3.1v12.8c0,2.2,1,3.1,2.6,3.1
			c1.5,0,2.6-0.8,2.6-3.1V86.6z"/>
		<path fill="#3DAFFC" d="M65,104.7h-1.7c-0.3,0-0.5-0.2-0.6-0.4l-3.9-11l-2.3,5.1v6c0,0.2-0.2,0.4-0.4,0.4h-1.9
			c-0.2,0-0.4-0.2-0.4-0.4V81.8c0-0.2,0.2-0.4,0.4-0.4h1.9c0.2,0,0.4,0.3,0.4,0.4v11.4l5-11.4c0.1-0.2,0.2-0.5,0.5-0.5h2.1
			c0.3,0,0.4,0.1,0.3,0.5l-4,8.7l4.9,13.6C65.4,104.4,65.3,104.6,65,104.7z"/>
		<path fill="#3DAFFC" d="M70.4,84v7.2H75c0.2,0,0.4,0.2,0.4,0.4v1.7c0,0.2-0.2,0.4-0.4,0.4h-4.6v8.4H77c0.2,0,0.4,0.2,0.4,0.4v1.8
			c0,0.2-0.2,0.4-0.4,0.4h-9c-0.2,0-0.4-0.2-0.4-0.4V81.7c0-0.2,0.2-0.4,0.4-0.4h9c0.2,0,0.4,0.2,0.4,0.4v1.8c0,0.2-0.2,0.4-0.4,0.4
			H70.4z"/>
		<path fill="#3DAFFC" d="M96.9,104.3c0,0.2-0.2,0.4-0.4,0.4h-2c-0.2,0-0.4-0.1-0.4-0.4l-0.7-4.5h-5.3l-0.7,4.5
			c-0.1,0.3-0.2,0.4-0.4,0.4h-2c-0.2,0-0.4-0.2-0.4-0.4l4.2-22.5c0.1-0.2,0.2-0.4,0.4-0.4h3c0.2,0,0.3,0.2,0.4,0.4L96.9,104.3z
			 M92.9,97.3l-2.2-13l-2.2,13H92.9z"/>
		<path fill="#3DAFFC" d="M107.1,81.7v1.8c0,0.2-0.2,0.4-0.4,0.4h-3.4v20.3c0,0.2-0.2,0.4-0.4,0.4H101c-0.2,0-0.4-0.2-0.4-0.4V83.9
			h-3.4c-0.2,0-0.4-0.2-0.4-0.4v-1.8c0-0.2,0.2-0.4,0.4-0.4h9.5C106.9,81.4,107.1,81.5,107.1,81.7z"/>
		<path fill="#3DAFFC" d="M109.3,94c0-0.2,0.1-0.4,0.4-0.4h2c0.2,0,0.4,0.2,0.4,0.4v1.9c0,0.2-0.2,0.4-0.4,0.4h-2
			c-0.2,0-0.4-0.1-0.4-0.4V94z M109.3,102.4c0-0.2,0.1-0.4,0.4-0.4h2c0.2,0,0.4,0.2,0.4,0.4v1.9c0,0.2-0.2,0.4-0.4,0.4h-2
			c-0.2,0-0.4-0.1-0.4-0.4V102.4z"/>
		<path fill="#3DAFFC" d="M124.9,81.7v22.5c0,0.2-0.2,0.4-0.4,0.4h-1.8c-0.2,0-0.4-0.2-0.4-0.4V85.5h-2.3c-0.2,0-0.4-0.2-0.4-0.4v-1
			c0-0.2,0.2-0.4,0.4-0.4c2.9-1,2.1-2.4,3.3-2.4c0.3,0,1.2,0,1.2,0C124.7,81.4,124.9,81.5,124.9,81.7z"/>
		<path fill="#3DAFFC" d="M138.6,98.9c0,3.9-1.8,6.2-5.4,6.2c-3.3,0-5.3-2.3-5.3-5.7v-2.2c0-0.2,0.1-0.4,0.4-0.4h1.9
			c0.2,0,0.4,0.2,0.4,0.4v2.4c0,1.5,0.8,3.1,2.7,3.1c2.5,0,2.6-2.1,2.6-3.6v-2.4c0-2.2-2.8-2.8-3.5-2.8c-0.4,0-0.4-0.2-0.4-0.4v-1.7
			c0-0.1,0.1-0.3,0.3-0.4c0,0,3.6-1.1,3.6-3.6v-0.9c0-2.2-0.8-3.3-2.7-3.3c-1.9,0-2.6,1.3-2.6,2.9v2c0,0.2-0.2,0.4-0.4,0.4h-2
			c-0.2,0-0.4-0.2-0.4-0.4v-1.9c0-3.4,2.1-5.6,5.4-5.6c3.5,0,5.2,2.4,5.2,5.8c0,0,0,0.2,0,0.6c0,3-2.6,5-3.6,5c0,0,3.6,0.6,3.6,4.9
			V98.9z"/>
	</g>
</g>
<line fill="none" stroke="#3DAFFC" stroke-linecap="round" stroke-linejoin="round" stroke-miterlimit="10" stroke-dasharray="1,6" x1="0.5" y1="60.2" x2="280.8" y2="60.2"/>
<line fill="none" stroke="#3DAFFC" stroke-linecap="round" stroke-linejoin="round" stroke-miterlimit="10" stroke-dasharray="1,6" x1="0.5" y1="127.6" x2="280.8" y2="127.6"/>
<g>
	
		<rect x="211.4" y="142" fill="none" stroke="#3DAFFC" stroke-width="2" stroke-linecap="round" stroke-linejoin="round" stroke-miterlimit="10" width="58" height="32"/>
	<path fill="none" stroke="#3DAFFC" stroke-width="2" stroke-linecap="round" stroke-linejoin="round" stroke-miterlimit="10" d="
		M265.4,166v-16c-2.2,0-4-1.8-4-4h-42c0,2.2-1.8,4-4,4v16c2.2,0,4,1.8,4,4h42C261.4,167.8,263.2,166,265.4,166z"/>
	
		<ellipse fill="none" stroke="#3DAFFC" stroke-width="2" stroke-linecap="round" stroke-linejoin="round" stroke-miterlimit="10" cx="240.4" cy="158" rx="9" ry="12"/>
	
		<circle fill="none" stroke="#3DAFFC" stroke-width="2" stroke-linecap="round" stroke-linejoin="round" stroke-miterlimit="10" cx="257.4" cy="158" r="2"/>
	
		<circle fill="none" stroke="#3DAFFC" stroke-width="2" stroke-linecap="round" stroke-linejoin="round" stroke-miterlimit="10" cx="223.4" cy="158" r="2"/>
	<path fill="none" stroke="#3DAFFC" stroke-width="2" stroke-linecap="round" stroke-linejoin="round" stroke-miterlimit="10" d="
		M246.9,166.3c-0.9-0.8-2.2-1.8-3.9-2.1c-0.3,0-0.4-0.3-0.4-0.5c0-0.3,0-0.6,0-0.9c0-0.7,0.9-1.6,0.9-2.6c0.3-0.6,0.5-1.2,0.5-1.6
		c0-0.3-0.1-0.5-0.2-0.6c0.1-0.4,0.1-0.8,0.2-1.2c0.3-1.6-0.3-2.8-1.7-3.3c-0.5-0.2-2.7-0.6-3.5-1.3c-0.3-0.3-0.1,1.3-0.4,1.4
		c-1.4,0.6-2,1.6-1.7,3.2c0.1,0.4,0.1,0.8,0.2,1.2c-0.1,0.1-0.2,0.3-0.2,0.6c0,0.5,0.2,1,0.5,1.6c0,1,0.9,1.8,0.9,2.6
		c0,0.3,0,0.6,0,0.9c0,0.3-0.2,0.5-0.4,0.5c-1.6,0.3-3,1.3-3.9,2.1c1.6,2.3,4,3.8,6.5,3.8C243,170,245.3,168.6,246.9,166.3z"/>
</g>
<g>
	<path fill="none" stroke="#3DAFFC" stroke-width="2" stroke-linecap="round" stroke-linejoin="round" stroke-miterlimit="10" d="
		M257.4,11.3h-15.5v3.4c0,0.9-0.8,1.7-1.7,1.7h-5.2c-0.9,0-1.7-0.8-1.7-1.7v-3.4h-15.5c-1.9,0-3.4,1.5-3.4,3.4v25.8
		c0,1.9,1.5,3.4,3.4,3.4h39.6c1.9,0,3.4-1.5,3.4-3.4V14.8C260.9,12.9,259.3,11.3,257.4,11.3z"/>
	
		<line fill="none" stroke="#3DAFFC" stroke-width="2" stroke-linecap="round" stroke-linejoin="round" stroke-miterlimit="10" x1="241.9" y1="35.4" x2="255.7" y2="35.4"/>
	
		<line fill="none" stroke="#3DAFFC" stroke-width="2" stroke-linecap="round" stroke-linejoin="round" stroke-miterlimit="10" x1="241.9" y1="32" x2="244.5" y2="32"/>
	
		<line fill="none" stroke="#3DAFFC" stroke-width="2" stroke-linecap="round" stroke-linejoin="round" stroke-miterlimit="10" x1="248" y1="32" x2="251.4" y2="32"/>
	
		<line fill="none" stroke="#3DAFFC" stroke-width="2" stroke-linecap="round" stroke-linejoin="round" stroke-miterlimit="10" x1="241.9" y1="25.1" x2="255.7" y2="25.1"/>
	
		<line fill="none" stroke="#3DAFFC" stroke-width="2" stroke-linecap="round" stroke-linejoin="round" stroke-miterlimit="10" x1="241.9" y1="21.6" x2="249.7" y2="21.6"/>
	<path fill="none" stroke="#3DAFFC" stroke-width="2" stroke-linecap="round" stroke-linejoin="round" stroke-miterlimit="10" d="
		M233.2,37.1c1.6,0,2.3-2,1.1-3c0,0,0,0,0,0c-0.7-0.5-2.4-1.4-4.1-1.7c-0.3,0-0.5-0.3-0.5-0.5c0-0.3,0-0.6,0-0.9
		c0-0.7,0.9-1.6,0.9-2.6c0.3-0.6,0.5-1.2,0.5-1.7c0-0.3-0.1-0.5-0.2-0.6c0.1-0.4,0.1-0.8,0.2-1.2c0.3-1.7-0.3-2.9-1.8-3.4
		c-0.5-0.2-2.7-0.6-3.6-1.4c-0.3-0.3-0.1,1.3-0.4,1.5c-1.4,0.6-2,1.7-1.7,3.3c0.1,0.4,0.1,0.8,0.2,1.2c-0.1,0.1-0.2,0.3-0.2,0.6
		c0,0.5,0.2,1.1,0.5,1.7c0,1,0.9,1.9,0.9,2.6c0,0.3,0,0.6,0,0.9c0,0.3-0.2,0.5-0.5,0.5c-1.8,0.3-3.2,1.1-4.1,1.7l0,0
		c-1.4,0.9-0.8,3,0.9,3H233.2z"/>
	<path fill="none" stroke="#3DAFFC" stroke-width="2" stroke-linecap="round" stroke-linejoin="round" stroke-miterlimit="10" d="
		M240.2,16.5h-5.2c-0.9,0-1.7-0.8-1.7-1.7v-12c0-0.9,0.8-1.7,1.7-1.7h5.2c0.9,0,1.7,0.8,1.7,1.7v12
		C241.9,15.7,241.2,16.5,240.2,16.5z"/>
	
		<circle fill="none" stroke="#3DAFFC" stroke-width="2" stroke-linecap="round" stroke-linejoin="round" stroke-miterlimit="10" cx="237.6" cy="6.2" r="1.7"/>
</g>
</svg>
