<?xml version="1.0" encoding="utf-8"?>
<!-- Generator: Adobe Illustrator 17.1.0, SVG Export Plug-In . SVG Version: 6.00 Build 0)  -->
<!DOCTYPE svg PUBLIC "-//W3C//DTD SVG 1.1//EN" "http://www.w3.org/Graphics/SVG/1.1/DTD/svg11.dtd">
<svg version="1.1" id="Layer_1" xmlns="http://www.w3.org/2000/svg" xmlns:xlink="http://www.w3.org/1999/xlink" x="0px" y="0px"
	 viewBox="0 0 281.3 178.5" enable-background="new 0 0 281.3 178.5" xml:space="preserve">
<g>
	
		<circle fill="none" stroke="#3DAFFC" stroke-width="2" stroke-linecap="round" stroke-linejoin="round" stroke-miterlimit="10" cx="251.9" cy="82.4" r="10.1"/>
	<path fill="none" stroke="#3DAFFC" stroke-width="2" stroke-linecap="round" stroke-linejoin="round" stroke-miterlimit="10" d="
		M244.1,75.9c0.3,7.8,6.5,14,14.3,14.3"/>
	<path fill="none" stroke="#3DAFFC" stroke-width="2" stroke-linecap="round" stroke-linejoin="round" stroke-miterlimit="10" d="
		M246.5,73.8c0.4,7.5,6.4,13.6,14,14"/>
	
		<line fill="none" stroke="#3DAFFC" stroke-width="2" stroke-linecap="round" stroke-linejoin="round" stroke-miterlimit="10" x1="225.8" y1="108.5" x2="219.9" y2="114.4"/>
	
		<line fill="none" stroke="#3DAFFC" stroke-width="2" stroke-linecap="round" stroke-linejoin="round" stroke-miterlimit="10" x1="240.2" y1="94.1" x2="239.4" y2="94.9"/>
	<path fill="none" stroke="#3DAFFC" stroke-width="2" stroke-linecap="round" stroke-linejoin="round" stroke-miterlimit="10" d="
		M242,84.6l-17.5,20.6c-0.5,0.6-0.5,1.5,0.1,2.1l2.4,2.4c0.6,0.6,1.5,0.6,2.1,0.1l20.6-17.5C245.9,91.4,242.8,88.4,242,84.6z"/>
</g>
<g>
	<rect x="11.4" y="17.5" fill="none" width="151.2" height="24.1"/>
	<text transform="matrix(1 0 0 1 11.4408 41.3659)" fill="#3DAFFC" font-family="'Interborough'" font-size="36">Attended: 21</text>
</g>
<g>
	<rect x="11.4" y="145.8" fill="none" width="215.7" height="24.4"/>
	<text transform="matrix(1 0 0 1 11.4408 169.6731)" fill="#3DAFFC" font-family="'Interborough'" font-size="36">SPONSORED: 04</text>
</g>
<g>
	<rect x="11.4" y="80.8" fill="none" width="189.2" height="24.9"/>
	<text transform="matrix(1 0 0 1 11.4408 104.6784)" fill="#3DAFFC" font-family="'Interborough'" font-size="36">SPOKE AT: 13</text>
</g>
<line fill="none" stroke="#3DAFFC" stroke-linecap="round" stroke-linejoin="round" stroke-miterlimit="10" stroke-dasharray="1,6" x1="0.5" y1="60.2" x2="280.8" y2="60.2"/>
<line fill="none" stroke="#3DAFFC" stroke-linecap="round" stroke-linejoin="round" stroke-miterlimit="10" stroke-dasharray="1,6" x1="0.5" y1="127.6" x2="280.8" y2="127.6"/>
<g>
	
		<rect x="211.4" y="142" fill="none" stroke="#3DAFFC" stroke-width="2" stroke-linecap="round" stroke-linejoin="round" stroke-miterlimit="10" width="58" height="32"/>
	<path fill="none" stroke="#3DAFFC" stroke-width="2" stroke-linecap="round" stroke-linejoin="round" stroke-miterlimit="10" d="
		M265.4,166v-16c-2.2,0-4-1.8-4-4h-42c0,2.2-1.8,4-4,4v16c2.2,0,4,1.8,4,4h42C261.4,167.8,263.2,166,265.4,166z"/>
	
		<ellipse fill="none" stroke="#3DAFFC" stroke-width="2" stroke-linecap="round" stroke-linejoin="round" stroke-miterlimit="10" cx="240.4" cy="158" rx="9" ry="12"/>
	
		<circle fill="none" stroke="#3DAFFC" stroke-width="2" stroke-linecap="round" stroke-linejoin="round" stroke-miterlimit="10" cx="257.4" cy="158" r="2"/>
	
		<circle fill="none" stroke="#3DAFFC" stroke-width="2" stroke-linecap="round" stroke-linejoin="round" stroke-miterlimit="10" cx="223.4" cy="158" r="2"/>
	<path fill="none" stroke="#3DAFFC" stroke-width="2" stroke-linecap="round" stroke-linejoin="round" stroke-miterlimit="10" d="
		M246.9,166.3c-0.9-0.8-2.2-1.8-3.9-2.1c-0.3,0-0.4-0.3-0.4-0.5c0-0.3,0-0.6,0-0.9c0-0.7,0.9-1.6,0.9-2.6c0.3-0.6,0.5-1.2,0.5-1.6
		c0-0.3-0.1-0.5-0.2-0.6c0.1-0.4,0.1-0.8,0.2-1.2c0.3-1.6-0.3-2.8-1.7-3.3c-0.5-0.2-2.7-0.6-3.5-1.3c-0.3-0.3-0.1,1.3-0.4,1.4
		c-1.4,0.6-2,1.6-1.7,3.2c0.1,0.4,0.1,0.8,0.2,1.2c-0.1,0.1-0.2,0.3-0.2,0.6c0,0.5,0.2,1,0.5,1.6c0,1,0.9,1.8,0.9,2.6
		c0,0.3,0,0.6,0,0.9c0,0.3-0.2,0.5-0.4,0.5c-1.6,0.3-3,1.3-3.9,2.1c1.6,2.3,4,3.8,6.5,3.8C243,170,245.3,168.6,246.9,166.3z"/>
</g>
<g>
	<path fill="none" stroke="#3DAFFC" stroke-width="2" stroke-linecap="round" stroke-linejoin="round" stroke-miterlimit="10" d="
		M257.4,11.3h-15.5v3.4c0,0.9-0.8,1.7-1.7,1.7h-5.2c-0.9,0-1.7-0.8-1.7-1.7v-3.4h-15.5c-1.9,0-3.4,1.5-3.4,3.4v25.8
		c0,1.9,1.5,3.4,3.4,3.4h39.6c1.9,0,3.4-1.5,3.4-3.4V14.8C260.9,12.9,259.3,11.3,257.4,11.3z"/>
	
		<line fill="none" stroke="#3DAFFC" stroke-width="2" stroke-linecap="round" stroke-linejoin="round" stroke-miterlimit="10" x1="241.9" y1="35.4" x2="255.7" y2="35.4"/>
	
		<line fill="none" stroke="#3DAFFC" stroke-width="2" stroke-linecap="round" stroke-linejoin="round" stroke-miterlimit="10" x1="241.9" y1="32" x2="244.5" y2="32"/>
	
		<line fill="none" stroke="#3DAFFC" stroke-width="2" stroke-linecap="round" stroke-linejoin="round" stroke-miterlimit="10" x1="248" y1="32" x2="251.4" y2="32"/>
	
		<line fill="none" stroke="#3DAFFC" stroke-width="2" stroke-linecap="round" stroke-linejoin="round" stroke-miterlimit="10" x1="241.9" y1="25.1" x2="255.7" y2="25.1"/>
	
		<line fill="none" stroke="#3DAFFC" stroke-width="2" stroke-linecap="round" stroke-linejoin="round" stroke-miterlimit="10" x1="241.9" y1="21.6" x2="249.7" y2="21.6"/>
	<path fill="none" stroke="#3DAFFC" stroke-width="2" stroke-linecap="round" stroke-linejoin="round" stroke-miterlimit="10" d="
		M233.2,37.1c1.6,0,2.3-2,1.1-3c0,0,0,0,0,0c-0.7-0.5-2.4-1.4-4.1-1.7c-0.3,0-0.5-0.3-0.5-0.5c0-0.3,0-0.6,0-0.9
		c0-0.7,0.9-1.6,0.9-2.6c0.3-0.6,0.5-1.2,0.5-1.7c0-0.3-0.1-0.5-0.2-0.6c0.1-0.4,0.1-0.8,0.2-1.2c0.3-1.7-0.3-2.9-1.8-3.4
		c-0.5-0.2-2.7-0.6-3.6-1.4c-0.3-0.3-0.1,1.3-0.4,1.5c-1.4,0.6-2,1.7-1.7,3.3c0.1,0.4,0.1,0.8,0.2,1.2c-0.1,0.1-0.2,0.3-0.2,0.6
		c0,0.5,0.2,1.1,0.5,1.7c0,1,0.9,1.9,0.9,2.6c0,0.3,0,0.6,0,0.9c0,0.3-0.2,0.5-0.5,0.5c-1.8,0.3-3.2,1.1-4.1,1.7l0,0
		c-1.4,0.9-0.8,3,0.9,3H233.2z"/>
	<path fill="none" stroke="#3DAFFC" stroke-width="2" stroke-linecap="round" stroke-linejoin="round" stroke-miterlimit="10" d="
		M240.2,16.5h-5.2c-0.9,0-1.7-0.8-1.7-1.7v-12c0-0.9,0.8-1.7,1.7-1.7h5.2c0.9,0,1.7,0.8,1.7,1.7v12
		C241.9,15.7,241.2,16.5,240.2,16.5z"/>
	
		<circle fill="none" stroke="#3DAFFC" stroke-width="2" stroke-linecap="round" stroke-linejoin="round" stroke-miterlimit="10" cx="237.6" cy="6.2" r="1.7"/>
</g>
</svg>
