<?xml version="1.0" encoding="utf-8"?>
<!-- Generator: Adobe Illustrator 17.1.0, SVG Export Plug-In . SVG Version: 6.00 Build 0)  -->
<!DOCTYPE svg PUBLIC "-//W3C//DTD SVG 1.1//EN" "http://www.w3.org/Graphics/SVG/1.1/DTD/svg11.dtd">
<svg version="1.1" id="Layer_1" xmlns="http://www.w3.org/2000/svg" xmlns:xlink="http://www.w3.org/1999/xlink" x="0px" y="0px"
	 viewBox="0 0 282 91.1" enable-background="new 0 0 282 91.1" xml:space="preserve">
<g>
	<g>
		<path fill="#3DAFFC" d="M277.5,2c1.4,0,2.5,1.1,2.5,2.5v71.8c0,1.4-1.1,2.5-2.5,2.5H158.7c-3,0-7,1.7-9.2,3.8l-5.6,5.6
			c-0.5,0.5-1.1,0.7-1.8,0.7c-0.7,0-1.3-0.3-1.8-0.7l-5.6-5.6c-2.1-2.1-6.2-3.8-9.2-3.8H4.5c-1.4,0-2.5-1.1-2.5-2.5V4.5
			C2,3.1,3.1,2,4.5,2H277.5 M277.5,0H4.5C2,0,0,2,0,4.5v71.8c0,2.5,2,4.5,4.5,4.5h121c2.5,0,6,1.4,7.8,3.2l5.6,5.6
			c0.9,0.9,2.1,1.3,3.2,1.3c1.2,0,2.3-0.4,3.2-1.3l5.6-5.6c1.8-1.8,5.3-3.2,7.8-3.2h118.8c2.5,0,4.5-2,4.5-4.5V4.5
			C282,2,280,0,277.5,0L277.5,0z"/>
	</g>
</g>
<g>
	<g>
		<path fill="#3DAFFC" d="M82,40.1l-1.6,2c-0.7-0.9-1.8-1.5-2.8-1.5c-1.8,0-3.1,1.4-3.1,3.2c0,1.9,1.3,3.3,3.1,3.3
			c0.9,0,2-0.5,2.8-1.3l1.7,1.8c-1.2,1.2-3,2-4.6,2c-3.4,0-5.9-2.5-5.9-5.8c0-3.2,2.6-5.7,6-5.7C79.1,38.2,80.8,39,82,40.1z"/>
		<path fill="#3DAFFC" d="M96.1,43.9c0,3.3-2.6,5.7-6.1,5.7c-3.5,0-6.1-2.5-6.1-5.7c0-3.3,2.6-5.7,6.1-5.7
			C93.5,38.2,96.1,40.7,96.1,43.9z M86.8,43.9c0,1.9,1.5,3.3,3.2,3.3c1.7,0,3.1-1.5,3.1-3.3c0-1.9-1.4-3.3-3.1-3.3
			C88.3,40.6,86.8,42,86.8,43.9z"/>
		<path fill="#3DAFFC" d="M107,49.5l-5.2-6.9v6.9h-2.7V38.3h2.5l5.2,6.9v-6.9h2.7v11.2H107z"/>
		<path fill="#3DAFFC" d="M116.2,40.6v2.6h5v2.2h-5v4.1h-2.8V38.3h8.3v2.2H116.2z"/>
		<path fill="#3DAFFC" d="M127.4,40.6v2.2h5.3V45h-5.3v2.3h6.1v2.2h-8.9V38.3h8.8v2.2H127.4z"/>
		<path fill="#3DAFFC" d="M142.1,46.4L142.1,46.4h-2.2v3.2H137V38.3h5c3,0,4.7,1.4,4.7,3.9c0,1.7-0.7,2.9-2,3.6l2.4,3.7h-3.2
			L142.1,46.4z M142,44.1c1.2,0,2-0.6,2-1.8c0-1.2-0.7-1.8-2-1.8h-2.2v3.6H142z"/>
		<path fill="#3DAFFC" d="M153,40.6v2.2h5.3V45H153v2.3h6.1v2.2h-8.9V38.3h8.8v2.2H153z"/>
		<path fill="#3DAFFC" d="M170.4,49.5l-5.2-6.9v6.9h-2.7V38.3h2.5l5.2,6.9v-6.9h2.7v11.2H170.4z"/>
		<path fill="#3DAFFC" d="M186.5,40.1l-1.6,2c-0.7-0.9-1.8-1.5-2.8-1.5c-1.8,0-3.1,1.4-3.1,3.2c0,1.9,1.3,3.3,3.1,3.3
			c0.9,0,2-0.5,2.8-1.3l1.7,1.8c-1.2,1.2-3,2-4.6,2c-3.4,0-5.9-2.5-5.9-5.8c0-3.2,2.6-5.7,6-5.7C183.6,38.2,185.4,39,186.5,40.1z"/>
		<path fill="#3DAFFC" d="M192.2,40.6v2.2h5.3V45h-5.3v2.3h6.1v2.2h-8.9V38.3h8.8v2.2H192.2z"/>
		<path fill="#3DAFFC" d="M210.5,39.5l-1.1,2.2c-1.2-0.7-2.7-1.2-3.6-1.2c-0.7,0-1.2,0.3-1.2,0.8c0,1.9,5.9,0.8,5.9,4.9
			c0,2.2-2,3.4-4.5,3.4c-1.9,0-3.8-0.7-5.1-1.8l1.1-2.2c1.2,1,2.9,1.7,4,1.7c0.9,0,1.5-0.3,1.5-1c0-2-5.9-0.8-5.9-4.8
			c0-2.1,1.8-3.4,4.5-3.4C207.7,38.2,209.3,38.7,210.5,39.5z"/>
	</g>
</g>
</svg>
