<?xml version="1.0" encoding="utf-8"?>
<!-- Generator: Adobe Illustrator 17.1.0, SVG Export Plug-In . SVG Version: 6.00 Build 0)  -->
<!DOCTYPE svg PUBLIC "-//W3C//DTD SVG 1.1//EN" "http://www.w3.org/Graphics/SVG/1.1/DTD/svg11.dtd">
<svg version="1.1" id="Layer_1" xmlns="http://www.w3.org/2000/svg" xmlns:xlink="http://www.w3.org/1999/xlink" x="0px" y="0px"
	 viewBox="1043.8 231.6 856.2 403.3" enable-background="new 1043.8 231.6 856.2 403.3" xml:space="preserve">
<g>
	<g>
		<path fill="#353535" d="M1289,546.5c0-2.5-2-4.5-4.5-4.5h-171.2c-2.5,0-4.5,2-4.5,4.5v42.9c0,2.5,2,4.5,4.5,4.5h68.1
			c2.5,0,6,1.4,7.8,3.2l5.6,5.6c1.8,1.8,4.7,1.8,6.4,0l5.6-5.6c1.8-1.8,5.3-3.2,7.8-3.2h70c2.5,0,4.5-2,4.5-4.5V546.5z"/>
	</g>
</g>
<g>
	<rect x="1108.6" y="559.7" fill="none" width="179.3" height="26.8"/>
	<text transform="matrix(1 0 0 1 1167.8843 574.4676)" fill="#FFFFFF" font-family="'BentonSans-CondensedRegular'" font-size="20">LaCroix</text>
</g>
<g>
	<g>
		<path fill="#353535" d="M1697,236.2c0-2.5-2-4.5-4.5-4.5h-171.2c-2.5,0-4.5,2-4.5,4.5v42.9c0,2.5,2,4.5,4.5,4.5h68.1
			c2.5,0,6,1.4,7.8,3.2l5.6,5.6c1.8,1.8,4.7,1.8,6.4,0l5.6-5.6c1.8-1.8,5.3-3.2,7.8-3.2h70c2.5,0,4.5-2,4.5-4.5V236.2z"/>
	</g>
</g>
<g>
	<rect x="1516.6" y="249.3" fill="none" width="179.3" height="26.8"/>
	<text transform="matrix(1 0 0 1 1547.0249 264.1353)" fill="#FFFFFF" font-family="'BentonSans-CondensedRegular'" font-size="20">Post-it® Notes</text>
</g>
<g>
	<g>
		<path fill="#353535" d="M1491.6,436.5c0-2.5-2-4.5-4.5-4.5h-171.2c-2.5,0-4.5,2-4.5,4.5v42.9c0,2.5,2,4.5,4.5,4.5h68.1
			c2.5,0,6,1.4,7.8,3.2l5.6,5.6c1.8,1.8,4.7,1.8,6.4,0l5.6-5.6c1.8-1.8,5.3-3.2,7.8-3.2h70c2.5,0,4.5-2,4.5-4.5V436.5z"/>
	</g>
</g>
<g>
	<rect x="1311.1" y="449.7" fill="none" width="179.3" height="26.8"/>
	<text transform="matrix(1 0 0 1 1365.7549 464.4644)" fill="#FFFFFF" font-family="'BentonSans-CondensedRegular'" font-size="20">Almonds</text>
</g>
<g>
	<g>
		<path fill="#353535" d="M1900,520.3c0-2.5-2-4.5-4.5-4.5h-171.2c-2.5,0-4.5,2-4.5,4.5v42.9c0,2.5,2,4.5,4.5,4.5h68.1
			c2.5,0,6,1.4,7.8,3.2l5.6,5.6c1.8,1.8,4.7,1.8,6.4,0l5.6-5.6c1.8-1.8,5.3-3.2,7.8-3.2h70c2.5,0,4.5-2,4.5-4.5V520.3z"/>
	</g>
</g>
<g>
	<rect x="1719.6" y="533.5" fill="none" width="179.3" height="26.8"/>
	<text transform="matrix(1 0 0 1 1772.9341 548.2979)" fill="#FFFFFF" font-family="'BentonSans-CondensedRegular'" font-size="20">Espresso</text>
</g>
</svg>
