<?xml version="1.0" encoding="utf-8"?>
<!-- Generator: Adobe Illustrator 17.1.0, SVG Export Plug-In . SVG Version: 6.00 Build 0)  -->
<!DOCTYPE svg PUBLIC "-//W3C//DTD SVG 1.1//EN" "http://www.w3.org/Graphics/SVG/1.1/DTD/svg11.dtd">
<svg version="1.1" id="Layer_1" xmlns="http://www.w3.org/2000/svg" xmlns:xlink="http://www.w3.org/1999/xlink" x="0px" y="0px"
	 viewBox="0 0 856.2 403.3" enable-background="new 0 0 856.2 403.3" xml:space="preserve">
<g>
	<g>
		<path fill="#353535" d="M245.2,231.3c0-2.5-2-4.5-4.5-4.5H69.5c-2.5,0-4.5,2-4.5,4.5v42.9c0,2.5,2,4.5,4.5,4.5h68.1
			c2.5,0,6,1.4,7.8,3.2l5.6,5.6c1.8,1.8,4.7,1.8,6.4,0l5.6-5.6c1.8-1.8,5.3-3.2,7.8-3.2h70c2.5,0,4.5-2,4.5-4.5V231.3z"/>
	</g>
</g>
<g>
	<g>
		<path fill="#FFFFFF" d="M125.6,244.4h1.7v13.3h5.9v1.5h-7.5V244.4z"/>
		<path fill="#FFFFFF" d="M134.5,256.7c0-2.1,1.8-3.6,5.9-4.5v-0.6c0-1.2-0.5-1.8-1.6-1.8c-1.3,0-2.3,0.6-3.1,1.4l-0.9-1
			c1.1-1.1,2.5-1.9,4.2-1.9c2.1,0,3,1.1,3,3.2v5c0,1.3,0.1,2.1,0.3,2.6h-1.6c-0.1-0.4-0.2-0.8-0.2-1.4c-0.9,0.9-2,1.5-3.4,1.5
			C135.4,259.4,134.5,258.4,134.5,256.7z M140.4,256.7v-3.2c-3.3,0.7-4.3,1.8-4.3,3.1c0,1.1,0.6,1.5,1.5,1.5
			C138.6,258.1,139.6,257.5,140.4,256.7z"/>
		<path fill="#FFFFFF" d="M144.1,251.8c0-4.9,2.1-7.6,5.3-7.6c2.8,0,4.1,1.9,4.6,4.7l-1.6,0.3c-0.5-2.2-1.3-3.4-3.1-3.4
			c-2.3,0-3.6,2.3-3.6,6.1c0,4,1.3,6.2,3.6,6.2c1.7,0,2.7-1.1,3.2-3.6l1.5,0.3c-0.6,2.8-2,4.8-4.8,4.8
			C146.1,259.5,144.1,256.9,144.1,251.8z"/>
		<path fill="#FFFFFF" d="M156.2,248.7h1.6v1.8h0c0.6-1.1,1.7-2,3.3-2h0.2l-0.1,1.5c0,0-0.3,0-0.4,0c-1.4,0-2.5,0.9-3.1,2.2v7.1
			h-1.6V248.7z"/>
		<path fill="#FFFFFF" d="M162.6,254c0-3.6,1.8-5.5,4.2-5.5c2.3,0,4.2,1.9,4.2,5.5c0,3.6-1.8,5.5-4.2,5.5
			C164.4,259.5,162.6,257.6,162.6,254z M169.3,254c0-2.3-0.8-4.1-2.5-4.1c-1.7,0-2.6,1.6-2.6,4.1c0,2.3,0.7,4.1,2.6,4.1
			C168.4,258.1,169.3,256.5,169.3,254z"/>
		<path fill="#FFFFFF" d="M173.1,244.8h1.6v1.7h-1.6V244.8z M173.1,248.7h1.6v10.6h-1.6V248.7z"/>
		<path fill="#FFFFFF" d="M179.6,253.7l-2.9-5h1.7l2.1,3.8l2-3.8h1.6l-2.9,5l3.2,5.6h-1.7l-2.4-4.4l-2.4,4.4h-1.6L179.6,253.7z"/>
	</g>
</g>
<g>
	<g>
		<path fill="#353535" d="M653.2,4.5c0-2.5-2-4.5-4.5-4.5H477.5C475,0,473,2,473,4.5v42.9c0,2.5,2,4.5,4.5,4.5h68.1
			c2.5,0,6,1.4,7.8,3.2l5.6,5.6c1.8,1.8,4.7,1.8,6.4,0l5.6-5.6c1.8-1.8,5.3-3.2,7.8-3.2h70c2.5,0,4.5-2,4.5-4.5V4.5z"/>
	</g>
</g>
<g>
	<g>
		<path fill="#FFFFFF" d="M504.5,17.7h4.1c2.7,0,4.6,1.2,4.6,4.2c0,3.3-2.1,4.4-4.7,4.4h-2.4v6.2h-1.7V17.7z M508.6,24.9
			c2,0,3-0.8,3-2.9c0-2-1-2.7-3-2.7h-2.4v5.6H508.6z"/>
		<path fill="#FFFFFF" d="M514.8,27.2c0-3.6,1.8-5.5,4.2-5.5c2.3,0,4.2,1.9,4.2,5.5c0,3.6-1.8,5.5-4.2,5.5
			C516.6,32.7,514.8,30.9,514.8,27.2z M521.5,27.2c0-2.3-0.8-4.1-2.5-4.1c-1.7,0-2.6,1.6-2.6,4.1c0,2.3,0.7,4.1,2.6,4.1
			C520.6,31.4,521.5,29.7,521.5,27.2z"/>
		<path fill="#FFFFFF" d="M524.3,30.6l1.1-0.8c0.7,1.1,1.7,1.6,2.9,1.6c1.3,0,2.1-0.6,2.1-1.6c0-2.6-5.5-1.5-5.5-5.3
			c0-1.7,1.4-2.8,3.3-2.8c1.6,0,2.7,0.7,3.5,1.9l-1.1,0.8c-0.5-0.8-1.3-1.4-2.4-1.4c-1.2,0-1.8,0.6-1.8,1.4c0,2.6,5.5,1.4,5.5,5.3
			c0,1.8-1.6,3-3.6,3C526.4,32.7,525.1,31.9,524.3,30.6z"/>
		<path fill="#FFFFFF" d="M534.5,30.1v-6.8h-1.6V22h1.6v-3.8h1.6V22h2.3v1.3h-2.3v6.5c0,1.1,0.3,1.6,1.4,1.6c0.3,0,0.7-0.1,0.9-0.1
			v1.3c-0.2,0.1-0.8,0.1-1.3,0.1C535.2,32.6,534.5,32,534.5,30.1z"/>
		<path fill="#FFFFFF" d="M540.1,25.6h4.1v1.4h-4.1V25.6z"/>
		<path fill="#FFFFFF" d="M546.9,17.7h1.7v14.8h-1.7V17.7z"/>
		<path fill="#FFFFFF" d="M552.1,30.1v-6.8h-1.6V22h1.6v-3.8h1.6V22h2.3v1.3h-2.3v6.5c0,1.1,0.3,1.6,1.4,1.6c0.3,0,0.7-0.1,0.9-0.1
			v1.3c-0.2,0.1-0.8,0.1-1.3,0.1C552.9,32.6,552.1,32,552.1,30.1z"/>
		<path fill="#FFFFFF" d="M557.5,25.1c0-4.3,2.7-7.7,6.3-7.7c3.6,0,6.3,3.4,6.3,7.7c0,4.3-2.7,7.7-6.3,7.7
			C560.2,32.8,557.5,29.4,557.5,25.1z M569.2,25.1c0-3.8-2.3-6.8-5.4-6.8c-3.1,0-5.4,3-5.4,6.8c0,3.8,2.3,6.8,5.4,6.8
			C566.9,31.9,569.2,28.9,569.2,25.1z M561.4,20.9h2.4c1.6,0,2.6,0.8,2.6,2.4c0,1.4-0.7,2-1.4,2.3l1.6,3.5h-1.3l-1.5-3.4h-1.2v3.4
			h-1.2V20.9z M563.8,24.7c1,0,1.4-0.4,1.4-1.4c0-1-0.5-1.3-1.4-1.3h-1.2v2.7H563.8z"/>
		<path fill="#FFFFFF" d="M576.4,17.7h2l4.6,9.1c0.5,1,0.8,1.6,1.3,2.6h0V17.7h1.5v14.8h-1.5l-5-9.5c-0.6-1.1-0.8-1.6-1.4-2.8h0
			v12.3h-1.5V17.7z"/>
		<path fill="#FFFFFF" d="M588.2,27.2c0-3.6,1.8-5.5,4.2-5.5c2.3,0,4.2,1.9,4.2,5.5c0,3.6-1.8,5.5-4.2,5.5
			C590.1,32.7,588.2,30.9,588.2,27.2z M595,27.2c0-2.3-0.8-4.1-2.5-4.1c-1.7,0-2.6,1.6-2.6,4.1c0,2.3,0.7,4.1,2.6,4.1
			C594.1,31.4,595,29.7,595,27.2z"/>
		<path fill="#FFFFFF" d="M599.3,30.1v-6.8h-1.6V22h1.6v-3.8h1.6V22h2.3v1.3h-2.3v6.5c0,1.1,0.3,1.6,1.4,1.6c0.3,0,0.7-0.1,0.9-0.1
			v1.3c-0.2,0.1-0.8,0.1-1.3,0.1C600,32.6,599.3,32,599.3,30.1z"/>
		<path fill="#FFFFFF" d="M604.6,27.2c0-3.8,2-5.5,4.1-5.5c2.3,0,3.8,1.9,3.8,5.4v0.4h-6.2c0.1,2.5,1,3.8,2.5,3.8
			c1.2,0,1.9-0.7,2.5-1.8l1.1,0.7c-0.7,1.5-2,2.5-3.7,2.5C606.4,32.7,604.6,30.9,604.6,27.2z M611,26.4c-0.1-1.9-0.8-3.2-2.2-3.2
			c-1.2,0-2.3,1-2.4,3.2H611z"/>
		<path fill="#FFFFFF" d="M613.7,30.6l1.1-0.8c0.7,1.1,1.7,1.6,2.9,1.6c1.3,0,2.1-0.6,2.1-1.6c0-2.6-5.5-1.5-5.5-5.3
			c0-1.7,1.4-2.8,3.3-2.8c1.6,0,2.7,0.7,3.5,1.9l-1.1,0.8c-0.5-0.8-1.3-1.4-2.4-1.4c-1.2,0-1.8,0.6-1.8,1.4c0,2.6,5.5,1.4,5.5,5.3
			c0,1.8-1.6,3-3.6,3C615.8,32.7,614.5,31.9,613.7,30.6z"/>
	</g>
</g>
<g>
	<g>
		<path fill="#353535" d="M447.7,204.9c0-2.5-2-4.5-4.5-4.5H272c-2.5,0-4.5,2-4.5,4.5v42.9c0,2.5,2,4.5,4.5,4.5h68.1
			c2.5,0,6,1.4,7.8,3.2l5.6,5.6c1.8,1.8,4.7,1.8,6.4,0l5.6-5.6c1.8-1.8,5.3-3.2,7.8-3.2h70c2.5,0,4.5-2,4.5-4.5V204.9z"/>
	</g>
</g>
<g>
	<g>
		<path fill="#FFFFFF" d="M324,232.9h-1.6l4.3-14.9h1.6l4.3,14.9H331l-1.2-4.3h-4.6L324,232.9z M328.8,224.9
			c-0.5-1.8-0.9-3.1-1.2-4.6h0c-0.4,1.4-0.7,2.8-1.2,4.5l-0.6,2.3h3.8L328.8,224.9z"/>
		<path fill="#FFFFFF" d="M334.6,218h1.6v14.8h-1.6V218z"/>
		<path fill="#FFFFFF" d="M338.9,222.3h1.6v1.5c0.8-0.8,1.9-1.7,3.2-1.7c1.4,0,2.1,0.6,2.4,1.7c0.8-0.9,1.9-1.7,3.3-1.7
			c1.7,0,2.6,1,2.6,2.9v7.8h-1.6v-7.5c0-1.3-0.4-1.9-1.5-1.9c-1,0-1.9,0.7-2.7,1.4v7.9h-1.6v-7.5c0-1.3-0.3-1.9-1.4-1.9
			c-0.9,0-1.8,0.6-2.7,1.5v7.9h-1.6V222.3z"/>
		<path fill="#FFFFFF" d="M354,227.6c0-3.6,1.8-5.5,4.2-5.5c2.3,0,4.2,1.9,4.2,5.5c0,3.6-1.8,5.5-4.2,5.5
			C355.8,233.1,354,231.2,354,227.6z M360.7,227.6c0-2.3-0.8-4.1-2.5-4.1c-1.7,0-2.6,1.6-2.6,4.1c0,2.3,0.7,4.1,2.6,4.1
			C359.8,231.7,360.7,230.1,360.7,227.6z"/>
		<path fill="#FFFFFF" d="M364.4,222.3h1.6v1.5c0.7-0.8,2-1.7,3.3-1.7c1.7,0,2.6,1,2.6,2.9v7.8h-1.6v-7.5c0-1.3-0.4-1.9-1.5-1.9
			c-1,0-2.1,0.8-2.8,1.5v7.8h-1.6V222.3z"/>
		<path fill="#FFFFFF" d="M373.9,227.6c0-3.8,1.6-5.5,3.7-5.5c1.2,0,2.1,0.6,2.8,1.5V218h1.6v12.2c0,1.3,0.1,2.1,0.3,2.6h-1.7
			c-0.1-0.3-0.2-1-0.2-1.4c-0.7,0.8-1.6,1.5-2.9,1.5C375.5,233,373.9,231.4,373.9,227.6z M380.4,230.2v-5.3
			c-0.8-0.9-1.6-1.5-2.5-1.5c-1.4,0-2.4,1.2-2.4,4.1c0,2.8,1,4.1,2.4,4.1C378.9,231.7,379.8,231,380.4,230.2z"/>
		<path fill="#FFFFFF" d="M383.7,230.9l1.1-0.8c0.7,1.1,1.7,1.6,2.9,1.6c1.3,0,2.1-0.6,2.1-1.6c0-2.6-5.5-1.5-5.5-5.3
			c0-1.7,1.4-2.8,3.3-2.8c1.6,0,2.7,0.7,3.5,1.9l-1.1,0.8c-0.5-0.8-1.3-1.4-2.4-1.4c-1.2,0-1.8,0.6-1.8,1.4c0,2.6,5.5,1.4,5.5,5.3
			c0,1.8-1.6,3-3.6,3C385.8,233.1,384.5,232.2,383.7,230.9z"/>
	</g>
</g>
<g>
	<g>
		<path fill="#353535" d="M856.2,288.7c0-2.5-2-4.5-4.5-4.5H680.5c-2.5,0-4.5,2-4.5,4.5v42.9c0,2.5,2,4.5,4.5,4.5h68.1
			c2.5,0,6,1.4,7.8,3.2l5.6,5.6c1.8,1.8,4.7,1.8,6.4,0l5.6-5.6c1.8-1.8,5.3-3.2,7.8-3.2h70c2.5,0,4.5-2,4.5-4.5V288.7z"/>
	</g>
</g>
<g>
	<g>
		<path fill="#FFFFFF" d="M730.6,301.9h7.6v1.5h-5.9v4.7h4.3v1.5h-4.3v5.5h6.2v1.5h-7.9V301.9z"/>
		<path fill="#FFFFFF" d="M739.7,314.7l1.1-0.8c0.7,1.1,1.7,1.6,2.9,1.6c1.3,0,2.1-0.6,2.1-1.6c0-2.6-5.5-1.5-5.5-5.3
			c0-1.7,1.4-2.8,3.3-2.8c1.6,0,2.7,0.7,3.5,1.9l-1.1,0.8c-0.5-0.8-1.3-1.4-2.4-1.4c-1.2,0-1.8,0.6-1.8,1.4c0,2.6,5.5,1.4,5.5,5.3
			c0,1.8-1.6,3-3.6,3C741.8,316.9,740.5,316.1,739.7,314.7z"/>
		<path fill="#FFFFFF" d="M749.3,306.1h1.6v1.3c0.6-0.8,1.6-1.6,2.9-1.6c2.1,0,3.6,1.7,3.6,5.5c0,3.8-1.6,5.5-3.7,5.5
			c-1.2,0-2.1-0.6-2.8-1.4v5.3h-1.6V306.1z M755.7,311.4c0-2.8-1-4.1-2.4-4.1c-1,0-1.8,0.7-2.5,1.5v5.3c0.8,0.9,1.6,1.4,2.5,1.4
			C754.8,315.5,755.7,314.3,755.7,311.4z"/>
		<path fill="#FFFFFF" d="M759.4,306.1h1.6v1.8h0c0.6-1.1,1.7-2,3.3-2h0.2l-0.1,1.5c0,0-0.3,0-0.4,0c-1.4,0-2.5,0.9-3.1,2.2v7.1
			h-1.6V306.1z"/>
		<path fill="#FFFFFF" d="M765.8,311.4c0-3.8,2-5.5,4.1-5.5c2.3,0,3.8,1.9,3.8,5.4v0.4h-6.2c0.1,2.5,1,3.8,2.5,3.8
			c1.2,0,1.9-0.7,2.5-1.8l1.1,0.7c-0.7,1.5-2,2.5-3.7,2.5C767.6,316.9,765.8,315.1,765.8,311.4z M772.1,310.5
			c-0.1-1.9-0.8-3.2-2.2-3.2c-1.2,0-2.3,1-2.4,3.2H772.1z"/>
		<path fill="#FFFFFF" d="M774.8,314.7l1.1-0.8c0.7,1.1,1.7,1.6,2.9,1.6c1.3,0,2.1-0.6,2.1-1.6c0-2.6-5.5-1.5-5.5-5.3
			c0-1.7,1.4-2.8,3.3-2.8c1.6,0,2.7,0.7,3.5,1.9l-1.1,0.8c-0.5-0.8-1.3-1.4-2.4-1.4c-1.2,0-1.8,0.6-1.8,1.4c0,2.6,5.5,1.4,5.5,5.3
			c0,1.8-1.6,3-3.6,3C777,316.9,775.7,316.1,774.8,314.7z"/>
		<path fill="#FFFFFF" d="M783.5,314.7l1.1-0.8c0.7,1.1,1.7,1.6,2.9,1.6c1.3,0,2.1-0.6,2.1-1.6c0-2.6-5.5-1.5-5.5-5.3
			c0-1.7,1.4-2.8,3.3-2.8c1.6,0,2.7,0.7,3.5,1.9l-1.1,0.8c-0.5-0.8-1.3-1.4-2.4-1.4c-1.2,0-1.8,0.6-1.8,1.4c0,2.6,5.5,1.4,5.5,5.3
			c0,1.8-1.6,3-3.6,3C785.7,316.9,784.4,316.1,783.5,314.7z"/>
		<path fill="#FFFFFF" d="M792.6,311.4c0-3.6,1.8-5.5,4.2-5.5c2.3,0,4.2,1.9,4.2,5.5c0,3.6-1.8,5.5-4.2,5.5
			C794.5,316.9,792.6,315,792.6,311.4z M799.3,311.4c0-2.3-0.8-4.1-2.5-4.1c-1.7,0-2.6,1.6-2.6,4.1c0,2.3,0.7,4.1,2.6,4.1
			C798.5,315.5,799.3,313.9,799.3,311.4z"/>
	</g>
</g>
</svg>
