<?xml version="1.0" encoding="utf-8"?>
<!-- Generator: Adobe Illustrator 17.1.0, SVG Export Plug-In . SVG Version: 6.00 Build 0)  -->
<!DOCTYPE svg PUBLIC "-//W3C//DTD SVG 1.1//EN" "http://www.w3.org/Graphics/SVG/1.1/DTD/svg11.dtd">
<svg version="1.1" id="Layer_1" xmlns="http://www.w3.org/2000/svg" xmlns:xlink="http://www.w3.org/1999/xlink" x="0px" y="0px"
	 viewBox="0 0 856.2 403.3" enable-background="new 0 0 856.2 403.3" xml:space="preserve">
<g>
	<g>
		<path fill="#353535" d="M245.2,231.3c0-2.5-2-4.5-4.5-4.5H69.5c-2.5,0-4.5,2-4.5,4.5v42.9c0,2.5,2,4.5,4.5,4.5h68.1
			c2.5,0,6,1.4,7.8,3.2l5.6,5.6c1.8,1.8,4.7,1.8,6.4,0l5.6-5.6c1.8-1.8,5.3-3.2,7.8-3.2h70c2.5,0,4.5-2,4.5-4.5V231.3z"/>
	</g>
</g>
<g>
	<rect x="64.8" y="244.4" fill="none" width="179.3" height="26.8"/>
	<text transform="matrix(1 0 0 1 124.0697 259.2432)" fill="#FFFFFF" font-family="'BentonSans-CondensedRegular'" font-size="20">LaCroix</text>
</g>
<g>
	<g>
		<path fill="#353535" d="M653.2,4.5c0-2.5-2-4.5-4.5-4.5H477.5C475,0,473,2,473,4.5v42.9c0,2.5,2,4.5,4.5,4.5h68.1
			c2.5,0,6,1.4,7.8,3.2l5.6,5.6c1.8,1.8,4.7,1.8,6.4,0l5.6-5.6c1.8-1.8,5.3-3.2,7.8-3.2h70c2.5,0,4.5-2,4.5-4.5V4.5z"/>
	</g>
</g>
<g>
	<rect x="472.8" y="17.7" fill="none" width="179.3" height="26.8"/>
	<text transform="matrix(1 0 0 1 502.9301 32.523)" fill="#FFFFFF" font-family="'BentonSans-CondensedRegular'" font-size="20">Post-It® Notes</text>
</g>
<g>
	<g>
		<path fill="#353535" d="M447.7,204.9c0-2.5-2-4.5-4.5-4.5H272c-2.5,0-4.5,2-4.5,4.5v42.9c0,2.5,2,4.5,4.5,4.5h68.1
			c2.5,0,6,1.4,7.8,3.2l5.6,5.6c1.8,1.8,4.7,1.8,6.4,0l5.6-5.6c1.8-1.8,5.3-3.2,7.8-3.2h70c2.5,0,4.5-2,4.5-4.5V204.9z"/>
	</g>
</g>
<g>
	<rect x="267.3" y="218.1" fill="none" width="179.3" height="26.8"/>
	<text transform="matrix(1 0 0 1 321.9402 232.8521)" fill="#FFFFFF" font-family="'BentonSans-CondensedRegular'" font-size="20">Almonds</text>
</g>
<g>
	<g>
		<path fill="#353535" d="M856.2,288.7c0-2.5-2-4.5-4.5-4.5H680.5c-2.5,0-4.5,2-4.5,4.5v42.9c0,2.5,2,4.5,4.5,4.5h68.1
			c2.5,0,6,1.4,7.8,3.2l5.6,5.6c1.8,1.8,4.7,1.8,6.4,0l5.6-5.6c1.8-1.8,5.3-3.2,7.8-3.2h70c2.5,0,4.5-2,4.5-4.5V288.7z"/>
	</g>
</g>
<g>
	<rect x="675.8" y="301.9" fill="none" width="179.3" height="26.8"/>
	<text transform="matrix(1 0 0 1 729.1195 316.6856)" fill="#FFFFFF" font-family="'BentonSans-CondensedRegular'" font-size="20">Espresso</text>
</g>
</svg>
