<?xml version="1.0" encoding="utf-8"?>
<!-- Generator: Adobe Illustrator 17.1.0, SVG Export Plug-In . SVG Version: 6.00 Build 0)  -->
<!DOCTYPE svg PUBLIC "-//W3C//DTD SVG 1.1//EN" "http://www.w3.org/Graphics/SVG/1.1/DTD/svg11.dtd">
<svg version="1.1" id="Layer_1" xmlns="http://www.w3.org/2000/svg" xmlns:xlink="http://www.w3.org/1999/xlink" x="0px" y="0px"
	 viewBox="0 0 793.6 184.8" enable-background="new 0 0 793.6 184.8" xml:space="preserve">
<g>
	<g>
		<path fill="#FFFFFF" d="M36.4,113.8v21.5c0,5.6-3.5,9.4-8.7,9.4c-5,0-8.6-3.8-8.6-9.4v-21.5c0-5.6,3.2-9.4,8.6-9.4
			C33.2,104.4,36.4,108.1,36.4,113.8z M31.8,113.9c0-3.7-1.7-5.2-4.1-5.2c-2.3,0-4.1,1.4-4.1,5.2v21.2c0,3.7,1.7,5.2,4.1,5.2
			c2.5,0,4.1-1.4,4.1-5.2V113.9z"/>
		<path fill="#FFFFFF" d="M59.7,131.1v4c0,5-3.4,9.5-9.1,9.5c-5.5,0-8.8-3.8-8.8-8.7v-21.2c0-6.4,3.3-10.2,8.7-10.2
			c5.5,0,9,3.8,9,9.4v3.1c0,0.4-0.3,0.6-0.5,0.6h-3.5c-0.3,0-0.6-0.2-0.6-0.6v-3.4c0-2.6-1-4.8-4.3-4.8c-3.1,0-4.3,2.2-4.3,4.8v10.2
			c1.3-2,3.2-2.1,4.7-2.1C55.7,121.6,59.7,125.2,59.7,131.1z M46.4,130.9v4.7c0,3.2,1.8,4.7,4.4,4.7s4.4-2.1,4.4-4.7v-4.7
			c0-3.6-1.8-5-4.4-5C48.3,126,46.4,127.3,46.4,130.9z"/>
	</g>
</g>
<g>
	<g>
		<path fill="#FFFFFF" d="M138.1,113.8v21.5c0,5.6-3.5,9.4-8.7,9.4c-5,0-8.6-3.8-8.6-9.4v-21.5c0-5.6,3.2-9.4,8.6-9.4
			C134.9,104.4,138.1,108.1,138.1,113.8z M133.5,113.9c0-3.7-1.7-5.2-4.1-5.2c-2.3,0-4.1,1.4-4.1,5.2v21.2c0,3.7,1.7,5.2,4.1,5.2
			c2.5,0,4.1-1.4,4.1-5.2V113.9z"/>
		<path fill="#FFFFFF" d="M162.7,132.4v2.6c0,0.4-0.3,0.7-0.7,0.7h-2.9v7.6c0,0.4-0.3,0.7-0.7,0.7h-2.8c-0.4,0-0.7-0.3-0.7-0.7v-7.6
			H143c-0.4,0-0.7-0.3-0.7-0.7c0,0,0-1.2,0-2.1c0-1.1,0.1-1.3,0.5-2.5c0.5-1.2,9.7-24.8,9.7-24.8c0.1-0.4,0.4-0.7,0.8-0.7h5.1
			c0.4,0,0.7,0.3,0.7,0.7v26.2h2.9C162.5,131.8,162.7,132.1,162.7,132.4z M146.4,131.8h8.6v-22.5L146.4,131.8z"/>
	</g>
</g>
<g>
	<g>
		<path fill="#FFFFFF" d="M240.3,113.8v21.5c0,5.6-3.5,9.4-8.7,9.4c-5,0-8.6-3.8-8.6-9.4v-21.5c0-5.6,3.2-9.4,8.6-9.4
			C237.1,104.4,240.3,108.1,240.3,113.8z M235.7,113.9c0-3.7-1.7-5.2-4.1-5.2c-2.3,0-4.1,1.4-4.1,5.2v21.2c0,3.7,1.7,5.2,4.1,5.2
			c2.5,0,4.1-1.4,4.1-5.2V113.9z"/>
		<path fill="#FFFFFF" d="M263.4,113.7v3.6v17.8c0,5.6-3.4,9.5-8.8,9.5c-5.5,0-9-3.8-9-9.5v-3.7c0-0.3,0.3-0.6,0.6-0.6h3.3
			c0.4,0,0.6,0.3,0.6,0.6v4c0,3.6,2.3,4.7,4.4,4.7c1.7,0,4.3-1,4.3-4.7v-11.5c-1.3,1.9-3.2,2.2-4.4,2.2c-5.5,0-8.8-3.8-8.8-9.5v-2.9
			c0-5.7,3.4-9.4,8.9-9.4C259.8,104.3,263.4,108,263.4,113.7z M258.7,113.7c0-3.6-1.7-5-4.3-5c-2.6,0-4.3,1.4-4.3,5v3.1
			c0,3.7,1.8,5.1,4.3,5.1c2.5,0,4.3-1.4,4.3-5.1V113.7z"/>
	</g>
</g>
<g>
	<g>
		<path fill="#FFFFFF" d="M341.6,113.8v21.5c0,5.6-3.5,9.4-8.7,9.4c-5,0-8.6-3.8-8.6-9.4v-21.5c0-5.6,3.2-9.4,8.6-9.4
			C338.4,104.4,341.6,108.1,341.6,113.8z M337,113.9c0-3.7-1.7-5.2-4.1-5.2c-2.3,0-4.1,1.4-4.1,5.2v21.2c0,3.7,1.7,5.2,4.1,5.2
			c2.5,0,4.1-1.4,4.1-5.2V113.9z"/>
		<path fill="#FFFFFF" d="M364.7,113.7v3.6v17.8c0,5.6-3.4,9.5-8.8,9.5s-9-3.8-9-9.5v-3.7c0-0.3,0.3-0.6,0.6-0.6h3.3
			c0.4,0,0.6,0.3,0.6,0.6v4c0,3.6,2.3,4.7,4.4,4.7c1.7,0,4.3-1,4.3-4.7v-11.5c-1.3,1.9-3.2,2.2-4.4,2.2c-5.5,0-8.8-3.8-8.8-9.5v-2.9
			c0-5.7,3.4-9.4,8.9-9.4C361.1,104.3,364.7,108,364.7,113.7z M360,113.7c0-3.6-1.7-5-4.3-5c-2.6,0-4.3,1.4-4.3,5v3.1
			c0,3.7,1.8,5.1,4.3,5.1c2.5,0,4.3-1.4,4.3-5.1V113.7z"/>
	</g>
</g>
<g>
	<g>
		<path fill="#FFFFFF" d="M445.3,113.8v21.5c0,5.6-3.5,9.4-8.7,9.4c-5,0-8.6-3.8-8.6-9.4v-21.5c0-5.6,3.2-9.4,8.6-9.4
			C442.1,104.4,445.3,108.1,445.3,113.8z M440.7,113.9c0-3.7-1.7-5.2-4.1-5.2c-2.3,0-4.1,1.4-4.1,5.2v21.2c0,3.7,1.7,5.2,4.1,5.2
			c2.5,0,4.1-1.4,4.1-5.2V113.9z"/>
		<path fill="#FFFFFF" d="M467.8,134.2c0,6.5-3,10.3-9,10.3c-5.5,0-8.8-3.8-8.8-9.4v-3.7c0-0.3,0.2-0.7,0.6-0.7h3.2
			c0.3,0,0.6,0.4,0.6,0.7v4c0,2.6,1.3,5.2,4.5,5.2c4.2,0,4.4-3.5,4.4-6.1v-4.1c0-3.6-4.7-4.6-5.8-4.7c-0.6,0-0.6-0.3-0.6-0.7v-2.9
			c0-0.2,0.2-0.5,0.5-0.7c0,0,5.9-1.9,5.9-5.9v-1.5c0-3.6-1.4-5.5-4.4-5.5c-3.2,0-4.3,2.2-4.3,4.8v3.4c0,0.3-0.3,0.6-0.6,0.6h-3.4
			c-0.4,0-0.6-0.3-0.6-0.6v-3.1c0-5.7,3.5-9.4,8.9-9.4c5.9,0,8.7,4,8.7,9.7c0,0,0,0.3,0,1c0,5-4.3,8.4-6.1,8.4c0,0,6.1,1,6.1,8.2
			V134.2z"/>
	</g>
</g>
<g>
	<g>
		<path fill="#FFFFFF" d="M751.4,113.8v21.5c0,5.6-3.5,9.4-8.7,9.4c-5,0-8.6-3.8-8.6-9.4v-21.5c0-5.6,3.2-9.4,8.6-9.4
			C748.2,104.4,751.4,108.1,751.4,113.8z M746.8,113.9c0-3.7-1.7-5.2-4.1-5.2c-2.3,0-4.1,1.4-4.1,5.2v21.2c0,3.7,1.7,5.2,4.1,5.2
			c2.5,0,4.1-1.4,4.1-5.2V113.9z"/>
		<path fill="#FFFFFF" d="M774.7,131.1v4c0,5-3.4,9.5-9.1,9.5c-5.5,0-8.8-3.8-8.8-8.7v-21.2c0-6.4,3.3-10.2,8.7-10.2
			c5.5,0,9,3.8,9,9.4v3.1c0,0.4-0.3,0.6-0.5,0.6h-3.5c-0.3,0-0.6-0.2-0.6-0.6v-3.4c0-2.6-1-4.8-4.3-4.8c-3.1,0-4.3,2.2-4.3,4.8v10.2
			c1.3-2,3.2-2.1,4.7-2.1C770.7,121.6,774.7,125.2,774.7,131.1z M761.4,130.9v4.7c0,3.2,1.8,4.7,4.4,4.7s4.4-2.1,4.4-4.7v-4.7
			c0-3.6-1.8-5-4.4-5C763.3,126,761.4,127.3,761.4,130.9z"/>
	</g>
</g>
<g>
	<g>
		<path fill="#FFFFFF" d="M546.6,113.8v21.5c0,5.6-3.5,9.4-8.7,9.4c-5,0-8.6-3.8-8.6-9.4v-21.5c0-5.6,3.2-9.4,8.6-9.4
			C543.4,104.4,546.6,108.1,546.6,113.8z M542,113.9c0-3.7-1.7-5.2-4.1-5.2c-2.3,0-4.1,1.4-4.1,5.2v21.2c0,3.7,1.7,5.2,4.1,5.2
			c2.5,0,4.1-1.4,4.1-5.2V113.9z"/>
		<path fill="#FFFFFF" d="M571.3,132.4v2.6c0,0.4-0.3,0.7-0.7,0.7h-2.9v7.6c0,0.4-0.3,0.7-0.7,0.7h-2.8c-0.4,0-0.7-0.3-0.7-0.7v-7.6
			h-12.1c-0.4,0-0.7-0.3-0.7-0.7c0,0,0-1.2,0-2.1c0-1.1,0.1-1.3,0.5-2.5c0.5-1.2,9.7-24.8,9.7-24.8c0.1-0.4,0.4-0.7,0.8-0.7h5.1
			c0.4,0,0.7,0.3,0.7,0.7v26.2h2.9C571,131.8,571.3,132.1,571.3,132.4z M554.9,131.8h8.6v-22.5L554.9,131.8z"/>
	</g>
</g>
<g>
	<g>
		<path fill="#FFFFFF" d="M653.3,113.8v21.5c0,5.6-3.5,9.4-8.7,9.4c-5,0-8.6-3.8-8.6-9.4v-21.5c0-5.6,3.2-9.4,8.6-9.4
			C650.1,104.4,653.3,108.1,653.3,113.8z M648.7,113.9c0-3.7-1.7-5.2-4.1-5.2c-2.3,0-4.1,1.4-4.1,5.2v21.2c0,3.7,1.7,5.2,4.1,5.2
			c2.5,0,4.1-1.4,4.1-5.2V113.9z"/>
		<path fill="#FFFFFF" d="M666.1,105.7v37.6c0,0.4-0.3,0.7-0.7,0.7h-3.1c-0.4,0-0.6-0.3-0.6-0.7V112h-3.9c-0.4,0-0.7-0.3-0.7-0.7
			v-1.6c0-0.4,0.3-0.7,0.6-0.7c4.8-1.7,3.5-4,5.6-4c0.5,0,2,0,2,0C665.8,105,666.1,105.3,666.1,105.7z"/>
	</g>
</g>
<g>
	<g>
		<path fill="#353535" d="M427.6,166.4h1.3v11.1h-1.3V166.4z"/>
		<path fill="#353535" d="M431.1,169.6h1.2v1.1c0.5-0.6,1.5-1.3,2.5-1.3c1.3,0,2,0.8,2,2.2v5.9h-1.2v-5.6c0-0.9-0.3-1.4-1.1-1.4
			c-0.8,0-1.6,0.6-2.1,1.1v5.9h-1.2V169.6z"/>
		<path fill="#353535" d="M439.1,175.7v-5.1h-1.2v-1h1.2v-2.8h1.2v2.8h1.7v1h-1.7v4.9c0,0.8,0.2,1.2,1,1.2c0.2,0,0.5,0,0.7-0.1v1
			c-0.2,0.1-0.6,0.1-0.9,0.1C439.6,177.6,439.1,177.1,439.1,175.7z"/>
		<path fill="#353535" d="M443.1,173.5c0-2.8,1.5-4.1,3.1-4.1c1.8,0,2.8,1.4,2.8,4.1v0.3h-4.7c0,1.9,0.8,2.9,1.9,2.9
			c0.9,0,1.4-0.5,1.9-1.4l0.8,0.5c-0.6,1.1-1.5,1.9-2.8,1.9C444.4,177.7,443.1,176.3,443.1,173.5z M447.8,172.9
			c-0.1-1.4-0.6-2.4-1.7-2.4c-0.9,0-1.7,0.7-1.8,2.4H447.8z"/>
		<path fill="#353535" d="M450.5,169.6h1.2v1.4h0c0.4-0.8,1.3-1.5,2.5-1.5h0.2l-0.1,1.1c0,0-0.2,0-0.3,0c-1,0-1.9,0.7-2.3,1.6v5.3
			h-1.2V169.6z"/>
		<path fill="#353535" d="M455.7,169.6h1.2v1.1c0.5-0.6,1.5-1.3,2.5-1.3c1.3,0,2,0.8,2,2.2v5.9h-1.2v-5.6c0-0.9-0.3-1.4-1.1-1.4
			c-0.8,0-1.6,0.6-2.1,1.1v5.9h-1.2V169.6z"/>
		<path fill="#353535" d="M462.6,176l0.8-0.6c0.5,0.8,1.3,1.2,2.1,1.2c1,0,1.6-0.4,1.6-1.2c0-1.9-4.1-1.2-4.1-4c0-1.3,1-2.1,2.5-2.1
			c1.2,0,2,0.6,2.6,1.4l-0.8,0.6c-0.4-0.6-1-1-1.8-1c-0.9,0-1.3,0.4-1.3,1.1c0,2,4.1,1.1,4.1,4c0,1.4-1.2,2.2-2.7,2.2
			C464.2,177.7,463.2,177,462.6,176z"/>
	</g>
</g>
<g>
	<g>
		<path fill="#353535" d="M526.2,166.4h1.3v4.7h4.5v-4.7h1.3v11.1H532v-5.3h-4.5v5.3h-1.3V166.4z"/>
		<path fill="#353535" d="M534.9,175.6c0-1.6,1.3-2.7,4.4-3.3v-0.5c0-0.9-0.4-1.3-1.2-1.3c-1,0-1.7,0.5-2.3,1.1l-0.7-0.7
			c0.8-0.8,1.9-1.4,3.1-1.4c1.5,0,2.2,0.9,2.2,2.4v3.8c0,1,0,1.5,0.2,1.9h-1.2c-0.1-0.3-0.2-0.6-0.2-1c-0.6,0.7-1.5,1.1-2.5,1.1
			C535.6,177.6,534.9,176.9,534.9,175.6z M539.3,175.6v-2.4c-2.4,0.5-3.2,1.4-3.2,2.3c0,0.8,0.4,1.2,1.1,1.2
			C538,176.6,538.8,176.2,539.3,175.6z"/>
		<path fill="#353535" d="M542,173.5c0-2.8,1.4-4.1,3.1-4.1c1.6,0,2.3,1.1,2.7,2.4l-1.1,0.3c-0.3-1-0.7-1.6-1.6-1.6
			c-1,0-1.8,0.9-1.8,3.1c0,1.9,0.7,3.1,1.8,3.1c0.8,0,1.4-0.5,1.7-1.6l1.1,0.3c-0.4,1.5-1.3,2.4-2.8,2.4
			C543.4,177.7,542,176.2,542,173.5z"/>
		<path fill="#353535" d="M549.2,166.4h1.2v7.3c0.2-0.3,0.7-1,1.1-1.6l1.8-2.5h1.2l-2.1,2.9l2.4,5h-1.2l-1.9-4l-1.3,1.7v2.4h-1.2
			V166.4z"/>
		<path fill="#353535" d="M555.7,173.5c0-2.8,1.5-4.1,3.1-4.1c1.8,0,2.8,1.4,2.8,4.1v0.3h-4.7c0,1.9,0.8,2.9,1.9,2.9
			c0.9,0,1.4-0.5,1.9-1.4l0.8,0.5c-0.6,1.1-1.5,1.9-2.8,1.9C557,177.7,555.7,176.3,555.7,173.5z M560.5,172.9
			c-0.1-1.4-0.6-2.4-1.7-2.4c-0.9,0-1.7,0.7-1.8,2.4H560.5z"/>
		<path fill="#353535" d="M563.2,169.6h1.2v1.4h0c0.4-0.8,1.3-1.5,2.5-1.5h0.2l-0.1,1.1c0,0-0.2,0-0.3,0c-1,0-1.9,0.7-2.3,1.6v5.3
			h-1.2V169.6z"/>
		<path fill="#353535" d="M567.7,176l0.8-0.6c0.5,0.8,1.3,1.2,2.1,1.2c1,0,1.6-0.4,1.6-1.2c0-1.9-4.1-1.2-4.1-4c0-1.3,1-2.1,2.5-2.1
			c1.2,0,2,0.6,2.6,1.4l-0.8,0.6c-0.4-0.6-1-1-1.8-1c-0.9,0-1.3,0.4-1.3,1.1c0,2,4.1,1.1,4.1,4c0,1.4-1.2,2.2-2.7,2.2
			C569.3,177.7,568.3,177,567.7,176z"/>
	</g>
</g>
<g>
	<g>
		<path fill="#353535" d="M630.6,166.4h5.6v1.2h-4.3v3.6h3.2v1.1h-3.2v5.2h-1.3V166.4z"/>
		<path fill="#353535" d="M637.2,175.6c0-1.6,1.3-2.7,4.4-3.3v-0.5c0-0.9-0.4-1.3-1.2-1.3c-1,0-1.7,0.5-2.3,1.1l-0.7-0.7
			c0.8-0.8,1.9-1.4,3.1-1.4c1.5,0,2.2,0.9,2.2,2.4v3.8c0,1,0,1.5,0.2,1.9h-1.2c-0.1-0.3-0.2-0.6-0.2-1c-0.6,0.7-1.5,1.1-2.5,1.1
			C637.9,177.6,637.2,176.9,637.2,175.6z M641.6,175.6v-2.4c-2.4,0.5-3.2,1.4-3.2,2.3c0,0.8,0.4,1.2,1.1,1.2
			C640.3,176.6,641.1,176.2,641.6,175.6z"/>
		<path fill="#353535" d="M644.7,169.6h1.2v1.4h0c0.5-0.8,1.3-1.5,2.5-1.5h0.2l-0.1,1.1c0,0-0.2,0-0.3,0c-1,0-1.9,0.7-2.3,1.6v5.3
			h-1.2V169.6z"/>
		<path fill="#353535" d="M649.9,169.6h1.2v1.1c0.6-0.6,1.4-1.3,2.4-1.3c1.1,0,1.6,0.4,1.8,1.3c0.6-0.6,1.5-1.3,2.5-1.3
			c1.3,0,1.9,0.8,1.9,2.2v5.9h-1.2v-5.6c0-0.9-0.3-1.4-1.1-1.4c-0.7,0-1.4,0.5-2,1.1v6h-1.2v-5.6c0-0.9-0.2-1.4-1.1-1.4
			c-0.7,0-1.4,0.5-2,1.1v5.9h-1.2V169.6z"/>
		<path fill="#353535" d="M661.2,173.5c0-2.8,1.5-4.1,3.1-4.1c1.8,0,2.8,1.4,2.8,4.1v0.3h-4.7c0,1.9,0.8,2.9,1.9,2.9
			c0.9,0,1.4-0.5,1.9-1.4l0.8,0.5c-0.6,1.1-1.5,1.9-2.8,1.9C662.5,177.7,661.2,176.3,661.2,173.5z M665.9,172.9
			c-0.1-1.4-0.6-2.4-1.7-2.4c-0.9,0-1.7,0.7-1.8,2.4H665.9z"/>
		<path fill="#353535" d="M668.6,169.6h1.2v1.4h0c0.4-0.8,1.3-1.5,2.5-1.5h0.2l-0.1,1.1c0,0-0.2,0-0.3,0c-1,0-1.9,0.7-2.3,1.6v5.3
			h-1.2V169.6z"/>
	</g>
</g>
<g>
	<g>
		<path fill="#353535" d="M312.2,166.4h2.4c3.1,0,4.7,1.6,4.7,5.5c0,3.9-1.7,5.6-4.7,5.6h-2.4V166.4z M314.8,176.4
			c2.2,0,3.3-1.3,3.3-4.4c0-3-1-4.4-3.3-4.4h-1.3v8.8H314.8z"/>
		<path fill="#353535" d="M320.6,173.5c0-2.8,1.5-4.1,3.1-4.1c1.8,0,2.8,1.4,2.8,4.1v0.3h-4.7c0,1.9,0.8,2.9,1.9,2.9
			c0.9,0,1.4-0.5,1.9-1.4l0.8,0.5c-0.6,1.1-1.5,1.9-2.8,1.9C321.9,177.7,320.6,176.3,320.6,173.5z M325.3,172.9
			c-0.1-1.4-0.6-2.4-1.7-2.4c-0.9,0-1.7,0.7-1.8,2.4H325.3z"/>
		<path fill="#353535" d="M327.3,169.6h1.2l1.3,4.5c0.2,0.7,0.3,1.2,0.6,2.1h0c0.2-0.9,0.4-1.4,0.6-2.1l1.3-4.5h1.1l-2.4,8h-1.3
			L327.3,169.6z"/>
		<path fill="#353535" d="M334.3,173.5c0-2.8,1.5-4.1,3.1-4.1c1.8,0,2.8,1.4,2.8,4.1v0.3h-4.7c0,1.9,0.8,2.9,1.9,2.9
			c0.9,0,1.4-0.5,1.9-1.4l0.8,0.5c-0.6,1.1-1.5,1.9-2.8,1.9C335.6,177.7,334.3,176.3,334.3,173.5z M339,172.9
			c-0.1-1.4-0.6-2.4-1.7-2.4c-0.9,0-1.7,0.7-1.8,2.4H339z"/>
		<path fill="#353535" d="M341.8,166.4h1.2v11.1h-1.2V166.4z"/>
		<path fill="#353535" d="M344.6,173.5c0-2.7,1.4-4.1,3.1-4.1c1.8,0,3.1,1.4,3.1,4.1c0,2.7-1.4,4.1-3.1,4.1S344.6,176.2,344.6,173.5
			z M349.7,173.5c0-1.7-0.6-3.1-1.9-3.1c-1.3,0-1.9,1.2-1.9,3.1c0,1.7,0.6,3.1,1.9,3.1C349,176.6,349.7,175.4,349.7,173.5z"/>
		<path fill="#353535" d="M352.4,169.6h1.2v1c0.5-0.6,1.2-1.2,2.2-1.2c1.5,0,2.7,1.3,2.7,4.1c0,2.9-1.2,4.1-2.8,4.1
			c-0.9,0-1.6-0.4-2.1-1.1v4h-1.2V169.6z M357.3,173.5c0-2.1-0.7-3.1-1.8-3.1c-0.7,0-1.4,0.5-1.9,1.1v4c0.6,0.7,1.2,1.1,1.9,1.1
			C356.6,176.6,357.3,175.7,357.3,173.5z"/>
		<path fill="#353535" d="M359.7,173.5c0-2.8,1.5-4.1,3.1-4.1c1.8,0,2.8,1.4,2.8,4.1v0.3h-4.7c0,1.9,0.8,2.9,1.9,2.9
			c0.9,0,1.4-0.5,1.9-1.4l0.8,0.5c-0.6,1.1-1.5,1.9-2.8,1.9C361,177.7,359.7,176.3,359.7,173.5z M364.4,172.9
			c-0.1-1.4-0.6-2.4-1.7-2.4c-0.9,0-1.7,0.7-1.8,2.4H364.4z"/>
		<path fill="#353535" d="M367.1,169.6h1.2v1.4h0c0.4-0.8,1.3-1.5,2.5-1.5h0.2l-0.1,1.1c0,0-0.2,0-0.3,0c-1,0-1.9,0.7-2.3,1.6v5.3
			h-1.2V169.6z"/>
		<path fill="#353535" d="M371.6,176l0.8-0.6c0.5,0.8,1.3,1.2,2.1,1.2c1,0,1.6-0.4,1.6-1.2c0-1.9-4.1-1.2-4.1-4c0-1.3,1-2.1,2.5-2.1
			c1.2,0,2,0.6,2.6,1.4l-0.8,0.6c-0.4-0.6-1-1-1.8-1c-0.9,0-1.3,0.4-1.3,1.1c0,2,4.1,1.1,4.1,4c0,1.4-1.2,2.2-2.7,2.2
			C373.2,177.7,372.2,177,371.6,176z"/>
	</g>
</g>
<g>
	<g>
		<path fill="#353535" d="M215,171.9c0-3.6,1.5-5.7,4-5.7c2,0,3,1.3,3.4,3.5l-1.1,0.2c-0.4-1.7-1-2.6-2.3-2.6
			c-1.6,0-2.7,1.5-2.7,4.5c0,3.1,1,4.7,2.7,4.7c1.5,0,2.3-1.1,2.4-3.3h-2.1v-1.1h3.2v5.3h-1V176h0c-0.4,0.8-1.2,1.7-2.6,1.7
			C216.4,177.7,215,175.6,215,171.9z"/>
		<path fill="#353535" d="M223.6,180.3l0.2-1c0.2,0,0.6,0.1,1,0.1c0.7,0,1-0.4,1.2-1.2l0.2-0.7l-2.5-8h1.2l1.2,4.1
			c0.3,0.9,0.4,1.5,0.6,2.4h0c0.2-0.9,0.4-1.6,0.7-2.5l1.2-4.1h1.2l-2.7,8.8c-0.5,1.5-1,2.1-2.3,2.1
			C224.3,180.5,223.8,180.4,223.6,180.3z"/>
		<path fill="#353535" d="M231.3,169.6h1.2v1.1c0.6-0.6,1.4-1.3,2.4-1.3c1.1,0,1.6,0.4,1.8,1.3c0.6-0.6,1.5-1.3,2.5-1.3
			c1.3,0,1.9,0.8,1.9,2.2v5.9h-1.2v-5.6c0-0.9-0.3-1.4-1.1-1.4c-0.7,0-1.4,0.5-2,1.1v6h-1.2v-5.6c0-0.9-0.2-1.4-1.1-1.4
			c-0.7,0-1.4,0.5-2,1.1v5.9h-1.2V169.6z"/>
		<path fill="#353535" d="M246.1,166.4h3.2c2.1,0,3.4,1,3.4,3.2c0,1.8-1,2.7-2.1,3l2.2,4.9h-1.3l-2.2-4.7h-2v4.7h-1.2V166.4z
			 M249.2,171.7c1.5,0,2.2-0.6,2.2-2.1c0-1.5-0.8-2-2.2-2h-1.8v4.1H249.2z"/>
		<path fill="#353535" d="M254.1,175.6c0-1.6,1.3-2.7,4.4-3.3v-0.5c0-0.9-0.4-1.3-1.2-1.3c-1,0-1.7,0.5-2.3,1.1l-0.7-0.7
			c0.8-0.8,1.9-1.4,3.1-1.4c1.5,0,2.2,0.9,2.2,2.4v3.8c0,1,0,1.5,0.2,1.9h-1.2c-0.1-0.3-0.2-0.6-0.2-1c-0.6,0.7-1.5,1.1-2.5,1.1
			C254.8,177.6,254.1,176.9,254.1,175.6z M258.5,175.6v-2.4c-2.4,0.5-3.2,1.4-3.2,2.3c0,0.8,0.4,1.2,1.1,1.2
			C257.2,176.6,257.9,176.2,258.5,175.6z"/>
		<path fill="#353535" d="M262,175.7v-5.1h-1.2v-1h1.2v-2.8h1.2v2.8h1.7v1h-1.7v4.9c0,0.8,0.2,1.2,1,1.2c0.2,0,0.5,0,0.7-0.1v1
			c-0.2,0.1-0.6,0.1-0.9,0.1C262.6,177.6,262,177.1,262,175.7z"/>
		<path fill="#353535" d="M265.8,176l0.8-0.6c0.5,0.8,1.3,1.2,2.1,1.2c1,0,1.6-0.4,1.6-1.2c0-1.9-4.1-1.2-4.1-4c0-1.3,1-2.1,2.5-2.1
			c1.2,0,2,0.6,2.6,1.4l-0.8,0.6c-0.4-0.6-1-1-1.8-1c-0.9,0-1.3,0.4-1.3,1.1c0,2,4.1,1.1,4.1,4c0,1.4-1.2,2.2-2.7,2.2
			C267.3,177.7,266.4,177,265.8,176z"/>
	</g>
</g>
<g>
	<g>
		<path fill="#353535" d="M125.9,166.4h2.4c3.1,0,4.7,1.6,4.7,5.5c0,3.9-1.7,5.6-4.7,5.6h-2.4V166.4z M128.5,176.4
			c2.2,0,3.3-1.3,3.3-4.4c0-3-1-4.4-3.3-4.4h-1.3v8.8H128.5z"/>
		<path fill="#353535" d="M134.7,166.7h1.2v1.3h-1.2V166.7z M134.7,169.6h1.2v7.9h-1.2V169.6z"/>
		<path fill="#353535" d="M137.3,169.6h1.2l1.3,4.5c0.2,0.7,0.3,1.2,0.6,2.1h0c0.2-0.9,0.4-1.4,0.6-2.1l1.3-4.5h1.1l-2.4,8h-1.3
			L137.3,169.6z"/>
		<path fill="#353535" d="M144.2,175.6c0-1.6,1.3-2.7,4.4-3.3v-0.5c0-0.9-0.4-1.3-1.2-1.3c-1,0-1.7,0.5-2.3,1.1l-0.7-0.7
			c0.8-0.8,1.9-1.4,3.1-1.4c1.5,0,2.2,0.9,2.2,2.4v3.8c0,1,0,1.5,0.2,1.9h-1.2c-0.1-0.3-0.2-0.6-0.2-1c-0.6,0.7-1.5,1.1-2.5,1.1
			C144.9,177.6,144.2,176.9,144.2,175.6z M148.6,175.6v-2.4c-2.4,0.5-3.2,1.4-3.2,2.3c0,0.8,0.4,1.2,1.1,1.2
			C147.3,176.6,148,176.2,148.6,175.6z"/>
		<path fill="#353535" d="M151,176l0.8-0.6c0.5,0.8,1.3,1.2,2.1,1.2c1,0,1.6-0.4,1.6-1.2c0-1.9-4.1-1.2-4.1-4c0-1.3,1-2.1,2.5-2.1
			c1.2,0,2,0.6,2.6,1.4l-0.8,0.6c-0.4-0.6-1-1-1.8-1c-0.9,0-1.3,0.4-1.3,1.1c0,2,4.1,1.1,4.1,4c0,1.4-1.2,2.2-2.7,2.2
			C152.6,177.7,151.6,177,151,176z"/>
	</g>
</g>
<g>
	<g>
		<path fill="#353535" d="M10.6,166.4h2.4c3.1,0,4.7,1.6,4.7,5.5c0,3.9-1.7,5.6-4.7,5.6h-2.4V166.4z M13.2,176.4
			c2.2,0,3.3-1.3,3.3-4.4c0-3-1-4.4-3.3-4.4h-1.3v8.8H13.2z"/>
		<path fill="#353535" d="M19,173.5c0-2.8,1.5-4.1,3.1-4.1c1.8,0,2.8,1.4,2.8,4.1v0.3h-4.7c0,1.9,0.8,2.9,1.9,2.9
			c0.9,0,1.4-0.5,1.9-1.4l0.8,0.5c-0.6,1.1-1.5,1.9-2.8,1.9C20.4,177.7,19,176.3,19,173.5z M23.8,172.9c-0.1-1.4-0.6-2.4-1.7-2.4
			c-0.9,0-1.7,0.7-1.8,2.4H23.8z"/>
		<path fill="#353535" d="M25.8,176l0.8-0.6c0.5,0.8,1.3,1.2,2.1,1.2c1,0,1.6-0.4,1.6-1.2c0-1.9-4.1-1.2-4.1-4c0-1.3,1-2.1,2.5-2.1
			c1.2,0,2,0.6,2.6,1.4l-0.8,0.6c-0.4-0.6-1-1-1.8-1c-0.9,0-1.3,0.4-1.3,1.1c0,2,4.1,1.1,4.1,4c0,1.4-1.2,2.2-2.7,2.2
			C27.4,177.7,26.4,177,25.8,176z"/>
		<path fill="#353535" d="M33.1,166.7h1.2v1.3h-1.2V166.7z M33.1,169.6h1.2v7.9h-1.2V169.6z"/>
		<path fill="#353535" d="M42.3,169.5v1.1c-0.4,0-0.8,0-1.2,0.2c0.2,0.4,0.4,0.9,0.4,1.5c0,1.8-1.1,2.8-2.7,2.8
			c-0.4,0-0.8-0.1-1.1-0.2c-0.3,0.1-0.5,0.3-0.5,0.6c0,0.3,0.2,0.4,0.9,0.5l1.2,0.2c1.9,0.2,2.7,0.8,2.7,2c0,1.4-1.5,2.2-3.4,2.2
			c-2.3,0-3.1-0.7-3.1-1.9c0-0.8,0.5-1.4,1.3-1.8c-0.4-0.2-0.7-0.5-0.7-1c0-0.5,0.4-0.9,0.9-1.2c-0.7-0.5-1-1.3-1-2.3
			c0-1.7,1.2-2.9,2.8-2.9c0.8,0,1.5,0.3,2,0.8C41.2,169.8,41.8,169.6,42.3,169.5z M36.7,178.4c0,0.8,0.5,1.2,2.1,1.2
			c1.3,0,2.2-0.5,2.2-1.2c0-0.6-0.4-1-1.8-1.2l-1.3-0.2c-0.1,0-0.2,0-0.2,0C37,177.4,36.7,177.9,36.7,178.4z M40.4,172.3
			c0-1.2-0.6-1.9-1.6-1.9c-1,0-1.6,0.8-1.6,1.9c0,1.2,0.6,1.9,1.6,1.9C39.8,174.2,40.4,173.5,40.4,172.3z"/>
		<path fill="#353535" d="M43.7,169.6h1.2v1.1c0.5-0.6,1.5-1.3,2.5-1.3c1.3,0,2,0.8,2,2.2v5.9h-1.2v-5.6c0-0.9-0.3-1.4-1.1-1.4
			c-0.8,0-1.6,0.6-2.1,1.1v5.9h-1.2V169.6z"/>
		<path fill="#353535" d="M50.8,173.5c0-2.8,1.5-4.1,3.1-4.1c1.8,0,2.8,1.4,2.8,4.1v0.3H52c0,1.9,0.8,2.9,1.9,2.9
			c0.9,0,1.4-0.5,1.9-1.4l0.8,0.5c-0.6,1.1-1.5,1.9-2.8,1.9C52.2,177.7,50.8,176.3,50.8,173.5z M55.6,172.9
			c-0.1-1.4-0.6-2.4-1.7-2.4c-0.9,0-1.7,0.7-1.8,2.4H55.6z"/>
		<path fill="#353535" d="M58.3,169.6h1.2v1.4h0c0.4-0.8,1.3-1.5,2.5-1.5h0.2l-0.1,1.1c0,0-0.2,0-0.3,0c-1,0-1.9,0.7-2.3,1.6v5.3
			h-1.2V169.6z"/>
		<path fill="#353535" d="M62.8,176l0.8-0.6c0.5,0.8,1.3,1.2,2.1,1.2c1,0,1.6-0.4,1.6-1.2c0-1.9-4.1-1.2-4.1-4c0-1.3,1-2.1,2.5-2.1
			c1.2,0,2,0.6,2.6,1.4l-0.8,0.6c-0.4-0.6-1-1-1.8-1c-0.9,0-1.3,0.4-1.3,1.1c0,2,4.1,1.1,4.1,4c0,1.4-1.2,2.2-2.7,2.2
			C64.4,177.7,63.4,177,62.8,176z"/>
	</g>
</g>
<g>
	<g>
		<path fill="#353535" d="M721.8,175l1.1-0.5c0.5,1.2,1.3,2,2.6,2c1.3,0,2.1-0.7,2.1-1.8c0-1.3-1.1-1.8-2.3-2.4
			c-1.4-0.7-3-1.4-3-3.4c0-1.6,1.3-2.8,3-2.8c1.8,0,2.8,1.1,3.3,2.3l-1.1,0.5c-0.4-0.9-1-1.8-2.2-1.8c-1,0-1.8,0.7-1.8,1.6
			c0,1.3,1.1,1.8,2.2,2.4c1.4,0.7,3,1.4,3,3.4c0,1.6-1.3,2.9-3.3,2.9C723.7,177.7,722.5,176.7,721.8,175z"/>
		<path fill="#353535" d="M731,175.7v-5.1h-1.2v-1h1.2v-2.8h1.2v2.8h1.7v1h-1.7v4.9c0,0.8,0.2,1.2,1.1,1.2c0.2,0,0.5,0,0.7-0.1v1
			c-0.2,0.1-0.6,0.1-0.9,0.1C731.5,177.6,731,177.1,731,175.7z"/>
		<path fill="#353535" d="M735.4,169.6h1.2v1.4h0c0.5-0.8,1.3-1.5,2.5-1.5h0.2l-0.1,1.1c0,0-0.2,0-0.3,0c-1,0-1.9,0.7-2.3,1.6v5.3
			h-1.2V169.6z"/>
		<path fill="#353535" d="M740.1,175.6c0-1.6,1.3-2.7,4.4-3.3v-0.5c0-0.9-0.4-1.3-1.2-1.3c-1,0-1.7,0.5-2.3,1.1l-0.7-0.7
			c0.8-0.8,1.9-1.4,3.1-1.4c1.5,0,2.2,0.9,2.2,2.4v3.8c0,1,0,1.5,0.2,1.9h-1.2c-0.1-0.3-0.2-0.6-0.2-1c-0.6,0.7-1.5,1.1-2.5,1.1
			C740.8,177.6,740.1,176.9,740.1,175.6z M744.5,175.6v-2.4c-2.4,0.5-3.2,1.4-3.2,2.3c0,0.8,0.4,1.2,1.1,1.2
			C743.2,176.6,744,176.2,744.5,175.6z"/>
		<path fill="#353535" d="M748.1,175.7v-5.1h-1.2v-1h1.2v-2.8h1.2v2.8h1.7v1h-1.7v4.9c0,0.8,0.2,1.2,1,1.2c0.2,0,0.5,0,0.7-0.1v1
			c-0.2,0.1-0.6,0.1-0.9,0.1C748.6,177.6,748.1,177.1,748.1,175.7z"/>
		<path fill="#353535" d="M752.1,173.5c0-2.8,1.5-4.1,3.1-4.1c1.8,0,2.8,1.4,2.8,4.1v0.3h-4.7c0,1.9,0.8,2.9,1.9,2.9
			c0.9,0,1.4-0.5,1.9-1.4l0.8,0.5c-0.6,1.1-1.5,1.9-2.8,1.9C753.4,177.7,752.1,176.3,752.1,173.5z M756.8,172.9
			c-0.1-1.4-0.6-2.4-1.7-2.4c-0.9,0-1.7,0.7-1.8,2.4H756.8z"/>
		<path fill="#353535" d="M765.6,169.5v1.1c-0.4,0-0.8,0-1.2,0.2c0.2,0.4,0.4,0.9,0.4,1.5c0,1.8-1.1,2.8-2.7,2.8
			c-0.4,0-0.8-0.1-1.1-0.2c-0.3,0.1-0.4,0.3-0.4,0.6c0,0.3,0.2,0.4,0.9,0.5l1.2,0.2c1.9,0.2,2.7,0.8,2.7,2c0,1.4-1.5,2.2-3.4,2.2
			c-2.3,0-3.1-0.7-3.1-1.9c0-0.8,0.5-1.4,1.3-1.8c-0.4-0.2-0.7-0.5-0.7-1c0-0.5,0.4-0.9,0.9-1.2c-0.7-0.5-1-1.3-1-2.3
			c0-1.7,1.2-2.9,2.8-2.9c0.8,0,1.5,0.3,2,0.8C764.4,169.8,765.1,169.6,765.6,169.5z M759.9,178.4c0,0.8,0.5,1.2,2.1,1.2
			c1.3,0,2.2-0.5,2.2-1.2c0-0.6-0.4-1-1.8-1.2l-1.3-0.2c-0.1,0-0.2,0-0.2,0C760.2,177.4,759.9,177.9,759.9,178.4z M763.6,172.3
			c0-1.2-0.6-1.9-1.6-1.9c-1,0-1.6,0.8-1.6,1.9c0,1.2,0.6,1.9,1.6,1.9C763,174.2,763.6,173.5,763.6,172.3z"/>
		<path fill="#353535" d="M767,166.7h1.2v1.3H767V166.7z M767,169.6h1.2v7.9H767V169.6z"/>
		<path fill="#353535" d="M769.6,176l0.8-0.6c0.5,0.8,1.3,1.2,2.1,1.2c1,0,1.6-0.4,1.6-1.2c0-1.9-4.1-1.2-4.1-4c0-1.3,1-2.1,2.5-2.1
			c1.2,0,2,0.6,2.6,1.4l-0.8,0.6c-0.4-0.6-1-1-1.8-1c-0.9,0-1.3,0.4-1.3,1.1c0,2,4.1,1.1,4.1,4c0,1.4-1.2,2.2-2.7,2.2
			C771.1,177.7,770.2,177,769.6,176z"/>
		<path fill="#353535" d="M777.2,175.7v-5.1h-1.2v-1h1.2v-2.8h1.2v2.8h1.7v1h-1.7v4.9c0,0.8,0.2,1.2,1,1.2c0.2,0,0.5,0,0.7-0.1v1
			c-0.2,0.1-0.6,0.1-0.9,0.1C777.8,177.6,777.2,177.1,777.2,175.7z"/>
		<path fill="#353535" d="M781,176l0.8-0.6c0.5,0.8,1.3,1.2,2.1,1.2c1,0,1.6-0.4,1.6-1.2c0-1.9-4.1-1.2-4.1-4c0-1.3,1-2.1,2.5-2.1
			c1.2,0,2,0.6,2.6,1.4l-0.8,0.6c-0.4-0.6-1-1-1.8-1c-0.9,0-1.3,0.4-1.3,1.1c0,2,4.1,1.1,4.1,4c0,1.4-1.2,2.2-2.7,2.2
			C782.5,177.7,781.6,177,781,176z"/>
	</g>
</g>
</svg>
