<?xml version="1.0" encoding="utf-8"?>
<!-- Generator: Adobe Illustrator 17.1.0, SVG Export Plug-In . SVG Version: 6.00 Build 0)  -->
<!DOCTYPE svg PUBLIC "-//W3C//DTD SVG 1.1//EN" "http://www.w3.org/Graphics/SVG/1.1/DTD/svg11.dtd">
<svg version="1.1" id="Layer_1" xmlns="http://www.w3.org/2000/svg" xmlns:xlink="http://www.w3.org/1999/xlink" x="0px" y="0px"
	 viewBox="0 0 793.6 184.8" enable-background="new 0 0 793.6 184.8" xml:space="preserve">
<g>
	<rect x="0" y="104.2" fill="none" width="78.5" height="53.7"/>
	<text transform="matrix(1 0 0 1 16.2584 143.9003)" fill="#FFFFFF" font-family="'Interborough'" font-size="60">06</text>
</g>
<g>
	<rect x="101.7" y="104.2" fill="none" width="78.5" height="53.7"/>
	<text transform="matrix(1 0 0 1 117.9911 143.9003)" fill="#FFFFFF" font-family="'Interborough'" font-size="60">04</text>
</g>
<g>
	<rect x="203.9" y="104.2" fill="none" width="78.5" height="53.7"/>
	<text transform="matrix(1 0 0 1 220.1668 143.9003)" fill="#FFFFFF" font-family="'Interborough'" font-size="60">09</text>
</g>
<g>
	<rect x="305.2" y="104.2" fill="none" width="78.5" height="53.7"/>
	<text transform="matrix(1 0 0 1 321.4546 143.9003)" fill="#FFFFFF" font-family="'Interborough'" font-size="60">09</text>
</g>
<g>
	<rect x="408.3" y="104.2" fill="none" width="78.5" height="53.7"/>
	<text transform="matrix(1 0 0 1 425.1765 143.9003)" fill="#FFFFFF" font-family="'Interborough'" font-size="60">03</text>
</g>
<g>
	<rect x="715" y="104.2" fill="none" width="78.5" height="53.7"/>
	<text transform="matrix(1 0 0 1 731.2692 143.9003)" fill="#FFFFFF" font-family="'Interborough'" font-size="60">06</text>
</g>
<g>
	<rect x="510.2" y="104.2" fill="none" width="78.5" height="53.7"/>
	<text transform="matrix(1 0 0 1 526.4948 143.9003)" fill="#FFFFFF" font-family="'Interborough'" font-size="60">04</text>
</g>
<g>
	<rect x="611.9" y="104.2" fill="none" width="78.5" height="53.7"/>
	<text transform="matrix(1 0 0 1 633.1877 143.9003)" fill="#FFFFFF" font-family="'Interborough'" font-size="60">01</text>
</g>
<g>
	<rect x="409.4" y="166.4" fill="none" width="76.3" height="18.3"/>
	<text transform="matrix(1 0 0 1 426.3849 177.4933)" fill="#353535" font-family="'BentonSans-CondensedRegular'" font-size="15">Interns</text>
</g>
<g>
	<rect x="511.5" y="166.4" fill="none" width="76" height="17"/>
	<text transform="matrix(1 0 0 1 525.0556 177.4933)" fill="#353535" font-family="'BentonSans-CondensedRegular'" font-size="15">Hackers</text>
</g>
<g>
	<rect x="612.2" y="166.4" fill="none" width="77.8" height="17"/>
	<text transform="matrix(1 0 0 1 626.2354 177.4933)" fill="#353535" font-family="'BentonSans-CondensedRegular'" font-size="15">Farmers</text>
</g>
<g>
	<rect x="306" y="166.4" fill="none" width="76.8" height="18.4"/>
	<text transform="matrix(1 0 0 1 311.0376 177.4933)" fill="#353535" font-family="'BentonSans-CondensedRegular'" font-size="15">Developers</text>
</g>
<g>
	<rect x="204.6" y="166.4" fill="none" width="77" height="17"/>
	<text transform="matrix(1 0 0 1 214.3096 177.4933)" fill="#353535" font-family="'BentonSans-CondensedRegular'" font-size="15">Gym Rats</text>
</g>
<g>
	<rect x="102.2" y="166.4" fill="none" width="77.5" height="18.4"/>
	<text transform="matrix(1 0 0 1 124.7259 177.4933)" fill="#353535" font-family="'BentonSans-CondensedRegular'" font-size="15">Divas</text>
</g>
<g>
	<rect x="0.7" y="166.4" fill="none" width="77" height="17"/>
	<text transform="matrix(1 0 0 1 9.471 177.4933)" fill="#353535" font-family="'BentonSans-CondensedRegular'" font-size="15">Designers</text>
</g>
<g>
	<rect x="714.9" y="166.4" fill="none" width="78.7" height="17"/>
	<text transform="matrix(1 0 0 1 721.3172 177.4933)" fill="#353535" font-family="'BentonSans-CondensedRegular'" font-size="15">Strategists</text>
</g>
</svg>
