<?xml version="1.0" encoding="utf-8"?>
<!-- Generator: Adobe Illustrator 17.1.0, SVG Export Plug-In . SVG Version: 6.00 Build 0)  -->
<!DOCTYPE svg PUBLIC "-//W3C//DTD SVG 1.1//EN" "http://www.w3.org/Graphics/SVG/1.1/DTD/svg11.dtd">
<svg version="1.1" id="Layer_1" xmlns="http://www.w3.org/2000/svg" xmlns:xlink="http://www.w3.org/1999/xlink" x="0px" y="0px"
	 viewBox="0 0 797.6 570.6" enable-background="new 0 0 797.6 570.6" xml:space="preserve">
<g>
	<g>
		<path fill="#353535" d="M582,257.5h1.5v5.6h5.4v-5.6h1.5v13.3h-1.5v-6.3h-5.4v6.3H582V257.5z"/>
		<path fill="#353535" d="M593.1,257.9h1.5v1.6h-1.5V257.9z M593.1,261.3h1.5v9.5h-1.5V261.3z"/>
		<path fill="#353535" d="M596.9,261.3h1.5v1.6h0c0.5-1,1.5-1.8,3-1.8h0.2l-0.1,1.4c0,0-0.3,0-0.3,0c-1.2,0-2.3,0.8-2.8,1.9v6.4
			h-1.5V261.3z"/>
		<path fill="#353535" d="M602.7,266.1c0-3.4,1.8-5,3.7-5c2.1,0,3.4,1.7,3.4,4.9v0.4h-5.6c0.1,2.2,0.9,3.4,2.3,3.4
			c1.1,0,1.7-0.6,2.3-1.7l1,0.6c-0.7,1.4-1.8,2.3-3.3,2.3C604.3,271,602.7,269.4,602.7,266.1z M608.4,265.3c-0.1-1.7-0.7-2.9-2-2.9
			c-1.1,0-2,0.9-2.2,2.9H608.4z"/>
		<path fill="#353535" d="M610.8,269.1l1-0.7c0.6,1,1.6,1.5,2.6,1.5c1.2,0,1.9-0.5,1.9-1.4c0-2.3-5-1.4-5-4.8c0-1.5,1.2-2.6,3-2.6
			c1.4,0,2.4,0.7,3.1,1.7l-1,0.8c-0.5-0.7-1.2-1.3-2.2-1.3c-1.1,0-1.6,0.5-1.6,1.3c0,2.4,4.9,1.3,4.9,4.8c0,1.7-1.5,2.7-3.3,2.7
			C612.7,271,611.5,270.3,610.8,269.1z"/>
		<path fill="#353535" d="M623.6,262.5h-1.4v-1.2h1.4v-1.4c0-1.6,0.8-2.4,2.6-2.4c0.2,0,0.7,0,0.7,0v1.2c0,0-0.5,0-0.5,0
			c-0.8,0-1.3,0.3-1.3,1.2v1.4h1.8v1.2h-1.8v8.3h-1.4V262.5z"/>
		<path fill="#353535" d="M627.9,266.1c0-3.3,1.6-5,3.8-5c2.1,0,3.7,1.7,3.7,5c0,3.3-1.6,5-3.7,5C629.6,271,627.9,269.3,627.9,266.1
			z M633.9,266.1c0-2.1-0.7-3.7-2.3-3.7c-1.5,0-2.3,1.5-2.3,3.7c0,2.1,0.7,3.7,2.3,3.7C633.2,269.8,633.9,268.3,633.9,266.1z"/>
		<path fill="#353535" d="M637.2,268.4v-7.1h1.4v6.8c0,1.1,0.4,1.7,1.4,1.7c0.9,0,1.7-0.6,2.5-1.4v-7.1h1.5v9.5h-1.5v-1.3
			c-0.7,0.8-1.7,1.5-3,1.5C638,271,637.2,270.1,637.2,268.4z"/>
		<path fill="#353535" d="M646.3,261.3h1.5v1.3c0.6-0.7,1.8-1.5,3-1.5c1.5,0,2.3,0.9,2.3,2.6v7.1h-1.4v-6.8c0-1.1-0.4-1.7-1.4-1.7
			c-0.9,0-1.9,0.7-2.6,1.4v7.1h-1.5V261.3z"/>
		<path fill="#353535" d="M654.9,266.1c0-3.4,1.4-5,3.3-5c1.1,0,1.9,0.5,2.6,1.3v-5h1.4v11c0,1.2,0.1,1.9,0.2,2.3h-1.5
			c-0.1-0.3-0.2-0.9-0.2-1.2c-0.6,0.7-1.4,1.4-2.6,1.4C656.3,271,654.9,269.5,654.9,266.1z M660.8,268.5v-4.8
			c-0.7-0.8-1.4-1.3-2.3-1.3c-1.3,0-2.1,1.1-2.1,3.7c0,2.5,0.9,3.7,2.2,3.7C659.4,269.8,660.2,269.1,660.8,268.5z"/>
		<path fill="#353535" d="M667.2,261.3h1.5l1.5,5.4c0.2,0.8,0.4,1.5,0.7,2.6h0c0.3-1.1,0.4-1.7,0.7-2.6l1.5-5.4h1.4l-2.9,9.5h-1.5
			L667.2,261.3z"/>
		<path fill="#353535" d="M676.1,257.9h1.5v1.6h-1.5V257.9z M676.1,261.3h1.5v9.5h-1.5V261.3z"/>
		<path fill="#353535" d="M679.5,268.6c0-1.9,1.6-3.3,5.3-4V264c0-1.1-0.5-1.6-1.4-1.6c-1.2,0-2.1,0.6-2.8,1.3l-0.8-0.9
			c1-1,2.2-1.7,3.8-1.7c1.9,0,2.7,1,2.7,2.9v4.5c0,1.2,0.1,1.9,0.2,2.3H685c-0.1-0.4-0.2-0.7-0.2-1.2c-0.8,0.8-1.8,1.4-3,1.4
			C680.3,270.9,679.5,270.1,679.5,268.6z M684.8,268.5v-2.9c-2.9,0.6-3.9,1.6-3.9,2.8c0,1,0.5,1.4,1.3,1.4
			C683.2,269.8,684.1,269.2,684.8,268.5z"/>
		<path fill="#353535" d="M692.2,257.5h6.7v1.4h-5.2v4.3h3.8v1.4h-3.8v6.3h-1.5V257.5z"/>
		<path fill="#353535" d="M700.2,266.1c0-3.4,1.8-5,3.7-5c2.1,0,3.4,1.7,3.4,4.9v0.4h-5.6c0.1,2.2,0.9,3.4,2.3,3.4
			c1.1,0,1.7-0.6,2.3-1.7l1,0.6c-0.7,1.4-1.8,2.3-3.3,2.3C701.8,271,700.2,269.4,700.2,266.1z M705.8,265.3c-0.1-1.7-0.7-2.9-2-2.9
			c-1.1,0-2,0.9-2.2,2.9H705.8z"/>
		<path fill="#353535" d="M709.7,268.7v-6.2h-1.4v-1.2h1.4v-3.4h1.4v3.4h2.1v1.2h-2.1v5.8c0,1,0.3,1.4,1.3,1.4
			c0.3,0,0.6-0.1,0.8-0.1v1.2c-0.2,0.1-0.7,0.1-1.1,0.1C710.3,270.9,709.7,270.3,709.7,268.7z"/>
		<path fill="#353535" d="M714.5,266.1c0-3.4,1.7-5,3.7-5c1.9,0,2.7,1.3,3.2,2.8l-1.3,0.4c-0.3-1.2-0.8-1.9-1.9-1.9
			c-1.2,0-2.2,1.1-2.2,3.7c0,2.3,0.8,3.7,2.2,3.7c1,0,1.6-0.6,2-2l1.3,0.3c-0.5,1.8-1.6,2.8-3.3,2.8
			C716.1,271,714.5,269.3,714.5,266.1z"/>
		<path fill="#353535" d="M723.1,257.5h1.5v5.1c0.6-0.7,1.8-1.5,3-1.5c1.5,0,2.3,0.9,2.3,2.6v7.1h-1.4v-6.8c0-1.1-0.4-1.7-1.4-1.7
			c-0.9,0-1.9,0.7-2.6,1.4v7.1h-1.5V257.5z"/>
	</g>
</g>
<path fill="none" stroke="#353535" stroke-width="4" stroke-linecap="round" stroke-linejoin="round" stroke-miterlimit="10" d="
	M573.1,109.8v80.3c0,11.3,9.1,20.4,20.4,20.4h21.2v19.9l30.6-19.9h71.3c11.3,0,20.4-9.1,20.4-20.4v-80.3c0-11.3-9.1-20.4-20.4-20.4
	H593.5C582.2,89.3,573.1,98.5,573.1,109.8z"/>
<path fill="none" stroke="#353535" stroke-width="6" stroke-linecap="round" stroke-linejoin="round" stroke-miterlimit="10" d="
	M763.4,368V19.3c0-9-7.3-16.3-16.3-16.3h-62.6H680H563.1c-9,0-16.3,7.3-16.3,16.3V368c0,9,7.3,16.3,16.3,16.3h184
	C756.1,384.3,763.4,377,763.4,368V123.9"/>
<line fill="none" stroke="#353535" stroke-width="4" stroke-linecap="round" stroke-linejoin="round" stroke-miterlimit="10" x1="763.4" y1="300.1" x2="546.8" y2="300.1"/>
<circle fill="none" stroke="#353535" stroke-width="6" stroke-linecap="round" stroke-linejoin="round" stroke-miterlimit="10" cx="655.6" cy="342.1" r="16.3"/>
<g>
	<path fill="#FFFFFF" d="M633.4,176v5.1c0,0.6-0.5,1.1-1.1,1.1h-27.1c-0.6,0-1.1-0.5-1.1-1.1c0,0,0-5.7,0-6.4c0-4.4,2.2-11.6,5.9-16
		c2.1-2.6,8.9-10.7,10.8-12.9c4.3-5.2,5.4-7.2,5.4-11.9c0-4.9-1.2-10.6-7.2-10.6c-3.3,0-7.3,1.3-7.3,10.6v3.7c0,0.6-0.5,1.1-1.1,1.1
		h-5.2c-0.6,0-1.1-0.5-1.1-1.1v-4.2c0-10.2,4.9-17.1,14.9-17.1c9.2,0,14.3,6.7,14.4,16.8v1.7c0,7.9-3.7,11.6-7.3,16.1
		c-7.3,8.7-14.4,16.1-14.4,22.5v1.6h20.4C632.9,175,633.4,175.5,633.4,176z"/>
	<path fill="#FFFFFF" d="M671.3,160.6v6.1c0,11-5.3,16.6-15.3,16.6c-10.4,0-15-5.6-15.4-16.6v-6.1c0-4.2,1.4-7.6,3.7-9.9
		c0.7-0.8,1.6-1.4,2.4-1.9c-3.2-2.2-5.5-5.9-5.5-10.9v-5.4c0.1-9.7,4.2-16.2,14.8-16.2c10,0,14.7,6.5,14.7,16.2v5.4
		c0,5-2.3,8.7-5.5,10.9c0.9,0.5,1.7,1.1,2.4,1.9C669.9,153,671.3,156.4,671.3,160.6z M656,176.1c4,0,7.6-2.2,7.6-8.2v-7.3
		c0-5.7-3.6-7.8-7.6-7.8c-4.1,0-7.7,2.1-7.7,7.8v7.3C648.3,173.9,651.9,176.1,656,176.1z M656,123.5c-4.2,0-6.9,2.3-6.9,8.4v5.3
		c0,6,2.7,8.3,6.9,8.3c4.1,0,6.8-2.3,6.8-8.3v-5.3C662.8,125.8,660.1,123.5,656,123.5z"/>
	<path fill="#FFFFFF" d="M709.2,160.8v6.7c0,8.4-5.7,15.8-15.1,15.8c-9.1,0-14.6-6.4-14.6-14.5v-35.4c0-10.7,5.5-17,14.5-17
		c9.1,0,15,6.3,15,15.7v5.1c0,0.6-0.5,1-0.9,1h-5.8c-0.5,0-1-0.4-1-1v-5.6c0-4.3-1.6-8-7.1-8c-5.1,0-7.1,3.7-7.1,8v17
		c2.1-3.3,5.4-3.5,7.9-3.5C702.5,145.1,709.2,151,709.2,160.8z M687,160.6v7.9c0,5.3,3,7.9,7.3,7.9c4.3,0,7.3-3.5,7.3-7.9v-7.9
		c0-6-3-8.3-7.3-8.3C690.2,152.3,687,154.6,687,160.6z"/>
</g>
<g>
	<path fill="#353535" d="M30.2,330.8v112.7c0,1.1-0.9,2-2,2h-9.2c-1.1,0-1.8-0.9-1.8-2v-93.8H5.6c-1.1,0-2-0.9-2-2v-4.9
		c0-1.1,0.9-2,1.8-2c14.4-5.2,10.6-12.1,16.7-12.1c1.4,0,6.1,0,6.1,0C29.3,328.8,30.2,329.7,30.2,330.8z"/>
	<path fill="#353535" d="M101,406.6v11c0,19.8-9.5,29.9-27.5,29.9c-18.7,0-27-10.1-27.7-29.9v-11c0-7.6,2.5-13.7,6.7-17.8
		c1.3-1.4,2.9-2.5,4.3-3.4c-5.8-4-9.9-10.6-9.9-19.6V356c0.2-17.5,7.6-29.2,26.6-29.2c18,0,26.5,11.7,26.5,29.2v9.7
		c0,9-4.1,15.7-9.9,19.6c1.6,0.9,3.1,2,4.3,3.4C98.5,392.9,101,399,101,406.6z M73.4,434.5c7.2,0,13.7-4,13.7-14.8v-13.1
		c0-10.3-6.5-14-13.7-14c-7.4,0-13.9,3.8-13.9,14v13.1C59.6,430.5,66.1,434.5,73.4,434.5z M73.4,339.8c-7.6,0-12.4,4.1-12.4,15.1
		v9.5c0,10.8,4.9,14.9,12.4,14.9c7.4,0,12.2-4.1,12.2-14.9v-9.5C85.7,343.9,80.8,339.8,73.4,339.8z"/>
	<path fill="#353535" d="M128.3,434.1v8.8c0,1.8-0.9,3.4-1.4,4.7l-5.8,13.3c-0.4,0.5-0.5,1.1-1.3,1.1h-3.4c-0.7,0-0.9-0.5-0.7-1.1
		l3.6-15.5h-2.9c-1.1,0-1.8-0.7-1.8-1.8v-9.5c0-0.9,0.7-1.8,1.8-1.8h10.1C127.4,432.3,128.3,433.2,128.3,434.1z"/>
	<path fill="#353535" d="M195.8,355.1v64.4c0,16.7-10.6,28.1-26.1,28.1c-15.1,0-25.9-11.3-25.9-28.1v-64.4
		c0-16.9,9.7-28.1,25.9-28.1C186.3,327,195.8,338.2,195.8,355.1z M182.2,355.5c0-11.2-5-15.5-12.4-15.5c-7,0-12.2,4.3-12.2,15.5
		v63.7c0,11.2,5.2,15.5,12.2,15.5c7.4,0,12.4-4.3,12.4-15.5V355.5z"/>
	<path fill="#353535" d="M264.4,355.1v64.4c0,16.7-10.6,28.1-26.1,28.1c-15.1,0-25.9-11.3-25.9-28.1v-64.4
		c0-16.9,9.7-28.1,25.9-28.1C254.9,327,264.4,338.2,264.4,355.1z M250.7,355.5c0-11.2-5-15.5-12.4-15.5c-7,0-12.2,4.3-12.2,15.5
		v63.7c0,11.2,5.2,15.5,12.2,15.5c7.4,0,12.4-4.3,12.4-15.5V355.5z"/>
	<path fill="#353535" d="M333,355.1v64.4c0,16.7-10.6,28.1-26.1,28.1c-15.1,0-25.9-11.3-25.9-28.1v-64.4c0-16.9,9.7-28.1,25.9-28.1
		C323.5,327,333,338.2,333,355.1z M319.3,355.5c0-11.2-5-15.5-12.4-15.5c-7,0-12.2,4.3-12.2,15.5v63.7c0,11.2,5.2,15.5,12.2,15.5
		c7.4,0,12.4-4.3,12.4-15.5V355.5z"/>
</g>
<g>
	<g>
		<path fill="#FFFFFF" d="M340.7,348.4v17.7c0,3.3-2.1,5.6-5.3,5.6c-3.2,0-5.3-2.3-5.3-5.6v-2.2c0-0.2,0.2-0.4,0.4-0.4h1.9
			c0.2,0,0.4,0.2,0.4,0.4v2.2c0,2.2,1.1,3.1,2.6,3.1c1.5,0,2.6-0.8,2.6-3.1v-15.5h-3.7c-0.2,0-0.4-0.2-0.4-0.4v-1.8
			c0-0.2,0.2-0.4,0.4-0.4h6C340.5,348.1,340.7,348.2,340.7,348.4z"/>
		<path fill="#FFFFFF" d="M354.7,353.3v12.9c0,3.3-2.1,5.6-5.3,5.6c-3.2,0-5.3-2.3-5.3-5.6v-12.9c0-3.4,1.8-5.6,5.3-5.6
			C352.8,347.7,354.7,349.9,354.7,353.3z M351.9,353.3c0-2.2-1-3.1-2.6-3.1c-1.5,0-2.6,0.8-2.6,3.1v12.8c0,2.2,1,3.1,2.6,3.1
			c1.5,0,2.6-0.8,2.6-3.1V353.3z"/>
		<path fill="#FFFFFF" d="M366.5,359.1c1.9,0.5,2.8,2.6,2.8,5.5c0,3.7-1.2,6.7-5.8,6.7h-5c-0.2,0-0.4-0.2-0.4-0.4v-22.5
			c0-0.2,0.2-0.4,0.4-0.4h4c3.8,0,6.2,2.6,6.2,6.4C368.7,356.5,368.2,358.4,366.5,359.1z M366.2,354.3c0-1.3-0.8-3.6-3.3-3.6h-2v7.5
			h2C365.2,358.2,366.2,356.5,366.2,354.3z M366.7,364.9c0-3-1.2-4-3.3-4h-2.4v7.9h2.4C365.5,368.8,366.7,367.7,366.7,364.9z"/>
		<path fill="#FFFFFF" d="M372.3,362.2c-0.2,0-0.4-0.2-0.4-0.4V360c0-0.2,0.2-0.4,0.4-0.4h5.6c0.2,0,0.4,0.2,0.4,0.4v1.8
			c0,0.2-0.2,0.4-0.4,0.4H372.3z"/>
		<path fill="#FFFFFF" d="M391.9,364.3c0,0.6,0,2.2,0,2.2c0,3.2-2.3,5.3-5.3,5.3c-3.2,0-5.5-2.3-5.5-5.8v-2.1c0-0.2,0.1-0.4,0.4-0.4
			h1.9c0.2,0,0.4,0.2,0.4,0.4v2.6c0,2.1,1.3,2.9,2.9,2.9c1.9,0,2.6-1.3,2.6-2.9v-1.9c0-1.4-0.5-2.1-2.3-3.7l-2.8-2.6
			c-1.5-1.4-2.7-3.5-2.7-5.1c0-3.3,1.9-5.5,5.2-5.5c3.2,0,5.3,2.2,5.3,5.6v1.9c0,0.2-0.1,0.3-0.3,0.3h-2c-0.1,0-0.3-0.1-0.3-0.3V353
			c0-2.2-1.1-3-2.6-3c-1.5,0-2.4,1-2.4,3c0,0.5,0.1,1.7,2.1,3.5c0.6,0.6,3.5,3.3,3.5,3.3C391.7,361.6,391.9,363.4,391.9,364.3z"/>
		<path fill="#FFFFFF" d="M397.6,350.7v7.2h4.6c0.2,0,0.4,0.2,0.4,0.4v1.7c0,0.2-0.2,0.4-0.4,0.4h-4.6v8.4h6.6
			c0.2,0,0.4,0.2,0.4,0.4v1.8c0,0.2-0.2,0.4-0.4,0.4h-9c-0.2,0-0.4-0.2-0.4-0.4v-22.5c0-0.2,0.2-0.4,0.4-0.4h9
			c0.2,0,0.4,0.2,0.4,0.4v1.8c0,0.2-0.2,0.4-0.4,0.4H397.6z"/>
		<path fill="#FFFFFF" d="M410.1,350.7v7.2h4.6c0.2,0,0.4,0.2,0.4,0.4v1.7c0,0.2-0.2,0.4-0.4,0.4h-4.6v8.4h6.6
			c0.2,0,0.4,0.2,0.4,0.4v1.8c0,0.2-0.2,0.4-0.4,0.4h-9c-0.2,0-0.4-0.2-0.4-0.4v-22.5c0-0.2,0.2-0.4,0.4-0.4h9
			c0.2,0,0.4,0.2,0.4,0.4v1.8c0,0.2-0.2,0.4-0.4,0.4H410.1z"/>
		<path fill="#FFFFFF" d="M431.2,371.4h-1.7c-0.3,0-0.5-0.2-0.6-0.4l-3.9-11.1l-2.3,5.1v6c0,0.2-0.2,0.4-0.4,0.4h-1.9
			c-0.2,0-0.4-0.2-0.4-0.4v-22.5c0-0.2,0.2-0.4,0.4-0.4h1.9c0.2,0,0.4,0.3,0.4,0.4v11.4l5-11.4c0.1-0.2,0.2-0.5,0.5-0.5h2.1
			c0.3,0,0.4,0.1,0.3,0.5l-4,8.7l4.9,13.6C431.6,371.1,431.5,371.3,431.2,371.4z"/>
		<path fill="#FFFFFF" d="M436.6,350.7v7.2h4.6c0.2,0,0.4,0.2,0.4,0.4v1.7c0,0.2-0.2,0.4-0.4,0.4h-4.6v8.4h6.6
			c0.2,0,0.4,0.2,0.4,0.4v1.8c0,0.2-0.2,0.4-0.4,0.4h-9c-0.2,0-0.4-0.2-0.4-0.4v-22.5c0-0.2,0.2-0.4,0.4-0.4h9
			c0.2,0,0.4,0.2,0.4,0.4v1.8c0,0.2-0.2,0.4-0.4,0.4H436.6z"/>
		<path fill="#FFFFFF" d="M458.1,369.4v1.7c0,0.2-0.1,0.3-0.4,0.3c-3.1,0-3.5-2.4-3.5-6.2c0-3-0.7-3.9-3.4-3.9h-1.7v9.8
			c0,0.2-0.2,0.4-0.4,0.4h-1.8c-0.2,0-0.4-0.2-0.4-0.4v-22.5c0-0.2,0.2-0.4,0.4-0.4h3.9c3.9,0,6.4,2.1,6.4,6.7c0,2.8-1,4.6-2.8,5.1
			c2.3,0.5,2.4,2.6,2.4,4.4c0,0.2,0,2.1,0,2.3c0,2.3,0.6,2.3,1,2.4C457.9,369,458.1,369.1,458.1,369.4z M449.2,358.6h1.8
			c3,0,3.6-1.8,3.6-4c0-1.8-0.5-4-3.6-4h-1.8V358.6z"/>
		<path fill="#FFFFFF" d="M471,364.3c0,0.6,0,2.2,0,2.2c0,3.2-2.3,5.3-5.3,5.3c-3.2,0-5.5-2.3-5.5-5.8v-2.1c0-0.2,0.1-0.4,0.4-0.4
			h1.9c0.2,0,0.4,0.2,0.4,0.4v2.6c0,2.1,1.3,2.9,2.9,2.9c1.9,0,2.6-1.3,2.6-2.9v-1.9c0-1.4-0.5-2.1-2.3-3.7l-2.8-2.6
			c-1.5-1.4-2.7-3.5-2.7-5.1c0-3.3,1.9-5.5,5.2-5.5c3.2,0,5.3,2.2,5.3,5.6v1.9c0,0.2-0.1,0.3-0.3,0.3h-2c-0.1,0-0.3-0.1-0.3-0.3V353
			c0-2.2-1.1-3-2.6-3c-1.5,0-2.4,1-2.4,3c0,0.5,0.1,1.7,2.1,3.5c0.6,0.6,3.5,3.3,3.5,3.3C470.8,361.6,471,363.4,471,364.3z"/>
		<path fill="#FFFFFF" d="M366.5,405.4v1.7c0,0.2-0.1,0.3-0.4,0.3c-3.1,0-3.5-2.4-3.5-6.2c0-3-0.7-3.9-3.4-3.9h-1.7v9.8
			c0,0.2-0.2,0.4-0.4,0.4h-1.8c-0.2,0-0.4-0.2-0.4-0.4v-22.5c0-0.2,0.2-0.4,0.4-0.4h3.9c3.9,0,6.4,2.1,6.4,6.7c0,2.8-1,4.6-2.8,5.1
			c2.3,0.5,2.4,2.6,2.4,4.4c0,0.2,0,2.1,0,2.3c0,2.3,0.6,2.3,1,2.4C366.3,405,366.5,405.1,366.5,405.4z M357.6,394.6h1.8
			c3,0,3.6-1.8,3.6-4c0-1.8-0.5-4-3.6-4h-1.8V394.6z"/>
		<path fill="#FFFFFF" d="M371.9,386.7v7.2h4.6c0.2,0,0.4,0.2,0.4,0.4v1.7c0,0.2-0.2,0.4-0.4,0.4h-4.6v8.4h6.6
			c0.2,0,0.4,0.2,0.4,0.4v1.8c0,0.2-0.2,0.4-0.4,0.4h-9c-0.2,0-0.4-0.2-0.4-0.4v-22.5c0-0.2,0.2-0.4,0.4-0.4h9
			c0.2,0,0.4,0.2,0.4,0.4v1.8c0,0.2-0.2,0.4-0.4,0.4H371.9z"/>
		<path fill="#FFFFFF" d="M393.1,407c0,0.2-0.2,0.4-0.4,0.4h-2c-0.2,0-0.4-0.1-0.4-0.4l-0.7-4.5h-5.3l-0.7,4.5
			c-0.1,0.3-0.2,0.4-0.4,0.4h-2c-0.2,0-0.4-0.2-0.4-0.4l4.2-22.5c0.1-0.2,0.2-0.4,0.4-0.4h3c0.2,0,0.3,0.2,0.4,0.4L393.1,407z
			 M389.2,400l-2.2-13l-2.2,13H389.2z"/>
		<path fill="#FFFFFF" d="M406,389.3v2.2c0,0.2-0.2,0.4-0.4,0.4h-1.9c-0.2,0-0.4-0.2-0.4-0.4v-2.1c0-2.2-1.1-3.1-2.7-3.1
			c-1.5,0-2.6,0.8-2.6,3.1v12.8c0,2.2,1.1,3.1,2.6,3.1c1.5,0,2.7-0.8,2.7-3.1v-2.2c0-0.2,0.2-0.4,0.4-0.4h1.9c0.2,0,0.4,0.2,0.4,0.4
			v2.2c0,3.3-2.1,5.6-5.3,5.6c-3.2,0-5.3-2.3-5.3-5.6v-12.9c0-3.4,1.8-5.6,5.3-5.6C404.2,383.7,406,385.9,406,389.3z"/>
		<path fill="#FFFFFF" d="M419.7,384.5V407c0,0.2-0.2,0.4-0.4,0.4h-2c-0.2,0-0.4-0.2-0.4-0.4v-10.3h-5.3V407c0,0.2-0.1,0.4-0.4,0.4
			h-2c-0.2,0-0.4-0.2-0.4-0.4v-22.5c0-0.2,0.2-0.4,0.4-0.4h2c0.2,0,0.4,0.2,0.4,0.4v9.7h5.3v-9.7c0-0.2,0.1-0.4,0.4-0.4h2
			C419.5,384.1,419.7,384.3,419.7,384.5z"/>
		<path fill="#FFFFFF" d="M426,386.7v7.2h4.6c0.2,0,0.4,0.2,0.4,0.4v1.7c0,0.2-0.2,0.4-0.4,0.4H426v8.4h6.6c0.2,0,0.4,0.2,0.4,0.4
			v1.8c0,0.2-0.2,0.4-0.4,0.4h-9c-0.2,0-0.4-0.2-0.4-0.4v-22.5c0-0.2,0.2-0.4,0.4-0.4h9c0.2,0,0.4,0.2,0.4,0.4v1.8
			c0,0.2-0.2,0.4-0.4,0.4H426z"/>
		<path fill="#FFFFFF" d="M446.6,401.6c0,3.5-1.8,5.8-5.3,5.8h-5c-0.2,0-0.4-0.2-0.4-0.4v-22.5c0-0.2,0.2-0.4,0.4-0.4h5
			c3.8,0,5.4,2.7,5.4,6.3V401.6z M441.3,404.8c1.8,0,2.5-1.2,2.5-2.6v-12.5c0-1.5-0.5-3-2.5-3h-2.8v18.1H441.3z"/>
	</g>
</g>
<circle fill="none" stroke="#FFFFFF" stroke-width="2" stroke-miterlimit="10" cx="399.5" cy="370.1" r="90.6"/>
<g>
	<g>
		<path fill="#353535" d="M5.8,475.8h1.5v13.3H5.8V475.8z"/>
		<path fill="#353535" d="M9.9,479.6h1.5v1.3c0.6-0.7,1.8-1.5,3-1.5c1.5,0,2.3,0.9,2.3,2.6v7.1h-1.4v-6.8c0-1.1-0.4-1.7-1.4-1.7
			c-0.9,0-1.9,0.7-2.6,1.4v7.1H9.9V479.6z"/>
		<path fill="#353535" d="M27.2,486h-5.4v-1.2l5.1-9.1h1.7v8.9h1.9v1.3h-1.9v3.1h-1.4V486z M27.3,484.6v-6.8h0l-3.8,6.8H27.3z"/>
		<path fill="#353535" d="M34.9,487.3l1-0.7c0.6,1,1.6,1.5,2.6,1.5c1.2,0,1.9-0.5,1.9-1.4c0-2.3-5-1.4-5-4.8c0-1.5,1.2-2.6,3-2.6
			c1.4,0,2.4,0.7,3.1,1.7l-1,0.8c-0.5-0.7-1.2-1.3-2.2-1.3c-1.1,0-1.6,0.5-1.6,1.3c0,2.4,4.9,1.3,4.9,4.8c0,1.7-1.5,2.7-3.3,2.7
			C36.8,489.3,35.6,488.5,34.9,487.3z"/>
		<path fill="#353535" d="M44.1,486.9v-6.2h-1.4v-1.2h1.4v-3.4h1.4v3.4h2.1v1.2h-2.1v5.8c0,1,0.3,1.4,1.3,1.4c0.3,0,0.6-0.1,0.8-0.1
			v1.2c-0.2,0.1-0.7,0.1-1.1,0.1C44.7,489.2,44.1,488.6,44.1,486.9z"/>
		<path fill="#353535" d="M48.8,486.8c0-1.9,1.6-3.3,5.3-4v-0.6c0-1.1-0.5-1.6-1.4-1.6c-1.2,0-2.1,0.6-2.8,1.3l-0.8-0.9
			c1-1,2.3-1.7,3.8-1.7c1.9,0,2.7,1,2.7,2.9v4.5c0,1.2,0.1,1.9,0.2,2.3h-1.5c-0.1-0.4-0.2-0.7-0.2-1.2c-0.8,0.8-1.8,1.3-3,1.3
			C49.7,489.2,48.8,488.3,48.8,486.8z M54.2,486.8v-2.9c-2.9,0.6-3.9,1.6-3.9,2.8c0,1,0.5,1.4,1.3,1.4
			C52.6,488,53.5,487.5,54.2,486.8z"/>
		<path fill="#353535" d="M58.4,486.9v-6.2H57v-1.2h1.4v-3.4h1.4v3.4h2.1v1.2h-2.1v5.8c0,1,0.3,1.4,1.3,1.4c0.3,0,0.6-0.1,0.8-0.1
			v1.2c-0.2,0.1-0.7,0.1-1.1,0.1C59.1,489.2,58.4,488.6,58.4,486.9z"/>
		<path fill="#353535" d="M63.2,484.3c0-3.4,1.8-5,3.7-5c2.1,0,3.4,1.7,3.4,4.9v0.4h-5.6c0.1,2.2,0.9,3.4,2.3,3.4
			c1.1,0,1.7-0.6,2.3-1.7l1,0.6c-0.7,1.4-1.8,2.2-3.3,2.2C64.8,489.3,63.2,487.6,63.2,484.3z M68.9,483.5c-0.1-1.7-0.7-2.9-2-2.9
			c-1.1,0-2,0.9-2.2,2.9H68.9z"/>
		<path fill="#353535" d="M71.3,487.3l1-0.7c0.6,1,1.6,1.5,2.6,1.5c1.2,0,1.9-0.5,1.9-1.4c0-2.3-5-1.4-5-4.8c0-1.5,1.2-2.6,3-2.6
			c1.4,0,2.4,0.7,3.1,1.7l-1,0.8c-0.5-0.7-1.2-1.3-2.2-1.3c-1.1,0-1.6,0.5-1.6,1.3c0,2.4,4.9,1.3,4.9,4.8c0,1.7-1.5,2.7-3.3,2.7
			C73.3,489.3,72.1,488.5,71.3,487.3z"/>
		<path fill="#353535" d="M85,488v1.1h-1.5v-13.3H85v5c0.6-0.7,1.4-1.4,2.6-1.4c1.9,0,3.2,1.5,3.2,4.9c0,3.4-1.5,4.9-3.3,4.9
			C86.4,489.2,85.7,488.7,85,488z M89.4,484.3c0-2.5-0.9-3.7-2.1-3.7c-0.9,0-1.6,0.6-2.2,1.3v4.8c0.7,0.8,1.4,1.3,2.3,1.3
			C88.5,488,89.4,486.9,89.4,484.3z"/>
		<path fill="#353535" d="M91.7,492.5l0.3-1.2c0.2,0.1,0.7,0.1,1.2,0.1c0.8,0,1.2-0.5,1.5-1.5l0.3-0.8l-3-9.6h1.5l1.4,5
			c0.3,1,0.5,1.9,0.8,2.9h0c0.3-1,0.5-1.9,0.8-3l1.4-4.9h1.4l-3.3,10.6c-0.6,1.7-1.2,2.6-2.8,2.6C92.5,492.7,91.9,492.6,91.7,492.5z
			"/>
		<path fill="#353535" d="M109.1,486h-5.4v-1.2l5.1-9.1h1.7v8.9h1.9v1.3h-1.9v3.1h-1.4V486z M109.2,484.6v-6.8h0l-3.8,6.8H109.2z"/>
		<path fill="#353535" d="M113.6,482.4c0-4.5,1.5-6.9,4.3-6.9c2.8,0,4.3,2.4,4.3,6.9c0,4.5-1.5,6.9-4.3,6.9
			C115.1,489.3,113.6,486.9,113.6,482.4z M120.7,482.4c0-3.9-1-5.6-2.8-5.6c-1.8,0-2.8,1.7-2.8,5.6c0,3.9,1,5.6,2.8,5.6
			C119.7,488,120.7,486.3,120.7,482.4z"/>
		<path fill="#353535" d="M127.7,479.6h1.5v1.6h0c0.5-1,1.5-1.8,3-1.8h0.2l-0.1,1.4c0,0-0.3,0-0.3,0c-1.2,0-2.3,0.8-2.8,1.9v6.4
			h-1.5V479.6z"/>
		<path fill="#353535" d="M133.5,484.3c0-3.4,1.8-5,3.7-5c2.1,0,3.4,1.7,3.4,4.9v0.4h-5.6c0.1,2.2,0.9,3.4,2.3,3.4
			c1.1,0,1.7-0.6,2.3-1.7l1,0.6c-0.7,1.4-1.8,2.2-3.3,2.2C135.1,489.3,133.5,487.6,133.5,484.3z M139.1,483.5
			c-0.1-1.7-0.7-2.9-2-2.9c-1.1,0-2,0.9-2.2,2.9H139.1z"/>
		<path fill="#353535" d="M141.9,484.3c0-3.4,1.7-5,3.7-5c1.9,0,2.7,1.3,3.2,2.8l-1.3,0.4c-0.3-1.2-0.8-1.9-1.9-1.9
			c-1.2,0-2.2,1.1-2.2,3.7c0,2.3,0.8,3.7,2.2,3.7c1,0,1.6-0.6,2-2l1.3,0.3c-0.5,1.8-1.6,2.8-3.3,2.8
			C143.5,489.3,141.9,487.6,141.9,484.3z"/>
		<path fill="#353535" d="M150.6,479.6h1.5v1.6h0c0.5-1,1.5-1.8,3-1.8h0.2l-0.1,1.4c0,0-0.3,0-0.3,0c-1.2,0-2.3,0.8-2.8,1.9v6.4
			h-1.5V479.6z"/>
		<path fill="#353535" d="M156.7,486.6v-7.1h1.4v6.8c0,1.1,0.4,1.7,1.4,1.7c0.9,0,1.7-0.6,2.5-1.4v-7.1h1.5v9.5h-1.5v-1.3
			c-0.7,0.8-1.7,1.5-3,1.5C157.5,489.3,156.7,488.4,156.7,486.6z"/>
		<path fill="#353535" d="M165.9,476.1h1.5v1.6h-1.5V476.1z M165.9,479.6h1.5v9.5h-1.5V479.6z"/>
		<path fill="#353535" d="M170.4,486.9v-6.2H169v-1.2h1.4v-3.4h1.4v3.4h2.1v1.2h-2.1v5.8c0,1,0.3,1.4,1.3,1.4c0.3,0,0.6-0.1,0.8-0.1
			v1.2c-0.2,0.1-0.7,0.1-1.1,0.1C171,489.2,170.4,488.6,170.4,486.9z"/>
		<path fill="#353535" d="M175.2,484.3c0-3.4,1.8-5,3.7-5c2.1,0,3.4,1.7,3.4,4.9v0.4h-5.6c0.1,2.2,0.9,3.4,2.3,3.4
			c1.1,0,1.7-0.6,2.3-1.7l1,0.6c-0.7,1.4-1.8,2.2-3.3,2.2C176.8,489.3,175.2,487.6,175.2,484.3z M180.9,483.5
			c-0.1-1.7-0.7-2.9-2-2.9c-1.1,0-2,0.9-2.2,2.9H180.9z"/>
		<path fill="#353535" d="M184.1,479.6h1.5v1.6h0c0.5-1,1.5-1.8,3-1.8h0.2l-0.1,1.4c0,0-0.3,0-0.3,0c-1.2,0-2.3,0.8-2.8,1.9v6.4
			h-1.5V479.6z"/>
		<path fill="#353535" d="M189.5,487.3l1-0.7c0.6,1,1.6,1.5,2.6,1.5c1.2,0,1.9-0.5,1.9-1.4c0-2.3-5-1.4-5-4.8c0-1.5,1.2-2.6,3-2.6
			c1.4,0,2.4,0.7,3.1,1.7l-1,0.8c-0.5-0.7-1.2-1.3-2.2-1.3c-1.1,0-1.6,0.5-1.6,1.3c0,2.4,4.9,1.3,4.9,4.8c0,1.7-1.5,2.7-3.3,2.7
			C191.4,489.3,190.3,488.5,189.5,487.3z"/>
		<path fill="#353535" d="M200.9,479.6h1.4l1.2,4.8c0.2,0.9,0.4,1.5,0.6,2.6h0c0.2-1.1,0.3-1.7,0.6-2.7l1-4.7h1.3l1.1,4.7
			c0.2,1,0.4,1.7,0.6,2.8h0c0.2-1,0.4-1.8,0.6-2.8l1.1-4.7h1.3l-2.4,9.5H208l-1.7-7.3h0l-1.7,7.3h-1.3L200.9,479.6z"/>
		<path fill="#353535" d="M213.3,476.1h1.5v1.6h-1.5V476.1z M213.3,479.6h1.5v9.5h-1.5V479.6z"/>
		<path fill="#353535" d="M217.7,486.9v-6.2h-1.4v-1.2h1.4v-3.4h1.4v3.4h2.1v1.2h-2.1v5.8c0,1,0.3,1.4,1.3,1.4
			c0.3,0,0.6-0.1,0.8-0.1v1.2c-0.2,0.1-0.7,0.1-1.1,0.1C218.4,489.2,217.7,488.6,217.7,486.9z"/>
		<path fill="#353535" d="M223,475.8h1.5v5.1c0.6-0.7,1.8-1.5,3-1.5c1.5,0,2.3,0.9,2.3,2.6v7.1h-1.4v-6.8c0-1.1-0.4-1.7-1.4-1.7
			c-0.9,0-1.9,0.7-2.6,1.4v7.1H223V475.8z"/>
		<path fill="#353535" d="M235.3,482.7c0-4.2,1.5-7.1,4.4-7.1c1.7,0,2.5,0.9,3.1,1.7l-1.1,0.8c-0.5-0.6-1-1.2-2-1.2
			c-2,0-2.9,2.2-3,5.4c0.8-0.9,1.8-1.5,3.1-1.5c2.5,0,3.5,1.8,3.5,4.2c0,2.5-1.4,4.4-3.9,4.4C237,489.3,235.3,487.2,235.3,482.7z
			 M241.9,484.9c0-1.7-0.6-2.9-2.3-2.9c-1.1,0-2.1,0.6-2.8,1.6c0.2,3,1.2,4.5,2.8,4.5C241,488.1,241.9,487,241.9,484.9z"/>
		<path fill="#353535" d="M244.2,486.4l1.3-0.5c0.6,1.6,1.5,2.2,2.8,2.2c1.6,0,2.6-1,2.6-2.6c0-1.9-1-2.8-3.4-2.8H247v-1.2h0.8
			c2,0,2.8-0.9,2.8-2.5c0-1.2-0.6-2.1-2.1-2.1c-1.1,0-2,0.6-2.6,1.5l-1.1-0.7c0.9-1.3,2.2-2.1,3.8-2.1c2.4,0,3.4,1.5,3.4,3.3
			c0,1.7-1,2.8-2.2,3.2c1.5,0.5,2.5,1.5,2.5,3.5c0,2.2-1.6,3.8-4,3.8C246.1,489.3,244.9,488.2,244.2,486.4z"/>
		<path fill="#353535" d="M257.4,484.3c0-3.4,1.7-5,3.7-5c1.9,0,2.7,1.3,3.2,2.8l-1.3,0.4c-0.3-1.2-0.8-1.9-1.9-1.9
			c-1.2,0-2.2,1.1-2.2,3.7c0,2.3,0.8,3.7,2.2,3.7c1,0,1.6-0.6,2-2l1.3,0.3c-0.5,1.8-1.6,2.8-3.3,2.8
			C259.1,489.3,257.4,487.6,257.4,484.3z"/>
		<path fill="#353535" d="M265.6,486.8c0-1.9,1.6-3.3,5.3-4v-0.6c0-1.1-0.5-1.6-1.4-1.6c-1.2,0-2.1,0.6-2.8,1.3l-0.8-0.9
			c1-1,2.3-1.7,3.8-1.7c1.9,0,2.7,1,2.7,2.9v4.5c0,1.2,0.1,1.9,0.2,2.3h-1.5c-0.1-0.4-0.2-0.7-0.2-1.2c-0.8,0.8-1.8,1.3-3,1.3
			C266.4,489.2,265.6,488.3,265.6,486.8z M270.9,486.8v-2.9c-2.9,0.6-3.9,1.6-3.9,2.8c0,1,0.5,1.4,1.3,1.4
			C269.3,488,270.2,487.5,270.9,486.8z"/>
		<path fill="#353535" d="M274.6,479.6h1.5v1.3c0.7-0.7,1.7-1.5,2.9-1.5c1.3,0,1.9,0.5,2.2,1.5c0.7-0.8,1.7-1.5,3-1.5
			c1.5,0,2.3,0.9,2.3,2.6v7.1h-1.4v-6.8c0-1.1-0.4-1.7-1.3-1.7c-0.9,0-1.7,0.6-2.4,1.3v7.1h-1.5v-6.8c0-1.1-0.3-1.7-1.3-1.7
			c-0.8,0-1.6,0.6-2.4,1.4v7.1h-1.5V479.6z"/>
		<path fill="#353535" d="M288.6,479.6h1.5v1.2c0.6-0.7,1.4-1.4,2.6-1.4c1.9,0,3.2,1.5,3.2,4.9c0,3.4-1.4,4.9-3.3,4.9
			c-1.1,0-1.9-0.5-2.5-1.3v4.8h-1.5V479.6z M294.4,484.3c0-2.5-0.9-3.7-2.1-3.7c-0.9,0-1.7,0.6-2.2,1.3v4.8c0.7,0.8,1.4,1.3,2.3,1.3
			C293.6,488,294.4,486.9,294.4,484.3z"/>
		<path fill="#353535" d="M297.2,486.8c0-1.9,1.6-3.3,5.3-4v-0.6c0-1.1-0.5-1.6-1.4-1.6c-1.2,0-2.1,0.6-2.8,1.3l-0.8-0.9
			c1-1,2.3-1.7,3.8-1.7c1.9,0,2.7,1,2.7,2.9v4.5c0,1.2,0.1,1.9,0.2,2.3h-1.5c-0.1-0.4-0.2-0.7-0.2-1.2c-0.8,0.8-1.8,1.3-3,1.3
			C298.1,489.2,297.2,488.3,297.2,486.8z M302.5,486.8v-2.9c-2.9,0.6-3.9,1.6-3.9,2.8c0,1,0.5,1.4,1.3,1.4
			C301,488,301.9,487.5,302.5,486.8z"/>
		<path fill="#353535" d="M306.3,476.1h1.5v1.6h-1.5V476.1z M306.3,479.6h1.5v9.5h-1.5V479.6z"/>
		<path fill="#353535" d="M317.4,479.5v1.4c-0.4,0-0.9,0.1-1.4,0.3c0.3,0.5,0.4,1.1,0.4,1.7c0,2.1-1.4,3.4-3.3,3.4
			c-0.5,0-0.9-0.1-1.3-0.2c-0.3,0.2-0.5,0.4-0.5,0.7c0,0.4,0.2,0.5,1.1,0.6l1.5,0.2c2.3,0.3,3.3,1,3.3,2.4c0,1.7-1.8,2.7-4.1,2.7
			c-2.7,0-3.7-0.9-3.7-2.3c0-1,0.6-1.7,1.5-2.1c-0.5-0.3-0.8-0.6-0.8-1.2c0-0.6,0.4-1.1,1-1.5c-0.8-0.6-1.3-1.6-1.3-2.8
			c0-2.1,1.4-3.4,3.3-3.4c1,0,1.8,0.3,2.4,1C316,479.9,316.8,479.6,317.4,479.5z M310.6,490.2c0,1,0.6,1.5,2.6,1.5
			c1.5,0,2.6-0.5,2.6-1.5c0-0.8-0.5-1.2-2.1-1.4l-1.5-0.2c-0.1,0-0.2,0-0.3,0C311,488.9,310.6,489.6,310.6,490.2z M315.1,482.8
			c0-1.4-0.7-2.3-1.9-2.3c-1.2,0-1.9,0.9-1.9,2.3c0,1.4,0.7,2.3,1.9,2.3C314.4,485.1,315.1,484.2,315.1,482.8z"/>
		<path fill="#353535" d="M319,479.6h1.5v1.3c0.6-0.7,1.8-1.5,3-1.5c1.5,0,2.3,0.9,2.3,2.6v7.1h-1.4v-6.8c0-1.1-0.4-1.7-1.4-1.7
			c-0.9,0-1.9,0.7-2.6,1.4v7.1H319V479.6z"/>
		<path fill="#353535" d="M327.3,487.3l1-0.7c0.6,1,1.6,1.5,2.6,1.5c1.2,0,1.9-0.5,1.9-1.4c0-2.3-5-1.4-5-4.8c0-1.5,1.2-2.6,3-2.6
			c1.4,0,2.4,0.7,3.1,1.7l-1,0.8c-0.5-0.7-1.2-1.3-2.2-1.3c-1.1,0-1.6,0.5-1.6,1.3c0,2.4,4.9,1.3,4.9,4.8c0,1.7-1.5,2.7-3.3,2.7
			C329.2,489.3,328,488.5,327.3,487.3z"/>
		<path fill="#353535" d="M336,487.2h1.7v1.9H336V487.2z"/>
	</g>
</g>
<rect x="517.6" y="508.4" fill="none" stroke="#FFFFFF" stroke-width="4" stroke-linecap="round" stroke-linejoin="round" stroke-miterlimit="10" width="278" height="60.3"/>
<g>
	<path fill="#FFFFFF" d="M543.2,531.6v2.2c0,0.2-0.2,0.4-0.4,0.4h-1.9c-0.2,0-0.4-0.2-0.4-0.4v-2.1c0-2.2-1.1-3.1-2.7-3.1
		c-1.5,0-2.6,0.8-2.6,3.1v12.8c0,2.2,1.1,3.1,2.6,3.1c1.5,0,2.7-0.8,2.7-3.1v-2.2c0-0.2,0.2-0.4,0.4-0.4h1.9c0.2,0,0.4,0.2,0.4,0.4
		v2.2c0,3.3-2.1,5.6-5.3,5.6c-3.2,0-5.3-2.3-5.3-5.6v-12.9c0-3.4,1.8-5.6,5.3-5.6C541.4,526,543.2,528.3,543.2,531.6z"/>
	<path fill="#FFFFFF" d="M556.6,531.6v12.9c0,3.3-2.1,5.6-5.3,5.6c-3.2,0-5.3-2.3-5.3-5.6v-12.9c0-3.4,1.8-5.6,5.3-5.6
		C554.8,526,556.6,528.3,556.6,531.6z M553.9,531.7c0-2.2-1-3.1-2.6-3.1c-1.5,0-2.6,0.8-2.6,3.1v12.8c0,2.2,1,3.1,2.6,3.1
		c1.5,0,2.6-0.8,2.6-3.1V531.7z"/>
	<path fill="#FFFFFF" d="M570.8,544c0,3.5-1.8,5.8-5.3,5.8h-5c-0.2,0-0.4-0.2-0.4-0.4v-22.5c0-0.2,0.2-0.4,0.4-0.4h5
		c3.8,0,5.4,2.7,5.4,6.3V544z M565.6,547.1c1.8,0,2.5-1.2,2.5-2.6v-12.5c0-1.5-0.5-3-2.5-3h-2.8v18.1H565.6z"/>
	<path fill="#FFFFFF" d="M577,529.1v7.2h4.6c0.2,0,0.4,0.2,0.4,0.4v1.7c0,0.2-0.2,0.4-0.4,0.4H577v8.4h6.6c0.2,0,0.4,0.2,0.4,0.4
		v1.8c0,0.2-0.2,0.4-0.4,0.4h-9c-0.2,0-0.4-0.2-0.4-0.4v-22.5c0-0.2,0.2-0.4,0.4-0.4h9c0.2,0,0.4,0.2,0.4,0.4v1.8
		c0,0.2-0.2,0.4-0.4,0.4H577z"/>
	<path fill="#FFFFFF" d="M602.7,531.6v2.2c0,0.2-0.2,0.4-0.4,0.4h-1.9c-0.2,0-0.4-0.2-0.4-0.4v-2.1c0-2.2-1.1-3.1-2.7-3.1
		c-1.5,0-2.6,0.8-2.6,3.1v12.8c0,2.2,1.1,3.1,2.6,3.1c1.5,0,2.7-0.8,2.7-3.1v-2.2c0-0.2,0.2-0.4,0.4-0.4h1.9c0.2,0,0.4,0.2,0.4,0.4
		v2.2c0,3.3-2.1,5.6-5.3,5.6c-3.2,0-5.3-2.3-5.3-5.6v-12.9c0-3.4,1.8-5.6,5.3-5.6C600.9,526,602.7,528.3,602.7,531.6z"/>
	<path fill="#FFFFFF" d="M616.1,531.6v12.9c0,3.3-2.1,5.6-5.3,5.6c-3.2,0-5.3-2.3-5.3-5.6v-12.9c0-3.4,1.8-5.6,5.3-5.6
		C614.3,526,616.1,528.3,616.1,531.6z M613.4,531.7c0-2.2-1-3.1-2.6-3.1c-1.5,0-2.6,0.8-2.6,3.1v12.8c0,2.2,1,3.1,2.6,3.1
		c1.5,0,2.6-0.8,2.6-3.1V531.7z"/>
	<path fill="#FFFFFF" d="M634.9,526.8v22.5c0,0.2-0.2,0.4-0.4,0.4h-1.7c-0.2,0-0.4-0.2-0.4-0.4v-16.7l-3.9,16.8
		c0,0.1-0.2,0.3-0.4,0.3h-1.8c-0.1,0-0.3-0.1-0.4-0.3c0,0-3.8-16.2-3.9-16.8v16.7c0,0.2-0.2,0.4-0.4,0.4h0h-1.7
		c-0.2,0-0.4-0.2-0.4-0.4v-22.5c0-0.2,0.2-0.4,0.4-0.4h2.4c0.2,0,0.4,0.1,0.4,0.4l4.4,18.8l4.4-18.8c0-0.2,0.3-0.4,0.4-0.4h2.4
		C634.7,526.4,634.9,526.6,634.9,526.8z"/>
	<path fill="#FFFFFF" d="M653.7,526.8v22.5c0,0.2-0.2,0.4-0.4,0.4h-1.7c-0.2,0-0.4-0.2-0.4-0.4v-16.7l-3.9,16.8
		c0,0.1-0.2,0.3-0.4,0.3h-1.8c-0.1,0-0.3-0.1-0.4-0.3c0,0-3.8-16.2-3.9-16.8v16.7c0,0.2-0.2,0.4-0.4,0.4h0h-1.7
		c-0.2,0-0.4-0.2-0.4-0.4v-22.5c0-0.2,0.2-0.4,0.4-0.4h2.4c0.2,0,0.4,0.1,0.4,0.4l4.4,18.8l4.4-18.8c0-0.2,0.3-0.4,0.4-0.4h2.4
		C653.5,526.4,653.7,526.6,653.7,526.8z"/>
	<path fill="#FFFFFF" d="M661.4,529v18.1h1.8c0.2,0,0.4,0.2,0.4,0.4v1.9c0,0.2-0.2,0.4-0.4,0.4H657c-0.2,0-0.4-0.1-0.4-0.4v-1.9
		c0-0.2,0.2-0.4,0.4-0.4h1.8V529H657c-0.2,0-0.4-0.1-0.4-0.4v-1.9c0-0.2,0.2-0.4,0.4-0.4h6.1c0.2,0,0.4,0.1,0.4,0.4v1.9
		c0,0.2-0.2,0.4-0.4,0.4H661.4z"/>
	<path fill="#FFFFFF" d="M675.8,526.8v1.8c0,0.2-0.2,0.4-0.4,0.4H672v20.3c0,0.2-0.2,0.4-0.4,0.4h-1.9c-0.2,0-0.4-0.2-0.4-0.4V529
		h-3.4c-0.2,0-0.4-0.2-0.4-0.4v-1.8c0-0.2,0.2-0.4,0.4-0.4h9.5C675.6,526.4,675.8,526.6,675.8,526.8z"/>
	<path fill="#FFFFFF" d="M688.4,542.6c0,0.6,0,2.2,0,2.2c0,3.2-2.3,5.3-5.3,5.3c-3.2,0-5.5-2.3-5.5-5.8v-2.1c0-0.2,0.1-0.4,0.4-0.4
		h1.9c0.2,0,0.4,0.2,0.4,0.4v2.6c0,2.1,1.3,2.9,2.9,2.9c1.9,0,2.6-1.3,2.6-2.9V543c0-1.4-0.5-2.1-2.3-3.7l-2.8-2.6
		c-1.5-1.4-2.7-3.5-2.7-5.1c0-3.3,1.9-5.5,5.2-5.5c3.2,0,5.3,2.2,5.3,5.6v1.9c0,0.2-0.1,0.3-0.3,0.3h-2c-0.1,0-0.3-0.1-0.3-0.3v-2.2
		c0-2.2-1.1-3-2.6-3c-1.5,0-2.4,1-2.4,3c0,0.5,0.1,1.7,2.1,3.5c0.6,0.6,3.5,3.3,3.5,3.3C688.3,540,688.4,541.8,688.4,542.6z"/>
</g>
<g>
	<path fill="#FFFFFF" d="M754.7,540.1c0,1.8,0,3.8,0,3.8c0,3.2-1.4,6.2-5.4,6.2c-3.9,0-5.3-2.8-5.3-6.2v-1.6c0-0.2,0.2-0.4,0.4-0.4
		h1.9c0.2,0,0.4,0.2,0.4,0.4v1.8c0,1.7,0.2,3.4,2.7,3.4c2.2,0,2.6-1.7,2.6-3.4v-4.8c0-2.5-1.6-3.1-2.6-3.1c-1,0-2.2,0.3-2.6,1.4
		l-0.1,0.3c-0.1,0.1-0.2,0.2-0.4,0.2h-1.9c-0.2,0-0.4-0.1-0.4-0.3c0,0,0-0.4,0-0.5v-7.6v-3c0-0.2,0.2-0.4,0.4-0.4h2.6h7.2
		c0.2,0,0.4,0.2,0.4,0.4v1.8c0,0.2-0.2,0.4-0.4,0.4h-7.4v6c0.5-1.3,1.9-1.4,3-1.4C753.1,533.7,754.7,535.8,754.7,540.1z"/>
	<path fill="#FFFFFF" d="M768.5,542.1v2.4c0,3-2.1,5.7-5.4,5.7c-3.3,0-5.3-2.3-5.3-5.2v-12.7c0-3.9,2-6.1,5.2-6.1
		c3.3,0,5.4,2.3,5.4,5.7v1.8c0,0.2-0.2,0.4-0.3,0.4H766c-0.2,0-0.4-0.1-0.4-0.4v-2c0-1.5-0.6-2.9-2.6-2.9c-1.8,0-2.6,1.3-2.6,2.9
		v6.1c0.8-1.2,1.9-1.3,2.8-1.3C766.1,536.4,768.5,538.5,768.5,542.1z M760.5,542v2.8c0,1.9,1.1,2.8,2.6,2.8c1.5,0,2.6-1.3,2.6-2.8
		V542c0-2.2-1.1-3-2.6-3C761.6,539,760.5,539.8,760.5,542z"/>
	<path fill="#FFFFFF" d="M776,526.8v22.5c0,0.2-0.2,0.4-0.4,0.4h-1.8c-0.2,0-0.4-0.2-0.4-0.4v-18.8h-2.3c-0.2,0-0.4-0.2-0.4-0.4v-1
		c0-0.2,0.2-0.4,0.4-0.4c2.9-1,2.1-2.4,3.3-2.4c0.3,0,1.2,0,1.2,0C775.8,526.4,776,526.6,776,526.8z"/>
</g>
</svg>
