<?xml version="1.0" encoding="utf-8"?>
<!-- Generator: Adobe Illustrator 17.1.0, SVG Export Plug-In . SVG Version: 6.00 Build 0)  -->
<!DOCTYPE svg PUBLIC "-//W3C//DTD SVG 1.1//EN" "http://www.w3.org/Graphics/SVG/1.1/DTD/svg11.dtd">
<svg version="1.1" id="Layer_1" xmlns="http://www.w3.org/2000/svg" xmlns:xlink="http://www.w3.org/1999/xlink" x="0px" y="0px"
	 viewBox="0 0 811.9 780.9" enable-background="new 0 0 811.9 780.9" xml:space="preserve">
<g opacity="0.6">
	<path fill="#FCD9BE" d="M76.1,573.1c1.7-1.7,3.5-3.2,5.2-4.4c0.9-0.6,1.3-1,1.3-1.3c2.6-3.2,4.6-6.5,6.1-10c1.7-3.5,3-6.7,3.9-9.6
		c1.7-4.6,2.9-9.1,3.5-13.5c1.2-1.7,1.4-3.8,0.9-6.1c1.2-2,1.6-3.9,1.3-5.7c0-4.4,0.4-8.3,1.3-11.7c0-0.6,0.1-0.9,0.4-0.9
		c0.3-3.2,0.4-6.5,0.4-10c0-0.6,0-1.3,0-2.2c0-1.7,0-3,0-3.9c2-0.9,3.3-1.7,3.9-2.6c0.9-0.9,2.2-2.2,3.9-3.9
		c1.7-2.3,3.5-3.9,5.2-4.8c2.3-1.7,4.4-3.5,6.1-5.2c1.2-1.2,2.3-2.3,3.5-3.5c1.2-1.7,2.5-3.3,3.9-4.8c2.6-3.5,4.8-7,6.5-10.4
		c0.4-0.2,0.6-0.5,0.7-0.9c0.5,0.7,1,1.4,1.6,2.2c1.4,1.5,2.8,2.8,3.9,3.9c2.9,1.7,6.2,2.9,10,3.5c1.4,0,4.6,1,9.6,3
		c5.2,1.7,9,3,11.3,3.9h12.6c2.3-0.9,4.6-1.7,7-2.6c4.6-3.5,9-7.2,13.1-11.3c2.3-2.9,5.7-5.8,10-8.7c4.4-3.5,8-6.5,10.9-9.1
		c2.6-2.6,5.1-4.8,7.4-6.5c2.6-1.7,5.4-3.9,8.3-6.5c1.8-2.7,3.4-5,4.7-6.9c0.9,1.4,1.5,2.7,1.7,3.7c0.3,1.7,0.4,4.6,0.4,8.7
		c0.6,1.5,0.7,3.2,0.4,5.2c0.6,2,1.3,3.6,2.2,4.8c0.9,0.9,1.3,1.7,1.3,2.6c0.9,2.3,1.7,4.8,2.6,7.4c1.2,2.6,2.9,4.8,5.2,6.5
		c0.9,0.6,1.7,1.3,2.6,2.2c2.6,0.9,5.4,1.9,8.3,3h14.4c1.7-0.6,3.5-1.3,5.2-2.2c0.9-2.6,1.6-4.2,2.2-4.8v-4.8
		c-2.6-5.2-4.8-10.7-6.5-16.5c0-2.6-0.4-5.1-1.3-7.4c-0.6-2.3-0.7-4.4-0.4-6.1c-0.3-8.1-0.9-16.1-1.7-23.9V399
		c0.3-1.2,0.4-2,0.4-2.6c0.9-2.3,1-4.6,0.4-7c0.6-0.9,0.9-1.7,0.9-2.6c2.6-1.2,4.2-2.2,4.8-3c0.9-1.2,2.2-2.2,3.9-3
		c4.4-2.3,7.8-5.2,10.4-8.7c0.9-0.6,1.9-1.2,3-1.7c1.2-1.7,2.3-2.8,3.5-3c1.2-0.9,3.2-2.5,6.1-4.8c2.9-2.9,3.2-3.9,0.9-3
		c-2.3,0.6-2,0,0.9-1.7c1.2,0,1.9-0.3,2.2-0.9c0.6-0.9,0.6-1.6,0-2.2c2.6-3.5,4.1-6.7,4.4-9.6c0-1.7-0.4-3.2-1.3-4.4l-2.6-2.6
		c-0.6-1.2-1.3-2.3-2.2-3.5c0.6-1.2-0.3-1.6-2.6-1.3c-2,0-3.6,0.4-4.8,1.3c-0.9,0.6-3.3,1.7-7.4,3.5c-0.9,0.6-2.6,1.7-5.2,3.5
		c-1.5,1.2-2.2,2-2.2,2.6c0,0.6-1,0.9-3,0.9c-1.5,0-2.8,0.3-3.9,0.9c-0.6-0.6-1.2-1.3-1.7-2.2v-7.4c1.2-5.2,1.7-10.1,1.7-14.8
		c0.6-1.7,1.3-3.2,2.2-4.4c-0.3-1.2-0.4-2.3-0.4-3.5c0.9-0.6,1-2,0.4-4.4c-0.9-1.7-2.3-3-4.4-3.9c-1.7-1.4-3.2-2.8-4.4-3.9
		c-0.3-0.6-0.9-0.9-1.7-0.9c-2.9,0.6-6.1,1.9-9.6,3.9c-0.9,0.6-1.7,1.3-2.6,2.2c-0.9,0.9-1.9,1.7-3,2.6c0.3,0.6,0.1,1.3-0.4,2.2
		c-0.6,0.9-0.9,1.6-0.9,2.2c-0.9,1.2-2,2.2-3.5,3c-0.3,2.6-1.3,4.4-3,5.2c-0.9,0.3-1.7,1-2.6,2.2c-1.2,2.9-2,5.5-2.6,7.8
		c-0.6,0.9-1.2,2.1-1.7,3.7c-0.6,1.6-1.2,2.8-1.7,3.7c-0.6,1.5-0.9,3.1-0.9,5v4.1c-0.3,0.6-0.6,1.5-0.9,2.6c0,0.5-0.2,0.9-0.5,1.2
		c0,0.2,0,0.3,0,0.5c-1,7.6-2.6,18.1-5.8,24.7c-1.3,2.7-16.4,2.9-19.6,5.7c-1.5,0.2-3,0.2-4.6,0.1c-1.4,0.4-2.7,1.1-3.9,2.2
		c0.9,1.7,1.6,3.9,2.2,6.5v1.7c-0.9,0-1.6,1-2.2,3c0.3,1.2,0.9,2.2,1.7,3c1.5,0.9,2.2,1.9,2.2,3c0.6,0.9,1.3,2.5,2.2,4.8
		c0.9,0,1.6,0.4,2.2,1.3c1.7,0,3.2,0.3,4.4,0.9c1.2,0.9,2.3,1.9,3.5,3c2.1,0.3,4.1,0.4,6,0.3c-0.8,0.7-1.9,1.7-3.3,2.9
		c-3.5,2.9-5.7,4.9-6.5,6.1c-0.9,1.2-3,3-6.5,5.7c-2.9,2-5.1,3.8-6.5,5.2c-1.5,1.2-3.5,2.9-6.1,5.2c0.3,0.3-0.7,1.3-3,3
		c-2.3,1.7-3.5,2.8-3.5,3c-2.3,1.7-4.9,3.9-7.8,6.5c-2.6,2.3-5.4,3.9-8.3,4.8c-0.3,0.3-0.9,0.4-1.7,0.4c-1.2-1.7-2.6-3.2-4.4-4.4
		c-0.3-0.6-0.9-1.2-1.7-1.7c-0.9-1.2-1.7-2-2.6-2.6c-2.6-1.7-4.6-3.8-6.1-6.1c-0.9-1.7-1.7-3.2-2.6-4.4c0-1.7,0-3.2,0-4.4
		c0-1.7-0.3-3.5-0.9-5.2c0.3-0.9,0.7-1.3,1.3-1.3c2.9-0.9,5.8-1.4,8.7-1.7c1.7,0.3,3.3,0.1,4.8-0.4c3.2-1.2,6.5-2.5,10-3.9
		c2.3-2.3,4.8-4.4,7.4-6.1c1.2-2,2.2-4.2,3-6.5v-3.5c-0.6-1.2-1-2.2-1.3-3c-1.7-2.9-3-4.8-3.9-5.7c-0.6-1.2-2.6-2.6-6.1-4.4
		c-0.6,0-1-0.1-1.3-0.4c-3.8-0.9-8.3-1.2-13.5-0.9c-3.5,1.5-7.4,2.6-11.7,3.5c-4.4,0.9-8.6,1.9-12.6,3c-1.7,1.7-4.4,3.3-7.8,4.8
		c-0.6,0.9-1,1.7-1.3,2.6c-1.5,0.9-2.8,1.9-3.9,3c0,0.6,0,1,0,1.3c0,0.3-0.4,0.9-1.3,1.7c-0.9,1.2-1.7,3-2.6,5.7
		c-0.9,2.6-2.2,5.2-3.9,7.8c0,3.5-0.3,7.3-0.9,11.3c0.6,2.9,0.7,5.7,0.4,8.3c0.2,0.5,0.4,1,0.6,1.5c-1.1,2-2.5,3.8-4.2,5.5
		c-1.5,3.5-3.6,6.4-6.5,8.7c-1.7,0.9-3,2.2-3.9,3.9c-2.6,0.9-4.2,1.9-4.8,3c-0.9,0.9-2.2,2.2-3.9,3.9c-0.9,0.9-1.6,1.7-2.2,2.6
		c0-2.6,0-5.4,0-8.3c0-0.6,0.3-1.2,0.9-1.7c0-8.1,0-16.4,0-24.8c0-2.3-0.1-3.9-0.4-4.8c-0.3-2.6-0.4-4.8-0.4-6.5
		c0.6-3.8,0.6-7.7,0-11.7c-0.6-1.2-1.2-2.2-1.7-3c-1.2-0.3-2.3-0.9-3.5-1.7c-0.9,0-1.7,0.4-2.6,1.3c-1.2,0-2.3,0.1-3.5,0.4
		c-0.6,0.9-1.2,1.9-1.7,3c-0.6-0.6-1.3-0.9-2.2-0.9c0,0.6-0.4,1.3-1.3,2.2c-0.6,0.3-1.3,0.1-2.2-0.4c-1.2-1.7-2.9-3-5.2-3.9
		c-3.5-1.4-7-3-10.4-4.8c-0.9,0-1.6-0.1-2.2-0.4c-2.9-0.9-6.1-1.6-9.6-2.2c-2.3,0.6-4.6,1-7,1.3c-2.3,0.3-4.4,1-6.1,2.2
		c-0.9,0.6-2.2,1.3-3.9,2.2c-1.2,0.9-3,1.9-5.7,3c-1.7,0.6-3.3,1.2-4.8,1.7c-0.9,0.6-1.9,1-3,1.3c0-0.3-0.9,0-2.6,0.9
		c-1.7,0.9-2.6,1.6-2.6,2.2c-0.6,0-1,0.3-1.3,0.9c-0.9,0.6-3.3,2.6-7.4,6.1c-0.6,1.2-1.4,2.2-2.6,3c0.3,0.9-0.3,2.3-1.7,4.4
		c-1.2,1.7-1.9,3-2.2,3.9c-0.9,1.7-2,4.1-3.5,7c0.9,2.3,1,4.5,0.4,6.5c0,3.5,0.6,7.4,1.7,11.7c0.9,0.9,1.3,2.2,1.3,3.9
		c0.9,3.8,2.3,7.1,4.4,10c0.9,1.7,2,3.2,3.5,4.4c0.6,0.6,0.9,0.7,0.9,0.4c0.9,0,1.6,0,2.2,0c0.6,0.3,1.2,0.7,1.7,1.3
		c1.7,0,3.6,0.4,5.7,1.3c0.9,0.9,2,1.9,3.5,3c2.6,0.9,5.2,0.9,7.8,0c1.4,0,2.6,0.1,3.5,0.4c3.5,0,6.7,0,9.6,0c0.9,0,1.4,0,1.7,0
		c2-0.9,3.9-1.2,5.7-0.9c2.9-1.4,5.8-2.6,8.7-3.5c2.9-0.9,5.7-1.4,8.3-1.7c0.3,0,0.4,0.4,0.4,1.3c0,2.6,0,5.2,0,7.8
		c0.6,0.6,0.6,1.2,0,1.7c-0.6,1.7-1,3.8-1.3,6.1c-0.9,0.6-1.7,1.3-2.6,2.2c-0.9,0.9-2,1.9-3.5,3c-0.3,0.6-0.9,1.2-1.7,1.7
		c-1.7,1.2-3.2,2.3-4.4,3.5c-2.6,2.3-5.1,4.8-7.4,7.4c-2.3,2.9-4.5,6.1-6.5,9.6c-2.6,3.5-4.5,7.4-5.7,11.7c-0.9,2.9-1.7,5.8-2.6,8.7
		c0.6,2.3,0.9,3.9,0.9,4.8c0,1.7-0.1,3.5-0.4,5.2c0.9,0.9,1.7,2.3,2.6,4.4c0.9,1.7,1.9,3.8,3,6.1c0.6,0.9,0.9,2,0.9,3.5
		c1.7,1.4,3,3,3.9,4.8c1.4,2.9,3.9,5.2,7.4,7h9.1c0.9-0.9,1.4-1,1.7-0.4C69.6,579.1,73.5,576.6,76.1,573.1z M169.4,410
		c0.6-0.9,0.9-1.7,0.9-2.6c0-1.2,0-2.2,0-3c0-0.9,0.4-1.7,1.3-2.6c2.6-0.9,5.1-0.9,7.4,0c0.6,0.6,0.9,1.2,0.9,1.7c0,0.6,0,1.3,0,2.2
		c-1.7,2.9-4.6,4.9-8.7,6.1c-0.6-0.9-1.2-1.3-1.7-1.3V410z M68.7,450.5c-1.5,4.1-3,8.1-4.8,12.2c-0.9,1.7-2.2,3.5-3.9,5.2
		c-2,1.2-4.4,2.5-7,3.9c-2.6,0.9-5.4,1.9-8.3,3c-0.9,0.6-2.2,0.6-3.9,0c-2-0.6-3.6-1.3-4.8-2.2c-0.6-0.9-1-1.7-1.3-2.6
		c-0.3-1.4-0.9-2.2-1.7-2.2c-0.3-4.4,0-8.6,0.9-12.6c-0.6-1.7-0.6-3,0-3.9c0.3-1.2,0.9-2.6,1.7-4.4v-2.2c0.3-0.9,0.7-1.6,1.3-2.2
		c-0.6-1.2-0.3-2.3,0.9-3.5c0-0.6,0.1-0.6,0.4,0c1.2,0,1.4-0.4,0.9-1.3c-0.3-1.4,0.1-3,1.3-4.8c2.9-3.5,4.8-5.4,5.7-5.7
		c2-0.9,3.9-0.9,5.7,0c4.4,1.5,8.3,2.6,11.7,3.5c0.9,0.3,1.2,0.9,0.9,1.7c0.3,2.6,0.7,5.4,1.3,8.3c0.9,1.2,1.3,2.6,1.3,4.4
		c0.9,0,1.4,0.3,1.7,0.9C69.3,447.3,69.3,448.7,68.7,450.5z M66.1,531.4c-0.3,0.9-0.4,1.7-0.4,2.6c0,2.6-0.6,5.2-1.7,7.8
		c-1.2,4.1-2.3,8-3.5,11.7c-0.6,2-1.7,3.6-3.5,4.8c-1.2,0-2.3,0.3-3.5,0.9c-0.9-2.6-1.7-4.8-2.6-6.5v-9.6c0.6-1.7,1.3-3.9,2.2-6.5
		c0.3-1.2,0.9-2.5,1.7-3.9c0.9-1.5,1.6-2.6,2.2-3.5c0.6-0.9,1.3-1.7,2.2-2.6h1.3c1.7-1.7,3.6-3.2,5.7-4.4
		C67,525.4,67,528.5,66.1,531.4z"/>
	<path fill="#FCD9BE" d="M414.7,360.1c1.7,0.9,3.2,1.7,4.4,2.6c2.6,1.7,5.7,2.6,9.1,2.6c6.1-0.9,11.5-2.2,16.1-3.9
		c2.6-1.2,3.9-3,3.9-5.7c0.9-0.6,1-1.3,0.4-2.2c0.6-1.7-0.1-3.5-2.2-5.2c-1.7-3.5-4.4-5.2-7.8-5.2c-4.4-0.9-9-0.7-13.9,0.4
		c-2.3,1.2-4.8,3-7.4,5.7c-0.6,0.3-1.3,1.3-2.2,3c-0.9,1.2-1.4,3-1.7,5.7C413.2,358.8,413.6,359.5,414.7,360.1z"/>
	<path fill="#FCD9BE" d="M446.5,399.6c-0.9-2.6-2-5.4-3.5-8.3c-2-3.5-3.6-7.1-4.8-10.9c0-0.3-0.3-0.7-0.9-1.3
		c-1.2-0.6-3-1.2-5.7-1.7c-3.8-0.9-7.1-1.7-10-2.6c-1.2-0.9-2.6-0.9-4.4,0c-1.7,0.9-6.1,3.3-13.1,7.4c-0.9,1.7-1.3,3.5-1.3,5.2
		c0.6,2,1.3,3.5,2.2,4.4c1.2,1.7,2.2,3.5,3,5.2c0.9,2.6,1.2,5.2,0.9,7.8c0.6,6.1,0.4,12-0.4,17.8c-0.6,0.9-0.7,2.2-0.4,3.9
		c0.6,1.5,0.6,2.8,0,3.9c-0.9,2.9-1.3,6.1-1.3,9.6c0.6,2.3,1.2,3.9,1.7,4.8c2.6,5.5,6.2,9.6,10.9,12.2c2.6,0.3,4.9,0.9,7,1.7h9.1
		c1.7-0.3,3-0.7,3.9-1.3c3.8-1.2,7-3.5,9.6-7c3.5-3.5,6.7-7,9.6-10.4c0.9-1.2,1.7-2.3,2.6-3.5c0.6-1.7,2-3.8,4.4-6.1
		c2.3-2.6,3.7-4,4.2-4.3c0,0.1,0,0.1,0,0.2c0.3,3.5-0.2,7.4-1.3,11.7c-0.6,3.5-0.7,6.1-0.4,7.8c-0.9,4.4-1.9,8.7-3,13.1
		c-0.6,3.5-0.6,7.3,0,11.3c1.7,0.9,2.9,2.5,3.5,4.8c1.2,1.7,2.9,2.8,5.2,3c1.2,0,2.8,0.4,4.8,1.3c3.2,0.6,5.9,0,8.3-1.7
		c0-0.3,1.2-0.6,3.5-0.9c2.3-0.6,4.4-1.3,6.1-2.2c1.2-0.9,1.9-2,2.2-3.5c0.9-2.6,1.3-5.2,1.3-7.8c0.6-4.9,1.2-9.6,1.7-13.9
		c1.2-4.1,2-7.8,2.6-11.3c1.2-4.4,1.6-8.7,1.3-13.1v-2.6c0.6-2.6,0.9-4.9,0.9-7c0.9-0.9,1.9-1.6,3-2.2c1.7-1.2,3.6-2.5,5.7-3.9
		c0.3-0.6,0.7-0.9,1.3-0.9c1.7,0.6,3.5,1.3,5.2,2.2c5.2,1.7,6.5,8.6,3.9,20.4v2.2c-0.9,1.7-1.5,3.9-1.7,6.5
		c-0.3,3.8-0.7,7.8-1.3,12.2c-1.2,3.5-1.7,7.4-1.7,11.7c0.6,0.6,0.9,1.3,0.9,2.2c0,0.9,0.3,1.7,0.9,2.6c0.6,0.9,0.9,2,0.9,3.5
		c0,0.9,0.1,1.6,0.4,2.2c2,4.1,4.4,7.8,7,11.3c3.5,2.3,6.7,3.5,9.6,3.5l8.3-0.4c1.7-0.9,3.6-1.7,5.7-2.6c2-0.9,4.2-1.6,6.5-2.2
		c0.6-0.6,1.3-1.2,2.2-1.7c0.9-1.2,1.6-2,2.2-2.6c1.7-1.7,3.8-4.2,6.1-7.4c2.3-3.2,4.4-5.7,6.1-7.4c1.8-3.6,3.2-6.4,4.1-8.2
		c-0.4-2.9-1.1-5.8-2.1-8.5c-2.7-7.2-5.5-5.3-10,0c-0.3,0.4-0.7,0.7-1,0.9c-0.8,1.2-1.9,2.7-3.1,4.5c-3.5,4.6-5.2,6.8-5.2,6.5
		c-1.2,0-2.8,0.4-4.8,1.3c-1.5,0.9-2.5-0.4-3-3.9c0.6-6.1,1.3-12.3,2.2-18.7c1.2-7,1.7-13.3,1.7-19.1c0.3-6.1-0.6-11.7-2.6-17
		c-1.7-5.2-5.7-9.6-11.7-13.1c0,0.3-1.3,0.1-3.9-0.4c-2.3-0.6-3.9-0.9-4.8-0.9c-2.9-1.7-5.7-3.2-8.3-4.4c-2.6,0.6-5.1,1-7.4,1.3
		c-0.6,0.9-1.3,1.9-2.2,3c-1.5-0.6-2.8-0.6-3.9,0c-0.9,0-1.7,0.6-2.6,1.7c-0.9,0.9-1.7,1.3-2.6,1.3c-1.7,0.9-3.3,1.9-4.8,3h-3.5
		c-0.9,0-1.5-0.1-1.7-0.4c-2.6-2.6-5.9-3.5-10-2.6h-5.7c-1.5,0.3-2.6,1-3.5,2.2c-0.3,1.2-1.3,2.5-3,3.9c-1.7,1.7-3.5,3.9-5.2,6.5
		c-0.2,1.1-0.3,2.1-0.5,3.1c-0.5,0.5-1,0.9-1.6,1.4c-2.6,2.6-8.1,7.5-16.5,14.8c-0.3-2-0.4-4.4-0.4-7v-7.4
		C448.3,405.8,447.3,402.8,446.5,399.6z"/>
	<path fill="#FCD9BE" d="M521,563.2c-0.9,1.7-1.5,3.9-1.7,6.5c-0.3,3.8-0.7,7.8-1.3,12.2c-1.2,3.5-1.7,7.4-1.7,11.7
		c0.6,0.6,0.9,1.3,0.9,2.2c0,0.9,0.3,1.7,0.9,2.6c0.6,0.9,0.9,2,0.9,3.5c0,0.9,0.1,1.6,0.4,2.2c2,4.1,4.4,7.8,7,11.3
		c3.5,2.3,6.7,3.5,9.6,3.5l8.3-0.4c1.7-0.9,3.6-1.7,5.7-2.6c2-0.9,4.2-1.6,6.5-2.2c0.6-0.6,1.3-1.2,2.2-1.7c0.9-1.2,1.6-2,2.2-2.6
		c1.7-1.7,3.8-4.2,6.1-7.4c2.3-3.2,4.4-5.7,6.1-7.4c1.8-3.6,3.2-6.4,4.1-8.2c-0.4-2.9-1.1-5.8-2.1-8.5c-2.7-7.2-5.5-5.3-10,0
		c-0.3,0.4-0.7,0.7-1,0.9c-0.8,1.2-1.9,2.7-3.1,4.5c-3.5,4.6-5.2,6.8-5.2,6.5c-1.2,0-2.8,0.4-4.8,1.3c-1.5,0.9-2.5-0.4-3-3.9
		c0.6-6.1,1.3-12.3,2.2-18.7c1.2-7,1.7-13.3,1.7-19.1c0.3-6.1-0.6-11.7-2.6-17c-1.7-5.2-5.7-9.6-11.7-13.1c0,0.3-1.3,0.1-3.9-0.4
		c-2.3-0.6-3.9-0.9-4.8-0.9c-2.9-1.7-5.7-3.2-8.3-4.4c-2.6,0.6-5.1,1-7.4,1.3c-0.6,0.9-1.3,1.9-2.2,3c-1.5-0.6-2.8-0.6-3.9,0
		c-0.9,0-1.7,0.6-2.6,1.7c-0.9,0.9-1.7,1.3-2.6,1.3c-1.7,0.9-3.3,1.9-4.8,3h-3.5c-0.9,0-1.5-0.1-1.7-0.4c-2.6-2.6-5.9-3.5-10-2.6
		h-5.7c-1.5,0.3-2.6,1-3.5,2.2c-0.3,1.2-1.3,2.5-3,3.9c-1.7,1.7-3.5,3.9-5.2,6.5c-0.1,0.6-0.2,1.1-0.3,1.7c-0.1,0-0.2,0-0.2,0
		c-1.2,0-2,0-2.6,0c-0.3,0-0.9,0-1.7,0c-1.2,0.3-2.2,0.3-3,0c-0.9-0.6-1.9-1.2-3-1.7c-2-1.2-3.9-1.7-5.7-1.7v-0.4h-0.9l-0.9,0.4
		c-0.6,0-1-0.1-1.3-0.4c-0.9,0.6-1.9,0.9-3,0.9c-0.9-0.9-1.7-1.2-2.6-0.9c-1.2,0.3-2.3,0.4-3.5,0.4c-0.9,0-1.7,0.2-2.6,0.4
		c-1.2-0.3-2.3-0.7-3.5-1.3c-0.6,0.6-1.2,0.9-1.7,0.9c0-0.6-0.4-0.7-1.3-0.4h-0.4c-0.6-0.9-1.2-1.3-1.7-1.3
		c-0.9,0.6-1.7,1.9-2.6,3.9c-1.2,2.6-2.2,5.4-3,8.3c-0.3,1.7-0.9,3.3-1.7,4.8c-0.3,0.9-0.4,1.6-0.4,2.2c-1.2,2.9-2.2,6.1-3,9.6
		c0,0.6-0.4,1.2-1.3,1.7c0,1.2-0.3,2.2-0.9,3H410c-2.6,9.6-4.5,15.5-5.7,17.8c-1.7,1.2-3,1.7-3.9,1.7c-0.6-0.6-1.3-0.7-2.2-0.4
		c-0.9-0.9-1.5-2-1.7-3.5c-0.3-0.3-0.4-0.7-0.4-1.3c0-2.3,0-4.4,0-6.1c0-2.6-0.4-4.8-1.3-6.5v-0.4c0.6-1.2,0.4-1.9-0.4-2.2
		c0-0.9-0.2-1.9-0.4-3c-0.9-1.7-1.9-3.5-3-5.2c-1.7-0.6-3.3-0.6-4.8,0c-1.5,0.6-3,1.5-4.8,2.6c-0.9,0.6-1.3,1.3-1.3,2.2
		c0,0.6,0,1.7,0,3.5c0.3,0.3-0.4,1.3-2.2,3c0,0.6-0.1,1-0.4,1.3c0,0.9-0.3,1.6-0.9,2.2c-0.3,0.6-1,1.5-2.2,2.6
		c0,0.6-0.3,1.5-0.9,2.6c-0.9,1.2-1.6,2.2-2.2,3c-1.5,0.9-2.8,1.2-3.9,0.9c-0.6-0.9-1.2-1.9-1.7-3c0-1.7-0.2-3-0.4-3.9
		c0.3-2,0.7-3.9,1.3-5.7c0-1.7,0-3.3,0-4.8c0.6-0.9,0.6-1.4,0-1.7c0.6-9.3,0.9-14.5,0.9-15.7c0-2.6,0.1-5.2,0.4-7.8
		c-0.6-0.6-1.2-1.7-1.6-3.2c1.7-1.5,3.2-2.8,4.2-4.1c1.7-0.9,3-2,3.9-3.5c1.2-1.4,1.7-3.5,1.7-6.1c0.3-0.9-0.1-2-1.3-3.5
		c-0.3-0.9-1-1.3-2.2-1.3h-1.3c0.6-0.6-0.1-0.6-2.2,0c-1.7,0.6-2.6,1.3-2.6,2.2c0,0.3-0.4,0.4-1.3,0.4c-0.6,0-1,0.3-1.3,0.9h-0.4
		l-0.4,1.3c-0.3,0-0.9,0.3-1.7,0.9c-0.9,0.9-1.7,1.5-2.6,1.7c-0.9,0.3-2,0.9-3.5,1.7c-1.5,0.9-3.5,2-6.1,3.5c-0.9,0.9-1.9,1.2-3,0.9
		c-0.9-0.6-1.7-0.4-2.6,0.4c-0.9,0.6-1.7,0.9-2.6,0.9c-0.6,0-1.3,0.1-2.2,0.4c-0.9,0-3.3-0.4-7.4-1.3c-0.6-1.2-1-2.5-1.3-3.9
		c-0.9-1.7-1.5-3.2-1.7-4.4c0-1.2-0.4-2.2-1.3-3c0-0.6-0.1-1.3-0.4-2.2c-0.3-1.7-0.9-3-1.7-3.9c-1.5-1.7-2.6-3.3-3.5-4.8
		c-1.7-1.2-3.8-2.2-6.1-3c-1.2-0.9-2.6-1.3-4.4-1.3c-1.5-0.9-2.8-1-3.9-0.4c-2.3,0-4.5,0.4-6.5,1.3c-2,0.9-3.9,1.6-5.7,2.2
		c-1.7,0.6-3.5,1.2-5.2,1.7c-1.7,1.2-3.5,2.2-5.2,3c-1.7,0.9-3.5,2-5.2,3.5c-0.9,0.3-1.7,0.4-2.6,0.4c-1.2,0.9-2.3,1.7-3.5,2.6
		c0,1.7-0.1,3-0.4,3.9c-0.3,0.9-0.9,1.9-1.7,3c-0.9,1.2-1.3,2.6-1.3,4.4c0,1.7-0.6,3-1.7,3.9c-0.6,1.7-1.2,3.2-1.7,4.4
		c-0.6,0.9-1,2.5-1.3,4.8c-0.3,0-0.4,0.3-0.4,0.9c-0.6,1.2-0.6,2.6,0,4.4c0,1.2,0,2.4,0,3.6c-3.1,3.9-6.5,8.5-10.2,13.8
		c-0.6,1.2-1.5,2.3-2.6,3.5c-0.9,0.6-1.7,0.7-2.6,0.4c-0.6-0.9-0.7-1.6-0.4-2.2c0.3-2.9,0.7-5.7,1.3-8.3c0-0.9,0.1-1.9,0.4-3
		c0.6-2.3,0.9-4.6,0.9-7c0.3-1.7,0.4-3.2,0.4-4.4c0.6-1.2,0.9-2.5,0.9-3.9c0.6-2.3,0.9-3.9,0.9-4.8c0.6-1.7,0.9-3.6,0.9-5.7
		c0.6-2.6,0.9-5.1,0.9-7.4c0-0.6,0-1.3,0-2.2c0-2,0.1-4.2,0.4-6.5c0.3-2.3,0.7-4.5,1.3-6.5c0-0.6,0.1-0.9,0.4-0.9
		c0.6-2,0.9-4.2,0.9-6.5c0.3-1.7,0.7-3.8,1.3-6.1c0.9-1.2,1-2.2,0.4-3c-0.9-3.5-2.5-6.5-4.8-9.1c-1.2-1.2-2.3-2.3-3.5-3.5
		c-0.9-0.9-2.2-1.3-3.9-1.3c-0.9-0.3-1.7-0.1-2.6,0.4c-0.9,0-1.6-0.1-2.2-0.4c-0.9-0.9-1.7-1.9-2.6-3c-1.7-1.2-3.8-1.7-6.1-1.7
		c-1.2,0-2.6,0.7-4.4,2.2c-1.7,0.3-3.5,0.9-5.2,1.7c-1.7,0.9-3.2,1.9-4.4,3c-0.6,0.6-0.6,1.3,0,2.2c0.9,0.9,1.3,1.7,1.3,2.6
		c-0.6,2-1.3,3.9-2.2,5.7c-0.6,1.7-1.3,3.6-2.2,5.7c-0.9,2.3-1.5,4.8-1.7,7.4c0,2.9-0.4,5.8-1.3,8.7c-0.6,2.3-1.2,4.8-1.7,7.4
		c0,1.2-0.6,2.2-1.7,3c-1.2,0.6-2.9,0.7-5.2,0.4c-1.7-0.6-3.3-0.4-4.8,0.4c-2.6,0.6-5.4,1-8.3,1.3c-2.9,0.3-6.2,0.9-10,1.7
		c-2.6,0-5.1,0.3-7.4,0.9c-0.9,0.3-2.2,0.4-3.9,0.4c-0.9,0.9-1.9,1.7-3,2.6c-2.3,0.9-4.4,1.3-6.1,1.3c-1.7-0.3-3.5,0-5.2,0.9
		c-2.3,2-4.4,4.5-6.1,7.4c-0.6,0.6-1,1-1.3,1.3c-0.9,0.6-1.4,1.3-1.7,2.2c0,2.3-0.3,4.5-0.9,6.5c-0.6,1.5-0.9,2.8-0.9,3.9
		c0.3,0.6,0.4,1,0.4,1.3c1.7,4.4,3.2,8.3,4.4,11.7c1.2,3.5,2.5,7.3,3.9,11.3c0.9,2.6,2.3,5.2,4.4,7.8c2.3,1.2,4.4,2.3,6.1,3.5
		c0.9,1.2,1.9,2.3,3,3.5c4.1,1.7,8.3,3,12.6,3.9c3.5,0.9,6.7,1.5,9.6,1.7c1.7-0.3,3.5-0.7,5.2-1.3c1.2,0,2.2,0.4,3,1.3
		c0.6,1.2,0.7,2.6,0.4,4.4c0.6,1.2,0.9,2.6,0.9,4.4c0.9,2,1.2,3.9,0.9,5.7c0,1.7,0,3.5,0,5.2c0.3,1.2,0.4,2.9,0.4,5.2
		c0,0.6,0.1,1,0.4,1.3c0.9,0,1.7,0.4,2.6,1.3c0.9,1.2,1.7,2.6,2.6,4.4c1.4,0.9,3.3,1.6,5.7,2.2c2.9,0.9,5.8,0.9,8.7,0
		c2-0.9,3.8-1.9,5.2-3c1.7-1.7,4.1-2.9,7-3.5c1.7,0,3.6-0.3,5.7-0.9c0.9-0.6,1.3-1.3,1.3-2.2c0.9-3.2,1.7-6.1,2.6-8.7
		c2.3-3.8,4.8-7.4,7.4-10.9c1.7-1.2,3-2.5,3.9-3.9c4.6-5.2,8.4-9.6,11.3-13.1c2.2-2.4,4.5-5.1,7-8.1c0.3,0.5,0.7,1.1,1.1,1.6
		c0.9,0.6,1.4,1.2,1.7,1.7c0.6,0.6,1.3,1.2,2.2,1.7c0.9,0.6,1.6,1.3,2.2,2.2c0.9,0.3,1.7,0.9,2.6,1.7c2.3,0.9,4.4,1.9,6.1,3
		c0.9,0,1.9,0,3,0c1.7,0,3.6,0,5.7,0c2-0.6,3.9-0.4,5.7,0.4c1.2-0.3,2.2-0.7,3-1.3c2.6,0,4.8-0.1,6.5-0.4c2.3-1.7,4.1-3.2,5.2-4.4
		c2.3-2,4.4-3.5,6.1-4.4c1.2-2,2.2-3.9,3-5.7c1.7-1.7,3.2-3.2,4.4-4.4c0.9-2.6,2-5.2,3.5-7.8c0.6-0.6,0.9-1.3,0.9-2.2
		c-0.3-2-0.4-4.4-0.4-7c0-2.9-0.2-5.5-0.4-7.8c1.4,0.9,2.5,1.2,3,0.9c1.2-0.3,2.6-0.4,4.4-0.4c1.8-0.5,3.4-0.9,4.8-1.1
		c0.3,1.6,0.5,2.6,0.5,2.8c0,0.9,0,2.9,0,6.1c0,3.5,0,5.7,0,6.5c0,0.6,0,1.2,0,1.7c-0.3,0.9-0.4,2.2-0.4,3.9c0,9,0,17.8,0,26.5
		c0,0.6,0,1.2,0,1.7c0.9,0.6,1,1,0.4,1.3c2.3,0.9,3.9,2.3,4.8,4.4c2.6,4.1,5.7,7,9.1,8.7c0.9,0.3,1.6,0.4,2.2,0.4h8.3
		c0.9,0,1.4-0.1,1.7-0.4c3.8-1.4,7-4.2,9.6-8.3c0.9-1.2,1.6-2.2,2.2-3c0.6,0.9,0.9,1.6,0.9,2.2c0.9,0,1.3,0.3,1.3,0.9
		c0.9,0.9,2.2,1.7,3.9,2.6c0.6,0,1.3,0.3,2.2,0.9c2,0,3.9,0.3,5.7,0.9c1.2,1.2,2.2,2.3,3,3.5c1.7,0.6,3,1.2,3.9,1.7
		c1.7,0,2.9,0,3.5,0c0.9-0.6,1.7-1.2,2.6-1.7c1.7-0.9,3.2-1.9,4.4-3c0.6-0.9,1.3-1.6,2.2-2.2c0.9-0.6,1.6-1.3,2.2-2.2
		c2.6-2.6,4.8-5.1,6.5-7.4c1.4-1.2,2.5-2.6,3-4.4c1.2-2.3,2.5-4.4,3.9-6.1c1.4-1.7,2.6-3.6,3.5-5.7c2-3.5,3.5-7,4.4-10.4
		c0.9-0.9,2-2.9,3.5-6.1c2-3.2,3-5.7,3-7.4l0.9-3c0-0.9,2.6-0.7,7.8,0.4c2,0.5,4.2,0.8,6.4,0.7c0.1,0.2,0.1,0.5,0.2,0.7
		c1.2,3.2,1.7,5.7,1.7,7.4c0.3,3.5-0.2,7.4-1.3,11.7c-0.6,3.5-0.7,6.1-0.4,7.8c-0.9,4.4-1.9,8.7-3,13.1c-0.6,3.5-0.6,7.3,0,11.3
		c1.7,0.9,2.9,2.5,3.5,4.8c1.2,1.7,2.9,2.8,5.2,3c1.2,0,2.8,0.4,4.8,1.3c3.2,0.6,5.9,0,8.3-1.7c0-0.3,1.2-0.6,3.5-0.9
		c2.3-0.6,4.4-1.3,6.1-2.2c1.2-0.9,1.9-2,2.2-3.5c0.9-2.6,1.3-5.2,1.3-7.8c0.6-4.9,1.2-9.6,1.7-13.9c1.2-4.1,2-7.8,2.6-11.3
		c1.2-4.4,1.6-8.7,1.3-13.1v-2.6c0.6-2.6,0.9-4.9,0.9-7c0.9-0.9,1.9-1.6,3-2.2c1.7-1.2,3.6-2.5,5.7-3.9c0.3-0.6,0.7-0.9,1.3-0.9
		c1.7,0.6,3.5,1.3,5.2,2.2c5.2,1.7,6.5,8.6,3.9,20.4V563.2z M204.8,568c-0.9,2.9-2.6,4.9-5.2,6.1c-6.7,0.6-13.2,0-19.6-1.7
		c-2.9-1.2-4.8-3.2-5.7-6.1c-0.9-2.9-1-6.1-0.4-9.6c0.6-1.7,1.2-3.3,1.7-4.8c1.2-2.6,2.5-4.9,3.9-7c1.4-0.9,3.5-1.9,6.1-3
		c1.7-0.6,3-1.3,3.9-2.2c1.2-1.7,2.5-2.3,3.9-1.7c3.8,1.5,7,3.6,9.6,6.5c0.9,0.6,1,1.3,0.4,2.2c0,0.9,0,1.7,0,2.6c0,2,0.1,4.4,0.4,7
		c0.6,0.9,0.9,2,0.9,3.5C205.7,562.3,205.7,565.1,204.8,568z M316.4,543.2c0,1.2,0,2.2,0,3v3.9c-1.2,1.7-1.5,3.5-0.9,5.2
		c-0.9,2.6-2.5,5.1-4.8,7.4c-0.9,1.2-1.7,2.6-2.6,4.4c-0.9,1.7-1.7,3-2.6,3.9c-1.7,0.9-3.5,0.4-5.2-1.3c0-0.6-0.3-1.3-0.9-2.2
		c-0.6-2.6-1.3-5.1-2.2-7.4c-0.6-1.7-0.9-3-0.9-3.9c0-2.6-0.3-4.9-0.9-7c0-1.4,0-2.5,0-3c0.6-2.9,0.9-5.7,0.9-8.3
		c0.2-1,0.4-2.1,0.6-3.1c0.1-0.3,0.3-0.5,0.4-0.8c0.9-1.2,1.3-2.5,1.3-3.9c-0.2-0.3-0.4-0.5-0.5-0.8c0.1-0.5,0.2-0.9,0.3-1.4
		c0.9-1.7,1.7-3.6,2.6-5.7c0.9-1.4,2.3-2.6,4.4-3.5h2.6c0.6,0,0.9,0.3,0.9,0.9c0.9,0.9,1.6,1.7,2.2,2.6c1.7,4.4,3.5,8.7,5.2,13.1
		c-0.6,1.2-0.6,2.6,0,4.4C316.7,540.6,316.7,541.8,316.4,543.2z"/>
	<path fill="#FCD9BE" d="M594.6,544.5c0.3,1.2,0.9,2.2,1.7,3c1.5,0.9,2.2,1.9,2.2,3c0.6,0.9,1.3,2.5,2.2,4.8c0.9,0,1.6,0.4,2.2,1.3
		c1.7,0,3.2,0.3,4.4,0.9c1.2,0.9,2.3,1.9,3.5,3c3.5,0.6,6.8,0.4,10-0.4c1.2-0.3,2.2,0,3,0.9c0.6,0,0.9,0.4,0.9,1.3
		c0,1.7,0.6,3.8,1.7,6.1c1.7,2.3,2.8,4.2,3,5.7c0.3,1.7,0.4,4.6,0.4,8.7c0.6,1.5,0.7,3.2,0.4,5.2c0.6,2,1.3,3.6,2.2,4.8
		c0.9,0.9,1.3,1.7,1.3,2.6c0.9,2.3,1.7,4.8,2.6,7.4c1.2,2.6,2.9,4.8,5.2,6.5c0.9,0.6,1.7,1.3,2.6,2.2c2.6,0.9,5.4,1.9,8.3,3h14.4
		c1.7-0.6,3.5-1.3,5.2-2.2c0.9-2.6,1.6-4.2,2.2-4.8v-4.8c-2.6-5.2-4.8-10.7-6.5-16.5c0-2.6-0.4-5.1-1.3-7.4
		c-0.6-2.3-0.7-4.4-0.4-6.1c-0.3-8.1-0.9-16.1-1.7-23.9v-2.2c0.3-1.2,0.4-2,0.4-2.6c0.9-2.3,1-4.6,0.4-7c0.6-0.9,0.9-1.7,0.9-2.6
		c2.6-1.2,4.2-2.2,4.8-3c0.9-1.2,2.2-2.2,3.9-3c4.4-2.3,7.8-5.2,10.4-8.7c0.9-0.6,1.9-1.2,3-1.7c1.2-1.7,2.3-2.8,3.5-3
		c1.2-0.9,3.2-2.5,6.1-4.8c2.9-2.9,3.2-3.9,0.9-3c-2.3,0.6-2,0,0.9-1.7c1.2,0,1.9-0.3,2.2-0.9c0.6-0.9,0.6-1.6,0-2.2
		c2.6-3.5,4.1-6.7,4.4-9.6c0-1.7-0.4-3.2-1.3-4.4l-2.6-2.6c-0.6-1.2-1.3-2.3-2.2-3.5c0.6-1.2-0.3-1.6-2.6-1.3c-2,0-3.6,0.4-4.8,1.3
		c-0.9,0.6-3.3,1.7-7.4,3.5c-0.9,0.6-2.6,1.7-5.2,3.5c-1.5,1.2-2.2,2-2.2,2.6c0,0.6-1,0.9-3,0.9c-1.5,0-2.8,0.3-3.9,0.9
		c-0.6-0.6-1.2-1.3-1.7-2.2v-7.4c1.2-5.2,1.7-10.1,1.7-14.8c0.6-1.7,1.3-3.2,2.2-4.4c-0.3-1.2-0.4-2.3-0.4-3.5c0.9-0.6,1-2,0.4-4.4
		c-0.9-1.7-2.3-3-4.4-3.9c-1.7-1.4-3.2-2.8-4.4-3.9c-0.3-0.6-0.9-0.9-1.7-0.9c-2.9,0.6-6.1,1.9-9.6,3.9c-0.9,0.6-1.7,1.3-2.6,2.2
		c-0.9,0.9-1.9,1.7-3,2.6c0.3,0.6,0.1,1.3-0.4,2.2c-0.6,0.9-0.9,1.6-0.9,2.2c-0.9,1.2-2,2.2-3.5,3c-0.3,2.6-1.3,4.4-3,5.2
		c-0.9,0.3-1.7,1-2.6,2.2c-1.2,2.9-2,5.5-2.6,7.8c-0.6,0.9-1.2,2.1-1.7,3.7c-0.6,1.6-1.2,2.8-1.7,3.7c-0.6,1.5-0.9,3.1-0.9,5v4.1
		c-0.3,0.6-0.6,1.5-0.9,2.6c0,0.5-0.2,0.9-0.5,1.2c0,0.2,0,0.3,0,0.5c-1,7.6-2.6,18.1-5.8,24.7c-1.3,2.7-16.4,2.9-19.6,5.7
		c-1.5,0.2-3,0.2-4.6,0.1c-1.4,0.4-2.7,1.1-3.9,2.2c0.9,1.7,1.6,3.9,2.2,6.5v1.7C595.9,541.5,595.2,542.5,594.6,544.5z"/>
	<path fill="#FCD9BE" d="M699.7,527.1c-1.2,0.9-2.3,1.7-3.5,2.6c0,1.7-0.1,3-0.4,3.9c-0.3,0.9-0.9,1.9-1.7,3
		c-0.9,1.2-1.3,2.6-1.3,4.4c0,1.7-0.6,3-1.7,3.9c-0.6,1.7-1.2,3.2-1.7,4.4c-0.6,0.9-1,2.5-1.3,4.8c-0.3,0-0.4,0.3-0.4,0.9
		c-0.6,1.2-0.6,2.6,0,4.4v7.8c0.9,0.6,1,1.2,0.4,1.7c0.6,0.9,0.9,2.2,0.9,3.9c0.9,0.6,1.2,1.5,0.9,2.6c0.3,0.9,0.4,1.6,0.4,2.2
		c0.9,0.6,1.3,1.3,1.3,2.2c0.6,0.9,0.9,1.7,0.9,2.6c0.9,2.6,2.3,5.4,4.4,8.3c0.9,0.6,1.4,1.2,1.7,1.7c0.6,0.6,1.3,1.2,2.2,1.7
		c0.9,0.6,1.6,1.3,2.2,2.2c0.9,0.3,1.7,0.9,2.6,1.7c2.3,0.9,4.4,1.9,6.1,3h8.7c2-0.6,3.9-0.4,5.7,0.4c1.2-0.3,2.2-0.7,3-1.3
		c2.6,0,4.8-0.1,6.5-0.4c2.3-1.7,4.1-3.2,5.2-4.4c2.3-2,4.4-3.5,6.1-4.4c1.2-2,2.2-3.9,3-5.7l4.4-4.4c0.5-1.5,1.1-3,1.8-4.6
		c5.3-13,0.5-26.6-3.4-40.1c-0.5-1-0.8-2-1-2.7c0-1.2-0.4-2.2-1.3-3c0-0.6-0.1-1.3-0.4-2.2c-0.3-1.7-0.9-3-1.7-3.9
		c-1.5-1.7-2.6-3.3-3.5-4.8c-1.7-1.2-3.8-2.2-6.1-3c-1.2-0.9-2.6-1.3-4.4-1.3c-1.5-0.9-2.8-1-3.9-0.4c-2.3,0-4.5,0.4-6.5,1.3
		c-2,0.9-3.9,1.6-5.7,2.2c-1.7,0.6-3.5,1.2-5.2,1.7c-1.7,1.2-3.5,2.2-5.2,3c-1.7,0.9-3.5,2-5.2,3.5
		C701.5,526.9,700.6,527.1,699.7,527.1z M718.9,560.2c0.6-2.9,0.9-5.7,0.9-8.3c0.6-3.2,1.3-6.5,2.2-10c0.9-1.7,1.7-3.6,2.6-5.7
		c0.9-1.4,2.3-2.6,4.4-3.5h2.6c0.6,0,0.9,0.3,0.9,0.9c0.9,0.9,1.6,1.7,2.2,2.6c1.7,4.4,3.5,8.7,5.2,13.1c-0.6,1.2-0.6,2.6,0,4.4
		c0.3,0.9,0.3,2,0,3.5v7c-1.2,1.7-1.5,3.5-0.9,5.2c-0.9,2.6-2.5,5.1-4.8,7.4c-0.9,1.2-1.7,2.6-2.6,4.4c-0.9,1.7-1.7,3-2.6,3.9
		c-1.7,0.9-3.5,0.4-5.2-1.3c0-0.6-0.3-1.3-0.9-2.2c-0.6-2.6-1.3-5.1-2.2-7.4c-0.6-1.7-0.9-3-0.9-3.9c0-2.6-0.3-4.9-0.9-7V560.2z"/>
	<path fill="#FCD9BE" d="M392.9,650.3c-1.7-3.5-4.4-5.2-7.8-5.2c-4.4-0.9-9-0.7-13.9,0.4c-2.3,1.2-4.8,3-7.4,5.7
		c-0.6,0.3-1.3,1.3-2.2,3c-0.9,1.2-1.4,3-1.7,5.7c-0.3,0.9,0.2,1.6,1.3,2.2c1.7,0.9,3.2,1.7,4.4,2.6c2.6,1.7,5.7,2.6,9.1,2.6
		c6.1-0.9,11.5-2.2,16.1-3.9c2.6-1.2,3.9-3,3.9-5.7c0.9-0.6,1-1.3,0.4-2.2C395.6,653.8,394.9,652.1,392.9,650.3z"/>
	<path fill="#FCD9BE" d="M796,704.3c0-0.9,0-1.7,0-2.6c-0.9-1.7-1.7-3.5-2.6-5.2c-0.6-1.2-1.3-2.2-2.2-3c-0.9-1.2-1.7-2.3-2.6-3.5
		c-1.4-0.9-2.6-1.7-3.5-2.6c-0.3-0.9-0.7-1.9-1.3-3c-0.6-1.2-1.3-2.5-2.2-3.9c-0.9-1.2-1.6-2.2-2.2-3c-0.9-0.6-1.7-1.5-2.6-2.6
		c-0.9-1.2-1.7-2.3-2.6-3.5c-0.6-0.6-1.3-1.5-2.2-2.6c-0.9-0.9-1.7-1.7-2.6-2.6c-0.9-2.3-2.5-4.6-4.8-7v-0.4
		c0.6-0.9,1.3-1.7,2.2-2.6c0.9,0,1.7-0.4,2.6-1.3c0.9-0.9,1.9-1.7,3-2.6c0.6-0.6,0.9-1.7,0.9-3.5c-0.6-1.7-0.7-2.8-0.4-3
		c0.9-1.5,1-3,0.4-4.8c-0.6-1.7-1.3-2.9-2.2-3.5c-0.9-1.2-1.7-2.3-2.6-3.5c-0.9,0-1.7-0.1-2.6-0.4c-0.9-0.9-1.7-1.7-2.6-2.6
		c-0.9,0-1.9-0.3-3-0.9c-0.9-0.9-2.5-1.4-4.8-1.7c-2.6,0-4.9,0-7,0c-4.4,3.2-8.6,6.8-12.6,10.9c-0.6,1.7-1.3,3.3-2.2,4.8
		c-0.9,1.4-1.3,3-1.3,4.8c-0.6,1.7-0.9,3.2-0.9,4.4c0,1.2,0,2.3,0,3.5c0,0.9,0.1,1.9,0.4,3c0.3,1.4,0.4,2.6,0.4,3.5
		c0.6,0.9,0.9,1.7,0.9,2.6c0,0.9,0.1,2,0.4,3.5v2.2c-0.3,0.6-0.7,0.9-1.3,0.9c-0.6,0.6-1.3,1.3-2.2,2.2c-2,0.9-3.5,2-4.4,3.5
		c-2.6,2.9-5.2,6.1-7.8,9.6c-3.2,2.6-5.4,5.1-6.5,7.4c-0.6,0.6-1.3,1.2-2.2,1.7c-0.9,1.2-1.4,2.3-1.7,3.5c-0.2,0.2-0.3,0.5-0.5,0.7
		c-0.7-1.4-1.4-2.8-2.1-4.2c-0.6-1.2-1.3-2.2-2.2-3c-0.9-1.2-1.7-2.3-2.6-3.5c-1.4-0.9-2.6-1.7-3.5-2.6c-0.3-0.9-0.7-1.9-1.3-3
		c-0.6-1.2-1.3-2.5-2.2-3.9c-0.9-1.2-1.6-2.2-2.2-3c-0.9-0.6-1.7-1.5-2.6-2.6c-0.9-1.2-1.7-2.3-2.6-3.5c-0.6-0.6-1.3-1.5-2.2-2.6
		c-0.9-0.9-1.7-1.7-2.6-2.6c-0.6-1.6-1.6-3.3-2.9-4.9c0.4-0.4,0.7-0.6,0.9-0.5c0.9-1.2,1.9-2.3,3-3.5c1.2-1.4,1.3-2.6,0.4-3.5
		c-0.1,0-0.1-0.1-0.2-0.1c0.6-0.5,1.2-1,1.8-1.5c0.6-0.6,0.9-1.7,0.9-3.5c-0.6-1.7-0.7-2.8-0.4-3c0.9-1.5,1-3,0.4-4.8
		c-0.6-1.7-1.3-2.9-2.2-3.5c-0.9-1.2-1.7-2.3-2.6-3.5c-0.9,0-1.7-0.1-2.6-0.4c-0.9-0.9-1.7-1.7-2.6-2.6c-0.9,0-1.9-0.3-3-0.9
		c-0.9-0.9-2.5-1.4-4.8-1.7c-2.6,0-4.9,0-7,0c-4.4,3.2-8.6,6.8-12.6,10.9c-0.6,1.7-1.3,3.3-2.2,4.8c-0.9,1.4-1.3,3-1.3,4.8
		c-0.6,1.7-0.9,3.2-0.9,4.4c0,1.2,0,2.3,0,3.5c0,0.9,0.1,1.9,0.4,3c0.3,1.4,0.4,2.6,0.4,3.5c0.6,0.9,0.9,1.7,0.9,2.6
		c0,0.9,0.1,2,0.4,3.5v2.2c-0.3,0.6-0.7,0.9-1.3,0.9c-0.6,0.6-1.3,1.3-2.2,2.2c-2,0.9-3.5,2-4.4,3.5c-2.6,2.9-5.2,6.1-7.8,9.6
		c-2.7,2.2-4.7,4.4-6,6.4c-1.2,0.9-1.7,1.5-1.7,1.7c-2.3,1.7-4.9,3.9-7.8,6.5c-2.6,2.3-5.4,3.9-8.3,4.8c-0.3,0.3-0.9,0.4-1.7,0.4
		c-1.2-1.7-2.6-3.2-4.4-4.4c-0.3-0.6-0.9-1.2-1.7-1.7c-0.9-1.2-1.7-2-2.6-2.6c-2.6-1.7-4.6-3.8-6.1-6.1c-0.9-1.7-1.7-3.2-2.6-4.4
		c0-1.7,0-3.2,0-4.4c0-1.7-0.3-3.5-0.9-5.2c0.3-0.9,0.7-1.3,1.3-1.3c2.9-0.9,5.8-1.4,8.7-1.7c1.7,0.3,3.3,0.1,4.8-0.4
		c3.2-1.2,6.5-2.5,10-3.9c2.3-2.3,4.8-4.4,7.4-6.1c1.2-2,2.2-4.2,3-6.5V655c-0.6-1.2-1-2.2-1.3-3c-1.7-2.9-3-4.8-3.9-5.7
		c-0.6-1.2-2.6-2.6-6.1-4.4c-0.6,0-1-0.1-1.3-0.4c-3.8-0.9-8.3-1.2-13.5-0.9c-3.5,1.5-7.4,2.6-11.7,3.5s-8.6,1.9-12.6,3
		c-1.7,1.7-4.4,3.3-7.8,4.8c-0.6,0.9-1,1.7-1.3,2.6c-1.5,0.9-2.8,1.9-3.9,3c0,0.6,0,1,0,1.3c0,0.3-0.4,0.9-1.3,1.7
		c-0.9,1.2-1.7,3-2.6,5.7c-0.9,2.6-2.2,5.2-3.9,7.8c0,1.4-0.1,2.8-0.2,4.3c-0.8,1.8-1.9,3.3-3.3,4.4c-0.9,0.9-1.6,1.7-2.2,2.6
		c-1.2,1.2-2.8,4.1-4.8,8.7c-1.7,4.6-3.2,7.4-4.4,8.3c-0.3-0.3-2.2,2.2-5.7,7.4c-3.5,4.6-5.2,6.8-5.2,6.5c-1.2,0-2.8,0.4-4.8,1.3
		c-1.5,0.9-2.5-0.4-3-3.9c0.6-6.1,1.3-12.3,2.2-18.7c1.2-7,1.7-13.3,1.7-19.1c0.3-6.1-0.6-11.7-2.6-17c-1.7-5.2-5.7-9.6-11.7-13.1
		c0,0.3-1.3,0.1-3.9-0.4c-2.3-0.6-3.9-0.9-4.8-0.9c-2.9-1.7-5.7-3.2-8.3-4.4c-2.6,0.6-5.1,1-7.4,1.3c-0.6,0.9-1.3,1.9-2.2,3
		c-1.5-0.6-2.8-0.6-3.9,0c-0.9,0-1.7,0.6-2.6,1.7c-0.9,0.9-1.7,1.3-2.6,1.3c-1.7,0.9-3.3,1.9-4.8,3h-3.5c-0.9,0-1.5-0.1-1.7-0.4
		c-2.6-2.6-5.9-3.5-10-2.6c-1.2,0-2.2,0-3,0c-0.9,0-1.7,0-2.6,0c-1.5,0.3-2.6,1-3.5,2.2c-0.3,1.2-1.3,2.5-3,3.9
		c-1.7,1.7-3.5,3.9-5.2,6.5c-1.2,7-1.3,12-0.4,15.2c1.2,3.2,1.7,5.7,1.7,7.4c0.3,3.5-0.2,7.4-1.3,11.7c-0.3,2-0.5,3.7-0.6,5.1
		c-0.2,0.2-0.5,0.4-0.7,0.6c-1.7,2.9-4.2,5.7-7.4,8.3c-2.6,2.6-8.1,7.5-16.5,14.8c-0.3-2-0.4-4.4-0.4-7c0-3.2,0-5.7,0-7.4
		c-1.2-2.9-2.2-5.9-3-9.1c-0.9-2.6-2-5.4-3.5-8.3c-2-3.5-3.6-7.1-4.8-10.9c0-0.3-0.3-0.7-0.9-1.3c-1.2-0.6-3-1.2-5.7-1.7
		c-3.8-0.9-7.1-1.7-10-2.6c-1.2-0.9-2.6-0.9-4.4,0c-1,0.5-2.9,1.5-5.6,3.1c-0.7-0.9-1.3-1.9-2-2.8c0,0-0.1,0.1-0.1,0.1
		c-1.9,1.9-3.4,4-4.5,6.5c-0.3,0.2-0.5,0.3-0.8,0.5c-0.6,1.1-0.9,2.3-1.1,3.4c-1.2,1.3-2.4,2.7-3.6,4.4c-1.5,1.7-3,3.5-4.8,5.2
		l-0.4,0.9c-0.9,1.5-2,2.8-3.5,3.9c-2.6,2.9-5.4,4.9-8.3,6.1V706c0-0.3-0.6-0.9-1.7-1.7c-1.7-1.4-3.3-2.6-4.8-3.5
		c-2.9-3.2-6.1-5.9-9.6-8.3c-2-1.7-3.5-3.3-4.4-4.8c-2.6-4.4-4.6-8.4-6.1-12.2c0.3-1.4,0-2.6-0.9-3.5c-0.6-1.2-0.6-2.6,0-4.4
		c0.3-1.2,0.7-1.7,1.3-1.7c0.6-0.3,1.3-0.9,2.2-1.7c2.6-0.6,5.2-1.3,7.8-2.2c0.9-0.6,1.9-0.9,3-0.9c1.2-0.9,2.3-1.3,3.5-1.3
		c0.6-0.3,1,0,1.3,0.9c0.9,0.3,2.3-0.1,4.4-1.3h1.3c2.6,0.6,3.9,0.1,3.9-1.3c0.3-1.4,0.4-2.6,0.4-3.5c-0.9-3.5-2.8-5.7-5.7-6.5
		c-1.2-0.6-3-1.3-5.7-2.2c-2.3-0.9-3.8-1.3-4.4-1.3c-1.7-0.9-4.2-1.3-7.4-1.3c-3.2-0.6-5.2-0.6-6.1,0h-4.4c-0.9,0.9-2.8,1.5-5.7,1.7
		c-1.7,0.9-3.3,2.5-4.8,4.8c-0.3,1.2-1,2.3-2.2,3.5c-0.6,0.6-1,1-1.3,1.3c-1.5,1.5-2.8,2.8-3.9,3.9c-2.9,3.5-5.2,7.5-7,12.2v2.2
		c0.6,0.9,0.4,1.6-0.4,2.2v6.5c0.9,0.9,1,1.9,0.4,3v2.6c0.7,1.4,1.4,2.9,2.2,4.3c-0.5,0.2-1,0.5-1.5,1c-0.6,0.9-1.5,1.3-2.6,1.3
		l-0.4,0.4c-1.7,0.3-3.9,0.7-6.5,1.3h-0.4c-0.9,0-1.5,0-1.7,0c0.3-0.6,0.1-1-0.4-1.3c-0.3-0.6-0.6-1.6-0.9-3c0-1.7-0.2-3-0.4-3.9
		c-0.3-4.1-1.7-7.5-4.4-10.4c-3.2-2-6.5-3.3-10-3.9c-0.6,0-1.2,0.1-1.7,0.4c-0.6-0.3-1.5-0.7-2.6-1.3c-4.1,0-8.1,1.5-12.2,4.4
		c-0.6,2.3-2.2,4.6-4.8,7c-0.9,1.7-1.6,3.6-2.2,5.7c-0.6,0.3-0.7,0.7-0.4,1.3c0.6,0,0.6,0.3,0,0.9c-0.9,0.6-1.2,2-0.9,4.4
		c0.6,1.7,0.4,3.5-0.4,5.2c0,0.9-0.3,1.6-0.9,2.2c0,0.3-0.1,0.9-0.4,1.7c-0.9,2-1,3.5-0.4,4.4c0.3,1.5,0.3,2.6,0,3.5
		c0,0.9-0.1,2-0.4,3.5c0.3,0.6,0.3,1.5,0,2.6c-0.3,0.9-0.4,1.6-0.4,2.2c0,2.6-0.4,5.2-1.3,7.8c0,0.9-0.6,1.9-1.7,3
		c-0.9,0.9-1.5,1.6-1.7,2.2c-0.9,1.2-1.6,1.9-2.2,2.2c0,0.3-0.6,0.4-1.7,0.4c-0.6,0-1.3,0.4-2.2,1.3c-0.9-0.9-1.6-1.7-2.2-2.6
		c-1.2-2-2.2-4.2-3-6.5c-2.3-7-3.9-13.8-4.8-20.4c-0.5-3.2-0.7-6.3-0.5-9.5c2.4-3.5,4.6-7.3,6.6-11.4c0-0.3-0.3-0.7-0.9-1.3
		c-1.5-0.6-2.6-1.4-3.5-2.6c-0.9-1.7-2-2.5-3.5-2.2c-0.9,0.6-1.9,1.3-3,2.2c-1.2-0.6-2.2-0.9-3-0.9c-1.5,0.6-3,1.2-4.8,1.7
		c-1.2,0-2.6,0.3-4.4,0.9c-4.1,3.5-6.7,6.2-7.8,8.3c-2.9,4.4-6.4,8.7-10.4,13.1c-2.6,3.5-5.9,6.5-10,9.1c-0.9,0-1.9,0.3-3,0.9
		c-4.6-4.1-8.4-8.8-11.3-14.4c-0.9-1.7-2.2-3.2-3.9-4.4c-2.6-1.4-4.9-2.6-7-3.5c-2.6-2.6-4.6-4.4-6.1-5.2c-1.5-0.9-3.5-1.9-6.1-3
		c-0.9,0-2,0-3.5,0c-0.9,0-1.9,0.3-3,0.9c-0.9,0.6-2.5,0.6-4.8,0c-0.3-0.6-0.2-1.2,0.4-1.7c2.9-2.9,5.8-5.7,8.7-8.3
		c3.5-3.2,6.4-6.8,8.7-10.9c2.9-4.1,5.7-8.7,8.3-13.9c2.6-1.7,4.4-4.2,5.2-7.4c0.3-1.7,0.4-3,0.4-3.9c1.7-2.6,2.9-5.2,3.5-7.8
		c0-4.6,0-9.3,0-13.9c-1.2-2.6-2.2-5.2-3-7.8l-0.9-0.4c-2.3-1.2-4.1-2.9-5.2-5.2c-1.7-2.6-3-4.2-3.9-4.8c-0.6-0.6-2-1.7-4.4-3.5
		c-0.6-0.6-0.7-0.9-0.4-0.9c-3.5-1.2-7-1.6-10.4-1.3c-0.9-0.3-2.3-0.4-4.4-0.4c-2-1.2-4.4-2.3-7-3.5c-1.5,0-2.8,0-3.9,0
		c-2.9,0.9-5.2,2.6-7,5.2c-1.7,1.7-3.5,3.8-5.2,6.1c-1.2,2.9-2.6,5.8-4.4,8.7c-1.2,0.9-2.2,1.7-3,2.6c-2.9,5.8-5.2,11.5-7,17
		c-1.5,5.2-2.6,10.7-3.5,16.5c0,0.9-0.3,1.7-0.9,2.6c-0.9,4.4-1.5,8.9-1.7,13.5c0.6,1.2,0.4,2.2-0.4,3c-0.6,2.3-0.9,4.8-0.9,7.4
		c0,2.3,0,4.6,0,7c0,1.2-0.1,2.3-0.4,3.5c-0.9,2.3-1.2,4.4-0.9,6.1c0.3,4.1-0.1,8.3-1.3,12.6c1.2,2.6,1.5,5.9,0.9,10
		c0,3.5,0.4,5.5,1.3,6.1c0.3,1.7,0.7,3.3,1.3,4.8c0,3.5,0.1,7,0.4,10.4c0.9,2.6,1.7,4.9,2.6,7c0,1.7,0,3.2,0,4.4
		c0.9,1.7,1.6,3.5,2.2,5.2c0,0.9-0.3,1.7-0.9,2.6c1.4,1.5,2.6,3.8,3.5,7c0.9,3.2,1.3,4.9,1.3,5.2c0.9-0.3,1.6,0,2.2,0.9
		c3.5,2,6.7,4.2,9.6,6.5c1.7,2.6,3.9,5.1,6.5,7.4c2.6,0.3,4.6,0.4,6.1,0.4c4.4-1.7,8.6-3,12.6-3.9c0.9-0.6,1.7-0.9,2.6-0.9
		c1.7-0.9,3.6-1.6,5.7-2.2c0.3,0,0.7,0,1.3,0c0.6,0,1.3,0.1,2.2,0.4c2.6-1.5,5.2-2.6,7.8-3.5c2.6-2,5.4-3.5,8.3-4.4
		c2.9-3.5,5.9-6.5,9.1-9.1c0.9-2.3,1.9-4.1,3-5.2c1.2-1.2,1.9-2.8,2.2-4.8c1.4-4.4,2.6-8.7,3.5-13.1c2.6-1.7,4.8-3.5,6.5-5.2
		c1.7-0.9,3.2-1.7,4.4-2.6c1.2-1.4,2.5-2.6,3.9-3.5c0.9-0.3,1.7-0.7,2.6-1.3c4.5-2.2,8.7-5.3,12.7-9.2c1.5,6.3,2.6,12.7,3.4,19.2
		c0,0.9,0,2.5,0,4.8c0.9,0.9,1.6,2.2,2.2,3.9c2.9,2.6,5.7,5.1,8.3,7.4c0.9,0.6,1.7,1.5,2.6,2.6c1.4,0,3,0,4.8,0
		c1.2,1.2,2.3,2.3,3.5,3.5c2.3,1.2,4.6,2.6,7,4.4c1.7,0.9,3.5,1.3,5.2,1.3c2.9-0.6,5.5-0.9,7.8-0.9c4.6-2.6,8.7-5.4,12.2-8.3
		c2.9-2.6,5.4-5.2,7.4-7.8c1.2-2.9,3-5.1,5.7-6.5c0.6-0.3,1.3-0.7,2.2-1.3c0.9-2.9,1.6-5.8,2.2-8.7c0.6-0.9,0.6-1.7,0-2.6
		c0-1.7,0.4-3.2,1.3-4.4c0.9-2.3,1.2-3.8,0.9-4.4c0.3-1.2,0.7-2.5,1.3-3.9c0.6-0.9,1.3-1.4,2.2-1.7c4.4-0.9,10.6-1.6,18.7-2.2
		c1.2-0.5,2.3-0.9,3.3-1.2c0.5,0.9,1,1.8,1.6,2.9c0.9,1.2,1.6,2.2,2.2,3c0.9,0.6,1.7,1.5,2.6,2.6c0.9,1.2,1.7,2.3,2.6,3.5
		c0.6,0.6,1.3,1.5,2.2,2.6c0.9,0.9,1.7,1.7,2.6,2.6c0.9,2.3,2.5,4.6,4.8,7v0.4c-0.6,0.9-1.3,1.7-2.2,2.6c-0.9,0-1.7,0.4-2.6,1.3
		c-0.9,0.9-1.9,1.7-3,2.6c-0.6,0.6-0.9,1.7-0.9,3.5c0.6,1.7,0.7,2.8,0.4,3c-0.9,1.5-1,3-0.4,4.8c0.6,1.7,1.3,2.9,2.2,3.5
		c0.9,1.2,1.7,2.3,2.6,3.5c0.9,0,1.7,0.1,2.6,0.4c0.9,0.9,1.7,1.7,2.6,2.6c0.9,0,1.9,0.3,3,0.9c0.9,0.9,2.5,1.4,4.8,1.7h7
		c4.4-3.2,8.6-6.8,12.6-10.9c0.6-1.7,1.3-3.3,2.2-4.8c0.9-1.4,1.3-3,1.3-4.8c0.6-1.7,0.9-3.2,0.9-4.4v-3.5c0-0.9-0.1-1.9-0.4-3
		c-0.3-1.4-0.4-2.6-0.4-3.5c-0.6-0.9-0.9-1.7-0.9-2.6c0-0.9-0.1-2-0.4-3.5v-2.2c0.3-0.6,0.7-0.9,1.3-0.9c0.6-0.6,1.3-1.3,2.2-2.2
		c2-0.9,3.5-2,4.4-3.5c2.6-2.9,5.2-6.1,7.8-9.6c1.7-1.4,3.2-2.8,4.3-4.2c0.8,2.6,1.1,5.1,0.8,7.7c0.6,6.1,0.4,12-0.4,17.8
		c-0.6,0.9-0.7,2.2-0.4,3.9c0.6,1.5,0.6,2.8,0,3.9c-0.9,2.9-1.3,6.1-1.3,9.6c0.6,2.3,1.2,3.9,1.7,4.8c2.6,5.5,6.2,9.6,10.9,12.2
		c2.6,0.3,4.9,0.9,7,1.7c1.4,0,2.6,0,3.5,0c2.6,0,4.5,0,5.7,0c1.7-0.3,3-0.7,3.9-1.3c3.8-1.2,7-3.5,9.6-7c3.5-3.5,6.7-7,9.6-10.4
		c0.9-1.2,1.7-2.3,2.6-3.5c0.6-1.7,2-3.8,4.4-6.1c2.6-2.9,4.1-4.4,4.4-4.4c-0.1,0.2,0.4-0.2,1.6-1.4c0.1,0.6,0.1,1.1,0.2,1.7
		c1.7,0.9,2.9,2.5,3.5,4.8c1.2,1.7,2.9,2.8,5.2,3c1.2,0,2.8,0.4,4.8,1.3c3.2,0.6,5.9,0,8.3-1.7c0-0.3,1.2-0.6,3.5-0.9
		c2.3-0.6,4.4-1.3,6.1-2.2c1.2-0.9,1.9-2,2.2-3.5c0.9-2.6,1.3-5.2,1.3-7.8c0.6-4.9,1.2-9.6,1.7-13.9c1.2-4.1,2-7.8,2.6-11.3
		c1.2-4.4,1.6-8.7,1.3-13.1c0-0.9,0-1.7,0-2.6c0.6-2.6,0.9-4.9,0.9-7c0.9-0.9,1.9-1.6,3-2.2c1.7-1.2,3.6-2.5,5.7-3.9
		c0.3-0.6,0.7-0.9,1.3-0.9c1.7,0.6,3.5,1.3,5.2,2.2c5.2,1.7,6.5,8.6,3.9,20.4c0,0.9,0,1.6,0,2.2c-0.9,1.7-1.5,3.9-1.7,6.5
		c-0.3,3.8-0.7,7.8-1.3,12.2c-1.2,3.5-1.7,7.4-1.7,11.7c0.6,0.6,0.9,1.3,0.9,2.2c0,0.9,0.3,1.7,0.9,2.6c0.6,0.9,0.9,2,0.9,3.5
		c0,0.9,0.1,1.6,0.4,2.2c2,4.1,4.4,7.8,7,11.3c3.5,2.3,6.7,3.5,9.6,3.5l8.3-0.4c1.7-0.9,3.6-1.7,5.7-2.6c2-0.9,4.2-1.6,6.5-2.2
		c0.6-0.6,1.3-1.2,2.2-1.7c0.9-1.2,1.6-2,2.2-2.6c1.7-1.7,3.8-4.2,6.1-7.4c2.3-3.2,4.4-5.7,6.1-7.4c2.3-4.6,3.9-7.8,4.8-9.6
		c1.7-2.6,3.5-5.2,5.2-7.8c0.5-0.7,0.9-1.3,1.3-1.9c0.3,0.7,0.6,1.3,0.9,1.8c1.5,1.2,3.5,3.6,6.1,7.4c1.4,1.5,2.8,2.8,3.9,3.9
		c2.9,1.7,6.2,2.9,10,3.5c1.4,0,4.6,1,9.6,3c5.2,1.7,9,3,11.3,3.9h12.6c2.3-0.9,4.6-1.7,7-2.6c0.4-0.3,0.7-0.6,1.1-0.9
		c0.8,0.2,1.4-0.1,1.8-0.7c0.6-0.3,1.5-0.7,2.6-1.3c0.5-1,1.1-2,1.7-3c2-1.7,3.9-3.5,5.8-5.4c2.3-2.9,5.7-5.8,10-8.7
		c4.4-3.5,8-6.5,10.9-9.1c2.6-2.6,5.1-4.8,7.4-6.5c0.1-0.1,0.2-0.1,0.2-0.2c0.6,0.4,1.2,0.8,1.8,1.2c2.9,3.2,6.1,5.9,9.6,8.3
		c2,1.7,3.5,3.3,4.4,4.8c2.6,4.4,4.6,8.4,6.1,12.2c-0.3,1.4,0,2.6,0.9,3.5c0.6,1.2,0.6,2.6,0,4.4c-0.3,1.2-0.7,1.7-1.3,1.7
		c-0.6,0.3-1.3,0.9-2.2,1.7c-2.6,0.6-5.2,1.3-7.8,2.2c-0.9,0.6-1.9,0.9-3,0.9c-1.2,0.9-2.3,1.3-3.5,1.3c-0.6,0.3-1,0-1.3-0.9
		c-0.9-0.3-2.3,0.1-4.4,1.3c-0.3,0-0.7,0-1.3,0c-2.6-0.6-3.9-0.1-3.9,1.3c-0.3,1.4-0.4,2.6-0.4,3.5c0.9,3.5,2.8,5.7,5.7,6.5
		c1.2,0.6,3,1.3,5.7,2.2c2.3,0.9,3.8,1.3,4.4,1.3c1.7,0.9,4.2,1.3,7.4,1.3c3.2,0.6,5.2,0.6,6.1,0c1.2,0,2.6,0,4.4,0
		c0.9-0.9,2.8-1.5,5.7-1.7c1.7-0.9,3.3-2.5,4.8-4.8c0.3-1.2,1-2.3,2.2-3.5c0.6-0.6,1-1,1.3-1.3c1.5-1.5,2.8-2.8,3.9-3.9
		c2.4-2.8,4.3-6.1,5.9-9.7c0.4-0.2,0.9-0.5,1.5-0.7c1.2-2.3,2.6-4.5,4.4-6.5c2.6-2.6,4.5-5.8,5.7-9.6c1.5-1.5,2.9-3.2,4.4-5.2
		c1.5-1.7,3-3.5,4.8-5.2l0.4-0.9c0.9-1.5,2-2.8,3.5-3.9c2.6-2.9,5.4-4.9,8.3-6.1v0.4c0,0.3,0.6,0.9,1.7,1.7c1.7,1.4,3.3,2.6,4.8,3.5
		c2.9,3.2,6.1,5.9,9.6,8.3c2,1.7,3.5,3.3,4.4,4.8c2.6,4.4,4.6,8.4,6.1,12.2c-0.3,1.4,0,2.6,0.9,3.5c0.6,1.2,0.6,2.6,0,4.4
		c-0.3,1.2-0.7,1.7-1.3,1.7c-0.6,0.3-1.3,0.9-2.2,1.7c-2.6,0.6-5.2,1.3-7.8,2.2c-0.9,0.6-1.9,0.9-3,0.9c-1.2,0.9-2.3,1.3-3.5,1.3
		c-0.6,0.3-1,0-1.3-0.9c-0.9-0.3-2.3,0.1-4.4,1.3c-0.3,0-0.7,0-1.3,0c-2.6-0.6-3.9-0.1-3.9,1.3c-0.3,1.4-0.4,2.6-0.4,3.5
		c0.9,3.5,2.8,5.7,5.7,6.5c1.2,0.6,3,1.3,5.7,2.2c2.3,0.9,3.8,1.3,4.4,1.3c1.7,0.9,4.2,1.3,7.4,1.3c3.2,0.6,5.2,0.6,6.1,0
		c1.2,0,2.6,0,4.4,0c0.9-0.9,2.8-1.5,5.7-1.7c1.7-0.9,3.3-2.5,4.8-4.8c0.3-1.2,1-2.3,2.2-3.5c0.6-0.6,1-1,1.3-1.3
		c1.5-1.5,2.8-2.8,3.9-3.9c2.9-3.5,5.2-7.5,7-12.2c0-0.6,0-1.3,0-2.2c-0.6-0.9-0.4-1.6,0.4-2.2c0-1.7,0-3.3,0-4.8c0-0.3,0-0.9,0-1.7
		C795.6,706.5,795.4,705.5,796,704.3z M593.4,661.1c0.6-0.9,0.9-1.7,0.9-2.6c0-1.2,0-2.2,0-3c0-0.9,0.4-1.7,1.3-2.6
		c2.6-0.9,5.1-0.9,7.4,0c0.6,0.6,0.9,1.2,0.9,1.7c0,0.6,0,1.3,0,2.2c-1.7,2.9-4.6,4.9-8.7,6.1c-0.6-0.9-1.2-1.3-1.7-1.3V661.1z
		 M109.6,664.8c1.4-3.2,2.6-6.5,3.5-10c2-4.4,3.3-8.7,3.9-13.1c0-1.2,0.1-2.2,0.4-3c1.4-2.6,2.2-5.4,2.2-8.3
		c0.6-1.7,1.2-3.2,1.7-4.4c2.6-1.7,4.8-2.3,6.5-1.7c0.6,0,0.9,0.3,0.9,0.9c-0.3,0.9-0.4,2.2-0.4,3.9c0,1.2,0.3,2.6,0.9,4.4
		c0,0.9-0.3,1.7-0.9,2.6c-0.6,0.9-1,1.7-1.3,2.6c-0.6,1.7-1.3,3.9-2.2,6.5c-0.6,1.7-1.5,3.6-2.6,5.7c-0.9,1.5-1.7,3-2.6,4.8
		c-0.6,2.6-1.7,4.8-3.5,6.5c-1.2,2-2.6,3.9-4.4,5.7H110C109.4,666.6,109.3,665.6,109.6,664.8z M126.6,734.4c0,0.3-0.1,0.9-0.4,1.7
		c-0.6,0.9-1.3,1.6-2.2,2.2c-0.9,0-1.7,0.4-2.6,1.3c-1.7,1.7-3.8,3.5-6.1,5.2c-2,1.5-3.8,3-5.2,4.8c-0.6,0-1.5,0.3-2.6,0.9
		c-1.2-1.7-1.7-3.5-1.7-5.2c0-3.5,0-7,0-10.4c0-1.2-0.1-2.3-0.4-3.5c-0.6-1.7-0.9-3.5-0.9-5.2c0-1.7,0-3.6,0-5.7c0-2,0-3.9,0-5.7
		c1.2-1.2,2.2-2.3,3-3.5c1.2,0,2.2,0,3,0c2,0,4.2,0.4,6.5,1.3c1.2,0.3,2.3,0.9,3.5,1.7c1.7,2.6,3.3,5.2,4.8,7.8
		c0,0.9-0.3,1.6-0.9,2.2c0.6,1.2,1.3,2.6,2.2,4.4C127.1,730.4,127.1,732.3,126.6,734.4z M322.9,742.5c-1.2,0.9-2.6,1.7-4.4,2.6v-2.6
		c0.6-1.4,1.3-2.6,2.2-3.5c0.9-0.6,1-0.9,0.4-0.9c0.9-0.9,1.7-1,2.6-0.4c1.2,0,1.9,0.6,2.2,1.7C325.1,740.4,324.1,741.4,322.9,742.5
		z M668.5,646.5c1.2-0.9,2.6-1.7,4.4-2.6c0,0.6,0,1.4,0,2.6c-0.5,1.3-1.2,2.4-2,3.2c-0.6-0.1-1.2,0.1-1.8,0.5c-0.5,0.2-1,0.6-1.5,1
		c-1.1,0-1.8-0.6-2.1-1.7C666.4,648.7,667.4,647.6,668.5,646.5z M761.2,646.5c-0.6,1.4-1.3,2.6-2.2,3.5c-0.9,0.6-1,0.9-0.4,0.9
		c-0.9,0.9-1.7,1-2.6,0.4c-1.2,0-1.9-0.6-2.2-1.7c0.9-0.9,1.9-1.9,3-3c1.2-0.9,2.6-1.7,4.4-2.6C761.2,644.5,761.2,645.3,761.2,646.5
		z"/>
	<path fill="#FCD9BE" d="M298.8,396.6c-1.4,0.4-2.7,1.1-3.9,2.2c0.9,1.7,1.6,3.9,2.2,6.5v1.7c-0.9,0-1.6,1-2.2,3
		c0.3,1.2,0.9,2.2,1.7,3c1.5,0.9,2.2,1.9,2.2,3c0.6,0.9,1.3,2.5,2.2,4.8c0.9,0,1.6,0.4,2.2,1.3c1.7,0,3.2,0.3,4.4,0.9
		c1.2,0.9,2.3,1.9,3.5,3c3.5,0.6,6.8,0.4,10-0.4c1.2-0.3,2.2,0,3,0.9c0.6,0,0.9,0.4,0.9,1.3c0,1.7,0.6,3.8,1.7,6.1
		c1.7,2.3,2.8,4.2,3,5.7c0.3,1.7,0.4,4.6,0.4,8.7c0.6,1.5,0.7,3.2,0.4,5.2c0.6,2,1.3,3.6,2.2,4.8c0.9,0.9,1.3,1.7,1.3,2.6
		c0.9,2.3,1.7,4.8,2.6,7.4c1.2,2.6,2.9,4.8,5.2,6.5c0.9,0.6,1.7,1.3,2.6,2.2c2.6,0.9,5.4,1.9,8.3,3h14.4c1.7-0.6,3.5-1.3,5.2-2.2
		c0.9-2.6,1.6-4.2,2.2-4.8v-4.8c-2.6-5.2-4.8-10.7-6.5-16.5c0-2.6-0.4-5.1-1.3-7.4c-0.6-2.3-0.7-4.4-0.4-6.1
		c-0.3-8.1-0.9-16.1-1.7-23.9v-2.2c0.3-1.2,0.4-2,0.4-2.6c0.9-2.3,1-4.6,0.4-7c0.6-0.9,0.9-1.7,0.9-2.6c2.6-1.2,4.2-2.2,4.8-3
		c0.9-1.2,2.2-2.2,3.9-3c4.4-2.3,7.8-5.2,10.4-8.7c0.9-0.6,1.9-1.2,3-1.7c1.2-1.7,2.3-2.8,3.5-3c1.2-0.9,3.2-2.5,6.1-4.8
		c2.9-2.9,3.2-3.9,0.9-3c-2.3,0.6-2,0,0.9-1.7c1.2,0,1.9-0.3,2.2-0.9c0.6-0.9,0.6-1.6,0-2.2c2.6-3.5,4.1-6.7,4.4-9.6
		c0-1.7-0.4-3.2-1.3-4.4l-2.6-2.6c-0.6-1.2-1.3-2.3-2.2-3.5c0.6-1.2-0.3-1.6-2.6-1.3c-2,0-3.6,0.4-4.8,1.3c-0.9,0.6-3.3,1.7-7.4,3.5
		c-0.9,0.6-2.6,1.7-5.2,3.5c-1.5,1.2-2.2,2-2.2,2.6c0,0.6-1,0.9-3,0.9c-1.5,0-2.8,0.3-3.9,0.9c-0.6-0.6-1.2-1.3-1.7-2.2v-7.4
		c1.2-5.2,1.7-10.1,1.7-14.8c0.6-1.7,1.3-3.2,2.2-4.4c-0.3-1.2-0.4-2.3-0.4-3.5c0.9-0.6,1-2,0.4-4.4c-0.9-1.7-2.3-3-4.4-3.9
		c-1.7-1.4-3.2-2.8-4.4-3.9c-0.3-0.6-0.9-0.9-1.7-0.9c-2.9,0.6-6.1,1.9-9.6,3.9c-0.9,0.6-1.7,1.3-2.6,2.2c-0.9,0.9-1.9,1.7-3,2.6
		c0.3,0.6,0.1,1.3-0.4,2.2c-0.6,0.9-0.9,1.6-0.9,2.2c-0.9,1.2-2,2.2-3.5,3c-0.3,2.6-1.3,4.4-3,5.2c-0.9,0.3-1.7,1-2.6,2.2
		c-1.2,2.9-2,5.5-2.6,7.8c-0.6,0.9-1.2,2.1-1.7,3.7c-0.6,1.6-1.2,2.8-1.7,3.7c-0.6,1.5-0.9,3.1-0.9,5v4.1c-0.3,0.6-0.6,1.5-0.9,2.6
		c0,0.5-0.2,0.9-0.5,1.2c0,0.2,0,0.3,0,0.5c-1,7.6-2.6,18.1-5.8,24.7c-1.3,2.7-16.4,2.9-19.6,5.7
		C301.9,396.7,300.4,396.7,298.8,396.6z"/>
	<path fill="#FCD9BE" d="M570,402.5c1.1,1.4,3,2.8,6,4c0.9,0.6,1.9,0.4,3-0.8c1.6-1.8,3.2-3.2,4.6-4.2c3-2.5,5-5.8,6.3-9.9
		c1.1-7.5,1.5-14.3,1.1-20.4c-0.4-3.5-2.2-5.7-5.2-6.6c-0.4-1.2-1.2-1.7-2.4-1.3c-1.8-1.3-4.1-1-6.9,0.8c-4.7,0.8-7.6,3.3-8.9,7.4
		c-2.6,4.8-4,10.4-4.4,16.6c0.5,3.2,1.9,6.7,4,10.7C567.4,399.6,568.3,400.8,570,402.5z"/>
</g>
</svg>
