<?xml version="1.0" encoding="utf-8"?>
<!-- Generator: Adobe Illustrator 17.1.0, SVG Export Plug-In . SVG Version: 6.00 Build 0)  -->
<!DOCTYPE svg PUBLIC "-//W3C//DTD SVG 1.1//EN" "http://www.w3.org/Graphics/SVG/1.1/DTD/svg11.dtd">
<svg version="1.1" id="Layer_1" xmlns="http://www.w3.org/2000/svg" xmlns:xlink="http://www.w3.org/1999/xlink" x="0px" y="0px"
	 viewBox="0 0 884.6 466.7" enable-background="new 0 0 884.6 466.7" xml:space="preserve">
<g>
	<path fill="#FF5097" d="M127.5,67.1c-1.5,3.9-2.9,7.7-4.4,11.4c-0.2,0.7-0.7,1.6-1.5,2.6c-1.5,2-2.9,4-4.4,6.2
		c-0.7,0.7-1.3,1.3-1.8,1.8c-0.7,1.5-1.5,3.1-2.2,4.8c0,0.7-0.2,1.2-0.7,1.5c-1.5,2.9-3.3,5.9-5.5,8.8c-1.2,1.2-2.3,2.6-3.3,4
		c-1,1-2,2-2.9,2.9c-1.5,1.5-3.2,2.9-5.1,4.4c-1.5,0.7-2.9,2.1-4.4,4c-1.5,1.5-2.6,2.6-3.3,3.3c-0.5,0.7-1.6,1.5-3.3,2.2
		c0,0.7,0,1.8,0,3.3c0,0.7,0,1.3,0,1.8c0,2.9-0.1,5.7-0.4,8.4c-0.2,0-0.4,0.2-0.4,0.7c-0.7,2.9-1.1,6.2-1.1,9.9
		c0.2,1.5-0.1,3.1-1.1,4.8c0.5,2,0.2,3.7-0.7,5.1c-0.5,3.7-1.5,7.4-2.9,11.4c-0.7,2.4-1.8,5.1-3.3,8.1c-1.2,2.9-2.9,5.7-5.1,8.4
		c0,0.2-0.4,0.6-1.1,1.1c-1.5,1-2.9,2.2-4.4,3.7c-2.2,2.9-5.5,5-9.9,6.2c-0.2-0.5-0.7-0.4-1.5,0.4h-7.7c-2.9-1.5-5-3.4-6.2-5.9
		c-0.7-1.5-1.8-2.8-3.3-4c0-1.2-0.2-2.2-0.7-2.9c-1-2-1.8-3.7-2.6-5.1c-0.7-1.7-1.5-2.9-2.2-3.7c0.2-1.5,0.4-2.9,0.4-4.4
		c0-0.7-0.2-2.1-0.7-4c0.7-2.4,1.5-4.9,2.2-7.3c1-3.7,2.6-7,4.8-9.9c1.7-2.9,3.5-5.6,5.5-8.1c2-2.2,4-4.3,6.2-6.2c1-1,2.2-2,3.7-2.9
		c0.7-0.5,1.2-1,1.5-1.5c1.2-1,2.2-1.8,2.9-2.6c0.7-0.7,1.5-1.3,2.2-1.8c0.2-2,0.6-3.7,1.1-5.1c0.5-0.5,0.5-1,0-1.5
		c0-2.2,0-4.4,0-6.6c0-0.7-0.1-1.1-0.4-1.1c-2.2,0.2-4.5,0.7-7,1.5c-2.4,0.7-4.9,1.7-7.3,2.9c-1.5-0.2-3.1,0-4.8,0.7
		c-0.2,0-0.7,0-1.5,0c-2.4,0-5.1,0-8.1,0c-0.7-0.2-1.7-0.4-2.9-0.4c-2.2,0.7-4.4,0.7-6.6,0c-1.2-1-2.2-1.8-2.9-2.6
		c-1.7-0.7-3.3-1.1-4.8-1.1c-0.5-0.5-1-0.8-1.5-1.1c-0.5,0-1.1,0-1.8,0c0,0.2-0.2,0.1-0.7-0.4c-1.2-1-2.2-2.2-2.9-3.7
		c-1.7-2.4-2.9-5.2-3.7-8.4c0-1.5-0.4-2.6-1.1-3.3c-1-3.7-1.5-7-1.5-9.9c0.5-1.7,0.4-3.5-0.4-5.5c1.2-2.4,2.2-4.4,2.9-5.9
		c0.2-0.7,0.9-1.8,1.8-3.3c1.2-1.7,1.7-2.9,1.5-3.7c1-0.7,1.7-1.6,2.2-2.6c3.4-2.9,5.5-4.6,6.2-5.1c0.2-0.5,0.6-0.7,1.1-0.7
		c0-0.5,0.7-1.1,2.2-1.8c1.5-0.7,2.2-1,2.2-0.7c1-0.2,1.8-0.6,2.6-1.1c1.2-0.5,2.6-1,4-1.5c2.2-1,3.8-1.8,4.8-2.6
		c1.5-0.7,2.6-1.3,3.3-1.8c1.5-1,3.2-1.6,5.1-1.8c2-0.2,3.9-0.6,5.9-1.1c2.9,0.5,5.6,1.1,8.1,1.8c0.5,0.2,1.1,0.4,1.8,0.4
		c2.9,1.5,5.9,2.8,8.8,4c2,0.7,3.4,1.8,4.4,3.3c0.7,0.5,1.3,0.6,1.8,0.4c0.7-0.7,1.1-1.3,1.1-1.8c0.7,0,1.3,0.2,1.8,0.7
		c0.5-1,1-1.8,1.5-2.6c1-0.2,2-0.4,2.9-0.4c0.7-0.7,1.5-1.1,2.2-1.1c1,0.7,2,1.2,2.9,1.5c0.5,0.7,1,1.6,1.5,2.6
		c0.5,3.4,0.5,6.7,0,9.9c0,1.5,0.1,3.3,0.4,5.5c0.2,0.7,0.4,2.1,0.4,4c0,7.1,0,14,0,20.9c-0.5,0.5-0.7,1-0.7,1.5c0,2.4,0,4.8,0,7
		c0.5-0.7,1.1-1.5,1.8-2.2c1.5-1.5,2.6-2.6,3.3-3.3c0.5-1,1.8-1.8,4-2.6c0.7-1.5,1.8-2.6,3.3-3.3c2.4-2,4.3-4.4,5.5-7.3
		c1.5-1.5,2.7-3.1,3.7-4.8c0.2-0.2,0.6-0.9,1.1-1.8c0.5-1.5,1-2.1,1.5-1.8c1.5-2.2,2.7-4.1,3.7-5.9c1-2.2,2.4-5.6,4.4-10.3
		c1-0.7,1.8-1.5,2.6-2.2c0.7-0.2,1.3-0.7,1.8-1.5c2.4-0.7,4.5,0,6.2,2.2C128.2,63,128.2,64.9,127.5,67.1z M57.9,84.7
		c-0.2-0.5-0.7-0.7-1.5-0.7c0-1.5-0.4-2.7-1.1-3.7c-0.5-2.4-0.9-4.8-1.1-7c0.2-0.7,0-1.2-0.7-1.5c-2.9-0.7-6.2-1.7-9.9-2.9
		c-1.5-0.7-3.1-0.7-4.8,0c-0.7,0.2-2.3,1.8-4.8,4.8c-1,1.5-1.3,2.8-1.1,4c0.5,0.7,0.2,1.1-0.7,1.1c-0.2-0.5-0.4-0.5-0.4,0
		c-1,1-1.2,2-0.7,2.9c-0.5,0.5-0.9,1.1-1.1,1.8v1.8c-0.7,1.5-1.2,2.7-1.5,3.7c-0.5,0.7-0.5,1.8,0,3.3c-0.7,3.4-1,7-0.7,10.6
		c0.7,0,1.2,0.6,1.5,1.8c0.2,0.7,0.6,1.5,1.1,2.2c1,0.7,2.3,1.3,4,1.8c1.5,0.5,2.6,0.5,3.3,0c2.4-1,4.8-1.8,7-2.6
		c2.2-1.2,4.1-2.3,5.9-3.3c1.5-1.5,2.6-2.9,3.3-4.4c1.5-3.4,2.8-6.8,4-10.3C58.4,86.9,58.4,85.6,57.9,84.7z M55.7,148.8
		c-1.7,1-3.3,2.2-4.8,3.7h-1.1c-0.7,0.7-1.3,1.5-1.8,2.2c-0.5,0.7-1.1,1.7-1.8,2.9c-0.7,1.2-1.2,2.3-1.5,3.3c-0.7,2.2-1.3,4-1.8,5.5
		v8.1c0.7,1.5,1.5,3.3,2.2,5.5c1-0.5,2-0.7,2.9-0.7c1.5-1,2.4-2.3,2.9-4c1-3.2,2-6.5,2.9-9.9c1-2.2,1.5-4.4,1.5-6.6
		c0-0.7,0.1-1.5,0.4-2.2C56.4,154,56.4,151.5,55.7,148.8z"/>
	<path fill="#FF5097" d="M115.4,44c0.2-2.2,0.7-3.8,1.5-4.8c0.7-1.5,1.3-2.3,1.8-2.6c2.2-2.2,4.3-3.8,6.2-4.8
		c4.1-1,8.1-1.1,11.7-0.4c2.9,0,5.1,1.5,6.6,4.4c1.7,1.5,2.3,2.9,1.8,4.4c0.5,0.7,0.4,1.3-0.4,1.8c0,2.2-1.1,3.8-3.3,4.8
		c-3.9,1.5-8.4,2.6-13.6,3.3c-2.9,0-5.5-0.7-7.7-2.2c-1-0.7-2.2-1.5-3.7-2.2C115.5,45.3,115.2,44.7,115.4,44z M183.2,89.4
		c-7.3,7.6-10.9,11.1-10.6,10.6c-0.2,0-1.5,1.2-3.7,3.7c-2,2-3.2,3.7-3.7,5.1c-0.7,1-1.5,2-2.2,2.9c-2.4,2.9-5.1,5.9-8.1,8.8
		c-2.2,2.9-4.9,4.9-8.1,5.9c-0.7,0.5-1.8,0.9-3.3,1.1c-1,0-2.6,0-4.8,0c-0.7,0-1.7,0-2.9,0c-1.7-0.7-3.7-1.2-5.9-1.5
		c-3.9-2.2-7-5.6-9.2-10.3c-0.5-0.7-1-2.1-1.5-4c0-2.9,0.4-5.6,1.1-8.1c0.5-1,0.5-2.1,0-3.3c-0.2-1.5-0.1-2.6,0.4-3.3
		c0.7-4.9,0.9-9.9,0.4-15c0.2-2.2,0-4.4-0.7-6.6c-0.7-1.5-1.6-2.9-2.6-4.4c-0.7-0.7-1.3-2-1.8-3.7c0-1.5,0.4-2.9,1.1-4.4
		c5.9-3.4,9.5-5.5,11-6.2c1.5-0.7,2.7-0.7,3.7,0c2.4,0.7,5.2,1.5,8.4,2.2c2.2,0.5,3.8,1,4.8,1.5c0.5,0.5,0.7,0.9,0.7,1.1
		c1,3.2,2.3,6.2,4,9.2c1.2,2.4,2.2,4.8,2.9,7c0.7,2.7,1.6,5.3,2.6,7.7c0,1.5,0,3.5,0,6.2c0,2.2,0.1,4.2,0.4,5.9
		c7.1-6.1,11.7-10.3,13.9-12.5c2.7-2.2,4.8-4.5,6.2-7c2-1.5,3.4-2.7,4.4-3.7c1.5-1,2.6-2.3,3.3-4c3.2-2.9,5.1-4.8,5.9-5.5
		c2-2,4.2-4,6.6-6.2c1.5-0.7,2.2-1,2.2-0.7c2,0.2,3.3,0.6,4,1.1c1,0,1.6,0.7,1.8,2.2c0,0.5,0,0.9,0,1.1c0,0.7,0.1,1.3,0.2,1.8
		c0.1,0.5-0.2,1.3-0.9,2.6C197.2,73.8,190.5,81.4,183.2,89.4z"/>
	<path fill="#FF5097" d="M286.5,65.6c0.5,0.7,0.4,1.8-0.4,3.3c-0.2,1.5-1.8,2.4-4.8,2.9c-1.5,0.2-2.8,0.6-4,1.1
		c-0.7,0-1.8,0.2-3.3,0.7c-5.9,1-10.1,2-12.8,2.9c-2.2,0.5-5.4,1.1-9.5,1.8c-0.2,1.5-0.7,2.9-1.5,4.4c-0.7,1.5-1.3,3.2-1.8,5.1
		c-0.5,1.5-1.2,2.9-2.2,4.4c-0.5,1.5-1.1,2.9-1.8,4.4c0,0.2-0.2,0.7-0.7,1.5c-0.7,2.9-1.8,5.9-3.3,8.8c-1.5,3.7-2.8,7.5-4,11.4
		c-0.2,1-0.9,2-1.8,2.9c-0.5,0.5-1.1,0.5-1.8,0c-0.5-0.5-1.1-0.7-1.8-0.7c-1.5,0-2.9,0-4.4,0c-1.5,1-3.4,1.8-5.9,2.6
		c-2.4-0.7-4.8-2.4-7-5.1c-0.2-1.7-0.7-3.5-1.5-5.5c-0.7-1.5-1.6-2.3-2.6-2.6c-0.5-0.7-0.9-1.3-1.1-1.8c0-0.7-0.4-1.5-1.1-2.2
		c0-1,0-1.8,0-2.6c0-0.2,0-0.6,0-1.1c0-0.5-0.1-0.7-0.4-0.7c-0.7-2.2-2-4.3-3.7-6.2c0-0.7-0.4-1.3-1.1-1.8c-0.5-1.5-1-2.7-1.5-3.7
		c-0.5-0.5-0.7-1.1-0.7-1.8c0-1.5-0.4-2.6-1.1-3.3c0.2-0.5,0-0.7-0.7-0.7c-1.5-3.9-2.6-7.9-3.3-12.1c0.5-0.2,0.1-2.1-1.1-5.5
		c-0.7-3.4-1.2-5.4-1.5-5.9c0.2-0.5,0.4-1,0.4-1.5c0-1.5,0.2-2,0.7-1.5c0.5,0.5,0.9,0,1.1-1.5c0.5-0.7,0.7-1.5,0.7-2.2
		c0-0.7,0.7-1.1,2.2-1.1c1.5,0,2.2-0.2,2.2-0.7l0.4-0.7h1.5c1,0.7,2,1.6,2.9,2.6c0.5,1.5,0.7,2.8,0.7,4c0.7,0.7,1.3,1.7,1.8,2.9
		c2,3.7,3.3,7.3,4,11c0.7,0.7,0.9,1.5,0.4,2.2c0,1.2,0.4,2.6,1.1,4c1.5,3.4,2.8,6.8,4,10.3c0.2,0,0.6,0.2,1.1,0.7
		c0.5-0.5,1.7-3.1,3.7-7.7c2.2-5.1,3.7-8.3,4.4-9.5c1-2.7,1.8-5.1,2.6-7.3c1.2-4.6,1.5-7.6,0.7-8.8c-0.2-0.2-0.6-0.9-1.1-1.8
		c0-1.5-0.1-2.4-0.4-2.9c0.7-1,1.3-1.8,1.8-2.6c0.5-0.7,1.1-1.6,1.8-2.6c1.2-0.7,2.3-1.1,3.3-1.1c2.4,0.2,4.6,0,6.6-0.7
		c2.9,0.7,6,1.7,9.2,2.9c2.2,2.2,3.7,4.9,4.4,8.1c0.7,0.7,1.1,2,1.1,3.7c0,0.7-0.2,2.8-0.7,6.2c0.5,0,0.7-0.1,0.7-0.4
		c1-0.5,2-0.7,2.9-0.7c1.5-0.5,2.6-0.5,3.3,0c1.2,0,2.2-0.2,2.9-0.7c1-0.7,2.2-0.9,3.7-0.4l0.4,0.4c1.5-0.2,2.9-0.6,4.4-1.1
		c1.5,0,2.9-0.1,4.4-0.4c2-0.5,3.4-0.7,4.4-0.7c0.7-0.2,1.8,0.6,3.3,2.6C285.4,63.9,285.7,64.6,286.5,65.6z"/>
	<path fill="#FF5097" d="M276.6,44c0.2-2.2,0.7-3.8,1.5-4.8c0.7-1.5,1.3-2.3,1.8-2.6c2.2-2.2,4.3-3.8,6.2-4.8
		c4.1-1,8.1-1.1,11.7-0.4c2.9,0,5.1,1.5,6.6,4.4c1.7,1.5,2.3,2.9,1.8,4.4c0.5,0.7,0.4,1.3-0.4,1.8c0,2.2-1.1,3.8-3.3,4.8
		c-3.9,1.5-8.4,2.6-13.6,3.3c-2.9,0-5.5-0.7-7.7-2.2c-1-0.7-2.2-1.5-3.7-2.2C276.7,45.3,276.3,44.7,276.6,44z M344.4,89.4
		c-7.3,7.6-10.9,11.1-10.6,10.6c-0.2,0-1.5,1.2-3.7,3.7c-2,2-3.2,3.7-3.7,5.1c-0.7,1-1.5,2-2.2,2.9c-2.4,2.9-5.1,5.9-8.1,8.8
		c-2.2,2.9-4.9,4.9-8.1,5.9c-0.7,0.5-1.8,0.9-3.3,1.1c-1,0-2.6,0-4.8,0c-0.7,0-1.7,0-2.9,0c-1.7-0.7-3.7-1.2-5.9-1.5
		c-3.9-2.2-7-5.6-9.2-10.3c-0.5-0.7-1-2.1-1.5-4c0-2.9,0.4-5.6,1.1-8.1c0.5-1,0.5-2.1,0-3.3c-0.2-1.5-0.1-2.6,0.4-3.3
		c0.7-4.9,0.9-9.9,0.4-15c0.2-2.2,0-4.4-0.7-6.6c-0.7-1.5-1.6-2.9-2.6-4.4c-0.7-0.7-1.3-2-1.8-3.7c0-1.5,0.4-2.9,1.1-4.4
		c5.9-3.4,9.5-5.5,11-6.2c1.5-0.7,2.7-0.7,3.7,0c2.4,0.7,5.2,1.5,8.4,2.2c2.2,0.5,3.8,1,4.8,1.5c0.5,0.5,0.7,0.9,0.7,1.1
		c1,3.2,2.3,6.2,4,9.2c1.2,2.4,2.2,4.8,2.9,7c0.7,2.7,1.6,5.3,2.6,7.7c0,1.5,0,3.5,0,6.2c0,2.2,0.1,4.2,0.4,5.9
		c7.1-6.1,11.7-10.3,13.9-12.5c2.7-2.2,4.8-4.5,6.2-7c2-1.5,3.4-2.7,4.4-3.7c1.5-1,2.6-2.3,3.3-4c3.2-2.9,5.1-4.8,5.9-5.5
		c2-2,4.2-4,6.6-6.2c1.5-0.7,2.2-1,2.2-0.7c2,0.2,3.3,0.6,4,1.1c1,0,1.6,0.7,1.8,2.2c0,0.5,0,0.9,0,1.1c0,0.7,0.1,1.3,0.2,1.8
		c0.1,0.5-0.2,1.3-0.9,2.6C358.4,73.8,351.7,81.4,344.4,89.4z"/>
	<path fill="#FF5097" d="M475.5,68.9c-0.5,0.2-1,1.1-1.5,2.6c-1.5,2-3.1,4.4-4.8,7.3c-1.7,2.9-2.9,5.4-3.7,7.3
		c-0.7,1.5-1.3,2.6-1.8,3.3c-0.5,0.7-1.1,1.8-1.8,3.3c-0.7,1.5-2,3.4-3.7,5.9c-1.5,2.2-2.9,4.4-4.4,6.6c-0.7,1.5-2.1,4.2-4,8.1
		c-1.5,1.5-3.2,3.5-5.1,6.2c-2,2.7-3.7,4.8-5.1,6.2c-0.5,0.5-1.1,1.2-1.8,2.2c-0.7,0.5-1.3,1-1.8,1.5c-2,0.5-3.8,1.1-5.5,1.8
		c-1.7,0.7-3.3,1.5-4.8,2.2l-7,0.4c-2.4,0-5.1-1-8.1-2.9c-2.2-2.9-4.2-6.1-5.9-9.5c-0.2-0.5-0.4-1.1-0.4-1.8c0-1.2-0.2-2.2-0.7-2.9
		c-0.5-0.7-0.7-1.5-0.7-2.2c0-0.7-0.2-1.3-0.7-1.8c0-3.7,0.5-7,1.5-9.9c0.5-3.7,0.9-7.1,1.1-10.3c0.2-2.2,0.7-4,1.5-5.5
		c0-0.5,0-1.1,0-1.8c2.2-10,1.1-15.8-3.3-17.2c-1.5-0.7-2.9-1.3-4.4-1.8c-0.5,0-0.9,0.2-1.1,0.7c-1.7,1.2-3.3,2.3-4.8,3.3
		c-1,0.5-1.8,1.1-2.6,1.8c0,1.7-0.2,3.7-0.7,5.9c0,0.7,0,1.5,0,2.2c0.2,3.7-0.1,7.3-1.1,11c-0.5,2.9-1.2,6.1-2.2,9.5
		c-0.5,3.7-1,7.6-1.5,11.7c0,2.2-0.4,4.4-1.1,6.6c-0.2,1.2-0.9,2.2-1.8,2.9c-1.5,0.7-3.2,1.3-5.1,1.8c-2,0.2-2.9,0.5-2.9,0.7
		c-2,1.5-4.3,2-7,1.5c-1.7-0.7-3.1-1.1-4-1.1c-2-0.2-3.4-1.1-4.4-2.6c-0.5-2-1.5-3.3-2.9-4c-0.5-3.4-0.5-6.6,0-9.5
		c1-3.7,1.8-7.3,2.6-11c-0.2-1.5-0.1-3.7,0.4-6.6c1-3.7,1.3-7,1.1-9.9c0-1.5-0.5-3.5-1.5-6.2c-0.7-2.7-0.6-7,0.4-12.8
		c1.5-2.2,2.9-4,4.4-5.5c1.5-1.2,2.3-2.3,2.6-3.3c0.7-1,1.7-1.6,2.9-1.8c0.7,0,1.5,0,2.2,0c0.7,0,1.6,0,2.6,0c3.4-0.7,6.2,0,8.4,2.2
		c0.2,0.2,0.7,0.4,1.5,0.4h2.9c1.2-1,2.6-1.8,4-2.6c0.7,0,1.5-0.4,2.2-1.1c0.7-1,1.5-1.5,2.2-1.5c1-0.5,2.1-0.5,3.3,0
		c0.7-1,1.3-1.8,1.8-2.6c2-0.2,4-0.6,6.2-1.1c2.2,1,4.5,2.2,7,3.7c0.7,0,2.1,0.2,4,0.7c2.2,0.5,3.3,0.6,3.3,0.4
		c5.1,2.9,8.4,6.6,9.9,11c1.7,4.4,2.4,9.2,2.2,14.3c0,4.9-0.5,10.3-1.5,16.1c-0.7,5.4-1.3,10.6-1.8,15.8c0.5,2.9,1.3,4,2.6,3.3
		c1.7-0.7,3.1-1.1,4-1.1c0,0.2,1.5-1.6,4.4-5.5c2.9-4.4,4.5-6.5,4.8-6.2c1-0.7,2.2-3.1,3.7-7c1.7-3.9,3.1-6.3,4-7.3
		c0.5-0.7,1.1-1.5,1.8-2.2c1.2-1,2.2-2.3,2.9-4c2.7-3.4,5-7.1,7-11c0.7-0.7,1.5-1.8,2.2-3.3l1.8-2.2c0.5-0.5,0.7-1.1,0.7-1.8
		c0.7-0.2,1.5-0.4,2.2-0.4c1.7-0.5,3.3-0.4,4.8,0.4c1.5,0.7,1.8,3.3,1.1,7.7C476.6,67.8,476.2,68.7,475.5,68.9z"/>
	<path fill="#FF5097" d="M582.5,67.1c-1.5,3.9-2.9,7.7-4.4,11.4c-0.2,0.7-0.7,1.6-1.5,2.6c-1.5,2-2.9,4-4.4,6.2
		c-0.7,0.7-1.3,1.3-1.8,1.8c-0.7,1.5-1.5,3.1-2.2,4.8c0,0.7-0.2,1.2-0.7,1.5c-1.5,2.9-3.3,5.9-5.5,8.8c-1.2,1.2-2.3,2.6-3.3,4
		c-1,1-2,2-2.9,2.9c-1.5,1.5-3.2,2.9-5.1,4.4c-1.5,0.7-2.9,2.1-4.4,4c-1.5,1.5-2.6,2.6-3.3,3.3c-0.5,0.7-1.6,1.5-3.3,2.2
		c0,0.7,0,1.8,0,3.3c0,0.7,0,1.3,0,1.8c0,2.9-0.1,5.7-0.4,8.4c-0.2,0-0.4,0.2-0.4,0.7c-0.7,2.9-1.1,6.2-1.1,9.9
		c0.2,1.5-0.1,3.1-1.1,4.8c0.5,2,0.2,3.7-0.7,5.1c-0.5,3.7-1.5,7.4-2.9,11.4c-0.7,2.4-1.8,5.1-3.3,8.1c-1.2,2.9-2.9,5.7-5.1,8.4
		c0,0.2-0.4,0.6-1.1,1.1c-1.5,1-2.9,2.2-4.4,3.7c-2.2,2.9-5.5,5-9.9,6.2c-0.2-0.5-0.7-0.4-1.5,0.4h-7.7c-2.9-1.5-5-3.4-6.2-5.9
		c-0.7-1.5-1.8-2.8-3.3-4c0-1.2-0.2-2.2-0.7-2.9c-1-2-1.8-3.7-2.6-5.1c-0.7-1.7-1.5-2.9-2.2-3.7c0.2-1.5,0.4-2.9,0.4-4.4
		c0-0.7-0.2-2.1-0.7-4c0.7-2.4,1.5-4.9,2.2-7.3c1-3.7,2.6-7,4.8-9.9c1.7-2.9,3.5-5.6,5.5-8.1c2-2.2,4-4.3,6.2-6.2c1-1,2.2-2,3.7-2.9
		c0.7-0.5,1.2-1,1.5-1.5c1.2-1,2.2-1.8,2.9-2.6c0.7-0.7,1.5-1.3,2.2-1.8c0.2-2,0.6-3.7,1.1-5.1c0.5-0.5,0.5-1,0-1.5
		c0-2.2,0-4.4,0-6.6c0-0.7-0.1-1.1-0.4-1.1c-2.2,0.2-4.5,0.7-7,1.5c-2.4,0.7-4.9,1.7-7.3,2.9c-1.5-0.2-3.1,0-4.8,0.7
		c-0.2,0-0.7,0-1.5,0c-2.4,0-5.1,0-8.1,0c-0.7-0.2-1.7-0.4-2.9-0.4c-2.2,0.7-4.4,0.7-6.6,0c-1.2-1-2.2-1.8-2.9-2.6
		c-1.7-0.7-3.3-1.1-4.8-1.1c-0.5-0.5-1-0.8-1.5-1.1c-0.5,0-1.1,0-1.8,0c0,0.2-0.2,0.1-0.7-0.4c-1.2-1-2.2-2.2-2.9-3.7
		c-1.7-2.4-2.9-5.2-3.7-8.4c0-1.5-0.4-2.6-1.1-3.3c-1-3.7-1.5-7-1.5-9.9c0.5-1.7,0.4-3.5-0.4-5.5c1.2-2.4,2.2-4.4,2.9-5.9
		c0.2-0.7,0.9-1.8,1.8-3.3c1.2-1.7,1.7-2.9,1.5-3.7c1-0.7,1.7-1.6,2.2-2.6c3.4-2.9,5.5-4.6,6.2-5.1c0.2-0.5,0.6-0.7,1.1-0.7
		c0-0.5,0.7-1.1,2.2-1.8c1.5-0.7,2.2-1,2.2-0.7c1-0.2,1.8-0.6,2.6-1.1c1.2-0.5,2.6-1,4-1.5c2.2-1,3.8-1.8,4.8-2.6
		c1.5-0.7,2.6-1.3,3.3-1.8c1.5-1,3.2-1.6,5.1-1.8c2-0.2,3.9-0.6,5.9-1.1c2.9,0.5,5.6,1.1,8.1,1.8c0.5,0.2,1.1,0.4,1.8,0.4
		c2.9,1.5,5.9,2.8,8.8,4c2,0.7,3.4,1.8,4.4,3.3c0.7,0.5,1.3,0.6,1.8,0.4c0.7-0.7,1.1-1.3,1.1-1.8c0.7,0,1.3,0.2,1.8,0.7
		c0.5-1,1-1.8,1.5-2.6c1-0.2,2-0.4,2.9-0.4c0.7-0.7,1.5-1.1,2.2-1.1c1,0.7,2,1.2,2.9,1.5c0.5,0.7,1,1.6,1.5,2.6
		c0.5,3.4,0.5,6.7,0,9.9c0,1.5,0.1,3.3,0.4,5.5c0.2,0.7,0.4,2.1,0.4,4c0,7.1,0,14,0,20.9c-0.5,0.5-0.7,1-0.7,1.5c0,2.4,0,4.8,0,7
		c0.5-0.7,1.1-1.5,1.8-2.2c1.5-1.5,2.6-2.6,3.3-3.3c0.5-1,1.8-1.8,4-2.6c0.7-1.5,1.8-2.6,3.3-3.3c2.4-2,4.3-4.4,5.5-7.3
		c1.5-1.5,2.7-3.1,3.7-4.8c0.2-0.2,0.6-0.9,1.1-1.8c0.5-1.5,1-2.1,1.5-1.8c1.5-2.2,2.7-4.1,3.7-5.9c1-2.2,2.4-5.6,4.4-10.3
		c1-0.7,1.8-1.5,2.6-2.2c0.7-0.2,1.3-0.7,1.8-1.5c2.4-0.7,4.5,0,6.2,2.2C583.2,63,583.2,64.9,582.5,67.1z M512.9,84.7
		c-0.2-0.5-0.7-0.7-1.5-0.7c0-1.5-0.4-2.7-1.1-3.7c-0.5-2.4-0.9-4.8-1.1-7c0.2-0.7,0-1.2-0.7-1.5c-2.9-0.7-6.2-1.7-9.9-2.9
		c-1.5-0.7-3.1-0.7-4.8,0c-0.7,0.2-2.3,1.8-4.8,4.8c-1,1.5-1.3,2.8-1.1,4c0.5,0.7,0.2,1.1-0.7,1.1c-0.2-0.5-0.4-0.5-0.4,0
		c-1,1-1.2,2-0.7,2.9c-0.5,0.5-0.9,1.1-1.1,1.8v1.8c-0.7,1.5-1.2,2.7-1.5,3.7c-0.5,0.7-0.5,1.8,0,3.3c-0.7,3.4-1,7-0.7,10.6
		c0.7,0,1.2,0.6,1.5,1.8c0.2,0.7,0.6,1.5,1.1,2.2c1,0.7,2.3,1.3,4,1.8c1.5,0.5,2.6,0.5,3.3,0c2.4-1,4.8-1.8,7-2.6
		c2.2-1.2,4.1-2.3,5.9-3.3c1.5-1.5,2.6-2.9,3.3-4.4c1.5-3.4,2.8-6.8,4-10.3C513.4,86.9,513.4,85.6,512.9,84.7z M510.7,148.8
		c-1.7,1-3.3,2.2-4.8,3.7h-1.1c-0.7,0.7-1.3,1.5-1.8,2.2c-0.5,0.7-1.1,1.7-1.8,2.9c-0.7,1.2-1.2,2.3-1.5,3.3c-0.7,2.2-1.3,4-1.8,5.5
		v8.1c0.7,1.5,1.5,3.3,2.2,5.5c1-0.5,2-0.7,2.9-0.7c1.5-1,2.4-2.3,2.9-4c1-3.2,2-6.5,2.9-9.9c1-2.2,1.5-4.4,1.5-6.6
		c0-0.7,0.1-1.5,0.4-2.2C511.4,154,511.4,151.5,510.7,148.8z"/>
	<path fill="#FF5097" d="M449.6,297.3c-2.2,0.7-4.4,1.7-6.6,2.9c-0.7-0.2-1.3-0.4-1.8-0.4c-0.5,0-0.9,0-1.1,0
		c-1.7,0.5-3.3,1.1-4.8,1.8c-0.7,0-1.5,0.2-2.2,0.7c-3.4,0.7-7,1.8-10.6,3.3c-1.2,0-2.9-0.1-5.1-0.4c-2.2-2-4-4-5.5-6.2
		c-2.4-2-5.1-3.8-8.1-5.5c-0.5-0.7-1.1-1-1.8-0.7c0-0.2-0.4-1.7-1.1-4.4c-0.7-2.7-1.7-4.6-2.9-5.9c0.5-0.7,0.7-1.5,0.7-2.2
		c-0.5-1.5-1.1-2.9-1.8-4.4c0-1,0-2.2,0-3.7c-0.7-1.7-1.5-3.7-2.2-5.9c-0.2-2.9-0.4-5.9-0.4-8.8c-0.5-1.2-0.9-2.6-1.1-4
		c-0.7-0.5-1.1-2.2-1.1-5.1c0.5-3.4,0.2-6.2-0.7-8.4c1-3.7,1.3-7.2,1.1-10.6c-0.2-1.5,0-3.2,0.7-5.1c0.2-1,0.4-2,0.4-2.9
		c0-1.9,0-3.9,0-5.9c0-2.2,0.2-4.3,0.7-6.2c0.7-0.7,0.9-1.6,0.4-2.6c0.2-3.9,0.7-7.7,1.5-11.4c0.5-0.7,0.7-1.5,0.7-2.2
		c0.7-4.9,1.7-9.5,2.9-13.9c1.5-4.6,3.4-9.4,5.9-14.3c0.7-0.7,1.6-1.5,2.6-2.2c1.5-2.4,2.7-4.9,3.7-7.3c1.5-1.9,2.9-3.7,4.4-5.1
		c1.5-2.2,3.4-3.7,5.9-4.4c1,0,2.1,0,3.3,0c2.2,1,4.1,2,5.9,2.9c1.7,0,2.9,0.1,3.7,0.4c2.9-0.2,5.9,0.1,8.8,1.1
		c-0.2,0-0.1,0.2,0.4,0.7c2,1.5,3.2,2.4,3.7,2.9c0.7,0.5,1.8,1.8,3.3,4c1,2,2.4,3.4,4.4,4.4l0.7,0.4c0.7,2.2,1.6,4.4,2.6,6.6
		c0,3.9,0,7.8,0,11.7c-0.5,2.2-1.5,4.4-2.9,6.6c0,0.7-0.1,1.8-0.4,3.3c-0.7,2.7-2.2,4.8-4.4,6.2c-2.2,4.4-4.5,8.3-7,11.7
		c-2,3.4-4.4,6.5-7.3,9.2c-2.4,2.2-4.9,4.5-7.3,7c-0.5,0.5-0.6,1-0.4,1.5c2,0.5,3.3,0.5,4,0c1-0.5,1.8-0.7,2.6-0.7
		c1.2,0,2.2,0,2.9,0c2.2,1,3.9,1.8,5.1,2.6c1.2,0.7,2.9,2.2,5.1,4.4c1.7,0.7,3.7,1.7,5.9,2.9c1.5,1,2.6,2.2,3.3,3.7
		c2.4,4.6,5.6,8.7,9.5,12.1c1-0.5,1.8-0.7,2.6-0.7c3.4-2.2,6.2-4.8,8.4-7.7c3.4-3.7,6.4-7.3,8.8-11c1-1.7,3.2-4,6.6-7
		c1.5-0.5,2.7-0.7,3.7-0.7c1.5-0.5,2.8-1,4-1.5c0.7,0,1.6,0.2,2.6,0.7c1-0.7,1.8-1.3,2.6-1.8c1.2-0.2,2.2,0.4,2.9,1.8
		c0.7,1,1.7,1.7,2.9,2.2c0.5,0.5,0.7,0.9,0.7,1.1c-2.2,4.6-4.8,8.8-7.7,12.5c-0.5,0.7-1.1,1.3-1.8,1.8c-2.2,2.2-4.4,4.4-6.6,6.6
		c-3.4,3.4-7.1,6.1-11,8.1c-0.7,0.5-1.5,0.9-2.2,1.1c-1.2,0.7-2.3,1.7-3.3,2.9c-1,0.7-2.2,1.5-3.7,2.2c-1.5,1.5-3.3,2.9-5.5,4.4
		c-0.7,3.7-1.7,7.3-2.9,11c-0.2,1.7-0.9,3.1-1.8,4c-1,1-1.8,2.4-2.6,4.4c-2.7,2.2-5.3,4.8-7.7,7.7
		C454.1,294.3,451.8,295.6,449.6,297.3z M421,254.8c0,1.7,0,3.3,0,4.8s0.2,2.9,0.7,4.4c0.2,1,0.4,2,0.4,2.9c0,2.9,0,5.9,0,8.8
		c0,1.5,0.5,2.9,1.5,4.4c1-0.5,1.7-0.7,2.2-0.7c1.2-1.5,2.7-2.8,4.4-4c2-1.5,3.7-2.9,5.1-4.4c0.7-0.7,1.5-1.1,2.2-1.1
		c0.7-0.5,1.3-1.1,1.8-1.8c0.2-0.7,0.4-1.2,0.4-1.5c0.5-1.7,0.5-3.3,0-4.8c-0.7-1.5-1.3-2.7-1.8-3.7c0.5-0.5,0.7-1.1,0.7-1.8
		c-1.2-2.2-2.6-4.4-4-6.6c-1-0.7-2-1.2-2.9-1.5c-2-0.7-3.8-1.1-5.5-1.1c-0.7,0-1.6,0-2.6,0c-0.7,1-1.6,2-2.6,2.9
		C421,251.5,421,253.1,421,254.8z M433.8,178.9c0,2.4-0.6,4.8-1.8,7c-0.2,0.7-0.4,1.6-0.4,2.6c-0.5,3.7-1.6,7.3-3.3,11
		c-0.7,2.9-1.7,5.7-2.9,8.4c-0.2,0.7-0.1,1.6,0.4,2.6h1.5c1.5-1.5,2.7-3.1,3.7-4.8c1.5-1.5,2.4-3.3,2.9-5.5c0.7-1.5,1.5-2.8,2.2-4
		c1-1.7,1.7-3.3,2.2-4.8c0.7-2.2,1.3-4,1.8-5.5c0.2-0.7,0.6-1.5,1.1-2.2c0.5-0.7,0.7-1.5,0.7-2.2c-0.5-1.5-0.7-2.7-0.7-3.7
		c0-1.5,0.1-2.6,0.4-3.3c0-0.5-0.2-0.7-0.7-0.7c-1.5-0.5-3.3,0-5.5,1.5C434.8,176.3,434.3,177.5,433.8,178.9z"/>
	<path fill="#FF5097" d="M604.9,261c-1.5,2-2.3,3.1-2.6,3.3c-2.2,2.9-4.4,5.9-6.6,8.8c-2,2.2-4.4,3.4-7.3,3.7
		c-1,0.2-1.7,0.7-2.2,1.5c0,0.7-0.7,0.7-2.2,0c-0.7-0.7-1.8-1-3.3-0.7c-2.4-0.7-4.6-1.7-6.6-2.9c-1-0.7-2-1.8-2.9-3.3
		c-0.7-0.7-1.5-1.3-2.2-1.8c-1.5,0.2-2.7,0.7-3.7,1.5c-3.4,2.2-7.5,4.2-12.1,5.9c0,0.2-0.4,0.4-1.1,0.4c-2.4,1.5-5.1,2.9-8.1,4.4
		c-2.2,1.5-4.8,3.1-7.7,4.8c-0.7,0-1.3,0.4-1.8,1.1c-1,0-2.2,0.1-3.7,0.4c-2.4-0.2-4.8-0.4-7-0.4c-1-0.5-2.2-1.1-3.7-1.8
		c-0.7-0.7-1.8-1-3.3-0.7c-2.9-1.2-6.1-2.6-9.5-4c-4.9-2.9-8.4-7.2-10.6-12.8c-0.7-1.7-1.5-3.3-2.2-4.8c-1.5-2.9-2.6-6.1-3.3-9.5
		c0.7-1,1.1-2.1,1.1-3.3c0-1.7-0.4-3.3-1.1-4.8c1-3.9,2.1-8.1,3.3-12.5c2.2-2.9,3.5-4.9,4-5.9c0.5-1,2.2-2.8,5.1-5.5
		c1,0,2.3-0.2,4-0.7c0.7-0.7,1.7-1.3,2.9-1.8c1.2,0,2.6-0.2,4-0.7c1.5,0,2.7-0.4,3.7-1.1c2.4,0.7,4.9,1.1,7.3,1.1
		c2.4-0.7,4.8-1.1,7-1.1c2.2,0,4.3,0,6.2,0c1.5-0.7,2.9-1.2,4.4-1.5c2.9,0,5.7,0,8.4,0c3.7,1.2,6.6,2.6,8.8,4
		c3.7,1.5,6.8,3.3,9.5,5.5c2.2,0.7,4.2,0.9,5.9,0.4c1.7-0.5,3.3-1,4.8-1.5c1.5,0.5,2.8,0.9,4,1.1c1.5,0,2.9,0.4,4.4,1.1
		c2.4,2,4.8,4.2,7,6.6c0.5,2.2,0.4,4.8-0.4,7.7c-0.7,2.2-1,3.8-0.7,4.8c0.2,0.7,0.5,2.6,0.7,5.5c0.2,0,0.6,0,1.1,0
		c2.4-2.2,4.3-5,5.5-8.4c2.9-3.4,5.5-7,7.7-10.6c0.5-0.7,1.1-1.7,1.8-2.9c0.7-1.2,1.2-2.2,1.5-2.9c1.7-1.2,2.9-2.2,3.7-2.9
		c1-0.7,2.6-1,4.8-0.7c2.4,1.2,3.5,2.2,3.3,2.9c-0.2,0.5-0.4,2.2-0.4,5.1c-2,2.7-3.2,5-3.7,7c0,1.5-1.5,3.7-4.4,6.6
		c-2,2.2-3.3,4-4,5.5c-0.2,1-1.3,2.4-3.3,4.4C607.8,256.2,606.4,258.6,604.9,261z M563.9,244.2c0.7-2.2,1.1-4,1.1-5.5
		c-0.7-1.7-2-2.8-3.7-3.3c-3.7-1.5-7.1-3.1-10.3-4.8c-0.7-0.5-1.5-0.5-2.2,0c-2,0.2-3.4,1.1-4.4,2.6c-3.7,4.9-6.4,10.1-8.1,15.8
		c-0.7,1.5-0.7,2.9,0,4.4c0.7,1.7,2.1,3.3,4,4.8c1.5,0,2.8,0.1,4,0.4c0.7,0.2,1.3,0.7,1.8,1.5c0.7,0.7,1.6,1.2,2.6,1.5
		c3.7-1.7,6.2-2.6,7.7-2.6c1.5-0.2,3.8-0.6,7-1.1c0.7-0.7,1.2-1.2,1.5-1.5c-0.5-2.2-0.7-4.4-0.7-6.6
		C564,247.4,563.9,245.6,563.9,244.2z"/>
	<path fill="#FF5097" d="M692.5,248.2c3.2-4.2,5.9-7.4,8.1-9.9c2.2-2.9,4.5-5.4,7-7.3c2.4-2.4,3.9-4,4.4-4.8
		c3.9-2.7,6.6-2.6,8.1,0.4c1.7,2.7,2.1,5,1.1,7c-1,1.5-1.7,2.7-2.2,3.7c-0.2,0.7-1.1,2.1-2.6,4l-6.2,5.9c-1.2,1.5-3.1,4.5-5.5,9.2
		c-1,1.5-2.9,3.4-5.9,5.9c-0.7,0.7-1.8,1.6-3.3,2.6c-1.2,0.7-2.1,1.5-2.6,2.2c-1,0.7-2,2.1-2.9,4l-5.5,4c-2.2,2-3.5,3.3-4,4
		c-0.5,0.5-1.8,1.5-4,2.9c-2.2,1.5-4.5,3.2-7,5.1c-1.5,0.7-2.8,1.6-4,2.6c-2.2,1.5-4.6,2.6-7.3,3.3c-2.2-0.2-4.8,0.1-7.7,1.1
		c-3.4,0.5-6.5,0.2-9.2-0.7c-2.9,0.7-4.9,1.1-5.9,1.1c-0.7-0.2-2.8-0.8-6.2-1.8c-3.9-3.7-7.7-7.3-11.4-11c-0.2-1-0.7-1.8-1.5-2.6
		c-1.7-2.9-2.9-5.9-3.7-8.8c-1-2.2-1.7-4.4-2.2-6.6c0.5-0.7,0.4-1.2-0.4-1.5c-1-1.7-1.8-3.5-2.6-5.5c-0.2-2-0.1-4,0.4-6.2
		c0.7-1.2,0.9-2.3,0.4-3.3c0.2-2.2,0.4-4.4,0.4-6.6c1-2.2,2-4.4,2.9-6.6c0-0.7-0.1-1.3-0.4-1.8c0.7-0.7,1.2-1.5,1.5-2.2V228
		c1.7-1.5,3.4-3.1,5.1-4.8c0.7-1,1.6-1.7,2.6-2.2c1-0.5,1.8-1.3,2.6-2.6c2.2-1.5,4.4-3.1,6.6-4.8c1.5-0.7,2.9-1.2,4.4-1.5H647
		c1.2,0.7,2.2,1.3,2.9,1.8h0.4c2.4-0.5,5-1.1,7.7-1.8c1.7,0.2,2.9,0.9,3.7,1.8c0,2-0.4,3.8-1.1,5.5c-0.7,1.7-2.1,3.1-4,4
		c-3.7,3.4-6.8,7-9.5,10.6c-1.2,2-2.2,3.7-2.9,5.1c0,1.5,0,2.7,0,3.7c0,1.7,0,3.1,0,4c1.2,3.9,2.3,7.8,3.3,11.7
		c1,3.7,2.1,7.3,3.3,11c1.7,2,3.3,3.8,4.8,5.5c1,0.2,2,0.7,2.9,1.5h2.9c2.9-0.7,5.4-2.3,7.3-4.8c1-0.7,2.1-1.1,3.3-1.1
		c3.7-3.2,6.7-6.5,9.2-9.9c1.5-2.2,3.4-4.3,5.9-6.2C689.4,252.6,691.2,250.4,692.5,248.2z"/>
	<path fill="#FF5097" d="M788.5,289.9c0.2,0.7,0.4,1.6,0.4,2.6c0,1.5-0.6,2.7-1.8,3.7c-0.7,0.5-1.5,1-2.2,1.5c0,0.7-0.4,1.8-1.1,3.3
		c-0.5,0.5-1,0.7-1.5,0.7c-2.9,0.2-5.4,0.8-7.3,1.8c-3.4-1-6.7-1.8-9.9-2.6c-1.7-1.5-3.7-2.9-5.9-4.4c-0.7-2.7-1.7-5.1-2.9-7.3
		c0-1.5-0.5-2.9-1.5-4.4c-0.7-1.7-1.2-3.3-1.5-4.8c-1.5-2.9-3.2-6-5.1-9.2c-0.7-0.7-1.1-1.8-1.1-3.3c0-1-0.4-1.8-1.1-2.6
		c-0.2-0.7-0.7-0.9-1.5-0.4c-1.2,3.9-1.2,7.5,0,10.6c0.2,2.2,0.4,4.3,0.4,6.2c0,3.4,0.1,6.4,0.4,8.8c0,0.5-0.2,0.7-0.7,0.7
		c-0.2,0.5-0.7,0.7-1.5,0.7c-3.7,1.5-6.8,3.4-9.5,5.9c-2.2,0-4.4,0.1-6.6,0.4c-0.7,0.7-1.3,1.6-1.8,2.6c-0.5,0.5-1.2,1.1-2.2,1.8
		c-1.5-0.2-3.1-0.9-4.8-1.8c-1.2-1.2-2.6-2.1-4-2.6c-1.5-2.2-2.4-4.4-2.9-6.6c0-4.9,0-9.5,0-13.9c0-2.2,0.2-4.3,0.7-6.2
		c0.7-1,0.8-1.7,0.4-2.2c0-0.7,0-1.3,0-1.8c0.7-3.2,1.1-6.5,1.1-9.9c0-1,0-2,0-2.9c0.7-2.2,1.1-4.4,1.1-6.6c0-2.4,0-5,0-7.7
		c0.5-1.2,0.4-2.2-0.4-2.9c-0.5,0-0.9,0-1.1,0c0.2-7.1,0.4-13.9,0.4-20.5c1-2.2,1.7-4.3,2.2-6.2c-0.5-2-0.6-3.9-0.4-5.9
		c0.2-1,0.4-1.8,0.4-2.6c0-7.8-0.1-15.4-0.4-22.7c0.5-1.7,0.4-4-0.4-7c0-0.7,0.1-1.5,0.4-2.2c0.2-1,0.4-1.9,0.4-2.9
		c0.7-0.5,1.1-1.1,1.1-1.8c0.7-1,1-1.7,0.7-2.2c0-0.7-0.4-1.5-1.1-2.2c0.5-0.7,1.1-1.5,1.8-2.2c0.7-0.2,1.6-0.6,2.6-1.1
		c0.7-1,1.5-2.1,2.2-3.3c2.9-0.2,5.6-1.1,8.1-2.6c1.5,1.5,2.6,3.1,3.3,4.8c0.7,3.2,1.7,5.9,2.9,8.1c1.2,2.2,2.2,4.6,2.9,7.3
		c0.5,2.7,0.7,5.5,0.7,8.4c0.7,0.7,1,1.5,0.7,2.2c-0.2,2.4,0,4.9,0.7,7.3c0.2,1,0.4,2,0.4,2.9c0.5,0.5,0.7,0.5,0.7,0
		c1.5-3.7,2.9-6.6,4.4-8.8c1-1.5,1.8-2.9,2.6-4.4c1.5-3.4,3.3-6.3,5.5-8.8c1.5-1.5,2.6-3.3,3.3-5.5c0.7-2,1.7-3.3,2.9-4
		c0.7-1,1.2-1.8,1.5-2.6c0.7-1.2,1.2-2.2,1.5-2.9c1.2-3.2,3.3-5.1,6.2-5.9c0.7,0,1.5,0.2,2.2,0.7c0.7-0.5,1.5-0.4,2.2,0.4
		c0.7,0.5,1.5,0.9,2.2,1.1c1,2.7,1.8,5.1,2.6,7.3v3.3c-1.5,2.2-2.4,4.4-2.9,6.6c0.7,1,1.2,1.5,1.5,1.5c0.5,0,0.7,0.2,0.7,0.7
		c-0.2,2-0.7,3.5-1.5,4.8c-1.2,1.2-2.3,2.6-3.3,4c-1,0.5-1.8,1.1-2.6,1.8c-0.2,1.2-0.7,2.3-1.5,3.3c-0.2,0.7-0.7,1.5-1.5,2.2
		c0,1-0.2,2-0.7,2.9c-0.7,1.5-1.5,2.8-2.2,4c-2.2,2.9-4.3,6.6-6.2,11c-0.5,2.9-1.8,5.5-4,7.7c-0.5,0.7-0.7,1.5-0.7,2.2
		c-0.5,1.5-1.2,3.3-2.2,5.5c-0.7,1.7-1.2,3.3-1.5,4.8c1.5,3.4,2.7,6.4,3.7,8.8c2.2,2.2,4.6,4.8,7.3,7.7c0.7,0.7,1.7,1.7,2.9,2.9
		c0.2,0,0.7,0,1.5,0c1,1.5,2.4,3.7,4.4,6.6c2.2,2.7,3.2,4,2.9,4c3.7,4.4,6.7,9,9.2,13.9c1,2.4,2.2,5.1,3.7,8.1
		c0,2.4,0.1,4.9,0.4,7.3C787.7,286.6,788,288.2,788.5,289.9z"/>
</g>
</svg>
