<?xml version="1.0" encoding="utf-8"?>
<!-- Generator: Adobe Illustrator 17.1.0, SVG Export Plug-In . SVG Version: 6.00 Build 0)  -->
<!DOCTYPE svg PUBLIC "-//W3C//DTD SVG 1.1//EN" "http://www.w3.org/Graphics/SVG/1.1/DTD/svg11.dtd">
<svg version="1.1" id="Layer_1" xmlns="http://www.w3.org/2000/svg" xmlns:xlink="http://www.w3.org/1999/xlink" x="0px" y="0px"
	 viewBox="0 0 821.7 411.4" enable-background="new 0 0 821.7 411.4" xml:space="preserve">
<path fill="#445DD8" stroke="#353535" stroke-width="4" stroke-linecap="round" stroke-linejoin="round" stroke-miterlimit="10" d="
	M570.4,392.3c-103.3,0-187.3-84-187.3-187.3s84-187.3,187.3-187.3s187.3,84,187.3,187.3S673.7,392.3,570.4,392.3z"/>
<g>
	
		<line fill="none" stroke="#353535" stroke-width="2" stroke-linecap="round" stroke-linejoin="round" stroke-miterlimit="10" stroke-dasharray="1,6" x1="383.1" y1="204.6" x2="757.7" y2="204.6"/>
	
		<line fill="none" stroke="#353535" stroke-width="2" stroke-linecap="round" stroke-linejoin="round" stroke-miterlimit="10" stroke-dasharray="1,6" x1="439.2" y1="72.6" x2="703.3" y2="337.5"/>
	
		<line fill="none" stroke="#353535" stroke-width="2" stroke-linecap="round" stroke-linejoin="round" stroke-miterlimit="10" stroke-dasharray="1,6" x1="703.3" y1="72.6" x2="439.2" y2="337.5"/>
</g>
<circle fill="none" stroke="#353535" stroke-width="2" stroke-linecap="round" stroke-linejoin="round" stroke-miterlimit="10" cx="570.4" cy="205" r="52.6"/>
<path fill="none" stroke="#353535" stroke-width="2" stroke-linecap="round" stroke-linejoin="round" stroke-miterlimit="10" d="
	M570.4,325c-66.1,0-119.9-53.8-119.9-119.9S504.3,85.1,570.4,85.1S690.3,138.9,690.3,205S636.5,325,570.4,325z"/>
<g>
	<path fill="#353535" d="M390.1,78l4.7-6.4l1.3,1l-3.6,5l4,2.9l2.7-3.6l1.3,0.9l-2.7,3.6l4.7,3.4l3.8-5.3l1.3,0.9l-4.9,6.7L390.1,78
		z"/>
	<path fill="#353535" d="M400.2,71.8l1.1-1.3l1.2,1c-0.1-1.2-0.1-2.7,0.8-3.7c1-1.2,1.9-1.3,3-0.8c-0.2-1.2-0.1-2.7,0.9-3.8
		c1.1-1.4,2.5-1.4,4.1-0.1l6.3,5.3l-1.1,1.3l-6-5c-1-0.8-1.8-0.9-2.5-0.1c-0.7,0.8-0.7,2-0.6,3.1l6.4,5.3l-1.1,1.3l-6-5
		c-1-0.8-1.7-1-2.5-0.1c-0.6,0.7-0.7,1.9-0.6,3.2l6.3,5.3l-1.1,1.3L400.2,71.8z"/>
	<path fill="#353535" d="M411.1,59l1.2-1.2l1,1c-0.1-1.1-0.1-2.3,0.9-3.3c1.5-1.6,3.9-1.5,6.8,1.2c2.9,2.8,3,5.2,1.5,6.8
		c-0.9,0.9-1.9,1.2-3.1,1.1l4,3.8l-1.2,1.2L411.1,59z M419.8,57.8c-2.1-2-3.8-2.2-4.8-1.2c-0.7,0.7-0.8,1.9-0.7,2.9l4,3.8
		c1.3,0.1,2.2-0.1,2.9-0.9C422.2,61.5,422,59.9,419.8,57.8z"/>
	<path fill="#353535" d="M415.7,47.9l1.2-1.2l10.9,11.1l-1.2,1.2L415.7,47.9z"/>
	<path fill="#353535" d="M425.6,52.1c-2.6-2.8-2.5-5.6-0.6-7.2c1.8-1.7,4.5-1.5,7.1,1.3c2.6,2.8,2.5,5.6,0.7,7.2
		C430.9,55.1,428.1,55,425.6,52.1z M430.8,47.4c-1.6-1.8-3.5-2.6-4.9-1.4c-1.3,1.2-0.8,3.1,0.9,5c1.6,1.8,3.5,2.7,4.9,1.4
		C433,51.2,432.5,49.3,430.8,47.4z"/>
	<path fill="#353535" d="M438.9,52.9l-0.6-1.3c0.2-0.1,0.7-0.4,1.1-0.7c0.7-0.6,0.7-1.3,0.2-2.4l-0.4-0.9l-9.8-6.4l1.3-1.1l5,3.4
		c1,0.7,1.8,1.3,2.8,2l0,0c-0.5-1.1-1-2.1-1.5-3.3l-2.3-5.4l1.2-1l4.9,11.9c0.8,2,0.9,3.2-0.6,4.4C439.8,52.5,439.2,52.8,438.9,52.9
		z"/>
	<path fill="#353535" d="M440.8,39c-2.4-3.2-1.8-5.9,0-7.2c2-1.5,4.3-0.8,6.6,2.2l0.3,0.3l-5.2,3.9c1.6,2,3.2,2.6,4.5,1.6
		c1-0.8,1.2-1.8,0.9-3.1l1.4-0.1c0.3,1.7-0.1,3.4-1.5,4.4C445.8,42.5,443.2,42.1,440.8,39z M445.6,34.3c-1.3-1.6-2.7-2.2-3.9-1.3
		c-1,0.7-1.3,2.2,0,4.3L445.6,34.3z"/>
	<path fill="#353535" d="M448.8,33.1c-2.2-3.3-1.5-5.9,0.3-7.2c2-1.4,4.4-0.6,6.5,2.5l0.2,0.3l-5.4,3.7c1.5,2.1,3.1,2.7,4.4,1.8
		c1.1-0.7,1.2-1.7,1.1-3.1l1.4,0c0.3,1.8-0.3,3.4-1.7,4.4C453.6,36.8,451,36.3,448.8,33.1z M453.8,28.6c-1.2-1.6-2.6-2.3-3.9-1.5
		c-1,0.7-1.4,2.2-0.2,4.3L453.8,28.6z"/>
	<path fill="#353535" d="M458.6,30.7l0.5-1.3c1.2,0.6,2.5,0.5,3.5-0.1c1.2-0.7,1.6-1.7,1-2.5c-1.4-2.3-5.8,1.6-7.8-1.7
		c-0.9-1.5-0.3-3.3,1.4-4.4c1.4-0.9,2.8-0.8,4.2-0.2l-0.5,1.3c-0.9-0.4-2-0.5-2.9,0.1c-1.1,0.7-1.2,1.5-0.8,2.2
		c1.4,2.3,5.7-1.7,7.8,1.7c1,1.6,0.2,3.5-1.6,4.6C461.7,31.5,460.1,31.5,458.6,30.7z"/>
</g>
<g>
	<path fill="#353535" d="M783.4,147.5l0.5,2.1l-11.8,6.9l0,0l13.6,0.7l0.5,2.1l-15.1,3.7l-0.4-1.7l12.4-3l0,0c-1,0-2.7,0-4.1-0.1
		l-9.2-0.5l-0.3-1.3l7.9-4.7c1.1-0.7,2.6-1.5,3.6-2l0,0l-12.4,3l-0.4-1.5L783.4,147.5z"/>
	<path fill="#353535" d="M777,164.3c3.9-0.7,6,1,6.4,3.2c0.4,2.4-1.3,4.2-4.9,4.9l-0.4,0.1L777,166c-2.6,0.5-3.7,1.8-3.5,3.3
		c0.2,1.3,1.1,1.8,2.4,2.2l-0.5,1.3c-1.7-0.5-3-1.6-3.3-3.4C771.7,167.1,773.2,165,777,164.3z M779.1,170.7c2-0.5,3.2-1.4,2.9-2.9
		c-0.2-1.2-1.4-2.2-3.8-1.9L779.1,170.7z"/>
	<path fill="#353535" d="M778.7,174.1c4-0.5,6,1.3,6.3,3.5c0.3,2.4-1.4,4.2-5.2,4.6l-0.4,0.1l-0.8-6.5c-2.6,0.4-3.8,1.6-3.6,3.2
		c0.2,1.3,1,1.9,2.3,2.4l-0.6,1.3c-1.7-0.6-2.9-1.8-3.1-3.5C773.2,176.7,774.9,174.6,778.7,174.1z M780.5,180.6
		c2-0.4,3.3-1.3,3.1-2.8c-0.2-1.2-1.3-2.2-3.7-2.1L780.5,180.6z"/>
	<path fill="#353535" d="M777,185.4l7.2-0.6l-0.1-1.6l1.4-0.1l0.1,1.6l3.9-0.4l0.1,1.7l-3.9,0.4l0.2,2.4l-1.4,0.1l-0.2-2.4l-6.8,0.6
		c-1.1,0.1-1.6,0.4-1.5,1.6c0,0.3,0.1,0.7,0.2,0.9l-1.4,0.1c-0.1-0.2-0.2-0.8-0.3-1.3C774.5,186.4,775.1,185.6,777,185.4z"/>
	<path fill="#353535" d="M786.1,191.1l0.1,1.7l-11.1,0.7l-0.1-1.7L786.1,191.1z M790.1,190.9l0.1,1.7l-1.8,0.1l-0.1-1.7L790.1,190.9
		z"/>
	<path fill="#353535" d="M786.4,195.9l0,1.7l-1.5,0c0.8,0.7,1.8,2,1.9,3.5c0,1.8-1,2.8-3,2.8l-8.2,0.2l0-1.7l7.9-0.2
		c1.3,0,1.9-0.5,1.9-1.6c0-1.1-0.9-2.2-1.7-2.9l-8.2,0.2l0-1.7L786.4,195.9z"/>
	<path fill="#353535" d="M786.5,215.3l-1.6,0c0-0.5,0-1.1-0.2-1.7c-0.6,0.3-1.3,0.5-2,0.5c-2.5-0.1-3.9-1.7-3.9-3.9
		c0-0.6,0.1-1.1,0.3-1.5c-0.2-0.4-0.5-0.6-0.8-0.7c-0.4,0-0.6,0.2-0.8,1.3l-0.3,1.7c-0.4,2.7-1.2,3.8-2.9,3.7c-2-0.1-3.1-2.1-3-4.9
		c0.1-3.2,1.1-4.3,2.8-4.3c1.1,0,1.9,0.7,2.4,1.9c0.3-0.6,0.8-0.9,1.4-0.9c0.7,0,1.3,0.5,1.7,1.2c0.7-0.9,1.9-1.4,3.3-1.4
		c2.4,0.1,4,1.7,3.9,4c0,1.2-0.5,2.1-1.2,2.8C786,213.7,786.4,214.6,786.5,215.3z M774.2,207c-1.1,0-1.7,0.7-1.8,2.9
		c0,1.8,0.6,3.1,1.6,3.1c0.9,0,1.4-0.5,1.7-2.5l0.3-1.8c0-0.1,0-0.2,0-0.3C775.6,207.5,774.9,207.1,774.2,207z M782.6,212.4
		c1.7,0,2.7-0.7,2.7-2.2c0-1.4-1-2.3-2.6-2.3c-1.6,0-2.7,0.8-2.7,2.2C780,211.5,781,212.4,782.6,212.4z"/>
	<path fill="#353535" d="M790.4,222.6l-0.4,4.4c-0.3,3-1.9,4.6-4.9,4.3c-2.5-0.2-3.6-1.7-3.9-3.3l-7.2,2.4l0.2-1.8l6.9-2.4l0.3-2.7
		l-6.6-0.7l0.2-1.7L790.4,222.6z M782.5,226.1c-0.2,2,0.5,3.2,2.7,3.4c2,0.2,2.9-0.8,3.1-2.8l0.3-2.5l-5.8-0.6L782.5,226.1z"/>
	<path fill="#353535" d="M779.2,232.8c3.8,0.6,5.4,2.8,5,5.2c-0.4,2.4-2.6,4-6.4,3.4c-3.8-0.6-5.4-2.8-5-5.2
		C773.2,233.8,775.5,232.2,779.2,232.8z M778.1,239.8c2.4,0.4,4.4-0.2,4.7-2c0.3-1.8-1.3-2.9-3.8-3.3c-2.4-0.4-4.4,0.1-4.7,2
		C774,238.2,775.5,239.4,778.1,239.8z"/>
	<path fill="#353535" d="M777.6,243.2c3.7,0.8,5.3,3,4.8,5.5c-0.5,2.4-2.8,3.9-6.5,3.1c-3.7-0.8-5.3-3-4.8-5.4
		C771.5,243.9,773.8,242.4,777.6,243.2z M776.1,250.1c2.3,0.5,4.4,0.1,4.8-1.7c0.4-1.7-1.1-3-3.7-3.5c-2.4-0.5-4.4-0.1-4.8,1.8
		C772.1,248.3,773.6,249.6,776.1,250.1z"/>
	<path fill="#353535" d="M780.7,255.5l-0.4,1.6l-1.5-0.4c0.6,1,1.2,2.4,0.8,3.7c-0.4,1.5-1.2,2-2.4,2c0.6,1,1.2,2.4,0.8,3.8
		c-0.5,1.7-1.7,2.3-3.7,1.8l-7.9-2.2l0.4-1.6l7.6,2.1c1.3,0.3,2,0.1,2.3-1c0.3-1-0.2-2.1-0.7-3.1l-8-2.2l0.4-1.6l7.6,2.1
		c1.3,0.3,2,0.2,2.3-0.9c0.2-0.9-0.1-2-0.8-3.2l-8-2.2l0.5-1.6L780.7,255.5z"/>
	<path fill="#353535" d="M767.8,267.9l0.4,1.4c-1.3,0.3-2.2,1.2-2.6,2.3c-0.5,1.3-0.2,2.3,0.8,2.6c2.6,0.9,3.4-4.9,7.1-3.6
		c1.7,0.6,2.3,2.4,1.7,4.3c-0.5,1.5-1.7,2.4-3.1,2.8l-0.5-1.4c1-0.2,1.9-0.8,2.2-1.9c0.4-1.2,0-2-0.8-2.2c-2.6-0.9-3.3,4.9-7.1,3.6
		c-1.8-0.6-2.4-2.6-1.7-4.6C764.9,269.2,766.2,268.2,767.8,267.9z"/>
</g>
<g>
	<path fill="#353535" d="M704,29.6l3.4,2.7c2.2,1.8,3,4,1,6.4c-2.1,2.7-4.6,2.3-6.7,0.6l-2-1.5l-4,5.1l-1.4-1.1L704,29.6z
		 M702.7,38.1c1.6,1.3,3,1.3,4.3-0.4c1.3-1.6,1-2.9-0.7-4.2l-2-1.6l-3.7,4.6L702.7,38.1z"/>
	<path fill="#353535" d="M710.3,40.4l1.3,1.1l-1.3,1.4l0,0c1.2-0.4,2.8-0.5,4.1,0.7l0.2,0.2l-1.1,1.1c0,0-0.2-0.2-0.3-0.3
		c-1.1-0.9-2.6-1-4-0.4l-4.9,5.7l-1.3-1.1L710.3,40.4z"/>
	<path fill="#353535" d="M711.8,49.1c2.6-2.8,5.4-2.9,7.2-1.2c1.8,1.7,1.8,4.4-0.8,7.2c-2.6,2.8-5.4,2.9-7.1,1.2
		S709.2,51.8,711.8,49.1z M717,53.9c1.6-1.7,2.4-3.7,1-5c-1.3-1.2-3.1-0.6-4.9,1.3c-1.7,1.8-2.4,3.7-1,5
		C713.3,56.4,715.2,55.8,717,53.9z"/>
	<path fill="#353535" d="M719.5,56.3c2.9-2.8,5.3-2.8,6.8-1.2c0.9,0.9,1.1,2.1,0.9,3.2l4.2-4l1.2,1.2l-9.3,8.9
		c-1,0.9-1.5,1.5-1.8,2.1l-1.2-1.3c0.2-0.3,0.6-0.9,0.9-1.2c-1.1,0.1-2.3-0.1-3.3-1.1C716.4,61.4,716.6,59.1,719.5,56.3z
		 M722.2,63.2l4-3.8c0.1-1.2,0-2.3-0.7-3c-1-1.1-2.7-0.9-4.9,1.2c-2.1,2-2.4,3.7-1.3,4.8C719.9,63.1,721.1,63.2,722.2,63.2z"/>
	<path fill="#353535" d="M725.1,66.2l6.2-5.4l1.1,1.3l-6,5.2c-1,0.8-1.2,1.6-0.4,2.5c0.7,0.8,1.8,1.1,3.1,1.2l6.2-5.4l1.1,1.3
		l-8.4,7.2l-1.1-1.3l1.2-1c-1.2,0-2.7-0.4-3.6-1.5C723.4,68.9,723.6,67.5,725.1,66.2z"/>
	<path fill="#353535" d="M733.8,72.2c3.1-2.5,5.8-2,7.2-0.2c1.4,1.8,0.8,3.4-0.3,5l-1.3-1c0.8-1.2,1.2-2.1,0.4-3.1
		c-0.9-1.1-2.6-1.2-5,0.6c-2.1,1.7-2.8,3.4-1.8,4.7c0.7,0.9,1.7,1.1,3.2,0.4l0.6,1.4c-2,0.8-3.8,0.6-5-1
		C730.4,77.2,730.8,74.5,733.8,72.2z"/>
	<path fill="#353535" d="M737.9,82.6l5.8-4.2l-1-1.3l1.1-0.8l1,1.3l3.2-2.3l1,1.4l-3.2,2.3l1.4,2l-1.1,0.8l-1.4-2l-5.5,4
		c-0.9,0.7-1.2,1.2-0.5,2.2c0.2,0.3,0.5,0.6,0.7,0.7l-1.1,0.8c-0.2-0.2-0.6-0.6-0.9-1C736.2,84.7,736.3,83.7,737.9,82.6z"/>
	<path fill="#353535" d="M740.5,87l1.3,0.5c-0.5,1.2-0.4,2.5,0.2,3.5c0.8,1.2,1.7,1.5,2.6,0.9c2.3-1.5-1.8-5.7,1.4-7.9
		c1.5-1,3.3-0.4,4.4,1.3c0.9,1.4,0.9,2.8,0.4,4.1l-1.4-0.5c0.4-0.9,0.4-2-0.2-2.9c-0.7-1-1.5-1.2-2.3-0.7c-2.3,1.5,1.9,5.6-1.5,7.8
		c-1.6,1.1-3.5,0.3-4.7-1.5C739.9,90.1,739.9,88.5,740.5,87z"/>
</g>
<g>
	<path fill="#353535" d="M756.9,322.9l-0.9,1.4l-7.5-3.1c-1.6-0.6-2.5-1-4.3-1.8l0,0c1.4,1.3,2.1,2.1,3.3,3.3l5.7,5.8l-0.9,1.3
		l-7.7-3.2c-1.5-0.6-2.6-1-4.1-1.7l0,0c1.2,1.1,2,2,3.1,3.2l5.8,6l-0.9,1.3l-11-11.6l0.8-1.2l11.8,4.9l0,0l-8.9-9.1l0.8-1.2
		L756.9,322.9z"/>
	<path fill="#353535" d="M739.2,330.9c3,2.3,3.4,5.1,1.9,7c-1.5,1.9-4.2,2.3-7.2-0.1c-3-2.3-3.4-5.1-1.9-7S736.2,328.6,739.2,330.9z
		 M734.9,336.5c1.9,1.5,3.9,2,5,0.5c1.1-1.4,0.3-3.2-1.8-4.8c-1.9-1.5-3.9-2.1-5.1-0.5C732,333.1,732.8,334.9,734.9,336.5z"/>
	<path fill="#353535" d="M736.6,343.1l-1.1,1.3l-1.5-1.2l0,0c0.4,1.2,0.5,2.7-0.6,4.1l-0.1,0.2l-1.2-1.1c0,0,0.2-0.2,0.3-0.3
		c0.9-1.1,1-2.6,0.4-4l-5.7-4.8l1.1-1.3L736.6,343.1z"/>
	<path fill="#353535" d="M735,351.9l-1.1,1.2l-7.5-6.9c0.2,0.5,0.4,1.6,0.6,2.6l0.9,4.3l-1.2,1.3l-1-5l-7.5-2.3l1.2-1.3l6,1.8
		l-0.5-2.9l-2.4-2.2l1.1-1.2L735,351.9z"/>
	<path fill="#353535" d="M719.2,349.1l-0.2,1.4c-1.3-0.3-2.5,0.1-3.3,0.9c-1,1-1.1,2-0.4,2.7c1.9,1.9,5.2-2.9,8-0.1
		c1.2,1.2,1.1,3.1-0.4,4.6c-1.2,1.2-2.6,1.5-4,1.2l0.2-1.4c1,0.2,2,0,2.8-0.7c0.9-0.9,0.9-1.7,0.3-2.4c-1.9-2-5.1,3-8,0.1
		c-1.4-1.4-1-3.4,0.5-4.9C716,349.1,717.6,348.7,719.2,349.1z"/>
	<path fill="#353535" d="M711.9,356.9l4.9,5.3l1.2-1.1l1,1l-1.2,1.1l2.7,2.9l-1.2,1.1l-2.7-2.9l-1.8,1.6l-1-1l1.8-1.6l-4.6-5
		c-0.8-0.8-1.3-1-2.2-0.2c-0.2,0.2-0.5,0.5-0.6,0.7l-0.9-1c0.1-0.2,0.5-0.7,0.9-1C709.5,355.5,710.6,355.5,711.9,356.9z"/>
	<path fill="#353535" d="M707.9,360.7c1.4,1.7,1,4.1-1.7,7.6l0.4,0.5c0.8,1,1.6,1.1,2.5,0.3c1-0.9,1.4-2.1,1.5-3.3l1.4,0.2
		c-0.1,1.6-0.7,3.2-2.1,4.3c-1.6,1.4-3.2,1.1-4.6-0.5l-3.4-4c-0.9-1-1.4-1.6-2-1.9l1.3-1.1c0.4,0.3,0.7,0.5,1.1,0.9
		c0.1-1.3,0.6-2.6,1.7-3.5C705.3,359.3,706.7,359.4,707.9,360.7z M703.2,364.8l2.2,2.6c2.1-2.8,2.2-4.4,1.4-5.4
		c-0.7-0.8-1.5-0.9-2.2-0.2C703.6,362.5,703.2,363.6,703.2,364.8z"/>
	<path fill="#353535" d="M699.3,367.7l4.4,5.7l1.3-1l0.9,1.1l-1.3,1l2.4,3.1l-1.3,1l-2.4-3.1l-1.9,1.5l-0.9-1.1l1.9-1.5l-4.2-5.4
		c-0.7-0.9-1.2-1.1-2.2-0.4c-0.3,0.2-0.5,0.5-0.7,0.7l-0.8-1.1c0.1-0.2,0.6-0.6,1-0.9C697,366.1,698.1,366.2,699.3,367.7z"/>
	<path fill="#353535" d="M699.4,378.4l-1.4,1l-6.6-8.9l1.4-1L699.4,378.4z M701.8,381.7l-1.4,1l-1.1-1.5l1.4-1L701.8,381.7z"/>
	<path fill="#353535" d="M692.9,376.4c2.2,3.2,1.7,5.8-0.4,7.2c-2,1.4-4.7,0.9-6.9-2.3c-2.1-3.1-1.7-5.8,0.3-7.2
		C688,372.7,690.7,373.2,692.9,376.4z M687.1,380.4c1.4,2,3.1,3.1,4.6,2c1.5-1,1.2-2.9-0.2-5.1c-1.4-2-3.1-3.1-4.7-2.1
		C685.3,376.3,685.6,378.2,687.1,380.4z"/>
	<path fill="#353535" d="M686.6,387.3l-1.5,0.9l-0.8-1.3c-0.2,1.1-0.8,2.6-2.1,3.3c-1.5,0.9-2.9,0.5-3.9-1.2l-4.3-7l1.4-0.9l4.1,6.7
		c0.7,1.1,1.4,1.4,2.4,0.8c0.9-0.6,1.5-1.9,1.7-2.9l-4.3-7l1.5-0.9L686.6,387.3z"/>
	<path fill="#353535" d="M673.7,384.5l-0.6,1.3c-1.2-0.6-2.4-0.6-3.5-0.1c-1.2,0.7-1.6,1.6-1.1,2.5c1.3,2.4,5.8-1.4,7.7,2.1
		c0.8,1.5,0.2,3.3-1.6,4.3c-1.4,0.8-2.9,0.7-4.2,0l0.6-1.3c0.9,0.5,1.9,0.6,2.9,0.1c1.1-0.6,1.3-1.4,0.9-2.2
		c-1.3-2.4-5.8,1.4-7.7-2.1c-0.9-1.7,0-3.5,1.9-4.6C670.7,383.6,672.3,383.7,673.7,384.5z"/>
</g>
<g>
	<path fill="#353535" d="M454.5,392.7l-3.7-2.3c-2.4-1.5-3.3-3.7-1.6-6.3c1.9-2.9,4.3-2.7,6.6-1.2l2.1,1.4l3.5-5.5l1.5,0.9
		L454.5,392.7z M454.9,384.1c-1.7-1.1-3.1-1-4.3,0.9c-1.1,1.7-0.7,3,1.1,4.1l2.1,1.4l3.2-5L454.9,384.1z"/>
	<path fill="#353535" d="M444.5,386.1l-1.4-1l3.5-4.9c-1.1,0.2-2.7,0.2-3.9-0.6c-1.4-1-1.6-2.5-0.4-4.1l4.8-6.7l1.4,1l-4.6,6.4
		c-0.8,1.1-0.8,1.8,0.1,2.5c0.9,0.6,2.3,0.6,3.4,0.4l4.8-6.7l1.4,1L444.5,386.1z"/>
	<path fill="#353535" d="M442.1,372.1c-2.4,3-5.1,3.3-7,1.8c-1.9-1.5-2.2-4.3,0.2-7.2c2.4-3,5.1-3.3,7-1.8
		C444.2,366.4,444.5,369.1,442.1,372.1z M436.6,367.7c-1.5,1.9-2,3.9-0.6,5c1.4,1.1,3.2,0.3,4.8-1.7c1.5-1.9,2.1-3.9,0.6-5.1
		C440,364.8,438.2,365.6,436.6,367.7z"/>
	<path fill="#353535" d="M429.9,369.3l-1.3-1.1l1-1.1c-1.1,0.1-2.7,0-3.8-1c-1.3-1.2-1.3-2.6,0-4.1l5.5-6.2l1.3,1.1l-5.2,5.9
		c-0.9,1-1,1.8-0.1,2.5c0.8,0.7,2.2,0.9,3.3,0.8l5.5-6.2l1.3,1.1L429.9,369.3z"/>
	<path fill="#353535" d="M426,358.4c-2.8,2.9-5.5,2.7-7.1,1.1c-1.8-1.7-1.4-4.2,1.2-6.8l0.3-0.3l4.7,4.6c1.8-1.9,2-3.6,0.9-4.7
		c-0.9-0.9-1.9-0.9-3.2-0.5l-0.3-1.3c1.7-0.6,3.4-0.4,4.6,0.8C428.7,353,428.7,355.6,426,358.4z M420.6,354.4
		c-1.3,1.5-1.8,3-0.7,4.1c0.9,0.9,2.4,0.9,4.2-0.6L420.6,354.4z"/>
	<path fill="#353535" d="M408,354.4l-3-3.4c-2-2.2-2.2-4.3-0.2-6.1c1.6-1.4,3.2-1.2,4.3-0.5l0,0c-0.8-1.4-0.9-3.1,1-4.7
		c2-1.8,4.4-1.4,6.3,0.7l3.2,3.7L408,354.4z M410.2,346.6c-1.3-1.5-2.6-1.8-4-0.6s-1.4,2.4,0,4l1.8,2l3.9-3.5L410.2,346.6z
		 M415.3,341.5c-1.4-1.6-2.8-1.6-4.2-0.4c-1.6,1.4-1.3,2.9,0.1,4.4l1.8,2.1l4.3-3.8L415.3,341.5z"/>
	<path fill="#353535" d="M407.9,339.1c-3,2.4-5.7,2.1-7.3,0.1c-1.5-1.9-1.2-4.6,1.8-7c3-2.4,5.7-2.1,7.2-0.2
		C411.2,334,410.9,336.7,407.9,339.1z M403.5,333.6c-1.9,1.5-2.9,3.3-1.7,4.8c1.1,1.4,3,1,5-0.6c1.9-1.5,2.9-3.3,1.7-4.8
		C407.5,331.6,405.6,331.9,403.5,333.6z"/>
	<path fill="#353535" d="M401.4,330.8c-3.1,2.2-5.8,1.8-7.3-0.2c-1.4-2-0.9-4.7,2.2-6.9c3.1-2.2,5.8-1.8,7.2,0.2
		C405,325.9,404.5,328.6,401.4,330.8z M397.3,325.1c-2,1.4-3,3.2-2,4.7c1,1.5,3,1.2,5.1-0.3c2-1.4,3.1-3.2,2-4.7
		C401.4,323.3,399.5,323.6,397.3,325.1z"/>
	<path fill="#353535" d="M397.3,319.6l-6,3.9l0.9,1.4l-1.2,0.8l-0.9-1.4l-3.3,2.2l-0.9-1.4l3.3-2.2l-1.3-2l1.2-0.8l1.3,2l5.7-3.7
		c1-0.6,1.2-1.1,0.6-2.1c-0.2-0.3-0.5-0.6-0.6-0.7l1.1-0.7c0.2,0.2,0.6,0.6,0.8,1C399.1,317.5,398.9,318.5,397.3,319.6z"/>
	<path fill="#353535" d="M382.8,321.1l-0.9-1.5l5.1-3.1c-1.1-0.2-2.6-0.9-3.3-2.1c-0.9-1.5-0.5-2.9,1.3-3.9l7.1-4.2l0.9,1.4l-6.8,4
		c-1.1,0.7-1.5,1.4-0.9,2.4c0.5,0.9,1.8,1.5,2.9,1.8l7.1-4.2l0.9,1.5L382.8,321.1z"/>
	<path fill="#353535" d="M389.5,306l-1.3-0.6c0.6-1.2,0.7-2.4,0.1-3.5c-0.7-1.2-1.6-1.7-2.5-1.2c-2.4,1.3,1.3,5.9-2.2,7.7
		c-1.6,0.8-3.3,0.1-4.3-1.7c-0.8-1.4-0.7-2.9,0-4.2l1.3,0.6c-0.5,0.9-0.6,1.9-0.1,2.9c0.6,1.1,1.4,1.3,2.2,0.9
		c2.4-1.3-1.4-5.8,2.2-7.7c1.7-0.9,3.5,0,4.5,1.9C390.5,303,390.4,304.6,389.5,306z"/>
</g>
<g>
	<path fill="#353535" d="M369.8,261.3l-1-1.3c1.4-1.1,2.3-2.5,1.8-4.2c-0.5-1.8-1.7-2.6-3.1-2.2c-1.8,0.4-2.1,2.1-2.5,3.9
		c-0.4,2.1-0.8,4.5-3.6,5.3c-2.2,0.6-4.2-0.8-4.8-3.1c-0.6-2.4,0.5-4.1,2-5.3l1.1,1.3c-1.1,0.9-2,2-1.6,3.7c0.4,1.4,1.5,2.2,2.8,1.8
		c1.7-0.4,2.1-2.1,2.5-3.9c0.4-2.2,0.8-4.6,3.6-5.3c2.2-0.6,4.4,0.7,5.1,3.5C372.7,257.9,371.7,259.8,369.8,261.3z"/>
	<path fill="#353535" d="M367.5,243c0.9,0.5,1.9,1.3,2.2,2.6c0.4,2.1-0.9,4-4.9,4.8s-6-0.4-6.4-2.6c-0.3-1.3,0.2-2.3,1-3.3l-1.4,0.3
		l-0.3-1.7l15-3l0.3,1.7L367.5,243z M366.3,243.2l-5.5,1.1c-0.8,1-1.2,1.9-1,2.8c0.3,1.5,1.7,2.2,4.7,1.6c2.9-0.6,4-1.9,3.7-3.3
		C368.1,244.5,367.3,243.9,366.3,243.2z"/>
	<path fill="#353535" d="M365.4,239.1l-8.1,1.2l-0.2-1.7l7.8-1.2c1.3-0.2,1.8-0.7,1.7-1.9c-0.2-1-1-1.9-2-2.7l-8.2,1.2l-0.2-1.7
		l11-1.6l0.2,1.7l-1.5,0.2c1,0.7,2,1.8,2.3,3.2C368.3,237.7,367.4,238.8,365.4,239.1z"/>
	<path fill="#353535" d="M364.2,229.2c-2.2,0.2-4-1.5-5.3-5.7l-0.7,0.1c-1.3,0.1-1.8,0.7-1.7,1.8c0.1,1.3,0.9,2.4,1.8,3.1l-0.9,1
		c-1.3-1-2.2-2.4-2.4-4.2c-0.2-2.2,0.9-3.3,3-3.5l5.2-0.5c1.3-0.1,2.1-0.3,2.7-0.5l0.2,1.7c-0.4,0.2-0.8,0.3-1.4,0.4
		c1.1,0.8,1.8,2,1.9,3.4C366.9,227.9,365.9,229,364.2,229.2z M363.5,223l-3.4,0.3c1.1,3.3,2.3,4.3,3.7,4.2c1.1-0.1,1.6-0.7,1.5-1.7
		C365.2,224.7,364.4,223.7,363.5,223z"/>
	<path fill="#353535" d="M354.8,219.2l-0.1-1.7l1.9-0.1l0,0c-1.1-0.6-2.2-1.7-2.3-3.4l0-0.2l1.6,0c0,0,0,0.3,0,0.4
		c0.1,1.4,1.1,2.6,2.4,3.1l7.5-0.4l0.1,1.7L354.8,219.2z"/>
	<path fill="#353535" d="M360,212.1c-4,0.1-5.8-2-5.8-4.2c0-2.5,1.9-4,5.7-4l0.4,0l0.1,6.5c2.6-0.1,4-1.1,3.9-2.7c0-1.3-0.8-2-2-2.6
		l0.7-1.2c1.6,0.8,2.7,2.1,2.7,3.8C365.7,210.2,363.8,212.1,360,212.1z M358.9,205.5c-2,0.1-3.4,0.9-3.4,2.4c0,1.2,1.1,2.4,3.4,2.5
		L358.9,205.5z"/>
	<path fill="#353535" d="M350,196.7l0.4-7.8l1.6,0.1l-0.3,6.1l5,0.3l0.2-4.4l1.6,0.1l-0.2,4.4l7.3,0.4l-0.1,1.8L350,196.7z"/>
	<path fill="#353535" d="M360.5,187.8c-3.8-0.4-5.6-2.5-5.3-5c0.3-2.4,2.4-4.1,6.2-3.8c3.8,0.4,5.5,2.5,5.3,4.9
		C366.5,186.5,364.3,188.2,360.5,187.8z M361.3,180.8c-2.4-0.2-4.4,0.4-4.6,2.2c-0.2,1.8,1.4,2.9,4,3.1c2.4,0.2,4.4-0.3,4.6-2.2
		C365.5,182.1,363.9,181.1,361.3,180.8z"/>
	<path fill="#353535" d="M361.7,177.4c-3.8-0.6-5.4-2.8-5-5.2c0.4-2.4,2.6-4,6.4-3.4c3.8,0.6,5.4,2.8,5,5.2
		C367.7,176.4,365.4,178,361.7,177.4z M362.7,170.4c-2.4-0.4-4.4,0.2-4.7,2c-0.3,1.8,1.3,2.9,3.8,3.3c2.4,0.4,4.4-0.1,4.7-2
		C366.9,172,365.3,170.8,362.7,170.4z"/>
	<path fill="#353535" d="M366.5,166.5l-7-1.4l-0.3,1.6l-1.4-0.3l0.3-1.6l-3.9-0.8l0.3-1.6l3.9,0.8l0.5-2.4l1.4,0.3l-0.5,2.4l6.7,1.3
		c1.1,0.2,1.7,0,1.9-1.1c0.1-0.3,0.1-0.7,0-1l1.3,0.3c0,0.3,0,0.9-0.1,1.3C369.3,166.2,368.4,166.8,366.5,166.5z"/>
	<path fill="#353535" d="M367.5,161c-2.1-0.5-3.3-2.7-3.1-7.1l-0.7-0.2c-1.2-0.3-1.9,0.1-2.2,1.2c-0.3,1.3,0.1,2.5,0.7,3.5l-1.2,0.7
		c-0.9-1.4-1.3-3-0.9-4.7c0.5-2.1,1.9-2.8,4-2.3l5.1,1.2c1.3,0.3,2.1,0.4,2.7,0.4l-0.4,1.7c-0.5,0-0.8,0-1.4-0.1
		c0.8,1.1,1,2.4,0.7,3.8C370.4,160.7,369.2,161.4,367.5,161z M368.9,155l-3.3-0.8c-0.1,3.5,0.8,4.9,2.1,5.2c1.1,0.3,1.7-0.2,1.9-1.1
		C369.8,157.1,369.5,155.9,368.9,155z"/>
	<path fill="#353535" d="M364.1,140.3l1.5,0.4c-0.1,0.5-0.2,1.1-0.2,1.7c0.6-0.1,1.4-0.1,2.1,0.1c2.4,0.7,3.4,2.6,2.7,4.8
		c-0.2,0.5-0.4,1-0.7,1.4c0.1,0.4,0.3,0.7,0.7,0.8c0.4,0.1,0.6-0.1,1.1-1l0.7-1.6c1.1-2.5,2.1-3.3,3.8-2.9c1.9,0.6,2.4,2.8,1.7,5.5
		c-0.9,3-2.2,3.9-3.8,3.5c-1.1-0.3-1.7-1.2-1.9-2.4c-0.5,0.5-1,0.7-1.6,0.5c-0.6-0.2-1.1-0.9-1.3-1.6c-0.9,0.7-2.2,0.9-3.5,0.5
		c-2.3-0.7-3.4-2.7-2.8-4.8c0.3-1.1,1-1.9,1.8-2.4C364.1,142.1,364,141.1,364.1,140.3z M367.1,144.1c-1.6-0.5-2.8,0-3.2,1.4
		c-0.4,1.4,0.4,2.5,2,2.9c1.6,0.5,2.8-0.1,3.2-1.4C369.4,145.6,368.7,144.6,367.1,144.1z M373.9,151.4c1.1,0.3,1.8-0.3,2.5-2.4
		c0.5-1.7,0.2-3.1-0.8-3.4c-0.9-0.3-1.5,0.1-2.2,1.9l-0.7,1.7c0,0.1-0.1,0.2-0.1,0.3C372.6,150.6,373.2,151.2,373.9,151.4z"/>
	<path fill="#353535" d="M369.9,140.5c-3.8-1.3-4.8-3.8-4-6c0.8-2.3,3.2-3.1,6.7-1.8l0.4,0.1l-2.2,6.2c2.5,0.8,4.1,0.3,4.6-1.2
		c0.4-1.2,0-2.1-1-3.1l1.1-0.9c1.2,1.3,1.8,2.9,1.2,4.5C376,140.7,373.6,141.8,369.9,140.5z M371.3,134c-1.9-0.6-3.5-0.3-4,1.1
		c-0.4,1.2,0.2,2.6,2.4,3.5L371.3,134z"/>
</g>
<g>
	<path fill="#353535" d="M53.3,184v1.8c0,0.2-0.2,0.4-0.4,0.4h-9.8c-0.2,0-0.4-0.2-0.4-0.4c0,0,0-2.1,0-2.3c0-1.6,0.8-4.2,2.1-5.8
		c0.8-0.9,3.2-3.9,3.9-4.6c1.5-1.9,1.9-2.6,1.9-4.3c0-1.8-0.4-3.8-2.6-3.8c-1.2,0-2.6,0.5-2.6,3.8v1.3c0,0.2-0.2,0.4-0.4,0.4h-1.9
		c-0.2,0-0.4-0.2-0.4-0.4v-1.5c0-3.7,1.8-6.2,5.4-6.2c3.3,0,5.1,2.4,5.2,6v0.6c0,2.8-1.3,4.2-2.6,5.8c-2.6,3.1-5.2,5.8-5.2,8.1v0.6
		h7.3C53.1,183.6,53.3,183.8,53.3,184z"/>
	<path fill="#353535" d="M66.7,168.1V181c0,3.3-2.1,5.6-5.2,5.6c-3,0-5.2-2.3-5.2-5.6v-12.9c0-3.4,1.9-5.6,5.2-5.6
		C64.8,162.5,66.7,164.8,66.7,168.1z M63.9,168.2c0-2.2-1-3.1-2.5-3.1c-1.4,0-2.4,0.9-2.4,3.1V181c0,2.2,1,3.1,2.4,3.1
		c1.5,0,2.5-0.9,2.5-3.1V168.2z"/>
	<path fill="#353535" d="M74.4,163.3v22.5c0,0.2-0.2,0.4-0.4,0.4h-1.8c-0.2,0-0.4-0.2-0.4-0.4v-18.8h-2.3c-0.2,0-0.4-0.2-0.4-0.4v-1
		c0-0.2,0.2-0.4,0.4-0.4c2.9-1,2.1-2.4,3.3-2.4c0.3,0,1.2,0,1.2,0C74.2,162.9,74.4,163.1,74.4,163.3z"/>
	<path fill="#353535" d="M88,180.4c0,3.9-1.8,6.2-5.4,6.2c-3.3,0-5.3-2.3-5.3-5.7v-2.2c0-0.2,0.1-0.4,0.4-0.4h1.9
		c0.2,0,0.4,0.2,0.4,0.4v2.4c0,1.5,0.8,3.1,2.7,3.1c2.5,0,2.6-2.1,2.6-3.6v-2.4c0-2.2-2.8-2.8-3.5-2.8c-0.4,0-0.4-0.2-0.4-0.4v-1.7
		c0-0.1,0.1-0.3,0.3-0.4c0,0,3.6-1.1,3.6-3.6v-0.9c0-2.2-0.8-3.3-2.7-3.3c-1.9,0-2.6,1.3-2.6,2.9v2c0,0.2-0.2,0.4-0.4,0.4h-2
		c-0.2,0-0.4-0.2-0.4-0.4v-1.9c0-3.4,2.1-5.6,5.4-5.6c3.5,0,5.2,2.4,5.2,5.8c0,0,0,0.2,0,0.6c0,3-2.6,5-3.6,5c0,0,3.6,0.6,3.6,4.9
		V180.4z"/>
	<path fill="#353535" d="M53.3,232v1.8c0,0.2-0.2,0.4-0.4,0.4h-9.8c-0.2,0-0.4-0.2-0.4-0.4c0,0,0-2.1,0-2.3c0-1.6,0.8-4.2,2.1-5.8
		c0.8-0.9,3.2-3.9,3.9-4.6c1.5-1.9,1.9-2.6,1.9-4.3c0-1.8-0.4-3.8-2.6-3.8c-1.2,0-2.6,0.5-2.6,3.8v1.3c0,0.2-0.2,0.4-0.4,0.4h-1.9
		c-0.2,0-0.4-0.2-0.4-0.4v-1.5c0-3.7,1.8-6.2,5.4-6.2c3.3,0,5.1,2.4,5.2,6v0.6c0,2.8-1.3,4.2-2.6,5.8c-2.6,3.1-5.2,5.8-5.2,8.1v0.6
		h7.3C53.1,231.6,53.3,231.8,53.3,232z"/>
	<path fill="#353535" d="M66.7,216.1V229c0,3.3-2.1,5.6-5.2,5.6c-3,0-5.2-2.3-5.2-5.6v-12.9c0-3.4,1.9-5.6,5.2-5.6
		C64.8,210.5,66.7,212.8,66.7,216.1z M63.9,216.2c0-2.2-1-3.1-2.5-3.1c-1.4,0-2.4,0.9-2.4,3.1V229c0,2.2,1,3.1,2.4,3.1
		c1.5,0,2.5-0.9,2.5-3.1V216.2z"/>
	<path fill="#353535" d="M74.4,211.3v22.5c0,0.2-0.2,0.4-0.4,0.4h-1.8c-0.2,0-0.4-0.2-0.4-0.4v-18.8h-2.3c-0.2,0-0.4-0.2-0.4-0.4v-1
		c0-0.2,0.2-0.4,0.4-0.4c2.9-1,2.1-2.4,3.3-2.4c0.3,0,1.2,0,1.2,0C74.2,210.9,74.4,211.1,74.4,211.3z"/>
	<path fill="#353535" d="M89.3,227.3v1.5c0,0.2-0.2,0.4-0.4,0.4h-1.8v4.5c0,0.2-0.2,0.4-0.4,0.4h-1.7c-0.2,0-0.4-0.2-0.4-0.4v-4.5
		h-7.2c-0.2,0-0.4-0.2-0.4-0.4c0,0,0-0.7,0-1.3c0-0.6,0-0.8,0.3-1.5c0.3-0.7,5.8-14.9,5.8-14.9c0.1-0.2,0.3-0.4,0.5-0.4h3.1
		c0.2,0,0.4,0.2,0.4,0.4V227h1.8C89.1,227,89.3,227.1,89.3,227.3z M79.5,227h5.2v-13.5L79.5,227z"/>
</g>
<circle fill="#353535" cx="15" cy="175.3" r="6.8"/>
<line fill="none" stroke="#353535" stroke-width="3" stroke-linecap="round" stroke-linejoin="round" stroke-miterlimit="10" x1="1.5" y1="175.3" x2="28.5" y2="175.3"/>
<circle fill="#FFFFFF" cx="15" cy="222.8" r="6.8"/>
<line fill="none" stroke="#FFFFFF" stroke-width="3" stroke-linecap="round" stroke-linejoin="round" stroke-miterlimit="10" x1="1.5" y1="222.8" x2="28.5" y2="222.8"/>
</svg>
