<?xml version="1.0" encoding="utf-8"?>
<!-- Generator: Adobe Illustrator 17.1.0, SVG Export Plug-In . SVG Version: 6.00 Build 0)  -->
<!DOCTYPE svg PUBLIC "-//W3C//DTD SVG 1.1//EN" "http://www.w3.org/Graphics/SVG/1.1/DTD/svg11.dtd">
<svg version="1.1" id="Layer_1" xmlns="http://www.w3.org/2000/svg" xmlns:xlink="http://www.w3.org/1999/xlink" x="0px" y="0px"
	 viewBox="0 0 821.7 411.4" enable-background="new 0 0 821.7 411.4" xml:space="preserve">
<path fill="#445DD8" stroke="#353535" stroke-width="4" stroke-linecap="round" stroke-linejoin="round" stroke-miterlimit="10" d="
	M570.4,392.3c-103.3,0-187.3-84-187.3-187.3s84-187.3,187.3-187.3s187.3,84,187.3,187.3S673.7,392.3,570.4,392.3z"/>
<g>
	
		<line fill="none" stroke="#353535" stroke-width="2" stroke-linecap="round" stroke-linejoin="round" stroke-miterlimit="10" stroke-dasharray="1,6" x1="383.1" y1="204.6" x2="757.7" y2="204.6"/>
	
		<line fill="none" stroke="#353535" stroke-width="2" stroke-linecap="round" stroke-linejoin="round" stroke-miterlimit="10" stroke-dasharray="1,6" x1="439.2" y1="72.6" x2="703.3" y2="337.5"/>
	
		<line fill="none" stroke="#353535" stroke-width="2" stroke-linecap="round" stroke-linejoin="round" stroke-miterlimit="10" stroke-dasharray="1,6" x1="703.3" y1="72.6" x2="439.2" y2="337.5"/>
</g>
<circle fill="none" stroke="#353535" stroke-width="2" stroke-linecap="round" stroke-linejoin="round" stroke-miterlimit="10" cx="570.4" cy="205" r="52.6"/>
<path fill="none" stroke="#353535" stroke-width="2" stroke-linecap="round" stroke-linejoin="round" stroke-miterlimit="10" d="
	M570.4,325c-66.1,0-119.9-53.8-119.9-119.9S504.3,85.1,570.4,85.1S690.3,138.9,690.3,205S636.5,325,570.4,325z"/>
<path fill="none" d="M478.5,21.8c101-50.7,224.5-9.7,275.1,91.4s9.7,224.5-91.4,275.1s-224.5,9.7-275.1-91.4S377.5,72.4,478.5,21.8z
	"/>
<text transform="matrix(0.5888 -0.8083 0.8083 0.5888 401.7511 88.4197)"><tspan x="0" y="0" fill="#353535" font-family="'BentonSans-CondensedRegular'" font-size="21">E</tspan><tspan x="10.5" y="-0.1" fill="#353535" font-family="'BentonSans-CondensedRegular'" font-size="21" rotate="3.7">m</tspan><tspan x="26.6" y="1" fill="#353535" font-family="'BentonSans-CondensedRegular'" font-size="21" rotate="7.5">p</tspan><tspan x="37" y="2.5" fill="#353535" font-family="'BentonSans-CondensedRegular'" font-size="21" rotate="9.6">l</tspan><tspan x="41.4" y="3.1" fill="#353535" font-family="'BentonSans-CondensedRegular'" font-size="21" rotate="11.7">o</tspan><tspan x="51.4" y="5.2" fill="#353535" font-family="'BentonSans-CondensedRegular'" font-size="21" rotate="14.4">y</tspan><tspan x="60.5" y="7.6" fill="#353535" font-family="'BentonSans-CondensedRegular'" font-size="21" rotate="17.1">e</tspan><tspan x="69.8" y="10.4" fill="#353535" font-family="'BentonSans-CondensedRegular'" font-size="21" rotate="19.8">e</tspan><tspan x="78.9" y="13.7" fill="#353535" font-family="'BentonSans-CondensedRegular'" font-size="21" rotate="22.5">s</tspan></text>
<path fill="none" d="M765,269.6c-35.6,107.3-151.9,165.6-259.2,130s-165.6-151.9-130-259.2S527.7-25.2,635,10.5
	S800.6,162.3,765,269.6z"/>
<text transform="matrix(0.2352 0.972 -0.972 0.2352 767.9103 149.6387)"><tspan x="0" y="0" fill="#353535" font-family="'BentonSans-CondensedRegular'" font-size="21">M</tspan><tspan x="15.2" y="0.1" fill="#353535" font-family="'BentonSans-CondensedRegular'" font-size="21" rotate="3.5">e</tspan><tspan x="24.9" y="0.7" fill="#353535" font-family="'BentonSans-CondensedRegular'" font-size="21" rotate="6.2">e</tspan><tspan x="34.6" y="1.7" fill="#353535" font-family="'BentonSans-CondensedRegular'" font-size="21" rotate="8.5">t</tspan><tspan x="41.2" y="2.7" fill="#353535" font-family="'BentonSans-CondensedRegular'" font-size="21" rotate="10.1">i</tspan><tspan x="45.7" y="3.5" fill="#353535" font-family="'BentonSans-CondensedRegular'" font-size="21" rotate="12.2">n</tspan><tspan x="55.8" y="5.7" fill="#353535" font-family="'BentonSans-CondensedRegular'" font-size="21" rotate="15.1">g</tspan><tspan x="65.7" y="8.4" fill="#353535" font-family="'BentonSans-CondensedRegular'" font-size="21" rotate="17.1"> </tspan><tspan x="69.5" y="9.5" fill="#353535" font-family="'BentonSans-CondensedRegular'" font-size="21" rotate="19.3">R</tspan><tspan x="80.6" y="13.4" fill="#353535" font-family="'BentonSans-CondensedRegular'" font-size="21" rotate="22.4">o</tspan><tspan x="90.1" y="17.3" fill="#353535" font-family="'BentonSans-CondensedRegular'" font-size="21" rotate="25.3">o</tspan><tspan x="99.3" y="21.5" fill="#353535" font-family="'BentonSans-CondensedRegular'" font-size="21" rotate="28.9">m</tspan><tspan x="113.4" y="29.4" fill="#353535" font-family="'BentonSans-CondensedRegular'" font-size="21" rotate="32.9">s</tspan></text>
<path fill="none" d="M753.7,113.1c50.7,101,9.7,224.5-91.4,275.1s-224.5,9.7-275.1-91.4s-9.7-224.5,91.4-275.1S703,12.1,753.7,113.1
	z"/>
<text transform="matrix(0.7848 0.6197 -0.6197 0.7848 693.0894 40.7864)"><tspan x="0" y="0" fill="#353535" font-family="'BentonSans-CondensedRegular'" font-size="21">P</tspan><tspan x="11.5" y="0" fill="#353535" font-family="'BentonSans-CondensedRegular'" font-size="21" rotate="2.6">r</tspan><tspan x="18.5" y="0.3" fill="#353535" font-family="'BentonSans-CondensedRegular'" font-size="21" rotate="5">o</tspan><tspan x="28.7" y="1.2" fill="#353535" font-family="'BentonSans-CondensedRegular'" font-size="21" rotate="8">d</tspan><tspan x="39.1" y="2.7" fill="#353535" font-family="'BentonSans-CondensedRegular'" font-size="21" rotate="10.9">u</tspan><tspan x="49.3" y="4.6" fill="#353535" font-family="'BentonSans-CondensedRegular'" font-size="21" rotate="13.7">c</tspan><tspan x="58.4" y="6.9" fill="#353535" font-family="'BentonSans-CondensedRegular'" font-size="21" rotate="15.9">t</tspan><tspan x="64.9" y="8.7" fill="#353535" font-family="'BentonSans-CondensedRegular'" font-size="21" rotate="18.1">s</tspan></text>
<path fill="none" d="M662.3,388.3c-101,50.7-224.5,9.7-275.1-91.4s-9.7-224.5,91.4-275.1s224.5-9.7,275.1,91.4
	S763.3,337.6,662.3,388.3z"/>
<text transform="matrix(-0.5481 0.8364 -0.8364 -0.5481 746.0884 310.8654)"><tspan x="0" y="0" fill="#353535" font-family="'BentonSans-CondensedRegular'" font-size="21">W</tspan><tspan x="16.1" y="0.1" fill="#353535" font-family="'BentonSans-CondensedRegular'" font-size="21" rotate="3.7">o</tspan><tspan x="26.3" y="0.8" fill="#353535" font-family="'BentonSans-CondensedRegular'" font-size="21" rotate="6.1">r</tspan><tspan x="33.4" y="1.5" fill="#353535" font-family="'BentonSans-CondensedRegular'" font-size="21" rotate="8.4">k</tspan><tspan x="42.8" y="2.9" fill="#353535" font-family="'BentonSans-CondensedRegular'" font-size="21" rotate="10.3"> </tspan><tspan x="46.7" y="3.6" fill="#353535" font-family="'BentonSans-CondensedRegular'" font-size="21" rotate="12.5">S</tspan><tspan x="57.8" y="6.1" fill="#353535" font-family="'BentonSans-CondensedRegular'" font-size="21" rotate="15.1">t</tspan><tspan x="64.3" y="7.8" fill="#353535" font-family="'BentonSans-CondensedRegular'" font-size="21" rotate="17.4">a</tspan><tspan x="73.6" y="10.7" fill="#353535" font-family="'BentonSans-CondensedRegular'" font-size="21" rotate="19.7">t</tspan><tspan x="79.9" y="13" fill="#353535" font-family="'BentonSans-CondensedRegular'" font-size="21" rotate="21.3">i</tspan><tspan x="84.1" y="14.6" fill="#353535" font-family="'BentonSans-CondensedRegular'" font-size="21" rotate="23.3">o</tspan><tspan x="93.5" y="18.6" fill="#353535" font-family="'BentonSans-CondensedRegular'" font-size="21" rotate="26.2">n</tspan><tspan x="102.8" y="23.2" fill="#353535" font-family="'BentonSans-CondensedRegular'" font-size="21" rotate="28.9">s</tspan></text>
<path fill="none" d="M387.2,296.9c-50.7-101-9.7-224.5,91.4-275.1s224.5-9.7,275.1,91.4c50.7,101,9.7,224.5-91.4,275.1
	S437.8,398,387.2,296.9z"/>
<text transform="matrix(-0.8415 -0.5403 0.5403 -0.8415 464.2293 380.4911)"><tspan x="0" y="0" fill="#353535" font-family="'BentonSans-CondensedRegular'" font-size="21">P</tspan><tspan x="11.4" y="0" fill="#353535" font-family="'BentonSans-CondensedRegular'" font-size="21" rotate="3">h</tspan><tspan x="21.8" y="0.6" fill="#353535" font-family="'BentonSans-CondensedRegular'" font-size="21" rotate="5.9">o</tspan><tspan x="31.9" y="1.6" fill="#353535" font-family="'BentonSans-CondensedRegular'" font-size="21" rotate="8.8">n</tspan><tspan x="42.2" y="3.2" fill="#353535" font-family="'BentonSans-CondensedRegular'" font-size="21" rotate="11.6">e</tspan><tspan x="51.7" y="5.2" fill="#353535" font-family="'BentonSans-CondensedRegular'" font-size="21" rotate="13.6"> </tspan><tspan x="55.7" y="6.1" fill="#353535" font-family="'BentonSans-CondensedRegular'" font-size="21" rotate="15.9">B</tspan><tspan x="67.2" y="9.4" fill="#353535" font-family="'BentonSans-CondensedRegular'" font-size="21" rotate="19">o</tspan><tspan x="76.9" y="12.7" fill="#353535" font-family="'BentonSans-CondensedRegular'" font-size="21" rotate="21.9">o</tspan><tspan x="86.4" y="16.5" fill="#353535" font-family="'BentonSans-CondensedRegular'" font-size="21" rotate="24.2">t</tspan><tspan x="92.5" y="19.2" fill="#353535" font-family="'BentonSans-CondensedRegular'" font-size="21" rotate="26.6">h</tspan><tspan x="101.7" y="23.9" fill="#353535" font-family="'BentonSans-CondensedRegular'" font-size="21" rotate="29.3">s</tspan></text>
<path fill="none" d="M375.9,140.4C411.5,33.1,527.7-25.2,635,10.5s165.6,151.9,130,259.2s-151.9,165.6-259.2,130
	S340.2,247.7,375.9,140.4z"/>
<text transform="matrix(-0.2483 -0.9687 0.9687 -0.2483 373.2644 261.1443)"><tspan x="0" y="0" fill="#353535" font-family="'BentonSans-CondensedRegular'" font-size="21">S</tspan><tspan x="11.3" y="0" fill="#353535" font-family="'BentonSans-CondensedRegular'" font-size="21" rotate="3">q</tspan><tspan x="21.8" y="0.6" fill="#353535" font-family="'BentonSans-CondensedRegular'" font-size="21" rotate="6">u</tspan><tspan x="32.1" y="1.6" fill="#353535" font-family="'BentonSans-CondensedRegular'" font-size="21" rotate="8.8">a</tspan><tspan x="41.7" y="3.2" fill="#353535" font-family="'BentonSans-CondensedRegular'" font-size="21" rotate="11.1">r</tspan><tspan x="48.7" y="4.5" fill="#353535" font-family="'BentonSans-CondensedRegular'" font-size="21" rotate="13.5">e</tspan><tspan x="58.1" y="6.8" fill="#353535" font-family="'BentonSans-CondensedRegular'" font-size="21" rotate="15.5"> </tspan><tspan x="62.1" y="7.8" fill="#353535" font-family="'BentonSans-CondensedRegular'" font-size="21" rotate="17.4">F</tspan><tspan x="71.5" y="10.8" fill="#353535" font-family="'BentonSans-CondensedRegular'" font-size="21" rotate="20.3">o</tspan><tspan x="81.1" y="14.3" fill="#353535" font-family="'BentonSans-CondensedRegular'" font-size="21" rotate="23.1">o</tspan><tspan x="90.5" y="18.4" fill="#353535" font-family="'BentonSans-CondensedRegular'" font-size="21" rotate="25.5">t</tspan><tspan x="96.5" y="21.2" fill="#353535" font-family="'BentonSans-CondensedRegular'" font-size="21" rotate="27.8">a</tspan><tspan x="105.1" y="25.8" fill="#353535" font-family="'BentonSans-CondensedRegular'" font-size="21" rotate="30.6">g</tspan><tspan x="113.9" y="30.9" fill="#353535" font-family="'BentonSans-CondensedRegular'" font-size="21" rotate="33.7">e</tspan></text>
<rect x="41.5" y="162.4" fill="none" width="75.5" height="90.5"/>
<text transform="matrix(1 0 0 1 41.5314 186.2068)"><tspan x="0" y="0" fill="#353535" font-family="'Interborough'" font-size="36">2013 </tspan><tspan x="0" y="48" fill="#353535" font-family="'Interborough'" font-size="36">2014</tspan></text>
<circle fill="#353535" cx="15" cy="175.3" r="6.8"/>
<line fill="none" stroke="#353535" stroke-width="3" stroke-linecap="round" stroke-linejoin="round" stroke-miterlimit="10" x1="1.5" y1="175.3" x2="28.5" y2="175.3"/>
<circle fill="#FFFFFF" cx="15" cy="222.8" r="6.8"/>
<line fill="none" stroke="#FFFFFF" stroke-width="3" stroke-linecap="round" stroke-linejoin="round" stroke-miterlimit="10" x1="1.5" y1="222.8" x2="28.5" y2="222.8"/>
</svg>
