<?xml version="1.0" encoding="utf-8"?>
<!-- Generator: Adobe Illustrator 17.1.0, SVG Export Plug-In . SVG Version: 6.00 Build 0)  -->
<!DOCTYPE svg PUBLIC "-//W3C//DTD SVG 1.1//EN" "http://www.w3.org/Graphics/SVG/1.1/DTD/svg11.dtd">
<svg version="1.1" id="Layer_1" xmlns="http://www.w3.org/2000/svg" xmlns:xlink="http://www.w3.org/1999/xlink" x="0px" y="0px"
	 viewBox="0 0 821.7 411.4" enable-background="new 0 0 821.7 411.4" xml:space="preserve">
<circle fill="none" stroke="#353535" stroke-width="2" stroke-linecap="round" stroke-linejoin="round" stroke-miterlimit="10" cx="570.4" cy="205" r="52.6"/>
<circle fill="#353535" cx="532.7" cy="167" r="6.8"/>
<circle fill="#353535" cx="654.6" cy="121" r="6.8"/>
<circle fill="#353535" cx="620.2" cy="204" r="6.8"/>
<circle fill="#353535" cx="632.4" cy="265.6" r="6.8"/>
<circle fill="#353535" cx="570.7" cy="203.9" r="6.8"/>
<circle fill="#353535" cx="483.9" cy="204" r="6.8"/>
<circle fill="#FFFFFF" cx="484.9" cy="119.2" r="6.8"/>
<circle fill="#FFFFFF" cx="413.2" cy="204" r="6.8"/>
<circle fill="#FFFFFF" cx="534.2" cy="243.3" r="6.8"/>
<circle fill="#FFFFFF" cx="690.7" cy="321.9" r="6.8"/>
<circle fill="#FFFFFF" cx="690.6" cy="206" r="6.8"/>
<circle fill="#FFFFFF" cx="632.3" cy="143.3" r="6.8"/>
<polygon fill="none" stroke="#FFFFFF" stroke-width="3" stroke-miterlimit="10" points="413.2,205 484.9,119.2 632.3,143.3 
	690.6,206 690.7,321.9 534.2,243.3 "/>
<polygon fill="none" stroke="#353535" stroke-width="3" stroke-linecap="round" stroke-linejoin="round" stroke-miterlimit="10" points="
	483.9,204 532.7,167 654.6,121 620.2,204 632.4,265.6 570.7,203.9 "/>
</svg>
