<?xml version="1.0" encoding="utf-8"?>
<!-- Generator: Adobe Illustrator 17.1.0, SVG Export Plug-In . SVG Version: 6.00 Build 0)  -->
<!DOCTYPE svg PUBLIC "-//W3C//DTD SVG 1.1//EN" "http://www.w3.org/Graphics/SVG/1.1/DTD/svg11.dtd">
<svg version="1.1" id="Layer_1" xmlns="http://www.w3.org/2000/svg" xmlns:xlink="http://www.w3.org/1999/xlink" x="0px" y="0px"
	 viewBox="0 0 281.3 200.2" enable-background="new 0 0 281.3 200.2" xml:space="preserve">
<line fill="none" stroke="#FBD8BE" stroke-linecap="round" stroke-linejoin="round" stroke-miterlimit="10" stroke-dasharray="1,6" x1="0.5" y1="59" x2="280.8" y2="59"/>
<g>
	<g>
		<g>
			<path fill="#FCD9BE" d="M13.6,11.3V2.4h-2.1V0.1h4.9v11.2H13.6z"/>
			<path fill="#FCD9BE" d="M22.9,10.1c0,0.8-0.6,1.3-1.3,1.3c-0.8,0-1.3-0.5-1.3-1.3c0-0.8,0.5-1.3,1.3-1.3
				C22.4,8.8,22.9,9.3,22.9,10.1z"/>
			<path fill="#FCD9BE" d="M41.7,0.1c3.5,0,6,2.3,6,5.6c0,3.3-2.5,5.6-6.1,5.6h-4.7V0.1H41.7z M39.7,9.1h2c1.7,0,3-1.3,3-3.3
				c0-2-1.3-3.3-3.1-3.3h-1.9V9.1z"/>
			<path fill="#FCD9BE" d="M50.7,11.3V0.1h2.8v11.2H50.7z"/>
			<path fill="#FCD9BE" d="M66.1,1.2l-1.1,2.2c-1.2-0.7-2.7-1.2-3.6-1.2c-0.7,0-1.2,0.3-1.2,0.8c0,1.9,5.9,0.8,5.9,4.9
				c0,2.2-2,3.4-4.5,3.4c-1.9,0-3.8-0.7-5.1-1.8l1.1-2.2c1.2,1,2.9,1.7,4,1.7c0.9,0,1.5-0.3,1.5-1c0-2-5.9-0.8-5.9-4.8
				C57.3,1.3,59,0,61.7,0C63.3,0,65,0.5,66.1,1.2z"/>
			<path fill="#FCD9BE" d="M79.1,1.9l-1.6,2c-0.7-0.9-1.8-1.5-2.8-1.5c-1.8,0-3.1,1.4-3.1,3.2c0,1.9,1.3,3.3,3.1,3.3
				c0.9,0,2-0.5,2.8-1.3l1.7,1.8c-1.2,1.2-3,2-4.6,2c-3.4,0-5.9-2.5-5.9-5.8c0-3.2,2.6-5.7,6-5.7C76.2,0,78,0.8,79.1,1.9z"/>
			<path fill="#FCD9BE" d="M93.2,5.7c0,3.3-2.6,5.7-6.1,5.7c-3.5,0-6.1-2.5-6.1-5.7c0-3.3,2.6-5.7,6.1-5.7C90.6,0,93.2,2.5,93.2,5.7
				z M84,5.7c0,1.9,1.5,3.3,3.2,3.3c1.7,0,3.1-1.5,3.1-3.3c0-1.9-1.4-3.3-3.1-3.3C85.4,2.4,84,3.8,84,5.7z"/>
			<path fill="#FCD9BE" d="M99.3,11.3L95,0.1h3l2.9,8.2l2.9-8.2h2.9l-4.4,11.2H99.3z"/>
			<path fill="#FCD9BE" d="M112.2,2.4v2.2h5.3v2.2h-5.3v2.3h6.1v2.2h-8.9V0.1h8.8v2.2H112.2z"/>
			<path fill="#FCD9BE" d="M126.9,8.2L126.9,8.2h-2.2v3.2h-2.8V0.1h5c3,0,4.7,1.4,4.7,3.9c0,1.7-0.7,2.9-2,3.6l2.4,3.7h-3.2
				L126.9,8.2z M126.8,5.9c1.2,0,2-0.6,2-1.8c0-1.2-0.7-1.8-2-1.8h-2.2v3.6H126.8z"/>
			<path fill="#FCD9BE" d="M140.6,11.3h-2.8V7.8l-4.1-7.7h2.8l2.7,4.9l2.6-4.9h2.8l-4.1,7.6V11.3z"/>
		</g>
	</g>
	<g>
		<path fill="#FCD9BE" d="M36.8,21.1h3.1c2.1,0,3.4,1,3.4,3.2c0,1.8-1,2.7-2.1,3l2.2,5h-1.3L40,27.4h-2v4.7h-1.2V21.1z M39.9,26.3
			c1.5,0,2.2-0.6,2.2-2.1c0-1.5-0.8-2-2.2-2H38v4.1H39.9z"/>
		<path fill="#FCD9BE" d="M44.8,28.2c0-2.8,1.5-4.1,3.1-4.1c1.8,0,2.8,1.4,2.8,4.1v0.3H46c0,1.9,0.8,2.9,1.9,2.9
			c0.9,0,1.4-0.5,1.9-1.4l0.8,0.5c-0.6,1.1-1.5,1.9-2.8,1.9C46.1,32.3,44.8,31,44.8,28.2z M49.5,27.5c-0.1-1.4-0.6-2.4-1.7-2.4
			c-0.9,0-1.7,0.7-1.8,2.4H49.5z"/>
		<path fill="#FCD9BE" d="M51.6,30.7l0.8-0.6c0.5,0.8,1.3,1.2,2.1,1.2c1,0,1.6-0.4,1.6-1.2c0-2-4.1-1.2-4.1-4c0-1.3,1-2.1,2.5-2.1
			c1.2,0,2,0.6,2.6,1.4l-0.8,0.6c-0.4-0.6-1-1.1-1.8-1.1c-0.9,0-1.3,0.5-1.3,1.1c0,2,4.1,1.1,4.1,4c0,1.4-1.2,2.2-2.7,2.2
			C53.1,32.3,52.2,31.7,51.6,30.7z"/>
		<path fill="#FCD9BE" d="M58.4,28.2c0-2.8,1.5-4.1,3.1-4.1c1.8,0,2.8,1.4,2.8,4.1v0.3h-4.7c0,1.9,0.8,2.9,1.9,2.9
			c0.9,0,1.4-0.5,1.9-1.4l0.8,0.5c-0.6,1.1-1.5,1.9-2.8,1.9C59.7,32.3,58.4,31,58.4,28.2z M63.1,27.5c-0.1-1.4-0.6-2.4-1.7-2.4
			c-0.9,0-1.7,0.7-1.8,2.4H63.1z"/>
		<path fill="#FCD9BE" d="M65.4,30.3c0-1.6,1.3-2.7,4.4-3.3v-0.5c0-0.9-0.4-1.3-1.2-1.3c-1,0-1.7,0.5-2.3,1.1l-0.7-0.7
			c0.8-0.8,1.9-1.4,3.1-1.4c1.5,0,2.2,0.9,2.2,2.4v3.8c0,1,0,1.5,0.2,2H70c-0.1-0.3-0.2-0.6-0.2-1c-0.6,0.7-1.5,1.1-2.5,1.1
			C66.1,32.3,65.4,31.5,65.4,30.3z M69.8,30.2v-2.4c-2.4,0.5-3.2,1.4-3.2,2.3c0,0.8,0.4,1.2,1.1,1.2C68.5,31.3,69.2,30.8,69.8,30.2z
			"/>
		<path fill="#FCD9BE" d="M72.9,24.2h1.2v1.4h0c0.4-0.8,1.3-1.5,2.5-1.5h0.2l-0.1,1.1c0,0-0.2,0-0.3,0c-1,0-1.9,0.7-2.3,1.6v5.3
			h-1.2V24.2z"/>
		<path fill="#FCD9BE" d="M77.7,28.2c0-2.8,1.4-4.1,3.1-4.1c1.6,0,2.3,1.1,2.7,2.4l-1.1,0.3c-0.3-1-0.7-1.6-1.6-1.6
			c-1,0-1.8,0.9-1.8,3.1c0,1.9,0.7,3.1,1.8,3.1c0.8,0,1.4-0.5,1.7-1.6l1.1,0.3c-0.4,1.5-1.3,2.4-2.8,2.4
			C79,32.3,77.7,30.9,77.7,28.2z"/>
		<path fill="#FCD9BE" d="M84.9,21.1h1.2v4.3c0.5-0.6,1.5-1.3,2.5-1.3c1.3,0,2,0.8,2,2.2v5.9h-1.2v-5.6c0-0.9-0.3-1.4-1.1-1.4
			c-0.8,0-1.6,0.6-2.1,1.1v5.9h-1.2V21.1z"/>
		<path fill="#FCD9BE" d="M96.1,26.9c0-1,0.8-1.8,1.8-1.8c1,0,1.8,0.8,1.8,1.8c0,1-0.8,1.8-1.8,1.8C96.9,28.7,96.1,27.9,96.1,26.9z"
			/>
		<path fill="#FCD9BE" d="M105.5,21.1h2.4c3.1,0,4.7,1.6,4.7,5.5c0,3.9-1.7,5.6-4.7,5.6h-2.4V21.1z M108.1,31c2.2,0,3.3-1.3,3.3-4.4
			c0-3-1-4.4-3.3-4.4h-1.3V31H108.1z"/>
		<path fill="#FCD9BE" d="M113.9,28.2c0-2.8,1.5-4.1,3.1-4.1c1.8,0,2.8,1.4,2.8,4.1v0.3h-4.7c0,1.9,0.8,2.9,1.9,2.9
			c0.9,0,1.4-0.5,1.9-1.4l0.8,0.5c-0.6,1.1-1.5,1.9-2.8,1.9C115.2,32.3,113.9,31,113.9,28.2z M118.7,27.5c-0.1-1.4-0.6-2.4-1.7-2.4
			c-0.9,0-1.7,0.7-1.8,2.4H118.7z"/>
		<path fill="#FCD9BE" d="M121.9,25.2h-1.2v-1h1.2V23c0-1.3,0.7-2,2.2-2c0.1,0,0.6,0,0.6,0v1c0,0-0.4,0-0.5,0c-0.6,0-1.1,0.2-1.1,1
			v1.2h1.5v1h-1.5v6.9h-1.2V25.2z"/>
		<path fill="#FCD9BE" d="M125.9,21.4h1.2v1.3h-1.2V21.4z M125.9,24.2h1.2v7.9h-1.2V24.2z"/>
		<path fill="#FCD9BE" d="M129.1,24.2h1.2v1.1c0.5-0.6,1.5-1.3,2.5-1.3c1.3,0,2,0.8,2,2.2v5.9h-1.2v-5.6c0-0.9-0.3-1.4-1.1-1.4
			c-0.8,0-1.6,0.6-2.1,1.1v5.9h-1.2V24.2z"/>
		<path fill="#FCD9BE" d="M136.3,28.2c0-2.8,1.5-4.1,3.1-4.1c1.8,0,2.8,1.4,2.8,4.1v0.3h-4.7c0,1.9,0.8,2.9,1.9,2.9
			c0.9,0,1.4-0.5,1.9-1.4l0.8,0.5c-0.6,1.1-1.5,1.9-2.8,1.9C137.6,32.3,136.3,31,136.3,28.2z M141,27.5c-0.1-1.4-0.6-2.4-1.7-2.4
			c-0.9,0-1.7,0.7-1.8,2.4H141z"/>
		<path fill="#FCD9BE" d="M147.4,26.9c0-1,0.8-1.8,1.8-1.8c1,0,1.8,0.8,1.8,1.8c0,1-0.8,1.8-1.8,1.8
			C148.2,28.7,147.4,27.9,147.4,26.9z"/>
		<path fill="#FCD9BE" d="M156.3,26.6c0-3.7,1.6-5.7,4-5.7c2.1,0,3,1.5,3.4,3.5l-1.2,0.2c-0.3-1.7-1-2.6-2.3-2.6
			c-1.7,0-2.7,1.7-2.7,4.6c0,3,1,4.7,2.7,4.7c1.3,0,2-0.8,2.4-2.7l1.2,0.2c-0.4,2.1-1.5,3.6-3.6,3.6
			C157.8,32.3,156.3,30.4,156.3,26.6z"/>
		<path fill="#FCD9BE" d="M165,28.2c0-2.7,1.4-4.1,3.1-4.1c1.8,0,3.1,1.4,3.1,4.1c0,2.7-1.4,4.1-3.1,4.1
			C166.4,32.3,165,30.9,165,28.2z M170.1,28.2c0-1.7-0.6-3.1-1.9-3.1c-1.3,0-1.9,1.2-1.9,3.1c0,1.7,0.6,3.1,1.9,3.1
			C169.4,31.3,170.1,30.1,170.1,28.2z"/>
		<path fill="#FCD9BE" d="M172.8,24.2h1.2v1.1c0.5-0.6,1.5-1.3,2.5-1.3c1.3,0,1.9,0.8,1.9,2.2v5.9h-1.2v-5.6c0-0.9-0.3-1.4-1.1-1.4
			c-0.8,0-1.6,0.6-2.1,1.1v5.9h-1.2V24.2z"/>
		<path fill="#FCD9BE" d="M180,28.2c0-2.8,1.4-4.1,3.1-4.1c1.6,0,2.3,1.1,2.7,2.4l-1.1,0.3c-0.3-1-0.7-1.6-1.6-1.6
			c-1,0-1.8,0.9-1.8,3.1c0,1.9,0.7,3.1,1.8,3.1c0.8,0,1.4-0.5,1.7-1.6l1.1,0.3c-0.4,1.5-1.3,2.4-2.8,2.4
			C181.3,32.3,180,30.9,180,28.2z"/>
		<path fill="#FCD9BE" d="M186.8,28.2c0-2.8,1.5-4.1,3.1-4.1c1.8,0,2.8,1.4,2.8,4.1v0.3H188c0,1.9,0.8,2.9,1.9,2.9
			c0.9,0,1.4-0.5,1.9-1.4l0.8,0.5c-0.6,1.1-1.5,1.9-2.8,1.9C188.1,32.3,186.8,31,186.8,28.2z M191.5,27.5c-0.1-1.4-0.6-2.4-1.7-2.4
			c-0.9,0-1.7,0.7-1.8,2.4H191.5z"/>
		<path fill="#FCD9BE" d="M194.2,24.2h1.2v1c0.5-0.6,1.2-1.2,2.2-1.2c1.5,0,2.7,1.3,2.7,4.1c0,2.9-1.2,4.1-2.8,4.1
			c-0.9,0-1.6-0.4-2.1-1.1v4h-1.2V24.2z M199.1,28.2c0-2.1-0.7-3.1-1.8-3.1c-0.7,0-1.4,0.5-1.9,1.1v4c0.6,0.7,1.2,1.1,1.9,1.1
			C198.4,31.3,199.1,30.4,199.1,28.2z"/>
		<path fill="#FCD9BE" d="M202.3,30.4v-5.1h-1.2v-1h1.2v-2.8h1.2v2.8h1.7v1h-1.7v4.9c0,0.8,0.2,1.2,1,1.2c0.2,0,0.5,0,0.7-0.1v1
			c-0.2,0.1-0.6,0.1-0.9,0.1C202.9,32.2,202.3,31.7,202.3,30.4z"/>
	</g>
</g>
<line fill="none" stroke="#FBD8BE" stroke-linecap="round" stroke-linejoin="round" stroke-miterlimit="10" stroke-dasharray="1,6" x1="0.5" y1="140.5" x2="280.8" y2="140.5"/>
<g>
	<g>
		<path fill="#FCD9BE" d="M20.2,83.4c0,1.2-0.9,2.5-2.1,3.7l-2.3,2.4h4.7v2.3h-8.4V90l4-4.2c0.6-0.7,1.1-1.4,1.1-1.9
			c0-0.6-0.5-1-1.3-1c-0.9,0-2,0.5-3.1,1.4l-1.1-2c1.4-1.1,2.9-1.7,4.5-1.7C18.6,80.5,20.2,81.7,20.2,83.4z"/>
		<path fill="#FCD9BE" d="M25.9,90.6c0,0.8-0.6,1.3-1.3,1.3c-0.8,0-1.3-0.5-1.3-1.3c0-0.8,0.5-1.3,1.3-1.3
			C25.4,89.3,25.9,89.8,25.9,90.6z"/>
		<path fill="#FCD9BE" d="M37.4,82.9v2.2h5.3v2.2h-5.3v2.3h6.1v2.2h-8.9V80.6h8.8v2.2H37.4z"/>
		<path fill="#FCD9BE" d="M57.5,91.8h-3.4l-2.4-3.6l-2.4,3.6h-3.3l4-5.7l-3.7-5.5h3.3l2.2,3.3l2.2-3.3h3.3L53.4,86L57.5,91.8z"/>
		<path fill="#FCD9BE" d="M63.1,82.9v2.2h5.3v2.2h-5.3v2.3h6.1v2.2h-8.9V80.6h8.8v2.2H63.1z"/>
		<path fill="#FCD9BE" d="M82.4,82.4l-1.6,2c-0.7-0.9-1.8-1.5-2.8-1.5c-1.8,0-3.1,1.4-3.1,3.2c0,1.9,1.3,3.3,3.1,3.3
			c0.9,0,2-0.5,2.8-1.3l1.7,1.8c-1.2,1.2-3,2-4.6,2c-3.4,0-5.9-2.5-5.9-5.8c0-3.2,2.6-5.7,6-5.7C79.6,80.5,81.3,81.3,82.4,82.4z"/>
		<path fill="#FCD9BE" d="M95.4,87.1c0,3-2,4.8-5.1,4.8c-3.2,0-5.2-1.9-5.2-4.8v-6.5H88v6.5c0,1.5,1,2.4,2.3,2.4
			c1.3,0,2.3-0.9,2.3-2.4v-6.5h2.8V87.1z"/>
		<path fill="#FCD9BE" d="M104.3,82.9v8.9h-2.8v-8.9h-3.3v-2.3h9.6v2.3H104.3z"/>
		<path fill="#FCD9BE" d="M110.4,91.8V80.6h2.8v11.2H110.4z"/>
		<path fill="#FCD9BE" d="M128.5,86.2c0,3.3-2.6,5.7-6.1,5.7c-3.5,0-6.1-2.5-6.1-5.7c0-3.3,2.6-5.7,6.1-5.7
			C125.9,80.5,128.5,83,128.5,86.2z M119.3,86.2c0,1.9,1.5,3.3,3.2,3.3c1.7,0,3.1-1.5,3.1-3.3c0-1.9-1.4-3.3-3.1-3.3
			C120.8,82.9,119.3,84.3,119.3,86.2z"/>
		<path fill="#FCD9BE" d="M139.4,91.8l-5.2-6.9v6.9h-2.7V80.6h2.5l5.2,6.9v-6.9h2.7v11.2H139.4z"/>
	</g>
</g>
<g>
	<path fill="#FCD9BE" d="M39.8,103.6h3.1c2,0,3.4,0.9,3.4,3.2c0,2.5-1.5,3.3-3.5,3.3H41v4.6h-1.2V103.6z M42.9,108.9
		c1.5,0,2.2-0.6,2.2-2.2c0-1.5-0.8-2.1-2.2-2.1H41v4.2H42.9z"/>
	<path fill="#FCD9BE" d="M47.9,106.7h1.2v1.4h0c0.4-0.8,1.3-1.5,2.5-1.5h0.2l-0.1,1.1c0,0-0.2,0-0.3,0c-1,0-1.9,0.7-2.3,1.6v5.3
		h-1.2V106.7z"/>
	<path fill="#FCD9BE" d="M52.7,110.7c0-2.7,1.4-4.1,3.1-4.1c1.8,0,3.1,1.4,3.1,4.1c0,2.7-1.4,4.1-3.1,4.1S52.7,113.4,52.7,110.7z
		 M57.7,110.7c0-1.7-0.6-3.1-1.9-3.1c-1.3,0-1.9,1.2-1.9,3.1c0,1.7,0.6,3.1,1.9,3.1C57.1,113.8,57.7,112.6,57.7,110.7z"/>
	<path fill="#FCD9BE" d="M61,112.9v-5.1h-1.2v-1H61v-2.8h1.2v2.8h1.7v1h-1.7v4.9c0,0.8,0.2,1.2,1,1.2c0.2,0,0.5,0,0.7-0.1v1
		c-0.2,0.1-0.6,0.1-0.9,0.1C61.5,114.7,61,114.2,61,112.9z"/>
	<path fill="#FCD9BE" d="M65,110.7c0-2.7,1.4-4.1,3.1-4.1c1.8,0,3.1,1.4,3.1,4.1c0,2.7-1.4,4.1-3.1,4.1S65,113.4,65,110.7z
		 M70,110.7c0-1.7-0.6-3.1-1.9-3.1c-1.3,0-1.9,1.2-1.9,3.1c0,1.7,0.6,3.1,1.9,3.1C69.4,113.8,70,112.6,70,110.7z"/>
	<path fill="#FCD9BE" d="M73.3,112.9v-5.1h-1.2v-1h1.2v-2.8h1.2v2.8h1.7v1h-1.7v4.9c0,0.8,0.2,1.2,1,1.2c0.2,0,0.5,0,0.7-0.1v1
		c-0.2,0.1-0.6,0.1-0.9,0.1C73.8,114.7,73.3,114.2,73.3,112.9z"/>
	<path fill="#FCD9BE" d="M76.8,117.5l0.2-1c0.2,0,0.6,0.1,1,0.1c0.7,0,1-0.4,1.2-1.2l0.2-0.7l-2.5-8h1.2l1.2,4.1
		c0.3,0.9,0.4,1.5,0.6,2.4h0c0.2-0.9,0.4-1.6,0.7-2.5l1.2-4h1.2l-2.7,8.8c-0.5,1.5-1,2.1-2.3,2.1C77.5,117.7,77,117.6,76.8,117.5z"
		/>
	<path fill="#FCD9BE" d="M84.5,106.7h1.2v1c0.5-0.6,1.2-1.2,2.2-1.2c1.5,0,2.7,1.3,2.7,4.1c0,2.9-1.2,4.1-2.8,4.1
		c-0.9,0-1.6-0.4-2.1-1.1v4h-1.2V106.7z M89.4,110.7c0-2.1-0.7-3.1-1.8-3.1c-0.7,0-1.4,0.5-1.9,1.1v4c0.6,0.7,1.2,1.1,1.9,1.1
		C88.6,113.8,89.4,112.9,89.4,110.7z"/>
	<path fill="#FCD9BE" d="M91.7,110.7c0-2.8,1.5-4.1,3.1-4.1c1.8,0,2.8,1.4,2.8,4.1v0.3h-4.7c0,1.9,0.8,2.9,1.9,2.9
		c0.9,0,1.4-0.5,1.9-1.4l0.8,0.5c-0.6,1.1-1.5,1.9-2.8,1.9C93.1,114.8,91.7,113.5,91.7,110.7z M96.5,110c-0.1-1.4-0.6-2.4-1.7-2.4
		c-0.9,0-1.7,0.7-1.8,2.4H96.5z"/>
	<path fill="#FCD9BE" d="M102.9,109.4c0-1,0.8-1.8,1.8-1.8c1,0,1.8,0.8,1.8,1.8c0,1-0.8,1.8-1.8,1.8
		C103.6,111.2,102.9,110.4,102.9,109.4z"/>
	<path fill="#FCD9BE" d="M112.4,103.6h1.3v11.1h-1.3V103.6z"/>
	<path fill="#FCD9BE" d="M116.3,112.9v-5.1h-1.2v-1h1.2v-2.8h1.2v2.8h1.7v1h-1.7v4.9c0,0.8,0.2,1.2,1,1.2c0.2,0,0.5,0,0.7-0.1v1
		c-0.2,0.1-0.6,0.1-0.9,0.1C116.8,114.7,116.3,114.2,116.3,112.9z"/>
	<path fill="#FCD9BE" d="M120.3,110.7c0-2.8,1.5-4.1,3.1-4.1c1.8,0,2.8,1.4,2.8,4.1v0.3h-4.7c0,1.9,0.8,2.9,1.9,2.9
		c0.9,0,1.4-0.5,1.9-1.4l0.8,0.5c-0.6,1.1-1.5,1.9-2.8,1.9C121.6,114.8,120.3,113.5,120.3,110.7z M125,110c-0.1-1.4-0.6-2.4-1.7-2.4
		c-0.9,0-1.7,0.7-1.8,2.4H125z"/>
	<path fill="#FCD9BE" d="M127.7,106.7h1.2v1.4h0c0.4-0.8,1.3-1.5,2.5-1.5h0.2l-0.1,1.1c0,0-0.2,0-0.3,0c-1,0-1.9,0.7-2.3,1.6v5.3
		h-1.2V106.7z"/>
	<path fill="#FCD9BE" d="M132.5,112.8c0-1.6,1.3-2.7,4.4-3.3V109c0-0.9-0.4-1.3-1.2-1.3c-1,0-1.7,0.5-2.3,1.1l-0.7-0.7
		c0.8-0.8,1.9-1.4,3.1-1.4c1.5,0,2.2,0.9,2.2,2.4v3.8c0,1,0,1.5,0.2,2h-1.2c-0.1-0.3-0.2-0.6-0.2-1c-0.6,0.7-1.5,1.1-2.5,1.1
		C133.2,114.8,132.5,114,132.5,112.8z M136.9,112.7v-2.4c-2.4,0.5-3.2,1.4-3.2,2.3c0,0.8,0.4,1.2,1.1,1.2
		C135.6,113.8,136.4,113.3,136.9,112.7z"/>
	<path fill="#FCD9BE" d="M140.4,112.9v-5.1h-1.2v-1h1.2v-2.8h1.2v2.8h1.7v1h-1.7v4.9c0,0.8,0.2,1.2,1.1,1.2c0.2,0,0.5,0,0.7-0.1v1
		c-0.2,0.1-0.6,0.1-0.9,0.1C141,114.7,140.4,114.2,140.4,112.9z"/>
	<path fill="#FCD9BE" d="M144.5,110.7c0-2.8,1.5-4.1,3.1-4.1c1.8,0,2.8,1.4,2.8,4.1v0.3h-4.7c0,1.9,0.8,2.9,1.9,2.9
		c0.9,0,1.4-0.5,1.9-1.4l0.8,0.5c-0.6,1.1-1.5,1.9-2.8,1.9C145.8,114.8,144.5,113.5,144.5,110.7z M149.2,110
		c-0.1-1.4-0.6-2.4-1.7-2.4c-0.9,0-1.7,0.7-1.8,2.4H149.2z"/>
	<path fill="#FCD9BE" d="M155.6,109.4c0-1,0.8-1.8,1.8-1.8c1,0,1.8,0.8,1.8,1.8c0,1-0.8,1.8-1.8,1.8
		C156.4,111.2,155.6,110.4,155.6,109.4z"/>
	<path fill="#FCD9BE" d="M165,103.6h2.4c3.1,0,4.7,1.6,4.7,5.5c0,3.9-1.7,5.6-4.7,5.6H165V103.6z M167.6,113.5
		c2.2,0,3.3-1.3,3.3-4.4c0-3-1-4.4-3.3-4.4h-1.3v8.8H167.6z"/>
	<path fill="#FCD9BE" d="M173.4,110.7c0-2.8,1.5-4.1,3.1-4.1c1.8,0,2.8,1.4,2.8,4.1v0.3h-4.7c0,1.9,0.8,2.9,1.9,2.9
		c0.9,0,1.4-0.5,1.9-1.4l0.8,0.5c-0.6,1.1-1.5,1.9-2.8,1.9C174.7,114.8,173.4,113.5,173.4,110.7z M178.1,110
		c-0.1-1.4-0.6-2.4-1.7-2.4c-0.9,0-1.7,0.7-1.8,2.4H178.1z"/>
	<path fill="#FCD9BE" d="M180.2,113.2l0.8-0.6c0.5,0.8,1.3,1.2,2.1,1.2c1,0,1.6-0.4,1.6-1.2c0-2-4.1-1.2-4.1-4c0-1.3,1-2.1,2.5-2.1
		c1.2,0,2,0.6,2.6,1.4l-0.8,0.6c-0.4-0.6-1-1.1-1.8-1.1c-0.9,0-1.3,0.5-1.3,1.1c0,2,4.1,1.1,4.1,4c0,1.4-1.2,2.2-2.7,2.2
		C181.8,114.8,180.8,114.2,180.2,113.2z"/>
	<path fill="#FCD9BE" d="M187.4,103.9h1.2v1.3h-1.2V103.9z M187.4,106.7h1.2v7.9h-1.2V106.7z"/>
	<path fill="#FCD9BE" d="M196.7,106.6v1.1c-0.4,0-0.8,0-1.2,0.2c0.2,0.4,0.4,0.9,0.4,1.5c0,1.8-1.1,2.8-2.7,2.8
		c-0.4,0-0.8-0.1-1.1-0.2c-0.3,0.1-0.4,0.3-0.4,0.6c0,0.3,0.2,0.4,0.9,0.5l1.2,0.2c1.9,0.2,2.7,0.8,2.7,2c0,1.4-1.5,2.2-3.4,2.2
		c-2.3,0-3.1-0.7-3.1-1.9c0-0.8,0.5-1.4,1.3-1.8c-0.4-0.2-0.7-0.5-0.7-1c0-0.5,0.4-0.9,0.9-1.2c-0.7-0.5-1-1.3-1-2.3
		c0-1.7,1.2-2.9,2.8-2.9c0.8,0,1.5,0.3,2,0.8C195.6,107,196.2,106.7,196.7,106.6z M191.1,115.6c0,0.8,0.5,1.2,2.1,1.2
		c1.3,0,2.2-0.5,2.2-1.2c0-0.6-0.4-1-1.8-1.2l-1.3-0.2c-0.1,0-0.2,0-0.2,0C191.4,114.5,191.1,115,191.1,115.6z M194.7,109.4
		c0-1.2-0.6-1.9-1.6-1.9c-1,0-1.6,0.8-1.6,1.9c0,1.2,0.6,1.9,1.6,1.9C194.2,111.4,194.7,110.6,194.7,109.4z"/>
	<path fill="#FCD9BE" d="M198.1,106.7h1.2v1.1c0.5-0.6,1.5-1.3,2.5-1.3c1.3,0,2,0.8,2,2.2v5.9h-1.2V109c0-0.9-0.3-1.4-1.1-1.4
		c-0.8,0-1.6,0.6-2.1,1.1v5.9h-1.2V106.7z"/>
	<path fill="#FCD9BE" d="M209.3,109.4c0-1,0.8-1.8,1.8-1.8c1,0,1.8,0.8,1.8,1.8c0,1-0.8,1.8-1.8,1.8
		C210.1,111.2,209.3,110.4,209.3,109.4z"/>
	<path fill="#FCD9BE" d="M218.2,109.1c0-3.7,1.6-5.7,4-5.7c2.1,0,3,1.5,3.4,3.5l-1.2,0.2c-0.3-1.7-1-2.6-2.3-2.6
		c-1.7,0-2.7,1.7-2.7,4.6c0,3,1,4.7,2.7,4.7c1.3,0,2-0.8,2.4-2.7l1.2,0.2c-0.4,2.1-1.5,3.6-3.6,3.6
		C219.7,114.8,218.2,112.9,218.2,109.1z"/>
	<path fill="#FCD9BE" d="M226.9,110.7c0-2.7,1.4-4.1,3.1-4.1c1.8,0,3.1,1.4,3.1,4.1c0,2.7-1.4,4.1-3.1,4.1S226.9,113.4,226.9,110.7z
		 M232,110.7c0-1.7-0.6-3.1-1.9-3.1c-1.3,0-1.9,1.2-1.9,3.1c0,1.7,0.6,3.1,1.9,3.1C231.3,113.8,232,112.6,232,110.7z"/>
	<path fill="#FCD9BE" d="M234.4,110.7c0-2.9,1.2-4.1,2.7-4.1c0.9,0,1.6,0.5,2.1,1.1v-4.1h1.2v9.1c0,1,0,1.5,0.2,2h-1.2
		c-0.1-0.3-0.2-0.8-0.2-1c-0.5,0.6-1.2,1.2-2.2,1.2C235.5,114.8,234.4,113.6,234.4,110.7z M239.2,112.7v-4c-0.6-0.7-1.2-1.1-1.9-1.1
		c-1.1,0-1.8,0.9-1.8,3.1c0,2.1,0.7,3,1.8,3C238.1,113.8,238.7,113.3,239.2,112.7z"/>
	<path fill="#FCD9BE" d="M242,110.7c0-2.8,1.5-4.1,3.1-4.1c1.8,0,2.8,1.4,2.8,4.1v0.3h-4.7c0,1.9,0.8,2.9,1.9,2.9
		c0.9,0,1.4-0.5,1.9-1.4l0.8,0.5c-0.6,1.1-1.5,1.9-2.8,1.9C243.3,114.8,242,113.5,242,110.7z M246.7,110c-0.1-1.4-0.6-2.4-1.7-2.4
		c-0.9,0-1.7,0.7-1.8,2.4H246.7z"/>
</g>
<g>
	<g>
		<g>
			<path fill="#FCD9BE" d="M17.1,165.8c1.6,0.3,2.8,1.3,2.8,3.1c0,2.1-1.7,3.6-4.3,3.6c-1.5,0-3.2-0.5-4.2-1.4l1.2-2.2
				c0.8,0.9,1.8,1.4,2.8,1.4c1.1,0,1.7-0.5,1.7-1.5c0-0.9-0.6-1.4-1.7-1.4h-1.8v-1.5l2.5-2.6H12v-2.2h7.4v1.6l-2.8,2.9L17.1,165.8z"
				/>
			<path fill="#FCD9BE" d="M25.2,171.1c0,0.8-0.6,1.3-1.3,1.3c-0.8,0-1.3-0.5-1.3-1.3c0-0.8,0.5-1.3,1.3-1.3
				C24.7,169.8,25.2,170.3,25.2,171.1z"/>
			<path fill="#FCD9BE" d="M38.7,161.1c3.5,0,6,2.3,6,5.6c0,3.3-2.5,5.6-6.1,5.6h-4.7v-11.2H38.7z M36.7,170.1h2c1.7,0,3-1.3,3-3.3
				c0-2-1.3-3.3-3.1-3.3h-1.9V170.1z"/>
			<path fill="#FCD9BE" d="M50.6,163.4v2.2H56v2.2h-5.3v2.3h6.1v2.2h-8.9v-11.2h8.8v2.2H50.6z"/>
			<path fill="#FCD9BE" d="M67.7,169.9v2.4h-7.6v-11.2H63v8.8H67.7z"/>
			<path fill="#FCD9BE" d="M70.7,172.3v-11.2h2.8v11.2H70.7z"/>
			<path fill="#FCD9BE" d="M80.6,172.3l-4.4-11.2h3l2.9,8.2l2.9-8.2H88l-4.4,11.2H80.6z"/>
			<path fill="#FCD9BE" d="M93.5,163.4v2.2h5.3v2.2h-5.3v2.3h6.1v2.2h-8.9v-11.2h8.8v2.2H93.5z"/>
			<path fill="#FCD9BE" d="M108.1,169.2L108.1,169.2h-2.2v3.2H103v-11.2h5c3,0,4.7,1.4,4.7,3.9c0,1.7-0.7,2.9-2,3.6l2.4,3.7h-3.2
				L108.1,169.2z M108.1,166.9c1.2,0,2-0.6,2-1.8c0-1.2-0.7-1.8-2-1.8h-2.2v3.6H108.1z"/>
			<path fill="#FCD9BE" d="M121.9,172.3h-2.8v-3.5l-4.1-7.7h2.8l2.7,4.9l2.6-4.9h2.8l-4.1,7.6V172.3z"/>
		</g>
	</g>
	<g>
		<path fill="#FCD9BE" d="M38.9,187.2H36v-1.2h7v1.2h-2.9v9.9h-1.3V187.2z"/>
		<path fill="#FCD9BE" d="M44,193.2c0-2.8,1.5-4.1,3.1-4.1c1.8,0,2.8,1.4,2.8,4.1v0.3h-4.7c0,1.9,0.8,2.9,1.9,2.9
			c0.9,0,1.4-0.5,1.9-1.4l0.8,0.5c-0.6,1.1-1.5,1.9-2.8,1.9C45.3,197.3,44,196,44,193.2z M48.8,192.5c-0.1-1.4-0.6-2.4-1.7-2.4
			c-0.9,0-1.7,0.7-1.8,2.4H48.8z"/>
		<path fill="#FCD9BE" d="M50.8,195.7l0.8-0.6c0.5,0.8,1.3,1.2,2.1,1.2c1,0,1.6-0.4,1.6-1.2c0-2-4.1-1.2-4.1-4c0-1.3,1-2.1,2.5-2.1
			c1.2,0,2,0.6,2.6,1.4l-0.8,0.6c-0.4-0.6-1-1.1-1.8-1.1c-0.9,0-1.3,0.5-1.3,1.1c0,2,4.1,1.1,4.1,4c0,1.4-1.2,2.2-2.7,2.2
			C52.4,197.3,51.4,196.7,50.8,195.7z"/>
		<path fill="#FCD9BE" d="M58.5,195.4v-5.1h-1.2v-1h1.2v-2.8h1.2v2.8h1.7v1h-1.7v4.9c0,0.8,0.2,1.2,1,1.2c0.2,0,0.5,0,0.7-0.1v1
			c-0.2,0.1-0.6,0.1-0.9,0.1C59,197.2,58.5,196.7,58.5,195.4z"/>
		<path fill="#FCD9BE" d="M66.6,191.9c0-1,0.8-1.8,1.8-1.8c1,0,1.8,0.8,1.8,1.8c0,1-0.8,1.8-1.8,1.8
			C67.3,193.7,66.6,192.9,66.6,191.9z"/>
		<path fill="#FCD9BE" d="M75.2,186.1h1.3l1.7,6c0.4,1.3,0.6,2.3,0.9,3.4h0c0.3-1.1,0.6-2.1,0.9-3.3l1.7-6h1.2l-3.2,11.1h-1.2
			L75.2,186.1z"/>
		<path fill="#FCD9BE" d="M83.7,195.3c0-1.6,1.3-2.7,4.4-3.3v-0.5c0-0.9-0.4-1.3-1.2-1.3c-1,0-1.7,0.5-2.3,1.1l-0.7-0.7
			c0.8-0.8,1.9-1.4,3.1-1.4c1.5,0,2.2,0.9,2.2,2.4v3.8c0,1,0,1.5,0.2,2h-1.2c-0.1-0.3-0.2-0.6-0.2-1c-0.6,0.7-1.5,1.1-2.5,1.1
			C84.4,197.3,83.7,196.5,83.7,195.3z M88.2,195.2v-2.4c-2.4,0.5-3.2,1.4-3.2,2.3c0,0.8,0.4,1.2,1.1,1.2
			C86.9,196.3,87.6,195.8,88.2,195.2z"/>
		<path fill="#FCD9BE" d="M91.3,186.1h1.2v11.1h-1.2V186.1z"/>
		<path fill="#FCD9BE" d="M94.6,186.4h1.2v1.3h-1.2V186.4z M94.6,189.2h1.2v7.9h-1.2V189.2z"/>
		<path fill="#FCD9BE" d="M97.5,193.2c0-2.9,1.2-4.1,2.7-4.1c0.9,0,1.6,0.5,2.1,1.1v-4.1h1.2v9.1c0,1,0,1.5,0.2,2h-1.2
			c-0.1-0.3-0.2-0.8-0.2-1c-0.5,0.6-1.2,1.2-2.2,1.2C98.6,197.3,97.5,196.1,97.5,193.2z M102.3,195.2v-4c-0.6-0.7-1.2-1.1-1.9-1.1
			c-1.1,0-1.8,0.9-1.8,3.1c0,2.1,0.7,3,1.8,3C101.2,196.3,101.8,195.8,102.3,195.2z"/>
		<path fill="#FCD9BE" d="M105,195.3c0-1.6,1.3-2.7,4.4-3.3v-0.5c0-0.9-0.4-1.3-1.2-1.3c-1,0-1.7,0.5-2.3,1.1l-0.7-0.7
			c0.8-0.8,1.9-1.4,3.1-1.4c1.5,0,2.2,0.9,2.2,2.4v3.8c0,1,0,1.5,0.2,2h-1.2c-0.1-0.3-0.2-0.6-0.2-1c-0.6,0.7-1.5,1.1-2.5,1.1
			C105.7,197.3,105,196.5,105,195.3z M109.4,195.2v-2.4c-2.4,0.5-3.2,1.4-3.2,2.3c0,0.8,0.4,1.2,1.1,1.2
			C108.1,196.3,108.9,195.8,109.4,195.2z"/>
		<path fill="#FCD9BE" d="M113,195.4v-5.1h-1.2v-1h1.2v-2.8h1.2v2.8h1.7v1h-1.7v4.9c0,0.8,0.2,1.2,1.1,1.2c0.2,0,0.5,0,0.7-0.1v1
			c-0.2,0.1-0.6,0.1-0.9,0.1C113.5,197.2,113,196.7,113,195.4z"/>
		<path fill="#FCD9BE" d="M117,193.2c0-2.8,1.5-4.1,3.1-4.1c1.8,0,2.8,1.4,2.8,4.1v0.3h-4.7c0,1.9,0.8,2.9,1.9,2.9
			c0.9,0,1.4-0.5,1.9-1.4l0.8,0.5c-0.6,1.1-1.5,1.9-2.8,1.9C118.3,197.3,117,196,117,193.2z M121.7,192.5c-0.1-1.4-0.6-2.4-1.7-2.4
			c-0.9,0-1.7,0.7-1.8,2.4H121.7z"/>
		<path fill="#FCD9BE" d="M128.1,191.9c0-1,0.8-1.8,1.8-1.8c1,0,1.8,0.8,1.8,1.8c0,1-0.8,1.8-1.8,1.8
			C128.9,193.7,128.1,192.9,128.1,191.9z"/>
		<path fill="#FCD9BE" d="M137.5,186.1h1.3v10h4.4v1.1h-5.7V186.1z"/>
		<path fill="#FCD9BE" d="M144.2,195.3c0-1.6,1.3-2.7,4.4-3.3v-0.5c0-0.9-0.4-1.3-1.2-1.3c-1,0-1.7,0.5-2.3,1.1l-0.7-0.7
			c0.8-0.8,1.9-1.4,3.1-1.4c1.5,0,2.2,0.9,2.2,2.4v3.8c0,1,0,1.5,0.2,2h-1.2c-0.1-0.3-0.2-0.6-0.2-1c-0.6,0.7-1.5,1.1-2.5,1.1
			C144.9,197.3,144.2,196.5,144.2,195.3z M148.6,195.2v-2.4c-2.4,0.5-3.2,1.4-3.2,2.3c0,0.8,0.4,1.2,1.1,1.2
			C147.3,196.3,148.1,195.8,148.6,195.2z"/>
		<path fill="#FCD9BE" d="M151.6,195.1v-5.9h1.2v5.7c0,0.9,0.3,1.4,1.2,1.4c0.8,0,1.4-0.5,2.1-1.1v-5.9h1.2v7.9h-1.2v-1.1
			c-0.6,0.7-1.5,1.3-2.5,1.3C152.3,197.3,151.6,196.6,151.6,195.1z"/>
		<path fill="#FCD9BE" d="M159.2,189.2h1.2v1.1c0.5-0.6,1.5-1.3,2.5-1.3c1.3,0,1.9,0.8,1.9,2.2v5.9h-1.2v-5.6c0-0.9-0.3-1.4-1.1-1.4
			c-0.8,0-1.6,0.6-2.1,1.1v5.9h-1.2V189.2z"/>
		<path fill="#FCD9BE" d="M166.4,193.2c0-2.8,1.4-4.1,3.1-4.1c1.6,0,2.3,1.1,2.7,2.4l-1.1,0.3c-0.3-1-0.7-1.6-1.6-1.6
			c-1,0-1.8,0.9-1.8,3.1c0,1.9,0.7,3.1,1.8,3.1c0.8,0,1.4-0.5,1.7-1.6l1.1,0.3c-0.4,1.5-1.3,2.4-2.8,2.4
			C167.7,197.3,166.4,195.9,166.4,193.2z"/>
		<path fill="#FCD9BE" d="M173.6,186.1h1.2v4.3c0.5-0.6,1.5-1.3,2.5-1.3c1.3,0,2,0.8,2,2.2v5.9H178v-5.6c0-0.9-0.3-1.4-1.1-1.4
			c-0.8,0-1.6,0.6-2.1,1.1v5.9h-1.2V186.1z"/>
		<path fill="#FCD9BE" d="M184.8,191.9c0-1,0.8-1.8,1.8-1.8c1,0,1.8,0.8,1.8,1.8c0,1-0.8,1.8-1.8,1.8
			C185.6,193.7,184.8,192.9,184.8,191.9z"/>
		<path fill="#FCD9BE" d="M193.5,194.7l1.1-0.5c0.5,1.2,1.3,2,2.6,2c1.3,0,2.1-0.7,2.1-1.8c0-1.3-1.1-1.8-2.3-2.4
			c-1.4-0.7-3-1.4-3-3.4c0-1.6,1.3-2.8,3-2.8c1.8,0,2.8,1.1,3.3,2.3l-1.1,0.5c-0.4-0.9-1-1.8-2.2-1.8c-1,0-1.8,0.7-1.8,1.6
			c0,1.3,1.1,1.8,2.2,2.4c1.4,0.7,3,1.4,3,3.4c0,1.6-1.3,2.9-3.3,2.9C195.4,197.3,194.2,196.3,193.5,194.7z"/>
		<path fill="#FCD9BE" d="M202.2,195.1v-5.9h1.2v5.7c0,0.9,0.3,1.4,1.2,1.4c0.8,0,1.4-0.5,2.1-1.1v-5.9h1.2v7.9h-1.2v-1.1
			c-0.6,0.7-1.5,1.3-2.5,1.3C202.8,197.3,202.2,196.6,202.2,195.1z"/>
		<path fill="#FCD9BE" d="M209.7,189.2h1.2v1c0.5-0.6,1.2-1.2,2.2-1.2c1.5,0,2.7,1.3,2.7,4.1c0,2.9-1.2,4.1-2.8,4.1
			c-0.9,0-1.6-0.4-2.1-1.1v4h-1.2V189.2z M214.6,193.2c0-2.1-0.7-3.1-1.8-3.1c-0.7,0-1.4,0.5-1.9,1.1v4c0.6,0.7,1.2,1.1,1.9,1.1
			C213.9,196.3,214.6,195.4,214.6,193.2z"/>
		<path fill="#FCD9BE" d="M217.4,189.2h1.2v1c0.5-0.6,1.2-1.2,2.2-1.2c1.5,0,2.7,1.3,2.7,4.1c0,2.9-1.2,4.1-2.8,4.1
			c-0.9,0-1.6-0.4-2.1-1.1v4h-1.2V189.2z M222.2,193.2c0-2.1-0.7-3.1-1.8-3.1c-0.7,0-1.4,0.5-1.9,1.1v4c0.6,0.7,1.2,1.1,1.9,1.1
			C221.5,196.3,222.2,195.4,222.2,193.2z"/>
		<path fill="#FCD9BE" d="M224.6,193.2c0-2.7,1.4-4.1,3.1-4.1c1.8,0,3.1,1.4,3.1,4.1c0,2.7-1.4,4.1-3.1,4.1
			C226,197.3,224.6,195.9,224.6,193.2z M229.7,193.2c0-1.7-0.6-3.1-1.9-3.1c-1.3,0-1.9,1.2-1.9,3.1c0,1.7,0.6,3.1,1.9,3.1
			C229,196.3,229.7,195.1,229.7,193.2z"/>
		<path fill="#FCD9BE" d="M232.4,189.2h1.2v1.4h0c0.5-0.8,1.3-1.5,2.5-1.5h0.2l-0.1,1.1c0,0-0.2,0-0.3,0c-1,0-1.9,0.7-2.3,1.6v5.3
			h-1.2V189.2z"/>
		<path fill="#FCD9BE" d="M238.1,195.4v-5.1h-1.2v-1h1.2v-2.8h1.2v2.8h1.7v1h-1.7v4.9c0,0.8,0.2,1.2,1,1.2c0.2,0,0.5,0,0.7-0.1v1
			c-0.2,0.1-0.6,0.1-0.9,0.1C238.6,197.2,238.1,196.7,238.1,195.4z"/>
	</g>
</g>
</svg>
