<?xml version="1.0" encoding="utf-8"?>
<!-- Generator: Adobe Illustrator 17.1.0, SVG Export Plug-In . SVG Version: 6.00 Build 0)  -->
<!DOCTYPE svg PUBLIC "-//W3C//DTD SVG 1.1//EN" "http://www.w3.org/Graphics/SVG/1.1/DTD/svg11.dtd">
<svg version="1.1" id="Layer_1" xmlns="http://www.w3.org/2000/svg" xmlns:xlink="http://www.w3.org/1999/xlink" x="0px" y="0px"
	 viewBox="0 0 289.7 204.3" enable-background="new 0 0 289.7 204.3" xml:space="preserve">
<line fill="none" stroke="#FBD8BE" stroke-linecap="round" stroke-linejoin="round" stroke-miterlimit="10" stroke-dasharray="1,6" x1="0.5" y1="61.3" x2="280.8" y2="61.3"/>
<g>
	<g>
		<g>
			<path fill="#FCD9BE" d="M13.6,13.6V4.7h-2.1V2.4h4.9v11.2H13.6z"/>
			<path fill="#FCD9BE" d="M22.9,12.4c0,0.8-0.6,1.3-1.3,1.3c-0.8,0-1.3-0.5-1.3-1.3c0-0.8,0.5-1.3,1.3-1.3
				C22.4,11.1,22.9,11.6,22.9,12.4z"/>
			<path fill="#FCD9BE" d="M41.7,2.4c3.5,0,6,2.3,6,5.6c0,3.3-2.5,5.6-6.1,5.6h-4.7V2.4H41.7z M39.7,11.3h2c1.7,0,3-1.3,3-3.3
				c0-2-1.3-3.3-3.1-3.3h-1.9V11.3z"/>
			<path fill="#FCD9BE" d="M50.7,13.6V2.4h2.8v11.2H50.7z"/>
			<path fill="#FCD9BE" d="M66.1,3.5l-1.1,2.2c-1.2-0.7-2.7-1.2-3.6-1.2c-0.7,0-1.2,0.3-1.2,0.8c0,1.9,5.9,0.8,5.9,4.9
				c0,2.2-2,3.4-4.5,3.4c-1.9,0-3.8-0.7-5.1-1.8l1.1-2.2c1.2,1,2.9,1.7,4,1.7c0.9,0,1.5-0.3,1.5-1c0-2-5.9-0.8-5.9-4.8
				c0-2.1,1.8-3.4,4.5-3.4C63.3,2.3,65,2.8,66.1,3.5z"/>
			<path fill="#FCD9BE" d="M79.1,4.2l-1.6,2c-0.7-0.9-1.8-1.5-2.8-1.5c-1.8,0-3.1,1.4-3.1,3.2c0,1.9,1.3,3.3,3.1,3.3
				c0.9,0,2-0.5,2.8-1.3l1.7,1.8c-1.2,1.2-3,2-4.6,2c-3.4,0-5.9-2.5-5.9-5.8c0-3.2,2.6-5.7,6-5.7C76.2,2.3,78,3,79.1,4.2z"/>
			<path fill="#FCD9BE" d="M93.2,8c0,3.3-2.6,5.7-6.1,5.7c-3.5,0-6.1-2.5-6.1-5.7c0-3.3,2.6-5.7,6.1-5.7C90.6,2.3,93.2,4.7,93.2,8z
				 M84,8c0,1.9,1.5,3.3,3.2,3.3c1.7,0,3.1-1.5,3.1-3.3c0-1.9-1.4-3.3-3.1-3.3C85.4,4.7,84,6.1,84,8z"/>
			<path fill="#FCD9BE" d="M99.3,13.6L95,2.4h3l2.9,8.2l2.9-8.2h2.9l-4.4,11.2H99.3z"/>
			<path fill="#FCD9BE" d="M112.2,4.6v2.2h5.3v2.2h-5.3v2.3h6.1v2.2h-8.9V2.4h8.8v2.2H112.2z"/>
			<path fill="#FCD9BE" d="M126.9,10.5L126.9,10.5h-2.2v3.2h-2.8V2.4h5c3,0,4.7,1.4,4.7,3.9c0,1.7-0.7,2.9-2,3.6l2.4,3.7h-3.2
				L126.9,10.5z M126.8,8.2c1.2,0,2-0.6,2-1.8c0-1.2-0.7-1.8-2-1.8h-2.2v3.6H126.8z"/>
			<path fill="#FCD9BE" d="M140.6,13.6h-2.8v-3.5l-4.1-7.7h2.8l2.7,4.9l2.6-4.9h2.8l-4.1,7.6V13.6z"/>
		</g>
	</g>
	<g>
		<path fill="#FCD9BE" d="M36.8,23.3h3.1c2.1,0,3.4,1,3.4,3.2c0,1.8-1,2.7-2.1,3l2.2,5h-1.3L40,29.7h-2v4.7h-1.2V23.3z M39.9,28.6
			c1.5,0,2.2-0.6,2.2-2.1c0-1.5-0.8-2-2.2-2H38v4.1H39.9z"/>
		<path fill="#FCD9BE" d="M44.8,30.5c0-2.8,1.5-4.1,3.1-4.1c1.8,0,2.8,1.4,2.8,4.1v0.3H46c0,1.9,0.8,2.9,1.9,2.9
			c0.9,0,1.4-0.5,1.9-1.4l0.8,0.5c-0.6,1.1-1.5,1.9-2.8,1.9C46.1,34.6,44.8,33.2,44.8,30.5z M49.5,29.8c-0.1-1.4-0.6-2.4-1.7-2.4
			c-0.9,0-1.7,0.7-1.8,2.4H49.5z"/>
		<path fill="#FCD9BE" d="M51.6,33l0.8-0.6c0.5,0.8,1.3,1.2,2.1,1.2c1,0,1.6-0.4,1.6-1.2c0-2-4.1-1.2-4.1-4c0-1.3,1-2.1,2.5-2.1
			c1.2,0,2,0.6,2.6,1.4l-0.8,0.6c-0.4-0.6-1-1.1-1.8-1.1c-0.9,0-1.3,0.5-1.3,1.1c0,2,4.1,1.1,4.1,4c0,1.4-1.2,2.2-2.7,2.2
			C53.1,34.6,52.2,34,51.6,33z"/>
		<path fill="#FCD9BE" d="M58.4,30.5c0-2.8,1.5-4.1,3.1-4.1c1.8,0,2.8,1.4,2.8,4.1v0.3h-4.7c0,1.9,0.8,2.9,1.9,2.9
			c0.9,0,1.4-0.5,1.9-1.4l0.8,0.5c-0.6,1.1-1.5,1.9-2.8,1.9C59.7,34.6,58.4,33.2,58.4,30.5z M63.1,29.8c-0.1-1.4-0.6-2.4-1.7-2.4
			c-0.9,0-1.7,0.7-1.8,2.4H63.1z"/>
		<path fill="#FCD9BE" d="M65.4,32.6c0-1.6,1.3-2.7,4.4-3.3v-0.5c0-0.9-0.4-1.3-1.2-1.3c-1,0-1.7,0.5-2.3,1.1l-0.7-0.7
			c0.8-0.8,1.9-1.4,3.1-1.4c1.5,0,2.2,0.9,2.2,2.4v3.8c0,1,0,1.5,0.2,2H70c-0.1-0.3-0.2-0.6-0.2-1c-0.6,0.7-1.5,1.1-2.5,1.1
			C66.1,34.5,65.4,33.8,65.4,32.6z M69.8,32.5v-2.4c-2.4,0.5-3.2,1.4-3.2,2.3c0,0.8,0.4,1.2,1.1,1.2C68.5,33.5,69.2,33.1,69.8,32.5z
			"/>
		<path fill="#FCD9BE" d="M72.9,26.5h1.2v1.4h0c0.4-0.8,1.3-1.5,2.5-1.5h0.2l-0.1,1.1c0,0-0.2,0-0.3,0c-1,0-1.9,0.7-2.3,1.6v5.3
			h-1.2V26.5z"/>
		<path fill="#FCD9BE" d="M77.7,30.5c0-2.8,1.4-4.1,3.1-4.1c1.6,0,2.3,1.1,2.7,2.4L82.3,29c-0.3-1-0.7-1.6-1.6-1.6
			c-1,0-1.8,0.9-1.8,3.1c0,1.9,0.7,3.1,1.8,3.1c0.8,0,1.4-0.5,1.7-1.6l1.1,0.3c-0.4,1.5-1.3,2.4-2.8,2.4
			C79,34.6,77.7,33.2,77.7,30.5z"/>
		<path fill="#FCD9BE" d="M84.9,23.3h1.2v4.3c0.5-0.6,1.5-1.3,2.5-1.3c1.3,0,2,0.8,2,2.2v5.9h-1.2v-5.6c0-0.9-0.3-1.4-1.1-1.4
			c-0.8,0-1.6,0.6-2.1,1.1v5.9h-1.2V23.3z"/>
		<path fill="#FCD9BE" d="M96.1,29.2c0-1,0.8-1.8,1.8-1.8c1,0,1.8,0.8,1.8,1.8c0,1-0.8,1.8-1.8,1.8C96.9,30.9,96.1,30.2,96.1,29.2z"
			/>
		<path fill="#FCD9BE" d="M105.5,23.3h2.4c3.1,0,4.7,1.6,4.7,5.5c0,3.9-1.7,5.6-4.7,5.6h-2.4V23.3z M108.1,33.3
			c2.2,0,3.3-1.3,3.3-4.4c0-3-1-4.4-3.3-4.4h-1.3v8.8H108.1z"/>
		<path fill="#FCD9BE" d="M113.9,30.5c0-2.8,1.5-4.1,3.1-4.1c1.8,0,2.8,1.4,2.8,4.1v0.3h-4.7c0,1.9,0.8,2.9,1.9,2.9
			c0.9,0,1.4-0.5,1.9-1.4l0.8,0.5c-0.6,1.1-1.5,1.9-2.8,1.9C115.2,34.6,113.9,33.2,113.9,30.5z M118.7,29.8
			c-0.1-1.4-0.6-2.4-1.7-2.4c-0.9,0-1.7,0.7-1.8,2.4H118.7z"/>
		<path fill="#FCD9BE" d="M121.9,27.5h-1.2v-1h1.2v-1.2c0-1.3,0.7-2,2.2-2c0.1,0,0.6,0,0.6,0v1c0,0-0.4,0-0.5,0
			c-0.6,0-1.1,0.2-1.1,1v1.2h1.5v1h-1.5v6.9h-1.2V27.5z"/>
		<path fill="#FCD9BE" d="M125.9,23.6h1.2v1.3h-1.2V23.6z M125.9,26.5h1.2v7.9h-1.2V26.5z"/>
		<path fill="#FCD9BE" d="M129.1,26.5h1.2v1.1c0.5-0.6,1.5-1.3,2.5-1.3c1.3,0,2,0.8,2,2.2v5.9h-1.2v-5.6c0-0.9-0.3-1.4-1.1-1.4
			c-0.8,0-1.6,0.6-2.1,1.1v5.9h-1.2V26.5z"/>
		<path fill="#FCD9BE" d="M136.3,30.5c0-2.8,1.5-4.1,3.1-4.1c1.8,0,2.8,1.4,2.8,4.1v0.3h-4.7c0,1.9,0.8,2.9,1.9,2.9
			c0.9,0,1.4-0.5,1.9-1.4l0.8,0.5c-0.6,1.1-1.5,1.9-2.8,1.9C137.6,34.6,136.3,33.2,136.3,30.5z M141,29.8c-0.1-1.4-0.6-2.4-1.7-2.4
			c-0.9,0-1.7,0.7-1.8,2.4H141z"/>
		<path fill="#FCD9BE" d="M147.4,29.2c0-1,0.8-1.8,1.8-1.8c1,0,1.8,0.8,1.8,1.8c0,1-0.8,1.8-1.8,1.8
			C148.2,30.9,147.4,30.2,147.4,29.2z"/>
		<path fill="#FCD9BE" d="M156.3,28.8c0-3.7,1.6-5.7,4-5.7c2.1,0,3,1.5,3.4,3.5l-1.2,0.2c-0.3-1.7-1-2.6-2.3-2.6
			c-1.7,0-2.7,1.7-2.7,4.6c0,3,1,4.7,2.7,4.7c1.3,0,2-0.8,2.4-2.7l1.2,0.2c-0.4,2.1-1.5,3.6-3.6,3.6
			C157.8,34.6,156.3,32.7,156.3,28.8z"/>
		<path fill="#FCD9BE" d="M165,30.5c0-2.7,1.4-4.1,3.1-4.1c1.8,0,3.1,1.4,3.1,4.1c0,2.7-1.4,4.1-3.1,4.1S165,33.2,165,30.5z
			 M170.1,30.5c0-1.7-0.6-3.1-1.9-3.1c-1.3,0-1.9,1.2-1.9,3.1c0,1.7,0.6,3.1,1.9,3.1C169.4,33.6,170.1,32.3,170.1,30.5z"/>
		<path fill="#FCD9BE" d="M172.8,26.5h1.2v1.1c0.5-0.6,1.5-1.3,2.5-1.3c1.3,0,2,0.8,2,2.2v5.9h-1.2v-5.6c0-0.9-0.3-1.4-1.1-1.4
			c-0.8,0-1.6,0.6-2.1,1.1v5.9h-1.2V26.5z"/>
		<path fill="#FCD9BE" d="M180,30.5c0-2.8,1.4-4.1,3.1-4.1c1.6,0,2.3,1.1,2.7,2.4l-1.1,0.3c-0.3-1-0.7-1.6-1.6-1.6
			c-1,0-1.8,0.9-1.8,3.1c0,1.9,0.7,3.1,1.8,3.1c0.8,0,1.4-0.5,1.7-1.6l1.1,0.3c-0.4,1.5-1.3,2.4-2.8,2.4
			C181.3,34.6,180,33.2,180,30.5z"/>
		<path fill="#FCD9BE" d="M186.8,30.5c0-2.8,1.5-4.1,3.1-4.1c1.8,0,2.8,1.4,2.8,4.1v0.3H188c0,1.9,0.8,2.9,1.9,2.9
			c0.9,0,1.4-0.5,1.9-1.4l0.8,0.5c-0.6,1.1-1.5,1.9-2.8,1.9C188.1,34.6,186.8,33.2,186.8,30.5z M191.5,29.8
			c-0.1-1.4-0.6-2.4-1.7-2.4c-0.9,0-1.7,0.7-1.8,2.4H191.5z"/>
		<path fill="#FCD9BE" d="M194.2,26.5h1.2v1c0.5-0.6,1.2-1.2,2.2-1.2c1.5,0,2.7,1.3,2.7,4.1c0,2.9-1.2,4.1-2.8,4.1
			c-0.9,0-1.6-0.4-2.1-1.1v4h-1.2V26.5z M199.1,30.5c0-2.1-0.7-3.1-1.8-3.1c-0.7,0-1.4,0.5-1.9,1.1v4c0.6,0.7,1.2,1.1,1.9,1.1
			C198.4,33.5,199.1,32.6,199.1,30.5z"/>
		<path fill="#FCD9BE" d="M202.3,32.6v-5.1h-1.2v-1h1.2v-2.8h1.2v2.8h1.7v1h-1.7v4.9c0,0.8,0.2,1.2,1.1,1.2c0.2,0,0.5,0,0.7-0.1v1
			c-0.2,0.1-0.6,0.1-0.9,0.1C202.9,34.5,202.3,34,202.3,32.6z"/>
	</g>
</g>
<line fill="none" stroke="#FBD8BE" stroke-linecap="round" stroke-linejoin="round" stroke-miterlimit="10" stroke-dasharray="1,6" x1="0.5" y1="142.8" x2="280.8" y2="142.8"/>
<g>
	<g>
		<g>
			<path fill="#FCD9BE" d="M20.2,85.7c0,1.2-0.9,2.5-2.1,3.7l-2.3,2.4h4.7v2.3h-8.4v-1.8l4-4.2c0.6-0.7,1.1-1.4,1.1-1.9
				c0-0.6-0.5-1-1.3-1c-0.9,0-2,0.5-3.1,1.4l-1.1-2c1.4-1.1,2.9-1.7,4.5-1.7C18.6,82.8,20.2,83.9,20.2,85.7z"/>
			<path fill="#FCD9BE" d="M25.9,92.9c0,0.8-0.6,1.3-1.3,1.3c-0.8,0-1.3-0.5-1.3-1.3c0-0.8,0.5-1.3,1.3-1.3
				C25.4,91.6,25.9,92.1,25.9,92.9z"/>
			<path fill="#FCD9BE" d="M37.4,85.1v2.2h5.3v2.2h-5.3v2.3h6.1v2.2h-8.9V82.9h8.8v2.2H37.4z"/>
			<path fill="#FCD9BE" d="M57.5,94.1h-3.4l-2.4-3.6l-2.4,3.6h-3.3l4-5.7l-3.7-5.5h3.3l2.2,3.3l2.2-3.3h3.3l-3.7,5.3L57.5,94.1z"/>
			<path fill="#FCD9BE" d="M63.1,85.1v2.2h5.3v2.2h-5.3v2.3h6.1v2.2h-8.9V82.9h8.8v2.2H63.1z"/>
			<path fill="#FCD9BE" d="M82.4,84.7l-1.6,2c-0.7-0.9-1.8-1.5-2.8-1.5c-1.8,0-3.1,1.4-3.1,3.2c0,1.9,1.3,3.3,3.1,3.3
				c0.9,0,2-0.5,2.8-1.3l1.7,1.8c-1.2,1.2-3,2-4.6,2c-3.4,0-5.9-2.5-5.9-5.8c0-3.2,2.6-5.7,6-5.7C79.6,82.8,81.3,83.5,82.4,84.7z"/>
			<path fill="#FCD9BE" d="M95.4,89.4c0,3-2,4.8-5.1,4.8c-3.2,0-5.2-1.9-5.2-4.8v-6.5H88v6.5c0,1.5,1,2.4,2.3,2.4
				c1.3,0,2.3-0.9,2.3-2.4v-6.5h2.8V89.4z"/>
			<path fill="#FCD9BE" d="M104.3,85.2v8.9h-2.8v-8.9h-3.3v-2.3h9.6v2.3H104.3z"/>
			<path fill="#FCD9BE" d="M110.4,94.1V82.9h2.8v11.2H110.4z"/>
			<path fill="#FCD9BE" d="M128.5,88.5c0,3.3-2.6,5.7-6.1,5.7c-3.5,0-6.1-2.5-6.1-5.7c0-3.3,2.6-5.7,6.1-5.7
				C125.9,82.8,128.5,85.2,128.5,88.5z M119.3,88.5c0,1.9,1.5,3.3,3.2,3.3c1.7,0,3.1-1.5,3.1-3.3c0-1.9-1.4-3.3-3.1-3.3
				C120.8,85.2,119.3,86.6,119.3,88.5z"/>
			<path fill="#FCD9BE" d="M139.4,94.1l-5.2-6.9v6.9h-2.7V82.9h2.5l5.2,6.9v-6.9h2.7v11.2H139.4z"/>
		</g>
	</g>
	<g>
		<path fill="#FCD9BE" d="M36.8,105.8h3.1c2,0,3.4,0.9,3.4,3.2c0,2.5-1.5,3.3-3.5,3.3H38v4.6h-1.2V105.8z M39.9,111.2
			c1.5,0,2.2-0.6,2.2-2.2c0-1.5-0.8-2.1-2.2-2.1H38v4.2H39.9z"/>
		<path fill="#FCD9BE" d="M44.9,109h1.2v1.4h0c0.4-0.8,1.3-1.5,2.5-1.5h0.2l-0.1,1.1c0,0-0.2,0-0.3,0c-1,0-1.9,0.7-2.3,1.6v5.3h-1.2
			V109z"/>
		<path fill="#FCD9BE" d="M49.7,113c0-2.7,1.4-4.1,3.1-4.1c1.8,0,3.1,1.4,3.1,4.1c0,2.7-1.4,4.1-3.1,4.1S49.7,115.7,49.7,113z
			 M54.8,113c0-1.7-0.6-3.1-1.9-3.1c-1.3,0-1.9,1.2-1.9,3.1c0,1.7,0.6,3.1,1.9,3.1C54.1,116.1,54.8,114.8,54.8,113z"/>
		<path fill="#FCD9BE" d="M58,115.1V110h-1.2v-1H58v-2.8h1.2v2.8h1.7v1h-1.7v4.9c0,0.8,0.2,1.2,1.1,1.2c0.2,0,0.5,0,0.7-0.1v1
			c-0.2,0.1-0.6,0.1-0.9,0.1C58.5,117,58,116.5,58,115.1z"/>
		<path fill="#FCD9BE" d="M62,113c0-2.7,1.4-4.1,3.1-4.1c1.8,0,3.1,1.4,3.1,4.1c0,2.7-1.4,4.1-3.1,4.1S62,115.7,62,113z M67.1,113
			c0-1.7-0.6-3.1-1.9-3.1c-1.3,0-1.9,1.2-1.9,3.1c0,1.7,0.6,3.1,1.9,3.1C66.4,116.1,67.1,114.8,67.1,113z"/>
		<path fill="#FCD9BE" d="M70.3,115.1V110h-1.2v-1h1.2v-2.8h1.2v2.8h1.7v1h-1.7v4.9c0,0.8,0.2,1.2,1.1,1.2c0.2,0,0.5,0,0.7-0.1v1
			c-0.2,0.1-0.6,0.1-0.9,0.1C70.8,117,70.3,116.5,70.3,115.1z"/>
		<path fill="#FCD9BE" d="M73.8,119.8l0.2-1c0.2,0,0.6,0.1,1,0.1c0.7,0,1-0.4,1.2-1.2l0.2-0.7l-2.5-8h1.2l1.2,4.1
			c0.3,0.9,0.4,1.5,0.6,2.4h0c0.2-0.9,0.4-1.6,0.7-2.5l1.2-4h1.2l-2.7,8.8c-0.5,1.5-1,2.1-2.3,2.1C74.5,119.9,74,119.8,73.8,119.8z"
			/>
		<path fill="#FCD9BE" d="M81.5,109h1.2v1c0.5-0.6,1.2-1.2,2.2-1.2c1.5,0,2.7,1.3,2.7,4.1c0,2.9-1.2,4.1-2.8,4.1
			c-0.9,0-1.6-0.4-2.1-1.1v4h-1.2V109z M86.4,113c0-2.1-0.7-3.1-1.8-3.1c-0.7,0-1.4,0.5-1.9,1.1v4c0.6,0.7,1.2,1.1,1.9,1.1
			C85.7,116,86.4,115.1,86.4,113z"/>
		<path fill="#FCD9BE" d="M88.8,113c0-2.8,1.5-4.1,3.1-4.1c1.8,0,2.8,1.4,2.8,4.1v0.3H90c0,1.9,0.8,2.9,1.9,2.9
			c0.9,0,1.4-0.5,1.9-1.4l0.8,0.5c-0.6,1.1-1.5,1.9-2.8,1.9C90.1,117.1,88.8,115.7,88.8,113z M93.5,112.3c-0.1-1.4-0.6-2.4-1.7-2.4
			c-0.9,0-1.7,0.7-1.8,2.4H93.5z"/>
		<path fill="#FCD9BE" d="M99.9,111.7c0-1,0.8-1.8,1.8-1.8c1,0,1.8,0.8,1.8,1.8c0,1-0.8,1.8-1.8,1.8
			C100.7,113.4,99.9,112.7,99.9,111.7z"/>
		<path fill="#FCD9BE" d="M109.4,105.8h1.3v11.1h-1.3V105.8z"/>
		<path fill="#FCD9BE" d="M113.3,115.1V110h-1.2v-1h1.2v-2.8h1.2v2.8h1.7v1h-1.7v4.9c0,0.8,0.2,1.2,1.1,1.2c0.2,0,0.5,0,0.7-0.1v1
			c-0.2,0.1-0.6,0.1-0.9,0.1C113.8,117,113.3,116.5,113.3,115.1z"/>
		<path fill="#FCD9BE" d="M117.3,113c0-2.8,1.5-4.1,3.1-4.1c1.8,0,2.8,1.4,2.8,4.1v0.3h-4.7c0,1.9,0.8,2.9,1.9,2.9
			c0.9,0,1.4-0.5,1.9-1.4l0.8,0.5c-0.6,1.1-1.5,1.9-2.8,1.9C118.6,117.1,117.3,115.7,117.3,113z M122,112.3
			c-0.1-1.4-0.6-2.4-1.7-2.4c-0.9,0-1.7,0.7-1.8,2.4H122z"/>
		<path fill="#FCD9BE" d="M124.7,109h1.2v1.4h0c0.4-0.8,1.3-1.5,2.5-1.5h0.2l-0.1,1.1c0,0-0.2,0-0.3,0c-1,0-1.9,0.7-2.3,1.6v5.3
			h-1.2V109z"/>
		<path fill="#FCD9BE" d="M129.5,115.1c0-1.6,1.3-2.7,4.4-3.3v-0.5c0-0.9-0.4-1.3-1.2-1.3c-1,0-1.7,0.5-2.3,1.1l-0.7-0.7
			c0.8-0.8,1.9-1.4,3.1-1.4c1.5,0,2.2,0.9,2.2,2.4v3.8c0,1,0,1.5,0.2,2h-1.2c-0.1-0.3-0.2-0.6-0.2-1c-0.6,0.7-1.5,1.1-2.5,1.1
			C130.2,117,129.5,116.3,129.5,115.1z M133.9,115v-2.4c-2.4,0.5-3.2,1.4-3.2,2.3c0,0.8,0.4,1.2,1.1,1.2
			C132.6,116,133.4,115.6,133.9,115z"/>
		<path fill="#FCD9BE" d="M137.5,115.1V110h-1.2v-1h1.2v-2.8h1.2v2.8h1.7v1h-1.7v4.9c0,0.8,0.2,1.2,1,1.2c0.2,0,0.5,0,0.7-0.1v1
			c-0.2,0.1-0.6,0.1-0.9,0.1C138,117,137.5,116.5,137.5,115.1z"/>
		<path fill="#FCD9BE" d="M141.5,113c0-2.8,1.5-4.1,3.1-4.1c1.8,0,2.8,1.4,2.8,4.1v0.3h-4.7c0,1.9,0.8,2.9,1.9,2.9
			c0.9,0,1.4-0.5,1.9-1.4l0.8,0.5c-0.6,1.1-1.5,1.9-2.8,1.9C142.8,117.1,141.5,115.7,141.5,113z M146.2,112.3
			c-0.1-1.4-0.6-2.4-1.7-2.4c-0.9,0-1.7,0.7-1.8,2.4H146.2z"/>
		<path fill="#FCD9BE" d="M152.6,111.7c0-1,0.8-1.8,1.8-1.8c1,0,1.8,0.8,1.8,1.8c0,1-0.8,1.8-1.8,1.8
			C153.4,113.4,152.6,112.7,152.6,111.7z"/>
		<path fill="#FCD9BE" d="M162,105.8h2.4c3.1,0,4.7,1.6,4.7,5.5c0,3.9-1.7,5.6-4.7,5.6H162V105.8z M164.6,115.8
			c2.2,0,3.3-1.3,3.3-4.4c0-3-1-4.4-3.3-4.4h-1.3v8.8H164.6z"/>
		<path fill="#FCD9BE" d="M170.4,113c0-2.8,1.5-4.1,3.1-4.1c1.8,0,2.8,1.4,2.8,4.1v0.3h-4.7c0,1.9,0.8,2.9,1.9,2.9
			c0.9,0,1.4-0.5,1.9-1.4l0.8,0.5c-0.6,1.1-1.5,1.9-2.8,1.9C171.8,117.1,170.4,115.7,170.4,113z M175.2,112.3
			c-0.1-1.4-0.6-2.4-1.7-2.4c-0.9,0-1.7,0.7-1.8,2.4H175.2z"/>
		<path fill="#FCD9BE" d="M177.2,115.5l0.8-0.6c0.5,0.8,1.3,1.2,2.1,1.2c1,0,1.6-0.4,1.6-1.2c0-2-4.1-1.2-4.1-4c0-1.3,1-2.1,2.5-2.1
			c1.2,0,2,0.6,2.6,1.4l-0.8,0.6c-0.4-0.6-1-1.1-1.8-1.1c-0.9,0-1.3,0.5-1.3,1.1c0,2,4.1,1.1,4.1,4c0,1.4-1.2,2.2-2.7,2.2
			C178.8,117.1,177.8,116.5,177.2,115.5z"/>
		<path fill="#FCD9BE" d="M184.5,106.1h1.2v1.3h-1.2V106.1z M184.5,109h1.2v7.9h-1.2V109z"/>
		<path fill="#FCD9BE" d="M193.7,108.9v1.1c-0.4,0-0.8,0-1.2,0.2c0.2,0.4,0.4,0.9,0.4,1.5c0,1.8-1.1,2.8-2.7,2.8
			c-0.4,0-0.8-0.1-1.1-0.2c-0.3,0.1-0.5,0.3-0.5,0.6c0,0.3,0.2,0.4,0.9,0.5l1.2,0.2c2,0.2,2.7,0.8,2.7,2c0,1.4-1.5,2.2-3.4,2.2
			c-2.3,0-3.1-0.7-3.1-1.9c0-0.8,0.5-1.4,1.3-1.8c-0.4-0.2-0.7-0.5-0.7-1c0-0.5,0.4-0.9,0.9-1.2c-0.7-0.5-1.1-1.3-1.1-2.3
			c0-1.7,1.2-2.9,2.8-2.9c0.8,0,1.5,0.3,2,0.8C192.6,109.3,193.2,109,193.7,108.9z M188.1,117.8c0,0.8,0.5,1.2,2.1,1.2
			c1.3,0,2.2-0.5,2.2-1.2c0-0.6-0.4-1-1.8-1.2l-1.3-0.2c-0.1,0-0.2,0-0.2,0C188.4,116.8,188.1,117.3,188.1,117.8z M191.8,111.7
			c0-1.2-0.6-1.9-1.6-1.9c-1,0-1.6,0.8-1.6,1.9c0,1.2,0.6,1.9,1.6,1.9C191.2,113.6,191.8,112.9,191.8,111.7z"/>
		<path fill="#FCD9BE" d="M195.1,109h1.2v1.1c0.5-0.6,1.5-1.3,2.5-1.3c1.3,0,2,0.8,2,2.2v5.9h-1.2v-5.6c0-0.9-0.3-1.4-1.1-1.4
			c-0.8,0-1.6,0.6-2.1,1.1v5.9h-1.2V109z"/>
		<path fill="#FCD9BE" d="M206.3,111.7c0-1,0.8-1.8,1.8-1.8c1,0,1.8,0.8,1.8,1.8c0,1-0.8,1.8-1.8,1.8
			C207.1,113.4,206.3,112.7,206.3,111.7z"/>
		<path fill="#FCD9BE" d="M215.2,111.3c0-3.7,1.6-5.7,4-5.7c2.1,0,3,1.5,3.4,3.5l-1.2,0.2c-0.3-1.7-1-2.6-2.3-2.6
			c-1.7,0-2.7,1.7-2.7,4.6c0,3,1,4.7,2.7,4.7c1.3,0,2-0.8,2.4-2.7l1.2,0.2c-0.4,2.1-1.5,3.6-3.6,3.6
			C216.8,117.1,215.2,115.2,215.2,111.3z"/>
		<path fill="#FCD9BE" d="M223.9,113c0-2.7,1.4-4.1,3.1-4.1c1.8,0,3.1,1.4,3.1,4.1c0,2.7-1.4,4.1-3.1,4.1S223.9,115.7,223.9,113z
			 M229,113c0-1.7-0.6-3.1-1.9-3.1c-1.3,0-1.9,1.2-1.9,3.1c0,1.7,0.6,3.1,1.9,3.1C228.3,116.1,229,114.8,229,113z"/>
		<path fill="#FCD9BE" d="M231.4,113c0-2.9,1.2-4.1,2.7-4.1c0.9,0,1.6,0.5,2.1,1.1v-4.1h1.2v9.1c0,1,0,1.5,0.2,2h-1.2
			c-0.1-0.3-0.2-0.8-0.2-1c-0.5,0.6-1.2,1.2-2.2,1.2C232.5,117,231.4,115.8,231.4,113z M236.2,115v-4c-0.6-0.7-1.2-1.1-1.9-1.1
			c-1.1,0-1.8,0.9-1.8,3.1c0,2.1,0.7,3,1.8,3C235.1,116,235.8,115.5,236.2,115z"/>
		<path fill="#FCD9BE" d="M239,113c0-2.8,1.5-4.1,3.1-4.1c1.8,0,2.8,1.4,2.8,4.1v0.3h-4.7c0,1.9,0.8,2.9,1.9,2.9
			c0.9,0,1.4-0.5,1.9-1.4l0.8,0.5c-0.6,1.1-1.5,1.9-2.8,1.9C240.3,117.1,239,115.7,239,113z M243.7,112.3c-0.1-1.4-0.6-2.4-1.7-2.4
			c-0.9,0-1.7,0.7-1.8,2.4H243.7z"/>
	</g>
</g>
<g>
	<g>
		<g>
			<path fill="#FCD9BE" d="M17.1,168c1.6,0.3,2.8,1.3,2.8,3.1c0,2.1-1.7,3.7-4.3,3.7c-1.5,0-3.2-0.5-4.2-1.4l1.2-2.2
				c0.8,0.9,1.8,1.4,2.8,1.4c1.1,0,1.7-0.5,1.7-1.5c0-0.9-0.6-1.4-1.7-1.4h-1.8v-1.5l2.5-2.6H12v-2.2h7.4v1.6l-2.8,2.9L17.1,168z"/>
			<path fill="#FCD9BE" d="M25.3,173.4c0,0.8-0.6,1.3-1.3,1.3c-0.8,0-1.3-0.5-1.3-1.3c0-0.8,0.5-1.3,1.3-1.3
				C24.7,172.1,25.3,172.6,25.3,173.4z"/>
			<path fill="#FCD9BE" d="M38.7,163.4c3.5,0,6,2.3,6,5.6c0,3.3-2.5,5.6-6.1,5.6h-4.7v-11.2H38.7z M36.7,172.3h2c1.7,0,3-1.3,3-3.3
				c0-2-1.3-3.3-3.1-3.3h-1.9V172.3z"/>
			<path fill="#FCD9BE" d="M50.6,165.6v2.2H56v2.2h-5.3v2.3h6.1v2.2h-8.9v-11.2h8.8v2.2H50.6z"/>
			<path fill="#FCD9BE" d="M67.7,172.2v2.4h-7.6v-11.2H63v8.8H67.7z"/>
			<path fill="#FCD9BE" d="M70.7,174.6v-11.2h2.8v11.2H70.7z"/>
			<path fill="#FCD9BE" d="M80.6,174.6l-4.4-11.2h3l2.9,8.2l2.9-8.2H88l-4.4,11.2H80.6z"/>
			<path fill="#FCD9BE" d="M93.5,165.6v2.2h5.3v2.2h-5.3v2.3h6.1v2.2h-8.9v-11.2h8.8v2.2H93.5z"/>
			<path fill="#FCD9BE" d="M108.1,171.5L108.1,171.5h-2.2v3.2H103v-11.2h5c3,0,4.7,1.4,4.7,3.9c0,1.7-0.7,2.9-2,3.6l2.4,3.7h-3.2
				L108.1,171.5z M108.1,169.2c1.2,0,2-0.6,2-1.8c0-1.2-0.7-1.8-2-1.8h-2.2v3.6H108.1z"/>
			<path fill="#FCD9BE" d="M121.9,174.6h-2.8v-3.5l-4.1-7.7h2.8l2.7,4.9l2.6-4.9h2.8l-4.1,7.6V174.6z"/>
		</g>
	</g>
	<g>
		<path fill="#FCD9BE" d="M36,188.3h1.3l1.7,6c0.4,1.3,0.6,2.3,0.9,3.4h0c0.3-1.1,0.6-2.1,0.9-3.3l1.7-6h1.2l-3.2,11.1h-1.2
			L36,188.3z"/>
		<path fill="#FCD9BE" d="M44.6,197.6c0-1.6,1.3-2.7,4.4-3.3v-0.5c0-0.9-0.4-1.3-1.2-1.3c-1,0-1.7,0.5-2.3,1.1l-0.7-0.7
			c0.8-0.8,1.9-1.4,3.1-1.4c1.5,0,2.2,0.9,2.2,2.4v3.8c0,1,0,1.5,0.2,2h-1.2c-0.1-0.3-0.2-0.6-0.2-1c-0.6,0.7-1.5,1.1-2.5,1.1
			C45.3,199.5,44.6,198.8,44.6,197.6z M49,197.5v-2.4c-2.4,0.5-3.2,1.4-3.2,2.3c0,0.8,0.4,1.2,1.1,1.2
			C47.7,198.5,48.5,198.1,49,197.5z"/>
		<path fill="#FCD9BE" d="M52.1,188.3h1.2v11.1h-1.2V188.3z"/>
		<path fill="#FCD9BE" d="M55.4,188.6h1.2v1.3h-1.2V188.6z M55.4,191.5h1.2v7.9h-1.2V191.5z"/>
		<path fill="#FCD9BE" d="M58.3,195.5c0-2.9,1.2-4.1,2.7-4.1c0.9,0,1.6,0.5,2.1,1.1v-4.1h1.2v9.1c0,1,0,1.5,0.2,2h-1.2
			c-0.1-0.3-0.2-0.8-0.2-1c-0.5,0.6-1.2,1.2-2.2,1.2C59.4,199.5,58.3,198.3,58.3,195.5z M63.2,197.5v-4c-0.6-0.7-1.2-1.1-1.9-1.1
			c-1.1,0-1.8,0.9-1.8,3.1c0,2.1,0.7,3,1.8,3C62,198.5,62.7,198,63.2,197.5z"/>
		<path fill="#FCD9BE" d="M65.9,197.6c0-1.6,1.3-2.7,4.4-3.3v-0.5c0-0.9-0.4-1.3-1.2-1.3c-1,0-1.7,0.5-2.3,1.1l-0.7-0.7
			c0.8-0.8,1.9-1.4,3.1-1.4c1.5,0,2.2,0.9,2.2,2.4v3.8c0,1,0,1.5,0.2,2h-1.2c-0.1-0.3-0.2-0.6-0.2-1c-0.6,0.7-1.5,1.1-2.5,1.1
			C66.6,199.5,65.9,198.8,65.9,197.6z M70.3,197.5v-2.4c-2.4,0.5-3.2,1.4-3.2,2.3c0,0.8,0.4,1.2,1.1,1.2
			C69,198.5,69.7,198.1,70.3,197.5z"/>
		<path fill="#FCD9BE" d="M73.8,197.6v-5.1h-1.2v-1h1.2v-2.8H75v2.8h1.7v1H75v4.9c0,0.8,0.2,1.2,1.1,1.2c0.2,0,0.5,0,0.7-0.1v1
			c-0.2,0.1-0.6,0.1-0.9,0.1C74.4,199.5,73.8,199,73.8,197.6z"/>
		<path fill="#FCD9BE" d="M77.9,195.5c0-2.8,1.5-4.1,3.1-4.1c1.8,0,2.8,1.4,2.8,4.1v0.3h-4.7c0,1.9,0.8,2.9,1.9,2.9
			c0.9,0,1.4-0.5,1.9-1.4l0.8,0.5c-0.6,1.1-1.5,1.9-2.8,1.9C79.2,199.6,77.9,198.2,77.9,195.5z M82.6,194.8
			c-0.1-1.4-0.6-2.4-1.7-2.4c-0.9,0-1.7,0.7-1.8,2.4H82.6z"/>
		<path fill="#FCD9BE" d="M89,194.2c0-1,0.8-1.8,1.8-1.8c1,0,1.8,0.8,1.8,1.8c0,1-0.8,1.8-1.8,1.8C89.7,195.9,89,195.2,89,194.2z"/>
		<path fill="#FCD9BE" d="M100.5,189.5h-2.9v-1.2h7v1.2h-2.9v9.9h-1.3V189.5z"/>
		<path fill="#FCD9BE" d="M105.6,195.5c0-2.8,1.5-4.1,3.1-4.1c1.8,0,2.8,1.4,2.8,4.1v0.3h-4.7c0,1.9,0.8,2.9,1.9,2.9
			c0.9,0,1.4-0.5,1.9-1.4l0.8,0.5c-0.6,1.1-1.5,1.9-2.8,1.9C106.9,199.6,105.6,198.2,105.6,195.5z M110.3,194.8
			c-0.1-1.4-0.6-2.4-1.7-2.4c-0.9,0-1.7,0.7-1.8,2.4H110.3z"/>
		<path fill="#FCD9BE" d="M112.4,198l0.8-0.6c0.5,0.8,1.3,1.2,2.1,1.2c1,0,1.6-0.4,1.6-1.2c0-2-4.1-1.2-4.1-4c0-1.3,1-2.1,2.5-2.1
			c1.2,0,2,0.6,2.6,1.4l-0.8,0.6c-0.4-0.6-1-1.1-1.8-1.1c-0.9,0-1.3,0.5-1.3,1.1c0,2,4.1,1.1,4.1,4c0,1.4-1.2,2.2-2.7,2.2
			C114,199.6,113,199,112.4,198z"/>
		<path fill="#FCD9BE" d="M120,197.6v-5.1h-1.2v-1h1.2v-2.8h1.2v2.8h1.7v1h-1.7v4.9c0,0.8,0.2,1.2,1.1,1.2c0.2,0,0.5,0,0.7-0.1v1
			c-0.2,0.1-0.6,0.1-0.9,0.1C120.6,199.5,120,199,120,197.6z"/>
		<path fill="#FCD9BE" d="M128.1,194.2c0-1,0.8-1.8,1.8-1.8c1,0,1.8,0.8,1.8,1.8c0,1-0.8,1.8-1.8,1.8
			C128.9,195.9,128.1,195.2,128.1,194.2z"/>
		<path fill="#FCD9BE" d="M137.5,188.3h1.3v10h4.4v1.1h-5.7V188.3z"/>
		<path fill="#FCD9BE" d="M144.2,197.6c0-1.6,1.3-2.7,4.4-3.3v-0.5c0-0.9-0.4-1.3-1.2-1.3c-1,0-1.7,0.5-2.3,1.1l-0.7-0.7
			c0.8-0.8,1.9-1.4,3.1-1.4c1.5,0,2.2,0.9,2.2,2.4v3.8c0,1,0,1.5,0.2,2h-1.2c-0.1-0.3-0.2-0.6-0.2-1c-0.6,0.7-1.5,1.1-2.5,1.1
			C144.9,199.5,144.2,198.8,144.2,197.6z M148.6,197.5v-2.4c-2.4,0.5-3.2,1.4-3.2,2.3c0,0.8,0.4,1.2,1.1,1.2
			C147.3,198.5,148.1,198.1,148.6,197.5z"/>
		<path fill="#FCD9BE" d="M151.6,197.4v-5.9h1.2v5.7c0,0.9,0.3,1.4,1.2,1.4c0.8,0,1.4-0.5,2.1-1.1v-5.9h1.2v7.9h-1.2v-1.1
			c-0.6,0.7-1.5,1.3-2.5,1.3C152.3,199.6,151.6,198.8,151.6,197.4z"/>
		<path fill="#FCD9BE" d="M159.2,191.5h1.2v1.1c0.5-0.6,1.5-1.3,2.5-1.3c1.3,0,2,0.8,2,2.2v5.9h-1.2v-5.6c0-0.9-0.3-1.4-1.1-1.4
			c-0.8,0-1.6,0.6-2.1,1.1v5.9h-1.2V191.5z"/>
		<path fill="#FCD9BE" d="M166.4,195.5c0-2.8,1.4-4.1,3.1-4.1c1.6,0,2.3,1.1,2.7,2.4L171,194c-0.3-1-0.7-1.6-1.6-1.6
			c-1,0-1.8,0.9-1.8,3.1c0,1.9,0.7,3.1,1.8,3.1c0.8,0,1.4-0.5,1.7-1.6l1.1,0.3c-0.4,1.5-1.3,2.4-2.8,2.4
			C167.7,199.6,166.4,198.2,166.4,195.5z"/>
		<path fill="#FCD9BE" d="M173.6,188.3h1.2v4.3c0.5-0.6,1.5-1.3,2.5-1.3c1.3,0,1.9,0.8,1.9,2.2v5.9H178v-5.6c0-0.9-0.3-1.4-1.1-1.4
			c-0.8,0-1.6,0.6-2.1,1.1v5.9h-1.2V188.3z"/>
		<path fill="#FCD9BE" d="M184.8,194.2c0-1,0.8-1.8,1.8-1.8c1,0,1.8,0.8,1.8,1.8c0,1-0.8,1.8-1.8,1.8
			C185.6,195.9,184.8,195.2,184.8,194.2z"/>
		<path fill="#FCD9BE" d="M193.5,197l1.1-0.5c0.5,1.2,1.3,2,2.6,2c1.3,0,2.1-0.7,2.1-1.8c0-1.3-1.1-1.8-2.3-2.4
			c-1.4-0.7-3-1.4-3-3.4c0-1.6,1.3-2.8,3-2.8c1.8,0,2.8,1.1,3.3,2.3l-1.1,0.5c-0.4-0.9-1-1.8-2.2-1.8c-1,0-1.8,0.7-1.8,1.6
			c0,1.3,1.1,1.8,2.2,2.4c1.4,0.7,3,1.4,3,3.4c0,1.6-1.3,2.9-3.3,2.9C195.4,199.6,194.2,198.6,193.5,197z"/>
		<path fill="#FCD9BE" d="M202.2,197.4v-5.9h1.2v5.7c0,0.9,0.3,1.4,1.2,1.4c0.8,0,1.4-0.5,2.1-1.1v-5.9h1.2v7.9h-1.2v-1.1
			c-0.6,0.7-1.5,1.3-2.5,1.3C202.8,199.6,202.2,198.8,202.2,197.4z"/>
		<path fill="#FCD9BE" d="M209.7,191.5h1.2v1c0.5-0.6,1.2-1.2,2.2-1.2c1.5,0,2.7,1.3,2.7,4.1c0,2.9-1.2,4.1-2.8,4.1
			c-0.9,0-1.6-0.4-2.1-1.1v4h-1.2V191.5z M214.6,195.5c0-2.1-0.7-3.1-1.8-3.1c-0.7,0-1.4,0.5-1.9,1.1v4c0.6,0.7,1.2,1.1,1.9,1.1
			C213.9,198.5,214.6,197.6,214.6,195.5z"/>
		<path fill="#FCD9BE" d="M217.4,191.5h1.2v1c0.5-0.6,1.2-1.2,2.2-1.2c1.5,0,2.7,1.3,2.7,4.1c0,2.9-1.2,4.1-2.8,4.1
			c-0.9,0-1.6-0.4-2.1-1.1v4h-1.2V191.5z M222.2,195.5c0-2.1-0.7-3.1-1.8-3.1c-0.7,0-1.4,0.5-1.9,1.1v4c0.6,0.7,1.2,1.1,1.9,1.1
			C221.5,198.5,222.2,197.6,222.2,195.5z"/>
		<path fill="#FCD9BE" d="M224.6,195.5c0-2.7,1.4-4.1,3.1-4.1c1.8,0,3.1,1.4,3.1,4.1c0,2.7-1.4,4.1-3.1,4.1S224.6,198.2,224.6,195.5
			z M229.7,195.5c0-1.7-0.6-3.1-1.9-3.1c-1.3,0-1.9,1.2-1.9,3.1c0,1.7,0.6,3.1,1.9,3.1C229,198.6,229.7,197.3,229.7,195.5z"/>
		<path fill="#FCD9BE" d="M232.4,191.5h1.2v1.4h0c0.4-0.8,1.3-1.5,2.5-1.5h0.2l-0.1,1.1c0,0-0.2,0-0.3,0c-1,0-1.9,0.7-2.3,1.6v5.3
			h-1.2V191.5z"/>
		<path fill="#FCD9BE" d="M238.1,197.6v-5.1h-1.2v-1h1.2v-2.8h1.2v2.8h1.7v1h-1.7v4.9c0,0.8,0.2,1.2,1.1,1.2c0.2,0,0.5,0,0.7-0.1v1
			c-0.2,0.1-0.6,0.1-0.9,0.1C238.6,199.5,238.1,199,238.1,197.6z"/>
	</g>
</g>
</svg>
