<?xml version="1.0" encoding="utf-8"?>
<!-- Generator: Adobe Illustrator 17.1.0, SVG Export Plug-In . SVG Version: 6.00 Build 0)  -->
<!DOCTYPE svg PUBLIC "-//W3C//DTD SVG 1.1//EN" "http://www.w3.org/Graphics/SVG/1.1/DTD/svg11.dtd">
<svg version="1.1" id="Layer_1" xmlns="http://www.w3.org/2000/svg" xmlns:xlink="http://www.w3.org/1999/xlink" x="0px" y="0px"
	 viewBox="0 0 289.7 204.3" enable-background="new 0 0 289.7 204.3" xml:space="preserve">
<line fill="none" stroke="#FBD8BE" stroke-linecap="round" stroke-linejoin="round" stroke-miterlimit="10" stroke-dasharray="1,6" x1="0.5" y1="61.3" x2="280.8" y2="61.3"/>
<g>
	<g>
		<rect x="11.4" y="1.7" fill="none" width="235.2" height="27.1"/>
		
			<text transform="matrix(1 0 0 1 11.4405 13.6079)" fill="#FCD9BE" font-family="'Montserrat-Bold'" font-size="16" letter-spacing="1">1.  DISCOVERY</text>
	</g>
	<rect x="35.7" y="23.3" fill="none" width="231" height="16"/>
	<text transform="matrix(1 0 0 1 35.6583 34.429)" fill="#FCD9BE" font-family="'BentonSans-CondensedRegular'" font-size="15">Research • Concept • Define</text>
</g>
<line fill="none" stroke="#FBD8BE" stroke-linecap="round" stroke-linejoin="round" stroke-miterlimit="10" stroke-dasharray="1,6" x1="0.5" y1="142.8" x2="280.8" y2="142.8"/>
<g>
	<g>
		<rect x="11.4" y="82.2" fill="none" width="235.2" height="27.1"/>
		
			<text transform="matrix(1 0 0 1 11.4405 94.1079)" fill="#FCD9BE" font-family="'Montserrat-Bold'" font-size="16" letter-spacing="1">2. EXECUTION</text>
	</g>
	<rect x="35.7" y="105.8" fill="none" width="231" height="16"/>
	<text transform="matrix(1 0 0 1 35.6583 116.929)" fill="#FCD9BE" font-family="'BentonSans-CondensedRegular'" font-size="15">Iterate • Prototype • Code • Design</text>
</g>
<g>
	<g>
		<rect x="11.4" y="162.7" fill="none" width="278.2" height="27.1"/>
		
			<text transform="matrix(1 0 0 1 11.4405 174.6078)" fill="#FCD9BE" font-family="'Montserrat-Bold'" font-size="16" letter-spacing="1">3. QUALITY ASSURANCE</text>
	</g>
	<rect x="35.7" y="188.3" fill="none" width="231" height="16"/>
	<text transform="matrix(1 0 0 1 35.6583 199.429)" fill="#FCD9BE" font-family="'BentonSans-CondensedRegular'" font-size="15">Validate • Test • Launch • Support</text>
</g>
</svg>
