<?xml version="1.0" encoding="utf-8"?>
<!-- Generator: Adobe Illustrator 17.1.0, SVG Export Plug-In . SVG Version: 6.00 Build 0)  -->
<!DOCTYPE svg PUBLIC "-//W3C//DTD SVG 1.1//EN" "http://www.w3.org/Graphics/SVG/1.1/DTD/svg11.dtd">
<svg version="1.1" id="Layer_1" xmlns="http://www.w3.org/2000/svg" xmlns:xlink="http://www.w3.org/1999/xlink" x="0px" y="0px"
	 viewBox="0 0 282 91.1" enable-background="new 0 0 282 91.1" xml:space="preserve">
<g>
	<g>
		<path fill="#FCD9BE" d="M277.5,2c1.4,0,2.5,1.1,2.5,2.5v71.8c0,1.4-1.1,2.5-2.5,2.5H158.7c-3,0-7,1.7-9.2,3.8l-5.6,5.6
			c-0.5,0.5-1.1,0.7-1.8,0.7c-0.7,0-1.3-0.3-1.8-0.7l-5.6-5.6c-2.1-2.1-6.2-3.8-9.2-3.8H4.5c-1.4,0-2.5-1.1-2.5-2.5V4.5
			C2,3.1,3.1,2,4.5,2H277.5 M277.5,0H4.5C2,0,0,2,0,4.5v71.8c0,2.5,2,4.5,4.5,4.5h121c2.5,0,6,1.4,7.8,3.2l5.6,5.6
			c0.9,0.9,2.1,1.3,3.2,1.3s2.3-0.4,3.2-1.3l5.6-5.6c1.8-1.8,5.3-3.2,7.8-3.2h118.8c2.5,0,4.5-2,4.5-4.5V4.5C282,2,280,0,277.5,0
			L277.5,0z"/>
	</g>
</g>
<rect x="1.9" y="37.7" fill="none" width="278.3" height="26.8"/>
<text transform="matrix(1 0 0 1 67.0297 49.539)" fill="#FCD9BE" font-family="'Montserrat-Bold'" font-size="16" letter-spacing="1">HOW WE WORK</text>
</svg>
