<?xml version="1.0" encoding="utf-8"?>
<!-- Generator: Adobe Illustrator 17.1.0, SVG Export Plug-In . SVG Version: 6.00 Build 0)  -->
<!DOCTYPE svg PUBLIC "-//W3C//DTD SVG 1.1//EN" "http://www.w3.org/Graphics/SVG/1.1/DTD/svg11.dtd">
<svg version="1.1" id="Layer_1" xmlns="http://www.w3.org/2000/svg" xmlns:xlink="http://www.w3.org/1999/xlink" x="0px" y="0px"
	 viewBox="0 0 811.9 780.9" enable-background="new 0 0 811.9 780.9" xml:space="preserve">
<g>
	<g>
		<g>
			<path fill="#353535" d="M196.9,124.2v175H25v-175H196.9 M200.9,120.2h-4H25h-4v4v175v4h4h171.8h4v-4v-175V120.2L200.9,120.2z"/>
		</g>
	</g>
	<g>
		<g>
			<g>
				<path fill="#353535" d="M55.2,172.1h12.4v31.3H95v-31.3h12.4v78H95v-35.2H67.6V250H55.2V172.1z"/>
			</g>
			<g>
				<path fill="#353535" d="M120.3,235.5v-41.3h12V233c0,5.5,1.8,8,6.6,8c4.4,0,8.6-3.1,12.2-6.5v-40.2h12V250h-12v-7.3
					c-3.7,4.2-9.6,8.4-17.2,8.4C125.4,251.2,120.3,245.8,120.3,235.5z"/>
			</g>
		</g>
	</g>
	<g>
		<g>
			<path fill="#353535" d="M177.9,151.8h3.1v-14c-0.8,0.5-2.1,0.9-3.1,0.9v-2.8c1.3-0.1,2.4-0.5,3.2-1.3h3v17.1h2.8v2.7h-9V151.8z"
				/>
		</g>
	</g>
</g>
<g>
	<g>
		<g>
			<g>
				<path fill="#353535" d="M274.6,353.5h18.8c21.3,0,34.5,10.1,34.5,38.8c0,29-13.5,39.2-34.5,39.2h-18.8V353.5z M294.7,420.4
					c14.5,0,20.5-7.7,20.5-28.1c0-19.8-6-27.4-20.7-27.4H287v55.5H294.7z"/>
			</g>
			<g>
				<path fill="#353535" d="M338.4,355.2h12.1v11.3h-12.1V355.2z M338.4,375.7h12v55.8h-12V375.7z"/>
			</g>
		</g>
	</g>
	<g>
		<g>
			<path fill="#353535" d="M377.4,334.7c0-8.9,8.9-8.8,8.9-14.4c0-1.7-0.9-2.6-2.5-2.6c-1.6,0-2.7,1.1-3.5,3l-2.6-1.1
				c1.2-2.9,3.2-4.7,6.3-4.7c3.5,0,5.4,2.2,5.4,5.3c0,6.4-8.3,7.6-8.4,12.2h8.4v2.7h-11.9V334.7z"/>
		</g>
	</g>
	<g>
		<g>
			<path fill="#353535" d="M399.9,304.8v175H228v-175H399.9 M403.9,300.8h-4H228h-4v4v175v4h4h171.8h4v-4v-175V300.8L403.9,300.8z"
				/>
		</g>
	</g>
</g>
<g>
	<g>
		<g>
			<path fill="#353535" d="M581.1,29.9l2.6-1.2c0.9,2.1,2,2.9,3.7,2.9c2.1,0,3.4-1.3,3.4-3.2c0-2.5-1.4-3.7-4.6-3.7h-0.8v-2.5h1.2
				c2.9,0,3.9-1.2,3.9-3.2c0-1.5-0.7-2.5-2.7-2.5c-1.5,0-2.7,0.8-3.6,2.1l-2.2-1.5c1.4-2,3.4-3.4,6.1-3.4c3.6,0,5.4,2.1,5.4,4.9
				c0,2.4-1.4,4.1-3.1,4.7c2.1,0.7,3.5,2.3,3.5,5.1c0,3.5-2.5,5.8-6.3,5.8C584.1,34.4,582.2,32.5,581.1,29.9z"/>
		</g>
	</g>
	<g>
		<g>
			<g>
				<path fill="#353535" d="M604.9,4v175H433V4H604.9 M608.9,0h-4H433h-4v4v175v4h4h171.8h4v-4V4V0L608.9,0z"/>
			</g>
		</g>
	</g>
	<g>
		<g>
			<g>
				<path fill="#353535" d="M471.2,53.3h12.4v66.8h30v11.2h-42.5V53.3z"/>
			</g>
			<g>
				<path fill="#353535" d="M519.8,103.3c0-20.8,11.5-29.1,22.9-29.1c12.5,0,21.2,9.2,21.2,29.4v3.3h-32.2
					c0.5,10.5,4.8,15.7,11.8,15.7c5.9,0,9.3-2.8,12.7-7.6l7.6,5.5c-4.2,6.7-11.8,11.9-20.9,11.9C530,132.4,519.8,123.4,519.8,103.3z
					 M552.7,98.5c-0.5-9.3-3.7-14.2-10.1-14.2c-5.3,0-9.9,3.8-10.9,14.2H552.7z"/>
			</g>
		</g>
	</g>
</g>
<g>
	<g>
		<g>
			<g>
				<path fill="#353535" d="M807.9,94.9v175H636v-175H807.9 M811.9,90.9h-4H636h-4v4v175v4h4h171.8h4v-4v-175V90.9L811.9,90.9z"/>
			</g>
		</g>
	</g>
</g>
<g>
	<g>
		<path fill="#353535" d="M29.1,358.8v-4.4h-4.6v4.4h-2.8v-11.2h2.8v4.6h4.6v-4.6h2.8v11.2H29.1z"/>
		<path fill="#353535" d="M45.9,354.1c0,3-2,4.8-5.1,4.8c-3.2,0-5.2-1.9-5.2-4.8v-6.5h2.8v6.5c0,1.5,1,2.4,2.3,2.4
			c1.3,0,2.3-0.9,2.3-2.4v-6.5h2.8V354.1z"/>
		<path fill="#353535" d="M59.3,358.8l0-7.3l-2.7,6.2h-1.9l-2.7-6.2v7.3h-2.5v-11.2h3.1l3,6.7l3-6.7h3.1v11.2H59.3z"/>
		<path fill="#353535" d="M68.2,356.7l-0.8,2.1h-2.9l4.8-11.2h2.9l4.7,11.2h-3l-0.8-2.1H68.2z M70.7,350.4l-1.6,4.1h3.2L70.7,350.4z
			"/>
		<path fill="#353535" d="M87.4,358.8l-5.2-6.9v6.9h-2.7v-11.2h2.5l5.2,6.9v-6.9h2.7v11.2H87.4z"/>
		<path fill="#353535" d="M21.6,368.7h3.1c2,0,3.4,0.9,3.4,3.2c0,2.5-1.5,3.3-3.5,3.3h-1.8v4.6h-1.2V368.7z M24.7,374
			c1.5,0,2.2-0.6,2.2-2.2c0-1.5-0.8-2.1-2.2-2.1h-1.8v4.2H24.7z"/>
		<path fill="#353535" d="M29.4,375.8c0-2.8,1.5-4.1,3.1-4.1c1.8,0,2.8,1.4,2.8,4.1v0.3h-4.7c0,1.9,0.8,2.9,1.9,2.9
			c0.9,0,1.4-0.5,1.9-1.4l0.8,0.5c-0.6,1.1-1.5,1.9-2.8,1.9C30.7,379.9,29.4,378.6,29.4,375.8z M34.1,375.1
			c-0.1-1.4-0.6-2.4-1.7-2.4c-0.9,0-1.7,0.7-1.8,2.4H34.1z"/>
		<path fill="#353535" d="M36.4,375.8c0-2.7,1.4-4.1,3.1-4.1c1.8,0,3.1,1.4,3.1,4.1c0,2.7-1.4,4.1-3.1,4.1S36.4,378.5,36.4,375.8z
			 M41.5,375.8c0-1.7-0.6-3.1-1.9-3.1c-1.3,0-1.9,1.2-1.9,3.1c0,1.7,0.6,3.1,1.9,3.1C40.8,378.9,41.5,377.7,41.5,375.8z"/>
		<path fill="#353535" d="M44.2,371.8h1.2v1c0.5-0.6,1.2-1.2,2.2-1.2c1.5,0,2.7,1.3,2.7,4.1c0,2.9-1.2,4.1-2.8,4.1
			c-0.9,0-1.6-0.4-2.1-1.1v4h-1.2V371.8z M49.1,375.8c0-2.1-0.7-3.1-1.8-3.1c-0.7,0-1.4,0.5-1.9,1.1v4c0.6,0.7,1.2,1.1,1.9,1.1
			C48.4,378.9,49.1,378,49.1,375.8z"/>
		<path fill="#353535" d="M51.9,368.7h1.2v11.1h-1.2V368.7z"/>
		<path fill="#353535" d="M54.8,375.8c0-2.8,1.5-4.1,3.1-4.1c1.8,0,2.8,1.4,2.8,4.1v0.3H56c0,1.9,0.8,2.9,1.9,2.9
			c0.9,0,1.4-0.5,1.9-1.4l0.8,0.5c-0.6,1.1-1.5,1.9-2.8,1.9C56.1,379.9,54.8,378.6,54.8,375.8z M59.5,375.1
			c-0.1-1.4-0.6-2.4-1.7-2.4c-0.9,0-1.7,0.7-1.8,2.4H59.5z"/>
		<path fill="#353535" d="M65.2,369h1.2v1.3h-1.2V369z M65.2,371.8h1.2v7.9h-1.2V371.8z"/>
		<path fill="#353535" d="M68.5,371.8h1.2v1.1c0.5-0.6,1.5-1.3,2.5-1.3c1.3,0,2,0.8,2,2.2v5.9h-1.2v-5.6c0-0.9-0.3-1.4-1.1-1.4
			c-0.8,0-1.6,0.6-2.1,1.1v5.9h-1.2V371.8z"/>
		<path fill="#353535" d="M75.3,378.3l0.8-0.6c0.5,0.8,1.3,1.2,2.1,1.2c1,0,1.6-0.4,1.6-1.2c0-1.9-4.1-1.2-4.1-4
			c0-1.3,1-2.1,2.5-2.1c1.2,0,2,0.6,2.6,1.4l-0.8,0.6c-0.4-0.6-1-1-1.8-1c-0.9,0-1.3,0.4-1.3,1.1c0,2,4.1,1.1,4.1,4
			c0,1.4-1.2,2.2-2.7,2.2C76.9,379.9,76,379.3,75.3,378.3z"/>
		<path fill="#353535" d="M82.5,371.8h1.2v1c0.5-0.6,1.2-1.2,2.2-1.2c1.5,0,2.7,1.3,2.7,4.1c0,2.9-1.2,4.1-2.8,4.1
			c-0.9,0-1.6-0.4-2.1-1.1v4h-1.2V371.8z M87.4,375.8c0-2.1-0.7-3.1-1.8-3.1c-0.7,0-1.4,0.5-1.9,1.1v4c0.6,0.7,1.2,1.1,1.9,1.1
			C86.7,378.9,87.4,378,87.4,375.8z"/>
		<path fill="#353535" d="M90.2,369h1.2v1.3h-1.2V369z M90.2,371.8h1.2v7.9h-1.2V371.8z"/>
		<path fill="#353535" d="M93.4,371.8h1.2v1.4h0c0.4-0.8,1.3-1.5,2.5-1.5h0.2l-0.1,1.1c0,0-0.2,0-0.3,0c-1,0-1.9,0.7-2.3,1.6v5.3
			h-1.2V371.8z"/>
		<path fill="#353535" d="M98.2,375.8c0-2.8,1.5-4.1,3.1-4.1c1.8,0,2.8,1.4,2.8,4.1v0.3h-4.7c0,1.9,0.8,2.9,1.9,2.9
			c0.9,0,1.4-0.5,1.9-1.4l0.8,0.5c-0.6,1.1-1.5,1.9-2.8,1.9C99.6,379.9,98.2,378.6,98.2,375.8z M103,375.1c-0.1-1.4-0.6-2.4-1.7-2.4
			c-0.9,0-1.7,0.7-1.8,2.4H103z"/>
		<path fill="#353535" d="M108.3,375.8c0-2.7,1.4-4.1,3.1-4.1c1.8,0,3.1,1.4,3.1,4.1c0,2.7-1.4,4.1-3.1,4.1S108.3,378.5,108.3,375.8
			z M113.3,375.8c0-1.7-0.6-3.1-1.9-3.1c-1.3,0-1.9,1.2-1.9,3.1c0,1.7,0.6,3.1,1.9,3.1C112.7,378.9,113.3,377.7,113.3,375.8z"/>
		<path fill="#353535" d="M116,377.7v-5.9h1.2v5.7c0,0.9,0.3,1.4,1.2,1.4c0.8,0,1.4-0.5,2.1-1.1v-5.9h1.2v7.9h-1.2v-1.1
			c-0.6,0.7-1.5,1.3-2.5,1.3C116.7,379.9,116,379.2,116,377.7z"/>
		<path fill="#353535" d="M123.6,371.8h1.2v1.4h0c0.4-0.8,1.3-1.5,2.5-1.5h0.2l-0.1,1.1c0,0-0.2,0-0.3,0c-1,0-1.9,0.7-2.3,1.6v5.3
			h-1.2V371.8z"/>
		<path fill="#353535" d="M131.8,371.8h1.2v1c0.5-0.6,1.2-1.2,2.2-1.2c1.5,0,2.7,1.3,2.7,4.1c0,2.9-1.2,4.1-2.8,4.1
			c-0.9,0-1.6-0.4-2.1-1.1v4h-1.2V371.8z M136.6,375.8c0-2.1-0.7-3.1-1.8-3.1c-0.7,0-1.4,0.5-1.9,1.1v4c0.6,0.7,1.2,1.1,1.9,1.1
			C135.9,378.9,136.6,378,136.6,375.8z"/>
		<path fill="#353535" d="M139.4,371.8h1.2v1.4h0c0.4-0.8,1.3-1.5,2.5-1.5h0.2l-0.1,1.1c0,0-0.2,0-0.3,0c-1,0-1.9,0.7-2.3,1.6v5.3
			h-1.2V371.8z"/>
		<path fill="#353535" d="M144.2,375.8c0-2.7,1.4-4.1,3.1-4.1c1.8,0,3.1,1.4,3.1,4.1c0,2.7-1.4,4.1-3.1,4.1S144.2,378.5,144.2,375.8
			z M149.2,375.8c0-1.7-0.6-3.1-1.9-3.1c-1.3,0-1.9,1.2-1.9,3.1c0,1.7,0.6,3.1,1.9,3.1C148.6,378.9,149.2,377.7,149.2,375.8z"/>
		<path fill="#353535" d="M151.6,375.8c0-2.9,1.2-4.1,2.7-4.1c0.9,0,1.6,0.4,2.1,1.1v-4.1h1.2v9.1c0,1,0,1.5,0.2,1.9h-1.2
			c-0.1-0.3-0.2-0.8-0.2-1c-0.5,0.6-1.2,1.2-2.2,1.2C152.8,379.9,151.6,378.7,151.6,375.8z M156.5,377.8v-4
			c-0.6-0.7-1.2-1.1-1.9-1.1c-1.1,0-1.8,0.9-1.8,3.1c0,2.1,0.7,3,1.8,3C155.3,378.9,156,378.4,156.5,377.8z"/>
		<path fill="#353535" d="M159.5,377.7v-5.9h1.2v5.7c0,0.9,0.3,1.4,1.2,1.4c0.8,0,1.4-0.5,2.1-1.1v-5.9h1.2v7.9H164v-1.1
			c-0.6,0.7-1.5,1.3-2.5,1.3C160.2,379.9,159.5,379.2,159.5,377.7z"/>
		<path fill="#353535" d="M166.8,375.8c0-2.8,1.4-4.1,3.1-4.1c1.6,0,2.3,1.1,2.7,2.4l-1.1,0.3c-0.3-1-0.7-1.6-1.6-1.6
			c-1,0-1.8,0.9-1.8,3.1c0,1.9,0.7,3.1,1.8,3.1c0.8,0,1.4-0.5,1.7-1.6l1.1,0.3c-0.4,1.5-1.3,2.4-2.8,2.4
			C168.1,379.9,166.8,378.5,166.8,375.8z"/>
		<path fill="#353535" d="M174.5,378v-5.1h-1.2v-1h1.2V369h1.2v2.8h1.7v1h-1.7v4.9c0,0.8,0.2,1.2,1.1,1.2c0.2,0,0.5,0,0.7-0.1v1
			c-0.2,0.1-0.6,0.1-0.9,0.1C175,379.9,174.5,379.3,174.5,378z"/>
		<path fill="#353535" d="M178.2,378.3l0.8-0.6c0.5,0.8,1.3,1.2,2.1,1.2c1,0,1.6-0.4,1.6-1.2c0-1.9-4.1-1.2-4.1-4
			c0-1.3,1-2.1,2.5-2.1c1.2,0,2,0.6,2.6,1.4l-0.8,0.6c-0.4-0.6-1-1-1.8-1c-0.9,0-1.3,0.4-1.3,1.1c0,2,4.1,1.1,4.1,4
			c0,1.4-1.2,2.2-2.7,2.2C179.8,379.9,178.8,379.3,178.2,378.3z"/>
		<path fill="#353535" d="M21,398.9c0-1.6,1.3-2.7,4.4-3.3v-0.5c0-0.9-0.4-1.3-1.2-1.3c-1,0-1.7,0.5-2.3,1.1l-0.7-0.7
			c0.8-0.8,1.9-1.4,3.1-1.4c1.5,0,2.2,0.9,2.2,2.4v3.8c0,1,0,1.5,0.2,1.9h-1.2c-0.1-0.3-0.2-0.6-0.2-1c-0.6,0.7-1.5,1.1-2.5,1.1
			C21.7,400.9,21,400.1,21,398.9z M25.5,398.8v-2.4c-2.4,0.5-3.2,1.4-3.2,2.3c0,0.8,0.4,1.2,1.1,1.2
			C24.1,399.9,24.9,399.4,25.5,398.8z"/>
		<path fill="#353535" d="M28.5,392.8h1.2v1.1c0.5-0.6,1.5-1.3,2.5-1.3c1.3,0,2,0.8,2,2.2v5.9H33v-5.6c0-0.9-0.3-1.4-1.1-1.4
			c-0.8,0-1.6,0.6-2.1,1.1v5.9h-1.2V392.8z"/>
		<path fill="#353535" d="M35.7,396.8c0-2.9,1.2-4.1,2.7-4.1c0.9,0,1.6,0.4,2.1,1.1v-4.1h1.2v9.1c0,1,0,1.5,0.2,1.9h-1.2
			c-0.1-0.3-0.2-0.8-0.2-1c-0.5,0.6-1.2,1.2-2.2,1.2C36.8,400.9,35.7,399.7,35.7,396.8z M40.6,398.8v-4c-0.6-0.7-1.2-1.1-1.9-1.1
			c-1.1,0-1.8,0.9-1.8,3.1c0,2.1,0.7,3,1.8,3C39.4,399.9,40.1,399.4,40.6,398.8z"/>
		<path fill="#353535" d="M46,399.3l0.8-0.6c0.5,0.8,1.3,1.2,2.1,1.2c1,0,1.6-0.4,1.6-1.2c0-1.9-4.1-1.2-4.1-4c0-1.3,1-2.1,2.5-2.1
			c1.2,0,2,0.6,2.6,1.4l-0.8,0.6c-0.4-0.6-1-1-1.8-1c-0.9,0-1.3,0.4-1.3,1.1c0,2,4.1,1.1,4.1,4c0,1.4-1.2,2.2-2.7,2.2
			C47.6,400.9,46.6,400.3,46,399.3z"/>
		<path fill="#353535" d="M53.2,389.7h1.2v4.3c0.5-0.6,1.5-1.3,2.5-1.3c1.3,0,2,0.8,2,2.2v5.9h-1.2v-5.6c0-0.9-0.3-1.4-1.1-1.4
			c-0.8,0-1.6,0.6-2.1,1.1v5.9h-1.2V389.7z"/>
		<path fill="#353535" d="M60.3,398.9c0-1.6,1.3-2.7,4.4-3.3v-0.5c0-0.9-0.4-1.3-1.2-1.3c-1,0-1.7,0.5-2.3,1.1l-0.7-0.7
			c0.8-0.8,1.9-1.4,3.1-1.4c1.5,0,2.2,0.9,2.2,2.4v3.8c0,1,0,1.5,0.2,1.9h-1.2c-0.1-0.3-0.2-0.6-0.2-1c-0.6,0.7-1.5,1.1-2.5,1.1
			C61,400.9,60.3,400.1,60.3,398.9z M64.7,398.8v-2.4c-2.4,0.5-3.2,1.4-3.2,2.3c0,0.8,0.4,1.2,1.1,1.2
			C63.4,399.9,64.2,399.4,64.7,398.8z"/>
		<path fill="#353535" d="M67.8,392.8H69v1c0.5-0.6,1.2-1.2,2.2-1.2c1.5,0,2.7,1.3,2.7,4.1c0,2.9-1.2,4.1-2.8,4.1
			c-0.9,0-1.6-0.4-2.1-1.1v4h-1.2V392.8z M72.6,396.8c0-2.1-0.7-3.1-1.8-3.1c-0.7,0-1.4,0.5-1.9,1.1v4c0.6,0.7,1.2,1.1,1.9,1.1
			C71.9,399.9,72.6,399,72.6,396.8z"/>
		<path fill="#353535" d="M75,396.8c0-2.8,1.5-4.1,3.1-4.1c1.8,0,2.8,1.4,2.8,4.1v0.3h-4.7c0,1.9,0.8,2.9,1.9,2.9
			c0.9,0,1.4-0.5,1.9-1.4l0.8,0.5c-0.6,1.1-1.5,1.9-2.8,1.9C76.3,400.9,75,399.6,75,396.8z M79.7,396.1c-0.1-1.4-0.6-2.4-1.7-2.4
			c-0.9,0-1.7,0.7-1.8,2.4H79.7z"/>
		<path fill="#353535" d="M85,396.8c0-2.7,1.4-4.1,3.1-4.1c1.8,0,3.1,1.4,3.1,4.1c0,2.7-1.4,4.1-3.1,4.1S85,399.5,85,396.8z
			 M90.1,396.8c0-1.7-0.6-3.1-1.9-3.1c-1.3,0-1.9,1.2-1.9,3.1c0,1.7,0.6,3.1,1.9,3.1C89.4,399.9,90.1,398.7,90.1,396.8z"/>
		<path fill="#353535" d="M92.8,398.7v-5.9H94v5.7c0,0.9,0.3,1.4,1.2,1.4c0.8,0,1.4-0.5,2.1-1.1v-5.9h1.2v7.9h-1.2v-1.1
			c-0.6,0.7-1.5,1.3-2.5,1.3C93.5,400.9,92.8,400.2,92.8,398.7z"/>
		<path fill="#353535" d="M100.4,392.8h1.2v1.4h0c0.4-0.8,1.3-1.5,2.5-1.5h0.2l-0.1,1.1c0,0-0.2,0-0.3,0c-1,0-1.9,0.7-2.3,1.6v5.3
			h-1.2V392.8z"/>
		<path fill="#353535" d="M107.9,399.3l0.8-0.6c0.5,0.8,1.3,1.2,2.1,1.2c1,0,1.6-0.4,1.6-1.2c0-1.9-4.1-1.2-4.1-4
			c0-1.3,1-2.1,2.5-2.1c1.2,0,2,0.6,2.6,1.4l-0.8,0.6c-0.4-0.6-1-1-1.8-1c-0.9,0-1.3,0.4-1.3,1.1c0,2,4.1,1.1,4.1,4
			c0,1.4-1.2,2.2-2.7,2.2C109.5,400.9,108.5,400.3,107.9,399.3z"/>
		<path fill="#353535" d="M114.7,396.8c0-2.7,1.4-4.1,3.1-4.1c1.8,0,3.1,1.4,3.1,4.1c0,2.7-1.4,4.1-3.1,4.1S114.7,399.5,114.7,396.8
			z M119.7,396.8c0-1.7-0.6-3.1-1.9-3.1c-1.3,0-1.9,1.2-1.9,3.1c0,1.7,0.6,3.1,1.9,3.1C119.1,399.9,119.7,398.7,119.7,396.8z"/>
		<path fill="#353535" d="M122.6,389.7h1.2v11.1h-1.2V389.7z"/>
		<path fill="#353535" d="M125.7,398.7v-5.9h1.2v5.7c0,0.9,0.3,1.4,1.2,1.4c0.8,0,1.4-0.5,2.1-1.1v-5.9h1.2v7.9h-1.2v-1.1
			c-0.6,0.7-1.5,1.3-2.5,1.3C126.4,400.9,125.7,400.2,125.7,398.7z"/>
		<path fill="#353535" d="M133.8,399v-5.1h-1.2v-1h1.2V390h1.2v2.8h1.7v1H135v4.9c0,0.8,0.2,1.2,1.1,1.2c0.2,0,0.5,0,0.7-0.1v1
			c-0.2,0.1-0.6,0.1-0.9,0.1C134.3,400.9,133.8,400.3,133.8,399z"/>
		<path fill="#353535" d="M138.3,390h1.2v1.3h-1.2V390z M138.3,392.8h1.2v7.9h-1.2V392.8z"/>
		<path fill="#353535" d="M141.1,396.8c0-2.7,1.4-4.1,3.1-4.1c1.8,0,3.1,1.4,3.1,4.1c0,2.7-1.4,4.1-3.1,4.1S141.1,399.5,141.1,396.8
			z M146.2,396.8c0-1.7-0.6-3.1-1.9-3.1c-1.3,0-1.9,1.2-1.9,3.1c0,1.7,0.6,3.1,1.9,3.1C145.5,399.9,146.2,398.7,146.2,396.8z"/>
		<path fill="#353535" d="M148.9,392.8h1.2v1.1c0.5-0.6,1.5-1.3,2.5-1.3c1.3,0,2,0.8,2,2.2v5.9h-1.2v-5.6c0-0.9-0.3-1.4-1.1-1.4
			c-0.8,0-1.6,0.6-2.1,1.1v5.9h-1.2V392.8z"/>
		<path fill="#353535" d="M155.8,399.3l0.8-0.6c0.5,0.8,1.3,1.2,2.1,1.2c1,0,1.6-0.4,1.6-1.2c0-1.9-4.1-1.2-4.1-4
			c0-1.3,1-2.1,2.5-2.1c1.2,0,2,0.6,2.6,1.4l-0.8,0.6c-0.4-0.6-1-1-1.8-1c-0.9,0-1.3,0.4-1.3,1.1c0,2,4.1,1.1,4.1,4
			c0,1.4-1.2,2.2-2.7,2.2C157.4,400.9,156.4,400.3,155.8,399.3z"/>
		<path fill="#353535" d="M163.1,399.2h1.4v1.6h-1.4V399.2z"/>
		<path fill="#353535" d="M169,389.7h1.2l1.2,5.7c0.3,1.2,0.4,1.9,0.7,3.3h0c0.2-1.4,0.4-2.1,0.6-3.3l1.1-5.7h1.1l1.2,5.8
			c0.2,1.1,0.4,2,0.6,3.1h0c0.2-1.1,0.4-2,0.6-3.1l1.2-5.8h1.1l-2.5,11.1h-1.1l-1.8-8.9h0l-1.8,8.9h-1.1L169,389.7z"/>
		<path fill="#353535" d="M180.8,396.8c0-2.8,1.5-4.1,3.1-4.1c1.8,0,2.8,1.4,2.8,4.1v0.3H182c0,1.9,0.8,2.9,1.9,2.9
			c0.9,0,1.4-0.5,1.9-1.4l0.8,0.5c-0.6,1.1-1.5,1.9-2.8,1.9C182.1,400.9,180.8,399.6,180.8,396.8z M185.5,396.1
			c-0.1-1.4-0.6-2.4-1.7-2.4c-0.9,0-1.7,0.7-1.8,2.4H185.5z"/>
		<path fill="#353535" d="M21.5,410.7h1.2v11.1h-1.2V410.7z"/>
		<path fill="#353535" d="M24.8,411h1.2v1.3h-1.2V411z M24.8,413.8H26v7.9h-1.2V413.8z"/>
		<path fill="#353535" d="M27.4,420.3l0.8-0.6c0.5,0.8,1.3,1.2,2.1,1.2c1,0,1.6-0.4,1.6-1.2c0-1.9-4.1-1.2-4.1-4
			c0-1.3,1-2.1,2.5-2.1c1.2,0,2,0.6,2.6,1.4l-0.8,0.6c-0.4-0.6-1-1-1.8-1c-0.9,0-1.3,0.4-1.3,1.1c0,2,4.1,1.1,4.1,4
			c0,1.4-1.2,2.2-2.7,2.2C29,421.9,28,421.3,27.4,420.3z"/>
		<path fill="#353535" d="M35.1,420v-5.1h-1.2v-1h1.2V411h1.2v2.8H38v1h-1.7v4.9c0,0.8,0.2,1.2,1.1,1.2c0.2,0,0.5,0,0.7-0.1v1
			c-0.2,0.1-0.6,0.1-0.9,0.1C35.6,421.9,35.1,421.3,35.1,420z"/>
		<path fill="#353535" d="M39.1,417.8c0-2.8,1.5-4.1,3.1-4.1c1.8,0,2.8,1.4,2.8,4.1v0.3h-4.7c0,1.9,0.8,2.9,1.9,2.9
			c0.9,0,1.4-0.5,1.9-1.4l0.8,0.5c-0.6,1.1-1.5,1.9-2.8,1.9C40.4,421.9,39.1,420.6,39.1,417.8z M43.8,417.1
			c-0.1-1.4-0.6-2.4-1.7-2.4c-0.9,0-1.7,0.7-1.8,2.4H43.8z"/>
		<path fill="#353535" d="M46.5,413.8h1.2v1.1c0.5-0.6,1.5-1.3,2.5-1.3c1.3,0,2,0.8,2,2.2v5.9H51v-5.6c0-0.9-0.3-1.4-1.1-1.4
			c-0.8,0-1.6,0.6-2.1,1.1v5.9h-1.2V413.8z"/>
		<path fill="#353535" d="M54.7,421.8h-0.6v-1.6h1.4v1.4l-0.7,1.7h-0.6L54.7,421.8z"/>
		<path fill="#353535" d="M60.2,417.8c0-2.7,1.4-4.1,3.1-4.1c1.8,0,3.1,1.4,3.1,4.1c0,2.7-1.4,4.1-3.1,4.1S60.2,420.5,60.2,417.8z
			 M65.2,417.8c0-1.7-0.6-3.1-1.9-3.1c-1.3,0-1.9,1.2-1.9,3.1c0,1.7,0.6,3.1,1.9,3.1C64.6,420.9,65.2,419.7,65.2,417.8z"/>
		<path fill="#353535" d="M69.2,420.8v0.9H68v-11.1h1.2v4.2c0.5-0.6,1.2-1.2,2.2-1.2c1.5,0,2.7,1.3,2.7,4.1c0,2.9-1.2,4.1-2.8,4.1
			C70.4,421.9,69.7,421.5,69.2,420.8z M72.9,417.8c0-2.1-0.7-3.1-1.8-3.1c-0.8,0-1.3,0.5-1.9,1.1v4c0.6,0.7,1.2,1.1,1.9,1.1
			C72.1,420.9,72.9,420,72.9,417.8z"/>
		<path fill="#353535" d="M75,420.3l0.8-0.6c0.5,0.8,1.3,1.2,2.1,1.2c1,0,1.6-0.4,1.6-1.2c0-1.9-4.1-1.2-4.1-4c0-1.3,1-2.1,2.5-2.1
			c1.2,0,2,0.6,2.6,1.4l-0.8,0.6c-0.4-0.6-1-1-1.8-1c-0.9,0-1.3,0.4-1.3,1.1c0,2,4.1,1.1,4.1,4c0,1.4-1.2,2.2-2.7,2.2
			C76.5,421.9,75.6,421.3,75,420.3z"/>
		<path fill="#353535" d="M81.8,417.8c0-2.8,1.5-4.1,3.1-4.1c1.8,0,2.8,1.4,2.8,4.1v0.3H83c0,1.9,0.8,2.9,1.9,2.9
			c0.9,0,1.4-0.5,1.9-1.4l0.8,0.5c-0.6,1.1-1.5,1.9-2.8,1.9C83.1,421.9,81.8,420.6,81.8,417.8z M86.5,417.1
			c-0.1-1.4-0.6-2.4-1.7-2.4c-0.9,0-1.7,0.7-1.8,2.4H86.5z"/>
		<path fill="#353535" d="M89.2,413.8h1.2v1.4h0c0.4-0.8,1.3-1.5,2.5-1.5h0.2l-0.1,1.1c0,0-0.2,0-0.3,0c-1,0-1.9,0.7-2.3,1.6v5.3
			h-1.2V413.8z"/>
		<path fill="#353535" d="M93.7,413.8h1.2l1.3,4.5c0.2,0.7,0.3,1.2,0.6,2.1h0c0.2-0.9,0.4-1.4,0.6-2.1l1.3-4.5h1.1l-2.4,8h-1.3
			L93.7,413.8z"/>
		<path fill="#353535" d="M100.6,417.8c0-2.8,1.5-4.1,3.1-4.1c1.8,0,2.8,1.4,2.8,4.1v0.3h-4.7c0,1.9,0.8,2.9,1.9,2.9
			c0.9,0,1.4-0.5,1.9-1.4l0.8,0.5c-0.6,1.1-1.5,1.9-2.8,1.9C101.9,421.9,100.6,420.6,100.6,417.8z M105.3,417.1
			c-0.1-1.4-0.6-2.4-1.7-2.4c-0.9,0-1.7,0.7-1.8,2.4H105.3z"/>
		<path fill="#353535" d="M110.6,419.9c0-1.6,1.3-2.7,4.4-3.3v-0.5c0-0.9-0.4-1.3-1.2-1.3c-1,0-1.7,0.5-2.3,1.1l-0.7-0.7
			c0.8-0.8,1.9-1.4,3.1-1.4c1.5,0,2.2,0.9,2.2,2.4v3.8c0,1,0,1.5,0.2,1.9h-1.2c-0.1-0.3-0.2-0.6-0.2-1c-0.6,0.7-1.5,1.1-2.5,1.1
			C111.3,421.9,110.6,421.1,110.6,419.9z M115,419.8v-2.4c-2.4,0.5-3.2,1.4-3.2,2.3c0,0.8,0.4,1.2,1.1,1.2
			C113.7,420.9,114.5,420.4,115,419.8z"/>
		<path fill="#353535" d="M118.1,413.8h1.2v1.1c0.5-0.6,1.5-1.3,2.5-1.3c1.3,0,2,0.8,2,2.2v5.9h-1.2v-5.6c0-0.9-0.3-1.4-1.1-1.4
			c-0.8,0-1.6,0.6-2.1,1.1v5.9h-1.2V413.8z"/>
		<path fill="#353535" d="M125.2,417.8c0-2.9,1.2-4.1,2.7-4.1c0.9,0,1.6,0.4,2.1,1.1v-4.1h1.2v9.2c0,1,0,1.5,0.2,1.9h-1.2
			c-0.1-0.3-0.2-0.8-0.2-1c-0.5,0.6-1.2,1.2-2.2,1.2C126.4,421.9,125.2,420.7,125.2,417.8z M130.1,419.8v-4
			c-0.6-0.7-1.2-1.1-1.9-1.1c-1.1,0-1.8,0.9-1.8,3.1c0,2.1,0.7,3,1.8,3C129,420.9,129.6,420.4,130.1,419.8z"/>
		<path fill="#353535" d="M21.1,438.8c0-2.8,1.5-4.1,3.1-4.1c1.8,0,2.8,1.4,2.8,4.1v0.3h-4.7c0,1.9,0.8,2.9,1.9,2.9
			c0.9,0,1.4-0.5,1.9-1.4l0.8,0.5c-0.6,1.1-1.5,1.9-2.8,1.9C22.4,442.9,21.1,441.6,21.1,438.8z M25.8,438.1
			c-0.1-1.4-0.6-2.4-1.7-2.4c-0.9,0-1.7,0.7-1.8,2.4H25.8z"/>
		<path fill="#353535" d="M30.2,438.6l-2.1-3.8h1.3l1.6,2.9l1.5-2.9h1.2l-2.1,3.8l2.4,4.2h-1.3l-1.8-3.3l-1.8,3.3h-1.2L30.2,438.6z"
			/>
		<path fill="#353535" d="M35.1,434.8h1.2v1c0.5-0.6,1.2-1.2,2.2-1.2c1.5,0,2.7,1.3,2.7,4.1c0,2.9-1.2,4.1-2.8,4.1
			c-0.9,0-1.6-0.4-2.1-1.1v4h-1.2V434.8z M39.9,438.8c0-2.1-0.7-3.1-1.8-3.1c-0.7,0-1.4,0.5-1.9,1.1v4c0.6,0.7,1.2,1.1,1.9,1.1
			C39.2,441.9,39.9,441,39.9,438.8z"/>
		<path fill="#353535" d="M42.3,438.8c0-2.8,1.5-4.1,3.1-4.1c1.8,0,2.8,1.4,2.8,4.1v0.3h-4.7c0,1.9,0.8,2.9,1.9,2.9
			c0.9,0,1.4-0.5,1.9-1.4l0.8,0.5c-0.6,1.1-1.5,1.9-2.8,1.9C43.6,442.9,42.3,441.6,42.3,438.8z M47,438.1c-0.1-1.4-0.6-2.4-1.7-2.4
			c-0.9,0-1.7,0.7-1.8,2.4H47z"/>
		<path fill="#353535" d="M49.7,434.8h1.2v1.4h0c0.4-0.8,1.3-1.5,2.5-1.5h0.2l-0.1,1.1c0,0-0.2,0-0.3,0c-1,0-1.9,0.7-2.3,1.6v5.3
			h-1.2V434.8z"/>
		<path fill="#353535" d="M55,432h1.2v1.3H55V432z M55,434.8h1.2v7.9H55V434.8z"/>
		<path fill="#353535" d="M57.8,438.8c0-2.8,1.5-4.1,3.1-4.1c1.8,0,2.8,1.4,2.8,4.1v0.3H59c0,1.9,0.8,2.9,1.9,2.9
			c0.9,0,1.4-0.5,1.9-1.4l0.8,0.5c-0.6,1.1-1.5,1.9-2.8,1.9C59.1,442.9,57.8,441.6,57.8,438.8z M62.5,438.1
			c-0.1-1.4-0.6-2.4-1.7-2.4c-0.9,0-1.7,0.7-1.8,2.4H62.5z"/>
		<path fill="#353535" d="M65.2,434.8h1.2v1.1c0.5-0.6,1.5-1.3,2.5-1.3c1.3,0,2,0.8,2,2.2v5.9h-1.2v-5.6c0-0.9-0.3-1.4-1.1-1.4
			c-0.8,0-1.6,0.6-2.1,1.1v5.9h-1.2V434.8z"/>
		<path fill="#353535" d="M72.4,438.8c0-2.8,1.4-4.1,3.1-4.1c1.6,0,2.3,1.1,2.7,2.4l-1.1,0.3c-0.3-1-0.7-1.6-1.6-1.6
			c-1,0-1.8,0.9-1.8,3.1c0,1.9,0.7,3.1,1.8,3.1c0.8,0,1.4-0.5,1.7-1.6l1.1,0.3c-0.4,1.5-1.3,2.4-2.8,2.4
			C73.8,442.9,72.4,441.5,72.4,438.8z"/>
		<path fill="#353535" d="M79.2,438.8c0-2.8,1.5-4.1,3.1-4.1c1.8,0,2.8,1.4,2.8,4.1v0.3h-4.7c0,1.9,0.8,2.9,1.9,2.9
			c0.9,0,1.4-0.5,1.9-1.4l0.8,0.5c-0.6,1.1-1.5,1.9-2.8,1.9C80.6,442.9,79.2,441.6,79.2,438.8z M84,438.1c-0.1-1.4-0.6-2.4-1.7-2.4
			c-0.9,0-1.7,0.7-1.8,2.4H84z"/>
		<path fill="#353535" d="M90.1,441v-5.1H89v-1h1.2V432h1.2v2.8h1.7v1h-1.7v4.9c0,0.8,0.2,1.2,1.1,1.2c0.2,0,0.5,0,0.7-0.1v1
			c-0.2,0.1-0.6,0.1-0.9,0.1C90.7,442.9,90.1,442.3,90.1,441z"/>
		<path fill="#353535" d="M94.2,438.8c0-2.7,1.4-4.1,3.1-4.1c1.8,0,3.1,1.4,3.1,4.1c0,2.7-1.4,4.1-3.1,4.1S94.2,441.5,94.2,438.8z
			 M99.2,438.8c0-1.7-0.6-3.1-1.9-3.1c-1.3,0-1.9,1.2-1.9,3.1c0,1.7,0.6,3.1,1.9,3.1C98.5,441.9,99.2,440.7,99.2,438.8z"/>
		<path fill="#353535" d="M104.6,438.8c0-2.9,1.2-4.1,2.7-4.1c0.9,0,1.6,0.4,2.1,1.1v-4.1h1.2v9.2c0,1,0,1.5,0.2,1.9h-1.2
			c-0.1-0.3-0.2-0.8-0.2-1c-0.5,0.6-1.2,1.2-2.2,1.2C105.7,442.9,104.6,441.7,104.6,438.8z M109.5,440.8v-4
			c-0.6-0.7-1.2-1.1-1.9-1.1c-1.1,0-1.8,0.9-1.8,3.1c0,2.1,0.7,3,1.8,3C108.3,441.9,109,441.4,109.5,440.8z"/>
		<path fill="#353535" d="M112.2,438.8c0-2.8,1.5-4.1,3.1-4.1c1.8,0,2.8,1.4,2.8,4.1v0.3h-4.7c0,1.9,0.8,2.9,1.9,2.9
			c0.9,0,1.4-0.5,1.9-1.4l0.8,0.5c-0.6,1.1-1.5,1.9-2.8,1.9C113.5,442.9,112.2,441.6,112.2,438.8z M116.9,438.1
			c-0.1-1.4-0.6-2.4-1.7-2.4c-0.9,0-1.7,0.7-1.8,2.4H116.9z"/>
		<path fill="#353535" d="M118.9,441.3l0.8-0.6c0.5,0.8,1.3,1.2,2.1,1.2c1,0,1.6-0.4,1.6-1.2c0-1.9-4.1-1.2-4.1-4
			c0-1.3,1-2.1,2.5-2.1c1.2,0,2,0.6,2.6,1.4l-0.8,0.6c-0.4-0.6-1-1-1.8-1c-0.9,0-1.3,0.4-1.3,1.1c0,2,4.1,1.1,4.1,4
			c0,1.4-1.2,2.2-2.7,2.2C120.5,442.9,119.6,442.3,118.9,441.3z"/>
		<path fill="#353535" d="M126.2,432h1.2v1.3h-1.2V432z M126.2,434.8h1.2v7.9h-1.2V434.8z"/>
		<path fill="#353535" d="M135.5,434.7v1.1c-0.4,0-0.8,0-1.2,0.2c0.2,0.4,0.4,0.9,0.4,1.5c0,1.8-1.1,2.8-2.7,2.8
			c-0.4,0-0.8-0.1-1.1-0.2c-0.3,0.1-0.5,0.3-0.5,0.6c0,0.3,0.2,0.4,0.9,0.5l1.2,0.2c1.9,0.2,2.7,0.8,2.7,2c0,1.4-1.5,2.2-3.4,2.2
			c-2.3,0-3.1-0.7-3.1-1.9c0-0.8,0.5-1.4,1.3-1.8c-0.4-0.2-0.7-0.5-0.7-1c0-0.5,0.4-0.9,0.9-1.2c-0.7-0.5-1-1.3-1-2.3
			c0-1.7,1.2-2.9,2.8-2.9c0.8,0,1.5,0.3,2,0.8C134.3,435.1,135,434.8,135.5,434.7z M129.8,443.7c0,0.8,0.5,1.2,2.1,1.2
			c1.3,0,2.2-0.5,2.2-1.2c0-0.6-0.4-1-1.8-1.2l-1.3-0.2c-0.1,0-0.2,0-0.2,0C130.2,442.6,129.8,443.2,129.8,443.7z M133.5,437.6
			c0-1.2-0.6-1.9-1.6-1.9c-1,0-1.6,0.8-1.6,1.9c0,1.2,0.6,1.9,1.6,1.9C132.9,439.5,133.5,438.7,133.5,437.6z"/>
		<path fill="#353535" d="M136.8,434.8h1.2v1.1c0.5-0.6,1.5-1.3,2.5-1.3c1.3,0,2,0.8,2,2.2v5.9h-1.2v-5.6c0-0.9-0.3-1.4-1.1-1.4
			c-0.8,0-1.6,0.6-2.1,1.1v5.9h-1.2V434.8z"/>
		<path fill="#353535" d="M146.7,434.8h1.2l1,4c0.2,0.8,0.3,1.3,0.5,2.2h0c0.2-0.9,0.3-1.4,0.5-2.2l0.9-3.9h1.1l0.9,3.9
			c0.2,0.8,0.3,1.4,0.5,2.3h0c0.2-0.9,0.3-1.5,0.5-2.3l0.9-3.9h1.1l-2,8h-1.1l-1.4-6h0l-1.4,6h-1L146.7,434.8z"/>
		<path fill="#353535" d="M157,432h1.2v1.3H157V432z M157,434.8h1.2v7.9H157V434.8z"/>
		<path fill="#353535" d="M160.7,441v-5.1h-1.2v-1h1.2V432h1.2v2.8h1.7v1h-1.7v4.9c0,0.8,0.2,1.2,1.1,1.2c0.2,0,0.5,0,0.7-0.1v1
			c-0.2,0.1-0.6,0.1-0.9,0.1C161.2,442.9,160.7,442.3,160.7,441z"/>
		<path fill="#353535" d="M165.1,431.7h1.2v4.3c0.5-0.6,1.5-1.3,2.5-1.3c1.3,0,2,0.8,2,2.2v5.9h-1.2v-5.6c0-0.9-0.3-1.4-1.1-1.4
			c-0.8,0-1.6,0.6-2.1,1.1v5.9h-1.2V431.7z"/>
		<path fill="#353535" d="M21.1,459.8c0-2.8,1.5-4.1,3.1-4.1c1.8,0,2.8,1.4,2.8,4.1v0.3h-4.7c0,1.9,0.8,2.9,1.9,2.9
			c0.9,0,1.4-0.5,1.9-1.4l0.8,0.5c-0.6,1.1-1.5,1.9-2.8,1.9C22.4,463.9,21.1,462.6,21.1,459.8z M25.8,459.1
			c-0.1-1.4-0.6-2.4-1.7-2.4c-0.9,0-1.7,0.7-1.8,2.4H25.8z"/>
		<path fill="#353535" d="M28.5,455.8h1.2v1.1c0.6-0.6,1.4-1.3,2.4-1.3c1.1,0,1.6,0.4,1.8,1.3c0.6-0.6,1.5-1.3,2.5-1.3
			c1.3,0,1.9,0.8,1.9,2.2v5.9h-1.2v-5.6c0-0.9-0.3-1.4-1.1-1.4c-0.7,0-1.4,0.5-2,1.1v6h-1.2v-5.6c0-0.9-0.2-1.4-1.1-1.4
			c-0.7,0-1.4,0.5-2,1.1v5.9h-1.2V455.8z"/>
		<path fill="#353535" d="M40.2,455.8h1.2v1c0.5-0.6,1.2-1.2,2.2-1.2c1.5,0,2.7,1.3,2.7,4.1c0,2.9-1.2,4.1-2.8,4.1
			c-0.9,0-1.6-0.4-2.1-1.1v4h-1.2V455.8z M45,459.8c0-2.1-0.7-3.1-1.8-3.1c-0.7,0-1.4,0.5-1.9,1.1v4c0.6,0.7,1.2,1.1,1.9,1.1
			C44.3,462.9,45,462,45,459.8z"/>
		<path fill="#353535" d="M47.4,461.9c0-1.6,1.3-2.7,4.4-3.3v-0.5c0-0.9-0.4-1.3-1.2-1.3c-1,0-1.7,0.5-2.3,1.1l-0.7-0.7
			c0.8-0.8,1.9-1.4,3.1-1.4c1.5,0,2.2,0.9,2.2,2.4v3.8c0,1,0,1.5,0.2,1.9H52c-0.1-0.3-0.2-0.6-0.2-1c-0.6,0.7-1.5,1.1-2.5,1.1
			C48.1,463.9,47.4,463.1,47.4,461.9z M51.8,461.8v-2.4c-2.4,0.5-3.2,1.4-3.2,2.3c0,0.8,0.4,1.2,1.1,1.2
			C50.5,462.9,51.3,462.4,51.8,461.8z"/>
		<path fill="#353535" d="M55.3,462v-5.1h-1.2v-1h1.2V453h1.2v2.8h1.7v1h-1.7v4.9c0,0.8,0.2,1.2,1,1.2c0.2,0,0.5,0,0.7-0.1v1
			c-0.2,0.1-0.6,0.1-0.9,0.1C55.9,463.9,55.3,463.3,55.3,462z"/>
		<path fill="#353535" d="M59.7,452.7H61v4.3c0.5-0.6,1.5-1.3,2.5-1.3c1.3,0,2,0.8,2,2.2v5.9h-1.2v-5.6c0-0.9-0.3-1.4-1.1-1.4
			c-0.8,0-1.6,0.6-2.1,1.1v5.9h-1.2V452.7z"/>
		<path fill="#353535" d="M66.4,466.6l0.2-1c0.2,0,0.6,0.1,1,0.1c0.7,0,1-0.4,1.2-1.2l0.2-0.7l-2.5-8h1.2L69,460
			c0.3,0.9,0.4,1.5,0.6,2.4h0c0.2-0.9,0.4-1.6,0.7-2.5l1.2-4.1h1.2l-2.7,8.8c-0.5,1.5-1,2.1-2.3,2.1
			C67.1,466.8,66.6,466.7,66.4,466.6z"/>
		<path fill="#353535" d="M74.2,462.2h1.4v1.6h-1.4V462.2z"/>
	</g>
</g>
<g>
	<g>
		<path fill="#353535" d="M228.9,529.3c3.5,0,6,2.3,6,5.6c0,3.3-2.5,5.6-6.1,5.6h-4.7v-11.2H228.9z M226.9,538.3h2
			c1.7,0,3-1.3,3-3.3c0-2-1.3-3.3-3.1-3.3h-1.9V538.3z"/>
		<path fill="#353535" d="M238,540.5v-11.2h2.8v11.2H238z"/>
		<path fill="#353535" d="M254.6,534.8v4.4c-1.2,0.8-3.1,1.5-4.7,1.5c-3.4,0-6-2.5-6-5.7c0-3.2,2.6-5.7,6.2-5.7
			c1.7,0,3.4,0.6,4.6,1.7l-1.6,1.9c-0.8-0.8-2-1.2-3-1.2c-1.8,0-3.2,1.4-3.2,3.3c0,1.9,1.4,3.3,3.3,3.3c0.6,0,1.3-0.2,2-0.5v-2.9
			H254.6z"/>
		<path fill="#353535" d="M258.1,540.5v-11.2h2.8v11.2H258.1z"/>
		<path fill="#353535" d="M270,531.6v8.9h-2.8v-8.9h-3.3v-2.3h9.6v2.3H270z"/>
		<path fill="#353535" d="M277.5,538.5l-0.8,2.1h-2.9l4.8-11.2h2.9l4.7,11.2h-3l-0.8-2.1H277.5z M280,532.2l-1.6,4.1h3.2L280,532.2z
			"/>
		<path fill="#353535" d="M296.5,538.1v2.4h-7.6v-11.2h2.8v8.8H296.5z"/>
		<path fill="#353535" d="M224.1,550.4h2.4c3.1,0,4.7,1.6,4.7,5.5c0,3.9-1.7,5.6-4.7,5.6h-2.4V550.4z M226.7,560.4
			c2.2,0,3.3-1.3,3.3-4.4c0-3-1-4.4-3.3-4.4h-1.3v8.8H226.7z"/>
		<path fill="#353535" d="M233,550.7h1.2v1.3H233V550.7z M233,553.6h1.2v7.9H233V553.6z"/>
		<path fill="#353535" d="M242.3,553.5v1.1c-0.4,0-0.8,0-1.2,0.2c0.2,0.4,0.4,0.9,0.4,1.5c0,1.8-1.1,2.8-2.7,2.8
			c-0.4,0-0.8-0.1-1.1-0.2c-0.3,0.1-0.5,0.3-0.5,0.6c0,0.3,0.2,0.4,0.9,0.5l1.2,0.2c1.9,0.2,2.7,0.8,2.7,2c0,1.4-1.5,2.2-3.4,2.2
			c-2.3,0-3.1-0.7-3.1-1.9c0-0.8,0.5-1.4,1.3-1.8c-0.4-0.2-0.7-0.5-0.7-1c0-0.5,0.4-0.9,0.9-1.2c-0.7-0.5-1-1.3-1-2.3
			c0-1.7,1.2-2.9,2.8-2.9c0.8,0,1.5,0.3,2,0.8C241.1,553.9,241.7,553.6,242.3,553.5z M236.6,562.4c0,0.8,0.5,1.2,2.1,1.2
			c1.3,0,2.2-0.5,2.2-1.2c0-0.6-0.4-1-1.8-1.2l-1.3-0.2c-0.1,0-0.2,0-0.2,0C236.9,561.4,236.6,561.9,236.6,562.4z M240.3,556.3
			c0-1.2-0.6-1.9-1.6-1.9c-1,0-1.6,0.8-1.6,1.9c0,1.2,0.6,1.9,1.6,1.9C239.7,558.2,240.3,557.5,240.3,556.3z"/>
		<path fill="#353535" d="M243.7,550.7h1.2v1.3h-1.2V550.7z M243.7,553.6h1.2v7.9h-1.2V553.6z"/>
		<path fill="#353535" d="M247.4,559.7v-5.1h-1.2v-1h1.2v-2.8h1.2v2.8h1.7v1h-1.7v4.9c0,0.8,0.2,1.2,1,1.2c0.2,0,0.5,0,0.7-0.1v1
			c-0.2,0.1-0.6,0.1-0.9,0.1C247.9,561.6,247.4,561.1,247.4,559.7z"/>
		<path fill="#353535" d="M251.4,559.7c0-1.6,1.3-2.7,4.4-3.3v-0.5c0-0.9-0.4-1.3-1.2-1.3c-1,0-1.7,0.5-2.3,1.1l-0.7-0.7
			c0.8-0.8,1.9-1.4,3.1-1.4c1.5,0,2.2,0.9,2.2,2.4v3.8c0,1,0,1.5,0.2,1.9H256c-0.1-0.3-0.2-0.6-0.2-1c-0.6,0.7-1.5,1.1-2.5,1.1
			C252.1,561.6,251.4,560.9,251.4,559.7z M255.8,559.6v-2.4c-2.4,0.5-3.2,1.4-3.2,2.3c0,0.8,0.4,1.2,1.1,1.2
			C254.5,560.6,255.2,560.2,255.8,559.6z"/>
		<path fill="#353535" d="M258.9,550.4h1.2v11.1h-1.2V550.4z"/>
		<path fill="#353535" d="M265.6,559.7v-5.1h-1.2v-1h1.2v-2.8h1.2v2.8h1.7v1h-1.7v4.9c0,0.8,0.2,1.2,1,1.2c0.2,0,0.5,0,0.7-0.1v1
			c-0.2,0.1-0.6,0.1-0.9,0.1C266.2,561.6,265.6,561.1,265.6,559.7z"/>
		<path fill="#353535" d="M269.6,557.6c0-2.7,1.4-4.1,3.1-4.1c1.8,0,3.1,1.4,3.1,4.1c0,2.7-1.4,4.1-3.1,4.1S269.6,560.3,269.6,557.6
			z M274.7,557.6c0-1.7-0.6-3.1-1.9-3.1c-1.3,0-1.9,1.2-1.9,3.1c0,1.7,0.6,3.1,1.9,3.1C274,560.7,274.7,559.4,274.7,557.6z"/>
		<path fill="#353535" d="M277.1,557.6c0-2.7,1.4-4.1,3.1-4.1c1.8,0,3.1,1.4,3.1,4.1c0,2.7-1.4,4.1-3.1,4.1S277.1,560.3,277.1,557.6
			z M282.1,557.6c0-1.7-0.6-3.1-1.9-3.1c-1.3,0-1.9,1.2-1.9,3.1c0,1.7,0.6,3.1,1.9,3.1C281.5,560.7,282.1,559.4,282.1,557.6z"/>
		<path fill="#353535" d="M284.9,550.4h1.2v11.1h-1.2V550.4z"/>
		<path fill="#353535" d="M287.5,560.1l0.8-0.6c0.5,0.8,1.3,1.2,2.1,1.2c1,0,1.6-0.4,1.6-1.2c0-1.9-4.1-1.2-4.1-4
			c0-1.3,1-2.1,2.5-2.1c1.2,0,2,0.6,2.6,1.4l-0.8,0.6c-0.4-0.6-1-1-1.8-1c-0.9,0-1.3,0.4-1.3,1.1c0,2,4.1,1.1,4.1,4
			c0,1.4-1.2,2.2-2.7,2.2C289.1,561.7,288.1,561.1,287.5,560.1z"/>
		<path fill="#353535" d="M297.7,550.4h1.2v4.3c0.5-0.6,1.5-1.3,2.5-1.3c1.3,0,2,0.8,2,2.2v5.9h-1.2v-5.6c0-0.9-0.3-1.4-1.1-1.4
			c-0.8,0-1.6,0.6-2.1,1.1v5.9h-1.2V550.4z"/>
		<path fill="#353535" d="M304.8,557.6c0-2.8,1.5-4.1,3.1-4.1c1.8,0,2.8,1.4,2.8,4.1v0.3H306c0,1.9,0.8,2.9,1.9,2.9
			c0.9,0,1.4-0.5,1.9-1.4l0.8,0.5c-0.6,1.1-1.5,1.9-2.8,1.9C306.1,561.7,304.8,560.3,304.8,557.6z M309.5,556.9
			c-0.1-1.4-0.6-2.4-1.7-2.4c-0.9,0-1.7,0.7-1.8,2.4H309.5z"/>
		<path fill="#353535" d="M312.3,550.4h1.2v11.1h-1.2V550.4z"/>
		<path fill="#353535" d="M315.5,553.6h1.2v1c0.5-0.6,1.2-1.2,2.2-1.2c1.5,0,2.7,1.3,2.7,4.1c0,2.9-1.2,4.1-2.8,4.1
			c-0.9,0-1.6-0.4-2.1-1.1v4h-1.2V553.6z M320.4,557.6c0-2.1-0.7-3.1-1.8-3.1c-0.7,0-1.4,0.5-1.9,1.1v4c0.6,0.7,1.2,1.1,1.9,1.1
			C319.7,560.6,320.4,559.7,320.4,557.6z"/>
		<path fill="#353535" d="M326.1,559.5v-5.9h1.2v5.7c0,0.9,0.3,1.4,1.2,1.4c0.8,0,1.4-0.5,2.1-1.1v-5.9h1.2v7.9h-1.2v-1.1
			c-0.6,0.7-1.5,1.3-2.5,1.3C326.8,561.7,326.1,560.9,326.1,559.5z"/>
		<path fill="#353535" d="M333,560.1l0.8-0.6c0.5,0.8,1.3,1.2,2.1,1.2c1,0,1.6-0.4,1.6-1.2c0-1.9-4.1-1.2-4.1-4c0-1.3,1-2.1,2.5-2.1
			c1.2,0,2,0.6,2.6,1.4l-0.8,0.6c-0.4-0.6-1-1-1.8-1c-0.9,0-1.3,0.4-1.3,1.1c0,2,4.1,1.1,4.1,4c0,1.4-1.2,2.2-2.7,2.2
			C334.6,561.7,333.6,561.1,333,560.1z"/>
		<path fill="#353535" d="M343.3,550.7h1.2v1.3h-1.2V550.7z M343.3,553.6h1.2v7.9h-1.2V553.6z"/>
		<path fill="#353535" d="M346.5,553.6h1.2v1.1c0.6-0.6,1.4-1.3,2.4-1.3c1.1,0,1.6,0.4,1.8,1.3c0.6-0.6,1.5-1.3,2.5-1.3
			c1.3,0,1.9,0.8,1.9,2.2v5.9h-1.2v-5.6c0-0.9-0.3-1.4-1.1-1.4c-0.7,0-1.4,0.5-2,1.1v6h-1.2v-5.6c0-0.9-0.2-1.4-1.1-1.4
			c-0.7,0-1.4,0.5-2,1.1v5.9h-1.2V553.6z"/>
		<path fill="#353535" d="M358.2,553.6h1.2v1c0.5-0.6,1.2-1.2,2.2-1.2c1.5,0,2.7,1.3,2.7,4.1c0,2.9-1.2,4.1-2.8,4.1
			c-0.9,0-1.6-0.4-2.1-1.1v4h-1.2V553.6z M363,557.6c0-2.1-0.7-3.1-1.8-3.1c-0.7,0-1.4,0.5-1.9,1.1v4c0.6,0.7,1.2,1.1,1.9,1.1
			C362.3,560.6,363,559.7,363,557.6z"/>
		<path fill="#353535" d="M365.8,553.6h1.2v1.4h0c0.4-0.8,1.3-1.5,2.5-1.5h0.2l-0.1,1.1c0,0-0.2,0-0.3,0c-1,0-1.9,0.7-2.3,1.6v5.3
			h-1.2V553.6z"/>
		<path fill="#353535" d="M370.6,557.6c0-2.7,1.4-4.1,3.1-4.1c1.8,0,3.1,1.4,3.1,4.1c0,2.7-1.4,4.1-3.1,4.1S370.6,560.3,370.6,557.6
			z M375.6,557.6c0-1.7-0.6-3.1-1.9-3.1c-1.3,0-1.9,1.2-1.9,3.1c0,1.7,0.6,3.1,1.9,3.1C375,560.7,375.6,559.4,375.6,557.6z"/>
		<path fill="#353535" d="M377.7,553.6h1.2l1.3,4.5c0.2,0.7,0.3,1.2,0.6,2.1h0c0.2-0.9,0.4-1.4,0.6-2.1l1.3-4.5h1.1l-2.4,8h-1.3
			L377.7,553.6z"/>
		<path fill="#353535" d="M384.6,557.6c0-2.8,1.5-4.1,3.1-4.1c1.8,0,2.8,1.4,2.8,4.1v0.3h-4.7c0,1.9,0.8,2.9,1.9,2.9
			c0.9,0,1.4-0.5,1.9-1.4l0.8,0.5c-0.6,1.1-1.5,1.9-2.8,1.9C386,561.7,384.6,560.3,384.6,557.6z M389.4,556.9
			c-0.1-1.4-0.6-2.4-1.7-2.4c-0.9,0-1.7,0.7-1.8,2.4H389.4z"/>
		<path fill="#353535" d="M223.5,580.7c0-1.6,1.3-2.7,4.4-3.3v-0.5c0-0.9-0.4-1.3-1.2-1.3c-1,0-1.7,0.5-2.3,1.1l-0.7-0.7
			c0.8-0.8,1.9-1.4,3.1-1.4c1.5,0,2.2,0.9,2.2,2.4v3.8c0,1,0,1.5,0.2,1.9h-1.2c-0.1-0.3-0.2-0.6-0.2-1c-0.6,0.7-1.5,1.1-2.5,1.1
			C224.2,582.6,223.5,581.9,223.5,580.7z M227.9,580.6v-2.4c-2.4,0.5-3.2,1.4-3.2,2.3c0,0.8,0.4,1.2,1.1,1.2
			C226.6,581.6,227.4,581.2,227.9,580.6z"/>
		<path fill="#353535" d="M230.6,578.6c0-2.8,1.4-4.1,3.1-4.1c1.6,0,2.3,1.1,2.7,2.4l-1.1,0.3c-0.3-1-0.7-1.6-1.6-1.6
			c-1,0-1.8,0.9-1.8,3.1c0,1.9,0.7,3.1,1.8,3.1c0.8,0,1.4-0.5,1.7-1.6l1.1,0.3c-0.4,1.5-1.3,2.4-2.8,2.4
			C232,582.7,230.6,581.3,230.6,578.6z"/>
		<path fill="#353535" d="M237.5,578.6c0-2.8,1.4-4.1,3.1-4.1c1.6,0,2.3,1.1,2.7,2.4l-1.1,0.3c-0.3-1-0.7-1.6-1.6-1.6
			c-1,0-1.8,0.9-1.8,3.1c0,1.9,0.7,3.1,1.8,3.1c0.8,0,1.4-0.5,1.7-1.6l1.1,0.3c-0.4,1.5-1.3,2.4-2.8,2.4
			C238.8,582.7,237.5,581.3,237.5,578.6z"/>
		<path fill="#353535" d="M244.3,578.6c0-2.8,1.5-4.1,3.1-4.1c1.8,0,2.8,1.4,2.8,4.1v0.3h-4.7c0,1.9,0.8,2.9,1.9,2.9
			c0.9,0,1.4-0.5,1.9-1.4l0.8,0.5c-0.6,1.1-1.5,1.9-2.8,1.9C245.6,582.7,244.3,581.3,244.3,578.6z M249,577.9
			c-0.1-1.4-0.6-2.4-1.7-2.4c-0.9,0-1.7,0.7-1.8,2.4H249z"/>
		<path fill="#353535" d="M251.1,581.1l0.8-0.6c0.5,0.8,1.3,1.2,2.1,1.2c1,0,1.6-0.4,1.6-1.2c0-1.9-4.1-1.2-4.1-4
			c0-1.3,1-2.1,2.5-2.1c1.2,0,2,0.6,2.6,1.4l-0.8,0.6c-0.4-0.6-1-1-1.8-1c-0.9,0-1.3,0.4-1.3,1.1c0,2,4.1,1.1,4.1,4
			c0,1.4-1.2,2.2-2.7,2.2C252.7,582.7,251.7,582.1,251.1,581.1z"/>
		<path fill="#353535" d="M257.6,581.1l0.8-0.6c0.5,0.8,1.3,1.2,2.1,1.2c1,0,1.6-0.4,1.6-1.2c0-1.9-4.1-1.2-4.1-4
			c0-1.3,1-2.1,2.5-2.1c1.2,0,2,0.6,2.6,1.4l-0.8,0.6c-0.4-0.6-1-1-1.8-1c-0.9,0-1.3,0.4-1.3,1.1c0,2,4.1,1.1,4.1,4
			c0,1.4-1.2,2.2-2.7,2.2C259.2,582.7,258.2,582.1,257.6,581.1z"/>
		<path fill="#353535" d="M265.4,582.5h-0.6V581h1.4v1.4l-0.7,1.7H265L265.4,582.5z"/>
		<path fill="#353535" d="M270.9,578.6c0-2.8,1.5-4.1,3.1-4.1c1.8,0,2.8,1.4,2.8,4.1v0.3h-4.7c0,1.9,0.8,2.9,1.9,2.9
			c0.9,0,1.4-0.5,1.9-1.4l0.8,0.5c-0.6,1.1-1.5,1.9-2.8,1.9C272.3,582.7,270.9,581.3,270.9,578.6z M275.7,577.9
			c-0.1-1.4-0.6-2.4-1.7-2.4c-0.9,0-1.7,0.7-1.8,2.4H275.7z"/>
		<path fill="#353535" d="M278.9,575.6h-1.2v-1h1.2v-1.2c0-1.3,0.7-2,2.2-2c0.1,0,0.6,0,0.6,0v1c0,0-0.4,0-0.5,0
			c-0.6,0-1.1,0.2-1.1,1v1.2h1.5v1h-1.5v6.9h-1.2V575.6z"/>
		<path fill="#353535" d="M283.3,575.6h-1.2v-1h1.2v-1.2c0-1.3,0.7-2,2.2-2c0.1,0,0.6,0,0.6,0v1c0,0-0.4,0-0.5,0
			c-0.6,0-1.1,0.2-1.1,1v1.2h1.5v1h-1.5v6.9h-1.2V575.6z"/>
		<path fill="#353535" d="M287.3,571.7h1.2v1.3h-1.2V571.7z M287.3,574.6h1.2v7.9h-1.2V574.6z"/>
		<path fill="#353535" d="M290.2,578.6c0-2.8,1.4-4.1,3.1-4.1c1.6,0,2.3,1.1,2.7,2.4l-1.1,0.3c-0.3-1-0.7-1.6-1.6-1.6
			c-1,0-1.8,0.9-1.8,3.1c0,1.9,0.7,3.1,1.8,3.1c0.8,0,1.4-0.5,1.7-1.6l1.1,0.3c-0.4,1.5-1.3,2.4-2.8,2.4
			C291.5,582.7,290.2,581.3,290.2,578.6z"/>
		<path fill="#353535" d="M297.5,571.7h1.2v1.3h-1.2V571.7z M297.5,574.6h1.2v7.9h-1.2V574.6z"/>
		<path fill="#353535" d="M300.3,578.6c0-2.8,1.5-4.1,3.1-4.1c1.8,0,2.8,1.4,2.8,4.1v0.3h-4.7c0,1.9,0.8,2.9,1.9,2.9
			c0.9,0,1.4-0.5,1.9-1.4l0.8,0.5c-0.6,1.1-1.5,1.9-2.8,1.9C301.7,582.7,300.3,581.3,300.3,578.6z M305.1,577.9
			c-0.1-1.4-0.6-2.4-1.7-2.4c-0.9,0-1.7,0.7-1.8,2.4H305.1z"/>
		<path fill="#353535" d="M307.8,574.6h1.2v1.1c0.5-0.6,1.5-1.3,2.5-1.3c1.3,0,2,0.8,2,2.2v5.9h-1.2v-5.6c0-0.9-0.3-1.4-1.1-1.4
			c-0.8,0-1.6,0.6-2.1,1.1v5.9h-1.2V574.6z"/>
		<path fill="#353535" d="M314.9,578.6c0-2.8,1.4-4.1,3.1-4.1c1.6,0,2.3,1.1,2.7,2.4l-1.1,0.3c-0.3-1-0.7-1.6-1.6-1.6
			c-1,0-1.8,0.9-1.8,3.1c0,1.9,0.7,3.1,1.8,3.1c0.8,0,1.4-0.5,1.7-1.6l1.1,0.3c-0.4,1.5-1.3,2.4-2.8,2.4
			C316.3,582.7,314.9,581.3,314.9,578.6z"/>
		<path fill="#353535" d="M321.3,585.4l0.2-1c0.2,0,0.6,0.1,1,0.1c0.7,0,1-0.4,1.2-1.2l0.2-0.7l-2.5-8h1.2l1.2,4.1
			c0.3,0.9,0.4,1.5,0.6,2.4h0c0.2-0.9,0.4-1.6,0.7-2.5l1.2-4.1h1.2l-2.7,8.8c-0.5,1.5-1,2.1-2.3,2.1
			C322,585.5,321.5,585.4,321.3,585.4z"/>
		<path fill="#353535" d="M329.6,582.5h-0.6V581h1.4v1.4l-0.7,1.7h-0.6L329.6,582.5z"/>
		<path fill="#353535" d="M335.1,578.6c0-2.9,1.2-4.1,2.7-4.1c0.9,0,1.6,0.4,2.1,1.1v-4.1h1.2v9.2c0,1,0,1.5,0.2,1.9h-1.2
			c-0.1-0.3-0.2-0.8-0.2-1c-0.5,0.6-1.2,1.2-2.2,1.2C336.3,582.6,335.1,581.4,335.1,578.6z M340,580.6v-4c-0.6-0.7-1.2-1.1-1.9-1.1
			c-1.1,0-1.8,0.9-1.8,3.1c0,2.1,0.7,3,1.8,3C338.9,581.6,339.5,581.1,340,580.6z"/>
		<path fill="#353535" d="M342.7,580.7c0-1.6,1.3-2.7,4.4-3.3v-0.5c0-0.9-0.4-1.3-1.2-1.3c-1,0-1.7,0.5-2.3,1.1l-0.7-0.7
			c0.8-0.8,1.9-1.4,3.1-1.4c1.5,0,2.2,0.9,2.2,2.4v3.8c0,1,0,1.5,0.2,1.9h-1.2c-0.1-0.3-0.2-0.6-0.2-1c-0.6,0.7-1.5,1.1-2.5,1.1
			C343.4,582.6,342.7,581.9,342.7,580.7z M347.1,580.6v-2.4c-2.4,0.5-3.2,1.4-3.2,2.3c0,0.8,0.4,1.2,1.1,1.2
			C345.8,581.6,346.6,581.2,347.1,580.6z"/>
		<path fill="#353535" d="M350.7,580.7v-5.1h-1.2v-1h1.2v-2.8h1.2v2.8h1.7v1h-1.7v4.9c0,0.8,0.2,1.2,1,1.2c0.2,0,0.5,0,0.7-0.1v1
			c-0.2,0.1-0.6,0.1-0.9,0.1C351.2,582.6,350.7,582.1,350.7,580.7z"/>
		<path fill="#353535" d="M354.6,580.7c0-1.6,1.3-2.7,4.4-3.3v-0.5c0-0.9-0.4-1.3-1.2-1.3c-1,0-1.7,0.5-2.3,1.1l-0.7-0.7
			c0.8-0.8,1.9-1.4,3.1-1.4c1.5,0,2.2,0.9,2.2,2.4v3.8c0,1,0,1.5,0.2,1.9h-1.2c-0.1-0.3-0.2-0.6-0.2-1c-0.6,0.7-1.5,1.1-2.5,1.1
			C355.3,582.6,354.6,581.9,354.6,580.7z M359.1,580.6v-2.4c-2.4,0.5-3.2,1.4-3.2,2.3c0,0.8,0.4,1.2,1.1,1.2
			C357.8,581.6,358.5,581.2,359.1,580.6z"/>
		<path fill="#353535" d="M364.7,580.7c0-1.6,1.3-2.7,4.4-3.3v-0.5c0-0.9-0.4-1.3-1.2-1.3c-1,0-1.7,0.5-2.3,1.1l-0.7-0.7
			c0.8-0.8,1.9-1.4,3.1-1.4c1.5,0,2.2,0.9,2.2,2.4v3.8c0,1,0,1.5,0.2,1.9h-1.2c-0.1-0.3-0.2-0.6-0.2-1c-0.6,0.7-1.5,1.1-2.5,1.1
			C365.4,582.6,364.7,581.9,364.7,580.7z M369.1,580.6v-2.4c-2.4,0.5-3.2,1.4-3.2,2.3c0,0.8,0.4,1.2,1.1,1.2
			C367.8,581.6,368.6,581.2,369.1,580.6z"/>
		<path fill="#353535" d="M372.2,574.6h1.2v1.1c0.5-0.6,1.5-1.3,2.5-1.3c1.3,0,2,0.8,2,2.2v5.9h-1.2v-5.6c0-0.9-0.3-1.4-1.1-1.4
			c-0.8,0-1.6,0.6-2.1,1.1v5.9h-1.2V574.6z"/>
		<path fill="#353535" d="M379.3,578.6c0-2.9,1.2-4.1,2.7-4.1c0.9,0,1.6,0.4,2.1,1.1v-4.1h1.2v9.2c0,1,0,1.5,0.2,1.9h-1.2
			c-0.1-0.3-0.2-0.8-0.2-1c-0.5,0.6-1.2,1.2-2.2,1.2C380.5,582.6,379.3,581.4,379.3,578.6z M384.2,580.6v-4
			c-0.6-0.7-1.2-1.1-1.9-1.1c-1.1,0-1.8,0.9-1.8,3.1c0,2.1,0.7,3,1.8,3C383.1,581.6,383.7,581.1,384.2,580.6z"/>
		<path fill="#353535" d="M223.9,595.6h1.2v1.1c0.6-0.6,1.4-1.3,2.4-1.3c1.1,0,1.6,0.4,1.8,1.3c0.6-0.6,1.5-1.3,2.5-1.3
			c1.3,0,1.9,0.8,1.9,2.2v5.9h-1.2v-5.6c0-0.9-0.3-1.4-1.1-1.4c-0.7,0-1.4,0.5-2,1.1v6h-1.2v-5.6c0-0.9-0.2-1.4-1.1-1.4
			c-0.7,0-1.4,0.5-2,1.1v5.9h-1.2V595.6z"/>
		<path fill="#353535" d="M235.2,599.6c0-2.7,1.4-4.1,3.1-4.1c1.8,0,3.1,1.4,3.1,4.1c0,2.7-1.4,4.1-3.1,4.1S235.2,602.3,235.2,599.6
			z M240.3,599.6c0-1.7-0.6-3.1-1.9-3.1c-1.3,0-1.9,1.2-1.9,3.1c0,1.7,0.6,3.1,1.9,3.1C239.6,602.7,240.3,601.4,240.3,599.6z"/>
		<path fill="#353535" d="M243,595.6h1.2v1.4h0c0.4-0.8,1.3-1.5,2.5-1.5h0.2l-0.1,1.1c0,0-0.2,0-0.3,0c-1,0-1.9,0.7-2.3,1.6v5.3H243
			V595.6z"/>
		<path fill="#353535" d="M247.8,599.6c0-2.8,1.5-4.1,3.1-4.1c1.8,0,2.8,1.4,2.8,4.1v0.3H249c0,1.9,0.8,2.9,1.9,2.9
			c0.9,0,1.4-0.5,1.9-1.4l0.8,0.5c-0.6,1.1-1.5,1.9-2.8,1.9C249.2,603.7,247.8,602.3,247.8,599.6z M252.6,598.9
			c-0.1-1.4-0.6-2.4-1.7-2.4c-0.9,0-1.7,0.7-1.8,2.4H252.6z"/>
		<path fill="#353535" d="M255.4,602h1.4v1.6h-1.4V602z"/>
		<path fill="#353535" d="M261.3,592.4h1.2l1.2,5.7c0.3,1.2,0.4,1.9,0.7,3.3h0c0.2-1.4,0.4-2.1,0.6-3.3l1.1-5.7h1.1l1.2,5.8
			c0.2,1.1,0.4,2,0.6,3.1h0c0.2-1.1,0.4-2,0.6-3.1l1.2-5.8h1.1l-2.5,11.1h-1.1l-1.8-8.9h0l-1.8,8.9h-1.1L261.3,592.4z"/>
		<path fill="#353535" d="M273.1,599.6c0-2.8,1.5-4.1,3.1-4.1c1.8,0,2.8,1.4,2.8,4.1v0.3h-4.7c0,1.9,0.8,2.9,1.9,2.9
			c0.9,0,1.4-0.5,1.9-1.4l0.8,0.5c-0.6,1.1-1.5,1.9-2.8,1.9C274.4,603.7,273.1,602.3,273.1,599.6z M277.8,598.9
			c-0.1-1.4-0.6-2.4-1.7-2.4c-0.9,0-1.7,0.7-1.8,2.4H277.8z"/>
		<path fill="#353535" d="M283.6,592.4h1.2v11.1h-1.2V592.4z"/>
		<path fill="#353535" d="M286.4,599.6c0-2.8,1.5-4.1,3.1-4.1c1.8,0,2.8,1.4,2.8,4.1v0.3h-4.7c0,1.9,0.8,2.9,1.9,2.9
			c0.9,0,1.4-0.5,1.9-1.4l0.8,0.5c-0.6,1.1-1.5,1.9-2.8,1.9C287.7,603.7,286.4,602.3,286.4,599.6z M291.1,598.9
			c-0.1-1.4-0.6-2.4-1.7-2.4c-0.9,0-1.7,0.7-1.8,2.4H291.1z"/>
		<path fill="#353535" d="M293.1,595.6h1.2l1.3,4.5c0.2,0.7,0.3,1.2,0.6,2.1h0c0.2-0.9,0.4-1.4,0.6-2.1l1.3-4.5h1.1l-2.4,8h-1.3
			L293.1,595.6z"/>
		<path fill="#353535" d="M300.1,599.6c0-2.8,1.5-4.1,3.1-4.1c1.8,0,2.8,1.4,2.8,4.1v0.3h-4.7c0,1.9,0.8,2.9,1.9,2.9
			c0.9,0,1.4-0.5,1.9-1.4l0.8,0.5c-0.6,1.1-1.5,1.9-2.8,1.9C301.4,603.7,300.1,602.3,300.1,599.6z M304.8,598.9
			c-0.1-1.4-0.6-2.4-1.7-2.4c-0.9,0-1.7,0.7-1.8,2.4H304.8z"/>
		<path fill="#353535" d="M307.5,595.6h1.2v1.4h0c0.4-0.8,1.3-1.5,2.5-1.5h0.2l-0.1,1.1c0,0-0.2,0-0.3,0c-1,0-1.9,0.7-2.3,1.6v5.3
			h-1.2V595.6z"/>
		<path fill="#353535" d="M312.3,601.7c0-1.6,1.3-2.7,4.4-3.3v-0.5c0-0.9-0.4-1.3-1.2-1.3c-1,0-1.7,0.5-2.3,1.1l-0.7-0.7
			c0.8-0.8,1.9-1.4,3.1-1.4c1.5,0,2.2,0.9,2.2,2.4v3.8c0,1,0,1.5,0.2,1.9h-1.2c-0.1-0.3-0.2-0.6-0.2-1c-0.6,0.7-1.5,1.1-2.5,1.1
			C313,603.6,312.3,602.9,312.3,601.7z M316.7,601.6v-2.4c-2.4,0.5-3.2,1.4-3.2,2.3c0,0.8,0.4,1.2,1.1,1.2
			C315.4,602.6,316.1,602.2,316.7,601.6z"/>
		<path fill="#353535" d="M325.8,595.5v1.1c-0.4,0-0.8,0-1.2,0.2c0.2,0.4,0.4,0.9,0.4,1.5c0,1.8-1.1,2.8-2.7,2.8
			c-0.4,0-0.8-0.1-1.1-0.2c-0.3,0.1-0.5,0.3-0.5,0.6c0,0.3,0.2,0.4,0.9,0.5l1.2,0.2c1.9,0.2,2.7,0.8,2.7,2c0,1.4-1.5,2.2-3.4,2.2
			c-2.3,0-3.1-0.7-3.1-1.9c0-0.8,0.5-1.4,1.3-1.8c-0.4-0.2-0.7-0.5-0.7-1c0-0.5,0.4-0.9,0.9-1.2c-0.7-0.5-1-1.3-1-2.3
			c0-1.7,1.2-2.9,2.8-2.9c0.8,0,1.5,0.3,2,0.8C324.6,595.9,325.3,595.6,325.8,595.5z M320.1,604.4c0,0.8,0.5,1.2,2.1,1.2
			c1.3,0,2.2-0.5,2.2-1.2c0-0.6-0.4-1-1.8-1.2l-1.3-0.2c-0.1,0-0.2,0-0.2,0C320.5,603.4,320.1,603.9,320.1,604.4z M323.8,598.3
			c0-1.2-0.6-1.9-1.6-1.9c-1,0-1.6,0.8-1.6,1.9c0,1.2,0.6,1.9,1.6,1.9C323.2,600.2,323.8,599.5,323.8,598.3z"/>
		<path fill="#353535" d="M326.8,599.6c0-2.8,1.5-4.1,3.1-4.1c1.8,0,2.8,1.4,2.8,4.1v0.3H328c0,1.9,0.8,2.9,1.9,2.9
			c0.9,0,1.4-0.5,1.9-1.4l0.8,0.5c-0.6,1.1-1.5,1.9-2.8,1.9C328.1,603.7,326.8,602.3,326.8,599.6z M331.5,598.9
			c-0.1-1.4-0.6-2.4-1.7-2.4c-0.9,0-1.7,0.7-1.8,2.4H331.5z"/>
		<path fill="#353535" d="M336.8,599.6c0-2.8,1.5-4.1,3.1-4.1c1.8,0,2.8,1.4,2.8,4.1v0.3H338c0,1.9,0.8,2.9,1.9,2.9
			c0.9,0,1.4-0.5,1.9-1.4l0.8,0.5c-0.6,1.1-1.5,1.9-2.8,1.9C338.1,603.7,336.8,602.3,336.8,599.6z M341.5,598.9
			c-0.1-1.4-0.6-2.4-1.7-2.4c-0.9,0-1.7,0.7-1.8,2.4H341.5z"/>
		<path fill="#353535" d="M345.9,599.4l-2.1-3.8h1.3l1.6,2.9l1.5-2.9h1.2l-2.1,3.8l2.4,4.2h-1.3l-1.8-3.3l-1.8,3.3h-1.2L345.9,599.4
			z"/>
		<path fill="#353535" d="M350.9,592.7h1.2v1.3h-1.2V592.7z M350.9,595.6h1.2v7.9h-1.2V595.6z"/>
		<path fill="#353535" d="M353.4,602.1l0.8-0.6c0.5,0.8,1.3,1.2,2.1,1.2c1,0,1.6-0.4,1.6-1.2c0-1.9-4.1-1.2-4.1-4
			c0-1.3,1-2.1,2.5-2.1c1.2,0,2,0.6,2.6,1.4l-0.8,0.6c-0.4-0.6-1-1-1.8-1c-0.9,0-1.3,0.4-1.3,1.1c0,2,4.1,1.1,4.1,4
			c0,1.4-1.2,2.2-2.7,2.2C355,603.7,354,603.1,353.4,602.1z"/>
		<path fill="#353535" d="M361.1,601.7v-5.1h-1.2v-1h1.2v-2.8h1.2v2.8h1.7v1h-1.7v4.9c0,0.8,0.2,1.2,1.1,1.2c0.2,0,0.5,0,0.7-0.1v1
			c-0.2,0.1-0.6,0.1-0.9,0.1C361.6,603.6,361.1,603.1,361.1,601.7z"/>
		<path fill="#353535" d="M365.6,592.7h1.2v1.3h-1.2V592.7z M365.6,595.6h1.2v7.9h-1.2V595.6z"/>
		<path fill="#353535" d="M368.8,595.6h1.2v1.1c0.5-0.6,1.5-1.3,2.5-1.3c1.3,0,2,0.8,2,2.2v5.9h-1.2v-5.6c0-0.9-0.3-1.4-1.1-1.4
			c-0.8,0-1.6,0.6-2.1,1.1v5.9h-1.2V595.6z"/>
		<path fill="#353535" d="M382.4,595.5v1.1c-0.4,0-0.8,0-1.2,0.2c0.2,0.4,0.4,0.9,0.4,1.5c0,1.8-1.1,2.8-2.7,2.8
			c-0.4,0-0.8-0.1-1.1-0.2c-0.3,0.1-0.5,0.3-0.5,0.6c0,0.3,0.2,0.4,0.9,0.5l1.2,0.2c1.9,0.2,2.7,0.8,2.7,2c0,1.4-1.5,2.2-3.4,2.2
			c-2.3,0-3.1-0.7-3.1-1.9c0-0.8,0.5-1.4,1.3-1.8c-0.4-0.2-0.7-0.5-0.7-1c0-0.5,0.4-0.9,0.9-1.2c-0.7-0.5-1-1.3-1-2.3
			c0-1.7,1.2-2.9,2.8-2.9c0.8,0,1.5,0.3,2,0.8C381.2,595.9,381.8,595.6,382.4,595.5z M376.7,604.4c0,0.8,0.5,1.2,2.1,1.2
			c1.3,0,2.2-0.5,2.2-1.2c0-0.6-0.4-1-1.8-1.2l-1.3-0.2c-0.1,0-0.2,0-0.2,0C377,603.4,376.7,603.9,376.7,604.4z M380.4,598.3
			c0-1.2-0.6-1.9-1.6-1.9c-1,0-1.6,0.8-1.6,1.9c0,1.2,0.6,1.9,1.6,1.9C379.8,600.2,380.4,599.5,380.4,598.3z"/>
		<path fill="#353535" d="M224.4,622.7v-5.1h-1.2v-1h1.2v-2.8h1.2v2.8h1.7v1h-1.7v4.9c0,0.8,0.2,1.2,1,1.2c0.2,0,0.5,0,0.7-0.1v1
			c-0.2,0.1-0.6,0.1-0.9,0.1C224.9,624.6,224.4,624.1,224.4,622.7z"/>
		<path fill="#353535" d="M228.4,620.6c0-2.8,1.5-4.1,3.1-4.1c1.8,0,2.8,1.4,2.8,4.1v0.3h-4.7c0,1.9,0.8,2.9,1.9,2.9
			c0.9,0,1.4-0.5,1.9-1.4l0.8,0.5c-0.6,1.1-1.5,1.9-2.8,1.9C229.7,624.7,228.4,623.3,228.4,620.6z M233.2,619.9
			c-0.1-1.4-0.6-2.4-1.7-2.4c-0.9,0-1.7,0.7-1.8,2.4H233.2z"/>
		<path fill="#353535" d="M235.5,620.6c0-2.8,1.4-4.1,3.1-4.1c1.6,0,2.3,1.1,2.7,2.4l-1.1,0.3c-0.3-1-0.7-1.6-1.6-1.6
			c-1,0-1.8,0.9-1.8,3.1c0,1.9,0.7,3.1,1.8,3.1c0.8,0,1.4-0.5,1.7-1.6l1.1,0.3c-0.4,1.5-1.3,2.4-2.8,2.4
			C236.8,624.7,235.5,623.3,235.5,620.6z"/>
		<path fill="#353535" d="M242.7,613.4h1.2v4.3c0.5-0.6,1.5-1.3,2.5-1.3c1.3,0,2,0.8,2,2.2v5.9h-1.2v-5.6c0-0.9-0.3-1.4-1.1-1.4
			c-0.8,0-1.6,0.6-2.1,1.1v5.9h-1.2V613.4z"/>
		<path fill="#353535" d="M250.2,616.6h1.2v1.1c0.5-0.6,1.5-1.3,2.5-1.3c1.3,0,2,0.8,2,2.2v5.9h-1.2v-5.6c0-0.9-0.3-1.4-1.1-1.4
			c-0.8,0-1.6,0.6-2.1,1.1v5.9h-1.2V616.6z"/>
		<path fill="#353535" d="M257.4,620.6c0-2.7,1.4-4.1,3.1-4.1c1.8,0,3.1,1.4,3.1,4.1c0,2.7-1.4,4.1-3.1,4.1S257.4,623.3,257.4,620.6
			z M262.4,620.6c0-1.7-0.6-3.1-1.9-3.1c-1.3,0-1.9,1.2-1.9,3.1c0,1.7,0.6,3.1,1.9,3.1C261.8,623.7,262.4,622.4,262.4,620.6z"/>
		<path fill="#353535" d="M265.3,613.4h1.2v11.1h-1.2V613.4z"/>
		<path fill="#353535" d="M268.1,620.6c0-2.7,1.4-4.1,3.1-4.1c1.8,0,3.1,1.4,3.1,4.1c0,2.7-1.4,4.1-3.1,4.1S268.1,623.3,268.1,620.6
			z M273.1,620.6c0-1.7-0.6-3.1-1.9-3.1c-1.3,0-1.9,1.2-1.9,3.1c0,1.7,0.6,3.1,1.9,3.1C272.5,623.7,273.1,622.4,273.1,620.6z"/>
		<path fill="#353535" d="M282,616.5v1.1c-0.4,0-0.8,0-1.2,0.2c0.2,0.4,0.4,0.9,0.4,1.5c0,1.8-1.1,2.8-2.7,2.8
			c-0.4,0-0.8-0.1-1.1-0.2c-0.3,0.1-0.5,0.3-0.5,0.6c0,0.3,0.2,0.4,0.9,0.5l1.2,0.2c1.9,0.2,2.7,0.8,2.7,2c0,1.4-1.5,2.2-3.4,2.2
			c-2.3,0-3.1-0.7-3.1-1.9c0-0.8,0.5-1.4,1.3-1.8c-0.4-0.2-0.7-0.5-0.7-1c0-0.5,0.4-0.9,0.9-1.2c-0.7-0.5-1-1.3-1-2.3
			c0-1.7,1.2-2.9,2.8-2.9c0.8,0,1.5,0.3,2,0.8C280.8,616.9,281.4,616.6,282,616.5z M276.3,625.4c0,0.8,0.5,1.2,2.1,1.2
			c1.3,0,2.2-0.5,2.2-1.2c0-0.6-0.4-1-1.8-1.2l-1.3-0.2c-0.1,0-0.2,0-0.2,0C276.6,624.4,276.3,624.9,276.3,625.4z M280,619.3
			c0-1.2-0.6-1.9-1.6-1.9c-1,0-1.6,0.8-1.6,1.9c0,1.2,0.6,1.9,1.6,1.9C279.4,621.2,280,620.5,280,619.3z"/>
		<path fill="#353535" d="M282.4,627.4l0.2-1c0.2,0,0.6,0.1,1,0.1c0.7,0,1-0.4,1.2-1.2l0.2-0.7l-2.5-8h1.2l1.2,4.1
			c0.3,0.9,0.4,1.5,0.6,2.4h0c0.2-0.9,0.4-1.6,0.7-2.5l1.2-4.1h1.2l-2.7,8.8c-0.5,1.5-1,2.1-2.3,2.1
			C283.1,627.5,282.6,627.4,282.4,627.4z"/>
		<path fill="#353535" d="M292.7,622.7c0-1.6,1.3-2.7,4.4-3.3v-0.5c0-0.9-0.4-1.3-1.2-1.3c-1,0-1.7,0.5-2.3,1.1l-0.7-0.7
			c0.8-0.8,1.9-1.4,3.1-1.4c1.5,0,2.2,0.9,2.2,2.4v3.8c0,1,0,1.5,0.2,1.9h-1.2c-0.1-0.3-0.2-0.6-0.2-1c-0.6,0.7-1.5,1.1-2.5,1.1
			C293.4,624.6,292.7,623.9,292.7,622.7z M297.1,622.6v-2.4c-2.4,0.5-3.2,1.4-3.2,2.3c0,0.8,0.4,1.2,1.1,1.2
			C295.8,623.6,296.6,623.2,297.1,622.6z"/>
		<path fill="#353535" d="M300.2,616.6h1.2v1.1c0.5-0.6,1.5-1.3,2.5-1.3c1.3,0,2,0.8,2,2.2v5.9h-1.2v-5.6c0-0.9-0.3-1.4-1.1-1.4
			c-0.8,0-1.6,0.6-2.1,1.1v5.9h-1.2V616.6z"/>
		<path fill="#353535" d="M307.3,620.6c0-2.9,1.2-4.1,2.7-4.1c0.9,0,1.6,0.4,2.1,1.1v-4.1h1.2v9.2c0,1,0,1.5,0.2,1.9h-1.2
			c-0.1-0.3-0.2-0.8-0.2-1c-0.5,0.6-1.2,1.2-2.2,1.2C308.5,624.6,307.3,623.4,307.3,620.6z M312.2,622.6v-4
			c-0.6-0.7-1.2-1.1-1.9-1.1c-1.1,0-1.8,0.9-1.8,3.1c0,2.1,0.7,3,1.8,3C311.1,623.6,311.7,623.1,312.2,622.6z"/>
		<path fill="#353535" d="M319.5,623.6v0.9h-1.2v-11.1h1.2v4.2c0.5-0.6,1.2-1.2,2.2-1.2c1.5,0,2.7,1.3,2.7,4.1
			c0,2.9-1.2,4.1-2.8,4.1C320.7,624.6,320.1,624.2,319.5,623.6z M323.2,620.6c0-2.1-0.7-3.1-1.8-3.1c-0.8,0-1.3,0.5-1.9,1.1v4
			c0.6,0.7,1.2,1.1,1.9,1.1C322.4,623.6,323.2,622.7,323.2,620.6z"/>
		<path fill="#353535" d="M325.9,622.5v-5.9h1.2v5.7c0,0.9,0.3,1.4,1.2,1.4c0.8,0,1.4-0.5,2.1-1.1v-5.9h1.2v7.9h-1.2v-1.1
			c-0.6,0.7-1.5,1.3-2.5,1.3C326.5,624.7,325.9,623.9,325.9,622.5z"/>
		<path fill="#353535" d="M333.5,613.7h1.2v1.3h-1.2V613.7z M333.5,616.6h1.2v7.9h-1.2V616.6z"/>
		<path fill="#353535" d="M336.8,613.4h1.2v11.1h-1.2V613.4z"/>
		<path fill="#353535" d="M339.7,620.6c0-2.9,1.2-4.1,2.7-4.1c0.9,0,1.6,0.4,2.1,1.1v-4.1h1.2v9.2c0,1,0,1.5,0.2,1.9h-1.2
			c-0.1-0.3-0.2-0.8-0.2-1c-0.5,0.6-1.2,1.2-2.2,1.2C340.8,624.6,339.7,623.4,339.7,620.6z M344.6,622.6v-4
			c-0.6-0.7-1.2-1.1-1.9-1.1c-1.1,0-1.8,0.9-1.8,3.1c0,2.1,0.7,3,1.8,3C343.4,623.6,344.1,623.1,344.6,622.6z"/>
		<path fill="#353535" d="M350.3,620.6c0-2.7,1.4-4.1,3.1-4.1c1.8,0,3.1,1.4,3.1,4.1c0,2.7-1.4,4.1-3.1,4.1S350.3,623.3,350.3,620.6
			z M355.3,620.6c0-1.7-0.6-3.1-1.9-3.1c-1.3,0-1.9,1.2-1.9,3.1c0,1.7,0.6,3.1,1.9,3.1C354.7,623.7,355.3,622.4,355.3,620.6z"/>
		<path fill="#353535" d="M358,622.5v-5.9h1.2v5.7c0,0.9,0.3,1.4,1.2,1.4c0.8,0,1.4-0.5,2.1-1.1v-5.9h1.2v7.9h-1.2v-1.1
			c-0.6,0.7-1.5,1.3-2.5,1.3C358.7,624.7,358,623.9,358,622.5z"/>
		<path fill="#353535" d="M365.6,616.6h1.2v1.4h0c0.4-0.8,1.3-1.5,2.5-1.5h0.2l-0.1,1.1c0,0-0.2,0-0.3,0c-1,0-1.9,0.7-2.3,1.6v5.3
			h-1.2V616.6z"/>
		<path fill="#353535" d="M373.4,620.6c0-2.7,1.4-4.1,3.1-4.1c1.8,0,3.1,1.4,3.1,4.1c0,2.7-1.4,4.1-3.1,4.1S373.4,623.3,373.4,620.6
			z M378.4,620.6c0-1.7-0.6-3.1-1.9-3.1c-1.3,0-1.9,1.2-1.9,3.1c0,1.7,0.6,3.1,1.9,3.1C377.8,623.7,378.4,622.4,378.4,620.6z"/>
		<path fill="#353535" d="M380.5,616.6h1.2l1,4c0.2,0.8,0.3,1.3,0.5,2.2h0c0.2-0.9,0.3-1.4,0.5-2.2l0.9-3.9h1.1l0.9,3.9
			c0.2,0.8,0.3,1.4,0.5,2.3h0c0.2-0.9,0.3-1.5,0.5-2.3l0.9-3.9h1.1l-2,8h-1.1l-1.4-6h0l-1.4,6h-1L380.5,616.6z"/>
		<path fill="#353535" d="M390.8,616.6h1.2v1.1c0.5-0.6,1.5-1.3,2.5-1.3c1.3,0,2,0.8,2,2.2v5.9h-1.2v-5.6c0-0.9-0.3-1.4-1.1-1.4
			c-0.8,0-1.6,0.6-2.1,1.1v5.9h-1.2V616.6z"/>
		<path fill="#353535" d="M398.4,623h1.4v1.6h-1.4V623z"/>
	</g>
</g>
<g>
	<g>
		<path fill="#353535" d="M436.2,233.5v2.4h-7.6v-11.2h2.8v8.8H436.2z"/>
		<path fill="#353535" d="M442,227v2.2h5.3v2.2H442v2.3h6.1v2.2h-8.9v-11.2h8.8v2.2H442z"/>
		<path fill="#353535" d="M454.1,233.9l-0.8,2.1h-2.9l4.8-11.2h2.9l4.7,11.2h-3l-0.8-2.1H454.1z M456.5,227.6l-1.6,4.1h3.2
			L456.5,227.6z"/>
		<path fill="#353535" d="M473.3,235.9l-5.2-6.9v6.9h-2.7v-11.2h2.5l5.2,6.9v-6.9h2.7v11.2H473.3z"/>
		<path fill="#353535" d="M427.9,245.8h1.2l1.2,5.7c0.3,1.2,0.4,1.9,0.7,3.3h0c0.2-1.4,0.4-2.1,0.6-3.3l1.1-5.7h1.1l1.2,5.8
			c0.2,1.1,0.4,2,0.6,3.1h0c0.2-1.1,0.4-2,0.6-3.1l1.2-5.8h1.1l-2.5,11.1h-1.1l-1.8-8.9h0l-1.8,8.9h-1.1L427.9,245.8z"/>
		<path fill="#353535" d="M439.7,253c0-2.8,1.5-4.1,3.1-4.1c1.8,0,2.8,1.4,2.8,4.1v0.3h-4.7c0,1.9,0.8,2.9,1.9,2.9
			c0.9,0,1.4-0.5,1.9-1.4l0.8,0.5c-0.6,1.1-1.5,1.9-2.8,1.9C441,257.1,439.7,255.7,439.7,253z M444.4,252.3
			c-0.1-1.4-0.6-2.4-1.7-2.4c-0.9,0-1.7,0.7-1.8,2.4H444.4z"/>
		<path fill="#353535" d="M449.4,249h1.2l1,4c0.2,0.8,0.3,1.3,0.5,2.2h0c0.2-0.9,0.3-1.4,0.5-2.2l0.9-3.9h1.1l0.9,3.9
			c0.2,0.8,0.3,1.4,0.5,2.3h0c0.2-0.9,0.3-1.5,0.5-2.3l0.9-3.9h1.1l-2,7.9h-1.1l-1.4-6h0l-1.4,6h-1.1L449.4,249z"/>
		<path fill="#353535" d="M459.3,253c0-2.7,1.4-4.1,3.1-4.1c1.8,0,3.1,1.4,3.1,4.1c0,2.7-1.4,4.1-3.1,4.1
			C460.7,257.1,459.3,255.7,459.3,253z M464.4,253c0-1.7-0.6-3.1-1.9-3.1c-1.3,0-1.9,1.2-1.9,3.1c0,1.7,0.6,3.1,1.9,3.1
			C463.7,256.1,464.4,254.8,464.4,253z"/>
		<path fill="#353535" d="M467.1,249h1.2v1.4h0c0.4-0.8,1.3-1.5,2.5-1.5h0.2L471,250c0,0-0.2,0-0.3,0c-1,0-1.9,0.7-2.3,1.6v5.3h-1.2
			V249z"/>
		<path fill="#353535" d="M472.3,245.8h1.2v7.3c0.2-0.3,0.7-1,1.1-1.6l1.8-2.5h1.2l-2.1,2.9l2.4,5h-1.2l-1.9-4l-1.3,1.7v2.4h-1.2
			V245.8z"/>
		<path fill="#353535" d="M482.2,246.1h1.2v1.3h-1.2V246.1z M482.2,249h1.2v7.9h-1.2V249z"/>
		<path fill="#353535" d="M485.5,249h1.2v1.1c0.5-0.6,1.5-1.3,2.5-1.3c1.3,0,2,0.8,2,2.2v5.9h-1.2v-5.6c0-0.9-0.3-1.4-1.1-1.4
			c-0.8,0-1.6,0.6-2.1,1.1v5.9h-1.2V249z"/>
		<path fill="#353535" d="M495.6,255.1c0-1.6,1.3-2.7,4.4-3.3v-0.5c0-0.9-0.4-1.3-1.2-1.3c-1,0-1.7,0.5-2.3,1.1l-0.7-0.7
			c0.8-0.8,1.9-1.4,3.1-1.4c1.5,0,2.2,0.9,2.2,2.4v3.8c0,1,0,1.5,0.2,1.9h-1.2c-0.1-0.3-0.2-0.6-0.2-1c-0.6,0.7-1.5,1.1-2.5,1.1
			C496.3,257,495.6,256.3,495.6,255.1z M500,255v-2.4c-2.4,0.5-3.2,1.4-3.2,2.3c0,0.8,0.4,1.2,1.1,1.2
			C498.7,256,499.4,255.6,500,255z"/>
		<path fill="#353535" d="M505.3,249h1.2l1,4c0.2,0.8,0.3,1.3,0.5,2.2h0c0.2-0.9,0.3-1.4,0.5-2.2l0.9-3.9h1.1l0.9,3.9
			c0.2,0.8,0.3,1.4,0.5,2.3h0c0.2-0.9,0.3-1.5,0.5-2.3l0.9-3.9h1.1l-2,7.9h-1.1l-1.4-6h0l-1.4,6h-1L505.3,249z"/>
		<path fill="#353535" d="M515.2,255.1c0-1.6,1.3-2.7,4.4-3.3v-0.5c0-0.9-0.4-1.3-1.2-1.3c-1,0-1.7,0.5-2.3,1.1l-0.7-0.7
			c0.8-0.8,1.9-1.4,3.1-1.4c1.5,0,2.2,0.9,2.2,2.4v3.8c0,1,0,1.5,0.2,1.9h-1.2c-0.1-0.3-0.2-0.6-0.2-1c-0.6,0.7-1.5,1.1-2.5,1.1
			C515.9,257,515.2,256.3,515.2,255.1z M519.6,255v-2.4c-2.4,0.5-3.2,1.4-3.2,2.3c0,0.8,0.4,1.2,1.1,1.2
			C518.3,256,519,255.6,519.6,255z"/>
		<path fill="#353535" d="M521.8,259.8l0.2-1c0.2,0,0.6,0.1,1,0.1c0.7,0,1-0.4,1.2-1.2l0.2-0.7l-2.5-8h1.2l1.2,4.1
			c0.3,0.9,0.4,1.5,0.6,2.4h0c0.2-0.9,0.4-1.6,0.7-2.5l1.2-4.1h1.2l-2.7,8.8c-0.5,1.5-1,2.1-2.3,2.1
			C522.5,259.9,522,259.8,521.8,259.8z"/>
		<path fill="#353535" d="M532.9,255.1V250h-1.2v-1h1.2v-2.8h1.2v2.8h1.7v1h-1.7v4.9c0,0.8,0.2,1.2,1.1,1.2c0.2,0,0.5,0,0.7-0.1v1
			c-0.2,0.1-0.6,0.1-0.9,0.1C533.5,257,532.9,256.5,532.9,255.1z"/>
		<path fill="#353535" d="M537.3,245.8h1.2v4.3c0.5-0.6,1.5-1.3,2.5-1.3c1.3,0,2,0.8,2,2.2v5.9h-1.2v-5.6c0-0.9-0.3-1.4-1.1-1.4
			c-0.8,0-1.6,0.6-2.1,1.1v5.9h-1.2V245.8z"/>
		<path fill="#353535" d="M544.4,255.1c0-1.6,1.3-2.7,4.4-3.3v-0.5c0-0.9-0.4-1.3-1.2-1.3c-1,0-1.7,0.5-2.3,1.1l-0.7-0.7
			c0.8-0.8,1.9-1.4,3.1-1.4c1.5,0,2.2,0.9,2.2,2.4v3.8c0,1,0,1.5,0.2,1.9H549c-0.1-0.3-0.2-0.6-0.2-1c-0.6,0.7-1.5,1.1-2.5,1.1
			C545.2,257,544.4,256.3,544.4,255.1z M548.9,255v-2.4c-2.4,0.5-3.2,1.4-3.2,2.3c0,0.8,0.4,1.2,1.1,1.2
			C547.6,256,548.3,255.6,548.9,255z"/>
		<path fill="#353535" d="M552.4,255.1V250h-1.2v-1h1.2v-2.8h1.2v2.8h1.7v1h-1.7v4.9c0,0.8,0.2,1.2,1,1.2c0.2,0,0.5,0,0.7-0.1v1
			c-0.2,0.1-0.6,0.1-0.9,0.1C553,257,552.4,256.5,552.4,255.1z"/>
		<path fill="#353535" d="M429.6,277v0.9h-1.2v-11.1h1.2v4.2c0.5-0.6,1.2-1.2,2.2-1.2c1.5,0,2.7,1.3,2.7,4.1c0,2.9-1.2,4.1-2.8,4.1
			C430.8,278,430.2,277.6,429.6,277z M433.3,274c0-2.1-0.7-3.1-1.8-3.1c-0.8,0-1.3,0.5-1.9,1.1v4c0.6,0.7,1.2,1.1,1.9,1.1
			C432.6,277,433.3,276.1,433.3,274z"/>
		<path fill="#353535" d="M435.6,276.1c0-1.6,1.3-2.7,4.4-3.3v-0.5c0-0.9-0.4-1.3-1.2-1.3c-1,0-1.7,0.5-2.3,1.1l-0.7-0.7
			c0.8-0.8,1.9-1.4,3.1-1.4c1.5,0,2.2,0.9,2.2,2.4v3.8c0,1,0,1.5,0.2,1.9h-1.2c-0.1-0.3-0.2-0.6-0.2-1c-0.6,0.7-1.5,1.1-2.5,1.1
			C436.3,278,435.6,277.3,435.6,276.1z M440.1,276v-2.4c-2.4,0.5-3.2,1.4-3.2,2.3c0,0.8,0.4,1.2,1.1,1.2
			C438.7,277,439.5,276.6,440.1,276z"/>
		<path fill="#353535" d="M443.2,266.8h1.2v11.1h-1.2V266.8z"/>
		<path fill="#353535" d="M446,276.1c0-1.6,1.3-2.7,4.4-3.3v-0.5c0-0.9-0.4-1.3-1.2-1.3c-1,0-1.7,0.5-2.3,1.1l-0.7-0.7
			c0.8-0.8,1.9-1.4,3.1-1.4c1.5,0,2.2,0.9,2.2,2.4v3.8c0,1,0,1.5,0.2,1.9h-1.2c-0.1-0.3-0.2-0.6-0.2-1c-0.6,0.7-1.5,1.1-2.5,1.1
			C446.7,278,446,277.3,446,276.1z M450.4,276v-2.4c-2.4,0.5-3.2,1.4-3.2,2.3c0,0.8,0.4,1.2,1.1,1.2
			C449.1,277,449.9,276.6,450.4,276z"/>
		<path fill="#353535" d="M453.5,270h1.2v1.1c0.5-0.6,1.5-1.3,2.5-1.3c1.3,0,2,0.8,2,2.2v5.9h-1.2v-5.6c0-0.9-0.3-1.4-1.1-1.4
			c-0.8,0-1.6,0.6-2.1,1.1v5.9h-1.2V270z"/>
		<path fill="#353535" d="M460.6,274c0-2.8,1.4-4.1,3.1-4.1c1.6,0,2.3,1.1,2.7,2.4l-1.1,0.3c-0.3-1-0.7-1.6-1.6-1.6
			c-1,0-1.8,0.9-1.8,3.1c0,1.9,0.7,3.1,1.8,3.1c0.8,0,1.4-0.5,1.7-1.6l1.1,0.3c-0.4,1.5-1.3,2.4-2.8,2.4
			C462,278.1,460.6,276.7,460.6,274z"/>
		<path fill="#353535" d="M467.5,274c0-2.8,1.5-4.1,3.1-4.1c1.8,0,2.8,1.4,2.8,4.1v0.3h-4.7c0,1.9,0.8,2.9,1.9,2.9
			c0.9,0,1.4-0.5,1.9-1.4l0.8,0.5c-0.6,1.1-1.5,1.9-2.8,1.9C468.8,278.1,467.5,276.7,467.5,274z M472.2,273.3
			c-0.1-1.4-0.6-2.4-1.7-2.4c-0.9,0-1.7,0.7-1.8,2.4H472.2z"/>
		<path fill="#353535" d="M474.2,276.5l0.8-0.6c0.5,0.8,1.3,1.2,2.1,1.2c1,0,1.6-0.4,1.6-1.2c0-1.9-4.1-1.2-4.1-4
			c0-1.3,1-2.1,2.5-2.1c1.2,0,2,0.6,2.6,1.4l-0.8,0.6c-0.4-0.6-1-1-1.8-1c-0.9,0-1.3,0.4-1.3,1.1c0,2,4.1,1.1,4.1,4
			c0,1.4-1.2,2.2-2.7,2.2C475.8,278.1,474.9,277.5,474.2,276.5z"/>
		<path fill="#353535" d="M483.7,276.5l0.8-0.6c0.5,0.8,1.3,1.2,2.1,1.2c1,0,1.6-0.4,1.6-1.2c0-1.9-4.1-1.2-4.1-4
			c0-1.3,1-2.1,2.5-2.1c1.2,0,2,0.6,2.6,1.4l-0.8,0.6c-0.4-0.6-1-1-1.8-1c-0.9,0-1.3,0.4-1.3,1.1c0,2,4.1,1.1,4.1,4
			c0,1.4-1.2,2.2-2.7,2.2C485.3,278.1,484.4,277.5,483.7,276.5z"/>
		<path fill="#353535" d="M490.9,270h1.2v1c0.5-0.6,1.2-1.2,2.2-1.2c1.5,0,2.7,1.3,2.7,4.1c0,2.9-1.2,4.1-2.8,4.1
			c-0.9,0-1.6-0.4-2.1-1.1v4h-1.2V270z M495.8,274c0-2.1-0.7-3.1-1.8-3.1c-0.7,0-1.4,0.5-1.9,1.1v4c0.6,0.7,1.2,1.1,1.9,1.1
			C495.1,277,495.8,276.1,495.8,274z"/>
		<path fill="#353535" d="M498.2,274c0-2.8,1.5-4.1,3.1-4.1c1.8,0,2.8,1.4,2.8,4.1v0.3h-4.7c0,1.9,0.8,2.9,1.9,2.9
			c0.9,0,1.4-0.5,1.9-1.4l0.8,0.5c-0.6,1.1-1.5,1.9-2.8,1.9C499.5,278.1,498.2,276.7,498.2,274z M502.9,273.3
			c-0.1-1.4-0.6-2.4-1.7-2.4c-0.9,0-1.7,0.7-1.8,2.4H502.9z"/>
		<path fill="#353535" d="M505.2,274c0-2.8,1.5-4.1,3.1-4.1c1.8,0,2.8,1.4,2.8,4.1v0.3h-4.7c0,1.9,0.8,2.9,1.9,2.9
			c0.9,0,1.4-0.5,1.9-1.4l0.8,0.5c-0.6,1.1-1.5,1.9-2.8,1.9C506.5,278.1,505.2,276.7,505.2,274z M510,273.3
			c-0.1-1.4-0.6-2.4-1.7-2.4c-0.9,0-1.7,0.7-1.8,2.4H510z"/>
		<path fill="#353535" d="M512.3,274c0-2.9,1.2-4.1,2.7-4.1c0.9,0,1.6,0.4,2.1,1.1v-4.1h1.2v9.1c0,1,0,1.5,0.2,1.9h-1.2
			c-0.1-0.3-0.2-0.8-0.2-1c-0.5,0.6-1.2,1.2-2.2,1.2C513.4,278,512.3,276.8,512.3,274z M517.2,276v-4c-0.6-0.7-1.2-1.1-1.9-1.1
			c-1.1,0-1.8,0.9-1.8,3.1c0,2.1,0.7,3,1.8,3C516,277,516.7,276.5,517.2,276z"/>
		<path fill="#353535" d="M522.8,276.1c0-1.6,1.3-2.7,4.4-3.3v-0.5c0-0.9-0.4-1.3-1.2-1.3c-1,0-1.7,0.5-2.3,1.1l-0.7-0.7
			c0.8-0.8,1.9-1.4,3.1-1.4c1.5,0,2.2,0.9,2.2,2.4v3.8c0,1,0,1.5,0.2,1.9h-1.2c-0.1-0.3-0.2-0.6-0.2-1c-0.6,0.7-1.5,1.1-2.5,1.1
			C523.5,278,522.8,277.3,522.8,276.1z M527.3,276v-2.4c-2.4,0.5-3.2,1.4-3.2,2.3c0,0.8,0.4,1.2,1.1,1.2
			C526,277,526.7,276.6,527.3,276z"/>
		<path fill="#353535" d="M530.3,270h1.2v1.1c0.5-0.6,1.5-1.3,2.5-1.3c1.3,0,2,0.8,2,2.2v5.9h-1.2v-5.6c0-0.9-0.3-1.4-1.1-1.4
			c-0.8,0-1.6,0.6-2.1,1.1v5.9h-1.2V270z"/>
		<path fill="#353535" d="M537.5,274c0-2.9,1.2-4.1,2.7-4.1c0.9,0,1.6,0.4,2.1,1.1v-4.1h1.2v9.1c0,1,0,1.5,0.2,1.9h-1.2
			c-0.1-0.3-0.2-0.8-0.2-1c-0.5,0.6-1.2,1.2-2.2,1.2C538.6,278,537.5,276.8,537.5,274z M542.4,276v-4c-0.6-0.7-1.2-1.1-1.9-1.1
			c-1.1,0-1.8,0.9-1.8,3.1c0,2.1,0.7,3,1.8,3C541.2,277,541.9,276.5,542.4,276z"/>
		<path fill="#353535" d="M552.9,276.9c-0.5,0.6-1.2,1.2-2.2,1.2c-1.5,0-2.7-1.2-2.7-4.1s1.2-4.1,2.7-4.1c0.9,0,1.6,0.5,2.1,1.2v-1
			h1.2v10.9h-1.2V276.9z M552.9,276v-4c-0.6-0.7-1.1-1.1-1.8-1.1c-1.1,0-1.8,0.9-1.8,3.1c0,2.1,0.7,3.1,1.8,3.1
			C551.8,277.1,552.4,276.6,552.9,276z"/>
		<path fill="#353535" d="M556,275.9V270h1.2v5.7c0,0.9,0.3,1.4,1.2,1.4c0.8,0,1.4-0.5,2.1-1.1V270h1.2v7.9h-1.2v-1.1
			c-0.6,0.7-1.5,1.3-2.5,1.3C556.7,278.1,556,277.3,556,275.9z"/>
		<path fill="#353535" d="M563.2,276.1c0-1.6,1.3-2.7,4.4-3.3v-0.5c0-0.9-0.4-1.3-1.2-1.3c-1,0-1.7,0.5-2.3,1.1l-0.7-0.7
			c0.8-0.8,1.9-1.4,3.1-1.4c1.5,0,2.2,0.9,2.2,2.4v3.8c0,1,0,1.5,0.2,1.9h-1.2c-0.1-0.3-0.2-0.6-0.2-1c-0.6,0.7-1.5,1.1-2.5,1.1
			C563.9,278,563.2,277.3,563.2,276.1z M567.6,276v-2.4c-2.4,0.5-3.2,1.4-3.2,2.3c0,0.8,0.4,1.2,1.1,1.2
			C566.3,277,567.1,276.6,567.6,276z"/>
		<path fill="#353535" d="M570.7,266.8h1.2v11.1h-1.2V266.8z"/>
		<path fill="#353535" d="M574,267.1h1.2v1.3H574V267.1z M574,270h1.2v7.9H574V270z"/>
		<path fill="#353535" d="M577.7,276.1V271h-1.2v-1h1.2v-2.8h1.2v2.8h1.7v1H579v4.9c0,0.8,0.2,1.2,1,1.2c0.2,0,0.5,0,0.7-0.1v1
			c-0.2,0.1-0.6,0.1-0.9,0.1C578.3,278,577.7,277.5,577.7,276.1z"/>
		<path fill="#353535" d="M581.3,280.8l0.2-1c0.2,0,0.6,0.1,1,0.1c0.7,0,1-0.4,1.2-1.2l0.2-0.7l-2.5-8h1.2l1.2,4.1
			c0.3,0.9,0.4,1.5,0.6,2.4h0c0.2-0.9,0.4-1.6,0.7-2.5l1.2-4.1h1.2l-2.7,8.8c-0.5,1.5-1,2.1-2.3,2.1
			C582,280.9,581.5,280.8,581.3,280.8z"/>
		<path fill="#353535" d="M589.1,276.4h1.4v1.6h-1.4V276.4z"/>
		<path fill="#353535" d="M427.9,287.8h1.2l1.2,5.7c0.3,1.2,0.4,1.9,0.7,3.3h0c0.2-1.4,0.4-2.1,0.6-3.3l1.1-5.7h1.1l1.2,5.8
			c0.2,1.1,0.4,2,0.6,3.1h0c0.2-1.1,0.4-2,0.6-3.1l1.2-5.8h1.1l-2.5,11.1h-1.1l-1.8-8.9h0l-1.8,8.9h-1.1L427.9,287.8z"/>
		<path fill="#353535" d="M439.7,297.1c0-1.6,1.3-2.7,4.4-3.3v-0.5c0-0.9-0.4-1.3-1.2-1.3c-1,0-1.7,0.5-2.3,1.1l-0.7-0.7
			c0.8-0.8,1.9-1.4,3.1-1.4c1.5,0,2.2,0.9,2.2,2.4v3.8c0,1,0,1.5,0.2,1.9h-1.2c-0.1-0.3-0.2-0.6-0.2-1c-0.6,0.7-1.5,1.1-2.5,1.1
			C440.4,299,439.7,298.3,439.7,297.1z M444.1,297v-2.4c-2.4,0.5-3.2,1.4-3.2,2.3c0,0.8,0.4,1.2,1.1,1.2
			C442.8,298,443.5,297.6,444.1,297z"/>
		<path fill="#353535" d="M446.5,297.5l0.8-0.6c0.5,0.8,1.3,1.2,2.1,1.2c1,0,1.6-0.4,1.6-1.2c0-1.9-4.1-1.2-4.1-4
			c0-1.3,1-2.1,2.5-2.1c1.2,0,2,0.6,2.6,1.4l-0.8,0.6c-0.4-0.6-1-1-1.8-1c-0.9,0-1.3,0.4-1.3,1.1c0,2,4.1,1.1,4.1,4
			c0,1.4-1.2,2.2-2.7,2.2C448.1,299.1,447.1,298.5,446.5,297.5z"/>
		<path fill="#353535" d="M454.2,297.1V292H453v-1h1.2v-2.8h1.2v2.8h1.7v1h-1.7v4.9c0,0.8,0.2,1.2,1.1,1.2c0.2,0,0.5,0,0.7-0.1v1
			c-0.2,0.1-0.6,0.1-0.9,0.1C454.7,299,454.2,298.5,454.2,297.1z"/>
		<path fill="#353535" d="M458.2,295c0-2.8,1.5-4.1,3.1-4.1c1.8,0,2.8,1.4,2.8,4.1v0.3h-4.7c0,1.9,0.8,2.9,1.9,2.9
			c0.9,0,1.4-0.5,1.9-1.4l0.8,0.5c-0.6,1.1-1.5,1.9-2.8,1.9C459.5,299.1,458.2,297.7,458.2,295z M462.9,294.3
			c-0.1-1.4-0.6-2.4-1.7-2.4c-0.9,0-1.7,0.7-1.8,2.4H462.9z"/>
		<path fill="#353535" d="M468.7,288.1h1.2v1.3h-1.2V288.1z M468.7,291h1.2v7.9h-1.2V291z"/>
		<path fill="#353535" d="M471.2,297.5l0.8-0.6c0.5,0.8,1.3,1.2,2.1,1.2c1,0,1.6-0.4,1.6-1.2c0-1.9-4.1-1.2-4.1-4
			c0-1.3,1-2.1,2.5-2.1c1.2,0,2,0.6,2.6,1.4l-0.8,0.6c-0.4-0.6-1-1-1.8-1c-0.9,0-1.3,0.4-1.3,1.1c0,2,4.1,1.1,4.1,4
			c0,1.4-1.2,2.2-2.7,2.2C472.8,299.1,471.8,298.5,471.2,297.5z"/>
		<path fill="#353535" d="M480.7,297.5l0.8-0.6c0.5,0.8,1.3,1.2,2.1,1.2c1,0,1.6-0.4,1.6-1.2c0-1.9-4.1-1.2-4.1-4
			c0-1.3,1-2.1,2.5-2.1c1.2,0,2,0.6,2.6,1.4l-0.8,0.6c-0.4-0.6-1-1-1.8-1c-0.9,0-1.3,0.4-1.3,1.1c0,2,4.1,1.1,4.1,4
			c0,1.4-1.2,2.2-2.7,2.2C482.3,299.1,481.3,298.5,480.7,297.5z"/>
		<path fill="#353535" d="M487.9,287.8h1.2v4.3c0.5-0.6,1.5-1.3,2.5-1.3c1.3,0,1.9,0.8,1.9,2.2v5.9h-1.2v-5.6c0-0.9-0.3-1.4-1.1-1.4
			c-0.8,0-1.6,0.6-2.1,1.1v5.9h-1.2V287.8z"/>
		<path fill="#353535" d="M495.4,296.9V291h1.2v5.7c0,0.9,0.3,1.4,1.2,1.4c0.8,0,1.4-0.5,2.1-1.1V291h1.2v7.9h-1.2v-1.1
			c-0.6,0.7-1.5,1.3-2.5,1.3C496.1,299.1,495.4,298.3,495.4,296.9z"/>
		<path fill="#353535" d="M503,291h1.2v1.1c0.5-0.6,1.5-1.3,2.5-1.3c1.3,0,2,0.8,2,2.2v5.9h-1.2v-5.6c0-0.9-0.3-1.4-1.1-1.4
			c-0.8,0-1.6,0.6-2.1,1.1v5.9H503V291z"/>
		<path fill="#353535" d="M510.5,291h1.2v1.1c0.5-0.6,1.5-1.3,2.5-1.3c1.3,0,2,0.8,2,2.2v5.9H515v-5.6c0-0.9-0.3-1.4-1.1-1.4
			c-0.8,0-1.6,0.6-2.1,1.1v5.9h-1.2V291z"/>
		<path fill="#353535" d="M517.7,295c0-2.8,1.5-4.1,3.1-4.1c1.8,0,2.8,1.4,2.8,4.1v0.3h-4.7c0,1.9,0.8,2.9,1.9,2.9
			c0.9,0,1.4-0.5,1.9-1.4l0.8,0.5c-0.6,1.1-1.5,1.9-2.8,1.9C519,299.1,517.7,297.7,517.7,295z M522.4,294.3
			c-0.1-1.4-0.6-2.4-1.7-2.4c-0.9,0-1.7,0.7-1.8,2.4H522.4z"/>
		<path fill="#353535" d="M524.7,295c0-2.9,1.2-4.1,2.7-4.1c0.9,0,1.6,0.4,2.1,1.1v-4.1h1.2v9.1c0,1,0,1.5,0.2,1.9h-1.2
			c-0.1-0.3-0.2-0.8-0.2-1c-0.5,0.6-1.2,1.2-2.2,1.2C525.9,299,524.7,297.8,524.7,295z M529.6,297v-4c-0.6-0.7-1.2-1.1-1.9-1.1
			c-1.1,0-1.8,0.9-1.8,3.1c0,2.1,0.7,3,1.8,3C528.4,298,529.1,297.5,529.6,297z"/>
		<path fill="#353535" d="M535.8,288.1h1.2v1.3h-1.2V288.1z M535.8,291h1.2v7.9h-1.2V291z"/>
		<path fill="#353535" d="M539,291h1.2v1.1c0.5-0.6,1.5-1.3,2.5-1.3c1.3,0,2,0.8,2,2.2v5.9h-1.2v-5.6c0-0.9-0.3-1.4-1.1-1.4
			c-0.8,0-1.6,0.6-2.1,1.1v5.9H539V291z"/>
		<path fill="#353535" d="M549.1,295c0-2.7,1.4-4.1,3.1-4.1c1.8,0,3.1,1.4,3.1,4.1c0,2.7-1.4,4.1-3.1,4.1S549.1,297.7,549.1,295z
			 M554.2,295c0-1.7-0.6-3.1-1.9-3.1c-1.3,0-1.9,1.2-1.9,3.1c0,1.7,0.6,3.1,1.9,3.1C553.5,298.1,554.2,296.8,554.2,295z"/>
		<path fill="#353535" d="M556.9,296.9V291h1.2v5.7c0,0.9,0.3,1.4,1.2,1.4c0.8,0,1.4-0.5,2.1-1.1V291h1.2v7.9h-1.2v-1.1
			c-0.6,0.7-1.5,1.3-2.5,1.3C557.5,299.1,556.9,298.3,556.9,296.9z"/>
		<path fill="#353535" d="M564.5,291h1.2v1.4h0c0.4-0.8,1.3-1.5,2.5-1.5h0.2l-0.1,1.1c0,0-0.2,0-0.3,0c-1,0-1.9,0.7-2.3,1.6v5.3
			h-1.2V291z"/>
		<path fill="#353535" d="M428.1,316c0-2.8,1.5-4.1,3.1-4.1c1.8,0,2.8,1.4,2.8,4.1v0.3h-4.7c0,1.9,0.8,2.9,1.9,2.9
			c0.9,0,1.4-0.5,1.9-1.4l0.8,0.5c-0.6,1.1-1.5,1.9-2.8,1.9C429.4,320.1,428.1,318.7,428.1,316z M432.8,315.3
			c-0.1-1.4-0.6-2.4-1.7-2.4c-0.9,0-1.7,0.7-1.8,2.4H432.8z"/>
		<path fill="#353535" d="M436,313h-1.2v-1h1.2v-1.2c0-1.3,0.7-2,2.2-2c0.1,0,0.6,0,0.6,0v1c0,0-0.4,0-0.5,0c-0.6,0-1.1,0.2-1.1,1
			v1.2h1.5v1h-1.5v6.9H436V313z"/>
		<path fill="#353535" d="M440.4,313h-1.2v-1h1.2v-1.2c0-1.3,0.7-2,2.2-2c0.1,0,0.6,0,0.6,0v1c0,0-0.4,0-0.5,0c-0.6,0-1.1,0.2-1.1,1
			v1.2h1.5v1h-1.5v6.9h-1.2V313z"/>
		<path fill="#353535" d="M444,316c0-2.7,1.4-4.1,3.1-4.1c1.8,0,3.1,1.4,3.1,4.1c0,2.7-1.4,4.1-3.1,4.1S444,318.7,444,316z
			 M449.1,316c0-1.7-0.6-3.1-1.9-3.1c-1.3,0-1.9,1.2-1.9,3.1c0,1.7,0.6,3.1,1.9,3.1C448.4,319.1,449.1,317.8,449.1,316z"/>
		<path fill="#353535" d="M451.8,312h1.2v1.4h0c0.5-0.8,1.3-1.5,2.5-1.5h0.2l-0.1,1.1c0,0-0.2,0-0.3,0c-1,0-1.9,0.7-2.3,1.6v5.3
			h-1.2V312z"/>
		<path fill="#353535" d="M457.5,318.1V313h-1.2v-1h1.2v-2.8h1.2v2.8h1.7v1h-1.7v4.9c0,0.8,0.2,1.2,1,1.2c0.2,0,0.5,0,0.7-0.1v1
			c-0.2,0.1-0.6,0.1-0.9,0.1C458,320,457.5,319.5,457.5,318.1z"/>
		<path fill="#353535" d="M461.2,318.5l0.8-0.6c0.5,0.8,1.3,1.2,2.1,1.2c1,0,1.6-0.4,1.6-1.2c0-1.9-4.1-1.2-4.1-4
			c0-1.3,1-2.1,2.5-2.1c1.2,0,2,0.6,2.6,1.4l-0.8,0.6c-0.4-0.6-1-1-1.8-1c-0.9,0-1.3,0.4-1.3,1.1c0,2,4.1,1.1,4.1,4
			c0,1.4-1.2,2.2-2.7,2.2C462.8,320.1,461.8,319.5,461.2,318.5z"/>
		<path fill="#353535" d="M471.9,318.1V313h-1.2v-1h1.2v-2.8h1.2v2.8h1.7v1h-1.7v4.9c0,0.8,0.2,1.2,1,1.2c0.2,0,0.5,0,0.7-0.1v1
			c-0.2,0.1-0.6,0.1-0.9,0.1C472.4,320,471.9,319.5,471.9,318.1z"/>
		<path fill="#353535" d="M475.9,316c0-2.7,1.4-4.1,3.1-4.1c1.8,0,3.1,1.4,3.1,4.1c0,2.7-1.4,4.1-3.1,4.1S475.9,318.7,475.9,316z
			 M480.9,316c0-1.7-0.6-3.1-1.9-3.1c-1.3,0-1.9,1.2-1.9,3.1c0,1.7,0.6,3.1,1.9,3.1C480.3,319.1,480.9,317.8,480.9,316z"/>
		<path fill="#353535" d="M492.7,311.9v1.1c-0.4,0-0.8,0-1.2,0.2c0.2,0.4,0.4,0.9,0.4,1.5c0,1.8-1.1,2.8-2.7,2.8
			c-0.4,0-0.8-0.1-1.1-0.2c-0.3,0.1-0.4,0.3-0.4,0.6c0,0.3,0.2,0.4,0.9,0.5l1.2,0.2c1.9,0.2,2.7,0.8,2.7,2c0,1.4-1.5,2.2-3.4,2.2
			c-2.3,0-3.1-0.7-3.1-1.9c0-0.8,0.5-1.4,1.3-1.8c-0.4-0.2-0.7-0.5-0.7-1c0-0.5,0.4-0.9,0.9-1.2c-0.7-0.5-1-1.3-1-2.3
			c0-1.7,1.2-2.9,2.8-2.9c0.8,0,1.5,0.3,2,0.8C491.5,312.3,492.2,312,492.7,311.9z M487,320.8c0,0.8,0.5,1.2,2.1,1.2
			c1.3,0,2.2-0.5,2.2-1.2c0-0.6-0.4-1-1.8-1.2l-1.3-0.2c-0.1,0-0.2,0-0.2,0C487.4,319.8,487,320.3,487,320.8z M490.7,314.7
			c0-1.2-0.6-1.9-1.6-1.9c-1,0-1.6,0.8-1.6,1.9c0,1.2,0.6,1.9,1.6,1.9C490.2,316.6,490.7,315.9,490.7,314.7z"/>
		<path fill="#353535" d="M493.7,316c0-2.8,1.5-4.1,3.1-4.1c1.8,0,2.8,1.4,2.8,4.1v0.3h-4.7c0,1.9,0.8,2.9,1.9,2.9
			c0.9,0,1.4-0.5,1.9-1.4l0.8,0.5c-0.6,1.1-1.5,1.9-2.8,1.9C495,320.1,493.7,318.7,493.7,316z M498.4,315.3
			c-0.1-1.4-0.6-2.4-1.7-2.4c-0.9,0-1.7,0.7-1.8,2.4H498.4z"/>
		<path fill="#353535" d="M501.6,318.1V313h-1.2v-1h1.2v-2.8h1.2v2.8h1.7v1h-1.7v4.9c0,0.8,0.2,1.2,1.1,1.2c0.2,0,0.5,0,0.7-0.1v1
			c-0.2,0.1-0.6,0.1-0.9,0.1C502.1,320,501.6,319.5,501.6,318.1z"/>
		<path fill="#353535" d="M508.5,318.1c0-1.6,1.3-2.7,4.4-3.3v-0.5c0-0.9-0.4-1.3-1.2-1.3c-1,0-1.7,0.5-2.3,1.1l-0.7-0.7
			c0.8-0.8,1.9-1.4,3.1-1.4c1.5,0,2.2,0.9,2.2,2.4v3.8c0,1,0,1.5,0.2,1.9h-1.2c-0.1-0.3-0.2-0.6-0.2-1c-0.6,0.7-1.5,1.1-2.5,1.1
			C509.2,320,508.5,319.3,508.5,318.1z M513,318v-2.4c-2.4,0.5-3.2,1.4-3.2,2.3c0,0.8,0.4,1.2,1.1,1.2
			C511.7,319,512.4,318.6,513,318z"/>
		<path fill="#353535" d="M516,312h1.2v1.1c0.5-0.6,1.5-1.3,2.5-1.3c1.3,0,2,0.8,2,2.2v5.9h-1.2v-5.6c0-0.9-0.3-1.4-1.1-1.4
			c-0.8,0-1.6,0.6-2.1,1.1v5.9H516V312z"/>
		<path fill="#353535" d="M526.6,309.1h1.2v1.3h-1.2V309.1z M526.6,312h1.2v7.9h-1.2V312z"/>
		<path fill="#353535" d="M529.5,316c0-2.9,1.2-4.1,2.7-4.1c0.9,0,1.6,0.4,2.1,1.1v-4.1h1.2v9.1c0,1,0,1.5,0.2,1.9h-1.2
			c-0.1-0.3-0.2-0.8-0.2-1c-0.5,0.6-1.2,1.2-2.2,1.2C530.6,320,529.5,318.8,529.5,316z M534.4,318v-4c-0.6-0.7-1.2-1.1-1.9-1.1
			c-1.1,0-1.8,0.9-1.8,3.1c0,2.1,0.7,3,1.8,3C533.2,319,533.9,318.5,534.4,318z"/>
		<path fill="#353535" d="M537.1,316c0-2.8,1.5-4.1,3.1-4.1c1.8,0,2.8,1.4,2.8,4.1v0.3h-4.7c0,1.9,0.8,2.9,1.9,2.9
			c0.9,0,1.4-0.5,1.9-1.4l0.8,0.5c-0.6,1.1-1.5,1.9-2.8,1.9C538.4,320.1,537.1,318.7,537.1,316z M541.8,315.3
			c-0.1-1.4-0.6-2.4-1.7-2.4c-0.9,0-1.7,0.7-1.8,2.4H541.8z"/>
		<path fill="#353535" d="M544.1,318.1c0-1.6,1.3-2.7,4.4-3.3v-0.5c0-0.9-0.4-1.3-1.2-1.3c-1,0-1.7,0.5-2.3,1.1l-0.7-0.7
			c0.8-0.8,1.9-1.4,3.1-1.4c1.5,0,2.2,0.9,2.2,2.4v3.8c0,1,0,1.5,0.2,1.9h-1.2c-0.1-0.3-0.2-0.6-0.2-1c-0.6,0.7-1.5,1.1-2.5,1.1
			C544.8,320,544.1,319.3,544.1,318.1z M548.5,318v-2.4c-2.4,0.5-3.2,1.4-3.2,2.3c0,0.8,0.4,1.2,1.1,1.2
			C547.2,319,548,318.6,548.5,318z"/>
		<path fill="#353535" d="M554.2,316c0-2.7,1.4-4.1,3.1-4.1c1.8,0,3.1,1.4,3.1,4.1c0,2.7-1.4,4.1-3.1,4.1S554.2,318.7,554.2,316z
			 M559.2,316c0-1.7-0.6-3.1-1.9-3.1c-1.3,0-1.9,1.2-1.9,3.1c0,1.7,0.6,3.1,1.9,3.1C558.6,319.1,559.2,317.8,559.2,316z"/>
		<path fill="#353535" d="M561.9,317.9V312h1.2v5.7c0,0.9,0.3,1.4,1.2,1.4c0.8,0,1.4-0.5,2.1-1.1V312h1.2v7.9h-1.2v-1.1
			c-0.6,0.7-1.5,1.3-2.5,1.3C562.6,320.1,561.9,319.3,561.9,317.9z"/>
		<path fill="#353535" d="M570,318.1V313h-1.2v-1h1.2v-2.8h1.2v2.8h1.7v1h-1.7v4.9c0,0.8,0.2,1.2,1,1.2c0.2,0,0.5,0,0.7-0.1v1
			c-0.2,0.1-0.6,0.1-0.9,0.1C570.5,320,570,319.5,570,318.1z"/>
		<path fill="#353535" d="M428.9,339.1V334h-1.2v-1h1.2v-2.8h1.2v2.8h1.7v1h-1.7v4.9c0,0.8,0.2,1.2,1.1,1.2c0.2,0,0.5,0,0.7-0.1v1
			c-0.2,0.1-0.6,0.1-0.9,0.1C429.4,341,428.9,340.5,428.9,339.1z"/>
		<path fill="#353535" d="M433.3,329.8h1.2v4.3c0.5-0.6,1.5-1.3,2.5-1.3c1.3,0,2,0.8,2,2.2v5.9h-1.2v-5.6c0-0.9-0.3-1.4-1.1-1.4
			c-0.8,0-1.6,0.6-2.1,1.1v5.9h-1.2V329.8z"/>
		<path fill="#353535" d="M440.5,337c0-2.8,1.5-4.1,3.1-4.1c1.8,0,2.8,1.4,2.8,4.1v0.3h-4.7c0,1.9,0.8,2.9,1.9,2.9
			c0.9,0,1.4-0.5,1.9-1.4l0.8,0.5c-0.6,1.1-1.5,1.9-2.8,1.9C441.8,341.1,440.5,339.7,440.5,337z M445.2,336.3
			c-0.1-1.4-0.6-2.4-1.7-2.4c-0.9,0-1.7,0.7-1.8,2.4H445.2z"/>
		<path fill="#353535" d="M447.9,333h1.2v1.4h0c0.5-0.8,1.3-1.5,2.5-1.5h0.2l-0.1,1.1c0,0-0.2,0-0.3,0c-1,0-1.9,0.7-2.3,1.6v5.3
			h-1.2V333z"/>
		<path fill="#353535" d="M452.7,337c0-2.8,1.5-4.1,3.1-4.1c1.8,0,2.8,1.4,2.8,4.1v0.3h-4.7c0,1.9,0.8,2.9,1.9,2.9
			c0.9,0,1.4-0.5,1.9-1.4l0.8,0.5c-0.6,1.1-1.5,1.9-2.8,1.9C454,341.1,452.7,339.7,452.7,337z M457.4,336.3
			c-0.1-1.4-0.6-2.4-1.7-2.4c-0.9,0-1.7,0.7-1.8,2.4H457.4z"/>
		<path fill="#353535" d="M462.7,339.1c0-1.6,1.3-2.7,4.4-3.3v-0.5c0-0.9-0.4-1.3-1.2-1.3c-1,0-1.7,0.5-2.3,1.1l-0.7-0.7
			c0.8-0.8,1.9-1.4,3.1-1.4c1.5,0,2.2,0.9,2.2,2.4v3.8c0,1,0,1.5,0.2,1.9h-1.2c-0.1-0.3-0.2-0.6-0.2-1c-0.6,0.7-1.5,1.1-2.5,1.1
			C463.4,341,462.7,340.3,462.7,339.1z M467.1,339v-2.4c-2.4,0.5-3.2,1.4-3.2,2.3c0,0.8,0.4,1.2,1.1,1.2
			C465.8,340,466.5,339.6,467.1,339z"/>
		<path fill="#353535" d="M470.2,333h1.2v1.1c0.5-0.6,1.5-1.3,2.5-1.3c1.3,0,1.9,0.8,1.9,2.2v5.9h-1.2v-5.6c0-0.9-0.3-1.4-1.1-1.4
			c-0.8,0-1.6,0.6-2.1,1.1v5.9h-1.2V333z"/>
		<path fill="#353535" d="M477.3,337c0-2.9,1.2-4.1,2.7-4.1c0.9,0,1.6,0.4,2.1,1.1v-4.1h1.2v9.1c0,1,0,1.5,0.2,1.9h-1.2
			c-0.1-0.3-0.2-0.8-0.2-1c-0.5,0.6-1.2,1.2-2.2,1.2C478.5,341,477.3,339.8,477.3,337z M482.2,339v-4c-0.6-0.7-1.2-1.1-1.9-1.1
			c-1.1,0-1.8,0.9-1.8,3.1c0,2.1,0.7,3,1.8,3C481,340,481.7,339.5,482.2,339z"/>
		<path fill="#353535" d="M494.4,332.9v1.1c-0.4,0-0.8,0-1.2,0.2c0.2,0.4,0.4,0.9,0.4,1.5c0,1.8-1.1,2.8-2.7,2.8
			c-0.4,0-0.8-0.1-1.1-0.2c-0.3,0.1-0.4,0.3-0.4,0.6c0,0.3,0.2,0.4,0.9,0.5l1.2,0.2c1.9,0.2,2.7,0.8,2.7,2c0,1.4-1.5,2.2-3.4,2.2
			c-2.3,0-3.1-0.7-3.1-1.9c0-0.8,0.5-1.4,1.3-1.8c-0.4-0.2-0.7-0.5-0.7-1c0-0.5,0.4-0.9,0.9-1.2c-0.7-0.5-1-1.3-1-2.3
			c0-1.7,1.2-2.9,2.8-2.9c0.8,0,1.5,0.3,2,0.8C493.2,333.3,493.8,333,494.4,332.9z M488.7,341.8c0,0.8,0.5,1.2,2.1,1.2
			c1.3,0,2.2-0.5,2.2-1.2c0-0.6-0.4-1-1.8-1.2l-1.3-0.2c-0.1,0-0.2,0-0.2,0C489,340.8,488.7,341.3,488.7,341.8z M492.4,335.7
			c0-1.2-0.6-1.9-1.6-1.9c-1,0-1.6,0.8-1.6,1.9c0,1.2,0.6,1.9,1.6,1.9C491.8,337.6,492.4,336.9,492.4,335.7z"/>
		<path fill="#353535" d="M495.3,339.1c0-1.6,1.3-2.7,4.4-3.3v-0.5c0-0.9-0.4-1.3-1.2-1.3c-1,0-1.7,0.5-2.3,1.1l-0.7-0.7
			c0.8-0.8,1.9-1.4,3.1-1.4c1.5,0,2.2,0.9,2.2,2.4v3.8c0,1,0,1.5,0.2,1.9h-1.2c-0.1-0.3-0.2-0.6-0.2-1c-0.6,0.7-1.5,1.1-2.5,1.1
			C496,341,495.3,340.3,495.3,339.1z M499.7,339v-2.4c-2.4,0.5-3.2,1.4-3.2,2.3c0,0.8,0.4,1.2,1.1,1.2
			C498.4,340,499.1,339.6,499.7,339z"/>
		<path fill="#353535" d="M502.8,330.1h1.2v1.3h-1.2V330.1z M502.8,333h1.2v7.9h-1.2V333z"/>
		<path fill="#353535" d="M506.1,333h1.2v1.1c0.5-0.6,1.5-1.3,2.5-1.3c1.3,0,1.9,0.8,1.9,2.2v5.9h-1.2v-5.6c0-0.9-0.3-1.4-1.1-1.4
			c-0.8,0-1.6,0.6-2.1,1.1v5.9h-1.2V333z"/>
		<path fill="#353535" d="M517,339.1V334h-1.2v-1h1.2v-2.8h1.2v2.8h1.7v1h-1.7v4.9c0,0.8,0.2,1.2,1,1.2c0.2,0,0.5,0,0.7-0.1v1
			c-0.2,0.1-0.6,0.1-0.9,0.1C517.6,341,517,340.5,517,339.1z"/>
		<path fill="#353535" d="M521.4,333h1.2v1.4h0c0.5-0.8,1.3-1.5,2.5-1.5h0.2l-0.1,1.1c0,0-0.2,0-0.3,0c-1,0-1.9,0.7-2.3,1.6v5.3
			h-1.2V333z"/>
		<path fill="#353535" d="M526.2,339.1c0-1.6,1.3-2.7,4.4-3.3v-0.5c0-0.9-0.4-1.3-1.2-1.3c-1,0-1.7,0.5-2.3,1.1l-0.7-0.7
			c0.8-0.8,1.9-1.4,3.1-1.4c1.5,0,2.2,0.9,2.2,2.4v3.8c0,1,0,1.5,0.2,1.9h-1.2c-0.1-0.3-0.2-0.6-0.2-1c-0.6,0.7-1.5,1.1-2.5,1.1
			C526.9,341,526.2,340.3,526.2,339.1z M530.6,339v-2.4c-2.4,0.5-3.2,1.4-3.2,2.3c0,0.8,0.4,1.2,1.1,1.2
			C529.3,340,530.1,339.6,530.6,339z"/>
		<path fill="#353535" d="M533.3,337c0-2.8,1.4-4.1,3.1-4.1c1.6,0,2.3,1.1,2.7,2.4l-1.1,0.3c-0.3-1-0.7-1.6-1.6-1.6
			c-1,0-1.8,0.9-1.8,3.1c0,1.9,0.7,3.1,1.8,3.1c0.8,0,1.4-0.5,1.7-1.6l1.1,0.3c-0.4,1.5-1.3,2.4-2.8,2.4
			C534.7,341.1,533.3,339.7,533.3,337z"/>
		<path fill="#353535" d="M541,339.1V334h-1.2v-1h1.2v-2.8h1.2v2.8h1.7v1h-1.7v4.9c0,0.8,0.2,1.2,1,1.2c0.2,0,0.5,0,0.7-0.1v1
			c-0.2,0.1-0.6,0.1-0.9,0.1C541.5,341,541,340.5,541,339.1z"/>
		<path fill="#353535" d="M545.5,330.1h1.2v1.3h-1.2V330.1z M545.5,333h1.2v7.9h-1.2V333z"/>
		<path fill="#353535" d="M548.3,337c0-2.7,1.4-4.1,3.1-4.1c1.8,0,3.1,1.4,3.1,4.1c0,2.7-1.4,4.1-3.1,4.1S548.3,339.7,548.3,337z
			 M553.4,337c0-1.7-0.6-3.1-1.9-3.1c-1.3,0-1.9,1.2-1.9,3.1c0,1.7,0.6,3.1,1.9,3.1C552.7,340.1,553.4,338.8,553.4,337z"/>
		<path fill="#353535" d="M556.1,333h1.2v1.1c0.5-0.6,1.5-1.3,2.5-1.3c1.3,0,2,0.8,2,2.2v5.9h-1.2v-5.6c0-0.9-0.3-1.4-1.1-1.4
			c-0.8,0-1.6,0.6-2.1,1.1v5.9h-1.2V333z"/>
		<path fill="#353535" d="M563.8,339.4h1.4v1.6h-1.4V339.4z"/>
	</g>
</g>
<g>
	<g>
		<path fill="#353535" d="M635.9,329.2c3.5,0,6,2.3,6,5.6c0,3.3-2.5,5.6-6.1,5.6h-4.7v-11.2H635.9z M633.9,338.1h2
			c1.7,0,3-1.3,3-3.3c0-2-1.3-3.3-3.1-3.3h-1.9V338.1z"/>
		<path fill="#353535" d="M647.2,338.3l-0.8,2.1h-2.9l4.8-11.2h2.9l4.7,11.2h-3l-0.8-2.1H647.2z M649.6,332l-1.6,4.1h3.2L649.6,332z
			"/>
		<path fill="#353535" d="M662.5,331.4v8.9h-2.8v-8.9h-3.3v-2.3h9.6v2.3H662.5z"/>
		<path fill="#353535" d="M670.1,338.3l-0.8,2.1h-2.9l4.8-11.2h2.9l4.7,11.2h-3l-0.8-2.1H670.1z M672.5,332l-1.6,4.1h3.2L672.5,332z
			"/>
		<path fill="#353535" d="M631.1,350.3h2.4c3.1,0,4.7,1.6,4.7,5.5s-1.7,5.6-4.7,5.6h-2.4V350.3z M633.7,360.2c2.2,0,3.3-1.3,3.3-4.4
			c0-3-1-4.4-3.3-4.4h-1.3v8.8H633.7z"/>
		<path fill="#353535" d="M639.5,359.5c0-1.6,1.3-2.7,4.4-3.3v-0.5c0-0.9-0.4-1.3-1.2-1.3c-1,0-1.7,0.5-2.3,1.1l-0.7-0.7
			c0.8-0.8,1.9-1.4,3.1-1.4c1.5,0,2.2,0.9,2.2,2.4v3.8c0,1,0,1.5,0.2,1.9h-1.2c-0.1-0.3-0.2-0.6-0.2-1c-0.6,0.7-1.5,1.1-2.5,1.1
			C640.2,361.5,639.5,360.7,639.5,359.5z M643.9,359.4V357c-2.4,0.5-3.2,1.4-3.2,2.3c0,0.8,0.4,1.2,1.1,1.2
			C642.6,360.5,643.3,360,643.9,359.4z"/>
		<path fill="#353535" d="M647.4,359.6v-5.1h-1.2v-1h1.2v-2.8h1.2v2.8h1.7v1h-1.7v4.9c0,0.8,0.2,1.2,1,1.2c0.2,0,0.5,0,0.7-0.1v1
			c-0.2,0.1-0.6,0.1-0.9,0.1C648,361.5,647.4,360.9,647.4,359.6z"/>
		<path fill="#353535" d="M651.4,359.5c0-1.6,1.3-2.7,4.4-3.3v-0.5c0-0.9-0.4-1.3-1.2-1.3c-1,0-1.7,0.5-2.3,1.1l-0.7-0.7
			c0.8-0.8,1.9-1.4,3.1-1.4c1.5,0,2.2,0.9,2.2,2.4v3.8c0,1,0,1.5,0.2,1.9H656c-0.1-0.3-0.2-0.6-0.2-1c-0.6,0.7-1.5,1.1-2.5,1.1
			C652.1,361.5,651.4,360.7,651.4,359.5z M655.8,359.4V357c-2.4,0.5-3.2,1.4-3.2,2.3c0,0.8,0.4,1.2,1.1,1.2
			C654.5,360.5,655.3,360,655.8,359.4z"/>
		<path fill="#353535" d="M661.5,357.4c0-2.9,1.2-4.1,2.7-4.1c0.9,0,1.6,0.4,2.1,1.1v-4.1h1.2v9.1c0,1,0,1.5,0.2,1.9h-1.2
			c-0.1-0.3-0.2-0.8-0.2-1c-0.5,0.6-1.2,1.2-2.2,1.2C662.7,361.5,661.5,360.3,661.5,357.4z M666.4,359.4v-4
			c-0.6-0.7-1.2-1.1-1.9-1.1c-1.1,0-1.8,0.9-1.8,3.1c0,2.1,0.7,3,1.8,3C665.2,360.5,665.9,360,666.4,359.4z"/>
		<path fill="#353535" d="M669.5,353.4h1.2v1.4h0c0.4-0.8,1.3-1.5,2.5-1.5h0.2l-0.1,1.1c0,0-0.2,0-0.3,0c-1,0-1.9,0.7-2.3,1.6v5.3
			h-1.2V353.4z"/>
		<path fill="#353535" d="M674.8,350.6h1.2v1.3h-1.2V350.6z M674.8,353.4h1.2v7.9h-1.2V353.4z"/>
		<path fill="#353535" d="M677.3,353.4h1.2l1.3,4.5c0.2,0.7,0.3,1.2,0.6,2.1h0c0.2-0.9,0.4-1.4,0.6-2.1l1.3-4.5h1.1l-2.4,7.9h-1.3
			L677.3,353.4z"/>
		<path fill="#353535" d="M684.2,357.4c0-2.8,1.5-4.1,3.1-4.1c1.8,0,2.8,1.4,2.8,4.1v0.3h-4.7c0,1.9,0.8,2.9,1.9,2.9
			c0.9,0,1.4-0.5,1.9-1.4l0.8,0.5c-0.6,1.1-1.5,1.9-2.8,1.9C685.5,361.5,684.2,360.2,684.2,357.4z M688.9,356.7
			c-0.1-1.4-0.6-2.4-1.7-2.4c-0.9,0-1.7,0.7-1.8,2.4H688.9z"/>
		<path fill="#353535" d="M691,359.9l0.8-0.6c0.5,0.8,1.3,1.2,2.1,1.2c1,0,1.6-0.4,1.6-1.2c0-1.9-4.1-1.2-4.1-4c0-1.3,1-2.1,2.5-2.1
			c1.2,0,2,0.6,2.6,1.4l-0.8,0.6c-0.4-0.6-1-1-1.8-1c-0.9,0-1.3,0.4-1.3,1.1c0,2,4.1,1.1,4.1,4c0,1.4-1.2,2.2-2.7,2.2
			C692.6,361.5,691.6,360.9,691,359.9z"/>
		<path fill="#353535" d="M700.8,357.4c0-2.7,1.4-4.1,3.1-4.1c1.8,0,3.1,1.4,3.1,4.1c0,2.7-1.4,4.1-3.1,4.1
			C702.2,361.5,700.8,360.1,700.8,357.4z M705.8,357.4c0-1.7-0.6-3.1-1.9-3.1c-1.3,0-1.9,1.2-1.9,3.1c0,1.7,0.6,3.1,1.9,3.1
			C705.2,360.5,705.8,359.3,705.8,357.4z"/>
		<path fill="#353535" d="M708.5,359.3v-5.9h1.2v5.7c0,0.9,0.3,1.4,1.2,1.4c0.8,0,1.4-0.5,2.1-1.1v-5.9h1.2v7.9H713v-1.1
			c-0.6,0.7-1.5,1.3-2.5,1.3C709.2,361.5,708.5,360.8,708.5,359.3z"/>
		<path fill="#353535" d="M716.1,353.4h1.2v1.4h0c0.4-0.8,1.3-1.5,2.5-1.5h0.2l-0.1,1.1c0,0-0.2,0-0.3,0c-1,0-1.9,0.7-2.3,1.6v5.3
			h-1.2V353.4z"/>
		<path fill="#353535" d="M723.8,359.5c0-1.6,1.3-2.7,4.4-3.3v-0.5c0-0.9-0.4-1.3-1.2-1.3c-1,0-1.7,0.5-2.3,1.1l-0.7-0.7
			c0.8-0.8,1.9-1.4,3.1-1.4c1.5,0,2.2,0.9,2.2,2.4v3.8c0,1,0,1.5,0.2,1.9h-1.2c-0.1-0.3-0.2-0.6-0.2-1c-0.6,0.7-1.5,1.1-2.5,1.1
			C724.5,361.5,723.8,360.7,723.8,359.5z M728.3,359.4V357c-2.4,0.5-3.2,1.4-3.2,2.3c0,0.8,0.4,1.2,1.1,1.2
			C727,360.5,727.7,360,728.3,359.4z"/>
		<path fill="#353535" d="M731,357.4c0-2.8,1.4-4.1,3.1-4.1c1.6,0,2.3,1.1,2.7,2.4l-1.1,0.3c-0.3-1-0.7-1.6-1.6-1.6
			c-1,0-1.8,0.9-1.8,3.1c0,1.9,0.7,3.1,1.8,3.1c0.8,0,1.4-0.5,1.7-1.6l1.1,0.3c-0.4,1.5-1.3,2.4-2.8,2.4
			C732.3,361.5,731,360.1,731,357.4z"/>
		<path fill="#353535" d="M738.6,359.6v-5.1h-1.2v-1h1.2v-2.8h1.2v2.8h1.7v1h-1.7v4.9c0,0.8,0.2,1.2,1,1.2c0.2,0,0.5,0,0.7-0.1v1
			c-0.2,0.1-0.6,0.1-0.9,0.1C739.2,361.5,738.6,360.9,738.6,359.6z"/>
		<path fill="#353535" d="M743.1,350.6h1.2v1.3h-1.2V350.6z M743.1,353.4h1.2v7.9h-1.2V353.4z"/>
		<path fill="#353535" d="M746,357.4c0-2.7,1.4-4.1,3.1-4.1c1.8,0,3.1,1.4,3.1,4.1c0,2.7-1.4,4.1-3.1,4.1S746,360.1,746,357.4z
			 M751,357.4c0-1.7-0.6-3.1-1.9-3.1c-1.3,0-1.9,1.2-1.9,3.1c0,1.7,0.6,3.1,1.9,3.1C750.4,360.5,751,359.3,751,357.4z"/>
		<path fill="#353535" d="M753.8,353.4h1.2v1.1c0.5-0.6,1.5-1.3,2.5-1.3c1.3,0,2,0.8,2,2.2v5.9h-1.2v-5.6c0-0.9-0.3-1.4-1.1-1.4
			c-0.8,0-1.6,0.6-2.1,1.1v5.9h-1.2V353.4z"/>
		<path fill="#353535" d="M760.6,359.9l0.8-0.6c0.5,0.8,1.3,1.2,2.1,1.2c1,0,1.6-0.4,1.6-1.2c0-1.9-4.1-1.2-4.1-4
			c0-1.3,1-2.1,2.5-2.1c1.2,0,2,0.6,2.6,1.4l-0.8,0.6c-0.4-0.6-1-1-1.8-1c-0.9,0-1.3,0.4-1.3,1.1c0,2,4.1,1.1,4.1,4
			c0,1.4-1.2,2.2-2.7,2.2C762.2,361.5,761.3,360.9,760.6,359.9z"/>
		<path fill="#353535" d="M770.4,359.5c0-1.6,1.3-2.7,4.4-3.3v-0.5c0-0.9-0.4-1.3-1.2-1.3c-1,0-1.7,0.5-2.3,1.1l-0.7-0.7
			c0.8-0.8,1.9-1.4,3.1-1.4c1.5,0,2.2,0.9,2.2,2.4v3.8c0,1,0,1.5,0.2,1.9H775c-0.1-0.3-0.2-0.6-0.2-1c-0.6,0.7-1.5,1.1-2.5,1.1
			C771.1,361.5,770.4,360.7,770.4,359.5z M774.8,359.4V357c-2.4,0.5-3.2,1.4-3.2,2.3c0,0.8,0.4,1.2,1.1,1.2
			C773.5,360.5,774.3,360,774.8,359.4z"/>
		<path fill="#353535" d="M777.9,353.4h1.2v1.1c0.5-0.6,1.5-1.3,2.5-1.3c1.3,0,2,0.8,2,2.2v5.9h-1.2v-5.6c0-0.9-0.3-1.4-1.1-1.4
			c-0.8,0-1.6,0.6-2.1,1.1v5.9h-1.2V353.4z"/>
		<path fill="#353535" d="M785,357.4c0-2.9,1.2-4.1,2.7-4.1c0.9,0,1.6,0.4,2.1,1.1v-4.1h1.2v9.1c0,1,0,1.5,0.2,1.9h-1.2
			c-0.1-0.3-0.2-0.8-0.2-1c-0.5,0.6-1.2,1.2-2.2,1.2C786.2,361.5,785,360.3,785,357.4z M789.9,359.4v-4c-0.6-0.7-1.2-1.1-1.9-1.1
			c-1.1,0-1.8,0.9-1.8,3.1c0,2.1,0.7,3,1.8,3C788.8,360.5,789.4,360,789.9,359.4z"/>
		<path fill="#353535" d="M630.5,378.4c0-2.9,1.2-4.1,2.7-4.1c0.9,0,1.6,0.4,2.1,1.1v-4.1h1.2v9.1c0,1,0,1.5,0.2,1.9h-1.2
			c-0.1-0.3-0.2-0.8-0.2-1c-0.5,0.6-1.2,1.2-2.2,1.2C631.7,382.5,630.5,381.3,630.5,378.4z M635.4,380.4v-4
			c-0.6-0.7-1.2-1.1-1.9-1.1c-1.1,0-1.8,0.9-1.8,3.1c0,2.1,0.7,3,1.8,3C634.3,381.5,634.9,381,635.4,380.4z"/>
		<path fill="#353535" d="M638.2,378.4c0-2.8,1.5-4.1,3.1-4.1c1.8,0,2.8,1.4,2.8,4.1v0.3h-4.7c0,1.9,0.8,2.9,1.9,2.9
			c0.9,0,1.4-0.5,1.9-1.4l0.8,0.5c-0.6,1.1-1.5,1.9-2.8,1.9C639.5,382.5,638.2,381.2,638.2,378.4z M642.9,377.7
			c-0.1-1.4-0.6-2.4-1.7-2.4c-0.9,0-1.7,0.7-1.8,2.4H642.9z"/>
		<path fill="#353535" d="M645.2,378.4c0-2.8,1.4-4.1,3.1-4.1c1.6,0,2.3,1.1,2.7,2.4l-1.1,0.3c-0.3-1-0.7-1.6-1.6-1.6
			c-1,0-1.8,0.9-1.8,3.1c0,1.9,0.7,3.1,1.8,3.1c0.8,0,1.4-0.5,1.7-1.6l1.1,0.3c-0.4,1.5-1.3,2.4-2.8,2.4
			C646.6,382.5,645.2,381.1,645.2,378.4z"/>
		<path fill="#353535" d="M652.5,371.6h1.2v1.3h-1.2V371.6z M652.5,374.4h1.2v7.9h-1.2V374.4z"/>
		<path fill="#353535" d="M655.1,380.9l0.8-0.6c0.5,0.8,1.3,1.2,2.1,1.2c1,0,1.6-0.4,1.6-1.2c0-1.9-4.1-1.2-4.1-4
			c0-1.3,1-2.1,2.5-2.1c1.2,0,2,0.6,2.6,1.4l-0.8,0.6c-0.4-0.6-1-1-1.8-1c-0.9,0-1.3,0.4-1.3,1.1c0,2,4.1,1.1,4.1,4
			c0,1.4-1.2,2.2-2.7,2.2C656.6,382.5,655.7,381.9,655.1,380.9z"/>
		<path fill="#353535" d="M662.3,371.6h1.2v1.3h-1.2V371.6z M662.3,374.4h1.2v7.9h-1.2V374.4z"/>
		<path fill="#353535" d="M665.2,378.4c0-2.7,1.4-4.1,3.1-4.1c1.8,0,3.1,1.4,3.1,4.1c0,2.7-1.4,4.1-3.1,4.1
			C666.5,382.5,665.2,381.1,665.2,378.4z M670.2,378.4c0-1.7-0.6-3.1-1.9-3.1c-1.3,0-1.9,1.2-1.9,3.1c0,1.7,0.6,3.1,1.9,3.1
			C669.6,381.5,670.2,380.3,670.2,378.4z"/>
		<path fill="#353535" d="M673,374.4h1.2v1.1c0.5-0.6,1.5-1.3,2.5-1.3c1.3,0,1.9,0.8,1.9,2.2v5.9h-1.2v-5.6c0-0.9-0.3-1.4-1.1-1.4
			c-0.8,0-1.6,0.6-2.1,1.1v5.9H673V374.4z"/>
		<path fill="#353535" d="M679.8,380.9l0.8-0.6c0.5,0.8,1.3,1.2,2.1,1.2c1,0,1.6-0.4,1.6-1.2c0-1.9-4.1-1.2-4.1-4
			c0-1.3,1-2.1,2.5-2.1c1.2,0,2,0.6,2.6,1.4l-0.8,0.6c-0.4-0.6-1-1-1.8-1c-0.9,0-1.3,0.4-1.3,1.1c0,2,4.1,1.1,4.1,4
			c0,1.4-1.2,2.2-2.7,2.2C681.4,382.5,680.4,381.9,679.8,380.9z"/>
		<path fill="#353535" d="M687.1,380.8h1.4v1.6h-1.4V380.8z"/>
		<path fill="#353535" d="M693.1,371.3h1.2l1.2,5.7c0.3,1.2,0.4,1.9,0.7,3.3h0c0.2-1.4,0.4-2.1,0.6-3.3l1.1-5.7h1.1l1.2,5.8
			c0.2,1.1,0.4,2,0.6,3.1h0c0.2-1.1,0.4-2,0.6-3.1l1.2-5.8h1.1l-2.5,11.1h-1.1l-1.8-8.9h0l-1.8,8.9h-1.1L693.1,371.3z"/>
		<path fill="#353535" d="M704.8,378.4c0-2.8,1.5-4.1,3.1-4.1c1.8,0,2.8,1.4,2.8,4.1v0.3H706c0,1.9,0.8,2.9,1.9,2.9
			c0.9,0,1.4-0.5,1.9-1.4l0.8,0.5c-0.6,1.1-1.5,1.9-2.8,1.9C706.2,382.5,704.8,381.2,704.8,378.4z M709.6,377.7
			c-0.1-1.4-0.6-2.4-1.7-2.4c-0.9,0-1.7,0.7-1.8,2.4H709.6z"/>
		<path fill="#353535" d="M714.9,378.4c0-2.8,1.4-4.1,3.1-4.1c1.6,0,2.3,1.1,2.7,2.4l-1.1,0.3c-0.3-1-0.7-1.6-1.6-1.6
			c-1,0-1.8,0.9-1.8,3.1c0,1.9,0.7,3.1,1.8,3.1c0.8,0,1.4-0.5,1.7-1.6l1.1,0.3c-0.4,1.5-1.3,2.4-2.8,2.4
			C716.2,382.5,714.9,381.1,714.9,378.4z"/>
		<path fill="#353535" d="M721.7,378.4c0-2.7,1.4-4.1,3.1-4.1c1.8,0,3.1,1.4,3.1,4.1c0,2.7-1.4,4.1-3.1,4.1
			C723.1,382.5,721.7,381.1,721.7,378.4z M726.8,378.4c0-1.7-0.6-3.1-1.9-3.1c-1.3,0-1.9,1.2-1.9,3.1c0,1.7,0.6,3.1,1.9,3.1
			C726.1,381.5,726.8,380.3,726.8,378.4z"/>
		<path fill="#353535" d="M729.5,374.4h1.2v1.1c0.5-0.6,1.5-1.3,2.5-1.3c1.3,0,1.9,0.8,1.9,2.2v5.9H734v-5.6c0-0.9-0.3-1.4-1.1-1.4
			c-0.8,0-1.6,0.6-2.1,1.1v5.9h-1.2V374.4z"/>
		<path fill="#353535" d="M736.4,380.9l0.8-0.6c0.5,0.8,1.3,1.2,2.1,1.2c1,0,1.6-0.4,1.6-1.2c0-1.9-4.1-1.2-4.1-4
			c0-1.3,1-2.1,2.5-2.1c1.2,0,2,0.6,2.6,1.4l-0.8,0.6c-0.4-0.6-1-1-1.8-1c-0.9,0-1.3,0.4-1.3,1.1c0,2,4.1,1.1,4.1,4
			c0,1.4-1.2,2.2-2.7,2.2C738,382.5,737,381.9,736.4,380.9z"/>
		<path fill="#353535" d="M744,380.6v-5.1h-1.2v-1h1.2v-2.8h1.2v2.8h1.7v1h-1.7v4.9c0,0.8,0.2,1.2,1.1,1.2c0.2,0,0.5,0,0.7-0.1v1
			c-0.2,0.1-0.6,0.1-0.9,0.1C744.6,382.5,744,381.9,744,380.6z"/>
		<path fill="#353535" d="M748,380.5c0-1.6,1.3-2.7,4.4-3.3v-0.5c0-0.9-0.4-1.3-1.2-1.3c-1,0-1.7,0.5-2.3,1.1l-0.7-0.7
			c0.8-0.8,1.9-1.4,3.1-1.4c1.5,0,2.2,0.9,2.2,2.4v3.8c0,1,0,1.5,0.2,1.9h-1.2c-0.1-0.3-0.2-0.6-0.2-1c-0.6,0.7-1.5,1.1-2.5,1.1
			C748.7,382.5,748,381.7,748,380.5z M752.4,380.4V378c-2.4,0.5-3.2,1.4-3.2,2.3c0,0.8,0.4,1.2,1.1,1.2
			C751.1,381.5,751.9,381,752.4,380.4z"/>
		<path fill="#353535" d="M755.5,374.4h1.2v1.1c0.5-0.6,1.5-1.3,2.5-1.3c1.3,0,2,0.8,2,2.2v5.9H760v-5.6c0-0.9-0.3-1.4-1.1-1.4
			c-0.8,0-1.6,0.6-2.1,1.1v5.9h-1.2V374.4z"/>
		<path fill="#353535" d="M763.5,380.6v-5.1h-1.2v-1h1.2v-2.8h1.2v2.8h1.7v1h-1.7v4.9c0,0.8,0.2,1.2,1,1.2c0.2,0,0.5,0,0.7-0.1v1
			c-0.2,0.1-0.6,0.1-0.9,0.1C764.1,382.5,763.5,381.9,763.5,380.6z"/>
		<path fill="#353535" d="M768,371.3h1.2v11.1H768V371.3z"/>
		<path fill="#353535" d="M770.3,385.2l0.2-1c0.2,0,0.6,0.1,1,0.1c0.7,0,1-0.4,1.2-1.2l0.2-0.7l-2.5-8h1.2l1.2,4.1
			c0.3,0.9,0.4,1.5,0.6,2.4h0c0.2-0.9,0.4-1.6,0.7-2.5l1.2-4.1h1.2l-2.7,8.8c-0.5,1.5-1,2.1-2.3,2.1
			C771,385.4,770.6,385.3,770.3,385.2z"/>
		<path fill="#353535" d="M630.9,395.4h1.2v1.1c0.6-0.6,1.4-1.3,2.4-1.3c1.1,0,1.6,0.5,1.8,1.3c0.6-0.6,1.5-1.3,2.5-1.3
			c1.3,0,1.9,0.8,1.9,2.2v5.9h-1.2v-5.6c0-0.9-0.3-1.4-1.1-1.4c-0.7,0-1.4,0.5-2,1.1v6h-1.2v-5.6c0-0.9-0.2-1.4-1.1-1.4
			c-0.7,0-1.4,0.5-2,1.1v5.9h-1.2V395.4z"/>
		<path fill="#353535" d="M642.2,399.4c0-2.8,1.5-4.1,3.1-4.1c1.8,0,2.8,1.4,2.8,4.1v0.3h-4.7c0,1.9,0.8,2.8,1.9,2.8
			c0.9,0,1.4-0.5,1.9-1.4l0.8,0.5c-0.6,1.1-1.5,1.9-2.8,1.9C643.5,403.5,642.2,402.2,642.2,399.4z M646.9,398.7
			c-0.1-1.4-0.6-2.4-1.7-2.4c-0.9,0-1.7,0.7-1.8,2.4H646.9z"/>
		<path fill="#353535" d="M649.2,401.5c0-1.6,1.3-2.7,4.4-3.3v-0.5c0-0.9-0.4-1.3-1.2-1.3c-1,0-1.7,0.5-2.3,1.1l-0.7-0.7
			c0.8-0.8,1.9-1.4,3.1-1.4c1.5,0,2.2,0.9,2.2,2.4v3.8c0,1,0,1.5,0.2,2h-1.2c-0.1-0.3-0.2-0.6-0.2-1c-0.6,0.7-1.5,1.1-2.5,1.1
			C649.9,403.5,649.2,402.7,649.2,401.5z M653.6,401.4V399c-2.4,0.5-3.2,1.4-3.2,2.3c0,0.8,0.4,1.2,1.1,1.2
			C652.3,402.5,653.1,402,653.6,401.4z"/>
		<path fill="#353535" d="M656,401.9l0.8-0.6c0.5,0.8,1.3,1.2,2.1,1.2c1,0,1.6-0.4,1.6-1.2c0-2-4.1-1.2-4.1-4c0-1.3,1-2.1,2.5-2.1
			c1.2,0,2,0.6,2.6,1.4l-0.8,0.6c-0.4-0.6-1-1-1.8-1c-0.9,0-1.3,0.5-1.3,1.1c0,2,4.1,1.1,4.1,4c0,1.4-1.2,2.2-2.7,2.2
			C657.6,403.5,656.7,402.9,656,401.9z"/>
		<path fill="#353535" d="M663.2,401.3v-5.9h1.2v5.7c0,0.9,0.3,1.4,1.2,1.4c0.8,0,1.4-0.5,2.1-1.1v-5.9h1.2v7.9h-1.2v-1.1
			c-0.6,0.7-1.5,1.3-2.5,1.3C663.8,403.5,663.2,402.8,663.2,401.3z"/>
		<path fill="#353535" d="M670.8,395.4h1.2v1.4h0c0.4-0.8,1.3-1.5,2.5-1.5h0.2l-0.1,1.1c0,0-0.2,0-0.3,0c-1,0-1.9,0.7-2.3,1.6v5.3
			h-1.2V395.4z"/>
		<path fill="#353535" d="M675.6,399.4c0-2.8,1.5-4.1,3.1-4.1c1.8,0,2.8,1.4,2.8,4.1v0.3h-4.7c0,1.9,0.8,2.8,1.9,2.8
			c0.9,0,1.4-0.5,1.9-1.4l0.8,0.5c-0.6,1.1-1.5,1.9-2.8,1.9C676.9,403.5,675.6,402.2,675.6,399.4z M680.3,398.7
			c-0.1-1.4-0.6-2.4-1.7-2.4c-0.9,0-1.7,0.7-1.8,2.4H680.3z"/>
		<path fill="#353535" d="M683.6,403.4h-0.6v-1.6h1.4v1.4l-0.7,1.7h-0.6L683.6,403.4z"/>
		<path fill="#353535" d="M689.1,399.4c0-2.8,1.5-4.1,3.1-4.1c1.8,0,2.8,1.4,2.8,4.1v0.3h-4.7c0,1.9,0.8,2.8,1.9,2.8
			c0.9,0,1.4-0.5,1.9-1.4l0.8,0.5c-0.6,1.1-1.5,1.9-2.8,1.9C690.5,403.5,689.1,402.2,689.1,399.4z M693.9,398.7
			c-0.1-1.4-0.6-2.4-1.7-2.4c-0.9,0-1.7,0.7-1.8,2.4H693.9z"/>
		<path fill="#353535" d="M695.9,395.4h1.2l1.3,4.5c0.2,0.7,0.3,1.2,0.6,2.1h0c0.2-0.9,0.4-1.4,0.6-2.1l1.3-4.5h1.1l-2.4,7.9h-1.3
			L695.9,395.4z"/>
		<path fill="#353535" d="M702.8,401.5c0-1.6,1.3-2.7,4.4-3.3v-0.5c0-0.9-0.4-1.3-1.2-1.3c-1,0-1.7,0.5-2.3,1.1l-0.7-0.7
			c0.8-0.8,1.9-1.4,3.1-1.4c1.5,0,2.2,0.9,2.2,2.4v3.8c0,1,0,1.5,0.2,2h-1.2c-0.1-0.3-0.2-0.6-0.2-1c-0.6,0.7-1.5,1.1-2.5,1.1
			C703.5,403.5,702.8,402.7,702.8,401.5z M707.2,401.4V399c-2.4,0.5-3.2,1.4-3.2,2.3c0,0.8,0.4,1.2,1.1,1.2
			C705.9,402.5,706.6,402,707.2,401.4z"/>
		<path fill="#353535" d="M710.3,392.3h1.2v11.1h-1.2V392.3z"/>
		<path fill="#353535" d="M713.5,401.3v-5.9h1.2v5.7c0,0.9,0.3,1.4,1.2,1.4c0.8,0,1.4-0.5,2.1-1.1v-5.9h1.2v7.9h-1.2v-1.1
			c-0.6,0.7-1.5,1.3-2.5,1.3C714.2,403.5,713.5,402.8,713.5,401.3z"/>
		<path fill="#353535" d="M720.7,401.5c0-1.6,1.3-2.7,4.4-3.3v-0.5c0-0.9-0.4-1.3-1.2-1.3c-1,0-1.7,0.5-2.3,1.1l-0.7-0.7
			c0.8-0.8,1.9-1.4,3.1-1.4c1.5,0,2.2,0.9,2.2,2.4v3.8c0,1,0,1.5,0.2,2h-1.2c-0.1-0.3-0.2-0.6-0.2-1c-0.6,0.7-1.5,1.1-2.5,1.1
			C721.4,403.5,720.7,402.7,720.7,401.5z M725.1,401.4V399c-2.4,0.5-3.2,1.4-3.2,2.3c0,0.8,0.4,1.2,1.1,1.2
			C723.8,402.5,724.5,402,725.1,401.4z"/>
		<path fill="#353535" d="M728.6,401.6v-5.1h-1.2v-1h1.2v-2.8h1.2v2.8h1.7v1h-1.7v4.9c0,0.8,0.2,1.2,1,1.2c0.2,0,0.5,0,0.7-0.1v1
			c-0.2,0.1-0.6,0.1-0.9,0.1C729.2,403.5,728.6,402.9,728.6,401.6z"/>
		<path fill="#353535" d="M732.6,399.4c0-2.8,1.5-4.1,3.1-4.1c1.8,0,2.8,1.4,2.8,4.1v0.3h-4.7c0,1.9,0.8,2.8,1.9,2.8
			c0.9,0,1.4-0.5,1.9-1.4l0.8,0.5c-0.6,1.1-1.5,1.9-2.8,1.9C734,403.5,732.6,402.2,732.6,399.4z M737.4,398.7
			c-0.1-1.4-0.6-2.4-1.7-2.4c-0.9,0-1.7,0.7-1.8,2.4H737.4z"/>
		<path fill="#353535" d="M742.6,401.5c0-1.6,1.3-2.7,4.4-3.3v-0.5c0-0.9-0.4-1.3-1.2-1.3c-1,0-1.7,0.5-2.3,1.1l-0.7-0.7
			c0.8-0.8,1.9-1.4,3.1-1.4c1.5,0,2.2,0.9,2.2,2.4v3.8c0,1,0,1.5,0.2,2h-1.2c-0.1-0.3-0.2-0.6-0.2-1c-0.6,0.7-1.5,1.1-2.5,1.1
			C743.3,403.5,742.6,402.7,742.6,401.5z M747.1,401.4V399c-2.4,0.5-3.2,1.4-3.2,2.3c0,0.8,0.4,1.2,1.1,1.2
			C745.8,402.5,746.5,402,747.1,401.4z"/>
		<path fill="#353535" d="M750.1,395.4h1.2v1.1c0.5-0.6,1.5-1.3,2.5-1.3c1.3,0,2,0.8,2,2.2v5.9h-1.2v-5.6c0-0.9-0.3-1.4-1.1-1.4
			c-0.8,0-1.6,0.6-2.1,1.1v5.9h-1.2V395.4z"/>
		<path fill="#353535" d="M757.3,399.4c0-2.9,1.2-4.1,2.7-4.1c0.9,0,1.6,0.5,2.1,1.1v-4.1h1.2v9.1c0,1,0,1.5,0.2,2h-1.2
			c-0.1-0.3-0.2-0.8-0.2-1c-0.5,0.6-1.2,1.2-2.2,1.2C758.4,403.5,757.3,402.3,757.3,399.4z M762.2,401.4v-4
			c-0.6-0.7-1.2-1.1-1.9-1.1c-1.1,0-1.8,0.9-1.8,3.1c0,2.1,0.7,3,1.8,3C761,402.5,761.7,402,762.2,401.4z"/>
		<path fill="#353535" d="M767.8,401.5c0-1.6,1.3-2.7,4.4-3.3v-0.5c0-0.9-0.4-1.3-1.2-1.3c-1,0-1.7,0.5-2.3,1.1l-0.7-0.7
			c0.8-0.8,1.9-1.4,3.1-1.4c1.5,0,2.2,0.9,2.2,2.4v3.8c0,1,0,1.5,0.2,2h-1.2c-0.1-0.3-0.2-0.6-0.2-1c-0.6,0.7-1.5,1.1-2.5,1.1
			C768.5,403.5,767.8,402.7,767.8,401.5z M772.3,401.4V399c-2.4,0.5-3.2,1.4-3.2,2.3c0,0.8,0.4,1.2,1.1,1.2
			C771,402.5,771.7,402,772.3,401.4z"/>
		<path fill="#353535" d="M775,399.4c0-2.9,1.2-4.1,2.7-4.1c0.9,0,1.6,0.5,2.1,1.1v-4.1h1.2v9.1c0,1,0,1.5,0.2,2H780
			c-0.1-0.3-0.2-0.8-0.2-1c-0.5,0.6-1.2,1.2-2.2,1.2C776.1,403.5,775,402.3,775,399.4z M779.8,401.4v-4c-0.6-0.7-1.2-1.1-1.9-1.1
			c-1.1,0-1.8,0.9-1.8,3.1c0,2.1,0.7,3,1.8,3C778.7,402.5,779.3,402,779.8,401.4z"/>
		<path fill="#353535" d="M782,406.3v-0.9c0.1,0,0.3,0,0.4,0c0.4,0,0.6-0.3,0.6-0.9v-9.1h1.2v9.1c0,1.2-0.4,1.8-1.7,1.8
			C782.4,406.4,782,406.3,782,406.3z M783,392.6h1.2v1.3H783V392.6z"/>
		<path fill="#353535" d="M786.2,401.3v-5.9h1.2v5.7c0,0.9,0.3,1.4,1.2,1.4c0.8,0,1.4-0.5,2.1-1.1v-5.9h1.2v7.9h-1.2v-1.1
			c-0.6,0.7-1.5,1.3-2.5,1.3C786.9,403.5,786.2,402.8,786.2,401.3z"/>
		<path fill="#353535" d="M793.1,401.9l0.8-0.6c0.5,0.8,1.3,1.2,2.1,1.2c1,0,1.6-0.4,1.6-1.2c0-2-4.1-1.2-4.1-4c0-1.3,1-2.1,2.5-2.1
			c1.2,0,2,0.6,2.6,1.4l-0.8,0.6c-0.4-0.6-1-1-1.8-1c-0.9,0-1.3,0.5-1.3,1.1c0,2,4.1,1.1,4.1,4c0,1.4-1.2,2.2-2.7,2.2
			C794.7,403.5,793.7,402.9,793.1,401.9z"/>
		<path fill="#353535" d="M800.8,401.6v-5.1h-1.2v-1h1.2v-2.8h1.2v2.8h1.7v1H802v4.9c0,0.8,0.2,1.2,1,1.2c0.2,0,0.5,0,0.7-0.1v1
			c-0.2,0.1-0.6,0.1-0.9,0.1C801.3,403.5,800.8,402.9,800.8,401.6z"/>
		<path fill="#353535" d="M805.3,401.8h1.4v1.6h-1.4V401.8z"/>
	</g>
</g>
<g>
	<g>
		<g>
			<path fill="#353535" d="M668.2,143.9H687c21.3,0,34.5,10.1,34.5,38.8c0,29-13.5,39.3-34.5,39.3h-18.8V143.9z M688.4,210.9
				c14.6,0,20.6-7.7,20.6-28.2c0-19.8-6-27.4-20.7-27.4h-7.6v55.6H688.4z"/>
		</g>
		<g>
			<path fill="#353535" d="M728.6,208.3c0-11.7,10.6-19.5,30.7-23.3v-2.4c0-5.3-2-7.3-7-7.3c-6.2,0-11.8,3-15.8,6.4l-6-7.4
				c5.9-5.5,14.2-9.4,23.3-9.4c11.8,0,17.2,6,17.2,17.6v25.8c0,6.8,0.4,10.9,1.4,13.7h-11.9c-0.6-2.1-1.2-3.8-1.2-7.1
				c-3.8,4.9-10,7.7-17.2,7.7C734.2,222.6,728.6,217.6,728.6,208.3z M759.3,207.3v-14.1c-13.2,2.9-19,7.3-19,13.1
				c0,4.6,2.5,6.9,6.5,6.9C752,213.1,756.3,210.6,759.3,207.3z"/>
		</g>
	</g>
	<g>
		<g>
			<path fill="#353535" d="M791.1,120H783v-2.4l7.6-13.2h3.4v12.9h2.8v2.7h-2.8v4.2h-3V120z M791.1,117.3v-8.7h0l-4.9,8.7H791.1z"/>
		</g>
	</g>
</g>
</svg>
