<?xml version="1.0" encoding="utf-8"?>
<!-- Generator: Adobe Illustrator 17.1.0, SVG Export Plug-In . SVG Version: 6.00 Build 0)  -->
<!DOCTYPE svg PUBLIC "-//W3C//DTD SVG 1.1//EN" "http://www.w3.org/Graphics/SVG/1.1/DTD/svg11.dtd">
<svg version="1.1" id="Layer_1" xmlns="http://www.w3.org/2000/svg" xmlns:xlink="http://www.w3.org/1999/xlink" x="0px" y="0px"
	 viewBox="0 0 811.9 780.9" enable-background="new 0 0 811.9 780.9" xml:space="preserve">
<g>
	<g>
		<g>
			<path fill="#353535" d="M196.9,124.2v175H25v-175H196.9 M200.9,120.2h-4H25h-4v4v175v4h4h171.8h4v-4v-175V120.2L200.9,120.2z"/>
		</g>
	</g>
	<g>
		<g>
			<g>
				<path fill="#353535" d="M55.2,172.1h12.4v31.3H95v-31.3h12.4v78H95v-35.2H67.6V250H55.2V172.1z"/>
			</g>
			<g>
				<path fill="#353535" d="M120.3,235.5v-41.3h12V233c0,5.5,1.8,8,6.6,8c4.4,0,8.6-3.1,12.2-6.5v-40.2h12V250h-12v-7.3
					c-3.7,4.2-9.6,8.4-17.2,8.4C125.4,251.2,120.3,245.8,120.3,235.5z"/>
			</g>
		</g>
	</g>
	<g>
		<g>
			<path fill="#353535" d="M177.9,151.8h3.1v-14c-0.8,0.5-2.1,0.9-3.1,0.9v-2.8c1.3-0.1,2.4-0.5,3.2-1.3h3v17.1h2.8v2.7h-9V151.8z"
				/>
		</g>
	</g>
</g>
<g>
	<g>
		<g>
			<g>
				<path fill="#353535" d="M274.6,353.5h18.8c21.3,0,34.5,10.1,34.5,38.8c0,29-13.5,39.2-34.5,39.2h-18.8V353.5z M294.7,420.4
					c14.5,0,20.5-7.7,20.5-28.1c0-19.8-6-27.4-20.7-27.4H287v55.5H294.7z"/>
			</g>
			<g>
				<path fill="#353535" d="M338.4,355.2h12.1v11.3h-12.1V355.2z M338.4,375.7h12v55.8h-12V375.7z"/>
			</g>
		</g>
	</g>
	<g>
		<g>
			<path fill="#353535" d="M377.4,334.7c0-8.9,8.9-8.8,8.9-14.4c0-1.7-0.9-2.6-2.5-2.6c-1.6,0-2.7,1.1-3.5,3l-2.6-1.1
				c1.2-2.9,3.2-4.7,6.3-4.7c3.5,0,5.4,2.2,5.4,5.3c0,6.4-8.3,7.6-8.4,12.2h8.4v2.7h-11.9V334.7z"/>
		</g>
	</g>
	<g>
		<g>
			<path fill="#353535" d="M399.9,304.8v175H228v-175H399.9 M403.9,300.8h-4H228h-4v4v175v4h4h171.8h4v-4v-175V300.8L403.9,300.8z"
				/>
		</g>
	</g>
</g>
<g>
	<g>
		<g>
			<path fill="#353535" d="M581.1,29.9l2.6-1.2c0.9,2.1,2,2.9,3.7,2.9c2.1,0,3.4-1.3,3.4-3.2c0-2.5-1.4-3.7-4.6-3.7h-0.8v-2.5h1.2
				c2.9,0,3.9-1.2,3.9-3.2c0-1.5-0.7-2.5-2.7-2.5c-1.5,0-2.7,0.8-3.6,2.1l-2.2-1.5c1.4-2,3.4-3.4,6.1-3.4c3.6,0,5.4,2.1,5.4,4.9
				c0,2.4-1.4,4.1-3.1,4.7c2.1,0.7,3.5,2.3,3.5,5.1c0,3.5-2.5,5.8-6.3,5.8C584.1,34.4,582.2,32.5,581.1,29.9z"/>
		</g>
	</g>
	<g>
		<g>
			<g>
				<path fill="#353535" d="M604.9,4v175H433V4H604.9 M608.9,0h-4H433h-4v4v175v4h4h171.8h4v-4V4V0L608.9,0z"/>
			</g>
		</g>
	</g>
	<g>
		<g>
			<g>
				<path fill="#353535" d="M471.2,53.3h12.4v66.8h30v11.2h-42.5V53.3z"/>
			</g>
			<g>
				<path fill="#353535" d="M519.8,103.3c0-20.8,11.5-29.1,22.9-29.1c12.5,0,21.2,9.2,21.2,29.4v3.3h-32.2
					c0.5,10.5,4.8,15.7,11.8,15.7c5.9,0,9.3-2.8,12.7-7.6l7.6,5.5c-4.2,6.7-11.8,11.9-20.9,11.9C530,132.4,519.8,123.4,519.8,103.3z
					 M552.7,98.5c-0.5-9.3-3.7-14.2-10.1-14.2c-5.3,0-9.9,3.8-10.9,14.2H552.7z"/>
			</g>
		</g>
	</g>
</g>
<g>
	<g>
		<g>
			<g>
				<path fill="#353535" d="M807.9,94.9v175H636v-175H807.9 M811.9,90.9h-4H636h-4v4v175v4h4h171.8h4v-4v-175V90.9L811.9,90.9z"/>
			</g>
		</g>
	</g>
</g>
<g>
	<rect x="20.5" y="346.9" fill="none" width="179.7" height="210.5"/>
	<text transform="matrix(1 0 0 1 20.4879 358.7674)"><tspan x="0" y="0" fill="#353535" font-family="'Montserrat-Bold'" font-size="16" letter-spacing="1">HUMAN</tspan><tspan x="0" y="21" fill="#353535" font-family="'BentonSans-CondensedRegular'" font-size="15">The who. The vision for the</tspan><tspan x="0" y="42" fill="#353535" font-family="'BentonSans-CondensedRegular'" font-size="15">project or product is human </tspan><tspan x="0" y="63" fill="#353535" font-family="'BentonSans-CondensedRegular'" font-size="15">centered. The needs and </tspan><tspan x="0" y="84" fill="#353535" font-family="'BentonSans-CondensedRegular'" font-size="15">problems of the customers </tspan><tspan x="0" y="105" fill="#353535" font-family="'BentonSans-CondensedRegular'" font-size="15">are top-of-mind, our actions</tspan><tspan x="0" y="126" fill="#353535" font-family="'BentonSans-CondensedRegular'" font-size="15">are empirically-driven and our</tspan><tspan x="0" y="147" fill="#353535" font-family="'BentonSans-CondensedRegular'" font-size="15">interactions are genuine.</tspan></text>
</g>
<g>
	<rect x="223" y="528.7" fill="none" width="179.7" height="210.5"/>
	<text transform="matrix(1 0 0 1 222.9662 540.5298)"><tspan x="0" y="0" fill="#353535" font-family="'Montserrat-Bold'" font-size="16" letter-spacing="1">DIGITAL</tspan><tspan x="0" y="21" fill="#353535" font-family="'BentonSans-CondensedRegular'" font-size="15">The what. The digital nature </tspan><tspan x="0" y="42" fill="#353535" font-family="'BentonSans-CondensedRegular'" font-size="15">of the solutions we design is </tspan><tspan x="0" y="63" fill="#353535" font-family="'BentonSans-CondensedRegular'" font-size="15">intrinsic to the functionality of </tspan><tspan x="0" y="84" fill="#353535" font-family="'BentonSans-CondensedRegular'" font-size="15">each product. Our goods and </tspan><tspan x="0" y="105" fill="#353535" font-family="'BentonSans-CondensedRegular'" font-size="15">services are network-enabled </tspan><tspan x="0" y="126" fill="#353535" font-family="'BentonSans-CondensedRegular'" font-size="15">and scalable to the market </tspan><tspan x="0" y="147" fill="#353535" font-family="'BentonSans-CondensedRegular'" font-size="15">size.</tspan></text>
</g>
<g>
	<rect x="427.5" y="224.1" fill="none" width="179.7" height="210.5"/>
	<text transform="matrix(1 0 0 1 427.4672 235.9293)"><tspan x="0" y="0" fill="#353535" font-family="'Montserrat-Bold'" font-size="16" letter-spacing="1">LEAN</tspan><tspan x="0" y="21" fill="#353535" font-family="'BentonSans-CondensedRegular'" font-size="15">The how. Efficiency is</tspan><tspan x="0" y="42" fill="#353535" font-family="'BentonSans-CondensedRegular'" font-size="15">paramount. Waste is shunned </tspan><tspan x="0" y="63" fill="#353535" font-family="'BentonSans-CondensedRegular'" font-size="15">in our efforts to build our </tspan><tspan x="0" y="84" fill="#353535" font-family="'BentonSans-CondensedRegular'" font-size="15">customer channels and gain </tspan><tspan x="0" y="105" fill="#353535" font-family="'BentonSans-CondensedRegular'" font-size="15">traction. Speed and </tspan><tspan x="0" y="126" fill="#353535" font-family="'BentonSans-CondensedRegular'" font-size="15">experimentation give way to </tspan><tspan x="0" y="147" fill="#353535" font-family="'BentonSans-CondensedRegular'" font-size="15">validation, simplicity in all</tspan><tspan x="0" y="168" fill="#353535" font-family="'BentonSans-CondensedRegular'" font-size="15">things is key.</tspan></text>
</g>
<g>
	<rect x="629.9" y="328.5" fill="none" width="179.7" height="210.5"/>
	<text transform="matrix(1 0 0 1 629.9457 340.3624)"><tspan x="0" y="0" fill="#353535" font-family="'Montserrat-Bold'" font-size="16" letter-spacing="1">DATA</tspan><tspan x="0" y="21" fill="#353535" font-family="'BentonSans-CondensedRegular'" font-size="15">The essence. Data is our</tspan><tspan x="0" y="42" fill="#353535" font-family="'BentonSans-CondensedRegular'" font-size="15">bedrock. Our measurements</tspan><tspan x="0" y="63" fill="#353535" font-family="'BentonSans-CondensedRegular'" font-size="15">are consistently made, our</tspan><tspan x="0" y="84" fill="#353535" font-family="'BentonSans-CondensedRegular'" font-size="15">decisions—whether product </tspan><tspan x="0" y="105" fill="#353535" font-family="'BentonSans-CondensedRegular'" font-size="15">centered or financial—are </tspan><tspan x="0" y="126" fill="#353535" font-family="'BentonSans-CondensedRegular'" font-size="15">guided by validated data. Our </tspan><tspan x="0" y="147" fill="#353535" font-family="'BentonSans-CondensedRegular'" font-size="15">actions are driven by logic </tspan><tspan x="0" y="168" fill="#353535" font-family="'BentonSans-CondensedRegular'" font-size="15">and fact.</tspan></text>
</g>
<g>
	<g>
		<g>
			<path fill="#353535" d="M668.2,143.9H687c21.3,0,34.5,10.1,34.5,38.8c0,29-13.5,39.3-34.5,39.3h-18.8V143.9z M688.4,210.9
				c14.6,0,20.6-7.7,20.6-28.2c0-19.8-6-27.4-20.7-27.4h-7.6v55.6H688.4z"/>
		</g>
		<g>
			<path fill="#353535" d="M728.6,208.3c0-11.7,10.6-19.5,30.7-23.3v-2.4c0-5.3-2-7.3-7-7.3c-6.2,0-11.8,3-15.8,6.4l-6-7.4
				c5.9-5.5,14.2-9.4,23.3-9.4c11.8,0,17.2,6,17.2,17.6v25.8c0,6.8,0.4,10.9,1.4,13.7h-11.9c-0.6-2.1-1.2-3.8-1.2-7.1
				c-3.8,4.9-10,7.7-17.2,7.7C734.2,222.6,728.6,217.6,728.6,208.3z M759.3,207.3v-14.1c-13.2,2.9-19,7.3-19,13.1
				c0,4.6,2.5,6.9,6.5,6.9C752,213.1,756.3,210.6,759.3,207.3z"/>
		</g>
	</g>
	<g>
		<g>
			<path fill="#353535" d="M791.1,120H783v-2.4l7.6-13.2h3.4v12.9h2.8v2.7h-2.8v4.2h-3V120z M791.1,117.3v-8.7h0l-4.9,8.7H791.1z"/>
		</g>
	</g>
</g>
</svg>
