<?xml version="1.0" encoding="utf-8"?>
<!-- Generator: Adobe Illustrator 17.1.0, SVG Export Plug-In . SVG Version: 6.00 Build 0)  -->
<!DOCTYPE svg PUBLIC "-//W3C//DTD SVG 1.1//EN" "http://www.w3.org/Graphics/SVG/1.1/DTD/svg11.dtd">
<svg version="1.1" id="Layer_1" xmlns="http://www.w3.org/2000/svg" xmlns:xlink="http://www.w3.org/1999/xlink" x="0px" y="0px"
	 viewBox="0 0 811.9 780.9" enable-background="new 0 0 811.9 780.9" xml:space="preserve">
<g opacity="0.7">
	<path fill="#FCD9BE" d="M151.4,425.2c-1.7,4.6-3.5,9.1-5.2,13.5c-0.3,0.9-0.9,1.9-1.7,3c-1.7,2.3-3.5,4.8-5.2,7.4
		c-0.9,0.9-1.6,1.6-2.2,2.2c-0.9,1.7-1.7,3.6-2.6,5.7c0,0.9-0.3,1.5-0.9,1.7c-1.7,3.5-3.9,7-6.5,10.4c-1.5,1.5-2.8,3-3.9,4.8
		c-1.2,1.2-2.3,2.3-3.5,3.5c-1.7,1.7-3.8,3.5-6.1,5.2c-1.7,0.9-3.5,2.5-5.2,4.8c-1.7,1.7-3,3-3.9,3.9c-0.6,0.9-1.9,1.7-3.9,2.6
		c0,0.9,0,2.2,0,3.9c0,0.9,0,1.6,0,2.2c0,3.5-0.2,6.8-0.4,10c-0.3,0-0.4,0.3-0.4,0.9c-0.9,3.5-1.3,7.4-1.3,11.7
		c0.3,1.7-0.2,3.6-1.3,5.7c0.6,2.3,0.3,4.4-0.9,6.1c-0.6,4.4-1.7,8.8-3.5,13.5c-0.9,2.9-2.2,6.1-3.9,9.6c-1.5,3.5-3.5,6.8-6.1,10
		c0,0.3-0.4,0.7-1.3,1.3c-1.7,1.2-3.5,2.6-5.2,4.4c-2.6,3.5-6.5,5.9-11.7,7.4c-0.3-0.6-0.9-0.4-1.7,0.4h-9.1c-3.5-1.7-5.9-4.1-7.4-7
		c-0.9-1.7-2.2-3.3-3.9-4.8c0-1.5-0.3-2.6-0.9-3.5c-1.2-2.3-2.2-4.4-3-6.1c-0.9-2-1.7-3.5-2.6-4.4c0.3-1.7,0.4-3.5,0.4-5.2
		c0-0.9-0.3-2.5-0.9-4.8c0.9-2.9,1.7-5.8,2.6-8.7c1.2-4.4,3-8.3,5.7-11.7c2-3.5,4.2-6.7,6.5-9.6c2.3-2.6,4.8-5.1,7.4-7.4
		c1.2-1.2,2.6-2.3,4.4-3.5c0.9-0.6,1.4-1.2,1.7-1.7c1.4-1.2,2.6-2.2,3.5-3s1.7-1.6,2.6-2.2c0.3-2.3,0.7-4.4,1.3-6.1
		c0.6-0.6,0.6-1.2,0-1.7c0-2.6,0-5.2,0-7.8c0-0.9-0.1-1.3-0.4-1.3c-2.6,0.3-5.4,0.9-8.3,1.7c-2.9,0.9-5.8,2-8.7,3.5
		c-1.7-0.3-3.6,0-5.7,0.9c-0.3,0-0.9,0-1.7,0c-2.9,0-6.1,0-9.6,0c-0.9-0.3-2-0.4-3.5-0.4c-2.6,0.9-5.2,0.9-7.8,0
		c-1.5-1.2-2.6-2.2-3.5-3c-2-0.9-3.9-1.3-5.7-1.3c-0.6-0.6-1.2-1-1.7-1.3c-0.6,0-1.3,0-2.2,0c0,0.3-0.3,0.1-0.9-0.4
		c-1.4-1.2-2.6-2.6-3.5-4.4c-2-2.9-3.5-6.2-4.4-10c0-1.7-0.4-3-1.3-3.9c-1.2-4.4-1.7-8.3-1.7-11.7c0.6-2,0.4-4.2-0.4-6.5
		c1.5-2.9,2.6-5.2,3.5-7c0.3-0.9,1-2.2,2.2-3.9c1.5-2,2-3.5,1.7-4.4c1.2-0.9,2-1.9,2.6-3c4.1-3.5,6.5-5.5,7.4-6.1
		c0.3-0.6,0.7-0.9,1.3-0.9c0-0.6,0.9-1.3,2.6-2.2c1.7-0.9,2.6-1.2,2.6-0.9c1.2-0.3,2.2-0.7,3-1.3c1.4-0.6,3-1.2,4.8-1.7
		c2.6-1.2,4.5-2.2,5.7-3c1.7-0.9,3-1.6,3.9-2.2c1.7-1.2,3.8-1.9,6.1-2.2c2.3-0.3,4.6-0.7,7-1.3c3.5,0.6,6.7,1.3,9.6,2.2
		c0.6,0.3,1.3,0.4,2.2,0.4c3.5,1.7,7,3.3,10.4,4.8c2.3,0.9,4.1,2.2,5.2,3.9c0.9,0.6,1.6,0.7,2.2,0.4c0.9-0.9,1.3-1.6,1.3-2.2
		c0.9,0,1.6,0.3,2.2,0.9c0.6-1.2,1.2-2.2,1.7-3c1.2-0.3,2.3-0.4,3.5-0.4c0.9-0.9,1.7-1.3,2.6-1.3c1.2,0.9,2.3,1.5,3.5,1.7
		c0.6,0.9,1.2,1.9,1.7,3c0.6,4.1,0.6,8,0,11.7c0,1.7,0.1,3.9,0.4,6.5c0.3,0.9,0.4,2.5,0.4,4.8c0,8.4,0,16.7,0,24.8
		c-0.6,0.6-0.9,1.2-0.9,1.7c0,2.9,0,5.7,0,8.3c0.6-0.9,1.3-1.7,2.2-2.6c1.7-1.7,3-3,3.9-3.9c0.6-1.2,2.2-2.2,4.8-3
		c0.9-1.7,2.2-3,3.9-3.9c2.9-2.3,5.1-5.2,6.5-8.7c1.7-1.7,3.2-3.6,4.4-5.7c0.3-0.3,0.7-1,1.3-2.2c0.6-1.7,1.2-2.5,1.7-2.2
		c1.7-2.6,3.2-4.9,4.4-7c1.2-2.6,2.9-6.7,5.2-12.2c1.2-0.9,2.2-1.7,3-2.6c0.9-0.3,1.6-0.9,2.2-1.7c2.9-0.9,5.4,0,7.4,2.6
		C152.3,420.4,152.3,422.6,151.4,425.2z M68.7,446.1c-0.3-0.6-0.9-0.9-1.7-0.9c0-1.7-0.4-3.2-1.3-4.4c-0.6-2.9-1-5.7-1.3-8.3
		c0.3-0.9,0-1.4-0.9-1.7c-3.5-0.9-7.4-2-11.7-3.5c-1.7-0.9-3.6-0.9-5.7,0c-0.9,0.3-2.8,2.2-5.7,5.7c-1.2,1.7-1.6,3.3-1.3,4.8
		c0.6,0.9,0.3,1.3-0.9,1.3c-0.3-0.6-0.4-0.6-0.4,0c-1.2,1.2-1.5,2.3-0.9,3.5c-0.6,0.6-1,1.3-1.3,2.2v2.2c-0.9,1.7-1.5,3.2-1.7,4.4
		c-0.6,0.9-0.6,2.2,0,3.9c-0.9,4.1-1.2,8.3-0.9,12.6c0.9,0,1.4,0.7,1.7,2.2c0.3,0.9,0.7,1.7,1.3,2.6c1.2,0.9,2.8,1.6,4.8,2.2
		c1.7,0.6,3,0.6,3.9,0c2.9-1.2,5.7-2.2,8.3-3c2.6-1.4,4.9-2.8,7-3.9c1.7-1.7,3-3.5,3.9-5.2c1.7-4.1,3.3-8.1,4.8-12.2
		C69.3,448.7,69.3,447.3,68.7,446.1z M66.1,522.2c-2,1.2-3.9,2.6-5.7,4.4h-1.3c-0.9,0.9-1.6,1.7-2.2,2.6c-0.6,0.9-1.3,2-2.2,3.5
		c-0.9,1.4-1.5,2.8-1.7,3.9c-0.9,2.6-1.6,4.8-2.2,6.5v9.6c0.9,1.7,1.7,3.9,2.6,6.5c1.2-0.6,2.3-0.9,3.5-0.9c1.7-1.2,2.9-2.8,3.5-4.8
		c1.2-3.8,2.3-7.7,3.5-11.7c1.2-2.6,1.7-5.2,1.7-7.8c0-0.9,0.1-1.7,0.4-2.6C67,528.5,67,525.4,66.1,522.2z"/>
	<path fill="#FCD9BE" d="M213.3,451.8c-4.4,2.9-7.7,5.8-10,8.7c-4.1,4.1-8.4,7.8-13.1,11.3c-2.3,0.9-4.6,1.7-7,2.6h-12.6
		c-2.3-0.9-6.1-2.2-11.3-3.9c-4.9-2-8.1-3-9.6-3c-3.8-0.6-7.1-1.7-10-3.5c-1.2-1.2-2.5-2.5-3.9-3.9c-2.6-3.8-4.6-6.2-6.1-7.4
		c-0.9-1.7-2.3-5.1-4.4-10c0.3-2.6,0.1-5.4-0.4-8.3c0.6-4.1,0.9-7.8,0.9-11.3c1.7-2.6,3-5.2,3.9-7.8c0.9-2.6,1.7-4.5,2.6-5.7
		c0.9-0.9,1.3-1.4,1.3-1.7c0-0.3,0-0.7,0-1.3c1.2-1.2,2.5-2.2,3.9-3c0.3-0.9,0.7-1.7,1.3-2.6c3.5-1.4,6.1-3,7.8-4.8
		c4.1-1.2,8.3-2.2,12.6-3s8.3-2,11.7-3.5c5.2-0.3,9.7,0,13.5,0.9c0.3,0.3,0.7,0.4,1.3,0.4c3.5,1.7,5.5,3.2,6.1,4.4
		c0.9,0.9,2.2,2.8,3.9,5.7c0.3,0.9,0.7,1.9,1.3,3v3.5c-0.9,2.3-1.9,4.5-3,6.5c-2.6,1.7-5.1,3.8-7.4,6.1c-3.5,1.5-6.8,2.8-10,3.9
		c-1.5,0.6-3,0.7-4.8,0.4c-2.9,0.3-5.8,0.9-8.7,1.7c-0.6,0-1,0.4-1.3,1.3c0.6,1.7,0.9,3.5,0.9,5.2c0,1.2,0,2.6,0,4.4
		c0.9,1.2,1.7,2.6,2.6,4.4c1.4,2.3,3.5,4.4,6.1,6.1c0.9,0.6,1.7,1.5,2.6,2.6c0.9,0.6,1.4,1.2,1.7,1.7c1.7,1.2,3.2,2.6,4.4,4.4
		c0.9,0,1.4-0.1,1.7-0.4c2.9-0.9,5.7-2.5,8.3-4.8c2.9-2.6,5.5-4.8,7.8-6.5c0-0.3,1.2-1.3,3.5-3c2.3-1.7,3.3-2.8,3-3
		c2.6-2.3,4.6-4.1,6.1-5.2c1.4-1.4,3.6-3.2,6.5-5.2c3.5-2.6,5.7-4.5,6.5-5.7c0.9-1.2,3-3.2,6.5-6.1c2.6-2.3,4.2-3.8,4.8-4.4
		c0.9-0.6,2.2-2.3,3.9-5.2c0.9-1.2,1-1.7,0.4-1.7c0-0.6,0.4-1.3,1.3-2.2c1.7-1.7,3.2-2.9,4.4-3.5c1.2-0.9,2.3-0.7,3.5,0.4
		c1.7,0.6,3.6,0.6,5.7,0c1.7,1.2,3.2,2.2,4.4,3c0.9,0.9,0.7,2-0.4,3.5c-1.2,1.2-2.2,2.3-3,3.5c-0.3-0.3-1.3,0.7-3,3
		c-1.7,1.7-3.5,4.1-5.2,7c-1.7,2.3-4.1,5.7-7,10c-2.9,2.6-5.7,4.8-8.3,6.5c-2.3,1.7-4.8,3.9-7.4,6.5
		C221.3,445.2,217.7,448.3,213.3,451.8z M169.4,410v0.4c0.6,0,1.2,0.4,1.7,1.3c4.1-1.2,7-3.2,8.7-6.1c0-0.9,0-1.6,0-2.2
		c0-0.6-0.3-1.2-0.9-1.7c-2.3-0.9-4.8-0.9-7.4,0c-0.9,0.9-1.3,1.7-1.3,2.6c0,0.9,0,1.9,0,3C170.2,408.3,169.9,409.1,169.4,410z"/>
	<path fill="#FCD9BE" d="M419.1,362.7c2.6,1.7,5.7,2.6,9.1,2.6c6.1-0.9,11.5-2.2,16.1-3.9c2.6-1.2,3.9-3,3.9-5.7
		c0.9-0.6,1-1.3,0.4-2.2c0.6-1.7-0.1-3.5-2.2-5.2c-1.7-3.5-4.4-5.2-7.8-5.2c-4.4-0.9-9-0.7-13.9,0.4c-2.3,1.2-4.8,3-7.4,5.7
		c-0.6,0.3-1.3,1.3-2.2,3c-0.9,1.2-1.4,3-1.7,5.7c-0.3,0.9,0.1,1.6,1.3,2.2C416.5,361,417.9,361.8,419.1,362.7z"/>
	<path fill="#FCD9BE" d="M475.1,418.4c-1.4-5.4-2.3-11.2-2.2-17c-1.7,2.4-3.8,4.7-6.5,6.9c-2.6,2.6-8.1,7.5-16.5,14.8
		c-0.3-2-0.4-4.4-0.4-7v-7.4c-1.2-2.9-2.2-5.9-3-9.1c-0.9-2.6-2-5.4-3.5-8.3c-2-3.5-3.6-7.1-4.8-10.9c0-0.3-0.3-0.7-0.9-1.3
		c-1.2-0.6-3-1.2-5.7-1.7c-3.8-0.9-7.1-1.7-10-2.6c-1.2-0.9-2.6-0.9-4.4,0c-1.7,0.9-6.1,3.3-13.1,7.4c-0.9,1.7-1.3,3.5-1.3,5.2
		c0.6,2,1.3,3.5,2.2,4.4c1.2,1.7,2.2,3.5,3,5.2c0.9,2.6,1.2,5.2,0.9,7.8c0.6,6.1,0.4,12-0.4,17.8c-0.6,0.9-0.7,2.2-0.4,3.9
		c0.6,1.5,0.6,2.8,0,3.9c-0.9,2.9-1.3,6.1-1.3,9.6c0.6,2.3,1.2,3.9,1.7,4.8c2.6,5.5,6.2,9.6,10.9,12.2c2.6,0.3,4.9,0.9,7,1.7h9.1
		c1.7-0.3,3-0.7,3.9-1.3c3.8-1.2,7-3.5,9.6-7c3.5-3.5,6.7-7,9.6-10.4c0.9-1.2,1.7-2.3,2.6-3.5c0.6-1.7,2-3.8,4.4-6.1
		c2.6-2.9,4.1-4.4,4.4-4.4c-0.2,0.4,1.8-1.5,5.9-5.7C475.6,419.8,475.3,419.1,475.1,418.4z"/>
	<path fill="#FCD9BE" d="M265.3,583.2c-2.9,3.5-6.7,7.8-11.3,13.1c-0.9,1.5-2.2,2.8-3.9,3.9c-2.6,3.5-5.1,7.1-7.4,10.9
		c-0.9,2.6-1.7,5.5-2.6,8.7c0,0.9-0.4,1.6-1.3,2.2c-2,0.6-3.9,0.9-5.7,0.9c-2.9,0.6-5.2,1.7-7,3.5c-1.5,1.2-3.2,2.2-5.2,3
		c-2.9,0.9-5.8,0.9-8.7,0c-2.3-0.6-4.2-1.3-5.7-2.2c-0.9-1.7-1.7-3.2-2.6-4.4c-0.9-0.9-1.7-1.3-2.6-1.3c-0.3-0.3-0.4-0.7-0.4-1.3
		c0-2.3-0.1-4.1-0.4-5.2c0-1.7,0-3.5,0-5.2c0.3-1.7,0-3.6-0.9-5.7c0-1.7-0.3-3.2-0.9-4.4c0.3-1.7,0.1-3.2-0.4-4.4
		c-0.9-0.9-1.9-1.3-3-1.3c-1.7,0.6-3.5,1-5.2,1.3c-2.9-0.3-6.1-0.9-9.6-1.7c-4.4-0.9-8.6-2.2-12.6-3.9c-1.2-1.2-2.2-2.3-3-3.5
		c-1.7-1.2-3.8-2.3-6.1-3.5c-2-2.6-3.5-5.2-4.4-7.8c-1.4-4.1-2.8-7.8-3.9-11.3c-1.2-3.5-2.6-7.4-4.4-11.7c0-0.3-0.1-0.7-0.4-1.3
		c0-1.2,0.3-2.5,0.9-3.9c0.6-2,0.9-4.2,0.9-6.5c0.3-0.9,0.9-1.6,1.7-2.2c0.3-0.3,0.7-0.7,1.3-1.3c1.7-2.9,3.8-5.4,6.1-7.4
		c1.7-0.9,3.5-1.2,5.2-0.9c1.7,0,3.8-0.4,6.1-1.3c1.2-0.9,2.2-1.7,3-2.6c1.7,0,3-0.1,3.9-0.4c2.3-0.6,4.8-0.9,7.4-0.9
		c3.8-0.9,7.1-1.4,10-1.7c2.9-0.3,5.7-0.7,8.3-1.3c1.4-0.9,3-1,4.8-0.4c2.3,0.3,4.1,0.1,5.2-0.4c1.2-0.9,1.7-1.9,1.7-3
		c0.6-2.6,1.2-5.1,1.7-7.4c0.9-2.9,1.3-5.8,1.3-8.7c0.3-2.6,0.9-5.1,1.7-7.4c0.9-2,1.6-3.9,2.2-5.7c0.9-1.7,1.6-3.6,2.2-5.7
		c0-0.9-0.4-1.7-1.3-2.6c-0.6-0.9-0.6-1.6,0-2.2c1.2-1.2,2.6-2.2,4.4-3s3.5-1.4,5.2-1.7c1.7-1.4,3.2-2.2,4.4-2.2
		c2.3,0,4.4,0.6,6.1,1.7c0.9,1.2,1.7,2.2,2.6,3c0.6,0.3,1.3,0.4,2.2,0.4c0.9-0.6,1.7-0.7,2.6-0.4c1.7,0,3,0.4,3.9,1.3
		c1.2,1.2,2.3,2.3,3.5,3.5c2.3,2.6,3.9,5.7,4.8,9.1c0.6,0.9,0.4,1.9-0.4,3c-0.6,2.3-1,4.4-1.3,6.1c0,2.3-0.3,4.5-0.9,6.5
		c-0.3,0-0.4,0.3-0.4,0.9c-0.6,2-1,4.2-1.3,6.5c-0.3,2.3-0.4,4.5-0.4,6.5c0,0.9,0,1.6,0,2.2c0,2.3-0.3,4.8-0.9,7.4
		c0,2-0.3,3.9-0.9,5.7c0,0.9-0.3,2.5-0.9,4.8c0,1.5-0.3,2.8-0.9,3.9c0,1.2-0.1,2.6-0.4,4.4c0,2.3-0.3,4.6-0.9,7
		c-0.3,1.2-0.4,2.2-0.4,3c-0.6,2.6-1,5.4-1.3,8.3c-0.3,0.6-0.2,1.3,0.4,2.2c0.9,0.3,1.7,0.1,2.6-0.4c1.2-1.2,2-2.3,2.6-3.5
		c4.4-6.1,8.3-11.3,11.7-15.7c3.2-4.6,7.4-9.7,12.6-15.2c1.2-1.4,3-2.5,5.7-3c0.9-0.9,1.7-1.6,2.6-2.2c2.6-1.4,4.9-1.7,7-0.9
		c2.3,0.9,4.1,2.3,5.2,4.4c0,1.5-0.4,2.8-1.3,3.9c-4.1,7.5-8.3,14.9-12.6,22.2c-0.9,0.9-1.7,1.9-2.6,3c-0.9,1.7-1.7,3.6-2.6,5.7v0.4
		c-0.9,1.2-1.9,2.6-3,4.4C272.6,575,268.8,579.5,265.3,583.2z M204.8,559.7c0-1.4-0.3-2.6-0.9-3.5c-0.3-2.6-0.4-4.9-0.4-7
		c0-0.9,0-1.7,0-2.6c0.6-0.9,0.4-1.6-0.4-2.2c-2.6-2.9-5.8-5.1-9.6-6.5c-1.5-0.6-2.8,0-3.9,1.7c-0.9,0.9-2.2,1.6-3.9,2.2
		c-2.6,1.2-4.6,2.2-6.1,3c-1.5,2-2.8,4.4-3.9,7c-0.6,1.5-1.2,3-1.7,4.8c-0.6,3.5-0.4,6.7,0.4,9.6c0.9,2.9,2.8,4.9,5.7,6.1
		c6.4,1.7,12.9,2.3,19.6,1.7c2.6-1.2,4.4-3.2,5.2-6.1C205.7,565.1,205.7,562.3,204.8,559.7z"/>
	<path fill="#FCD9BE" d="M370.4,528.4c-1.7,2-4.4,4.4-7.8,7c-0.9,0.3-2.2,0.9-3.9,1.7c-1.5,0.6-3,1.3-4.8,2.2
		c-0.6,0-2.3,0.7-5.2,2.2c-1.7,0-4.1,0.4-7,1.3c-1.7,0-3.2,0.1-4.4,0.4c-0.6,0.3-1.6,0-3-0.9c0.3,2.3,0.4,4.9,0.4,7.8
		c0,2.6,0.1,4.9,0.4,7c0,0.9-0.3,1.6-0.9,2.2c-1.5,2.6-2.6,5.2-3.5,7.8c-1.2,1.2-2.6,2.6-4.4,4.4c-0.9,1.7-1.9,3.6-3,5.7
		c-1.7,0.9-3.8,2.3-6.1,4.4c-1.2,1.2-2.9,2.6-5.2,4.4c-1.7,0.3-3.9,0.4-6.5,0.4c-0.9,0.6-1.9,1-3,1.3c-1.7-0.9-3.6-1-5.7-0.4
		c-2,0-3.9,0-5.7,0c-1.2,0-2.2,0-3,0c-1.7-1.2-3.8-2.2-6.1-3c-0.9-0.9-1.7-1.4-2.6-1.7c-0.6-0.9-1.3-1.6-2.2-2.2
		c-0.9-0.6-1.6-1.2-2.2-1.7c-0.3-0.6-0.9-1.2-1.7-1.7c-2-2.9-3.5-5.7-4.4-8.3c0-0.9-0.3-1.7-0.9-2.6c0-0.9-0.4-1.6-1.3-2.2
		c0-0.6-0.1-1.3-0.4-2.2c0.3-1.2,0-2-0.9-2.6c0-1.7-0.3-3-0.9-3.9c0.6-0.6,0.4-1.2-0.4-1.7c0-0.9,0-1.7,0-2.6c0-1.7,0-3.5,0-5.2
		c-0.6-1.7-0.6-3.2,0-4.4c0-0.6,0.2-0.9,0.4-0.9c0.3-2.3,0.7-3.9,1.3-4.8c0.6-1.2,1.2-2.6,1.7-4.4c1.2-0.9,1.7-2.2,1.7-3.9
		c0-1.7,0.4-3.2,1.3-4.4c0.9-1.2,1.4-2.2,1.7-3c0.3-0.9,0.4-2.2,0.4-3.9c1.2-0.9,2.3-1.7,3.5-2.6c0.9,0,1.7-0.1,2.6-0.4
		c1.7-1.4,3.5-2.6,5.2-3.5c1.7-0.9,3.5-1.9,5.2-3c1.7-0.6,3.5-1.2,5.2-1.7c1.7-0.6,3.6-1.3,5.7-2.2c2-0.9,4.2-1.3,6.5-1.3
		c1.2-0.6,2.5-0.4,3.9,0.4c1.7,0,3.2,0.4,4.4,1.3c2.3,0.9,4.4,1.9,6.1,3c0.9,1.5,2,3,3.5,4.8c0.9,0.9,1.4,2.2,1.7,3.9
		c0.3,0.9,0.4,1.6,0.4,2.2c0.9,0.9,1.3,1.9,1.3,3c0.3,1.2,0.9,2.6,1.7,4.4c0.3,1.5,0.7,2.8,1.3,3.9c4.1,0.9,6.5,1.3,7.4,1.3
		c0.9-0.3,1.6-0.4,2.2-0.4c0.9,0,1.7-0.3,2.6-0.9c0.9-0.9,1.7-1,2.6-0.4c1.2,0.3,2.2,0,3-0.9c2.6-1.4,4.6-2.6,6.1-3.5
		c1.4-0.9,2.6-1.4,3.5-1.7c0.9-0.3,1.7-0.9,2.6-1.7c0.9-0.6,1.4-0.9,1.7-0.9l0.4-1.3h0.4c0.3-0.6,0.7-0.9,1.3-0.9
		c0.9,0,1.3-0.1,1.3-0.4c0-0.9,0.9-1.6,2.6-2.2c2-0.6,2.8-0.6,2.2,0h1.3c1.2,0,1.9,0.4,2.2,1.3c1.2,1.5,1.6,2.6,1.3,3.5
		c0,2.6-0.6,4.6-1.7,6.1C373.4,526.4,372.1,527.6,370.4,528.4z M316.4,543.2c0.3-1.4,0.3-2.6,0-3.5c-0.6-1.7-0.6-3.2,0-4.4
		c-1.7-4.4-3.5-8.7-5.2-13.1c-0.6-0.9-1.3-1.7-2.2-2.6c0-0.6-0.3-0.9-0.9-0.9h-2.6c-2,0.9-3.5,2-4.4,3.5c-0.9,2-1.7,3.9-2.6,5.7
		c-0.9,3.5-1.6,6.8-2.2,10c0,2.6-0.3,5.4-0.9,8.3c0,0.6,0,1.6,0,3c0.6,2,0.9,4.4,0.9,7c0,0.9,0.3,2.2,0.9,3.9
		c0.9,2.3,1.6,4.8,2.2,7.4c0.6,0.9,0.9,1.6,0.9,2.2c1.7,1.7,3.5,2.2,5.2,1.3c0.9-0.9,1.7-2.2,2.6-3.9c0.9-1.7,1.7-3.2,2.6-4.4
		c2.3-2.3,3.9-4.8,4.8-7.4c-0.6-1.7-0.3-3.5,0.9-5.2v-3.9C316.4,545.4,316.4,544.4,316.4,543.2z"/>
	<path fill="#FCD9BE" d="M479.6,543.2l-8.3,3.5c-5.2,1.7-10,2-14.4,0.9c-5.2-1.2-7.8-1.3-7.8-0.4l-0.9,3c0,1.7-1,4.2-3,7.4
		c-1.5,3.2-2.6,5.2-3.5,6.1c-0.9,3.5-2.3,7-4.4,10.4c-0.9,2-2,3.9-3.5,5.7c-1.5,1.7-2.8,3.8-3.9,6.1c-0.6,1.7-1.6,3.2-3,4.4
		c-1.7,2.3-3.9,4.8-6.5,7.4c-0.6,0.9-1.3,1.6-2.2,2.2c-0.9,0.6-1.6,1.3-2.2,2.2c-1.2,1.2-2.6,2.2-4.4,3c-0.9,0.6-1.7,1.2-2.6,1.7
		c-0.6,0-1.7,0-3.5,0c-0.9-0.6-2.2-1.2-3.9-1.7c-0.9-1.2-1.9-2.3-3-3.5c-1.7-0.6-3.6-0.9-5.7-0.9c-0.9-0.6-1.6-0.9-2.2-0.9
		c-1.7-0.9-3-1.7-3.9-2.6c0-0.6-0.4-0.9-1.3-0.9c0-0.6-0.3-1.3-0.9-2.2c-0.6,0.9-1.3,1.9-2.2,3c-2.6,4.1-5.8,6.8-9.6,8.3
		c-0.3,0.3-0.9,0.4-1.7,0.4H363c-0.6,0-1.3-0.1-2.2-0.4c-3.5-1.7-6.5-4.6-9.1-8.7c-0.9-2-2.5-3.5-4.8-4.4c0.6-0.3,0.4-0.7-0.4-1.3
		c0-0.6,0-1.2,0-1.7c0-8.7,0-17.5,0-26.5c0-1.7,0.1-3,0.4-3.9c0-0.6,0-1.2,0-1.7c0-0.9,0-3,0-6.5c0-3.2,0-5.2,0-6.1
		c0-0.3-0.3-1.9-0.9-4.8c0-3.5,0-6.2,0-8.3c0.9-2,2.8-3.5,5.7-4.4c2.3-0.9,3.9-1.6,4.8-2.2h4.4c0.9,0.6,1.7,1.2,2.6,1.7
		c0.9,0,1.6,1.3,2.2,3.9c0.6,2.6,1.3,4.4,2.2,5.2c-0.3,2.6-0.4,5.2-0.4,7.8c0,1.2-0.3,6.4-0.9,15.7c0.6,0.3,0.6,0.9,0,1.7
		c0,1.5,0,3,0,4.8c-0.6,1.7-1,3.6-1.3,5.7c0.3,0.9,0.4,2.2,0.4,3.9c0.6,1.2,1.2,2.2,1.7,3c1.2,0.3,2.5,0,3.9-0.9
		c0.6-0.9,1.3-1.9,2.2-3c0.6-1.2,0.9-2,0.9-2.6c1.2-1.2,1.9-2,2.2-2.6c0.6-0.6,0.9-1.3,0.9-2.2c0.3-0.3,0.4-0.7,0.4-1.3
		c1.7-1.7,2.5-2.8,2.2-3c0-1.7,0-2.9,0-3.5c0-0.9,0.4-1.6,1.3-2.2c1.7-1.2,3.3-2,4.8-2.6c1.4-0.6,3-0.6,4.8,0c1.2,1.7,2.2,3.5,3,5.2
		c0.3,1.2,0.4,2.2,0.4,3c0.9,0.3,1,1,0.4,2.2v0.4c0.9,1.7,1.3,3.9,1.3,6.5c0,1.7,0,3.8,0,6.1c0,0.6,0.1,1,0.4,1.3
		c0.3,1.5,0.9,2.6,1.7,3.5c0.9-0.3,1.6-0.1,2.2,0.4c0.9,0,2.2-0.6,3.9-1.7c1.2-2.3,3-8.3,5.7-17.8h0.9c0.6-0.9,0.9-1.9,0.9-3
		c0.9-0.6,1.3-1.2,1.3-1.7c0.9-3.5,1.9-6.7,3-9.6c0-0.6,0.1-1.3,0.4-2.2c0.9-1.4,1.4-3,1.7-4.8c0.9-2.9,1.9-5.7,3-8.3
		c0.9-2,1.7-3.3,2.6-3.9c0.6,0,1.2,0.4,1.7,1.3h0.4c0.9-0.3,1.3-0.1,1.3,0.4c0.6,0,1.2-0.3,1.7-0.9c1.2,0.6,2.3,1,3.5,1.3
		c0.9-0.3,1.7-0.4,2.6-0.4c1.2,0,2.3-0.1,3.5-0.4c0.9-0.3,1.7,0,2.6,0.9c1.2,0,2.2-0.3,3-0.9c0.3,0.3,0.7,0.4,1.3,0.4l0.9-0.4h0.9
		v0.4c1.7,0,3.6,0.6,5.7,1.7c1.2,0.6,2.2,1.2,3,1.7c0.9,0.3,1.9,0.3,3,0c0.9,0,1.4,0,1.7,0c0.6,0,1.4,0,2.6,0c2.3,0,4.4-0.3,6.1-0.9
		c3.2-1.2,5.2-2.3,6.1-3.5c3.2-0.9,5.7-0.4,7.4,1.3c1.2,0.9,1.4,2.8,0.9,5.7C483.9,540.3,482.5,542,479.6,543.2z"/>
	<path fill="#FCD9BE" d="M574.7,577.8c-2.7-7.2-5.5-5.3-10,0c-0.3,0.4-0.7,0.7-1,0.9c-0.8,1.2-1.9,2.7-3.1,4.5
		c-3.5,4.6-5.2,6.8-5.2,6.5c-1.2,0-2.8,0.4-4.8,1.3c-1.5,0.9-2.5-0.4-3-3.9c0.6-6.1,1.3-12.3,2.2-18.7c1.2-7,1.7-13.3,1.7-19.1
		c0.3-6.1-0.6-11.7-2.6-17c-1.7-5.2-5.7-9.6-11.7-13.1c0,0.3-1.3,0.1-3.9-0.4c-2.3-0.6-3.9-0.9-4.8-0.9c-2.9-1.7-5.7-3.2-8.3-4.4
		c-2.6,0.6-5.1,1-7.4,1.3c-0.6,0.9-1.3,1.9-2.2,3c-1.5-0.6-2.8-0.6-3.9,0c-0.9,0-1.7,0.6-2.6,1.7c-0.9,0.9-1.7,1.3-2.6,1.3
		c-1.7,0.9-3.3,1.9-4.8,3h-3.5c-0.9,0-1.5-0.1-1.7-0.4c-2.6-2.6-5.9-3.5-10-2.6h-5.7c-1.5,0.3-2.6,1-3.5,2.2c-0.3,1.2-1.3,2.5-3,3.9
		c-1.7,1.7-3.5,3.9-5.2,6.5c-1.2,7-1.3,12-0.4,15.2c1.2,3.2,1.7,5.7,1.7,7.4c0.3,3.5-0.2,7.4-1.3,11.7c-0.6,3.5-0.7,6.1-0.4,7.8
		c-0.9,4.4-1.9,8.7-3,13.1c-0.6,3.5-0.6,7.3,0,11.3c1.7,0.9,2.9,2.5,3.5,4.8c1.2,1.7,2.9,2.8,5.2,3c1.2,0,2.8,0.4,4.8,1.3
		c3.2,0.6,5.9,0,8.3-1.7c0-0.3,1.2-0.6,3.5-0.9c2.3-0.6,4.4-1.3,6.1-2.2c1.2-0.9,1.9-2,2.2-3.5c0.9-2.6,1.3-5.2,1.3-7.8
		c0.6-4.9,1.2-9.6,1.7-13.9c1.2-4.1,2-7.8,2.6-11.3c1.2-4.4,1.6-8.7,1.3-13.1v-2.6c0.6-2.6,0.9-4.9,0.9-7c0.9-0.9,1.9-1.6,3-2.2
		c1.7-1.2,3.6-2.5,5.7-3.9c0.3-0.6,0.7-0.9,1.3-0.9c1.7,0.6,3.5,1.3,5.2,2.2c5.2,1.7,6.5,8.6,3.9,20.4v2.2c-0.9,1.7-1.5,3.9-1.7,6.5
		c-0.3,3.8-0.7,7.8-1.3,12.2c-1.2,3.5-1.7,7.4-1.7,11.7c0.6,0.6,0.9,1.3,0.9,2.2c0,0.9,0.3,1.7,0.9,2.6c0.6,0.9,0.9,2,0.9,3.5
		c0,0.9,0.1,1.6,0.4,2.2c2,4.1,4.4,7.8,7,11.3c3.5,2.3,6.7,3.5,9.6,3.5l8.3-0.4c1.7-0.9,3.6-1.7,5.7-2.6c2-0.9,4.2-1.6,6.5-2.2
		c0.6-0.6,1.3-1.2,2.2-1.7c0.9-1.2,1.6-2,2.2-2.6c1.7-1.7,3.8-4.2,6.1-7.4c2.3-3.2,4.4-5.7,6.1-7.4c1.8-3.6,3.2-6.4,4.1-8.2
		C576.4,583.4,575.8,580.5,574.7,577.8z"/>
	<path fill="#FCD9BE" d="M706,492.8c0-1.7-0.4-3.2-1.3-4.4l-2.6-2.6c-0.6-1.2-1.3-2.3-2.2-3.5c0.6-1.2-0.3-1.6-2.6-1.3
		c-2,0-3.6,0.4-4.8,1.3c-0.9,0.6-3.3,1.7-7.4,3.5c-0.9,0.6-2.6,1.7-5.2,3.5c-1.5,1.2-2.2,2-2.2,2.6c0,0.6-1,0.9-3,0.9
		c-1.5,0-2.8,0.3-3.9,0.9c-0.6-0.6-1.2-1.3-1.7-2.2v-7.4c1.2-5.2,1.7-10.1,1.7-14.8c0.6-1.7,1.3-3.2,2.2-4.4
		c-0.3-1.2-0.4-2.3-0.4-3.5c0.9-0.6,1-2,0.4-4.4c-0.9-1.7-2.3-3-4.4-3.9c-1.7-1.4-3.2-2.8-4.4-3.9c-0.3-0.6-0.9-0.9-1.7-0.9
		c-2.9,0.6-6.1,1.9-9.6,3.9c-0.9,0.6-1.7,1.3-2.6,2.2c-0.9,0.9-1.9,1.7-3,2.6c0.3,0.6,0.1,1.3-0.4,2.2c-0.6,0.9-0.9,1.6-0.9,2.2
		c-0.9,1.2-2,2.2-3.5,3c-0.3,2.6-1.3,4.4-3,5.2c-0.9,0.3-1.7,1-2.6,2.2c-1.2,2.9-2,5.5-2.6,7.8c-0.6,0.9-1.2,2.1-1.7,3.7
		c-0.6,1.6-1.2,2.8-1.7,3.7c-0.6,1.5-0.9,3.1-0.9,5v4.1c-0.3,0.6-0.6,1.5-0.9,2.6c0,0.5-0.2,0.9-0.5,1.2c0,0.2,0,0.3,0,0.5
		c-1,7.6-2.6,18.1-5.8,24.7c-1.3,2.7-16.4,2.9-19.6,5.7c-1.5,0.2-3,0.2-4.6,0.1c-1.4,0.4-2.7,1.1-3.9,2.2c0.9,1.7,1.6,3.9,2.2,6.5
		v1.7c-0.9,0-1.6,1-2.2,3c0.3,1.2,0.9,2.2,1.7,3c1.5,0.9,2.2,1.9,2.2,3c0.6,0.9,1.3,2.5,2.2,4.8c0.9,0,1.6,0.4,2.2,1.3
		c1.7,0,3.2,0.3,4.4,0.9c1.2,0.9,2.3,1.9,3.5,3c3.5,0.6,6.8,0.4,10-0.4c1.2-0.3,2.2,0,3,0.9c0.6,0,0.9,0.4,0.9,1.3
		c0,1.7,0.6,3.8,1.7,6.1c1.7,2.3,2.8,4.2,3,5.7c0.3,1.7,0.4,4.6,0.4,8.7c0.6,1.5,0.7,3.2,0.4,5.2c0.6,2,1.3,3.6,2.2,4.8
		c0.9,0.9,1.3,1.7,1.3,2.6c0.9,2.3,1.7,4.8,2.6,7.4c1.2,2.6,2.9,4.8,5.2,6.5c0.9,0.6,1.7,1.3,2.6,2.2c2.6,0.9,5.4,1.9,8.3,3h14.4
		c1.7-0.6,3.5-1.3,5.2-2.2c0.9-2.6,1.6-4.2,2.2-4.8v-4.8c-2.6-5.2-4.8-10.7-6.5-16.5c0-2.6-0.4-5.1-1.3-7.4
		c-0.6-2.3-0.7-4.4-0.4-6.1c-0.3-8.1-0.9-16.1-1.7-23.9v-2.2c0.3-1.2,0.4-2,0.4-2.6c0.9-2.3,1-4.6,0.4-7c0.6-0.9,0.9-1.7,0.9-2.6
		c2.6-1.2,4.2-2.2,4.8-3c0.9-1.2,2.2-2.2,3.9-3c4.4-2.3,7.8-5.2,10.4-8.7c0.9-0.6,1.9-1.2,3-1.7c1.2-1.7,2.3-2.8,3.5-3
		c1.2-0.9,3.2-2.5,6.1-4.8c2.9-2.9,3.2-3.9,0.9-3c-2.3,0.6-2,0,0.9-1.7c1.2,0,1.9-0.3,2.2-0.9c0.6-0.9,0.6-1.6,0-2.2
		C704.3,498.9,705.7,495.7,706,492.8z"/>
	<path fill="#FCD9BE" d="M752.5,536.4c-0.5-1-0.8-2-1-2.7c0-1.2-0.4-2.2-1.3-3c0-0.6-0.1-1.3-0.4-2.2c-0.3-1.7-0.9-3-1.7-3.9
		c-1.5-1.7-2.6-3.3-3.5-4.8c-1.7-1.2-3.8-2.2-6.1-3c-1.2-0.9-2.6-1.3-4.4-1.3c-1.5-0.9-2.8-1-3.9-0.4c-2.3,0-4.5,0.4-6.5,1.3
		c-2,0.9-3.9,1.6-5.7,2.2c-1.7,0.6-3.5,1.2-5.2,1.7c-1.7,1.2-3.5,2.2-5.2,3c-1.7,0.9-3.5,2-5.2,3.5c-0.9,0.3-1.7,0.4-2.6,0.4
		c-1.2,0.9-2.3,1.7-3.5,2.6c0,1.7-0.1,3-0.4,3.9c-0.3,0.9-0.9,1.9-1.7,3c-0.9,1.2-1.3,2.6-1.3,4.4c0,1.7-0.6,3-1.7,3.9
		c-0.6,1.7-1.2,3.2-1.7,4.4c-0.6,0.9-1,2.5-1.3,4.8c-0.3,0-0.4,0.3-0.4,0.9c-0.6,1.2-0.6,2.6,0,4.4v7.8c0.9,0.6,1,1.2,0.4,1.7
		c0.6,0.9,0.9,2.2,0.9,3.9c0.9,0.6,1.2,1.5,0.9,2.6c0.3,0.9,0.4,1.6,0.4,2.2c0.9,0.6,1.3,1.3,1.3,2.2c0.6,0.9,0.9,1.7,0.9,2.6
		c0.9,2.6,2.3,5.4,4.4,8.3c0.9,0.6,1.4,1.2,1.7,1.7c0.6,0.6,1.3,1.2,2.2,1.7c0.9,0.6,1.6,1.3,2.2,2.2c0.9,0.3,1.7,0.9,2.6,1.7
		c2.3,0.9,4.4,1.9,6.1,3h8.7c2-0.6,3.9-0.4,5.7,0.4c1.2-0.3,2.2-0.7,3-1.3c2.6,0,4.8-0.1,6.5-0.4c2.3-1.7,4.1-3.2,5.2-4.4
		c2.3-2,4.4-3.5,6.1-4.4c1.2-2,2.2-3.9,3-5.7l4.4-4.4c0.5-1.5,1.1-3,1.8-4.6C761.2,563.5,756.4,549.9,752.5,536.4z M739.7,557.1v7
		c-1.2,1.7-1.5,3.5-0.9,5.2c-0.9,2.6-2.5,5.1-4.8,7.4c-0.9,1.2-1.7,2.6-2.6,4.4c-0.9,1.7-1.7,3-2.6,3.9c-1.7,0.9-3.5,0.4-5.2-1.3
		c0-0.6-0.3-1.3-0.9-2.2c-0.6-2.6-1.3-5.1-2.2-7.4c-0.6-1.7-0.9-3-0.9-3.9c0-2.6-0.3-4.9-0.9-7v-3c0.6-2.9,0.9-5.7,0.9-8.3
		c0.6-3.2,1.3-6.5,2.2-10c0.9-1.7,1.7-3.6,2.6-5.7c0.9-1.4,2.3-2.6,4.4-3.5h2.6c0.6,0,0.9,0.3,0.9,0.9c0.9,0.9,1.6,1.7,2.2,2.6
		c1.7,4.4,3.5,8.7,5.2,13.1c-0.6,1.2-0.6,2.6,0,4.4C740,554.5,740,555.7,739.7,557.1z"/>
	<path fill="#FCD9BE" d="M138.3,770.9c-2.6,0.9-5.2,2-7.8,3.5c-0.9-0.3-1.6-0.4-2.2-0.4c-0.6,0-1,0-1.3,0c-2,0.6-3.9,1.3-5.7,2.2
		c-0.9,0-1.7,0.3-2.6,0.9c-4.1,0.9-8.3,2.2-12.6,3.9c-1.5,0-3.5-0.1-6.1-0.4c-2.6-2.3-4.8-4.8-6.5-7.4c-2.9-2.3-6.1-4.5-9.6-6.5
		c-0.6-0.9-1.3-1.2-2.2-0.9c0-0.3-0.4-2-1.3-5.2c-0.9-3.2-2-5.5-3.5-7c0.6-0.9,0.9-1.7,0.9-2.6c-0.6-1.7-1.3-3.5-2.2-5.2
		c0-1.2,0-2.6,0-4.4c-0.9-2-1.7-4.4-2.6-7c-0.3-3.5-0.4-7-0.4-10.4c-0.6-1.4-1-3-1.3-4.8c-0.9-0.6-1.3-2.6-1.3-6.1
		c0.6-4.1,0.3-7.4-0.9-10c1.2-4.4,1.6-8.6,1.3-12.6c-0.3-1.7,0-3.8,0.9-6.1c0.3-1.2,0.4-2.3,0.4-3.5c0-2.3,0-4.6,0-7
		c0-2.6,0.3-5.1,0.9-7.4c0.9-0.9,1-1.9,0.4-3c0.3-4.6,0.9-9.1,1.7-13.5c0.6-0.9,0.9-1.7,0.9-2.6c0.9-5.8,2-11.3,3.5-16.5
		c1.7-5.5,4.1-11.2,7-17c0.9-0.9,1.9-1.7,3-2.6c1.7-2.9,3.2-5.8,4.4-8.7c1.7-2.3,3.5-4.4,5.2-6.1c1.7-2.6,4.1-4.4,7-5.2
		c1.2,0,2.5,0,3.9,0c2.6,1.2,4.9,2.3,7,3.5c2,0,3.5,0.1,4.4,0.4c3.5-0.3,7,0.1,10.4,1.3c-0.3,0-0.2,0.3,0.4,0.9
		c2.3,1.7,3.8,2.9,4.4,3.5c0.9,0.6,2.2,2.2,3.9,4.8c1.2,2.3,2.9,4.1,5.2,5.2l0.9,0.4c0.9,2.6,1.9,5.2,3,7.8c0,4.6,0,9.3,0,13.9
		c-0.6,2.6-1.7,5.2-3.5,7.8c0,0.9-0.1,2.2-0.4,3.9c-0.9,3.2-2.6,5.7-5.2,7.4c-2.6,5.2-5.4,9.9-8.3,13.9c-2.3,4.1-5.2,7.7-8.7,10.9
		c-2.9,2.6-5.8,5.4-8.7,8.3c-0.6,0.6-0.7,1.2-0.4,1.7c2.3,0.6,3.9,0.6,4.8,0c1.2-0.6,2.2-0.9,3-0.9c1.4,0,2.6,0,3.5,0
		c2.6,1.2,4.6,2.2,6.1,3c1.4,0.9,3.5,2.6,6.1,5.2c2,0.9,4.4,2,7,3.5c1.7,1.2,3,2.6,3.9,4.4c2.9,5.5,6.7,10.3,11.3,14.4
		c1.2-0.6,2.2-0.9,3-0.9c4.1-2.6,7.4-5.7,10-9.1c4.1-4.4,7.5-8.7,10.4-13.1c1.2-2,3.8-4.8,7.8-8.3c1.7-0.6,3.2-0.9,4.4-0.9
		c1.7-0.6,3.3-1.2,4.8-1.7c0.9,0,1.9,0.3,3,0.9c1.2-0.9,2.2-1.6,3-2.2c1.4-0.3,2.6,0.4,3.5,2.2c0.9,1.2,2,2,3.5,2.6
		c0.6,0.6,0.9,1,0.9,1.3c-2.6,5.5-5.7,10.4-9.1,14.8c-0.6,0.9-1.3,1.6-2.2,2.2c-2.6,2.6-5.2,5.2-7.8,7.8c-4.1,4.1-8.4,7.3-13.1,9.6
		c-0.9,0.6-1.7,1-2.6,1.3c-1.5,0.9-2.8,2-3.9,3.5c-1.2,0.9-2.6,1.7-4.4,2.6c-1.7,1.7-3.9,3.5-6.5,5.2c-0.9,4.4-2,8.7-3.5,13.1
		c-0.3,2-1,3.6-2.2,4.8c-1.2,1.2-2.2,2.9-3,5.2c-3.2,2.6-6.2,5.7-9.1,9.1C143.7,767.4,140.9,768.9,138.3,770.9z M104.4,720.4
		c0,2,0,3.9,0,5.7c0,1.7,0.3,3.5,0.9,5.2c0.3,1.2,0.4,2.3,0.4,3.5c0,3.5,0,7,0,10.4c0,1.7,0.6,3.5,1.7,5.2c1.2-0.6,2-0.9,2.6-0.9
		c1.4-1.7,3.2-3.3,5.2-4.8c2.3-1.7,4.4-3.5,6.1-5.2c0.9-0.9,1.7-1.3,2.6-1.3c0.9-0.6,1.6-1.3,2.2-2.2c0.3-0.9,0.4-1.4,0.4-1.7
		c0.6-2,0.6-3.9,0-5.7c-0.9-1.7-1.6-3.2-2.2-4.4c0.6-0.6,0.9-1.3,0.9-2.2c-1.5-2.6-3-5.2-4.8-7.8c-1.2-0.9-2.3-1.4-3.5-1.7
		c-2.3-0.9-4.5-1.3-6.5-1.3c-0.9,0-1.9,0-3,0c-0.9,1.2-1.9,2.3-3,3.5C104.4,716.5,104.4,718.4,104.4,720.4z M119.6,630.4
		c0,2.9-0.7,5.7-2.2,8.3c-0.3,0.9-0.4,1.9-0.4,3c-0.6,4.4-1.9,8.7-3.9,13.1c-0.9,3.5-2,6.8-3.5,10c-0.3,0.9-0.2,1.9,0.4,3h1.7
		c1.7-1.7,3.2-3.6,4.4-5.7c1.7-1.7,2.9-3.9,3.5-6.5c0.9-1.7,1.7-3.3,2.6-4.8c1.2-2,2-3.9,2.6-5.7c0.9-2.6,1.6-4.8,2.2-6.5
		c0.3-0.9,0.7-1.7,1.3-2.6c0.6-0.9,0.9-1.7,0.9-2.6c-0.6-1.7-0.9-3.2-0.9-4.4c0-1.7,0.1-3,0.4-3.9c0-0.6-0.3-0.9-0.9-0.9
		c-1.7-0.6-3.9,0-6.5,1.7C120.8,627.2,120.2,628.6,119.6,630.4z"/>
	<path fill="#FCD9BE" d="M315.4,692.2c-0.6,1.2-0.9,2.3-0.9,3.5c0,0.9-0.4,1.7-1.3,2.6c-2.9,2.9-6.7,4.8-11.3,5.7
		c-1.2,0.3-4.1,1.3-8.7,3c-8.1,0.6-14.4,1.3-18.7,2.2c-0.9,0.3-1.6,0.9-2.2,1.7c-0.6,1.5-1,2.8-1.3,3.9c0.3,0.6,0,2-0.9,4.4
		c-0.9,1.2-1.3,2.6-1.3,4.4c0.6,0.9,0.6,1.7,0,2.6c-0.6,2.9-1.3,5.8-2.2,8.7c-0.9,0.6-1.6,1-2.2,1.3c-2.6,1.5-4.5,3.6-5.7,6.5
		c-2,2.6-4.5,5.2-7.4,7.8c-3.5,2.9-7.5,5.7-12.2,8.3c-2.3,0-4.9,0.3-7.8,0.9c-1.7,0-3.5-0.4-5.2-1.3c-2.3-1.7-4.6-3.2-7-4.4
		c-1.2-1.2-2.3-2.3-3.5-3.5c-1.7,0-3.3,0-4.8,0c-0.9-1.2-1.7-2-2.6-2.6c-2.6-2.3-5.4-4.8-8.3-7.4c-0.6-1.7-1.3-3-2.2-3.9
		c0-2.3,0-3.9,0-4.8c0.6,0,0.6,0,0,0c-0.9-7.2-2.2-14.4-3.9-21.3c-1.2-7.5-2.3-13.3-3.5-17.4c0-0.9,0.9-1.9,2.6-3
		c1.7-1.4,4.8-1.7,9.1-0.9c2,0.9,3.5,1.7,4.4,2.6c0.6,1.7,0.9,3.8,0.9,6.1c-0.3,3.5-0.1,7,0.4,10.4c0.9,6.7,2.5,13.5,4.8,20.4
		c0.9,2.3,1.9,4.5,3,6.5c0.6,0.9,1.3,1.7,2.2,2.6c0.9-0.9,1.6-1.3,2.2-1.3c1.2,0,1.7-0.1,1.7-0.4c0.6-0.3,1.3-1,2.2-2.2
		c0.3-0.6,0.9-1.3,1.7-2.2c1.2-1.2,1.7-2.2,1.7-3c0.9-2.6,1.3-5.2,1.3-7.8c0-0.6,0.1-1.3,0.4-2.2c0.3-1.2,0.3-2,0-2.6
		c0.3-1.4,0.4-2.6,0.4-3.5c0.3-0.9,0.3-2,0-3.5c-0.6-0.9-0.4-2.3,0.4-4.4c0.3-0.9,0.4-1.4,0.4-1.7c0.6-0.6,0.9-1.3,0.9-2.2
		c0.9-1.7,1-3.5,0.4-5.2c-0.3-2.3,0-3.8,0.9-4.4c0.6-0.6,0.6-0.9,0-0.9c-0.3-0.6-0.1-1,0.4-1.3c0.6-2,1.3-3.9,2.2-5.7
		c2.6-2.3,4.2-4.6,4.8-7c4.1-2.9,8.1-4.4,12.2-4.4c1.2,0.6,2,1,2.6,1.3c0.6-0.3,1.2-0.4,1.7-0.4c3.5,0.6,6.8,1.9,10,3.9
		c2.6,2.9,4.1,6.4,4.4,10.4c0.3,0.9,0.4,2.2,0.4,3.9c0.3,1.5,0.6,2.5,0.9,3c0.6,0.3,0.7,0.7,0.4,1.3c0.3,0,0.9,0,1.7,0h0.4
		c2.6-0.6,4.8-1,6.5-1.3l0.4-0.4c1.2,0,2-0.4,2.6-1.3c0.9-0.9,1.9-1.3,3-1.3c0.9,0,1.4-0.1,1.7-0.4c3.5-0.9,6.7-1.4,9.6-1.7
		c3.8-0.9,7.1-2.3,10-4.4c2.9,0,5.1,1.2,6.5,3.5C315.9,689.1,315.9,690.4,315.4,692.2z"/>
	<path fill="#FCD9BE" d="M367.4,675.4c0,0-0.1,0.1-0.1,0.1c-2.6,2.6-4.5,5.8-5.7,9.6c-1.5,1.5-2.9,3.2-4.4,5.2
		c-1.5,1.7-3,3.5-4.8,5.2l-0.4,0.9c-0.9,1.5-2,2.8-3.5,3.9c-2.6,2.9-5.4,4.9-8.3,6.1V706c0-0.3-0.6-0.9-1.7-1.7
		c-1.7-1.4-3.3-2.6-4.8-3.5c-2.9-3.2-6.1-5.9-9.6-8.3c-2-1.7-3.5-3.3-4.4-4.8c-2.6-4.4-4.6-8.4-6.1-12.2c0.3-1.4,0-2.6-0.9-3.5
		c-0.6-1.2-0.6-2.6,0-4.4c0.3-1.2,0.7-1.7,1.3-1.7c0.6-0.3,1.3-0.9,2.2-1.7c2.6-0.6,5.2-1.3,7.8-2.2c0.9-0.6,1.9-0.9,3-0.9
		c1.2-0.9,2.3-1.3,3.5-1.3c0.6-0.3,1,0,1.3,0.9c0.9,0.3,2.3-0.1,4.4-1.3h1.3c2.6,0.6,3.9,0.1,3.9-1.3c0.3-1.4,0.4-2.6,0.4-3.5
		c-0.9-3.5-2.8-5.7-5.7-6.5c-1.2-0.6-3-1.3-5.7-2.2c-2.3-0.9-3.8-1.3-4.4-1.3c-1.7-0.9-4.2-1.3-7.4-1.3c-3.2-0.6-5.2-0.6-6.1,0h-4.4
		c-0.9,0.9-2.8,1.5-5.7,1.7c-1.7,0.9-3.3,2.5-4.8,4.8c-0.3,1.2-1,2.3-2.2,3.5c-0.6,0.6-1,1-1.3,1.3c-1.5,1.5-2.8,2.8-3.9,3.9
		c-2.9,3.5-5.2,7.5-7,12.2v2.2c0.6,0.9,0.4,1.6-0.4,2.2v6.5c0.9,0.9,1,1.9,0.4,3v2.6c0.9,1.7,1.7,3.5,2.6,5.2c0.6,1.2,1.3,2.2,2.2,3
		c0.9,1.2,1.7,2.3,2.6,3.5c1.4,0.9,2.6,1.7,3.5,2.6c0.3,0.9,0.7,1.9,1.3,3c0.6,1.2,1.3,2.5,2.2,3.9c0.9,1.2,1.6,2.2,2.2,3
		c0.9,0.6,1.7,1.5,2.6,2.6c0.9,1.2,1.7,2.3,2.6,3.5c0.6,0.6,1.3,1.5,2.2,2.6c0.9,0.9,1.7,1.7,2.6,2.6c0.9,2.3,2.5,4.6,4.8,7v0.4
		c-0.6,0.9-1.3,1.7-2.2,2.6c-0.9,0-1.7,0.4-2.6,1.3c-0.9,0.9-1.9,1.7-3,2.6c-0.6,0.6-0.9,1.7-0.9,3.5c0.6,1.7,0.7,2.8,0.4,3
		c-0.9,1.5-1,3-0.4,4.8c0.6,1.7,1.3,2.9,2.2,3.5c0.9,1.2,1.7,2.3,2.6,3.5c0.9,0,1.7,0.1,2.6,0.4c0.9,0.9,1.7,1.7,2.6,2.6
		c0.9,0,1.9,0.3,3,0.9c0.9,0.9,2.5,1.4,4.8,1.7h7c4.4-3.2,8.6-6.8,12.6-10.9c0.6-1.7,1.3-3.3,2.2-4.8c0.9-1.4,1.3-3,1.3-4.8
		c0.6-1.7,0.9-3.2,0.9-4.4v-3.5c0-0.9-0.2-1.9-0.4-3c-0.3-1.4-0.4-2.6-0.4-3.5c-0.6-0.9-0.9-1.7-0.9-2.6c0-0.9-0.1-2-0.4-3.5v-2.2
		c0.3-0.6,0.7-0.9,1.3-0.9c0.6-0.6,1.3-1.3,2.2-2.2c2-0.9,3.5-2,4.4-3.5c2.6-2.9,5.2-6.1,7.8-9.6c3.2-2.6,5.4-5.1,6.5-7.4
		c0.6-0.6,1.3-1.2,2.2-1.7c0.9-1.2,1.5-2.3,1.7-3.5c0.9-1.2,1.7-2.5,2.4-3.7C372.1,682,369.8,678.7,367.4,675.4z M322.9,742.5
		c-1.2,0.9-2.6,1.7-4.4,2.6v-2.6c0.6-1.4,1.3-2.6,2.2-3.5c0.9-0.6,1-0.9,0.4-0.9c0.9-0.9,1.7-1,2.6-0.4c1.2,0,1.9,0.6,2.2,1.7
		C325.1,740.4,324.1,741.4,322.9,742.5z"/>
	<path fill="#FCD9BE" d="M359.8,659.9c0.3-2.6,0.9-4.5,1.7-5.7c0.9-1.7,1.6-2.8,2.2-3c2.6-2.6,5.1-4.5,7.4-5.7
		c4.9-1.2,9.6-1.3,13.9-0.4c3.5,0,6.1,1.7,7.8,5.2c2,1.7,2.8,3.5,2.2,5.2c0.6,0.9,0.4,1.6-0.4,2.2c0,2.6-1.3,4.5-3.9,5.7
		c-4.6,1.7-10,3-16.1,3.9c-3.5,0-6.5-0.9-9.1-2.6c-1.2-0.9-2.6-1.7-4.4-2.6C360,661.5,359.5,660.8,359.8,659.9z M440.3,713.8
		c-8.7,9-12.9,13.2-12.6,12.6c-0.3,0-1.7,1.5-4.4,4.4c-2.3,2.3-3.8,4.4-4.4,6.1c-0.9,1.2-1.7,2.3-2.6,3.5c-2.9,3.5-6.1,7-9.6,10.4
		c-2.6,3.5-5.8,5.8-9.6,7c-0.9,0.6-2.2,1-3.9,1.3c-1.2,0-3,0-5.7,0c-0.9,0-2,0-3.5,0c-2-0.9-4.4-1.4-7-1.7
		c-4.6-2.6-8.3-6.7-10.9-12.2c-0.6-0.9-1.2-2.5-1.7-4.8c0-3.5,0.4-6.7,1.3-9.6c0.6-1.2,0.6-2.5,0-3.9c-0.3-1.7-0.1-3,0.4-3.9
		c0.9-5.8,1-11.7,0.4-17.8c0.3-2.6,0-5.2-0.9-7.8c-0.9-1.7-1.9-3.5-3-5.2c-0.9-0.9-1.6-2.3-2.2-4.4c0-1.7,0.4-3.5,1.3-5.2
		c7-4.1,11.3-6.5,13.1-7.4c1.7-0.9,3.2-0.9,4.4,0c2.9,0.9,6.2,1.7,10,2.6c2.6,0.6,4.5,1.2,5.7,1.7c0.6,0.6,0.9,1,0.9,1.3
		c1.2,3.8,2.8,7.4,4.8,10.9c1.4,2.9,2.6,5.7,3.5,8.3c0.9,3.2,1.9,6.2,3,9.1c0,1.7,0,4.2,0,7.4c0,2.6,0.1,4.9,0.4,7
		c8.4-7.2,13.9-12.2,16.5-14.8c3.2-2.6,5.7-5.4,7.4-8.3c2.3-1.7,4.1-3.2,5.2-4.4c1.7-1.2,3-2.8,3.9-4.8c3.8-3.5,6.1-5.7,7-6.5
		c2.3-2.3,4.9-4.8,7.8-7.4c1.7-0.9,2.6-1.2,2.6-0.9c2.3,0.3,3.9,0.7,4.8,1.3c1.2,0,1.9,0.9,2.2,2.6c0,0.6,0,1,0,1.3
		c0,0.9,0.1,1.6,0.2,2.2c0.1,0.6-0.2,1.6-1.1,3C457,695.3,449,704.3,440.3,713.8z"/>
	<path fill="#FCD9BE" d="M572.1,668.5c-0.6,0.3-1.2,1.3-1.7,3c-1.7,2.3-3.6,5.2-5.7,8.7c-2,3.5-3.5,6.4-4.4,8.7
		c-0.9,1.7-1.6,3-2.2,3.9c-0.6,0.9-1.3,2.2-2.2,3.9c-0.9,1.7-2.3,4.1-4.4,7c-1.7,2.6-3.5,5.2-5.2,7.8c-0.9,1.7-2.5,4.9-4.8,9.6
		c-1.7,1.7-3.8,4.2-6.1,7.4c-2.3,3.2-4.4,5.7-6.1,7.4c-0.6,0.6-1.3,1.5-2.2,2.6c-0.9,0.6-1.6,1.2-2.2,1.7c-2.3,0.6-4.5,1.3-6.5,2.2
		c-2,0.9-3.9,1.7-5.7,2.6l-8.3,0.4c-2.9,0-6.1-1.2-9.6-3.5c-2.6-3.5-4.9-7.2-7-11.3c-0.3-0.6-0.4-1.3-0.4-2.2c0-1.4-0.3-2.6-0.9-3.5
		c-0.6-0.9-0.9-1.7-0.9-2.6c0-0.9-0.3-1.6-0.9-2.2c0-4.4,0.6-8.3,1.7-11.7c0.6-4.4,1-8.4,1.3-12.2c0.3-2.6,0.9-4.8,1.7-6.5
		c0-0.6,0-1.3,0-2.2c2.6-11.9,1.3-18.7-3.9-20.4c-1.7-0.9-3.5-1.6-5.2-2.2c-0.6,0-1,0.3-1.3,0.9c-2,1.5-3.9,2.8-5.7,3.9
		c-1.2,0.6-2.2,1.3-3,2.2c0,2-0.3,4.4-0.9,7c0,0.9,0,1.7,0,2.6c0.3,4.4-0.1,8.7-1.3,13.1c-0.6,3.5-1.5,7.3-2.6,11.3
		c-0.6,4.4-1.2,9-1.7,13.9c0,2.6-0.4,5.2-1.3,7.8c-0.3,1.5-1,2.6-2.2,3.5c-1.7,0.9-3.8,1.6-6.1,2.2c-2.3,0.3-3.5,0.6-3.5,0.9
		c-2.3,1.7-5.1,2.3-8.3,1.7c-2-0.9-3.6-1.3-4.8-1.3c-2.3-0.3-4.1-1.3-5.2-3c-0.6-2.3-1.7-3.9-3.5-4.8c-0.6-4.1-0.6-7.8,0-11.3
		c1.2-4.4,2.2-8.7,3-13.1c-0.3-1.7-0.1-4.4,0.4-7.8c1.2-4.4,1.6-8.3,1.3-11.7c0-1.7-0.6-4.2-1.7-7.4c-0.9-3.2-0.7-8.3,0.4-15.2
		c1.7-2.6,3.5-4.8,5.2-6.5c1.7-1.4,2.8-2.8,3-3.9c0.9-1.2,2-1.9,3.5-2.2c0.9,0,1.7,0,2.6,0s1.9,0,3,0c4.1-0.9,7.4,0,10,2.6
		c0.3,0.3,0.9,0.4,1.7,0.4h3.5c1.4-1.2,3-2.2,4.8-3c0.9,0,1.7-0.4,2.6-1.3c0.9-1.2,1.7-1.7,2.6-1.7c1.2-0.6,2.5-0.6,3.9,0
		c0.9-1.2,1.6-2.2,2.2-3c2.3-0.3,4.8-0.7,7.4-1.3c2.6,1.2,5.4,2.6,8.3,4.4c0.9,0,2.5,0.3,4.8,0.9c2.6,0.6,3.9,0.7,3.9,0.4
		c6.1,3.5,10,7.8,11.7,13.1c2,5.2,2.9,10.9,2.6,17c0,5.8-0.6,12.2-1.7,19.1c-0.9,6.4-1.6,12.6-2.2,18.7c0.6,3.5,1.6,4.8,3,3.9
		c2-0.9,3.6-1.3,4.8-1.3c0,0.3,1.7-1.9,5.2-6.5c3.5-5.2,5.4-7.7,5.7-7.4c1.2-0.9,2.6-3.6,4.4-8.3c2-4.6,3.6-7.5,4.8-8.7
		c0.6-0.9,1.3-1.7,2.2-2.6c1.4-1.2,2.6-2.8,3.5-4.8c3.2-4.1,5.9-8.4,8.3-13.1c0.9-0.9,1.7-2.2,2.6-3.9l2.2-2.6
		c0.6-0.6,0.9-1.3,0.9-2.2c0.9-0.3,1.7-0.4,2.6-0.4c2-0.6,3.9-0.4,5.7,0.4c1.7,0.9,2.2,3.9,1.3,9.1
		C573.4,667.2,573,668.3,572.1,668.5z"/>
	<path fill="#FCD9BE" d="M637.3,702.9c-4.4,2.9-7.7,5.8-10,8.7c-4.1,4.1-8.4,7.8-13.1,11.3c-2.3,0.9-4.6,1.7-7,2.6h-12.6
		c-2.3-0.9-6.1-2.2-11.3-3.9c-4.9-2-8.1-3-9.6-3c-3.8-0.6-7.1-1.7-10-3.5c-1.2-1.2-2.5-2.5-3.9-3.9c-2.6-3.8-4.6-6.2-6.1-7.4
		c-0.9-1.7-2.3-5.1-4.4-10c0.3-2.6,0.2-5.4-0.4-8.3c0.6-4.1,0.9-7.8,0.9-11.3c1.7-2.6,3-5.2,3.9-7.8c0.9-2.6,1.7-4.5,2.6-5.7
		c0.9-0.9,1.3-1.4,1.3-1.7c0-0.3,0-0.7,0-1.3c1.2-1.2,2.5-2.2,3.9-3c0.3-0.9,0.7-1.7,1.3-2.6c3.5-1.4,6.1-3,7.8-4.8
		c4.1-1.2,8.3-2.2,12.6-3c4.4-0.9,8.3-2,11.7-3.5c5.2-0.3,9.7,0,13.5,0.9c0.3,0.3,0.7,0.4,1.3,0.4c3.5,1.7,5.5,3.2,6.1,4.4
		c0.9,0.9,2.2,2.8,3.9,5.7c0.3,0.9,0.7,1.9,1.3,3v3.5c-0.9,2.3-1.9,4.5-3,6.5c-2.6,1.7-5.1,3.8-7.4,6.1c-3.5,1.5-6.8,2.8-10,3.9
		c-1.5,0.6-3,0.7-4.8,0.4c-2.9,0.3-5.8,0.9-8.7,1.7c-0.6,0-1,0.4-1.3,1.3c0.6,1.7,0.9,3.5,0.9,5.2c0,1.2,0,2.6,0,4.4
		c0.9,1.2,1.7,2.6,2.6,4.4c1.4,2.3,3.5,4.4,6.1,6.1c0.9,0.6,1.7,1.5,2.6,2.6c0.9,0.6,1.4,1.2,1.7,1.7c1.7,1.2,3.2,2.6,4.4,4.4
		c0.9,0,1.4-0.1,1.7-0.4c2.9-0.9,5.7-2.5,8.3-4.8c2.9-2.6,5.5-4.8,7.8-6.5c0-0.3,1.2-1.3,3.5-3c2.3-1.7,3.3-2.8,3-3
		c2.6-2.3,4.6-4.1,6.1-5.2c1.4-1.4,3.6-3.2,6.5-5.2c3.5-2.6,5.7-4.5,6.5-5.7c0.9-1.2,3-3.2,6.5-6.1c2.6-2.3,4.2-3.8,4.8-4.4
		c0.9-0.6,2.2-2.3,3.9-5.2c0.9-1.2,1-1.7,0.4-1.7c0-0.6,0.4-1.3,1.3-2.2c1.7-1.7,3.2-2.9,4.4-3.5c1.2-0.9,2.3-0.7,3.5,0.4
		c1.7,0.6,3.6,0.6,5.7,0c1.7,1.2,3.2,2.2,4.4,3c0.9,0.9,0.7,2-0.4,3.5c-1.2,1.2-2.2,2.3-3,3.5c-0.3-0.3-1.3,0.7-3,3
		c-1.7,1.7-3.5,4.1-5.2,7c-1.7,2.3-4.1,5.7-7,10c-2.9,2.6-5.7,4.8-8.3,6.5c-2.3,1.7-4.8,3.9-7.4,6.5
		C645.3,696.4,641.7,699.4,637.3,702.9z M593.4,661.1v0.4c0.6,0,1.2,0.4,1.7,1.3c4.1-1.2,7-3.2,8.7-6.1c0-0.9,0-1.6,0-2.2
		c0-0.6-0.3-1.2-0.9-1.7c-2.3-0.9-4.8-0.9-7.4,0c-0.9,0.9-1.3,1.7-1.3,2.6c0,0.9,0,1.9,0,3C594.3,659.4,594,660.3,593.4,661.1z"/>
	<path fill="#FCD9BE" d="M611.1,717.4c-0.6-0.9-0.9-1.9-0.9-3c0.6-2.6,2.3-5.1,5.2-7.4c0.9-2.3,2.2-4.6,3.9-7
		c0.3-1.2,0.9-2.3,1.7-3.5c0.9-0.6,1.6-1.2,2.2-1.7c1.2-2.3,3.3-4.8,6.5-7.4c2.6-3.5,5.2-6.7,7.8-9.6c0.9-1.5,2.3-2.6,4.4-3.5
		c0.9-0.9,1.6-1.6,2.2-2.2c0.6,0,1-0.3,1.3-0.9v-2.2c-0.3-1.5-0.4-2.6-0.4-3.5c0-0.9-0.3-1.7-0.9-2.6c0-0.9-0.1-2-0.4-3.5
		c-0.3-1.2-0.4-2.2-0.4-3c0-1.2,0-2.3,0-3.5c0-1.2,0.3-2.6,0.9-4.4c0-1.7,0.4-3.3,1.3-4.8c0.9-1.5,1.6-3,2.2-4.8
		c4.1-4.1,8.3-7.7,12.6-10.9c2,0,4.4,0,7,0c2.3,0.3,3.9,0.9,4.8,1.7c1.2,0.6,2.2,0.9,3,0.9c0.9,0.9,1.7,1.7,2.6,2.6
		c0.9,0.3,1.7,0.4,2.6,0.4c0.9,1.2,1.7,2.3,2.6,3.5c0.9,0.6,1.6,1.7,2.2,3.5c0.6,1.7,0.4,3.3-0.4,4.8c-0.3,0.3-0.1,1.3,0.4,3
		c0,1.7-0.3,2.9-0.9,3.5c-1.2,0.9-2.2,1.7-3,2.6c-0.9,0.9-1.7,1.3-2.6,1.3c-0.9,0.9-1.6,1.7-2.2,2.6v0.4c2.3,2.3,3.9,4.6,4.8,7
		c0.9,0.9,1.7,1.7,2.6,2.6c0.9,1.2,1.6,2,2.2,2.6c0.9,1.2,1.7,2.3,2.6,3.5c0.9,1.2,1.7,2,2.6,2.6c0.6,0.9,1.3,1.9,2.2,3
		c0.9,1.4,1.6,2.8,2.2,3.9c0.6,1.2,1,2.2,1.3,3c0.9,0.9,2,1.7,3.5,2.6c0.9,1.2,1.7,2.3,2.6,3.5c0.9,0.9,1.6,1.9,2.2,3
		c0.9,1.7,1.7,3.5,2.6,5.2c0,0.9,0,1.7,0,2.6c-0.6,1.2-0.4,2.2,0.4,3c0,0.9,0,1.4,0,1.7c0,1.4,0,3,0,4.8c-0.9,0.6-1,1.3-0.4,2.2
		c0,0.9,0,1.6,0,2.2c-1.7,4.6-4.1,8.7-7,12.2c-1.2,1.2-2.5,2.5-3.9,3.9c-0.3,0.3-0.7,0.7-1.3,1.3c-1.2,1.2-1.9,2.3-2.2,3.5
		c-1.4,2.3-3,3.9-4.8,4.8c-2.9,0.3-4.8,0.9-5.7,1.7c-1.7,0-3.2,0-4.4,0c-0.9,0.6-2.9,0.6-6.1,0c-3.2,0-5.7-0.4-7.4-1.3
		c-0.6,0-2-0.4-4.4-1.3c-2.6-0.9-4.5-1.6-5.7-2.2c-2.9-0.9-4.8-3-5.7-6.5c0-0.9,0.1-2,0.4-3.5c0-1.5,1.3-1.9,3.9-1.3
		c0.6,0,1,0,1.3,0c2-1.2,3.5-1.6,4.4-1.3c0.3,0.9,0.7,1.2,1.3,0.9c1.2,0,2.3-0.4,3.5-1.3c1.2,0,2.2-0.3,3-0.9
		c2.6-0.9,5.2-1.6,7.8-2.2c0.9-0.9,1.6-1.5,2.2-1.7c0.6,0,1-0.6,1.3-1.7c0.6-1.7,0.6-3.2,0-4.4c-0.9-0.9-1.2-2-0.9-3.5
		c-1.4-3.8-3.5-7.8-6.1-12.2c-0.9-1.5-2.3-3-4.4-4.8c-3.5-2.3-6.7-5.1-9.6-8.3c-1.4-0.9-3-2-4.8-3.5c-1.2-0.9-1.7-1.5-1.7-1.7v-0.4
		c-2.9,1.2-5.7,3.2-8.3,6.1c-1.4,1.2-2.6,2.5-3.5,3.9l-0.4,0.9c-1.7,1.7-3.3,3.5-4.8,5.2c-1.4,2-2.9,3.8-4.4,5.2
		c-1.2,3.8-3,7-5.7,9.6c-1.7,2-3.2,4.2-4.4,6.5c-1.2,0.6-2,1-2.6,1.3c-0.6,0.9-1.4,1-2.6,0.4c-0.6,0-1.3-0.6-2.2-1.7
		C612.4,719.1,612,718.3,611.1,717.4z M665.5,649.5c0.3,1.2,1,1.7,2.2,1.7c0.9,0.6,1.7,0.4,2.6-0.4c-0.6,0-0.4-0.3,0.4-0.9
		c0.9-0.9,1.6-2,2.2-3.5c0-1.2,0-2,0-2.6c-1.7,0.9-3.2,1.7-4.4,2.6C667.4,647.6,666.4,648.7,665.5,649.5z"/>
	<path fill="#FCD9BE" d="M699.4,717.4c-0.6-0.9-0.9-1.9-0.9-3c0.6-2.6,2.3-5.1,5.2-7.4c0.9-2.3,2.2-4.6,3.9-7
		c0.3-1.2,0.9-2.3,1.7-3.5c0.9-0.6,1.6-1.2,2.2-1.7c1.2-2.3,3.3-4.8,6.5-7.4c2.6-3.5,5.2-6.7,7.8-9.6c0.9-1.5,2.3-2.6,4.4-3.5
		c0.9-0.9,1.6-1.6,2.2-2.2c0.6,0,1-0.3,1.3-0.9v-2.2c-0.3-1.5-0.4-2.6-0.4-3.5c0-0.9-0.3-1.7-0.9-2.6c0-0.9-0.1-2-0.4-3.5
		c-0.3-1.2-0.4-2.2-0.4-3c0-1.2,0-2.3,0-3.5c0-1.2,0.3-2.6,0.9-4.4c0-1.7,0.4-3.3,1.3-4.8c0.9-1.5,1.6-3,2.2-4.8
		c4.1-4.1,8.3-7.7,12.6-10.9c2,0,4.4,0,7,0c2.3,0.3,3.9,0.9,4.8,1.7c1.2,0.6,2.2,0.9,3,0.9c0.9,0.9,1.7,1.7,2.6,2.6
		c0.9,0.3,1.7,0.4,2.6,0.4c0.9,1.2,1.7,2.3,2.6,3.5c0.9,0.6,1.6,1.7,2.2,3.5c0.6,1.7,0.4,3.3-0.4,4.8c-0.3,0.3-0.1,1.3,0.4,3
		c0,1.7-0.3,2.9-0.9,3.5c-1.2,0.9-2.2,1.7-3,2.6c-0.9,0.9-1.7,1.3-2.6,1.3c-0.9,0.9-1.6,1.7-2.2,2.6v0.4c2.3,2.3,3.9,4.6,4.8,7
		c0.9,0.9,1.7,1.7,2.6,2.6c0.9,1.2,1.6,2,2.2,2.6c0.9,1.2,1.7,2.3,2.6,3.5c0.9,1.2,1.7,2,2.6,2.6c0.6,0.9,1.3,1.9,2.2,3
		c0.9,1.4,1.6,2.8,2.2,3.9c0.6,1.2,1,2.2,1.3,3c0.9,0.9,2,1.7,3.5,2.6c0.9,1.2,1.7,2.3,2.6,3.5c0.9,0.9,1.6,1.9,2.2,3
		c0.9,1.7,1.7,3.5,2.6,5.2c0,0.9,0,1.7,0,2.6c-0.6,1.2-0.4,2.2,0.4,3c0,0.9,0,1.4,0,1.7c0,1.4,0,3,0,4.8c-0.9,0.6-1,1.3-0.4,2.2
		c0,0.9,0,1.6,0,2.2c-1.7,4.6-4.1,8.7-7,12.2c-1.2,1.2-2.5,2.5-3.9,3.9c-0.3,0.3-0.7,0.7-1.3,1.3c-1.2,1.2-1.9,2.3-2.2,3.5
		c-1.4,2.3-3,3.9-4.8,4.8c-2.9,0.3-4.8,0.9-5.7,1.7c-1.7,0-3.2,0-4.4,0c-0.9,0.6-2.9,0.6-6.1,0c-3.2,0-5.7-0.4-7.4-1.3
		c-0.6,0-2-0.4-4.4-1.3c-2.6-0.9-4.5-1.6-5.7-2.2c-2.9-0.9-4.8-3-5.7-6.5c0-0.9,0.1-2,0.4-3.5c0-1.5,1.3-1.9,3.9-1.3
		c0.6,0,1,0,1.3,0c2-1.2,3.5-1.6,4.4-1.3c0.3,0.9,0.7,1.2,1.3,0.9c1.2,0,2.3-0.4,3.5-1.3c1.2,0,2.2-0.3,3-0.9
		c2.6-0.9,5.2-1.6,7.8-2.2c0.9-0.9,1.6-1.5,2.2-1.7c0.6,0,1-0.6,1.3-1.7c0.6-1.7,0.6-3.2,0-4.4c-0.9-0.9-1.2-2-0.9-3.5
		c-1.4-3.8-3.5-7.8-6.1-12.2c-0.9-1.5-2.3-3-4.4-4.8c-3.5-2.3-6.7-5.1-9.6-8.3c-1.4-0.9-3-2-4.8-3.5c-1.2-0.9-1.7-1.5-1.7-1.7v-0.4
		c-2.9,1.2-5.7,3.2-8.3,6.1c-1.4,1.2-2.6,2.5-3.5,3.9l-0.4,0.9c-1.7,1.7-3.3,3.5-4.8,5.2c-1.4,2-2.9,3.8-4.4,5.2
		c-1.2,3.8-3,7-5.7,9.6c-1.7,2-3.2,4.2-4.4,6.5c-1.2,0.6-2,1-2.6,1.3c-0.6,0.9-1.4,1-2.6,0.4c-0.6,0-1.3-0.6-2.2-1.7
		C700.7,719.1,700.3,718.3,699.4,717.4z M753.8,649.5c0.3,1.2,1,1.7,2.2,1.7c0.9,0.6,1.7,0.4,2.6-0.4c-0.6,0-0.4-0.3,0.4-0.9
		c0.9-0.9,1.6-2,2.2-3.5c0-1.2,0-2,0-2.6c-1.7,0.9-3.2,1.7-4.4,2.6C755.7,647.6,754.7,648.7,753.8,649.5z"/>
	<path fill="#FCD9BE" d="M322.8,345c0-1.7-0.4-3.2-1.3-4.4l-2.6-2.6c-0.6-1.2-1.3-2.3-2.2-3.5c0.6-1.2-0.3-1.6-2.6-1.3
		c-2,0-3.6,0.4-4.8,1.3c-0.9,0.6-3.3,1.7-7.4,3.5c-0.9,0.6-2.6,1.7-5.2,3.5c-1.5,1.2-2.2,2-2.2,2.6c0,0.6-1,0.9-3,0.9
		c-1.5,0-2.8,0.3-3.9,0.9c-0.6-0.6-1.2-1.3-1.7-2.2v-7.4c1.2-5.2,1.7-10.1,1.7-14.8c0.6-1.7,1.3-3.2,2.2-4.4
		c-0.3-1.2-0.4-2.3-0.4-3.5c0.9-0.6,1-2,0.4-4.4c-0.9-1.7-2.3-3-4.4-3.9c-1.7-1.4-3.2-2.8-4.4-3.9c-0.3-0.6-0.9-0.9-1.7-0.9
		c-2.9,0.6-6.1,1.9-9.6,3.9c-0.9,0.6-1.7,1.3-2.6,2.2c-0.9,0.9-1.9,1.7-3,2.6c0.3,0.6,0.1,1.3-0.4,2.2c-0.6,0.9-0.9,1.6-0.9,2.2
		c-0.9,1.2-2,2.2-3.5,3c-0.3,2.6-1.3,4.4-3,5.2c-0.9,0.3-1.7,1-2.6,2.2c-1.2,2.9-2,5.5-2.6,7.8c-0.6,0.9-1.2,2.1-1.7,3.7
		c-0.6,1.6-1.2,2.8-1.7,3.7c-0.6,1.5-0.9,3.1-0.9,5v4.1c-0.3,0.6-0.6,1.5-0.9,2.6c0,0.5-0.2,0.9-0.5,1.2c0,0.2,0,0.3,0,0.5
		c-1,7.6-2.6,18.1-5.8,24.7c-1.3,2.7-16.4,2.9-19.6,5.7c-1.5,0.2-3,0.2-4.6,0.1c-1.4,0.4-2.7,1.1-3.9,2.2c0.9,1.7,1.6,3.9,2.2,6.5
		v1.7c-0.9,0-1.6,1-2.2,3c0.3,1.2,0.9,2.2,1.7,3c1.5,0.9,2.2,1.9,2.2,3c0.6,0.9,1.3,2.5,2.2,4.8c0.9,0,1.6,0.4,2.2,1.3
		c1.7,0,3.2,0.3,4.4,0.9c1.2,0.9,2.3,1.9,3.5,3c3.5,0.6,6.8,0.4,10-0.4c1.2-0.3,2.2,0,3,0.9c0.6,0,0.9,0.4,0.9,1.3
		c0,1.7,0.6,3.8,1.7,6.1c1.7,2.3,2.8,4.2,3,5.7c0.3,1.7,0.4,4.6,0.4,8.7c0.6,1.5,0.7,3.2,0.4,5.2c0.6,2,1.3,3.6,2.2,4.8
		c0.9,0.9,1.3,1.7,1.3,2.6c0.9,2.3,1.7,4.8,2.6,7.4c1.2,2.6,2.9,4.8,5.2,6.5c0.9,0.6,1.7,1.3,2.6,2.2c2.6,0.9,5.4,1.9,8.3,3h14.4
		c1.7-0.6,3.5-1.3,5.2-2.2c0.9-2.6,1.6-4.2,2.2-4.8v-4.8c-2.6-5.2-4.8-10.7-6.5-16.5c0-2.6-0.4-5.1-1.3-7.4
		c-0.6-2.3-0.7-4.4-0.4-6.1c-0.3-8.1-0.9-16.1-1.7-23.9V399c0.3-1.2,0.4-2,0.4-2.6c0.9-2.3,1-4.6,0.4-7c0.6-0.9,0.9-1.7,0.9-2.6
		c2.6-1.2,4.2-2.2,4.8-3c0.9-1.2,2.2-2.2,3.9-3c4.4-2.3,7.8-5.2,10.4-8.7c0.9-0.6,1.9-1.2,3-1.7c1.2-1.7,2.3-2.8,3.5-3
		c1.2-0.9,3.2-2.5,6.1-4.8c2.9-2.9,3.2-3.9,0.9-3c-2.3,0.6-2,0,0.9-1.7c1.2,0,1.9-0.3,2.2-0.9c0.6-0.9,0.6-1.6,0-2.2
		C321.1,351.1,322.5,347.9,322.8,345z"/>
	<path fill="#FCD9BE" d="M406.3,358.3c0-1.7-0.4-3.2-1.3-4.4l-2.6-2.6c-0.6-1.2-1.3-2.3-2.2-3.5c0.6-1.2-0.3-1.6-2.6-1.3
		c-2,0-3.6,0.4-4.8,1.3c-0.9,0.6-3.3,1.7-7.4,3.5c-0.9,0.6-2.6,1.7-5.2,3.5c-1.5,1.2-2.2,2-2.2,2.6c0,0.6-1,0.9-3,0.9
		c-1.5,0-2.8,0.3-3.9,0.9c-0.6-0.6-1.2-1.3-1.7-2.2v-7.4c1.2-5.2,1.7-10.1,1.7-14.8c0.6-1.7,1.3-3.2,2.2-4.4
		c-0.3-1.2-0.4-2.3-0.4-3.5c0.9-0.6,1-2,0.4-4.4c-0.9-1.7-2.3-3-4.4-3.9c-1.7-1.4-3.2-2.8-4.4-3.9c-0.3-0.6-0.9-0.9-1.7-0.9
		c-2.9,0.6-6.1,1.9-9.6,3.9c-0.9,0.6-1.7,1.3-2.6,2.2c-0.9,0.9-1.9,1.7-3,2.6c0.3,0.6,0.1,1.3-0.4,2.2c-0.6,0.9-0.9,1.6-0.9,2.2
		c-0.9,1.2-2,2.2-3.5,3c-0.3,2.6-1.3,4.4-3,5.2c-0.9,0.3-1.7,1-2.6,2.2c-1.2,2.9-2,5.5-2.6,7.8c-0.6,0.9-1.2,2.1-1.7,3.7
		c-0.6,1.6-1.2,2.8-1.7,3.7c-0.6,1.5-0.9,3.1-0.9,5v4.1c-0.3,0.6-0.6,1.5-0.9,2.6c0,0.5-0.2,0.9-0.5,1.2c0,0.2,0,0.3,0,0.5
		c-1,7.6-2.6,18.1-5.8,24.7c-1.3,2.7-16.4,2.9-19.6,5.7c-1.5,0.2-3,0.2-4.6,0.1c-1.4,0.4-2.7,1.1-3.9,2.2c0.9,1.7,1.6,3.9,2.2,6.5
		v1.7c-0.9,0-1.6,1-2.2,3c0.3,1.2,0.9,2.2,1.7,3c1.5,0.9,2.2,1.9,2.2,3c0.6,0.9,1.3,2.5,2.2,4.8c0.9,0,1.6,0.4,2.2,1.3
		c1.7,0,3.2,0.3,4.4,0.9c1.2,0.9,2.3,1.9,3.5,3c3.5,0.6,6.8,0.4,10-0.4c1.2-0.3,2.2,0,3,0.9c0.6,0,0.9,0.4,0.9,1.3
		c0,1.7,0.6,3.8,1.7,6.1c1.7,2.3,2.8,4.2,3,5.7c0.3,1.7,0.4,4.6,0.4,8.7c0.6,1.5,0.7,3.2,0.4,5.2c0.6,2,1.3,3.6,2.2,4.8
		c0.9,0.9,1.3,1.7,1.3,2.6c0.9,2.3,1.7,4.8,2.6,7.4c1.2,2.6,2.9,4.8,5.2,6.5c0.9,0.6,1.7,1.3,2.6,2.2c2.6,0.9,5.4,1.9,8.3,3h14.4
		c1.7-0.6,3.5-1.3,5.2-2.2c0.9-2.6,1.6-4.2,2.2-4.8v-4.8c-2.6-5.2-4.8-10.7-6.5-16.5c0-2.6-0.4-5.1-1.3-7.4
		c-0.6-2.3-0.7-4.4-0.4-6.1c-0.3-8.1-0.9-16.1-1.7-23.9v-2.2c0.3-1.2,0.4-2,0.4-2.6c0.9-2.3,1-4.6,0.4-7c0.6-0.9,0.9-1.7,0.9-2.6
		c2.6-1.2,4.2-2.2,4.8-3c0.9-1.2,2.2-2.2,3.9-3c4.4-2.3,7.8-5.2,10.4-8.7c0.9-0.6,1.9-1.2,3-1.7c1.2-1.7,2.3-2.8,3.5-3
		c1.2-0.9,3.2-2.5,6.1-4.8c2.9-2.9,3.2-3.9,0.9-3c-2.3,0.6-2,0,0.9-1.7c1.2,0,1.9-0.3,2.2-0.9c0.6-0.9,0.6-1.6,0-2.2
		C404.5,364.4,406,361.2,406.3,358.3z"/>
	<path fill="#FCD9BE" d="M579.3,448c-2.7-7.2-5.5-5.3-10,0c-0.3,0.4-0.7,0.7-1,0.9c-0.8,1.2-1.9,2.7-3.1,4.5
		c-3.5,4.6-5.2,6.8-5.2,6.5c-1.2,0-2.8,0.4-4.8,1.3c-1.5,0.9-2.5-0.4-3-3.9c0.6-6.1,1.3-12.3,2.2-18.7c1.2-7,1.7-13.3,1.7-19.1
		c0.3-6.1-0.6-11.7-2.6-17c-1.7-5.2-5.7-9.6-11.7-13.1c0,0.3-1.3,0.1-3.9-0.4c-2.3-0.6-3.9-0.9-4.8-0.9c-2.9-1.7-5.7-3.2-8.3-4.4
		c-2.6,0.6-5.1,1-7.4,1.3c-0.6,0.9-1.3,1.9-2.2,3c-1.5-0.6-2.8-0.6-3.9,0c-0.9,0-1.7,0.6-2.6,1.7c-0.9,0.9-1.7,1.3-2.6,1.3
		c-1.7,0.9-3.3,1.9-4.8,3h-3.5c-0.9,0-1.5-0.1-1.7-0.4c-2.6-2.6-5.9-3.5-10-2.6h-5.7c-1.5,0.3-2.6,1-3.5,2.2c-0.3,1.2-1.3,2.5-3,3.9
		c-1.7,1.7-3.5,3.9-5.2,6.5c-1.2,7-1.3,12-0.4,15.2c1.2,3.2,1.7,5.7,1.7,7.4c0.3,3.5-0.2,7.4-1.3,11.7c-0.6,3.5-0.7,6.1-0.4,7.8
		c-0.9,4.4-1.9,8.7-3,13.1c-0.6,3.5-0.6,7.3,0,11.3c1.7,0.9,2.9,2.5,3.5,4.8c1.2,1.7,2.9,2.8,5.2,3c1.2,0,2.8,0.4,4.8,1.3
		c3.2,0.6,5.9,0,8.3-1.7c0-0.3,1.2-0.6,3.5-0.9c2.3-0.6,4.4-1.3,6.1-2.2c1.2-0.9,1.9-2,2.2-3.5c0.9-2.6,1.3-5.2,1.3-7.8
		c0.6-4.9,1.2-9.6,1.7-13.9c1.2-4.1,2-7.8,2.6-11.3c1.2-4.4,1.6-8.7,1.3-13.1v-2.6c0.6-2.6,0.9-4.9,0.9-7c0.9-0.9,1.9-1.6,3-2.2
		c1.7-1.2,3.6-2.5,5.7-3.9c0.3-0.6,0.7-0.9,1.3-0.9c1.7,0.6,3.5,1.3,5.2,2.2c5.2,1.7,6.5,8.6,3.9,20.4v2.2c-0.9,1.7-1.5,3.9-1.7,6.5
		c-0.3,3.8-0.7,7.8-1.3,12.2c-1.2,3.5-1.7,7.4-1.7,11.7c0.6,0.6,0.9,1.3,0.9,2.2c0,0.9,0.3,1.7,0.9,2.6c0.6,0.9,0.9,2,0.9,3.5
		c0,0.9,0.1,1.6,0.4,2.2c2,4.1,4.4,7.8,7,11.3c3.5,2.3,6.7,3.5,9.6,3.5l8.3-0.4c1.7-0.9,3.6-1.7,5.7-2.6c2-0.9,4.2-1.6,6.5-2.2
		c0.6-0.6,1.3-1.2,2.2-1.7c0.9-1.2,1.6-2,2.2-2.6c1.7-1.7,3.8-4.2,6.1-7.4c2.3-3.2,4.4-5.7,6.1-7.4c1.8-3.6,3.2-6.4,4.1-8.2
		C581,453.5,580.3,450.7,579.3,448z"/>
	<g>
		<g>
			<path fill="#FCD9BE" d="M775.4,708.5h-5.7v-1.7l5.5-9.4h2.5v9.2h2v1.9h-2v3h-2.2V708.5z M775.5,706.6v-6.2h0l-3.5,6.2H775.5z"/>
		</g>
	</g>
</g>
<g>
	<g>
		<g>
			<path fill="#353535" d="M196.9,124.2v175H25v-175H196.9 M200.9,120.2h-4H25h-4v4v175v4h4h171.8h4v-4v-175V120.2L200.9,120.2z"/>
		</g>
	</g>
	<g>
		<g>
			<g>
				<path fill="#353535" d="M55.2,172.1h12.4v31.3H95v-31.3h12.4v78H95v-35.2H67.6V250H55.2V172.1z"/>
			</g>
			<g>
				<path fill="#353535" d="M120.3,235.5v-41.3h12V233c0,5.5,1.8,8,6.6,8c4.4,0,8.6-3.1,12.2-6.5v-40.2h12V250h-12v-7.3
					c-3.7,4.2-9.6,8.4-17.2,8.4C125.4,251.2,120.3,245.8,120.3,235.5z"/>
			</g>
		</g>
	</g>
	<g>
		<g>
			<path fill="#353535" d="M177.9,151.8h3.1v-14c-0.8,0.5-2.1,0.9-3.1,0.9v-2.8c1.3-0.1,2.4-0.5,3.2-1.3h3v17.1h2.8v2.7h-9V151.8z"
				/>
		</g>
	</g>
</g>
<g>
	<g>
		<g>
			<g>
				<path fill="#353535" d="M274.6,353.5h18.8c21.3,0,34.5,10.1,34.5,38.8c0,29-13.5,39.2-34.5,39.2h-18.8V353.5z M294.7,420.4
					c14.5,0,20.5-7.7,20.5-28.1c0-19.8-6-27.4-20.7-27.4H287v55.5H294.7z"/>
			</g>
			<g>
				<path fill="#353535" d="M338.4,355.2h12.1v11.3h-12.1V355.2z M338.4,375.7h12v55.8h-12V375.7z"/>
			</g>
		</g>
	</g>
	<g>
		<g>
			<path fill="#353535" d="M377.4,334.7c0-8.9,8.9-8.8,8.9-14.4c0-1.7-0.9-2.6-2.5-2.6c-1.6,0-2.7,1.1-3.5,3l-2.6-1.1
				c1.2-2.9,3.2-4.7,6.3-4.7c3.5,0,5.4,2.2,5.4,5.3c0,6.4-8.3,7.6-8.4,12.2h8.4v2.7h-11.9V334.7z"/>
		</g>
	</g>
	<g>
		<g>
			<path fill="#353535" d="M399.9,304.8v175H228v-175H399.9 M403.9,300.8h-4H228h-4v4v175v4h4h171.8h4v-4v-175V300.8L403.9,300.8z"
				/>
		</g>
	</g>
</g>
<g>
	<g>
		<g>
			<path fill="#353535" d="M581.1,29.9l2.6-1.2c0.9,2.1,2,2.9,3.7,2.9c2.1,0,3.4-1.3,3.4-3.2c0-2.5-1.4-3.7-4.6-3.7h-0.8v-2.5h1.2
				c2.9,0,3.9-1.2,3.9-3.2c0-1.5-0.7-2.5-2.7-2.5c-1.5,0-2.7,0.8-3.6,2.1l-2.2-1.5c1.4-2,3.4-3.4,6.1-3.4c3.6,0,5.4,2.1,5.4,4.9
				c0,2.4-1.4,4.1-3.1,4.7c2.1,0.7,3.5,2.3,3.5,5.1c0,3.5-2.5,5.8-6.3,5.8C584.1,34.4,582.2,32.5,581.1,29.9z"/>
		</g>
	</g>
	<g>
		<g>
			<g>
				<path fill="#353535" d="M604.9,4v175H433V4H604.9 M608.9,0h-4H433h-4v4v175v4h4h171.8h4v-4V4V0L608.9,0z"/>
			</g>
		</g>
	</g>
	<g>
		<g>
			<g>
				<path fill="#353535" d="M471.2,53.3h12.4v66.8h30v11.2h-42.5V53.3z"/>
			</g>
			<g>
				<path fill="#353535" d="M519.8,103.3c0-20.8,11.5-29.1,22.9-29.1c12.5,0,21.2,9.2,21.2,29.4v3.3h-32.2
					c0.5,10.5,4.8,15.7,11.8,15.7c5.9,0,9.3-2.8,12.7-7.6l7.6,5.5c-4.2,6.7-11.8,11.9-20.9,11.9C530,132.4,519.8,123.4,519.8,103.3z
					 M552.7,98.5c-0.5-9.3-3.7-14.2-10.1-14.2c-5.3,0-9.9,3.8-10.9,14.2H552.7z"/>
			</g>
		</g>
	</g>
</g>
<g>
	<g>
		<g>
			<g>
				<path fill="#353535" d="M807.9,94.9v175H636v-175H807.9 M811.9,90.9h-4H636h-4v4v175v4h4h171.8h4v-4v-175V90.9L811.9,90.9z"/>
			</g>
		</g>
	</g>
</g>
<g>
	<rect x="20.5" y="346.9" fill="none" width="179.7" height="210.5"/>
	<text transform="matrix(1 0 0 1 20.4879 358.7673)"><tspan x="0" y="0" fill="#353535" font-family="'Montserrat-Bold'" font-size="16" letter-spacing="1">HUMAN</tspan><tspan x="0" y="21" fill="#353535" font-family="'BentonSans-CondensedRegular'" font-size="15">We solve for people. Thus, the </tspan><tspan x="0" y="42" fill="#353535" font-family="'BentonSans-CondensedRegular'" font-size="15">people we’re designing for </tspan><tspan x="0" y="63" fill="#353535" font-family="'BentonSans-CondensedRegular'" font-size="15">participate in our process. To </tspan><tspan x="0" y="84" fill="#353535" font-family="'BentonSans-CondensedRegular'" font-size="15">arrive at answers, we engage, </tspan><tspan x="0" y="105" fill="#353535" font-family="'BentonSans-CondensedRegular'" font-size="15">empathize, listen and </tspan><tspan x="0" y="126" fill="#353535" font-family="'BentonSans-CondensedRegular'" font-size="15">observe.</tspan></text>
</g>
<g>
	<rect x="223" y="528.7" fill="none" width="179.7" height="210.5"/>
	<text transform="matrix(1 0 0 1 222.9663 540.5298)"><tspan x="0" y="0" fill="#353535" font-family="'Montserrat-Bold'" font-size="16" letter-spacing="1">DIGITAL</tspan><tspan x="0" y="21" fill="#353535" font-family="'BentonSans-CondensedRegular'" font-size="15">Our solutions are digital by </tspan><tspan x="0" y="42" fill="#353535" font-family="'BentonSans-CondensedRegular'" font-size="15">nature, developed to improve </tspan><tspan x="0" y="63" fill="#353535" font-family="'BentonSans-CondensedRegular'" font-size="15">speed, accuracy and data. We </tspan><tspan x="0" y="84" fill="#353535" font-family="'BentonSans-CondensedRegular'" font-size="15">use technology and networks </tspan><tspan x="0" y="105" fill="#353535" font-family="'BentonSans-CondensedRegular'" font-size="15">to connect, measure and </tspan><tspan x="0" y="126" fill="#353535" font-family="'BentonSans-CondensedRegular'" font-size="15">scale.</tspan></text>
</g>
<g>
	<rect x="427.5" y="224.1" fill="none" width="179.7" height="210.5"/>
	<text transform="matrix(1 0 0 1 427.4673 235.9292)"><tspan x="0" y="0" fill="#353535" font-family="'Montserrat-Bold'" font-size="16" letter-spacing="1">LEAN</tspan><tspan x="0" y="21" fill="#353535" font-family="'BentonSans-CondensedRegular'" font-size="15">We work in a way that </tspan><tspan x="0" y="42" fill="#353535" font-family="'BentonSans-CondensedRegular'" font-size="15">achieves speed and quality. </tspan><tspan x="0" y="63" fill="#353535" font-family="'BentonSans-CondensedRegular'" font-size="15">Waste is shunned in our </tspan><tspan x="0" y="84" fill="#353535" font-family="'BentonSans-CondensedRegular'" font-size="15">efforts to get ideas out there </tspan><tspan x="0" y="105" fill="#353535" font-family="'BentonSans-CondensedRegular'" font-size="15">and iterate as quickly as </tspan><tspan x="0" y="126" fill="#353535" font-family="'BentonSans-CondensedRegular'" font-size="15">possible.</tspan></text>
</g>
<g>
	<rect x="629.9" y="328.5" fill="none" width="179.7" height="210.5"/>
	<text transform="matrix(1 0 0 1 629.9457 340.3623)"><tspan x="0" y="0" fill="#353535" font-family="'Montserrat-Bold'" font-size="16" letter-spacing="1">DATA</tspan><tspan x="0" y="21" fill="#353535" font-family="'BentonSans-CondensedRegular'" font-size="15">Data drives our actions and </tspan><tspan x="0" y="42" fill="#353535" font-family="'BentonSans-CondensedRegular'" font-size="15">decisions. Measurements are </tspan><tspan x="0" y="63" fill="#353535" font-family="'BentonSans-CondensedRegular'" font-size="15">consistently made to ensure </tspan><tspan x="0" y="84" fill="#353535" font-family="'BentonSans-CondensedRegular'" font-size="15">we deliver the right products </tspan><tspan x="0" y="105" fill="#353535" font-family="'BentonSans-CondensedRegular'" font-size="15">and services.</tspan></text>
</g>
<g>
	<g>
		<g>
			<path fill="#353535" d="M668.2,143.9H687c21.3,0,34.5,10.1,34.5,38.8c0,29-13.5,39.3-34.5,39.3h-18.8V143.9z M688.4,210.9
				c14.6,0,20.6-7.7,20.6-28.2c0-19.8-6-27.4-20.7-27.4h-7.6v55.6H688.4z"/>
		</g>
		<g>
			<path fill="#353535" d="M728.6,208.3c0-11.7,10.6-19.5,30.7-23.3v-2.4c0-5.3-2-7.3-7-7.3c-6.2,0-11.8,3-15.8,6.4l-6-7.4
				c5.9-5.5,14.2-9.4,23.3-9.4c11.8,0,17.2,6,17.2,17.6v25.8c0,6.8,0.4,10.9,1.4,13.7h-11.9c-0.6-2.1-1.2-3.8-1.2-7.1
				c-3.8,4.9-10,7.7-17.2,7.7C734.2,222.6,728.6,217.6,728.6,208.3z M759.3,207.3v-14.1c-13.2,2.9-19,7.3-19,13.1
				c0,4.6,2.5,6.9,6.5,6.9C752,213.1,756.3,210.6,759.3,207.3z"/>
		</g>
	</g>
	<g>
		<g>
			<path fill="#353535" d="M791.1,120H783v-2.4l7.6-13.2h3.4v12.9h2.8v2.7h-2.8v4.2h-3V120z M791.1,117.3v-8.7h0l-4.9,8.7H791.1z"/>
		</g>
	</g>
</g>
</svg>
