<?xml version="1.0" encoding="utf-8"?>
<!-- Generator: Adobe Illustrator 17.1.0, SVG Export Plug-In . SVG Version: 6.00 Build 0)  -->
<!DOCTYPE svg PUBLIC "-//W3C//DTD SVG 1.1//EN" "http://www.w3.org/Graphics/SVG/1.1/DTD/svg11.dtd">
<svg version="1.1" id="Layer_1" xmlns="http://www.w3.org/2000/svg" xmlns:xlink="http://www.w3.org/1999/xlink" x="0px" y="0px"
	 viewBox="0 0 815.7 574.6" enable-background="new 0 0 815.7 574.6" xml:space="preserve">
<g>
	<path fill="#353535" d="M58.9,137.2v9.2c0,1.1-0.9,2-2,2H8.1c-1.1,0-2-0.9-2-2c0,0,0-10.3,0-11.5c0-7.9,4-20.9,10.6-28.8
		c3.8-4.7,16-19.3,19.4-23.2c7.7-9.4,9.7-13,9.7-21.4c0-8.8-2.2-19.1-13-19.1c-5.9,0-13.1,2.3-13.1,19.1V68c0,1.1-0.9,2-2,2H8.5
		c-1.1,0-2-0.9-2-2v-7.6c0-18.4,8.8-30.8,26.8-30.8c16.6,0,25.7,12.1,25.9,30.2V63c0,14.2-6.7,20.9-13.1,29
		c-13.1,15.7-25.9,29-25.9,40.5v2.9h36.7C58,135.4,58.9,136.3,58.9,137.2z"/>
	<path fill="#353535" d="M124.7,119.3c0,19.4-9,31-27,31c-16.4,0-26.3-11.3-26.3-28.3v-11c0-0.9,0.7-2,1.8-2h9.5
		c0.9,0,1.8,1.1,1.8,2v11.9c0,7.7,3.8,15.5,13.5,15.5c12.6,0,13.1-10.6,13.1-18.2V108c0-10.8-14-13.9-17.3-14c-1.8,0-1.8-0.9-1.8-2
		v-8.6c0-0.7,0.5-1.4,1.6-2c0,0,17.8-5.6,17.8-17.8V59c0-10.8-4.1-16.4-13.3-16.4c-9.5,0-12.8,6.7-12.8,14.4v10.1
		c0,0.9-0.9,1.8-1.8,1.8H73.6c-1.1,0-1.8-0.9-1.8-1.8v-9.4c0-17.1,10.4-28.1,26.8-28.1c17.6,0,26.1,11.9,26.1,29c0,0,0,0.9,0,3.1
		c0,14.9-13,25.2-18.2,25.2c0,0,18.2,3.1,18.2,24.5V119.3z"/>
	<path fill="#353535" d="M220.9,33.7v112.7c0,1.1-0.9,2-2,2H209c-1.1,0-1.8-0.9-1.8-2V95h-26.3v51.3c0,1.1-0.7,2-1.8,2h-9.9
		c-1.1,0-2-0.9-2-2V33.7c0-1.1,0.9-2,2-2h9.9c1.1,0,1.8,0.9,1.8,2v48.4h26.3V33.7c0-1.1,0.7-2,1.8-2h9.9
		C220,31.7,220.9,32.6,220.9,33.7z"/>
	<path fill="#353535" d="M291.6,33.7v88.6c0,16.7-10.3,28.1-26.6,28.1c-16.2,0-26.5-11.3-26.5-28.1V33.7c0-1.1,0.9-2,2-2h9.7
		c1.1,0,1.8,0.9,1.8,2V122c0,11.2,5.4,15.3,13,15.3c7.7,0,13.1-4.1,13.1-15.3V33.7c0-1.1,0.9-2,2-2h9.7
		C290.9,31.7,291.6,32.6,291.6,33.7z"/>
	<path fill="#353535" d="M385.6,33.7v112.7c0,1.1-0.9,2-2,2h-8.5c-1.1,0-2-0.9-2-2V62.6l-19.6,84.1c-0.2,0.7-0.9,1.6-1.8,1.6h-9
		c-0.7,0-1.6-0.7-1.8-1.6c-0.2-0.2-18.9-81-19.6-84.1v83.7c0,1.1-0.9,2-2,2h-0.2h-8.3c-1.1,0-2-0.9-2-2V33.7c0-1.1,0.9-2,2-2h12.2
		c0.9,0,2,0.7,2.2,1.8l22,93.8l22-93.8c0.2-1.1,1.3-1.8,2.2-1.8h12.2C384.7,31.7,385.6,32.6,385.6,33.7z"/>
	<path fill="#353535" d="M459.3,146.3c0,1.1-0.9,2-2,2h-9.9c-1.1,0-1.8-0.7-2-2l-3.6-22.3h-26.3l-3.6,22.3c-0.4,1.3-0.9,2-2,2h-9.9
		c-1.1,0-2-0.9-2-2l21.2-112.7c0.4-1.1,0.9-2,2-2h14.8c1.1,0,1.6,0.9,2,2L459.3,146.3z M439.7,111.2l-11-64.8l-11,64.8H439.7z"/>
	<path fill="#353535" d="M529.9,33.7v112.7c0,1.1-0.9,2-2,2h-8.8c-0.9,0-2.7-1.4-2.9-2.2l-31.7-81.4v81.5c0,1.1-0.7,2-1.8,2h-8.8
		c-1.1,0-2-0.9-2-2V33.7c0-1.1,0.9-2,2-2h8.8c1.1,0,2,0.7,2.2,1.8l32.2,86.4V33.7c0-1.1,0.7-2,1.8-2h9
		C529,31.7,529.9,32.6,529.9,33.7z"/>
	<path fill="#353535" d="M599,112.7c0,2.9,0,11.2,0,11.2c0,16.2-11.7,26.5-26.6,26.5c-16,0-27.7-11.7-27.7-28.8v-10.6
		c0-0.9,0.7-1.8,1.8-1.8h9.5c0.9,0,1.8,0.9,1.8,1.8V124c0,10.4,6.7,14.6,14.4,14.4c9.4-0.2,13.1-6.3,13.1-14.4v-9.4
		c0-6.8-2.5-10.3-11.3-18.7l-14-13c-7.4-7-13.3-17.5-13.3-25.7c0-16.7,9.7-27.5,25.9-27.5c16,0,26.3,11.2,26.3,27.9v9.7
		c0,0.9-0.7,1.6-1.6,1.6h-9.9c-0.7,0-1.6-0.7-1.6-1.6V56.5c0-11-5.4-14.9-13.1-14.9c-7.6,0-12.2,5-12.2,15.1
		c0,2.5,0.7,8.5,10.3,17.3C573.6,77,588,90.5,588,90.5C598.3,99.5,599,108.4,599,112.7z"/>
</g>
<g>
	<path fill="#353535" d="M49.5,228.8v18.8c0,0.2-0.2,0.3-0.3,0.3h-1.5c-0.2,0-0.3-0.2-0.3-0.3V232h-1.9c-0.2,0-0.3-0.2-0.3-0.3v-0.8
		c0-0.2,0.1-0.3,0.3-0.3c2.4-0.9,1.8-2,2.8-2c0.2,0,1,0,1,0C49.4,228.5,49.5,228.6,49.5,228.8z"/>
	<path fill="#353535" d="M60.9,243.1c0,3.2-1.5,5.2-4.5,5.2c-2.7,0-4.4-1.9-4.4-4.7v-1.8c0-0.1,0.1-0.3,0.3-0.3H54
		c0.2,0,0.3,0.2,0.3,0.3v2c0,1.3,0.6,2.6,2.2,2.6c2.1,0,2.2-1.8,2.2-3v-2c0-1.8-2.3-2.3-2.9-2.3c-0.3,0-0.3-0.2-0.3-0.3v-1.4
		c0-0.1,0.1-0.2,0.3-0.3c0,0,3-0.9,3-3V233c0-1.8-0.7-2.7-2.2-2.7c-1.6,0-2.1,1.1-2.1,2.4v1.7c0,0.1-0.1,0.3-0.3,0.3h-1.7
		c-0.2,0-0.3-0.2-0.3-0.3v-1.6c0-2.8,1.7-4.7,4.5-4.7c2.9,0,4.3,2,4.3,4.8c0,0,0,0.2,0,0.5c0,2.5-2.2,4.2-3,4.2c0,0,3,0.5,3,4.1
		V243.1z"/>
	<path fill="#353535" d="M75,237.7c1.6,0.4,2.3,2.2,2.3,4.6c0,3.1-1,5.6-4.9,5.6h-4.1c-0.2,0-0.3-0.2-0.3-0.3v-18.8
		c0-0.2,0.1-0.3,0.3-0.3h3.4c3.1,0,5.1,2.1,5.1,5.3C76.8,235.5,76.4,237.1,75,237.7z M74.7,233.7c0-1.1-0.7-3-2.8-3h-1.6v6.2H72
		C73.9,236.9,74.7,235.5,74.7,233.7z M75.1,242.5c0-2.5-1-3.4-2.8-3.4h-2v6.6h2C74.1,245.7,75.1,244.8,75.1,242.5z"/>
	<path fill="#353535" d="M88.5,232.8v10.7c0,2.8-1.7,4.7-4.4,4.7c-2.7,0-4.4-1.9-4.4-4.7v-10.7c0-2.8,1.5-4.7,4.4-4.7
		C87,228.2,88.5,230,88.5,232.8z M86.3,232.9c0-1.9-0.9-2.5-2.2-2.5c-1.3,0-2.1,0.7-2.1,2.5v10.7c0,1.9,0.9,2.5,2.1,2.5
		c1.3,0,2.2-0.7,2.2-2.5V232.9z"/>
	<path fill="#353535" d="M100.1,228.8c0,0-4.1,10.8-4.1,10.8v8c0,0.1-0.1,0.3-0.3,0.3h-1.5c-0.2,0-0.3-0.2-0.3-0.3v-8
		c0,0-4.1-10.8-4.1-10.8c-0.1-0.2,0.1-0.3,0.3-0.3c0.5,0,1.4,0,1.4,0c0.2,0,0.3,0.1,0.4,0.3l3,8.2l3-8.2c0.1-0.3,0.2-0.3,0.4-0.3
		c0,0,0,0,1.5,0C100,228.5,100.1,228.6,100.1,228.8z"/>
	<path fill="#353535" d="M109.6,242c0,0.5,0,1.9,0,1.9c0,2.7-1.9,4.4-4.4,4.4c-2.7,0-4.6-2-4.6-4.8v-1.8c0-0.2,0.1-0.3,0.3-0.3h1.6
		c0.2,0,0.3,0.2,0.3,0.3v2.2c0,1.7,1.1,2.4,2.4,2.4c1.6,0,2.2-1,2.2-2.4v-1.6c0-1.1-0.4-1.7-1.9-3.1l-2.3-2.2
		c-1.2-1.2-2.2-2.9-2.2-4.3c0-2.8,1.6-4.6,4.3-4.6c2.7,0,4.4,1.9,4.4,4.7v1.6c0,0.1-0.1,0.3-0.3,0.3h-1.6c-0.1,0-0.3-0.1-0.3-0.3
		v-1.8c0-1.8-0.9-2.5-2.2-2.5c-1.3,0-2,0.8-2,2.5c0,0.4,0.1,1.4,1.7,2.9c0.5,0.5,2.9,2.8,2.9,2.8C109.5,239.8,109.6,241.3,109.6,242
		z"/>
</g>
<g>
	<path fill="#353535" d="M189.4,262.4v18.8c0,0.2-0.1,0.3-0.3,0.3h-1.5c-0.2,0-0.3-0.2-0.3-0.3v-15.6h-1.9c-0.2,0-0.3-0.2-0.3-0.3
		v-0.8c0-0.2,0.1-0.3,0.3-0.3c2.4-0.9,1.8-2,2.8-2c0.2,0,1,0,1,0C189.3,262.1,189.4,262.3,189.4,262.4z"/>
	<path fill="#353535" d="M196,262.4v18.8c0,0.2-0.2,0.3-0.3,0.3h-1.5c-0.2,0-0.3-0.2-0.3-0.3v-15.6h-1.9c-0.2,0-0.3-0.2-0.3-0.3
		v-0.8c0-0.2,0.1-0.3,0.3-0.3c2.4-0.9,1.8-2,2.8-2c0.2,0,1,0,1,0C195.8,262.1,196,262.3,196,262.4z"/>
	<path fill="#353535" d="M212.6,272.6v8.8c0,0.1-0.1,0.2-0.2,0.2h-0.6c-0.1,0-0.2-0.1-0.2-0.2l-0.2-0.9c-0.8,0.9-2,1.4-3.4,1.4
		c-2.7,0-4.6-1.9-4.6-4.7v-10.7c0-2.8,1.5-4.7,4.4-4.7c2.9,0,4.4,1.9,4.4,4.7v1.8c0,0.2-0.1,0.3-0.3,0.3h-1.6
		c-0.2,0-0.3-0.2-0.3-0.3v-1.8c0-1.9-0.9-2.5-2.2-2.5c-1.3,0-2.2,0.7-2.2,2.5v10.7c0,1.9,1.1,2.5,2.3,2.5c1.3,0,2.4-0.7,2.4-2.5
		v-2.8H209c-0.2,0-0.3-0.1-0.3-0.3v-1.5c0-0.2,0.1-0.3,0.3-0.3h3.2C212.5,272.3,212.6,272.4,212.6,272.6z"/>
	<path fill="#353535" d="M218.8,264.3v15.1h1.5c0.2,0,0.3,0.2,0.3,0.3v1.6c0,0.2-0.1,0.3-0.3,0.3h-5.1c-0.2,0-0.3-0.1-0.3-0.3v-1.6
		c0-0.1,0.1-0.3,0.3-0.3h1.5v-15.1h-1.5c-0.2,0-0.3-0.1-0.3-0.3v-1.6c0-0.2,0.1-0.3,0.3-0.3h5.1c0.2,0,0.3,0.1,0.3,0.3v1.6
		c0,0.2-0.1,0.3-0.3,0.3H218.8z"/>
	<path fill="#353535" d="M232.8,279.9v1.4c0,0.2-0.1,0.2-0.3,0.2c-2.6,0-2.9-2-2.9-5.2c0-2.5-0.6-3.3-2.8-3.3h-1.4v8.1
		c0,0.2-0.1,0.3-0.3,0.3h-1.5c-0.2,0-0.3-0.2-0.3-0.3v-18.8c0-0.2,0.1-0.3,0.3-0.3h3.3c3.2,0,5.3,1.7,5.3,5.5c0,2.3-0.8,3.8-2.4,4.2
		c1.9,0.4,2,2.2,2,3.7c0,0.2,0,1.7,0,1.9c0,1.9,0.5,2,0.8,2C232.6,279.5,232.8,279.7,232.8,279.9z M225.4,270.9h1.5
		c2.5,0,3-1.5,3-3.3c0-1.5-0.5-3.3-3-3.3h-1.5V270.9z"/>
	<path fill="#353535" d="M237.2,279.4h5.5c0.2,0,0.3,0.1,0.3,0.3v1.6c0,0.2-0.1,0.3-0.3,0.3h-7.5c-0.2,0-0.3-0.2-0.3-0.3v-18.8
		c0-0.2,0.1-0.3,0.3-0.3h1.6c0.2,0,0.3,0.2,0.3,0.3V279.4z"/>
	<path fill="#353535" d="M253.8,275.6c0,0.5,0,1.9,0,1.9c0,2.7-1.9,4.4-4.4,4.4c-2.7,0-4.6-2-4.6-4.8v-1.8c0-0.1,0.1-0.3,0.3-0.3
		h1.6c0.2,0,0.3,0.2,0.3,0.3v2.2c0,1.7,1.1,2.4,2.4,2.4c1.6,0,2.2-1,2.2-2.4v-1.6c0-1.1-0.4-1.7-1.9-3.1l-2.3-2.2
		c-1.2-1.2-2.2-2.9-2.2-4.3c0-2.8,1.6-4.6,4.3-4.6c2.7,0,4.4,1.9,4.4,4.7v1.6c0,0.1-0.1,0.3-0.3,0.3h-1.6c-0.1,0-0.3-0.1-0.3-0.3
		v-1.8c0-1.8-0.9-2.5-2.2-2.5c-1.3,0-2,0.8-2,2.5c0,0.4,0.1,1.4,1.7,2.9c0.5,0.5,2.9,2.8,2.9,2.8
		C253.7,273.4,253.8,274.9,253.8,275.6z"/>
</g>
<g>
	
		<circle fill="none" stroke="#353535" stroke-width="4" stroke-linecap="round" stroke-linejoin="round" stroke-miterlimit="10" cx="146.3" cy="275" r="140.3"/>
	
		<line fill="none" stroke="#353535" stroke-width="2" stroke-linecap="round" stroke-linejoin="round" stroke-miterlimit="10" x1="231.7" y1="386.4" x2="145.1" y2="274.5"/>
	
		<polyline fill="none" stroke="#353535" stroke-width="2" stroke-linecap="round" stroke-linejoin="round" stroke-miterlimit="10" points="
		62.6,387.1 145.5,275 188.1,140.4 	"/>
</g>
<g>
	<path fill="#353535" d="M128.4,363.3v2c0,2.5-1.7,4.7-4.5,4.7c-2.7,0-4.4-1.9-4.4-4.3v-10.6c0-3.2,1.6-5.1,4.3-5.1
		c2.7,0,4.5,1.9,4.5,4.7v1.5c0,0.2-0.2,0.3-0.3,0.3h-1.7c-0.2,0-0.3-0.1-0.3-0.3v-1.7c0-1.3-0.5-2.4-2.1-2.4c-1.5,0-2.1,1.1-2.1,2.4
		v5.1c0.6-1,1.6-1,2.4-1C126.3,358.6,128.4,360.4,128.4,363.3z M121.7,363.3v2.4c0,1.6,0.9,2.4,2.2,2.4s2.2-1,2.2-2.4v-2.4
		c0-1.8-0.9-2.5-2.2-2.5C122.7,360.8,121.7,361.5,121.7,363.3z"/>
	<path fill="#353535" d="M144.6,356c0,3.5-2.1,5.5-5.3,5.5h-1.4v7.9c0,0.2-0.1,0.3-0.3,0.3h-1.5c-0.2,0-0.3-0.2-0.3-0.3v-18.8
		c0-0.2,0.1-0.3,0.3-0.3h3.3C142.4,350.3,144.6,352.1,144.6,356z M142.3,355.9c0-1.5-0.5-3.4-3-3.4h-1.5v6.8h1.5
		C141.9,359.3,142.3,357.7,142.3,355.9z"/>
	<path fill="#353535" d="M149,352.5v6h3.8c0.2,0,0.3,0.1,0.3,0.3v1.4c0,0.2-0.2,0.3-0.3,0.3H149v7h5.5c0.2,0,0.3,0.1,0.3,0.3v1.5
		c0,0.2-0.2,0.3-0.3,0.3H147c-0.2,0-0.3-0.2-0.3-0.3v-18.8c0-0.2,0.2-0.3,0.3-0.3h7.5c0.2,0,0.3,0.2,0.3,0.3v1.5
		c0,0.2-0.2,0.3-0.3,0.3H149z"/>
	<path fill="#353535" d="M164.9,350.6v1.5c0,0.2-0.2,0.3-0.3,0.3h-2.8v16.9c0,0.2-0.2,0.3-0.3,0.3h-1.6c-0.2,0-0.3-0.2-0.3-0.3
		v-16.9h-2.8c-0.2,0-0.3-0.2-0.3-0.3v-1.5c0-0.2,0.1-0.3,0.3-0.3h7.9C164.7,350.3,164.9,350.5,164.9,350.6z"/>
	<path fill="#353535" d="M175.4,363.8c0,0.5,0,1.9,0,1.9c0,2.7-2,4.4-4.4,4.4c-2.7,0-4.6-2-4.6-4.8v-1.8c0-0.1,0.1-0.3,0.3-0.3h1.6
		c0.2,0,0.3,0.2,0.3,0.3v2.2c0,1.7,1.1,2.4,2.4,2.4c1.6,0,2.2-1,2.2-2.4v-1.6c0-1.1-0.4-1.7-1.9-3.1l-2.3-2.2
		c-1.2-1.2-2.2-2.9-2.2-4.3c0-2.8,1.6-4.6,4.3-4.6c2.7,0,4.4,1.9,4.4,4.7v1.6c0,0.1-0.1,0.3-0.3,0.3h-1.7c-0.1,0-0.3-0.1-0.3-0.3
		v-1.8c0-1.8-0.9-2.5-2.2-2.5c-1.3,0-2,0.8-2,2.5c0,0.4,0.1,1.4,1.7,2.9c0.5,0.5,2.9,2.8,2.9,2.8
		C175.3,361.6,175.4,363.1,175.4,363.8z"/>
</g>
<g>
	<g>
		<path fill="#353535" d="M74.7,480.7l1.3-0.5c0.6,1.6,1.5,2.2,2.8,2.2c1.6,0,2.6-1,2.6-2.6c0-1.9-1-2.8-3.4-2.8h-0.5v-1.2h0.8
			c2,0,2.8-0.9,2.8-2.5c0-1.2-0.6-2.1-2.1-2.1c-1.1,0-2,0.6-2.6,1.5l-1.1-0.7c0.9-1.3,2.2-2.1,3.8-2.1c2.4,0,3.4,1.5,3.4,3.3
			c0,1.7-1,2.8-2.2,3.2c1.5,0.5,2.5,1.5,2.5,3.5c0,2.2-1.6,3.8-4,3.8C76.7,483.6,75.4,482.5,74.7,480.7z"/>
		<path fill="#353535" d="M88.6,470.1h6.7v1.4h-5.2v4.3h3.8v1.4h-3.8v6.3h-1.5V470.1z"/>
		<path fill="#353535" d="M97.1,470.4h1.5v1.6h-1.5V470.4z M97.1,473.9h1.5v9.5h-1.5V473.9z"/>
		<path fill="#353535" d="M100.2,481.6l1-0.7c0.6,1,1.6,1.5,2.6,1.5c1.2,0,1.9-0.5,1.9-1.4c0-2.3-5-1.4-5-4.8c0-1.5,1.2-2.6,3-2.6
			c1.4,0,2.4,0.7,3.1,1.7l-1,0.8c-0.5-0.7-1.2-1.3-2.2-1.3c-1.1,0-1.6,0.5-1.6,1.3c0,2.4,4.9,1.3,4.9,4.8c0,1.7-1.5,2.7-3.3,2.7
			C102.1,483.6,100.9,482.8,100.2,481.6z"/>
		<path fill="#353535" d="M108.8,470.1h1.5v5.1c0.6-0.7,1.8-1.5,3-1.5c1.5,0,2.3,0.9,2.3,2.6v7.1h-1.4v-6.8c0-1.1-0.4-1.7-1.4-1.7
			c-0.9,0-1.9,0.7-2.6,1.4v7.1h-1.5V470.1z"/>
		<path fill="#353535" d="M118.6,483.4H118v-1.9h1.7v1.7l-0.8,2h-0.7L118.6,483.4z"/>
		<path fill="#353535" d="M125.2,483.1c0-5.8,6-5.7,6-9.7c0-1.4-0.7-2.3-2.1-2.3c-1.2,0-2,0.8-2.6,2.2l-1.2-0.5c0.8-1.9,2-3,3.9-3
			c2.2,0,3.4,1.4,3.4,3.5c0,4.4-5.9,5.1-5.9,8.7h5.9v1.3h-7.5V483.1z"/>
		<path fill="#353535" d="M138.6,470.1h2.9c3.7,0,5.7,2,5.7,6.6c0,4.7-2,6.7-5.7,6.7h-2.9V470.1z M141.7,482c2.7,0,3.9-1.6,3.9-5.3
			c0-3.7-1.3-5.3-4-5.3h-1.6V482H141.7z"/>
		<path fill="#353535" d="M148.7,478.6c0-3.3,1.6-5,3.8-5c2.1,0,3.7,1.7,3.7,5c0,3.3-1.6,5-3.7,5S148.7,481.9,148.7,478.6z
			 M154.7,478.6c0-2.1-0.7-3.7-2.3-3.7c-1.5,0-2.3,1.5-2.3,3.7c0,2.1,0.7,3.7,2.3,3.7C153.9,482.4,154.7,480.9,154.7,478.6z"/>
		<path fill="#353535" d="M165.3,473.8v1.4c-0.4,0-0.9,0.1-1.4,0.3c0.3,0.5,0.4,1.1,0.4,1.7c0,2.1-1.4,3.4-3.3,3.4
			c-0.5,0-0.9-0.1-1.3-0.2c-0.3,0.2-0.5,0.4-0.5,0.7c0,0.4,0.2,0.5,1.1,0.6l1.5,0.2c2.3,0.3,3.3,1,3.3,2.4c0,1.7-1.8,2.7-4.1,2.7
			c-2.7,0-3.7-0.9-3.7-2.3c0-1,0.6-1.7,1.5-2.1c-0.5-0.3-0.8-0.6-0.8-1.2c0-0.6,0.4-1.1,1-1.5c-0.8-0.6-1.3-1.6-1.3-2.8
			c0-2.1,1.4-3.4,3.3-3.4c1,0,1.8,0.3,2.4,1C163.9,474.2,164.7,473.9,165.3,473.8z M158.5,484.5c0,1,0.6,1.5,2.6,1.5
			c1.5,0,2.6-0.5,2.6-1.5c0-0.8-0.5-1.2-2.1-1.4l-1.5-0.2c-0.1,0-0.2,0-0.3,0C158.9,483.2,158.5,483.9,158.5,484.5z M162.9,477.1
			c0-1.4-0.7-2.3-1.9-2.3c-1.2,0-1.9,0.9-1.9,2.3c0,1.4,0.7,2.3,1.9,2.3C162.2,479.4,162.9,478.5,162.9,477.1z"/>
		<path fill="#353535" d="M166.1,481.6l1-0.7c0.6,1,1.6,1.5,2.6,1.5c1.2,0,1.9-0.5,1.9-1.4c0-2.3-5-1.4-5-4.8c0-1.5,1.2-2.6,3-2.6
			c1.4,0,2.4,0.7,3.1,1.7l-1,0.8c-0.5-0.7-1.2-1.3-2.2-1.3c-1.1,0-1.6,0.5-1.6,1.3c0,2.4,4.9,1.3,4.9,4.8c0,1.7-1.5,2.7-3.3,2.7
			C168,483.6,166.9,482.8,166.1,481.6z"/>
		<path fill="#353535" d="M175.5,483.4h-0.7v-1.9h1.7v1.7l-0.8,2H175L175.5,483.4z"/>
		<path fill="#353535" d="M182.3,482.1h2.1v-10.4c-0.6,0.3-1.4,0.6-2.1,0.6v-1.3c0.9,0,1.7-0.3,2.2-0.9h1.4v12h1.9v1.3h-5.5V482.1z"
			/>
		<path fill="#353535" d="M193.2,470.1h3.7c2.4,0,4.1,1.1,4.1,3.8c0,3-1.9,4-4.2,4h-2.1v5.6h-1.5V470.1z M196.9,476.5
			c1.8,0,2.7-0.7,2.7-2.6c0-1.8-0.9-2.5-2.7-2.5h-2.2v5.1H196.9z"/>
		<path fill="#353535" d="M203.1,470.4h1.5v1.6h-1.5V470.4z M203.1,473.9h1.5v9.5h-1.5V473.9z"/>
		<path fill="#353535" d="M214.2,473.8v1.4c-0.4,0-0.9,0.1-1.4,0.3c0.3,0.5,0.4,1.1,0.4,1.7c0,2.1-1.4,3.4-3.3,3.4
			c-0.5,0-0.9-0.1-1.3-0.2c-0.3,0.2-0.5,0.4-0.5,0.7c0,0.4,0.2,0.5,1.1,0.6l1.5,0.2c2.3,0.3,3.3,1,3.3,2.4c0,1.7-1.8,2.7-4.1,2.7
			c-2.7,0-3.7-0.9-3.7-2.3c0-1,0.6-1.7,1.5-2.1c-0.5-0.3-0.8-0.6-0.8-1.2c0-0.6,0.4-1.1,1-1.5c-0.8-0.6-1.3-1.6-1.3-2.8
			c0-2.1,1.4-3.4,3.3-3.4c1,0,1.8,0.3,2.4,1C212.8,474.2,213.6,473.9,214.2,473.8z M207.4,484.5c0,1,0.6,1.5,2.6,1.5
			c1.5,0,2.6-0.5,2.6-1.5c0-0.8-0.5-1.2-2.1-1.4l-1.5-0.2c-0.1,0-0.2,0-0.3,0C207.8,483.2,207.4,483.9,207.4,484.5z M211.8,477.1
			c0-1.4-0.7-2.3-1.9-2.3c-1.2,0-1.9,0.9-1.9,2.3c0,1.4,0.7,2.3,1.9,2.3C211.1,479.4,211.8,478.5,211.8,477.1z"/>
	</g>
</g>
<line fill="none" stroke="#353535" stroke-width="3" stroke-linecap="round" stroke-linejoin="round" stroke-miterlimit="10" x1="146.6" y1="403.4" x2="146.6" y2="444.4"/>
<circle fill="#353535" cx="146.6" cy="403.1" r="4.1"/>
<line fill="none" stroke="#353535" stroke-width="3" stroke-linecap="round" stroke-linejoin="round" stroke-miterlimit="10" x1="139.9" y1="444.9" x2="153.2" y2="444.9"/>
</svg>
