<?xml version="1.0" encoding="utf-8"?>
<!-- Generator: Adobe Illustrator 17.1.0, SVG Export Plug-In . SVG Version: 6.00 Build 0)  -->
<!DOCTYPE svg PUBLIC "-//W3C//DTD SVG 1.1//EN" "http://www.w3.org/Graphics/SVG/1.1/DTD/svg11.dtd">
<svg version="1.1" id="Layer_1" xmlns="http://www.w3.org/2000/svg" xmlns:xlink="http://www.w3.org/1999/xlink" x="0px" y="0px"
	 viewBox="0 0 326.4 326.4" enable-background="new 0 0 326.4 326.4" xml:space="preserve">
<g>
	<g>
		<path fill="#FFFFFF" d="M163.2,52.6c-61,0-110.6,49.6-110.6,110.6c0,61,49.6,110.6,110.6,110.6c61,0,110.6-49.6,110.6-110.6
			C273.8,102.2,224.2,52.6,163.2,52.6z M163.2,264.8c-56,0-101.6-45.6-101.6-101.6S107.2,61.7,163.2,61.7
			c56,0,101.6,45.6,101.6,101.6S219.2,264.8,163.2,264.8z"/>
		<path fill="#FFFFFF" d="M234.7,162.5c0-0.2-0.1-0.3-0.1-0.4c0-0.1,0-0.1-0.1-0.2c-0.1-0.2-0.2-0.4-0.2-0.5c0,0,0-0.1-0.1-0.1
			c0-0.1-0.1-0.2-0.1-0.2c0.4,0.6-48.6-67-48.6-67c-0.5-0.6-1.2-1.1-2-1.3c0,0-0.1,0-0.1,0c-0.2,0-0.4-0.1-0.6-0.1
			c-0.1,0-0.2,0-0.3,0c-0.1,0-0.3,0-0.4,0c-0.1,0-0.3,0-0.4,0.1c-0.1,0-0.2,0-0.3,0.1c-0.1,0-0.1,0-0.2,0
			c0.7-0.2-78.6,25.9-78.6,25.9c0,0-0.1,0.1-0.1,0.1c-0.2,0.1-0.4,0.2-0.6,0.4c-0.1,0.1-0.3,0.2-0.4,0.3c0,0,0,0-0.1,0
			c-0.2,0.2-0.4,0.5-0.6,0.7c-0.1,0.1-0.1,0.1-0.2,0.2c-0.1,0.1-0.1,0.3-0.2,0.5c0,0.1-0.1,0.2-0.1,0.3c0,0.1-0.1,0.3-0.2,0.4
			c0,0,0,0,0,0c0,0,0,0.1,0,0.1c0,0.2-0.1,0.3-0.1,0.5v0.2c0,0,0,0,0,0c0,0.1,0,82.3,0,82.3c0,0,0,0,0,0v0.1c0,0.2,0.1,0.4,0.1,0.6
			c0,0,0,0,0,0.1c0,0.1,0.1,0.3,0.1,0.4c0.1,0.1,0.1,0.3,0.2,0.4l0.1,0.2c0.2,0.3,0.4,0.5,0.6,0.7c0.1,0.1,0.1,0.1,0.2,0.2
			c0.2,0.2,0.5,0.3,0.7,0.5c0.1,0,0.2,0.1,0.2,0.1c0.1,0.1,0.3,0.1,0.4,0.2c0.1,0,0.3,0.1,0.4,0.1c0.1,0,0.1,0.1,0.2,0.1
			c7.7,2.5,70.4,23.1,77.2,25.3c0.4,0.2,0.9,0.3,1.3,0.3c0,0,0,0,0.1,0c0.2,0,0.3,0,0.4,0c0.2,0,0.3,0,0.5,0h0c1.3-0.2,2.4-1,3-2.2
			c5.1-7.1,48.1-66.3,48.1-66.3c0.4-0.7,0.6-1.5,0.6-2.2c0-0.1,0-0.2,0-0.3C234.7,162.7,234.7,162.6,234.7,162.5z M108.2,197.1
			l0-44.9c0-9,0-17.2,0-22.8l58,33.9L108.2,197.1z M119,200.2c17.4-10.2,47.2-27.5,55.7-32.5c0.7-0.4,1.3-0.8,1.7-1c0,0,0,0,0,0
			c1.1-0.7,1.8-2,1.8-3.4c0-1.3-0.6-2.4-1.5-3.2c0,0-0.1-0.1-0.2-0.1c-0.1-0.1-0.2-0.1-0.3-0.2c-0.1,0-0.1-0.1-0.2-0.1
			c-8.6-5-39.7-23.2-57.1-33.4c19.4,0,56.5,0,63.1,0c0,14,0,69.1,0,73.8C179,200.2,138.9,200.2,119,200.2z M180.9,225.1l-51.4-16.8
			c24.1,0,56.7,0,56.7,0c2.1,0,3.8-1.6,4-3.7c0,0,0-82.2,0-82.3c0-2.1-1.6-3.8-3.7-4h-57.5l51.8-17.1l44.9,61.9L180.9,225.1z"/>
	</g>
</g>
<g>
	<path fill="none" stroke="#353535" stroke-width="6" stroke-linecap="round" stroke-linejoin="round" stroke-miterlimit="10" d="
		M3,163.2c0,88.5,71.7,160.2,160.2,160.2s160.2-71.7,160.2-160.2S251.7,3,163.2,3C110.8,3,64.3,28.2,35,67.1"/>
</g>
<polyline fill="none" stroke="#353535" stroke-width="6" stroke-linecap="round" stroke-linejoin="round" stroke-miterlimit="10" points="
	34.2,39.6 34.2,67.5 62,67.5 "/>
</svg>
