<?xml version="1.0" encoding="utf-8"?>
<!-- Generator: Adobe Illustrator 17.1.0, SVG Export Plug-In . SVG Version: 6.00 Build 0)  -->
<!DOCTYPE svg PUBLIC "-//W3C//DTD SVG 1.1//EN" "http://www.w3.org/Graphics/SVG/1.1/DTD/svg11.dtd">
<svg version="1.1" id="Layer_1" xmlns="http://www.w3.org/2000/svg" xmlns:xlink="http://www.w3.org/1999/xlink" x="0px" y="0px"
	 viewBox="0 0 282 91.1" enable-background="new 0 0 282 91.1" xml:space="preserve">
<g>
	<g>
		<path fill="#3DAFFC" d="M93.6,47v2.4H86V38.2h2.8V47H93.6z"/>
		<path fill="#3DAFFC" d="M107.9,43.8c0,3.3-2.6,5.7-6.1,5.7c-3.5,0-6.1-2.5-6.1-5.7c0-3.3,2.6-5.7,6.1-5.7
			C105.3,38.1,107.9,40.5,107.9,43.8z M98.7,43.8c0,1.9,1.5,3.3,3.2,3.3c1.7,0,3.1-1.5,3.1-3.3c0-1.9-1.4-3.3-3.1-3.3
			C100.1,40.5,98.7,41.9,98.7,43.8z"/>
		<path fill="#3DAFFC" d="M120.6,40l-1.6,2c-0.7-0.9-1.8-1.5-2.8-1.5c-1.8,0-3.1,1.4-3.1,3.2c0,1.9,1.3,3.3,3.1,3.3
			c0.9,0,2-0.5,2.8-1.3l1.7,1.8c-1.2,1.2-3,2-4.6,2c-3.4,0-5.9-2.5-5.9-5.8c0-3.2,2.6-5.7,6-5.7C117.7,38.1,119.4,38.8,120.6,40z"/>
		<path fill="#3DAFFC" d="M125.9,47.3l-0.8,2.1h-2.9l4.8-11.2h2.9l4.7,11.2h-3l-0.8-2.1H125.9z M128.4,41l-1.6,4.1h3.2L128.4,41z"/>
		<path fill="#3DAFFC" d="M144.9,47v2.4h-7.6V38.2h2.8V47H144.9z"/>
		<path fill="#3DAFFC" d="M160.7,47v2.4h-7.6V38.2h2.8V47H160.7z"/>
		<path fill="#3DAFFC" d="M175.1,43.8c0,3.3-2.6,5.7-6.1,5.7c-3.5,0-6.1-2.5-6.1-5.7c0-3.3,2.6-5.7,6.1-5.7
			C172.5,38.1,175.1,40.5,175.1,43.8z M165.9,43.8c0,1.9,1.5,3.3,3.2,3.3c1.7,0,3.1-1.5,3.1-3.3c0-1.9-1.4-3.3-3.1-3.3
			C167.3,40.5,165.9,41.9,165.9,43.8z"/>
		<path fill="#3DAFFC" d="M181.2,49.4l-4.4-11.2h3l2.9,8.2l2.9-8.2h2.9l-4.4,11.2H181.2z"/>
		<path fill="#3DAFFC" d="M194.1,40.4v2.2h5.3v2.2h-5.3v2.3h6.1v2.2h-8.9V38.2h8.8v2.2H194.1z"/>
	</g>
</g>
<g>
	<g>
		<path fill="#3DAFFC" d="M277.5,2c1.4,0,2.5,1.1,2.5,2.5v71.8c0,1.4-1.1,2.5-2.5,2.5H158.7c-3,0-7,1.7-9.2,3.8l-5.6,5.6
			c-0.5,0.5-1.1,0.7-1.8,0.7c-0.7,0-1.3-0.3-1.8-0.7l-5.6-5.6c-2.1-2.1-6.2-3.8-9.2-3.8H4.5c-1.4,0-2.5-1.1-2.5-2.5V4.5
			C2,3.1,3.1,2,4.5,2H277.5 M277.5,0H4.5C2,0,0,2,0,4.5v71.8c0,2.5,2,4.5,4.5,4.5h121c2.5,0,6,1.4,7.8,3.2l5.6,5.6
			c0.9,0.9,2.1,1.3,3.2,1.3s2.3-0.4,3.2-1.3l5.6-5.6c1.8-1.8,5.3-3.2,7.8-3.2h118.8c2.5,0,4.5-2,4.5-4.5V4.5C282,2,280,0,277.5,0
			L277.5,0z"/>
	</g>
</g>
</svg>
