<?xml version="1.0" encoding="utf-8"?>
<!-- Generator: Adobe Illustrator 17.1.0, SVG Export Plug-In . SVG Version: 6.00 Build 0)  -->
<!DOCTYPE svg PUBLIC "-//W3C//DTD SVG 1.1//EN" "http://www.w3.org/Graphics/SVG/1.1/DTD/svg11.dtd">
<svg version="1.1" id="Layer_1" xmlns="http://www.w3.org/2000/svg" xmlns:xlink="http://www.w3.org/1999/xlink" x="0px" y="0px"
	 viewBox="0 0 283.7 438.3" enable-background="new 0 0 283.7 438.3" xml:space="preserve">
<line fill="none" stroke="#00E8A6" stroke-linecap="round" stroke-linejoin="round" stroke-miterlimit="10" stroke-dasharray="1,6" x1="0.5" y1="104.3" x2="282.9" y2="104.3"/>
<line fill="none" stroke="#00E8A6" stroke-linecap="round" stroke-linejoin="round" stroke-miterlimit="10" stroke-dasharray="1,6" x1="0.5" y1="219.7" x2="282.9" y2="219.7"/>
<line fill="none" stroke="#00E8A6" stroke-linecap="round" stroke-linejoin="round" stroke-miterlimit="10" stroke-dasharray="1,6" x1="0.5" y1="334.9" x2="282.9" y2="334.9"/>
<g>
	
		<path fill-rule="evenodd" clip-rule="evenodd" fill="none" stroke="#3DAFFC" stroke-width="2" stroke-linecap="round" stroke-linejoin="round" stroke-miterlimit="10" d="
		M211.5,15.3c-1.7,0-3.1,1.4-3.1,3.1v7.2c0,9.3,5.6,17.3,13.7,20.7l0,0c0,2.1,1.7,3.8,3.8,3.8h15.1c2.1,0,3.8-1.7,3.8-3.8v-0.5
		c7.4-3.7,12.6-11.3,12.6-20.2v-7.2c0-1.7-1.4-3.1-3.1-3.1H211.5z"/>
	
		<path fill-rule="evenodd" clip-rule="evenodd" fill="none" stroke="#3DAFFC" stroke-width="2" stroke-linecap="round" stroke-linejoin="round" stroke-miterlimit="10" d="
		M217.6,35.4c0.3,0.5,1.8,2.2,4,3.6"/>
	
		<path fill-rule="evenodd" clip-rule="evenodd" fill="none" stroke="#3DAFFC" stroke-width="2" stroke-linecap="round" stroke-linejoin="round" stroke-miterlimit="10" d="
		M214.2,25c0,2.3,0.2,4.8,1.2,6.7"/>
	
		<path fill-rule="evenodd" clip-rule="evenodd" fill="none" stroke="#3DAFFC" stroke-width="2" stroke-linecap="round" stroke-linejoin="round" stroke-miterlimit="10" d="
		M257.5,21.4h4.6c3.1,0,5.6,2.5,5.6,5.6l0,0c0,3.1-2.5,5.6-5.6,5.6l0,0c-1,0-1.9,0.4-2.6,1.1l-7.1,6.1"/>
	<path fill="none" stroke="#3DAFFC" stroke-width="2" stroke-linecap="round" stroke-linejoin="round" stroke-miterlimit="10" d="
		M220.7,1c-2.6,2.7,2.5,5.6,0,8.2"/>
	<path fill="none" stroke="#3DAFFC" stroke-width="2" stroke-linecap="round" stroke-linejoin="round" stroke-miterlimit="10" d="
		M233.3,1c-2.6,2.7,2.5,5.6,0,8.2"/>
	<path fill="none" stroke="#3DAFFC" stroke-width="2" stroke-linecap="round" stroke-linejoin="round" stroke-miterlimit="10" d="
		M245.8,1c-2.6,2.7,2.5,5.6,0,8.2"/>
</g>
<g>
	<path fill="#3DAFFC" d="M0.7,13.1h1.5l2,7.2c0.4,1.5,0.8,2.8,1.1,4.1h0c0.3-1.3,0.7-2.5,1.1-4l2-7.2h1.4L6,26.5H4.6L0.7,13.1z"/>
	<path fill="#3DAFFC" d="M10.9,24.2c0-1.9,1.6-3.3,5.3-4v-0.6c0-1.1-0.5-1.6-1.4-1.6c-1.2,0-2.1,0.6-2.8,1.3l-0.8-0.9
		c1-1,2.3-1.7,3.8-1.7c1.9,0,2.7,1,2.7,2.9v4.5c0,1.2,0.1,1.9,0.2,2.3h-1.5c-0.1-0.4-0.2-0.7-0.2-1.2c-0.8,0.8-1.8,1.4-3,1.4
		C11.8,26.5,10.9,25.7,10.9,24.2z M16.3,24.1v-2.9c-2.9,0.6-3.9,1.6-3.9,2.8c0,1,0.5,1.4,1.3,1.4C14.7,25.4,15.6,24.8,16.3,24.1z"/>
	<path fill="#3DAFFC" d="M27.2,16.8v1.4c-0.4,0-0.9,0.1-1.4,0.3c0.3,0.5,0.4,1.1,0.4,1.7c0,2.1-1.4,3.4-3.3,3.4
		c-0.5,0-0.9-0.1-1.3-0.2c-0.3,0.2-0.5,0.4-0.5,0.7c0,0.4,0.2,0.5,1.1,0.6l1.5,0.2c2.3,0.3,3.3,1,3.3,2.4c0,1.7-1.8,2.7-4.1,2.7
		c-2.7,0-3.7-0.9-3.7-2.3c0-1,0.6-1.7,1.5-2.1c-0.5-0.3-0.8-0.6-0.8-1.2c0-0.6,0.4-1.1,1-1.5c-0.8-0.6-1.3-1.6-1.3-2.8
		c0-2.1,1.4-3.4,3.3-3.4c1,0,1.8,0.3,2.4,1C25.8,17.2,26.6,16.9,27.2,16.8z M20.4,27.5c0,1,0.6,1.5,2.6,1.5c1.5,0,2.6-0.5,2.6-1.5
		c0-0.8-0.5-1.2-2.1-1.4l-1.5-0.2c-0.1,0-0.2,0-0.3,0C20.8,26.3,20.4,26.9,20.4,27.5z M24.8,20.2c0-1.4-0.7-2.3-1.9-2.3
		c-1.2,0-1.9,0.9-1.9,2.3c0,1.4,0.7,2.3,1.9,2.3C24.1,22.5,24.8,21.6,24.8,20.2z"/>
	<path fill="#3DAFFC" d="M28.3,24.2c0-1.9,1.6-3.3,5.3-4v-0.6c0-1.1-0.5-1.6-1.4-1.6c-1.2,0-2.1,0.6-2.8,1.3l-0.8-0.9
		c1-1,2.3-1.7,3.8-1.7c1.9,0,2.7,1,2.7,2.9v4.5c0,1.2,0.1,1.9,0.2,2.3h-1.5c-0.1-0.4-0.2-0.7-0.2-1.2c-0.8,0.8-1.8,1.4-3,1.4
		C29.1,26.5,28.3,25.7,28.3,24.2z M33.6,24.1v-2.9c-2.9,0.6-3.9,1.6-3.9,2.8c0,1,0.5,1.4,1.3,1.4C32,25.4,32.9,24.8,33.6,24.1z"/>
	<path fill="#3DAFFC" d="M38.7,25.3v1.1h-1.5V13.1h1.5v5c0.6-0.7,1.4-1.4,2.6-1.4c1.9,0,3.2,1.5,3.2,4.9c0,3.4-1.5,4.9-3.3,4.9
		C40.2,26.6,39.4,26.1,38.7,25.3z M43.1,21.7c0-2.5-0.9-3.7-2.1-3.7c-0.9,0-1.6,0.6-2.2,1.3v4.8c0.7,0.8,1.4,1.3,2.3,1.3
		C42.2,25.4,43.1,24.3,43.1,21.7z"/>
	<path fill="#3DAFFC" d="M46,21.7c0-3.3,1.6-5,3.8-5c2.1,0,3.7,1.7,3.7,5c0,3.3-1.6,5-3.7,5S46,24.9,46,21.7z M52,21.7
		c0-2.1-0.7-3.7-2.3-3.7c-1.5,0-2.3,1.5-2.3,3.7c0,2.1,0.7,3.7,2.3,3.7C51.2,25.4,52,23.9,52,21.7z"/>
	<path fill="#3DAFFC" d="M55.3,16.9h1.5v1.3c0.6-0.7,1.8-1.5,3-1.5c1.5,0,2.3,0.9,2.3,2.6v7.1h-1.4v-6.8c0-1.1-0.4-1.7-1.4-1.7
		c-0.9,0-1.9,0.7-2.6,1.4v7.1h-1.5V16.9z"/>
	<path fill="#3DAFFC" d="M63.9,21.7c0-3.4,1.4-5,3.3-5c1.1,0,1.9,0.5,2.6,1.3v-5h1.4v11c0,1.2,0.1,1.9,0.2,2.3H70
		c-0.1-0.3-0.2-0.9-0.2-1.2c-0.6,0.7-1.4,1.4-2.6,1.4C65.3,26.6,63.9,25.1,63.9,21.7z M69.8,24.1v-4.8c-0.7-0.8-1.4-1.3-2.3-1.3
		c-1.3,0-2.1,1.1-2.1,3.7c0,2.5,0.9,3.7,2.2,3.7C68.4,25.4,69.2,24.7,69.8,24.1z"/>
	<path fill="#3DAFFC" d="M1.1,49.7c0-4.4,1.9-6.9,4.8-6.9c2.5,0,3.7,1.7,4.1,4.2l-1.4,0.3c-0.4-2-1.2-3.1-2.8-3.1
		c-2.1,0-3.2,2.1-3.2,5.5c0,3.6,1.2,5.6,3.2,5.6c1.6,0,2.4-1,2.9-3.2l1.4,0.2c-0.5,2.6-1.8,4.4-4.3,4.4C2.9,56.7,1.1,54.3,1.1,49.7z
		"/>
	<path fill="#3DAFFC" d="M11.9,43.1h1.5v5.1c0.6-0.7,1.8-1.5,3-1.5c1.5,0,2.3,0.9,2.3,2.6v7.1h-1.4v-6.8c0-1.1-0.4-1.7-1.4-1.7
		c-0.9,0-1.9,0.7-2.6,1.4v7.1h-1.5V43.1z"/>
	<path fill="#3DAFFC" d="M20.5,54.2c0-1.9,1.6-3.3,5.3-4v-0.6c0-1.1-0.5-1.6-1.4-1.6c-1.2,0-2.1,0.6-2.8,1.3l-0.8-0.9
		c1-1,2.3-1.7,3.8-1.7c1.9,0,2.7,1,2.7,2.9v4.5c0,1.2,0.1,1.9,0.2,2.3H26c-0.1-0.4-0.2-0.7-0.2-1.2c-0.8,0.8-1.8,1.4-3,1.4
		C21.3,56.5,20.5,55.7,20.5,54.2z M25.8,54.1v-2.9c-2.9,0.6-3.9,1.6-3.9,2.8c0,1,0.5,1.4,1.3,1.4C24.2,55.4,25.1,54.8,25.8,54.1z"/>
	<path fill="#3DAFFC" d="M29.4,46.9h1.5v1.3c0.7-0.7,1.7-1.5,2.9-1.5c1.3,0,1.9,0.5,2.2,1.5c0.7-0.8,1.7-1.5,3-1.5
		c1.5,0,2.3,0.9,2.3,2.6v7.1h-1.4v-6.8c0-1.1-0.4-1.7-1.3-1.7c-0.9,0-1.7,0.6-2.4,1.3v7.1h-1.5v-6.8c0-1.1-0.3-1.7-1.3-1.7
		c-0.8,0-1.6,0.6-2.4,1.4v7.1h-1.5V46.9z"/>
	<path fill="#3DAFFC" d="M44.9,55.3v1.1h-1.5V43.1h1.5v5c0.6-0.7,1.4-1.4,2.6-1.4c1.9,0,3.2,1.5,3.2,4.9c0,3.4-1.5,4.9-3.3,4.9
		C46.3,56.6,45.6,56.1,44.9,55.3z M49.3,51.7c0-2.5-0.9-3.7-2.1-3.7c-0.9,0-1.6,0.6-2.2,1.3v4.8c0.7,0.8,1.4,1.3,2.3,1.3
		C48.4,55.4,49.3,54.3,49.3,51.7z"/>
	<path fill="#3DAFFC" d="M52.7,43.1h1.5v13.3h-1.5V43.1z"/>
	<path fill="#3DAFFC" d="M56.7,43.5h1.5V45h-1.5V43.5z M56.7,46.9h1.5v9.5h-1.5V46.9z"/>
	<path fill="#3DAFFC" d="M60.5,46.9H62v1.3c0.6-0.7,1.8-1.5,3-1.5c1.5,0,2.3,0.9,2.3,2.6v7.1h-1.4v-6.8c0-1.1-0.4-1.7-1.4-1.7
		c-0.9,0-1.9,0.7-2.6,1.4v7.1h-1.5V46.9z"/>
	<path fill="#3DAFFC" d="M70.3,45h-0.6v-1.9h1.7v1.7l-0.8,2h-0.7L70.3,45z"/>
	<path fill="#3DAFFC" d="M73.1,54.7l1-0.7c0.6,1,1.6,1.5,2.6,1.5c1.2,0,1.9-0.5,1.9-1.4c0-2.3-5-1.4-5-4.8c0-1.5,1.2-2.6,3-2.6
		c1.4,0,2.4,0.7,3.1,1.7l-1,0.8c-0.5-0.7-1.2-1.3-2.2-1.3c-1.1,0-1.6,0.5-1.6,1.3c0,2.4,4.9,1.3,4.9,4.8c0,1.7-1.5,2.7-3.3,2.7
		C75,56.6,73.8,55.9,73.1,54.7z"/>
	<path fill="#3DAFFC" d="M1.6,73.1h3.9c2.5,0,4,1.1,4,3.3c0,1.9-1,2.7-2.1,3v0c1.4,0.3,2.5,1.2,2.5,3.3c0,2.3-1.5,3.6-4.1,3.6H1.6
		V73.1z M5.4,79C7.1,79,8,78.3,8,76.7s-0.8-2.3-2.6-2.3H3.1V79H5.4z M5.8,85.1c1.8,0,2.6-0.8,2.6-2.4c0-1.8-1.1-2.4-2.9-2.4H3.1v4.9
		H5.8z"/>
	<path fill="#3DAFFC" d="M12,73.1h3.8c2.6,0,4.1,1.2,4.1,3.8c0,2.1-1.2,3.2-2.5,3.6l2.7,5.9h-1.5l-2.6-5.7h-2.4v5.7H12V73.1z
		 M15.7,79.5c1.8,0,2.7-0.7,2.7-2.6c0-1.8-0.9-2.4-2.7-2.4h-2.2v5H15.7z"/>
	<path fill="#3DAFFC" d="M22.3,73.1h6.8v1.4h-5.3v4.2h3.9v1.4h-3.9v5h5.6v1.4h-7.1V73.1z"/>
	<path fill="#3DAFFC" d="M30.6,73.1h1.4l1.4,6.8c0.3,1.4,0.5,2.3,0.8,3.9h0c0.3-1.6,0.5-2.5,0.8-3.9l1.4-6.8h1.4l1.4,7
		c0.3,1.4,0.5,2.3,0.7,3.8h0c0.2-1.3,0.5-2.4,0.7-3.8l1.5-7h1.4l-3,13.4h-1.3l-2.2-10.7h0l-2.2,10.7h-1.3L30.6,73.1z"/>
</g>
<g>
	<path fill="#3DAFFC" d="M206.7,77.2l-1.6,2c-0.7-0.9-1.8-1.5-2.8-1.5c-1.8,0-3.1,1.4-3.1,3.2c0,1.9,1.3,3.3,3.1,3.3
		c0.9,0,2-0.5,2.8-1.3l1.7,1.8c-1.2,1.2-3,2-4.6,2c-3.4,0-5.9-2.5-5.9-5.8c0-3.2,2.6-5.7,6-5.7C203.8,75.3,205.5,76.1,206.7,77.2z"
		/>
	<path fill="#3DAFFC" d="M220.8,81c0,3.3-2.6,5.7-6.1,5.7c-3.5,0-6.1-2.5-6.1-5.7c0-3.3,2.6-5.7,6.1-5.7
		C218.2,75.3,220.8,77.8,220.8,81z M211.6,81c0,1.9,1.5,3.3,3.2,3.3c1.7,0,3.1-1.5,3.1-3.3s-1.4-3.3-3.1-3.3
		C213,77.7,211.6,79.2,211.6,81z"/>
	<path fill="#3DAFFC" d="M226.7,77.7v2.6h5v2.2h-5v4.1h-2.8V75.4h8.3v2.2H226.7z"/>
	<path fill="#3DAFFC" d="M238,77.7v2.6h5v2.2h-5v4.1h-2.8V75.4h8.3v2.2H238z"/>
	<path fill="#3DAFFC" d="M249.2,77.7v2.2h5.3v2.2h-5.3v2.3h6.1v2.2h-8.9V75.4h8.8v2.2H249.2z"/>
	<path fill="#3DAFFC" d="M261.6,77.7v2.2h5.3v2.2h-5.3v2.3h6.1v2.2h-8.9V75.4h8.8v2.2H261.6z"/>
</g>
<g>
	<g>
		
			<path fill-rule="evenodd" clip-rule="evenodd" fill="none" stroke="#3DAFFC" stroke-width="2" stroke-linecap="round" stroke-linejoin="round" stroke-miterlimit="10" d="
			M206.8,154.1H205c-1.8,0-3.3-1.5-3.3-3.3v-1.6c0-1.8,1.5-3.3,3.3-3.3h5.4c0.5,0,0.8,0.2,1.2,0.5l4.7,4.7c0.8,0.8,2.1,0.8,2.8,0
			l4.7-4.7c0.3-0.3,0.7-0.5,1.2-0.5h32.9c1.8,0,3.3,1.5,3.3,3.3v1.6c0,1.8-1.5,3.3-3.3,3.3h-1.3"/>
		
			<line fill="none" stroke="#3DAFFC" stroke-width="2" stroke-linecap="round" stroke-linejoin="round" stroke-miterlimit="10" x1="224.2" y1="127.4" x2="224.2" y2="127.4"/>
		
			<line fill="none" stroke="#3DAFFC" stroke-width="2" stroke-linecap="round" stroke-linejoin="round" stroke-miterlimit="10" x1="238.6" y1="127.4" x2="238.6" y2="127.4"/>
		
			<line fill="none" stroke="#3DAFFC" stroke-width="2" stroke-linecap="round" stroke-linejoin="round" stroke-miterlimit="10" x1="248.9" y1="159.2" x2="248.9" y2="159.2"/>
		
			<line fill="none" stroke="#3DAFFC" stroke-width="2" stroke-linecap="round" stroke-linejoin="round" stroke-miterlimit="10" x1="232.5" y1="159.2" x2="232.5" y2="159.2"/>
		
			<line fill="none" stroke="#3DAFFC" stroke-width="2" stroke-linecap="round" stroke-linejoin="round" stroke-miterlimit="10" x1="214" y1="159.2" x2="214" y2="159.2"/>
		
			<line fill="none" stroke="#3DAFFC" stroke-width="2" stroke-linecap="round" stroke-linejoin="round" stroke-miterlimit="10" x1="231.4" y1="132.5" x2="231.4" y2="132.5"/>
		
			<line fill="none" stroke="#3DAFFC" stroke-width="2" stroke-linecap="round" stroke-linejoin="round" stroke-miterlimit="10" x1="215" y1="132.5" x2="215" y2="132.5"/>
		
			<line fill="none" stroke="#3DAFFC" stroke-width="2" stroke-linecap="round" stroke-linejoin="round" stroke-miterlimit="10" x1="246.8" y1="132.5" x2="246.8" y2="132.5"/>
		
			<path fill-rule="evenodd" clip-rule="evenodd" fill="none" stroke="#3DAFFC" stroke-width="2" stroke-linecap="round" stroke-linejoin="round" stroke-miterlimit="10" d="
			M231.4,122.3c-13.7,0-25,6.1-26.3,13.8c-0.1,0.4,0,0.8,0.3,1.1c0.3,0.3,0.6,0.5,1,0.5h50.1c0.4,0,0.7-0.2,1-0.5
			c0.3-0.3,0.3-0.7,0.3-1.1C256.4,128.3,245.1,122.3,231.4,122.3L231.4,122.3z"/>
		
			<path fill-rule="evenodd" clip-rule="evenodd" fill="none" stroke="#3DAFFC" stroke-width="2" stroke-linecap="round" stroke-linejoin="round" stroke-miterlimit="10" d="
			M257.9,155.4v2.4c0,3.6-3,6.6-6.6,6.6h-39.7c-3.6,0-6.6-3-6.6-6.6v-2.4c0-0.7,0.6-1.3,1.3-1.3h50.4
			C257.3,154.1,257.9,154.7,257.9,155.4L257.9,155.4z"/>
		
			<path fill-rule="evenodd" clip-rule="evenodd" fill="none" stroke="#3DAFFC" stroke-width="2" stroke-linecap="round" stroke-linejoin="round" stroke-miterlimit="10" d="
			M249.9,137.7c0,1.7-1.4,3.1-3.1,3.1c-1.7,0-3.1-1.4-3.1-3.1"/>
		
			<path fill-rule="evenodd" clip-rule="evenodd" fill="none" stroke="#3DAFFC" stroke-width="2" stroke-linecap="round" stroke-linejoin="round" stroke-miterlimit="10" d="
			M252.1,145.9c1.6,0,3-1.3,3-3v-2.3c0-1.6-1.3-3-3-3"/>
		
			<path fill-rule="evenodd" clip-rule="evenodd" fill="none" stroke="#3DAFFC" stroke-width="2" stroke-linecap="round" stroke-linejoin="round" stroke-miterlimit="10" d="
			M226.3,145.9c0-2.3,1.8-4.1,4.1-4.1c2.3,0,4.1,1.8,4.1,4.1"/>
		
			<path fill-rule="evenodd" clip-rule="evenodd" fill="none" stroke="#3DAFFC" stroke-width="2" stroke-linecap="round" stroke-linejoin="round" stroke-miterlimit="10" d="
			M210.8,137.7c-1.6,0-3,1.3-3,3v2.3c0,1.6,1.3,3,3,3"/>
		<path fill="none" stroke="#3DAFFC" stroke-width="2" stroke-linecap="round" stroke-linejoin="round" stroke-miterlimit="10" d="
			M219.1,137.7c0,2.3-1.8,4.1-4.1,4.1c-2.3,0-4.1-1.8-4.1-4.1"/>
	</g>
	<g>
		<path fill="#3DAFFC" d="M1.1,133.4c0-4.4,1.9-6.9,4.8-6.9c2.5,0,3.7,1.7,4.1,4.2L8.5,131c-0.4-2-1.2-3.1-2.8-3.1
			c-2.1,0-3.2,2.1-3.2,5.5c0,3.6,1.2,5.6,3.2,5.6c1.6,0,2.4-1,2.9-3.2l1.4,0.2c-0.5,2.6-1.8,4.4-4.3,4.4
			C2.9,140.4,1.1,138,1.1,133.4z"/>
		<path fill="#3DAFFC" d="M11.4,137.9c0-1.9,1.6-3.3,5.3-4v-0.6c0-1.1-0.5-1.6-1.4-1.6c-1.2,0-2.1,0.6-2.8,1.3l-0.8-0.9
			c1-1,2.3-1.7,3.8-1.7c1.9,0,2.7,1,2.7,2.9v4.5c0,1.2,0.1,1.9,0.2,2.3h-1.5c-0.1-0.4-0.2-0.7-0.2-1.2c-0.8,0.8-1.8,1.4-3,1.4
			C12.3,140.3,11.4,139.4,11.4,137.9z M16.7,137.8v-2.9c-2.9,0.6-3.9,1.6-3.9,2.8c0,1,0.5,1.4,1.3,1.4
			C15.2,139.1,16.1,138.6,16.7,137.8z"/>
		<path fill="#3DAFFC" d="M21,131.8h-1.4v-1.2H21v-1.4c0-1.6,0.8-2.4,2.6-2.4c0.2,0,0.7,0,0.7,0v1.2c0,0-0.5,0-0.5,0
			c-0.8,0-1.3,0.3-1.3,1.2v1.4h1.8v1.2h-1.8v8.3H21V131.8z"/>
		<path fill="#3DAFFC" d="M25.3,135.4c0-3.4,1.8-5,3.7-5c2.1,0,3.4,1.7,3.4,4.9v0.4h-5.6c0.1,2.2,0.9,3.4,2.3,3.4
			c1.1,0,1.7-0.6,2.3-1.7l1,0.6c-0.7,1.4-1.8,2.3-3.3,2.3C26.9,140.3,25.3,138.7,25.3,135.4z M31,134.6c-0.1-1.7-0.7-2.9-2-2.9
			c-1.1,0-2,0.9-2.2,2.9H31z M29.3,126.8h1.7l-2.2,2.8h-1L29.3,126.8z"/>
		<path fill="#3DAFFC" d="M38,126.8h1.8L44,135c0.5,0.9,0.7,1.4,1.2,2.4h0v-10.5h1.4v13.3h-1.4l-4.5-8.6c-0.5-1-0.8-1.5-1.3-2.5h0
			v11.1H38V126.8z"/>
		<path fill="#3DAFFC" d="M48.6,135.4c0-3.3,1.6-5,3.8-5c2.1,0,3.7,1.7,3.7,5c0,3.3-1.6,5-3.7,5S48.6,138.6,48.6,135.4z M54.7,135.4
			c0-2.1-0.7-3.7-2.3-3.7c-1.5,0-2.3,1.5-2.3,3.7c0,2.1,0.7,3.7,2.3,3.7C53.9,139.1,54.7,137.6,54.7,135.4z"/>
		<path fill="#3DAFFC" d="M58.1,126.8h1.5v13.3h-1.5V126.8z"/>
		<path fill="#3DAFFC" d="M61.5,137.9c0-1.9,1.6-3.3,5.3-4v-0.6c0-1.1-0.5-1.6-1.4-1.6c-1.2,0-2.1,0.6-2.8,1.3l-0.8-0.9
			c1-1,2.3-1.7,3.8-1.7c1.9,0,2.7,1,2.7,2.9v4.5c0,1.2,0.1,1.9,0.2,2.3H67c-0.1-0.4-0.2-0.7-0.2-1.2c-0.8,0.8-1.8,1.4-3,1.4
			C62.3,140.3,61.5,139.4,61.5,137.9z M66.8,137.8v-2.9c-2.9,0.6-3.9,1.6-3.9,2.8c0,1,0.5,1.4,1.3,1.4
			C65.2,139.1,66.1,138.6,66.8,137.8z"/>
		<path fill="#3DAFFC" d="M1.6,156.8h3.9c2.5,0,4,1.1,4,3.3c0,1.9-1,2.7-2.1,3v0c1.4,0.3,2.5,1.2,2.5,3.3c0,2.3-1.5,3.6-4.1,3.6H1.6
			V156.8z M5.4,162.7c1.7,0,2.6-0.6,2.6-2.2s-0.8-2.3-2.6-2.3H3.1v4.5H5.4z M5.8,168.8c1.8,0,2.6-0.8,2.6-2.4c0-1.8-1.1-2.4-2.9-2.4
			H3.1v4.9H5.8z"/>
		<path fill="#3DAFFC" d="M11.8,167.7v-7.1h1.4v6.8c0,1.1,0.4,1.7,1.4,1.7c0.9,0,1.7-0.6,2.5-1.4v-7.1h1.5v9.5h-1.5v-1.3
			c-0.7,0.8-1.7,1.5-3,1.5C12.6,170.3,11.8,169.4,11.8,167.7z"/>
		<path fill="#3DAFFC" d="M20.9,160.6h1.5v1.6h0c0.5-1,1.5-1.8,3-1.8h0.2l-0.1,1.4c0,0-0.3,0-0.3,0c-1.2,0-2.3,0.8-2.8,1.9v6.4h-1.5
			V160.6z"/>
		<path fill="#3DAFFC" d="M27.1,160.6h1.5v1.6h0c0.5-1,1.5-1.8,3-1.8h0.2l-0.1,1.4c0,0-0.3,0-0.3,0c-1.2,0-2.3,0.8-2.8,1.9v6.4h-1.5
			V160.6z"/>
		<path fill="#3DAFFC" d="M33.4,157.2h1.5v1.6h-1.5V157.2z M33.4,160.6h1.5v9.5h-1.5V160.6z"/>
		<path fill="#3DAFFC" d="M37.8,168v-6.2h-1.4v-1.2h1.4v-3.4h1.4v3.4h2.1v1.2h-2.1v5.8c0,1,0.3,1.4,1.3,1.4c0.3,0,0.6-0.1,0.8-0.1
			v1.2c-0.2,0.1-0.7,0.1-1.1,0.1C38.5,170.2,37.8,169.6,37.8,168z"/>
		<path fill="#3DAFFC" d="M42.6,165.4c0-3.3,1.6-5,3.8-5c2.1,0,3.7,1.7,3.7,5c0,3.3-1.6,5-3.7,5S42.6,168.6,42.6,165.4z M48.7,165.4
			c0-2.1-0.7-3.7-2.3-3.7c-1.5,0-2.3,1.5-2.3,3.7c0,2.1,0.7,3.7,2.3,3.7C47.9,169.1,48.7,167.6,48.7,165.4z"/>
		<path fill="#3DAFFC" d="M55.3,163.4c0-4.3,1.8-6.9,4.8-6.9c2.4,0,3.6,1.6,4.1,4.2l-1.4,0.3c-0.5-2.1-1.2-3.1-2.8-3.1
			c-1.9,0-3.2,1.9-3.2,5.5c0,3.8,1.2,5.6,3.3,5.6c1.8,0,2.8-1.3,2.8-4h-2.5v-1.3h3.9v6.4H63v-1.8h0c-0.4,1-1.5,2.1-3.1,2.1
			C56.9,170.4,55.3,167.8,55.3,163.4z"/>
		<path fill="#3DAFFC" d="M66.1,167.9c0-1.9,1.6-3.3,5.3-4v-0.6c0-1.1-0.5-1.6-1.4-1.6c-1.2,0-2.1,0.6-2.8,1.3l-0.8-0.9
			c1-1,2.3-1.7,3.8-1.7c1.9,0,2.7,1,2.7,2.9v4.5c0,1.2,0.1,1.9,0.2,2.3h-1.5c-0.1-0.4-0.2-0.7-0.2-1.2c-0.8,0.8-1.8,1.4-3,1.4
			C66.9,170.3,66.1,169.4,66.1,167.9z M71.4,167.8v-2.9c-2.9,0.6-3.9,1.6-3.9,2.8c0,1,0.5,1.4,1.3,1.4
			C69.8,169.1,70.7,168.6,71.4,167.8z"/>
		<path fill="#3DAFFC" d="M75.1,156.8h1.5v13.3h-1.5V156.8z"/>
		<path fill="#3DAFFC" d="M79.1,156.8h1.5v13.3h-1.5V156.8z"/>
		<path fill="#3DAFFC" d="M82.5,165.4c0-3.4,1.8-5,3.7-5c2.1,0,3.4,1.7,3.4,4.9v0.4H84c0.1,2.2,0.9,3.4,2.3,3.4
			c1.1,0,1.7-0.6,2.3-1.7l1,0.6c-0.7,1.4-1.8,2.3-3.3,2.3C84.1,170.3,82.5,168.7,82.5,165.4z M88.2,164.6c-0.1-1.7-0.7-2.9-2-2.9
			c-1.1,0-2,0.9-2.2,2.9H88.2z"/>
		<path fill="#3DAFFC" d="M91.4,160.6h1.5v1.6h0c0.5-1,1.5-1.8,3-1.8h0.2l-0.1,1.4c0,0-0.3,0-0.3,0c-1.2,0-2.3,0.8-2.8,1.9v6.4h-1.5
			V160.6z"/>
		<path fill="#3DAFFC" d="M96.6,173.5l0.3-1.2c0.2,0.1,0.7,0.1,1.2,0.1c0.8,0,1.2-0.5,1.5-1.5l0.3-0.8l-3-9.6h1.5l1.4,5
			c0.3,1,0.5,1.9,0.8,2.9h0c0.3-1,0.5-1.9,0.8-3l1.4-4.9h1.4l-3.3,10.6c-0.6,1.7-1.2,2.6-2.8,2.6C97.5,173.8,96.9,173.6,96.6,173.5z
			"/>
		<path fill="#3DAFFC" d="M1.1,193.4c0-4.4,1.9-6.9,4.8-6.9c2.5,0,3.7,1.7,4.1,4.2L8.5,191c-0.4-2-1.2-3.1-2.8-3.1
			c-2.1,0-3.2,2.1-3.2,5.5c0,3.6,1.2,5.6,3.2,5.6c1.6,0,2.4-1,2.9-3.2l1.4,0.2c-0.5,2.6-1.8,4.4-4.3,4.4
			C2.9,200.4,1.1,198,1.1,193.4z"/>
		<path fill="#3DAFFC" d="M11.9,186.8h1.5v5.1c0.6-0.7,1.8-1.5,3-1.5c1.5,0,2.3,0.9,2.3,2.6v7.1h-1.4v-6.8c0-1.1-0.4-1.7-1.4-1.7
			c-0.9,0-1.9,0.7-2.6,1.4v7.1h-1.5V186.8z"/>
		<path fill="#3DAFFC" d="M20.5,195.4c0-3.3,1.6-5,3.8-5c2.1,0,3.7,1.7,3.7,5c0,3.3-1.6,5-3.7,5S20.5,198.6,20.5,195.4z M26.6,195.4
			c0-2.1-0.7-3.7-2.3-3.7c-1.5,0-2.3,1.5-2.3,3.7c0,2.1,0.7,3.7,2.3,3.7C25.8,199.1,26.6,197.6,26.6,195.4z"/>
		<path fill="#3DAFFC" d="M29.9,190.6h1.5v1.3c0.7-0.7,1.7-1.5,2.9-1.5c1.3,0,1.9,0.5,2.2,1.5c0.7-0.8,1.7-1.5,3-1.5
			c1.5,0,2.3,0.9,2.3,2.6v7.1h-1.4v-6.8c0-1.1-0.4-1.7-1.3-1.7c-0.9,0-1.7,0.6-2.4,1.3v7.1H35v-6.8c0-1.1-0.3-1.7-1.3-1.7
			c-0.8,0-1.6,0.6-2.4,1.4v7.1h-1.5V190.6z"/>
		<path fill="#3DAFFC" d="M43.9,190.6h1.5v1.2c0.6-0.7,1.4-1.4,2.6-1.4c1.9,0,3.2,1.5,3.2,4.9c0,3.4-1.4,4.9-3.3,4.9
			c-1.1,0-1.9-0.5-2.5-1.3v4.8h-1.5V190.6z M49.7,195.4c0-2.5-0.9-3.7-2.1-3.7c-0.9,0-1.7,0.6-2.2,1.3v4.8c0.7,0.8,1.4,1.3,2.3,1.3
			C48.9,199.1,49.7,198,49.7,195.4z"/>
		<path fill="#3DAFFC" d="M56.3,193.4c0-4.4,1.9-6.9,4.8-6.9c2.5,0,3.7,1.7,4.1,4.2l-1.4,0.3c-0.4-2-1.2-3.1-2.8-3.1
			c-2.1,0-3.2,2.1-3.2,5.5c0,3.6,1.2,5.6,3.2,5.6c1.6,0,2.4-1,2.9-3.2l1.4,0.2c-0.5,2.6-1.8,4.4-4.3,4.4
			C58.1,200.4,56.3,198,56.3,193.4z"/>
		<path fill="#3DAFFC" d="M67.2,186.8h1.5v5.1c0.6-0.7,1.8-1.5,3-1.5c1.5,0,2.3,0.9,2.3,2.6v7.1h-1.4v-6.8c0-1.1-0.4-1.7-1.4-1.7
			c-0.9,0-1.9,0.7-2.6,1.4v7.1h-1.5V186.8z"/>
		<path fill="#3DAFFC" d="M75.8,195.4c0-3.3,1.6-5,3.8-5c2.1,0,3.7,1.7,3.7,5c0,3.3-1.6,5-3.7,5S75.8,198.6,75.8,195.4z M81.8,195.4
			c0-2.1-0.7-3.7-2.3-3.7c-1.5,0-2.3,1.5-2.3,3.7c0,2.1,0.7,3.7,2.3,3.7C81,199.1,81.8,197.6,81.8,195.4z"/>
		<path fill="#3DAFFC" d="M85.1,190.6h1.5v1.3c0.7-0.7,1.7-1.5,2.9-1.5c1.3,0,1.9,0.5,2.2,1.5c0.7-0.8,1.7-1.5,3-1.5
			c1.5,0,2.3,0.9,2.3,2.6v7.1h-1.4v-6.8c0-1.1-0.4-1.7-1.3-1.7c-0.9,0-1.7,0.6-2.4,1.3v7.1h-1.5v-6.8c0-1.1-0.3-1.7-1.3-1.7
			c-0.8,0-1.6,0.6-2.4,1.4v7.1h-1.5V190.6z"/>
		<path fill="#3DAFFC" d="M99.1,190.6h1.5v1.2c0.6-0.7,1.4-1.4,2.6-1.4c1.9,0,3.2,1.5,3.2,4.9c0,3.4-1.4,4.9-3.3,4.9
			c-1.1,0-1.9-0.5-2.5-1.3v4.8h-1.5V190.6z M105,195.4c0-2.5-0.9-3.7-2.1-3.7c-0.9,0-1.7,0.6-2.2,1.3v4.8c0.7,0.8,1.4,1.3,2.3,1.3
			C104.1,199.1,105,198,105,195.4z"/>
	</g>
	<g>
		<path fill="#3DAFFC" d="M209,197.5v2.4h-7.6v-11.2h2.8v8.8H209z"/>
		<path fill="#3DAFFC" d="M222,195.2c0,3-2,4.8-5.1,4.8c-3.2,0-5.2-1.9-5.2-4.8v-6.5h2.8v6.5c0,1.5,1,2.4,2.3,2.4
			c1.3,0,2.3-0.9,2.3-2.4v-6.5h2.8V195.2z"/>
		<path fill="#3DAFFC" d="M233.5,199.9l-5.2-6.9v6.9h-2.7v-11.2h2.5l5.2,6.9v-6.9h2.7v11.2H233.5z"/>
		<path fill="#3DAFFC" d="M249.6,190.5l-1.6,2c-0.7-0.9-1.8-1.5-2.8-1.5c-1.8,0-3.1,1.4-3.1,3.2c0,1.9,1.3,3.3,3.1,3.3
			c0.9,0,2-0.5,2.8-1.3l1.7,1.8c-1.2,1.2-3,2-4.6,2c-3.4,0-5.9-2.5-5.9-5.8c0-3.2,2.6-5.7,6-5.7
			C246.7,188.6,248.5,189.3,249.6,190.5z"/>
		<path fill="#3DAFFC" d="M260,199.9v-4.4h-4.6v4.4h-2.8v-11.2h2.8v4.6h4.6v-4.6h2.8v11.2H260z"/>
	</g>
</g>
<g>
	<g>
		
			<path fill-rule="evenodd" clip-rule="evenodd" fill="none" stroke="#3DAFFC" stroke-width="2" stroke-linecap="round" stroke-linejoin="round" stroke-miterlimit="10" d="
			M238,403.1c-4.6-2.5-9.7-12.6-9.4-16.8c0.1-2,0.8-3.3,3-5.5c2.1-2.1,3-2.3,4.8-2.5c4.1-0.3,14.4,4.6,17.1,9
			c2.3,3.9,0.9,9-2.8,12.8C246.9,403.9,241.9,405.3,238,403.1L238,403.1z"/>
		
			<path fill-rule="evenodd" clip-rule="evenodd" fill="none" stroke="#3DAFFC" stroke-width="2" stroke-linecap="round" stroke-linejoin="round" stroke-miterlimit="10" d="
			M218.5,400.4c0.1,1.2-1.7,2.3-4,1.7c-2.9-0.7-6.3-4.4-5.7-6.5c0.7-2.8,4.4-2.9,6-2.7c1.5,0.2,3.8,1.1,3.5,2.3"/>
		
			<path fill-rule="evenodd" clip-rule="evenodd" fill="none" stroke="#3DAFFC" stroke-width="2" stroke-linecap="round" stroke-linejoin="round" stroke-miterlimit="10" d="
			M229,389.5c-0.1-0.5-0.4-0.9-0.9-1.2c-1.8-0.8-7.4,2.5-8.4,3.9c-1.1,1.6-1.9,3.8-1.3,7.7c1.2,7.7,11.9,8.9,16.3,5.6
			c1.1-0.9,1.8-2.2,1.8-3.4l0,0"/>
		
			<path fill-rule="evenodd" clip-rule="evenodd" fill="none" stroke="#3DAFFC" stroke-width="2" stroke-linecap="round" stroke-linejoin="round" stroke-miterlimit="10" d="
			M250.6,368.3c1.2,0.1,2.3-1.7,1.7-4c-0.7-2.9-4.4-6.3-6.5-5.7c-2.8,0.7-2.9,4.4-2.7,6c0.2,1.5,1.1,3.8,2.3,3.5"/>
		
			<path fill-rule="evenodd" clip-rule="evenodd" fill="none" stroke="#3DAFFC" stroke-width="2" stroke-linecap="round" stroke-linejoin="round" stroke-miterlimit="10" d="
			M239.5,378.7c-0.5-0.1-0.7-0.3-1-0.8c-0.8-1.8,2.5-7.4,3.9-8.4c1.6-1.1,3.8-1.9,7.7-1.3c7.7,1.2,9.1,11.7,5.8,16.1
			c-0.9,1.1-2.2,1.8-3.4,1.8l0,0"/>
	</g>
	<g>
		<path fill="#3DAFFC" d="M1.6,364.2h1.8l4.2,8.2c0.5,0.9,0.7,1.4,1.2,2.4h0v-10.5h1.4v13.3H8.7l-4.5-8.6c-0.5-1-0.8-1.5-1.3-2.5h0
			v11.1H1.6V364.2z"/>
		<path fill="#3DAFFC" d="M12.2,375.2c0-1.9,1.6-3.3,5.3-4v-0.6c0-1.1-0.5-1.6-1.4-1.6c-1.2,0-2.1,0.6-2.8,1.3l-0.8-0.9
			c1-1,2.3-1.7,3.8-1.7c1.9,0,2.7,1,2.7,2.9v4.5c0,1.2,0.1,1.9,0.2,2.3h-1.5c-0.1-0.4-0.2-0.7-0.2-1.2c-0.8,0.8-1.8,1.4-3,1.4
			C13,377.6,12.2,376.7,12.2,375.2z M17.5,375.2v-2.9c-2.9,0.6-3.9,1.6-3.9,2.8c0,1,0.5,1.4,1.3,1.4
			C15.9,376.4,16.8,375.9,17.5,375.2z"/>
		<path fill="#3DAFFC" d="M21.7,375.3v-6.2h-1.4V368h1.4v-3.4h1.4v3.4h2.1v1.2h-2.1v5.8c0,1,0.3,1.4,1.3,1.4c0.3,0,0.6-0.1,0.8-0.1
			v1.2c-0.2,0.1-0.7,0.1-1.1,0.1C22.4,377.6,21.7,377,21.7,375.3z"/>
		<path fill="#3DAFFC" d="M27.1,364.5h1.5v1.6h-1.5V364.5z M27.1,368h1.5v9.5h-1.5V368z"/>
		<path fill="#3DAFFC" d="M30.1,368h1.5l1.5,5.4c0.2,0.8,0.4,1.5,0.7,2.6h0c0.3-1.1,0.4-1.7,0.7-2.6l1.5-5.4h1.4l-2.9,9.5H33
			L30.1,368z"/>
		<path fill="#3DAFFC" d="M38.4,372.7c0-3.4,1.8-5,3.7-5c2.1,0,3.4,1.7,3.4,4.9v0.4h-5.6c0.1,2.2,0.9,3.4,2.3,3.4
			c1.1,0,1.7-0.6,2.3-1.7l1,0.6c-0.7,1.4-1.8,2.3-3.3,2.3C40,377.7,38.4,376,38.4,372.7z M44.1,371.9c-0.1-1.7-0.7-2.9-2-2.9
			c-1.1,0-2,0.9-2.2,2.9H44.1z"/>
		<path fill="#3DAFFC" d="M50.4,374.5l1.3-0.6c0.6,1.4,1.6,2.4,3.1,2.4c1.6,0,2.5-0.8,2.5-2.1c0-1.5-1.3-2.2-2.7-2.9
			c-1.7-0.8-3.6-1.7-3.6-4.1c0-1.9,1.6-3.3,3.6-3.3c2.1,0,3.3,1.3,4,2.8l-1.3,0.6c-0.5-1.1-1.3-2.1-2.7-2.1c-1.3,0-2.1,0.8-2.1,1.9
			c0,1.5,1.3,2.2,2.7,2.9c1.7,0.8,3.6,1.7,3.6,4.1c0,1.9-1.5,3.5-4,3.5C52.6,377.7,51.2,376.5,50.4,374.5z"/>
		<path fill="#3DAFFC" d="M60.7,375V368h1.4v6.8c0,1.1,0.4,1.7,1.4,1.7c0.9,0,1.7-0.6,2.5-1.4V368h1.5v9.5h-1.5v-1.3
			c-0.7,0.8-1.7,1.5-3,1.5C61.5,377.7,60.7,376.8,60.7,375z"/>
		<path fill="#3DAFFC" d="M69.8,368h1.5v1.3c0.6-0.7,1.8-1.5,3-1.5c1.5,0,2.3,0.9,2.3,2.6v7.1h-1.4v-6.8c0-1.1-0.4-1.7-1.4-1.7
			c-0.9,0-1.9,0.7-2.6,1.4v7.1h-1.5V368z"/>
		<path fill="#3DAFFC" d="M0.8,406.3l6.4-10.8H1.3v-1.4H9v1.1l-6.3,10.8H9v1.4H0.8V406.3z"/>
		<path fill="#3DAFFC" d="M10.4,402.7c0-3.3,1.6-5,3.8-5c2.1,0,3.7,1.7,3.7,5c0,3.3-1.6,5-3.7,5S10.4,406,10.4,402.7z M16.5,402.7
			c0-2.1-0.7-3.7-2.3-3.7c-1.5,0-2.3,1.5-2.3,3.7c0,2.1,0.7,3.7,2.3,3.7C15.7,406.5,16.5,405,16.5,402.7z"/>
		<path fill="#3DAFFC" d="M19.3,402.7c0-3.4,1.8-5,3.7-5c2.1,0,3.4,1.7,3.4,4.9v0.4h-5.6c0.1,2.2,0.9,3.4,2.3,3.4
			c1.1,0,1.7-0.6,2.3-1.7l1,0.6c-0.7,1.4-1.8,2.3-3.3,2.3C20.9,407.7,19.3,406,19.3,402.7z M20.7,395.4h1.5v1.6h-1.5V395.4z
			 M25,401.9c-0.1-1.7-0.7-2.9-2-2.9c-1.1,0-2,0.9-2.2,2.9H25z M23.6,395.4H25v1.6h-1.4V395.4z"/>
		<path fill="#3DAFFC" d="M27.4,405.7l1-0.7c0.6,1,1.6,1.5,2.6,1.5c1.2,0,1.9-0.5,1.9-1.4c0-2.3-5-1.4-5-4.8c0-1.5,1.2-2.6,3-2.6
			c1.4,0,2.4,0.7,3.1,1.7l-1,0.8c-0.5-0.7-1.2-1.3-2.2-1.3c-1.1,0-1.6,0.5-1.6,1.3c0,2.4,4.9,1.3,4.9,4.8c0,1.7-1.5,2.7-3.3,2.7
			C29.4,407.7,28.2,406.9,27.4,405.7z"/>
		<path fill="#3DAFFC" d="M39.9,394.2h1.5v7c0.2-0.4,0.8-1.3,1.4-2.1l3.5-4.9h1.6l-3.7,5.2l4.3,8.2h-1.6l-3.6-6.9l-1.8,2.5v4.4h-1.5
			V394.2z"/>
		<path fill="#3DAFFC" d="M50,394.5h1.5v1.6H50V394.5z M50,398h1.5v9.5H50V398z"/>
		<path fill="#3DAFFC" d="M54.4,405.3v-6.2H53V398h1.4v-3.4h1.4v3.4h2.1v1.2h-2.1v5.8c0,1,0.3,1.4,1.3,1.4c0.3,0,0.6-0.1,0.8-0.1
			v1.2c-0.2,0.1-0.7,0.1-1.1,0.1C55.1,407.6,54.4,407,54.4,405.3z"/>
		<path fill="#3DAFFC" d="M59.2,402.7c0-3.4,1.7-5,3.7-5c1.9,0,2.7,1.3,3.2,2.8l-1.3,0.4c-0.3-1.2-0.8-1.9-1.9-1.9
			c-1.2,0-2.2,1.1-2.2,3.7c0,2.3,0.8,3.7,2.2,3.7c1,0,1.6-0.6,2-2l1.3,0.3c-0.5,1.8-1.6,2.8-3.3,2.8C60.9,407.7,59.2,406,59.2,402.7
			z"/>
		<path fill="#3DAFFC" d="M67.9,394.2h1.5v5.1c0.6-0.7,1.8-1.5,3-1.5c1.5,0,2.3,0.9,2.3,2.6v7.1h-1.4v-6.8c0-1.1-0.4-1.7-1.4-1.7
			c-0.9,0-1.9,0.7-2.6,1.4v7.1h-1.5V394.2z"/>
		<path fill="#3DAFFC" d="M76.5,402.7c0-3.4,1.8-5,3.7-5c2.1,0,3.4,1.7,3.4,4.9v0.4h-5.6c0.1,2.2,0.9,3.4,2.3,3.4
			c1.1,0,1.7-0.6,2.3-1.7l1,0.6c-0.7,1.4-1.8,2.3-3.3,2.3C78.1,407.7,76.5,406,76.5,402.7z M82.2,401.9c-0.1-1.7-0.7-2.9-2-2.9
			c-1.1,0-2,0.9-2.2,2.9H82.2z"/>
		<path fill="#3DAFFC" d="M85.4,398h1.5v1.3c0.6-0.7,1.8-1.5,3-1.5c1.5,0,2.3,0.9,2.3,2.6v7.1h-1.4v-6.8c0-1.1-0.4-1.7-1.4-1.7
			c-0.9,0-1.9,0.7-2.6,1.4v7.1h-1.5V398z"/>
		<path fill="#3DAFFC" d="M1.7,424.2h1.5v13.3H1.7V424.2z"/>
		<path fill="#3DAFFC" d="M5.8,428h1.5v1.3c0.6-0.7,1.8-1.5,3-1.5c1.5,0,2.3,0.9,2.3,2.6v7.1h-1.4v-6.8c0-1.1-0.4-1.7-1.4-1.7
			c-0.9,0-1.9,0.7-2.6,1.4v7.1H5.8V428z"/>
		<path fill="#3DAFFC" d="M14.5,432.7c0-3.4,1.4-5,3.3-5c1.1,0,1.9,0.5,2.6,1.3v-5h1.4v11c0,1.2,0.1,1.9,0.2,2.3h-1.5
			c-0.1-0.3-0.2-0.9-0.2-1.2c-0.6,0.7-1.4,1.4-2.6,1.4C15.8,437.6,14.5,436.2,14.5,432.7z M20.3,435.1v-4.8
			c-0.7-0.8-1.4-1.3-2.3-1.3c-1.3,0-2.1,1.1-2.1,3.7c0,2.5,0.9,3.7,2.2,3.7C18.9,436.4,19.7,435.8,20.3,435.1z"/>
		<path fill="#3DAFFC" d="M23.6,432.7c0-3.3,1.6-5,3.8-5c2.1,0,3.7,1.7,3.7,5c0,3.3-1.6,5-3.7,5S23.6,436,23.6,432.7z M29.6,432.7
			c0-2.1-0.7-3.7-2.3-3.7c-1.5,0-2.3,1.5-2.3,3.7c0,2.1,0.7,3.7,2.3,3.7C28.9,436.5,29.6,435,29.6,432.7z"/>
		<path fill="#3DAFFC" d="M32.5,432.7c0-3.4,1.7-5,3.7-5c1.9,0,2.7,1.3,3.2,2.8l-1.3,0.4c-0.3-1.2-0.8-1.9-1.9-1.9
			c-1.2,0-2.2,1.1-2.2,3.7c0,2.3,0.8,3.7,2.2,3.7c1,0,1.6-0.6,2-2l1.3,0.3c-0.5,1.8-1.6,2.8-3.3,2.8C34.1,437.7,32.5,436,32.5,432.7
			z"/>
		<path fill="#3DAFFC" d="M41.1,424.2h1.5v5.1c0.6-0.7,1.8-1.5,3-1.5c1.5,0,2.3,0.9,2.3,2.6v7.1h-1.4v-6.8c0-1.1-0.4-1.7-1.4-1.7
			c-0.9,0-1.9,0.7-2.6,1.4v7.1h-1.5V424.2z"/>
		<path fill="#3DAFFC" d="M50.3,424.5h1.5v1.6h-1.5V424.5z M50.3,428h1.5v9.5h-1.5V428z"/>
		<path fill="#3DAFFC" d="M54.1,428h1.5v1.3c0.6-0.7,1.8-1.5,3-1.5c1.5,0,2.3,0.9,2.3,2.6v7.1h-1.4v-6.8c0-1.1-0.4-1.7-1.4-1.7
			c-0.9,0-1.9,0.7-2.6,1.4v7.1h-1.5V428z"/>
		<path fill="#3DAFFC" d="M62.7,432.7c0-3.4,1.8-5,3.7-5c2.1,0,3.4,1.7,3.4,4.9v0.4h-5.6c0.1,2.2,0.9,3.4,2.3,3.4
			c1.1,0,1.7-0.6,2.3-1.7l1,0.6c-0.7,1.4-1.8,2.3-3.3,2.3C64.3,437.7,62.7,436,62.7,432.7z M68.4,431.9c-0.1-1.7-0.7-2.9-2-2.9
			c-1.1,0-2,0.9-2.2,2.9H68.4z"/>
	</g>
	<g>
		<path fill="#3DAFFC" d="M195.2,428.8l-1.6,2c-0.7-0.9-1.8-1.5-2.8-1.5c-1.8,0-3.1,1.4-3.1,3.2c0,1.9,1.3,3.3,3.1,3.3
			c0.9,0,2-0.5,2.8-1.3l1.7,1.8c-1.2,1.2-3,2-4.6,2c-3.4,0-5.9-2.5-5.9-5.8c0-3.2,2.6-5.7,6-5.7
			C192.3,426.9,194.1,427.7,195.2,428.8z"/>
		<path fill="#3DAFFC" d="M200.5,436.2l-0.8,2.1h-2.9l4.8-11.2h2.9l4.7,11.2h-3l-0.8-2.1H200.5z M203,429.8l-1.6,4.1h3.2L203,429.8z
			"/>
		<path fill="#3DAFFC" d="M215.9,429.3v8.9H213v-8.9h-3.3V427h9.6v2.3H215.9z"/>
		<path fill="#3DAFFC" d="M224.9,429.3v2.2h5.3v2.2h-5.3v2.3h6.1v2.2h-8.9V427h8.8v2.2H224.9z"/>
		<path fill="#3DAFFC" d="M239.5,435.1L239.5,435.1h-2.2v3.2h-2.8V427h5c3,0,4.7,1.4,4.7,3.9c0,1.7-0.7,2.9-2,3.6l2.4,3.7h-3.2
			L239.5,435.1z M239.5,432.8c1.2,0,2-0.6,2-1.8c0-1.2-0.7-1.8-2-1.8h-2.2v3.6H239.5z"/>
		<path fill="#3DAFFC" d="M247.6,438.2V427h2.8v11.2H247.6z"/>
		<path fill="#3DAFFC" d="M262.1,438.2l-5.2-6.9v6.9h-2.7V427h2.5l5.2,6.9V427h2.7v11.2H262.1z"/>
		<path fill="#3DAFFC" d="M278.4,432.5v4.4c-1.2,0.8-3.1,1.5-4.7,1.5c-3.4,0-6-2.5-6-5.7c0-3.2,2.6-5.7,6.2-5.7
			c1.7,0,3.4,0.6,4.6,1.7l-1.6,1.9c-0.8-0.8-2-1.2-3-1.2c-1.8,0-3.2,1.4-3.2,3.3c0,1.9,1.4,3.3,3.3,3.3c0.6,0,1.3-0.2,2-0.5v-2.9
			H278.4z"/>
	</g>
</g>
<g>
	<g>
		<path fill="#3DAFFC" d="M190.3,311.2l-1.6,2c-0.7-0.9-1.8-1.5-2.8-1.5c-1.8,0-3.1,1.4-3.1,3.2c0,1.9,1.3,3.3,3.1,3.3
			c0.9,0,2-0.5,2.8-1.3l1.7,1.8c-1.2,1.2-3,2-4.6,2c-3.4,0-5.9-2.5-5.9-5.8c0-3.2,2.6-5.7,6-5.7
			C187.5,309.3,189.2,310.1,190.3,311.2z"/>
		<path fill="#3DAFFC" d="M204.4,315c0,3.3-2.6,5.7-6.1,5.7c-3.5,0-6-2.5-6-5.7c0-3.3,2.6-5.7,6-5.7
			C201.9,309.3,204.4,311.8,204.4,315z M195.2,315c0,1.9,1.5,3.3,3.2,3.3c1.7,0,3.1-1.5,3.1-3.3s-1.4-3.3-3.1-3.3
			S195.2,313.2,195.2,315z"/>
		<path fill="#3DAFFC" d="M217.1,311.2l-1.6,2c-0.7-0.9-1.8-1.5-2.8-1.5c-1.8,0-3.1,1.4-3.1,3.2c0,1.9,1.3,3.3,3.1,3.3
			c0.9,0,2-0.5,2.8-1.3l1.7,1.8c-1.2,1.2-3,2-4.6,2c-3.4,0-5.9-2.5-5.9-5.8c0-3.2,2.6-5.7,6-5.7C214.3,309.3,216,310.1,217.1,311.2z
			"/>
		<path fill="#3DAFFC" d="M224.3,316.2l-1.5,1.6v2.8H220v-11.2h2.8v4.8l4.3-4.8h3.3l-4.2,4.6l4.4,6.6h-3.4L224.3,316.2z"/>
		<path fill="#3DAFFC" d="M238.7,311.7v8.9h-2.8v-8.9h-3.3v-2.3h9.6v2.3H238.7z"/>
		<path fill="#3DAFFC" d="M246.3,318.6l-0.8,2.1h-2.9l4.8-11.2h2.9l4.7,11.2h-3l-0.8-2.1H246.3z M248.7,312.3l-1.6,4.1h3.2
			L248.7,312.3z"/>
		<path fill="#3DAFFC" d="M257.7,320.7v-11.2h2.8v11.2H257.7z"/>
		<path fill="#3DAFFC" d="M271.9,318.3v2.4h-7.6v-11.2h2.8v8.8H271.9z"/>
		<path fill="#3DAFFC" d="M283.6,310.6l-1.1,2.2c-1.2-0.7-2.7-1.2-3.6-1.2c-0.7,0-1.2,0.3-1.2,0.8c0,1.9,5.9,0.8,5.9,4.9
			c0,2.2-2,3.4-4.5,3.4c-1.9,0-3.8-0.7-5.1-1.8l1.1-2.2c1.2,1,2.9,1.7,4,1.7c0.9,0,1.5-0.3,1.5-1c0-2-5.9-0.8-5.9-4.8
			c0-2.1,1.8-3.4,4.5-3.4C280.8,309.3,282.5,309.8,283.6,310.6z"/>
	</g>
	<g>
		<path fill="#3DAFFC" d="M2.6,247.3h3.9c2.5,0,4,1.1,4,3.3c0,1.9-1,2.7-2.1,3v0c1.4,0.3,2.5,1.2,2.5,3.3c0,2.3-1.5,3.6-4.1,3.6H2.6
			V247.3z M6.4,253.2c1.7,0,2.6-0.6,2.6-2.2s-0.8-2.3-2.6-2.3H4.1v4.5H6.4z M6.8,259.4c1.8,0,2.6-0.8,2.6-2.4c0-1.8-1.1-2.4-2.9-2.4
			H4.1v4.9H6.8z"/>
		<path fill="#3DAFFC" d="M12.9,247.3h1.5v13.3h-1.5V247.3z"/>
		<path fill="#3DAFFC" d="M16.3,258.4c0-1.9,1.6-3.3,5.3-4v-0.6c0-1.1-0.5-1.6-1.4-1.6c-1.2,0-2.1,0.6-2.8,1.3l-0.8-0.9
			c1-1,2.3-1.7,3.8-1.7c1.9,0,2.7,1,2.7,2.9v4.5c0,1.2,0.1,1.9,0.2,2.3h-1.5c-0.1-0.4-0.2-0.7-0.2-1.2c-0.8,0.8-1.8,1.4-3,1.4
			C17.1,260.8,16.3,259.9,16.3,258.4z M21.6,258.4v-2.9c-2.9,0.6-3.9,1.6-3.9,2.8c0,1,0.5,1.4,1.3,1.4
			C20,259.6,20.9,259.1,21.6,258.4z"/>
		<path fill="#3DAFFC" d="M24.8,255.9c0-3.4,1.7-5,3.7-5c1.9,0,2.7,1.3,3.2,2.8l-1.3,0.4c-0.3-1.2-0.8-1.9-1.9-1.9
			c-1.2,0-2.2,1.1-2.2,3.7c0,2.3,0.8,3.7,2.2,3.7c1,0,1.6-0.6,2-2l1.3,0.3c-0.5,1.8-1.6,2.8-3.3,2.8
			C26.4,260.9,24.8,259.2,24.8,255.9z"/>
		<path fill="#3DAFFC" d="M33.5,247.3h1.4v8.7c0.2-0.4,0.8-1.2,1.3-1.9l2.2-3h1.5l-2.6,3.5l2.9,6h-1.5l-2.3-4.8l-1.5,2v2.8h-1.4
			V247.3z"/>
		<path fill="#3DAFFC" d="M44.8,257.7l1.3-0.6c0.6,1.4,1.6,2.4,3.1,2.4c1.6,0,2.5-0.8,2.5-2.1c0-1.5-1.3-2.2-2.7-2.9
			c-1.7-0.8-3.6-1.7-3.6-4.1c0-1.9,1.6-3.3,3.6-3.3c2.1,0,3.3,1.3,4,2.8l-1.3,0.6c-0.5-1.1-1.3-2.1-2.7-2.1c-1.3,0-2.1,0.8-2.1,1.9
			c0,1.5,1.3,2.2,2.7,2.9c1.7,0.8,3.6,1.7,3.6,4.1c0,1.9-1.5,3.5-4,3.5C47,260.9,45.6,259.7,44.8,257.7z"/>
		<path fill="#3DAFFC" d="M55.2,247.3h1.5v5.1c0.6-0.7,1.8-1.5,3-1.5c1.5,0,2.3,0.9,2.3,2.6v7.1h-1.4v-6.8c0-1.1-0.4-1.7-1.4-1.7
			c-0.9,0-1.9,0.7-2.6,1.4v7.1h-1.5V247.3z"/>
		<path fill="#3DAFFC" d="M63.7,255.9c0-3.4,1.8-5,3.7-5c2.1,0,3.4,1.7,3.4,4.9v0.4h-5.6c0.1,2.2,0.9,3.4,2.3,3.4
			c1.1,0,1.7-0.6,2.3-1.7l1,0.6c-0.7,1.4-1.8,2.3-3.3,2.3C65.3,260.9,63.7,259.2,63.7,255.9z M69.4,255.1c-0.1-1.7-0.7-2.9-2-2.9
			c-1.1,0-2,0.9-2.2,2.9H69.4z"/>
		<path fill="#3DAFFC" d="M72.2,255.9c0-3.4,1.8-5,3.7-5c2.1,0,3.4,1.7,3.4,4.9v0.4h-5.6c0.1,2.2,0.9,3.4,2.3,3.4
			c1.1,0,1.7-0.6,2.3-1.7l1,0.6c-0.7,1.4-1.8,2.3-3.3,2.3C73.8,260.9,72.2,259.2,72.2,255.9z M77.9,255.1c-0.1-1.7-0.7-2.9-2-2.9
			c-1.1,0-2,0.9-2.2,2.9H77.9z"/>
		<path fill="#3DAFFC" d="M81.1,251.2h1.5v1.2c0.6-0.7,1.4-1.4,2.6-1.4c1.9,0,3.2,1.5,3.2,4.9c0,3.4-1.4,4.9-3.3,4.9
			c-1.1,0-1.9-0.5-2.5-1.3v4.8h-1.5V251.2z M87,255.9c0-2.5-0.9-3.7-2.1-3.7c-0.9,0-1.7,0.6-2.2,1.3v4.8c0.7,0.8,1.4,1.3,2.3,1.3
			C86.1,259.6,87,258.5,87,255.9z"/>
		<path fill="#3DAFFC" d="M2.6,277.3h2.9c3.7,0,5.7,2,5.7,6.6c0,4.7-2,6.7-5.7,6.7H2.6V277.3z M5.7,289.3c2.7,0,3.9-1.6,3.9-5.3
			c0-3.7-1.3-5.3-4-5.3H4.1v10.6H5.7z"/>
		<path fill="#3DAFFC" d="M12.7,285.9c0-3.3,1.6-5,3.8-5c2.1,0,3.7,1.7,3.7,5c0,3.3-1.6,5-3.7,5S12.7,289.2,12.7,285.9z M18.8,285.9
			c0-2.1-0.7-3.7-2.3-3.7c-1.5,0-2.3,1.5-2.3,3.7c0,2.1,0.7,3.7,2.3,3.7C18,289.6,18.8,288.2,18.8,285.9z"/>
		<path fill="#3DAFFC" d="M21.3,288.9l1-0.7c0.6,1,1.6,1.5,2.6,1.5c1.2,0,1.9-0.5,1.9-1.4c0-2.3-5-1.4-5-4.8c0-1.5,1.2-2.6,3-2.6
			c1.4,0,2.4,0.7,3.1,1.7l-1,0.8c-0.5-0.7-1.2-1.3-2.2-1.3c-1.1,0-1.6,0.5-1.6,1.3c0,2.4,4.9,1.3,4.9,4.8c0,1.7-1.5,2.7-3.3,2.7
			C23.2,290.9,22,290.1,21.3,288.9z"/>
		<path fill="#3DAFFC" d="M33.2,284c0-4.3,1.8-6.9,4.8-6.9c2.4,0,3.6,1.6,4.1,4.2l-1.4,0.3c-0.5-2.1-1.2-3.1-2.8-3.1
			c-1.9,0-3.2,1.9-3.2,5.5c0,3.8,1.2,5.6,3.3,5.6c1.8,0,2.8-1.3,2.8-4h-2.5v-1.3h3.9v6.4h-1.2v-1.8h0c-0.4,1-1.5,2.1-3.1,2.1
			C34.8,290.9,33.2,288.4,33.2,284z"/>
		<path fill="#3DAFFC" d="M44,288.4c0-1.9,1.6-3.3,5.3-4v-0.6c0-1.1-0.5-1.6-1.4-1.6c-1.2,0-2.1,0.6-2.8,1.3l-0.8-0.9
			c1-1,2.3-1.7,3.8-1.7c1.9,0,2.7,1,2.7,2.9v4.5c0,1.2,0.1,1.9,0.2,2.3h-1.5c-0.1-0.4-0.2-0.7-0.2-1.2c-0.8,0.8-1.8,1.4-3,1.4
			C44.8,290.8,44,289.9,44,288.4z M49.3,288.4v-2.9c-2.9,0.6-3.9,1.6-3.9,2.8c0,1,0.5,1.4,1.3,1.4C47.7,289.6,48.6,289.1,49.3,288.4
			z"/>
		<path fill="#3DAFFC" d="M53.5,288.5v-6.2h-1.4v-1.2h1.4v-3.4H55v3.4h2.1v1.2H55v5.8c0,1,0.3,1.4,1.3,1.4c0.3,0,0.6-0.1,0.8-0.1
			v1.2c-0.2,0.1-0.7,0.1-1.1,0.1C54.2,290.8,53.5,290.2,53.5,288.5z"/>
		<path fill="#3DAFFC" d="M58.4,285.9c0-3.3,1.6-5,3.8-5c2.1,0,3.7,1.7,3.7,5c0,3.3-1.6,5-3.7,5C60,290.9,58.4,289.2,58.4,285.9z
			 M64.4,285.9c0-2.1-0.7-3.7-2.3-3.7c-1.5,0-2.3,1.5-2.3,3.7c0,2.1,0.7,3.7,2.3,3.7C63.6,289.6,64.4,288.2,64.4,285.9z"/>
		<path fill="#3DAFFC" d="M66.9,288.9l1-0.7c0.6,1,1.6,1.5,2.6,1.5c1.2,0,1.9-0.5,1.9-1.4c0-2.3-5-1.4-5-4.8c0-1.5,1.2-2.6,3-2.6
			c1.4,0,2.4,0.7,3.1,1.7l-1,0.8c-0.5-0.7-1.2-1.3-2.2-1.3c-1.1,0-1.6,0.5-1.6,1.3c0,2.4,4.9,1.3,4.9,4.8c0,1.7-1.5,2.7-3.3,2.7
			C68.8,290.9,67.7,290.1,66.9,288.9z"/>
		<path fill="#3DAFFC" d="M1.7,307.3h1.5l2,7.2c0.4,1.5,0.8,2.8,1.1,4.1h0c0.3-1.3,0.7-2.5,1.1-4l2-7.2h1.4L7,320.7H5.6L1.7,307.3z"
			/>
		<path fill="#3DAFFC" d="M12,315.9c0-3.3,1.6-5,3.8-5c2.1,0,3.7,1.7,3.7,5c0,3.3-1.6,5-3.7,5S12,319.2,12,315.9z M18,315.9
			c0-2.1-0.7-3.7-2.3-3.7c-1.5,0-2.3,1.5-2.3,3.7c0,2.1,0.7,3.7,2.3,3.7C17.3,319.6,18,318.2,18,315.9z"/>
		<path fill="#3DAFFC" d="M21.4,307.3h1.5v13.3h-1.5V307.3z"/>
		<path fill="#3DAFFC" d="M24.5,318.9l1-0.7c0.6,1,1.6,1.5,2.6,1.5c1.2,0,1.9-0.5,1.9-1.4c0-2.3-5-1.4-5-4.8c0-1.5,1.2-2.6,3-2.6
			c1.4,0,2.4,0.7,3.1,1.7l-1,0.8c-0.5-0.7-1.2-1.3-2.2-1.3c-1.1,0-1.6,0.5-1.6,1.3c0,2.4,4.9,1.3,4.9,4.8c0,1.7-1.5,2.7-3.3,2.7
			C26.4,320.9,25.3,320.1,24.5,318.9z"/>
		<path fill="#3DAFFC" d="M33.7,318.5v-6.2h-1.4v-1.2h1.4v-3.4h1.4v3.4h2.1v1.2h-2.1v5.8c0,1,0.3,1.4,1.3,1.4c0.3,0,0.6-0.1,0.8-0.1
			v1.2c-0.2,0.1-0.7,0.1-1.1,0.1C34.4,320.8,33.7,320.2,33.7,318.5z"/>
		<path fill="#3DAFFC" d="M38.5,315.9c0-3.4,1.8-5,3.7-5c2.1,0,3.4,1.7,3.4,4.9v0.4H40c0.1,2.2,0.9,3.4,2.3,3.4
			c1.1,0,1.7-0.6,2.3-1.7l1,0.6c-0.7,1.4-1.8,2.3-3.3,2.3C40.1,320.9,38.5,319.2,38.5,315.9z M44.2,315.1c-0.1-1.7-0.7-2.9-2-2.9
			c-1.1,0-2,0.9-2.2,2.9H44.2z"/>
		<path fill="#3DAFFC" d="M47,318.4c0-1.9,1.6-3.3,5.3-4v-0.6c0-1.1-0.5-1.6-1.4-1.6c-1.2,0-2.1,0.6-2.8,1.3l-0.8-0.9
			c1-1,2.3-1.7,3.8-1.7c1.9,0,2.7,1,2.7,2.9v4.5c0,1.2,0.1,1.9,0.2,2.3h-1.5c-0.1-0.4-0.2-0.7-0.2-1.2c-0.8,0.8-1.8,1.4-3,1.4
			C47.8,320.8,47,319.9,47,318.4z M52.3,318.4v-2.9c-2.9,0.6-3.9,1.6-3.9,2.8c0,1,0.5,1.4,1.3,1.4C50.7,319.6,51.6,319.1,52.3,318.4
			z"/>
		<path fill="#3DAFFC" d="M55.5,315.9c0-3.4,1.4-5,3.3-5c1.1,0,1.9,0.5,2.6,1.3v-5h1.4v11c0,1.2,0.1,1.9,0.2,2.3h-1.5
			c-0.1-0.3-0.2-0.9-0.2-1.2c-0.6,0.7-1.4,1.4-2.6,1.4C56.9,320.8,55.5,319.4,55.5,315.9z M61.4,318.3v-4.8
			c-0.7-0.8-1.4-1.3-2.3-1.3c-1.3,0-2.1,1.1-2.1,3.7c0,2.5,0.9,3.7,2.2,3.7C60,319.6,60.8,319,61.4,318.3z"/>
	</g>
	<g>
		
			<path fill-rule="evenodd" clip-rule="evenodd" fill="none" stroke="#3DAFFC" stroke-width="2" stroke-linecap="round" stroke-linejoin="round" stroke-miterlimit="10" d="
			M252.9,249.3l-3.2,36.3c-0.3,2.3-2.3,4.1-4.7,4.1h-23.1c-2.4,0-4.4-1.7-4.7-4.1l-4.2-36.3H252.9z"/>
		
			<line fill="none" stroke="#3DAFFC" stroke-width="2" stroke-linecap="round" stroke-linejoin="round" stroke-miterlimit="10" x1="215.1" y1="265.3" x2="251.1" y2="265.3"/>
		
			<line fill="none" stroke="#3DAFFC" stroke-width="2" stroke-linecap="round" stroke-linejoin="round" stroke-miterlimit="10" x1="222.3" y1="281.5" x2="229.1" y2="274.7"/>
		
			<line fill="none" stroke="#3DAFFC" stroke-width="2" stroke-linecap="round" stroke-linejoin="round" stroke-miterlimit="10" x1="223.6" y1="274.4" x2="227.6" y2="270.4"/>
		
			<line fill="none" stroke="#3DAFFC" stroke-width="2" stroke-linecap="round" stroke-linejoin="round" stroke-miterlimit="10" x1="232.2" y1="271.6" x2="232.4" y2="271.4"/>
		<g>
			<g>
				
					<line fill="none" stroke="#3DAFFC" stroke-width="2" stroke-linecap="round" stroke-linejoin="round" stroke-miterlimit="10" x1="259.2" y1="248.4" x2="253.1" y2="249.1"/>
				
					<line fill="none" stroke="#3DAFFC" stroke-width="2" stroke-linecap="round" stroke-linejoin="round" stroke-miterlimit="10" x1="252.3" y1="248.4" x2="251.6" y2="242.3"/>
				
					<line fill="none" stroke="#3DAFFC" stroke-width="2" stroke-linecap="round" stroke-linejoin="round" stroke-miterlimit="10" x1="251.1" y1="248.3" x2="247" y2="244.9"/>
				
					<line fill="none" stroke="#3DAFFC" stroke-width="2" stroke-linecap="round" stroke-linejoin="round" stroke-miterlimit="10" x1="257.8" y1="253.5" x2="253.2" y2="249.9"/>
				
					<line fill="none" stroke="#3DAFFC" stroke-width="2" stroke-linecap="round" stroke-linejoin="round" stroke-miterlimit="10" x1="253" y1="248.5" x2="256.7" y2="243.8"/>
				
					<path fill="none" stroke="#3DAFFC" stroke-width="2" stroke-linecap="round" stroke-linejoin="round" stroke-miterlimit="10" d="
					M256.6,243.9c0.2-0.8-0.7-1.8-2-2.2c-1.4-0.4-2.7,0-2.9,0.8"/>
				
					<path fill="none" stroke="#3DAFFC" stroke-width="2" stroke-linecap="round" stroke-linejoin="round" stroke-miterlimit="10" d="
					M259.1,248.4c0.8-0.4,0.8-1.8,0.2-3c-0.7-1.2-1.9-1.9-2.6-1.5"/>
				
					<path fill="none" stroke="#3DAFFC" stroke-width="2" stroke-linecap="round" stroke-linejoin="round" stroke-miterlimit="10" d="
					M257.7,253.4c0.8,0.2,1.8-0.7,2.2-2c0.4-1.4,0-2.7-0.8-2.9"/>
				
					<path fill="none" stroke="#3DAFFC" stroke-width="2" stroke-linecap="round" stroke-linejoin="round" stroke-miterlimit="10" d="
					M251.6,242.5c-0.4-0.8-1.8-0.8-3-0.2c-1.2,0.7-1.9,1.9-1.5,2.6"/>
			</g>
			<g>
				
					<path fill="none" stroke="#3DAFFC" stroke-width="2" stroke-linecap="round" stroke-linejoin="round" stroke-miterlimit="10" d="
					M247.4,245.1c-0.8-0.2-2.5,1-2.3,3.7"/>
				
					<path fill="none" stroke="#3DAFFC" stroke-width="2" stroke-linecap="round" stroke-linejoin="round" stroke-miterlimit="10" d="
					M252.5,254.8c0.4,0.8,2,2,4,1.3c1.3-0.5,1.9-1.9,1.5-2.6"/>
			</g>
		</g>
		
			<line fill="none" stroke="#3DAFFC" stroke-width="2" stroke-linecap="round" stroke-linejoin="round" stroke-miterlimit="10" x1="240.2" y1="277.6" x2="221.2" y2="241"/>
		<path fill="none" stroke="#3DAFFC" stroke-width="2" stroke-linecap="round" stroke-linejoin="round" stroke-miterlimit="10" d="
			M239.8,249.2c0-7,5.7-12.8,12.8-12.8s12.8,5.7,12.8,12.8c0,7-5.7,12.7-12.8,12.7"/>
	</g>
</g>
</svg>
