<?xml version="1.0" encoding="utf-8"?>
<!-- Generator: Adobe Illustrator 17.1.0, SVG Export Plug-In . SVG Version: 6.00 Build 0)  -->
<!DOCTYPE svg PUBLIC "-//W3C//DTD SVG 1.1//EN" "http://www.w3.org/Graphics/SVG/1.1/DTD/svg11.dtd">
<svg version="1.1" id="Layer_1" xmlns="http://www.w3.org/2000/svg" xmlns:xlink="http://www.w3.org/1999/xlink" x="0px" y="0px"
	 viewBox="0 0 104 90" enable-background="new 0 0 104 90" xml:space="preserve">
<g>
	<g>
		
			<path fill-rule="evenodd" clip-rule="evenodd" fill="none" stroke="#3DAFFC" stroke-width="2" stroke-linecap="round" stroke-linejoin="round" stroke-miterlimit="10" d="
			M27,38.5h-1.8c-1.8,0-3.3-1.5-3.3-3.3v-1.6c0-1.8,1.5-3.3,3.3-3.3h5.4c0.5,0,0.8,0.2,1.2,0.5l4.7,4.7c0.8,0.8,2.1,0.8,2.8,0
			l4.7-4.7c0.3-0.3,0.7-0.5,1.2-0.5h32.9c1.8,0,3.3,1.5,3.3,3.3v1.6c0,1.8-1.5,3.3-3.3,3.3h-1.3"/>
		
			<line fill="none" stroke="#3DAFFC" stroke-width="2" stroke-linecap="round" stroke-linejoin="round" stroke-miterlimit="10" x1="44.5" y1="11.8" x2="44.5" y2="11.8"/>
		
			<line fill="none" stroke="#3DAFFC" stroke-width="2" stroke-linecap="round" stroke-linejoin="round" stroke-miterlimit="10" x1="58.9" y1="11.8" x2="58.9" y2="11.8"/>
		
			<line fill="none" stroke="#3DAFFC" stroke-width="2" stroke-linecap="round" stroke-linejoin="round" stroke-miterlimit="10" x1="69.1" y1="43.6" x2="69.1" y2="43.6"/>
		
			<line fill="none" stroke="#3DAFFC" stroke-width="2" stroke-linecap="round" stroke-linejoin="round" stroke-miterlimit="10" x1="52.7" y1="43.6" x2="52.7" y2="43.6"/>
		
			<line fill="none" stroke="#3DAFFC" stroke-width="2" stroke-linecap="round" stroke-linejoin="round" stroke-miterlimit="10" x1="34.2" y1="43.6" x2="34.2" y2="43.6"/>
		
			<line fill="none" stroke="#3DAFFC" stroke-width="2" stroke-linecap="round" stroke-linejoin="round" stroke-miterlimit="10" x1="51.7" y1="16.9" x2="51.7" y2="16.9"/>
		
			<line fill="none" stroke="#3DAFFC" stroke-width="2" stroke-linecap="round" stroke-linejoin="round" stroke-miterlimit="10" x1="35.3" y1="16.9" x2="35.3" y2="16.9"/>
		
			<line fill="none" stroke="#3DAFFC" stroke-width="2" stroke-linecap="round" stroke-linejoin="round" stroke-miterlimit="10" x1="67.1" y1="16.9" x2="67.1" y2="16.9"/>
		
			<path fill-rule="evenodd" clip-rule="evenodd" fill="none" stroke="#3DAFFC" stroke-width="2" stroke-linecap="round" stroke-linejoin="round" stroke-miterlimit="10" d="
			M51.7,6.6c-13.7,0-25,6.1-26.3,13.8c-0.1,0.4,0,0.8,0.3,1.1c0.3,0.3,0.6,0.5,1,0.5h50.1c0.4,0,0.7-0.2,1-0.5
			c0.3-0.3,0.3-0.7,0.3-1.1C76.7,12.7,65.4,6.6,51.7,6.6L51.7,6.6z"/>
		
			<path fill-rule="evenodd" clip-rule="evenodd" fill="none" stroke="#3DAFFC" stroke-width="2" stroke-linecap="round" stroke-linejoin="round" stroke-miterlimit="10" d="
			M78.1,39.7v2.4c0,3.6-3,6.6-6.6,6.6H31.8c-3.6,0-6.6-3-6.6-6.6v-2.4c0-0.7,0.6-1.3,1.3-1.3h50.4C77.6,38.5,78.1,39,78.1,39.7
			L78.1,39.7z"/>
		
			<path fill-rule="evenodd" clip-rule="evenodd" fill="none" stroke="#3DAFFC" stroke-width="2" stroke-linecap="round" stroke-linejoin="round" stroke-miterlimit="10" d="
			M70.1,22c0,1.7-1.4,3.1-3.1,3.1c-1.7,0-3.1-1.4-3.1-3.1"/>
		
			<path fill-rule="evenodd" clip-rule="evenodd" fill="none" stroke="#3DAFFC" stroke-width="2" stroke-linecap="round" stroke-linejoin="round" stroke-miterlimit="10" d="
			M72.3,30.2c1.6,0,3-1.3,3-3V25c0-1.6-1.3-3-3-3"/>
		
			<path fill-rule="evenodd" clip-rule="evenodd" fill="none" stroke="#3DAFFC" stroke-width="2" stroke-linecap="round" stroke-linejoin="round" stroke-miterlimit="10" d="
			M46.5,30.2c0-2.3,1.8-4.1,4.1-4.1c2.3,0,4.1,1.8,4.1,4.1"/>
		
			<path fill-rule="evenodd" clip-rule="evenodd" fill="none" stroke="#3DAFFC" stroke-width="2" stroke-linecap="round" stroke-linejoin="round" stroke-miterlimit="10" d="
			M31,22c-1.6,0-3,1.3-3,3v2.3c0,1.6,1.3,3,3,3"/>
		<path fill="none" stroke="#3DAFFC" stroke-width="2" stroke-linecap="round" stroke-linejoin="round" stroke-miterlimit="10" d="
			M39.4,22c0,2.3-1.8,4.1-4.1,4.1c-2.3,0-4.1-1.8-4.1-4.1"/>
	</g>
	<g>
		<path fill="#3DAFFC" d="M29.2,81.9v2.4h-7.6V73h2.8v8.8H29.2z"/>
		<path fill="#3DAFFC" d="M42.3,79.5c0,3-2,4.8-5.1,4.8c-3.2,0-5.2-1.9-5.2-4.8V73h2.8v6.5c0,1.5,1,2.4,2.3,2.4
			c1.3,0,2.3-0.9,2.3-2.4V73h2.8V79.5z"/>
		<path fill="#3DAFFC" d="M53.7,84.2l-5.2-6.9v6.9h-2.7V73h2.5l5.2,6.9V73h2.7v11.2H53.7z"/>
		<path fill="#3DAFFC" d="M69.8,74.8l-1.6,2c-0.7-0.9-1.8-1.5-2.8-1.5c-1.8,0-3.1,1.4-3.1,3.2c0,1.9,1.3,3.3,3.1,3.3
			c0.9,0,2-0.5,2.8-1.3l1.7,1.8c-1.2,1.2-3,2-4.6,2c-3.4,0-5.9-2.5-5.9-5.8c0-3.2,2.6-5.7,6-5.7C67,72.9,68.7,73.7,69.8,74.8z"/>
		<path fill="#3DAFFC" d="M80.2,84.2v-4.4h-4.6v4.4h-2.8V73h2.8v4.6h4.6V73h2.8v11.2H80.2z"/>
	</g>
</g>
</svg>
