<?xml version="1.0" encoding="utf-8"?>
<!-- Generator: Adobe Illustrator 17.1.0, SVG Export Plug-In . SVG Version: 6.00 Build 0)  -->
<!DOCTYPE svg PUBLIC "-//W3C//DTD SVG 1.1//EN" "http://www.w3.org/Graphics/SVG/1.1/DTD/svg11.dtd">
<svg version="1.1" id="Layer_1" xmlns="http://www.w3.org/2000/svg" xmlns:xlink="http://www.w3.org/1999/xlink" x="0px" y="0px"
	 viewBox="0 0 868.9 302.2" enable-background="new 0 0 868.9 302.2" xml:space="preserve">
<rect x="540.8" y="171.6" fill="#353535" width="274.1" height="6.3"/>
<g>
	
		<circle fill-rule="evenodd" clip-rule="evenodd" fill="none" stroke="#353535" stroke-width="3" stroke-linecap="round" stroke-linejoin="round" stroke-miterlimit="10" cx="833" cy="174.7" r="18.5"/>
	
		<ellipse transform="matrix(0.4882 0.8727 -0.8727 0.4882 567.3909 -638.5054)" fill="none" stroke="#353535" stroke-width="3" stroke-linecap="round" stroke-linejoin="round" stroke-miterlimit="10" cx="828.1" cy="164.5" rx="2.1" ry="2.6"/>
	<path fill="none" stroke="#353535" stroke-width="3" stroke-linecap="round" stroke-linejoin="round" stroke-miterlimit="10" d="
		M819.3,162.1c-0.4-0.5,0.1-1.6,1.2-2.5c1.1-0.9,2.3-1.2,2.7-0.7"/>
	<path fill="none" stroke="#353535" stroke-width="3" stroke-linecap="round" stroke-linejoin="round" stroke-miterlimit="10" d="
		M844.6,160.2c0.3-0.3,1.1,0,1.8,0.6s1,1.4,0.7,1.7"/>
	<path fill="none" stroke="#353535" stroke-width="3" stroke-linecap="round" stroke-linejoin="round" stroke-miterlimit="10" d="
		M823.2,190.5c-0.2,0.4-0.8,0.4-1.2,0.1c-0.4-0.3-0.6-0.8-0.3-1.2"/>
	<path fill="none" stroke="#353535" stroke-width="3" stroke-linecap="round" stroke-linejoin="round" stroke-miterlimit="10" d="
		M848,185.5c0.3,0.3,0.1,1.1-0.5,1.8c-0.6,0.7-1.3,1.1-1.7,0.8"/>
	<path fill="none" stroke="#353535" stroke-width="3" stroke-linecap="round" stroke-linejoin="round" stroke-miterlimit="10" d="
		M841.5,164.6c0.7-0.4,1.6,0.1,2.1,1c0.5,0.9,0.4,2-0.2,2.3"/>
	
		<ellipse transform="matrix(0.5997 -0.8002 0.8002 0.5997 182.4642 734.6219)" fill="none" stroke="#353535" stroke-width="3" stroke-linecap="round" stroke-linejoin="round" stroke-miterlimit="10" cx="825.5" cy="184.9" rx="1.4" ry="1.9"/>
	<path fill="none" stroke="#353535" stroke-width="3" stroke-linecap="round" stroke-linejoin="round" stroke-miterlimit="10" d="
		M844.9,181.4c0.4,0.3,0.4,1.1,0,1.6c-0.4,0.5-1.1,0.7-1.6,0.4"/>
	<path fill="none" stroke="#353535" stroke-width="3" stroke-linecap="round" stroke-linejoin="round" stroke-miterlimit="10" d="
		M820.8,174.2c-0.6-0.1-1-0.8-0.9-1.5c0.1-0.7,0.7-1.2,1.3-1.1"/>
	
		<ellipse transform="matrix(0.953 0.303 -0.303 0.953 92.7644 -244.7352)" fill="none" stroke="#353535" stroke-width="3" stroke-linecap="round" stroke-linejoin="round" stroke-miterlimit="10" cx="835.2" cy="176.6" rx="2.9" ry="3.2"/>
</g>
<path fill="#353535" stroke="#353535" stroke-linecap="round" stroke-linejoin="round" stroke-miterlimit="10" d="M231.2,301.7
	c-0.4,0-0.7-0.1-1.1-0.2l-17.9-6.3c-0.7-0.3-1.3-0.8-1.7-1.4l-22.3-38l-9.4-1l-5.1,7.8c-0.6,0.9-1.6,1.5-2.7,1.5
	c-0.8,0-1.5-0.3-2.1-0.8l-12.7-10.8c-0.7-0.6-1.1-1.4-1.1-2.2l-0.5-7.1l-15.1-16.1l-13.6-1.8l-0.5,2.5c-0.3,1.5-1.6,2.6-3.2,2.6
	c-0.2,0-0.3,0-0.5,0l-24.7-4c-0.4-0.1-0.8-0.2-1.2-0.5l-34-21.6l-19.8-2.7c-0.9-0.1-1.6-0.6-2.2-1.3c-0.5-0.7-0.7-1.6-0.6-2.4
	l0.7-5.1l-24.2-29.2c-0.3-0.4-0.5-0.8-0.6-1.3l-9.3-36.4L0.5,95.1c-0.1-0.6,0-1.1,0.1-1.7l23.4-64.8l-0.6-19c0-0.4,0.1-0.9,0.2-1.3
	l1.5-3.8c0.5-1.3,1.7-2.1,3-2.1c0.6,0,1.1,0.1,1.6,0.4l10.4,5.9c1.4,0.8,2,2.5,1.4,4L41,14.5l0.4-0.2l1.8-8.1l-0.4-1.5
	c-0.3-1-0.1-2,0.5-2.9c0.6-0.8,1.6-1.3,2.6-1.3c0.3,0,0.6,0,0.8,0.1c117,30.2,206.6,30.9,210.3,30.9c0.2,0,0.5,0,0.7,0.1l36.1,8.5
	c1.2,0.3,2.1,1.2,2.4,2.4c0.3,1.2-0.1,2.4-1,3.2l-12.1,10.4l8.8,0.5l11.7-7c0.5-0.3,1.1-0.5,1.7-0.5c1.8,0,3.3,1.5,3.3,3.3v0.8
	l8.2,3.4l6-1l10.1-3c0.3-0.1,0.6-0.1,0.9-0.1c0.4,0,0.8,0.1,1.2,0.2l6.3,2.5c1.1,0.5,1.9,1.5,2,2.7l0.2,2.5c0.1,0.9-0.2,1.8-0.8,2.5
	c-0.6,0.7-1.5,1.1-2.4,1.1l-6.9-0.3L321.4,69l-2.5,5.6l1.2,2.7c0.2,0.5,0.3,1,0.3,1.6l-2.1,25.9l2.7,6.7l3.4-0.6l3-12.2l-2.1-4.4
	c-0.2-0.5-0.3-1-0.3-1.6l0.6-14.1c0-0.8,0.4-1.6,0.9-2.2l10.7-10.7c0.6-0.6,1.4-1,2.3-1c0.4,0,0.8,0.1,1.1,0.2l9.4,3.5
	c1,0.4,1.8,1.2,2,2.2l2,7.9c0.2,0.9,0.1,1.8-0.4,2.5l-0.7,1.2c0.5-0.2,1-0.4,1.5-0.4c0.8,0,1.6,0.3,2.2,0.9L360,86
	c0.7,0.6,1.1,1.6,1.1,2.5l-0.4,10.7c0,0.3-0.1,0.6-0.2,0.9l-3,8.9l11.3,0.5l21.3-17.9l-0.8-2.7c-0.5-1.7,0.4-3.4,2.1-4l19.2-6.5
	l-0.9-3c-0.2-0.9-0.1-1.8,0.3-2.5l7.3-12.2c0.5-0.8,1.2-1.3,2.1-1.5l24.7-5.5l0-0.7c0.1-1.3,1-2.5,2.3-2.9l2.9-0.9l3.7-22.9
	c0.2-1.5,1.5-2.6,3-2.7l4.9-0.3l1.2-1.6c0.6-0.7,1.4-1.2,2.3-1.3l4.3-0.3l0.2,0c1.5,0,2.8,1,3.2,2.5c2.4,10.7,3.1,14.3,3.3,15.6
	c0.7,0.6,2.9,2.2,7.9,5.4c0.8,0.5,1.3,1.3,1.5,2.3c0.1,0.9-0.1,1.9-0.8,2.6l-6.6,7.4c-0.6,0.7-1.5,1.1-2.4,1.1c-0.1,0-0.2,0-0.4,0
	l-3.1-0.4l-0.7,3.3c-0.1,0.5-0.3,0.9-0.6,1.3l-10.3,13.6l1.2,3.2c0.2,0.4,0.2,0.9,0.2,1.4l-0.3,3.3l6.1,1c0.5,0.1,0.9,0.2,1.3,0.5
	l1.3,0.9c0.9,0.6,1.4,1.6,1.4,2.6c0,1.1-0.5,2.1-1.3,2.7l-5.6,4.1c-0.6,0.4-1.2,0.6-1.9,0.6c-0.6,0-1.2-0.2-1.7-0.5l-0.3-0.2l0,0.4
	c-0.1,1.3-0.9,2.4-2,2.9l-14.7,5.9l-4.4,6.1l2.2,3.2c0.6,0.9,0.7,1.9,0.4,2.9l-4,11.4c-0.5,1.3-1.7,2.2-3.1,2.2
	c-0.4,0-0.9-0.1-1.3-0.3l-0.4-0.2l3.4,5c0.6,0.9,0.7,2,0.3,3l-3.9,10c-0.5,1.3-1.7,2.1-3,2.1c-1.7,0-3.1-1.2-3.2-2.9l-0.4-4l-3-9
	l-0.9,0.2l4.3,16.1l5,6.4c0.4,0.5,0.6,1.1,0.7,1.8l1.2,19.4c0.1,1-0.3,1.9-1,2.6l-17.4,16.4l-17.6,20.9l-6.2,18.7l20,38.5
	c0.2,0.4,0.4,1,0.4,1.5l0.2,18.1c0,1.4-0.8,2.6-2.1,3.1l-5.8,2.1c-0.4,0.1-0.7,0.2-1.1,0.2c-0.8,0-1.6-0.3-2.2-0.9l-8.6-8.2
	c-0.3-0.3-0.6-0.7-0.7-1.1l-12.9-30.4l-15.6-10.5l-8.2,4.6c-0.5,0.3-1,0.4-1.6,0.4c-0.5,0-1-0.1-1.5-0.4l-9.8-5l-38.4,2l0,0.1
	c0,0,6.8-0.3,6.8-0.3c1.2,0,2.2,0.5,2.8,1.4c0.6,0.9,0.7,2,0.3,3l-2.5,6.4c-0.5,1.2-1.6,2-2.9,2.1c0,0-12.2,0.4-12.2,0.4
	c-0.7,0-1.3-0.2-1.8-0.5l-7.3-4.4l-20.9-0.2l-14.4,12.6c-0.6,0.5-1.4,0.8-2.1,0.8l-0.2,0l-6-0.3l-10.3,15.5l1.7,11.3
	c0.1,0.9-0.1,1.9-0.8,2.6C233.1,301.3,232.2,301.7,231.2,301.7z"/>
<path fill="#445DD8" stroke="#353535" stroke-width="2" stroke-linecap="round" stroke-linejoin="round" stroke-miterlimit="10" d="
	M83.6,11.3c-12.2-2.7-24.8-5.6-37.7-9c-0.9-0.2-1.6,0.6-1.4,1.4l0.6,2c0.1,0.2,0.1,0.4,0,0.6l-2,8.6c-0.1,0.3-0.3,0.6-0.6,0.7
	l-2.6,1.4c-0.9,0.5-2-0.4-1.6-1.4l1.5-3.8c0.2-0.5,0-1.1-0.5-1.4L28.7,4.4C28.1,4.1,27.3,4.3,27,5l-1.6,4.1
	c-0.1,0.1-0.1,0.3-0.1,0.4L26,27.7c0,0.4,0.3,0.8,0.7,1l6.1,2.8c0.4,0.2,0.7,0.6,0.7,1.1l-0.3,4c0,0.5,0.3,1,0.8,1.2l1.9,0.6
	l5.2,1.8l3.5,1.2c0.1,0,0.2,0.1,0.4,0.1l17.8,0.1c0.1,0,0.2,0,0.3,0l13.3,3.1c0.6,0.1,1.2-0.2,1.4-0.9l6.9-31.2
	C84.6,12.1,84.2,11.5,83.6,11.3z"/>
<path fill="#445DD8" stroke="#353535" stroke-width="2" stroke-linecap="round" stroke-linejoin="round" stroke-miterlimit="10" d="
	M79.6,52.1c0.3-0.4,0.3-0.9,0.1-1.3l-2.1-3.5c-0.2-0.3-0.4-0.5-0.7-0.5l-14.4-3.4c-0.1,0-0.2,0-0.3,0l-18-0.2c-0.1,0-0.2,0-0.4-0.1
	l-5.1-1.7l-2.1-0.7l-4.9-1.7c-0.5-0.2-0.8-0.7-0.8-1.2l0.3-4.1c0-0.5-0.2-0.9-0.7-1.1l-4.1-1.9c-0.6-0.3-1.3,0-1.5,0.6L10.1,73
	c-0.2,0.6,0.1,1.3,0.7,1.5l32.1,10c0,0,0.1,0,0.1,0l22.4,4.9c0.6,0.1,1.2-0.2,1.3-0.8l5.9-21.1c0.1-0.4,0-0.9-0.3-1.1L71,65.1
	c-0.4-0.4-0.5-1.1-0.1-1.5L79.6,52.1z"/>
<path fill="#445DD8" stroke="#353535" stroke-width="2" stroke-linecap="round" stroke-linejoin="round" stroke-miterlimit="10" d="
	M237.8,33.7c-0.1-0.6-0.5-1-1.1-1c-12-0.6-28.9-1.9-49.7-4.2c-0.6-0.1-1.2,0.4-1.3,1L182.8,62c-0.1,0.6,0.4,1.2,1.1,1.2l56.1,2.7
	c0.7,0,1.3-0.6,1.2-1.3L237.8,33.7z"/>
<path fill="#445DD8" stroke="#353535" stroke-width="2" stroke-linecap="round" stroke-linejoin="round" stroke-miterlimit="10" d="
	M276.5,58.6l3.4-1.7c0.3-0.1,0.5-0.4,0.6-0.7c0.1-0.2,0.2-0.4,0.4-0.6L294.3,44c0.7-0.6,0.4-1.8-0.5-2l-36.5-8.6c-0.1,0-0.2,0-0.3,0
	c-0.9,0-6.6,0-16.1-0.5c-0.7,0-1.3,0.6-1.2,1.3l3.6,33.2c0,0,0,0.1,0,0.1l0.3,26.2c0,0.6,0.5,1.1,1.1,1.1l39.6-0.3
	c0.7,0,1.2-0.6,1.1-1.2l-0.2-2.2c0-0.4-0.2-0.7-0.5-0.9l-12.4-7.9c-0.3-0.2-0.5-0.6-0.5-1l0.7-13.3c0-0.4,0.2-0.7,0.6-0.9l2.4-1.3
	c0.4-0.2,0.6-0.6,0.6-1.1l-0.3-5C275.9,59.2,276.1,58.8,276.5,58.6z"/>
<path fill="#445DD8" stroke="#353535" stroke-width="2" stroke-linecap="round" stroke-linejoin="round" stroke-miterlimit="10" d="
	M241.9,97.1l-0.1-0.4L241.5,69c0-0.6-0.5-1.1-1.1-1.1l-56.8-2.8c-0.6,0-1.1,0.4-1.2,1l-2.8,29.6c-0.1,0.6,0.4,1.2,1.1,1.2l44.6,2.8
	c0.2,0,0.4,0.1,0.5,0.2l6.5,4c0.2,0.1,0.4,0.2,0.6,0.2h9.1c0.7,0,1.3-0.7,1.1-1.4L241.9,97.1z"/>
<path fill="#445DD8" stroke="#353535" stroke-width="2" stroke-linecap="round" stroke-linejoin="round" stroke-miterlimit="10" d="
	M342.5,113.1c-0.1-0.6-0.6-1.1-1.2-1l-13.3,1.3c-0.2,0-0.3,0-0.5-0.1l-2.3-0.8c0,0-0.1,0-0.1,0l-4.2,0.7c-0.1,0-0.2,0-0.3,0
	l-0.2,2.2c0,0,0,0,0,0l1.9,27.3c0,0,0,0,0,0.1l-2.9,16c0,0.2,0.1,0.3,0.3,0.3l16.4-3.5c0.3-0.1,0.5-0.2,0.7-0.5l8.7-13.1
	c0.1-0.2,0.2-0.5,0.2-0.8L342.5,113.1z"/>
<g>
	
		<path fill="#445DD8" stroke="#353535" stroke-width="2" stroke-linecap="round" stroke-linejoin="round" stroke-miterlimit="10" d="
		M440.6,103.5l-1.4-1.9c-0.1-0.1-0.2-0.3-0.2-0.5l-1.6-8.9c0-0.1,0-0.1,0-0.2v-8.1c0-0.1,0-0.2,0-0.3l-6.2-24
		c-0.2-0.6-0.8-1-1.4-0.8l-10,2.2c-0.3,0.1-0.6,0.3-0.7,0.5l-7.4,12.4c-0.2,0.3-0.2,0.6-0.1,0.9l1.1,3.8c0.2,0.6-0.2,1.2-0.7,1.4
		l-20.1,6.8c-0.6,0.2-0.9,0.8-0.7,1.4l1,3.4c0.1,0.4,0,0.9-0.4,1.2l-5.3,4.4c-0.3,0.3-0.5,0.7-0.4,1.1l0.7,2.7
		c0.1,0.6,0.7,1,1.3,0.8l35.2-6.8c0.4-0.1,0.7,0,1,0.3l6,5.7c0.1,0.1,0.3,0.2,0.4,0.3l6.5,2.2c0.3,0.1,0.5,0.3,0.6,0.5l0.7,1.2
		c0.4,0.7,1.4,0.8,1.9,0.1l0.3-0.4C440.9,104.4,440.9,103.9,440.6,103.5z"/>
	
		<path fill="#445DD8" stroke="#353535" stroke-width="2" stroke-linecap="round" stroke-linejoin="round" stroke-miterlimit="10" d="
		M430.7,115.7l-3.7-3.8c-0.3-0.3-0.4-0.7-0.3-1.1l1.9-7.8c0.1-0.4,0-0.8-0.3-1.1l-4.8-4.5c-0.3-0.3-0.6-0.4-1-0.3l-36,7
		c-0.6,0.1-1.2-0.3-1.3-0.8l-0.6-2.5c-0.2-0.8-1.2-1.1-1.8-0.6l-2.6,2.2c-0.3,0.3-0.5,0.7-0.4,1.1l4.2,24.5c0.1,0.6,0.7,1,1.3,0.9
		l37.8-6.5c0.3-0.1,0.6-0.2,0.7-0.5l1.2-1.7c0.2-0.3,0.5-0.5,0.9-0.5l2.8-0.2c0.4,0,0.7-0.2,0.9-0.5l1.2-2
		C431.2,116.6,431.1,116,430.7,115.7z"/>
</g>
<g>
	
		<path fill="#445DD8" stroke="#353535" stroke-width="2" stroke-linecap="round" stroke-linejoin="round" stroke-miterlimit="10" d="
		M482.6,45.3c-2.6-1.6-8.9-5.7-8.9-6.3c0-0.7-2.6-12.6-3.4-16.1c-0.1-0.6-0.6-0.9-1.2-0.9l-4.5,0.3c-0.3,0-0.6,0.2-0.8,0.4l-1.5,2
		c-0.2,0.3-0.5,0.4-0.8,0.4l-5.4,0.3c-0.5,0-1,0.4-1.1,1l-3.8,23.4c0,0.2-0.1,0.4-0.3,0.6c-0.3,0.3-0.4,0.7-0.3,1.1l5.8,18.7
		c0.1,0.2,0.2,0.4,0.3,0.5l1.4,1.3c0.5,0.4,1.3,0.4,1.7-0.2l9-11.9c0.1-0.1,0.2-0.3,0.2-0.5l0.8-4c0.1-0.6,0.7-1,1.2-0.9l3.9,0.5
		c0.4,0,0.7-0.1,1-0.4l6.8-7.7C483.3,46.5,483.2,45.7,482.6,45.3z"/>
	
		<path fill="#445DD8" stroke="#353535" stroke-width="2" stroke-linecap="round" stroke-linejoin="round" stroke-miterlimit="10" d="
		M458.2,75.3c-0.1-0.2-0.1-0.5-0.1-0.7l-3-2.7c-0.2-0.1-0.3-0.3-0.3-0.5L449,52.5c-0.2-0.6-0.8-0.9-1.4-0.8l-0.6,0.2
		c-0.5,0.1-0.8,0.5-0.8,1l-0.1,1.2c0,0.3-0.1,0.5-0.3,0.7l2.6,4c0.2,0.3,0.3,0.8,0.1,1.2l-2.7,5.1c-0.1,0.2-0.1,0.4-0.1,0.6
		l0.8,13.9c0,0.7,0.7,1.2,1.4,1l6.5-1.6c0.1,0,0.2,0,0.2-0.1l4.2-2L458.2,75.3z"/>
</g>
<path fill="#445DD8" stroke="#353535" stroke-width="2" stroke-linecap="round" stroke-linejoin="round" stroke-miterlimit="10" d="
	M428.8,155.3l-3.6-4.6c-0.1-0.1-0.2-0.3-0.2-0.4l-1.8-6.8c-0.1-0.4-0.4-0.7-0.8-0.8l-7-1.8c-0.5-0.1-0.9-0.7-0.8-1.2l0.3-2.9
	c0-0.4-0.2-0.8-0.5-1.1l-5-3.2c-0.5-0.3-1.1-0.2-1.5,0.2l-10.5,12c-0.3,0.4-0.8,0.5-1.3,0.3l-1.4-0.6c-0.6-0.3-1.3,0.1-1.5,0.7
	l-3.6,11.2c-0.1,0.4-0.5,0.7-0.9,0.8l-14.9,1.8c-0.3,0-0.5,0.2-0.7,0.4l-4.5,5.3c-0.7,0.8,0,2,1,1.9l58.5-9.4
	C429,156.9,429.4,155.9,428.8,155.3z"/>
<path fill="#445DD8" stroke="#353535" stroke-width="2" stroke-linecap="round" stroke-linejoin="round" stroke-miterlimit="10" d="
	M430.8,159.8c0-0.7-0.7-1.2-1.3-1.1l-49.7,8c-0.6,0.1-1,0.6-1,1.2l0.2,3.1c0,0.4-0.2,0.8-0.5,1l-20.1,12.7c-0.3,0.2-0.5,0.5-0.5,0.9
	l-0.1,1.4c0,0.7,0.6,1.3,1.3,1.2l8.4-1c0.1,0,0.3-0.1,0.4-0.1l5.8-3.1c0.1-0.1,0.3-0.1,0.5-0.1l13.3-0.6c0.4,0,0.7,0.1,0.9,0.4
	l1.6,2c0.3,0.3,0.7,0.5,1.1,0.4l8.7-1.6c0.3-0.1,0.6,0,0.9,0.2l13.2,10.3l0.1-0.1c0,0,0.1-0.1,0.1-0.1l17.5-16.4
	c0.2-0.2,0.4-0.6,0.4-0.9L430.8,159.8z"/>
<path fill="#445DD8" stroke="#353535" stroke-width="2" stroke-linecap="round" stroke-linejoin="round" stroke-miterlimit="10" d="
	M411.7,195.8l-11.5-9c-0.3-0.2-0.6-0.3-0.9-0.2l-9,1.7c-0.4,0.1-0.8-0.1-1.1-0.4l-1.7-2.1c-0.2-0.3-0.6-0.4-0.9-0.4l-11.9,0.5
	c-0.2,0-0.3,0.1-0.5,0.1l-6.1,3.2l-1,0.1l-0.4,1.9c-0.1,0.4,0,0.7,0.3,1l23.6,25.1c0.1,0.2,0.3,0.3,0.5,0.3l3.2,0.8
	c0.6,0.1,1.2-0.2,1.4-0.7l0.4-1.3c0.1-0.1,0.1-0.2,0.2-0.4l15.7-18.6C412.3,196.9,412.2,196.1,411.7,195.8z"/>
<path fill="#445DD8" stroke="#353535" stroke-width="2" stroke-linecap="round" stroke-linejoin="round" stroke-miterlimit="10" d="
	M393.5,220.2l-3.5-0.9c-0.2-0.1-0.4-0.2-0.5-0.3l-24.6-26.2c-0.3-0.3-0.4-0.7-0.3-1l0.2-0.7c0.2-0.8-0.5-1.5-1.2-1.4l-17.1,2
	c-0.7,0.1-1.2,0.8-1,1.5l7.8,25.9c0,0.1,0,0.2,0,0.3l0.6,14.9c0,0.2,0.1,0.4,0.2,0.6l2.8,3.9c0.2,0.3,0.6,0.5,1,0.5l23.7-1.4
	c0.4,0,0.7-0.2,0.9-0.5l1.2-1.9c0.2-0.3,0.6-0.5,0.9-0.5h4.5c0.5,0,0.9-0.3,1.1-0.8l4.1-12.4C394.5,221,394.1,220.3,393.5,220.2z"/>
<path fill="#445DD8" stroke="#353535" stroke-width="2" stroke-linecap="round" stroke-linejoin="round" stroke-miterlimit="10" d="
	M410,275.8c0-0.2,0-0.4-0.1-0.5l-19.7-38c-0.2-0.4-0.6-0.6-1-0.6h-3.5c-0.4,0-0.7,0.2-0.9,0.5l-1.2,1.8c-0.2,0.3-0.5,0.5-0.9,0.5
	l-25.7,1.5c-0.4,0-0.8-0.2-1-0.5l-1.5-2.1c-0.2-0.3-0.6-0.5-1-0.5l-21.3,2.1c-0.9,0.1-1.3,1-0.8,1.8l0.5,0.8
	c0.1,0.2,0.2,0.4,0.2,0.6l0.1,2.2c0,0.6,0.6,1.1,1.2,1.1l8.8-0.5c0.2,0,0.4,0,0.6,0.1l10.1,5.1c0.3,0.2,0.7,0.2,1.1,0l8.7-4.9
	c0.4-0.2,0.8-0.2,1.2,0l16.2,10.9c0.2,0.1,0.3,0.3,0.4,0.5l13,30.6c0.1,0.1,0.1,0.3,0.3,0.4l8.7,8.3c0.3,0.3,0.8,0.4,1.2,0.2l6-2.2
	c0.5-0.2,0.7-0.6,0.7-1.1L410,275.8z"/>
<g>
	
		<path fill="#445DD8" stroke="#353535" stroke-width="2" stroke-linecap="round" stroke-linejoin="round" stroke-miterlimit="10" d="
		M358.8,87.4l-3.7-3.4c-0.5-0.5-1.4-0.4-1.8,0.3l-2,3.6c-0.3,0.5-0.9,0.7-1.4,0.5l-1.2-0.4c-0.7-0.3-0.9-1.1-0.6-1.7l3.9-6.3
		c0.2-0.3,0.2-0.6,0.1-0.9l-2.1-8.1c-0.1-0.4-0.4-0.7-0.7-0.8l-9.6-3.6c-0.4-0.2-0.9-0.1-1.2,0.3l-10.9,10.9
		c-0.2,0.2-0.3,0.5-0.3,0.8l-0.6,14.2c0,0.2,0,0.4,0.1,0.5l2.3,4.7c0.1,0.2,0.1,0.5,0.1,0.8l-2.8,11.7c-0.1,0.6,0.2,1.1,0.7,1.3
		l0.5,0.2c0.2,0.1,0.3,0.1,0.5,0.1l27.3-2.6c0-0.2,0-0.3,0.1-0.5l3.2-9.7c0-0.1,0-0.2,0.1-0.3l0.4-10.8
		C359.2,88,359,87.7,358.8,87.4z"/>
	
		<path fill="#445DD8" stroke="#353535" stroke-width="2" stroke-linecap="round" stroke-linejoin="round" stroke-miterlimit="10" d="
		M378.4,106.2c-0.1-0.9-1.2-1.2-1.9-0.7l-6.8,5.7c-0.2,0.2-0.5,0.3-0.8,0.3l-12.3-0.5c-0.1,0-0.2,0-0.2,0l-11.6,1.1
		c-0.6,0.1-1.1,0.6-1,1.3l3,27.7c0.1,0.5,0.4,0.9,0.8,1l18.7,4.8c0.4,0.1,0.9,0,1.1-0.4l9.4-10.9c0.1-0.2,0.2-0.3,0.3-0.5l0.7-3.8
		c0-0.1,0.1-0.3,0.1-0.4l3.4-5.9c0.1-0.2,0.2-0.5,0.1-0.8L378.4,106.2z"/>
</g>
<g>
	
		<path fill="#445DD8" stroke="#353535" stroke-width="2" stroke-linecap="round" stroke-linejoin="round" stroke-miterlimit="10" d="
		M318.3,78.1l-1.3-3c-0.1-0.2-0.1-0.5-0.1-0.7l-6.5-7.7c-0.2-0.2-0.4-0.3-0.6-0.4l-15.2-3.6c-0.3-0.1-0.6-0.3-0.7-0.6l-1.7-3.1
		c-0.2-0.3-0.5-0.6-0.9-0.6l-8.9-0.5c-0.2,0-0.4,0-0.6,0.1l-3.2,1.6c-0.4,0.2-0.6,0.6-0.6,1.1l0.3,4.9c0,0.4-0.2,0.8-0.6,1.1
		l-2.5,1.4c-0.3,0.2-0.6,0.5-0.6,0.9l-0.6,11.2c0,0.4,0.2,0.8,0.5,1l12.3,7.8c0.3,0.2,0.5,0.5,0.5,0.9l0.4,5c0,0.1,0,0.3,0.1,0.4
		l5,10.5c0.2,0.4,0.7,0.7,1.1,0.6l21.5-2c0.6-0.1,1-0.5,1-1l2-24.7C318.4,78.5,318.4,78.3,318.3,78.1z"/>
	
		<path fill="#445DD8" stroke="#353535" stroke-width="2" stroke-linecap="round" stroke-linejoin="round" stroke-miterlimit="10" d="
		M319,115.7c0-0.1,0-0.1,0-0.2l0.3-2.8c0-0.2,0-0.4-0.1-0.5l-2.3-5.7c-0.2-0.5-0.7-0.8-1.2-0.7l-18.9,1.8c-1,0.1-1.4,1.3-0.7,1.9
		l1.4,1.4c0.2,0.2,0.4,0.5,0.3,0.9l-0.2,5.9c0,0.2-0.1,0.5-0.2,0.6l-10,13.5c-0.2,0.2-0.2,0.5-0.2,0.7l0.2,5.2
		c0,0.3,0.1,0.6,0.4,0.8l11.2,10.3c0.3,0.2,0.4,0.6,0.4,0.9l-0.4,6.3c0,0.3,0.1,0.6,0.2,0.8l8.5,10.8c0.4,0.5,1.2,0.6,1.7,0.1
		l8.3-7.6c0.2-0.2,0.3-0.4,0.3-0.6l2.9-16.3c0-0.1,0-0.2,0-0.3L319,115.7z"/>
</g>
<path fill="#445DD8" stroke="#353535" stroke-width="2" stroke-linecap="round" stroke-linejoin="round" stroke-miterlimit="10" d="
	M329.8,243.2l-2-3c-0.5-0.7,0-1.7,0.8-1.8l24-2.4l-0.8-1.1l-0.6-15.6c0-0.1,0-0.2,0-0.3l-8.2-27.1l-1.5,0.2l-19.1,1.6
	c-0.6,0-1,0.5-1,1.1l-1.3,31c0,0,0,0.1,0,0.1l1.7,20.1c0.1,0.6,0.6,1.1,1.2,1l6-0.3c0.6,0,1.1-0.6,1.1-1.2l-0.1-1.8
	C330,243.6,330,243.4,329.8,243.2z"/>
<g>
	
		<path fill="#445DD8" stroke="#353535" stroke-width="2" stroke-linecap="round" stroke-linejoin="round" stroke-miterlimit="10" d="
		M268.2,241.2l-5.6-11.4c-0.1-0.2-0.1-0.3-0.1-0.5l0.5-15.9c0-0.5-0.3-0.9-0.7-1.1l-9.7-4.2c-0.1,0-0.2-0.1-0.3-0.1l-44.6-7.7
		c-0.6-0.1-1-0.6-0.9-1.2l0.7-20.5c0-0.6-0.5-1.2-1.1-1.2l-24.4-0.7c-0.6,0-1.1,0.4-1.2,1l-4.7,47.4c-0.1,0.6-0.6,1.1-1.3,1
		l-32.1-3.4c-0.6-0.1-1.2,0.4-1.3,1l-0.2,1.8c0,0.3,0.1,0.6,0.3,0.9l14.4,15.3c0.2,0.2,0.3,0.4,0.3,0.7l0.6,7.4
		c0,0.3,0.2,0.6,0.4,0.8l12.9,11c0.5,0.4,1.3,0.3,1.7-0.2l5.5-8.4c0.2-0.4,0.7-0.6,1.1-0.5l10.3,1.1c0.4,0,0.7,0.2,0.9,0.6
		l22.5,38.4c0.1,0.2,0.3,0.4,0.6,0.5l18.3,6.5c0.8,0.3,1.6-0.4,1.5-1.2l-1.8-12c0-0.3,0-0.6,0.2-0.8l10.7-16.2
		c0.2-0.3,0.6-0.5,1-0.5l6.6,0.4c0.3,0,0.6-0.1,0.8-0.3l14.6-12.8c0.2-0.1,0.3-0.2,0.5-0.3l3-14.2
		C268.3,241.7,268.3,241.4,268.2,241.2z"/>
	
		<path fill="#445DD8" stroke="#353535" stroke-width="2" stroke-linecap="round" stroke-linejoin="round" stroke-miterlimit="10" d="
		M310.7,251.7l-7.9,0.3c-0.6,0-1.1-0.4-1.2-1l-0.2-1.6c-0.1-0.7,0.4-1.2,1.1-1.3l3.3-0.2c0.9,0,1.4-1.2,0.8-1.9l-0.7-0.8
		c-0.2-0.3-0.3-0.7-0.2-1l0.4-1.5c0.2-0.7-0.4-1.5-1.1-1.4l-15.5,0.6c-0.8,0-1.4-0.8-1.1-1.6l4.3-10.9c0.1-0.2,0.1-0.3,0.1-0.5
		l-0.9-9.3c-0.1-0.6-0.6-1-1.2-1l-24.9,0.4c-0.6,0-1.1,0.5-1.1,1.1l-0.3,8.8c0,0.2,0,0.4,0.1,0.5l5.6,11.5c0.1,0.2,0.1,0.5,0.1,0.7
		l-2.7,13.1c-0.1,0.7,0.4,1.4,1.1,1.4l18.4,0.2c0.2,0,0.4,0.1,0.6,0.2l7.5,4.6c0.2,0.1,0.4,0.2,0.6,0.2l12.4-0.4
		c0.5,0,0.9-0.3,1-0.7l2.7-6.8C312.1,252.5,311.6,251.6,310.7,251.7z"/>
</g>
<g>
	
		<path fill="#445DD8" stroke="#353535" stroke-width="2" stroke-linecap="round" stroke-linejoin="round" stroke-miterlimit="10" d="
		M257.1,148.2c0-0.2-0.1-0.4-0.1-0.5l-5.5-10.1l-0.2,0l-56.8-2.6c-0.6,0-1.1,0.4-1.2,1.1l-2,30.4c0,0.6,0.5,1.2,1.1,1.2l63.9,2.6
		c0.7,0,1.2-0.5,1.2-1.2L257.1,148.2z"/>
	
		<path fill="#445DD8" stroke="#353535" stroke-width="2" stroke-linecap="round" stroke-linejoin="round" stroke-miterlimit="10" d="
		M257.6,173.3c0-0.6-0.5-1.1-1.1-1.1l-65.3-2.6l0,0l-8.4-0.6c-0.6,0-1.2,0.4-1.2,1l-0.4,3.7c-0.1,0.7,0.4,1.2,1.1,1.2l26.1,0.8
		c0.6,0,1.1,0.5,1.1,1.2l-0.7,20.7c0,0.6,0.4,1.1,0.9,1.2l43.3,7.5c0.1,0,0.2,0,0.3,0.1l3.5,1.5c0.8,0.3,1.6-0.2,1.6-1.1
		L257.6,173.3z"/>
</g>
<g>
	
		<path fill="#445DD8" stroke="#353535" stroke-width="2" stroke-linecap="round" stroke-linejoin="round" stroke-miterlimit="10" d="
		M306.8,169.7l-9.7-12.3c-0.2-0.2-0.3-0.5-0.2-0.8l0.4-6.2c0-0.3-0.1-0.7-0.4-0.9l-11.1-10.2c-0.2-0.2-0.4-0.5-0.4-0.8l-0.2-5.5
		c0-0.4-0.2-0.8-0.6-1l-3.3-1.8c-0.2-0.1-0.4-0.1-0.6-0.1l-29,0.6c-0.9,0-1.4,0.9-1,1.7l8.2,15l0,0.2l0.6,28c0,0.6,0.5,1.1,1.2,1.1
		l37.3-1.1c0.6,0,1.2,0.5,1.2,1.1v4.1c0,0.6,0.5,1.1,1.1,1.1h2.1c0.5,0,0.9-0.3,1-0.7l2.4-5.5c0-0.1,0.1-0.1,0.1-0.2l1.1-5
		C307.1,170.4,307.1,170,306.8,169.7z"/>
	
		<path fill="#445DD8" stroke="#353535" stroke-width="2" stroke-linecap="round" stroke-linejoin="round" stroke-miterlimit="10" d="
		M301.6,185.6c0.3-0.8-0.2-1.6-1-1.6h-2.2c-0.6,0-1.1-0.5-1.1-1.1v-4c0-0.6-0.5-1.2-1.2-1.1l-35.3,1c-0.6,0-1.1,0.5-1.1,1.2
		l0.6,28.7c0,0.4,0.3,0.8,0.7,1l3.3,1.4c0.4,0.2,0.7,0.6,0.7,1.1l-0.1,3.8c0,0.6,0.5,1.2,1.2,1.2l24.4-0.4c0.7,0,1.2-0.6,1.1-1.2
		l-0.5-5.4l0.1-0.2L301.6,185.6z"/>
</g>
<path fill="#445DD8" stroke="#353535" stroke-width="2" stroke-linecap="round" stroke-linejoin="round" stroke-miterlimit="10" d="
	M318.2,226c0,0,0-0.1,0-0.1l1.3-31.9l-2,0.2l-17.4,0.9c-0.4,0-0.8,0.3-1,0.7l-6.3,14.4c-0.1,0.2-0.1,0.4-0.1,0.6l1.8,18.5
	c0,0.2,0,0.4-0.1,0.5l-3.4,8.7c-0.3,0.8,0.3,1.6,1.1,1.6l15.2-0.6c0.8,0,1.3,0.7,1.1,1.4l-0.8,3c-0.1,0.4,0,0.7,0.2,1l2.1,2.5
	c0.2,0.3,0.6,0.4,0.9,0.4l7.7-0.4c0.6,0,1.1-0.6,1.1-1.2L318.2,226z"/>
<g>
	
		<path fill="#445DD8" stroke="#353535" stroke-width="2" stroke-linecap="round" stroke-linejoin="round" stroke-miterlimit="10" d="
		M371.8,157.5l-5.1-8.4c-0.2-0.3-0.4-0.4-0.7-0.5l-18.5-4.8c-0.5-0.1-1,0.1-1.2,0.5l-8.5,12.8c-0.2,0.2-0.4,0.4-0.7,0.5l-18,3.8
		c-0.2,0-0.4,0.1-0.5,0.3l-9.3,8.5c-0.2,0.2-0.3,0.4-0.3,0.6l-0.7,2.8c-0.2,0.7,0.4,1.4,1.2,1.4l9.9-0.5c0,0,0.1,0,0.1,0l44.5-7.1
		c0.3,0,0.5-0.2,0.7-0.4l7-8.1C372.1,158.4,372.1,157.9,371.8,157.5z"/>
	
		<path fill="#445DD8" stroke="#353535" stroke-width="2" stroke-linecap="round" stroke-linejoin="round" stroke-miterlimit="10" d="
		M376.9,168.4c0-0.7-0.7-1.1-1.3-1l-55.9,8.9c0,0-0.1,0-0.1,0l-11.5,0.6c-0.4,0-0.8,0.3-1,0.7l-6,13.7c-0.3,0.8,0.3,1.6,1.1,1.6
		l15.2-0.8l23.9-2l13.5-1.5c0.6-0.1,1-0.5,1-1.1l0.1-3c0-0.4,0.2-0.7,0.5-0.9l20-12.6c0.4-0.2,0.6-0.6,0.5-1L376.9,168.4z"/>
</g>
<g>
	
		<path fill="#445DD8" stroke="#353535" stroke-width="2" stroke-linecap="round" stroke-linejoin="round" stroke-miterlimit="10" d="
		M249.5,133.9l-1.6-3c-0.1-0.1-0.1-0.2-0.1-0.4l-4-23.6c-0.1-0.5-0.6-0.9-1.1-0.9h-10.3c-0.2,0-0.4-0.1-0.6-0.2l-6.5-4
		c-0.2-0.1-0.3-0.2-0.5-0.2l-44.2-2.8c-0.6,0-1.1,0.4-1.2,1l-1.9,19.6c-0.1,0.6,0.4,1.2,1,1.2l14.9,1.5c0.6,0.1,1.1,0.6,1,1.2
		l-0.6,8.6c0,0.6,0.4,1.2,1.1,1.2l53.7,2.5C249.3,135.6,249.9,134.7,249.5,133.9z"/>
	
		<path fill="#445DD8" stroke="#353535" stroke-width="2" stroke-linecap="round" stroke-linejoin="round" stroke-miterlimit="10" d="
		M295.6,111.7l-3.8-3.8c-0.1-0.1-0.2-0.2-0.2-0.3L286.5,97c-0.2-0.4-0.6-0.6-1-0.6l-40.2,0.3c-0.7,0-1.2,0.6-1.1,1.3l5.1,29.9
		c0.1,0.6,0.6,1,1.1,0.9l30.8-0.6c0.2,0,0.4,0,0.6,0.1l3.3,1.7c0.5,0.3,1.1,0.1,1.4-0.3l9-12.2c0.1-0.2,0.2-0.4,0.2-0.6l0.2-4.5
		C295.9,112.2,295.8,111.9,295.6,111.7z"/>
</g>
<g>
	
		<path fill="#445DD8" stroke="#353535" stroke-width="2" stroke-linecap="round" stroke-linejoin="round" stroke-miterlimit="10" d="
		M183,28c-24.6-2.9-54.3-7.3-87.4-14.1c-0.6-0.1-1.2,0.3-1.3,0.9L91.9,25c-0.1,0.3,0,0.5,0.1,0.8l8.7,17.6c0.1,0.3,0.2,0.6,0.1,0.8
		l-2.8,9c-0.2,0.6,0.2,1.3,0.9,1.5l3.5,0.7c0.4,0.1,0.7,0.4,0.9,0.8l4.1,12.7c0.1,0.4,0.5,0.7,0.9,0.8l11.9,2.4
		c0.6,0.1,1.2-0.3,1.4-0.9l0.6-3.7c0.1-0.6,0.7-1,1.3-0.9l55.3,7.4c0.6,0.1,1.2-0.4,1.3-1l4.2-43.7C184,28.6,183.6,28.1,183,28z"/>
	
		<path fill="#445DD8" stroke="#353535" stroke-width="2" stroke-linecap="round" stroke-linejoin="round" stroke-miterlimit="10" d="
		M178.4,75.8l-53.6-7.2c-0.6-0.1-1.2,0.3-1.3,0.9l-7,41.4c-0.1,0.6,0.3,1.2,1,1.3l56.6,7.9c0.6,0.1,1.2-0.4,1.3-1l4-42.1
		C179.5,76.5,179.1,75.9,178.4,75.8z"/>
</g>
<path fill="#445DD8" stroke="#353535" stroke-width="2" stroke-linecap="round" stroke-linejoin="round" stroke-miterlimit="10" d="
	M191.2,123.8l-16.1-1.6l0,0l-40.4-5.6c-0.6-0.1-1.2,0.3-1.3,1l-6.4,42.9c-0.1,0.6,0.4,1.2,1,1.3l52.8,5.2l7.4,0.5
	c0.6,0,1.2-0.4,1.2-1.1l2.7-41.4C192.2,124.4,191.8,123.9,191.2,123.8z"/>
<path fill="#445DD8" stroke="#353535" stroke-width="2" stroke-linecap="round" stroke-linejoin="round" stroke-miterlimit="10" d="
	M90,96.7l-45.5-10c-0.6-0.1-1.2,0.2-1.3,0.8l-8.3,30.6c-0.1,0.3,0,0.7,0.1,0.9l33.4,50.8c0.6,0.8,1.9,0.6,2.1-0.4l1.5-6.8
	c0.1-0.7,0.8-1.1,1.5-0.8l2.7,0.9c0.6,0.2,1.3-0.2,1.5-0.9l13.3-63.8C91,97.5,90.6,96.9,90,96.7z"/>
<path fill="#445DD8" stroke="#353535" stroke-width="2" stroke-linecap="round" stroke-linejoin="round" stroke-miterlimit="10" d="
	M130.6,116l-15.3-2.1c-0.6-0.1-1.1-0.7-1-1.3l1.5-9.1c0.1-0.6-0.3-1.2-0.9-1.3l-20.9-4.6c-0.6-0.1-1.2,0.3-1.4,0.9l-11.2,53.7
	c-0.1,0.6,0.3,1.2,0.9,1.4l41.5,7.5c0.6,0.1,1.2-0.3,1.3-1l6.4-42.8C131.7,116.7,131.2,116.1,130.6,116z"/>
<path fill="#445DD8" stroke="#353535" stroke-width="2" stroke-linecap="round" stroke-linejoin="round" stroke-miterlimit="10" d="
	M178.7,168.6l-51-5c-0.6-0.1-1.1,0.4-1.2,1l-9.2,61.9c-0.1,0.6,0.3,1.2,0.9,1.3l4,0.6c0.6,0.1,1.2-0.3,1.3-0.9l0.7-3.4
	c0.1-0.6,0.7-1,1.3-0.9l13,1.7c0.6,0.1,1.2-0.4,1.3-1l0.2-2c0.1-0.6,0.6-1.1,1.3-1l32.1,3.4c0.6,0.1,1.2-0.4,1.3-1l5.2-53.3
	C179.8,169.2,179.3,168.7,178.7,168.6z"/>
<path fill="#445DD8" stroke="#353535" stroke-width="2" stroke-linecap="round" stroke-linejoin="round" stroke-miterlimit="10" d="
	M119.8,74l-13.1-2.7c-0.4-0.1-0.7-0.4-0.9-0.8l-4.1-12.7c-0.1-0.4-0.5-0.7-0.9-0.8l-4.4-0.9c-0.7-0.1-1.1-0.8-0.9-1.5l3.2-10.3
	c0.1-0.3,0.1-0.6-0.1-0.8L90,26c-0.1-0.2-0.1-0.5-0.1-0.8l2.5-10.9c0.1-0.6-0.2-1.2-0.9-1.4c-1.3-0.3-2.6-0.5-3.9-0.8
	c-0.6-0.1-1.2,0.3-1.4,0.9l-7.2,32.4c-0.1,0.3,0,0.6,0.1,0.8L82,51c0.2,0.4,0.2,0.9-0.1,1.3l-8.5,11.1c-0.4,0.5-0.3,1.1,0.1,1.5
	l0.9,0.9c0.3,0.3,0.4,0.7,0.3,1.1l-6.2,22c-0.2,0.6,0.2,1.3,0.9,1.4l45.7,10c0.6,0.1,1.3-0.3,1.4-0.9l4.1-24.1
	C120.8,74.7,120.4,74.1,119.8,74z"/>
<path fill="#445DD8" stroke="#353535" stroke-width="2" stroke-linecap="round" stroke-linejoin="round" stroke-miterlimit="10" d="
	M444.6,80.5l-0.8-15.2c0-0.2,0-0.4,0.1-0.6l2.4-4.6c0.2-0.4,0.2-0.8-0.1-1.2l-1.8-2.7c-0.3-0.4-0.7-0.6-1.2-0.5l-9.4,2.1
	c-0.6,0.1-1,0.8-0.9,1.4l5.8,22.4c0.2,0.6,0.8,1,1.4,0.8l3.5-0.8C444.2,81.5,444.6,81,444.6,80.5z"/>
<path fill="#445DD8" stroke="#353535" stroke-width="2" stroke-linecap="round" stroke-linejoin="round" stroke-miterlimit="10" d="
	M422.7,124.4l-38.9,6.7c-0.6,0.1-1.2-0.3-1.3-0.9l-0.1-0.4c-0.2-1.1-1.6-1.3-2.1-0.4l-1.1,1.9c-0.1,0.1-0.1,0.2-0.1,0.4l-0.6,3.9
	c0,0.2-0.1,0.4-0.3,0.6l-9.5,11c-0.3,0.4-0.4,0.9-0.1,1.3l4.8,7.9c0.2,0.4,0.7,0.6,1.1,0.5l12.7-1.5c0.4-0.1,0.8-0.4,0.9-0.8
	l3.8-12.1c0.2-0.6,0.9-1,1.5-0.7l2,0.9c0.5,0.2,1,0.1,1.3-0.3l10.7-12.2c0.4-0.4,1-0.5,1.5-0.2l7.3,4.7c0.4,0.2,0.6,0.7,0.5,1.1
	l-0.3,2.4c-0.1,0.6,0.3,1.1,0.8,1.2l3.1,0.8c0.8,0.2,1.6-0.6,1.4-1.4l-1.5-5.6c-0.2-0.6,0.2-1.3,0.8-1.4l2.3-0.6
	c0.6-0.1,1.2,0.2,1.3,0.7l2.5,7.6c0.2,0.6,0.8,0.9,1.4,0.7l4.8-1.2c0.4-0.1,0.6-0.3,0.8-0.7l0.2-0.5c-0.6-0.7-0.7-0.8-1.3-1.5
	l-3.4,0.7c-0.5,0.1-1.1-0.2-1.3-0.7l-4.8-11.5C423.7,124.6,423.2,124.3,422.7,124.4z"/>
<path fill="#445DD8" stroke="#353535" stroke-width="2" stroke-linecap="round" stroke-linejoin="round" stroke-miterlimit="10" d="
	M311.4,65l5.1,6.1c0.5,0.6,1.6,0.5,1.9-0.3l1.3-2.9c0.1-0.3,0.3-0.5,0.6-0.6l12.4-5.5c0.2-0.1,0.3-0.1,0.5-0.1l7.2,0.3
	c0.7,0,1.2-0.5,1.2-1.2l-0.3-2.9c0-0.4-0.3-0.8-0.7-1l-6.4-2.6c-0.2-0.1-0.5-0.1-0.7,0l-10.2,3.1c0,0-0.1,0-0.1,0l-6.2,1
	c-0.2,0-0.4,0-0.6-0.1l-8.8-3.6c-0.4-0.2-0.7-0.6-0.7-1.1V52c0-0.9-1-1.4-1.7-1l-10.4,6.2c-0.5,0.3-0.7,1-0.4,1.5l0.9,1.7
	c0.2,0.3,0.4,0.5,0.7,0.6l15,3.5C311,64.7,311.3,64.8,311.4,65z"/>
<path fill="#445DD8" stroke="#353535" stroke-width="2" stroke-linecap="round" stroke-linejoin="round" stroke-miterlimit="10" d="
	M439.3,85v5c0,0.7,0.7,1.3,1.4,1.1l14.9-3.8c0.4-0.1,0.8,0,1.1,0.3l4.5,4.4l-0.5,0.5l1.2,0.8c0.4,0.2,0.9,0.2,1.3-0.1l6-4.3
	c0.6-0.5,0.6-1.4,0-1.9l-1.6-1.1c-0.1-0.1-0.3-0.2-0.5-0.2l-6.8-1.1c-0.6-0.1-1-0.6-1-1.2l0.3-4c0-0.2,0-0.4-0.1-0.6l-0.2-0.6
	l-4.3,2.1c-0.1,0-0.1,0.1-0.2,0.1l-14.6,3.5C439.7,84,439.3,84.5,439.3,85z"/>
<path fill="#445DD8" stroke="#353535" stroke-width="2" stroke-linecap="round" stroke-linejoin="round" stroke-miterlimit="10" d="
	M439.7,93.8l1.2,6.5c0,0.2,0.1,0.3,0.2,0.5l1.2,1.7l0.1-0.1c0.2-0.2,0.4-0.4,0.6-0.5l9.2-3.7c0.5-0.2,0.8-0.7,0.7-1.3l-1.2-6.1
	c-0.1-0.6-0.8-1-1.4-0.9l-9.7,2.5C439.9,92.7,439.5,93.3,439.7,93.8z"/>
<path fill="#445DD8" stroke="#353535" stroke-width="2" stroke-linecap="round" stroke-linejoin="round" stroke-miterlimit="10" d="
	M430.2,104.5l-1.4,5.8c-0.1,0.4,0,0.8,0.3,1.1l4,4.1c0.4,0.4,0.4,1,0.2,1.4l-2.2,3.5c-0.2,0.3-0.2,0.7-0.1,1l2.2,5.3
	c0.1,0.3,0.3,0.5,0.6,0.6l0.8,0.3c0.6,0.3,1.3-0.1,1.5-0.7l4.1-11.7c0.1-0.3,0.1-0.7-0.1-1l-2.6-3.8c-0.3-0.4-0.3-0.9,0-1.3l0.1-0.1
	c0.3-0.4,0.3-0.8,0.1-1.2l-1.2-2.2c-0.1-0.2-0.4-0.4-0.6-0.5l-4.1-1.4C431.1,103.5,430.4,103.8,430.2,104.5z"/>
<path fill="#445DD8" stroke="#353535" stroke-width="2" stroke-linecap="round" stroke-linejoin="round" stroke-miterlimit="10" d="
	M426.1,122.1l-0.5,0.7c-0.2,0.3-0.3,0.7-0.1,1.1l4.4,10.5c0.2,0.5,0.8,0.8,1.3,0.7l1.8-0.4c0.8-0.2,1.2-1.1,0.7-1.8l-2.9-4.2
	c-0.4-0.6-0.3-1.2,0.1-1.6c0.3-0.3,0.3-0.7,0.1-1.1l-1.6-3.7c-0.2-0.4-0.6-0.7-1.1-0.7l-1.2,0.1
	C426.6,121.6,426.3,121.8,426.1,122.1z"/>
<path fill="#445DD8" stroke="#353535" stroke-width="2" stroke-linecap="round" stroke-linejoin="round" stroke-miterlimit="10" d="
	M123.7,163l-41.7-7.6c-0.6-0.1-1.2,0.3-1.3,0.9l-1.7,8c-0.1,0.7-0.8,1.1-1.5,0.9l-2.8-0.9c-0.6-0.2-1.3,0.2-1.5,0.8l-2.5,11.5
	c-0.1,0.2,0,0.5,0.1,0.7l3.8,7.7c0.2,0.4,0.1,0.9-0.2,1.2l-7.4,8.7c-0.1,0.2-0.2,0.3-0.3,0.5l-1.4,7.8c-0.1,0.5,0.1,0.9,0.5,1.2
	l30.9,19.6c0.1,0.1,0.3,0.1,0.4,0.2l16.8,2.7c0.6,0.1,1.2-0.3,1.3-1l9.2-61.8C124.7,163.7,124.3,163.1,123.7,163z"/>
<g>
	
		<path fill="#445DD8" stroke="#353535" stroke-width="2" stroke-linecap="round" stroke-linejoin="round" stroke-miterlimit="10" d="
		M72.4,184.8l-3.5-7.2c-0.1-0.2-0.1-0.5-0.1-0.7l0.4-1.7c0.1-0.3,0-0.6-0.2-0.9l-36.1-55c-0.2-0.3-0.2-0.6-0.1-0.9l8.5-31.4
		c0.2-0.6-0.2-1.2-0.8-1.4l-10.3-3.2l-2.1-0.7l-18-5.6c-0.6-0.2-1.2,0.1-1.4,0.7L2.5,94.1c-0.1,0.2-0.1,0.4-0.1,0.6l5.3,30.6
		c0,0,0,0.1,0,0.1l9.3,36.4c0,0.2,0.1,0.3,0.2,0.4l24.5,29.5c0.2,0.2,0.3,0.6,0.3,0.9l-0.8,5.6c-0.1,0.6,0.3,1.2,1,1.3l20.1,2.8
		c0.2,0,0.4,0.1,0.5,0.2l0.9,0.6l1.4-8.3c0-0.2,0.1-0.4,0.3-0.5l6.9-8.2C72.5,185.7,72.6,185.2,72.4,184.8z"/>
</g>
<g>
	
		<path fill="#445DD8" stroke="#353535" stroke-width="2" stroke-linecap="round" stroke-linejoin="round" stroke-miterlimit="10" d="
		M428.8,147c0.1,1.2,1.8,1.4,2.2,0.3l1.6-4c0.3-0.9-0.4-1.8-1.3-1.5l-1.9,0.5c-0.5,0.1-0.9,0.7-0.8,1.2L428.8,147z"/>
</g>
<g>
	<g>
		<path fill="#353535" d="M566.1,147.3c0,1.7,0,3.6,0,3.6c0,3-1.3,5.9-5.1,5.9c-3.7,0-5-2.6-5-5.9v-1.5c0-0.2,0.2-0.4,0.4-0.4h1.8
			c0.2,0,0.4,0.2,0.4,0.4v1.7c0,1.6,0.2,3.2,2.5,3.2c2.1,0,2.4-1.6,2.4-3.2v-4.5c0-2.3-1.5-2.9-2.4-2.9c-1,0-2,0.3-2.4,1.3l-0.1,0.3
			c-0.1,0.1-0.2,0.2-0.3,0.2h-1.8c-0.2,0-0.3-0.1-0.4-0.3c0,0,0-0.3,0-0.5v-7.1v-2.8c0-0.2,0.2-0.4,0.4-0.4h2.4h6.8
			c0.2,0,0.3,0.2,0.3,0.4v1.7c0,0.2-0.2,0.4-0.3,0.4h-7v5.6c0.5-1.2,1.8-1.3,2.9-1.3C564.7,141.3,566.1,143.2,566.1,147.3z"/>
		<path fill="#353535" d="M573.2,134.8v21.3c0,0.2-0.2,0.4-0.4,0.4h-1.7c-0.2,0-0.3-0.2-0.3-0.4v-17.7h-2.2c-0.2,0-0.4-0.2-0.4-0.4
			v-0.9c0-0.2,0.2-0.4,0.3-0.4c2.7-1,2-2.3,3.2-2.3c0.3,0,1.2,0,1.2,0C573,134.4,573.2,134.6,573.2,134.8z"/>
		<path fill="#353535" d="M575.8,143.3v-5.6c0-2.2,1.5-3.5,3.5-3.5c2,0,3.5,1.3,3.5,3.5v5.6c0,2.3-1.8,3.5-3.5,3.5
			C577.5,146.8,575.8,145.5,575.8,143.3z M579.3,144.8c0.9,0,1.4-0.5,1.4-1.7v-5.3c0-1.1-0.5-1.6-1.4-1.6s-1.4,0.5-1.4,1.6v5.3
			C577.8,144.3,578.4,144.8,579.3,144.8z M590.7,134.7l-10.2,21.4c-0.1,0.2-0.3,0.3-0.5,0.3h-1.6c-0.2,0-0.3-0.1-0.2-0.3l10.2-21.4
			c0.1-0.2,0.3-0.3,0.5-0.3h1.6C590.7,134.4,590.8,134.5,590.7,134.7z M586.3,153.1v-5.6c0-2.2,1.5-3.5,3.5-3.5c2,0,3.5,1.3,3.5,3.5
			v5.6c0,2.3-1.8,3.5-3.5,3.5C588,156.7,586.3,155.4,586.3,153.1z M589.8,154.7c0.9,0,1.4-0.5,1.4-1.7v-5.3c0-1.1-0.5-1.6-1.4-1.6
			s-1.4,0.5-1.4,1.6v5.3C588.4,154.1,588.9,154.7,589.8,154.7z"/>
		<path fill="#353535" d="M611.6,156.1c0,0.2-0.2,0.4-0.4,0.4h-1.9c-0.2,0-0.3-0.1-0.4-0.4l-0.7-4.2h-5l-0.7,4.2
			c-0.1,0.2-0.2,0.4-0.4,0.4h-1.9c-0.2,0-0.4-0.2-0.4-0.4l4-21.3c0.1-0.2,0.2-0.4,0.4-0.4h2.8c0.2,0,0.3,0.2,0.4,0.4L611.6,156.1z
			 M607.8,149.4l-2.1-12.2l-2.1,12.2H607.8z"/>
		<path fill="#353535" d="M623,134.8l-4,21.3c-0.1,0.2-0.2,0.4-0.4,0.4h0h-2.8h0c-0.2,0-0.3-0.2-0.4-0.4l-4-21.3
			c0-0.2,0.2-0.4,0.4-0.4h1.8c0.2,0,0.3,0.1,0.4,0.4l3.3,18.7l3.2-18.7c0.1-0.2,0.2-0.4,0.4-0.4h1.8
			C622.8,134.4,623,134.6,623,134.8z"/>
		<path fill="#353535" d="M635.4,146.3v9.9c0,0.1-0.1,0.2-0.2,0.2h-0.6c-0.1,0-0.2-0.1-0.3-0.2l-0.2-1c-0.9,1-2.3,1.6-3.9,1.6
			c-3.1,0-5.2-2.1-5.2-5.3v-12.2c0-3.2,1.7-5.3,5-5.3c3.3,0,5,2.1,5,5.3v2c0,0.2-0.2,0.4-0.4,0.4h-1.8c-0.2,0-0.4-0.2-0.4-0.4v-2
			c0-2.1-1-2.9-2.5-2.9c-1.4,0-2.4,0.8-2.4,2.9v12.1c0,2.1,1.2,2.9,2.7,2.9c1.5,0,2.7-0.8,2.7-2.9v-3.2h-1.5c-0.2,0-0.4-0.1-0.4-0.3
			v-1.7c0-0.2,0.2-0.4,0.4-0.4h3.7C635.2,145.9,635.4,146.1,635.4,146.3z"/>
		<path fill="#353535" d="M653.7,151c0,3.3-1.7,5.5-5,5.5h-4.8c-0.2,0-0.4-0.2-0.4-0.4v-21.3c0-0.2,0.2-0.4,0.4-0.4h4.7
			c3.6,0,5.1,2.5,5.1,5.9V151z M648.7,154c1.7,0,2.4-1.2,2.4-2.4v-11.8c0-1.4-0.5-2.9-2.4-2.9h-2.6V154H648.7z"/>
		<path fill="#353535" d="M660.7,136.9V154h1.7c0.2,0,0.4,0.2,0.4,0.3v1.8c0,0.2-0.2,0.3-0.4,0.3h-5.8c-0.2,0-0.4-0.1-0.4-0.3v-1.8
			c0-0.2,0.2-0.3,0.4-0.3h1.7v-17.1h-1.7c-0.2,0-0.4-0.1-0.4-0.3v-1.8c0-0.2,0.2-0.3,0.4-0.3h5.8c0.2,0,0.4,0.1,0.4,0.3v1.8
			c0,0.2-0.2,0.3-0.4,0.3H660.7z"/>
		<path fill="#353535" d="M675.2,149.7c0,0.5,0,2.1,0,2.1c0,3.1-2.2,5-5,5c-3,0-5.2-2.2-5.2-5.4v-2c0-0.2,0.1-0.3,0.3-0.3h1.8
			c0.2,0,0.3,0.2,0.3,0.3v2.5c0,2,1.3,2.8,2.7,2.7c1.8,0,2.5-1.2,2.5-2.7v-1.8c0-1.3-0.5-1.9-2.1-3.5l-2.7-2.4
			c-1.4-1.3-2.5-3.3-2.5-4.9c0-3.2,1.8-5.2,4.9-5.2c3,0,5,2.1,5,5.3v1.8c0,0.2-0.1,0.3-0.3,0.3H673c-0.1,0-0.3-0.1-0.3-0.3v-2
			c0-2.1-1-2.8-2.5-2.8c-1.4,0-2.3,1-2.3,2.9c0,0.5,0.1,1.6,1.9,3.3c0.6,0.6,3.3,3.1,3.3,3.1C675,147.2,675.2,148.9,675.2,149.7z"/>
		<path fill="#353535" d="M686.5,134.8v1.7c0,0.2-0.2,0.4-0.4,0.4h-3.2v19.2c0,0.2-0.2,0.4-0.4,0.4h-1.8c-0.2,0-0.4-0.2-0.4-0.4
			v-19.2h-3.2c-0.2,0-0.4-0.2-0.4-0.4v-1.7c0-0.2,0.2-0.4,0.4-0.4h9C686.4,134.4,686.5,134.6,686.5,134.8z"/>
		<path fill="#353535" d="M698,156.1c0,0.2-0.2,0.4-0.4,0.4h-1.9c-0.2,0-0.3-0.1-0.4-0.4l-0.7-4.2h-5l-0.7,4.2
			c-0.1,0.2-0.2,0.4-0.4,0.4h-1.9c-0.2,0-0.4-0.2-0.4-0.4l4-21.3c0.1-0.2,0.2-0.4,0.4-0.4h2.8c0.2,0,0.3,0.2,0.4,0.4L698,156.1z
			 M694.3,149.4l-2.1-12.2l-2.1,12.2H694.3z"/>
		<path fill="#353535" d="M711.3,134.8v21.3c0,0.2-0.2,0.4-0.4,0.4h-1.7c-0.2,0-0.5-0.3-0.5-0.4l-6-15.4v15.4c0,0.2-0.1,0.4-0.3,0.4
			h-1.7c-0.2,0-0.4-0.2-0.4-0.4v-21.3c0-0.2,0.2-0.4,0.4-0.4h1.7c0.2,0,0.4,0.1,0.4,0.3l6.1,16.3v-16.3c0-0.2,0.1-0.4,0.3-0.4h1.7
			C711.1,134.4,711.3,134.6,711.3,134.8z"/>
		<path fill="#353535" d="M724.5,139.3v2c0,0.2-0.2,0.4-0.4,0.4h-1.8c-0.2,0-0.4-0.2-0.4-0.4v-2c0-2.1-1.1-2.9-2.5-2.9
			c-1.4,0-2.4,0.8-2.4,2.9v12.1c0,2.1,1,2.9,2.4,2.9c1.5,0,2.5-0.8,2.5-2.9v-2.1c0-0.2,0.2-0.4,0.4-0.4h1.8c0.2,0,0.4,0.2,0.4,0.4
			v2.1c0,3.2-1.9,5.3-5,5.3c-3.1,0-5-2.1-5-5.3v-12.2c0-3.2,1.7-5.3,5-5.3C722.8,134,724.5,136.1,724.5,139.3z"/>
		<path fill="#353535" d="M729.9,136.9v6.8h4.3c0.2,0,0.4,0.2,0.4,0.4v1.6c0,0.2-0.2,0.4-0.4,0.4h-4.3v7.9h6.3
			c0.2,0,0.4,0.2,0.4,0.4v1.7c0,0.2-0.2,0.4-0.4,0.4h-8.5c-0.2,0-0.4-0.2-0.4-0.4v-21.3c0-0.2,0.2-0.4,0.4-0.4h8.5
			c0.2,0,0.4,0.2,0.4,0.4v1.7c0,0.2-0.2,0.4-0.4,0.4H729.9z"/>
		<path fill="#353535" d="M746.9,136.9v7h4.3c0.2,0,0.4,0.2,0.4,0.4v1.6c0,0.2-0.2,0.4-0.4,0.4h-4.3v9.8c0,0.2-0.2,0.4-0.4,0.4h-1.8
			c-0.2,0-0.4-0.2-0.4-0.4v-21.3c0-0.2,0.2-0.4,0.4-0.4h8.5c0.2,0,0.4,0.2,0.4,0.4v1.7c0,0.2-0.2,0.4-0.4,0.4H746.9z"/>
		<path fill="#353535" d="M767,154.5v1.6c0,0.2-0.1,0.3-0.3,0.3c-3,0-3.3-2.3-3.3-5.9c0-2.9-0.6-3.7-3.2-3.7h-1.6v9.2
			c0,0.2-0.2,0.4-0.4,0.4h-1.7c-0.2,0-0.4-0.2-0.4-0.4v-21.3c0-0.2,0.2-0.4,0.4-0.4h3.7c3.6,0,6.1,1.9,6.1,6.3c0,2.6-1,4.3-2.7,4.8
			c2.1,0.4,2.3,2.4,2.3,4.2c0,0.2,0,2,0,2.1c0,2.2,0.6,2.2,1,2.3C766.8,154.2,767,154.3,767,154.5z M758.6,144.4h1.7
			c2.9,0,3.4-1.7,3.4-3.7c0-1.7-0.5-3.7-3.4-3.7h-1.7V144.4z"/>
		<path fill="#353535" d="M779.4,139.3v12.2c0,3.2-1.9,5.3-5,5.3c-3.1,0-5-2.1-5-5.3v-12.2c0-3.2,1.7-5.3,5-5.3
			C777.6,134,779.4,136.1,779.4,139.3z M776.8,139.4c0-2.1-1-2.9-2.4-2.9c-1.4,0-2.4,0.8-2.4,2.9v12.1c0,2.1,1,2.9,2.4,2.9
			c1.5,0,2.4-0.8,2.4-2.9V139.4z"/>
		<path fill="#353535" d="M797.1,134.8v21.3c0,0.2-0.2,0.4-0.4,0.4h-1.6c-0.2,0-0.4-0.2-0.4-0.4v-15.8l-3.7,15.9
			c0,0.1-0.2,0.3-0.3,0.3H789c-0.1,0-0.3-0.1-0.3-0.3c0,0-3.6-15.3-3.7-15.9v15.8c0,0.2-0.2,0.4-0.4,0.4h0h-1.6
			c-0.2,0-0.4-0.2-0.4-0.4v-21.3c0-0.2,0.2-0.4,0.4-0.4h2.3c0.2,0,0.4,0.1,0.4,0.3l4.1,17.7l4.1-17.7c0-0.2,0.2-0.3,0.4-0.3h2.3
			C796.9,134.4,797.1,134.6,797.1,134.8z"/>
	</g>
</g>
<g>
	<g>
		<path fill="#353535" d="M582.2,197.6v6.8h4.3c0.2,0,0.4,0.2,0.4,0.4v1.6c0,0.2-0.2,0.4-0.4,0.4h-4.3v7.9h6.3
			c0.2,0,0.4,0.2,0.4,0.4v1.7c0,0.2-0.2,0.4-0.4,0.4H580c-0.2,0-0.4-0.2-0.4-0.4v-21.3c0-0.2,0.2-0.4,0.4-0.4h8.5
			c0.2,0,0.4,0.2,0.4,0.4v1.7c0,0.2-0.2,0.4-0.4,0.4H582.2z"/>
		<path fill="#353535" d="M602.3,216.7c0,0.2-0.2,0.4-0.4,0.4H600c-0.2,0-0.3-0.1-0.4-0.4l-0.7-4.2h-5l-0.7,4.2
			c-0.1,0.2-0.2,0.4-0.4,0.4h-1.9c-0.2,0-0.4-0.2-0.4-0.4l4-21.3c0.1-0.2,0.2-0.4,0.4-0.4h2.8c0.2,0,0.3,0.2,0.4,0.4L602.3,216.7z
			 M598.6,210.1l-2.1-12.2l-2.1,12.2H598.6z"/>
		<path fill="#353535" d="M615.7,215.2v1.6c0,0.2-0.1,0.3-0.3,0.3c-3,0-3.3-2.3-3.3-5.9c0-2.9-0.6-3.7-3.2-3.7h-1.6v9.2
			c0,0.2-0.2,0.4-0.4,0.4h-1.7c-0.2,0-0.4-0.2-0.4-0.4v-21.3c0-0.2,0.2-0.4,0.4-0.4h3.7c3.6,0,6.1,1.9,6.1,6.3c0,2.6-1,4.3-2.7,4.8
			c2.1,0.4,2.3,2.4,2.3,4.2c0,0.2,0,2,0,2.1c0,2.2,0.6,2.2,1,2.3C615.5,214.8,615.7,215,615.7,215.2z M607.3,205h1.7
			c2.9,0,3.4-1.7,3.4-3.7c0-1.7-0.5-3.7-3.4-3.7h-1.7V205z"/>
		<path fill="#353535" d="M626.8,195.4v1.7c0,0.2-0.2,0.4-0.4,0.4h-3.2v19.2c0,0.2-0.2,0.4-0.4,0.4H621c-0.2,0-0.4-0.2-0.4-0.4
			v-19.2h-3.2c-0.2,0-0.4-0.2-0.4-0.4v-1.7c0-0.2,0.2-0.4,0.4-0.4h9C626.6,195.1,626.8,195.2,626.8,195.4z"/>
		<path fill="#353535" d="M639.3,195.4v21.3c0,0.2-0.2,0.4-0.4,0.4H637c-0.2,0-0.3-0.2-0.3-0.4V207h-5v9.7c0,0.2-0.1,0.4-0.3,0.4
			h-1.9c-0.2,0-0.4-0.2-0.4-0.4v-21.3c0-0.2,0.2-0.4,0.4-0.4h1.9c0.2,0,0.3,0.2,0.3,0.4v9.1h5v-9.1c0-0.2,0.1-0.4,0.3-0.4h1.9
			C639.1,195.1,639.3,195.2,639.3,195.4z"/>
		<path fill="#353535" d="M656.5,195.4v1.7c0,0.2-0.2,0.4-0.4,0.4h-3.2v19.2c0,0.2-0.2,0.4-0.4,0.4h-1.8c-0.2,0-0.4-0.2-0.4-0.4
			v-19.2h-3.2c-0.2,0-0.4-0.2-0.4-0.4v-1.7c0-0.2,0.2-0.4,0.4-0.4h9C656.3,195.1,656.5,195.2,656.5,195.4z"/>
		<path fill="#353535" d="M668.6,200v12.2c0,3.2-1.9,5.3-5,5.3c-3.1,0-5-2.1-5-5.3V200c0-3.2,1.7-5.3,5-5.3
			C666.9,194.7,668.6,196.8,668.6,200z M666,200c0-2.1-1-2.9-2.4-2.9c-1.4,0-2.4,0.8-2.4,2.9v12.1c0,2.1,1,2.9,2.4,2.9
			c1.5,0,2.4-0.8,2.4-2.9V200z"/>
		<path fill="#353535" d="M685.7,195.4v1.7c0,0.2-0.2,0.4-0.4,0.4h-3.2v19.2c0,0.2-0.2,0.4-0.4,0.4h-1.8c-0.2,0-0.4-0.2-0.4-0.4
			v-19.2h-3.2c-0.2,0-0.4-0.2-0.4-0.4v-1.7c0-0.2,0.2-0.4,0.4-0.4h9C685.6,195.1,685.7,195.2,685.7,195.4z"/>
		<path fill="#353535" d="M698.2,195.4v21.3c0,0.2-0.2,0.4-0.4,0.4H696c-0.2,0-0.3-0.2-0.3-0.4V207h-5v9.7c0,0.2-0.1,0.4-0.3,0.4
			h-1.9c-0.2,0-0.4-0.2-0.4-0.4v-21.3c0-0.2,0.2-0.4,0.4-0.4h1.9c0.2,0,0.3,0.2,0.3,0.4v9.1h5v-9.1c0-0.2,0.1-0.4,0.3-0.4h1.9
			C698.1,195.1,698.2,195.2,698.2,195.4z"/>
		<path fill="#353535" d="M704.2,197.6v6.8h4.3c0.2,0,0.4,0.2,0.4,0.4v1.6c0,0.2-0.2,0.4-0.4,0.4h-4.3v7.9h6.3
			c0.2,0,0.4,0.2,0.4,0.4v1.7c0,0.2-0.2,0.4-0.4,0.4H702c-0.2,0-0.4-0.2-0.4-0.4v-21.3c0-0.2,0.2-0.4,0.4-0.4h8.5
			c0.2,0,0.4,0.2,0.4,0.4v1.7c0,0.2-0.2,0.4-0.4,0.4H704.2z"/>
		<path fill="#353535" d="M733,195.4v21.3c0,0.2-0.2,0.4-0.4,0.4H731c-0.2,0-0.4-0.2-0.4-0.4v-15.8l-3.7,15.9c0,0.1-0.2,0.3-0.3,0.3
			h-1.7c-0.1,0-0.3-0.1-0.3-0.3c0,0-3.6-15.3-3.7-15.9v15.8c0,0.2-0.2,0.4-0.4,0.4h0h-1.6c-0.2,0-0.4-0.2-0.4-0.4v-21.3
			c0-0.2,0.2-0.4,0.4-0.4h2.3c0.2,0,0.4,0.1,0.4,0.3l4.1,17.7l4.1-17.7c0-0.2,0.2-0.3,0.4-0.3h2.3C732.8,195.1,733,195.2,733,195.4z
			"/>
		<path fill="#353535" d="M746.2,200v12.2c0,3.2-1.9,5.3-5,5.3c-3.1,0-5-2.1-5-5.3V200c0-3.2,1.7-5.3,5-5.3
			C744.5,194.7,746.2,196.8,746.2,200z M743.7,200c0-2.1-1-2.9-2.4-2.9c-1.4,0-2.4,0.8-2.4,2.9v12.1c0,2.1,1,2.9,2.4,2.9
			c1.5,0,2.4-0.8,2.4-2.9V200z"/>
		<path fill="#353535" d="M759.4,200v12.2c0,3.2-1.9,5.3-5,5.3c-3.1,0-5-2.1-5-5.3V200c0-3.2,1.7-5.3,5-5.3
			C757.7,194.7,759.4,196.8,759.4,200z M756.8,200c0-2.1-1-2.9-2.4-2.9c-1.4,0-2.4,0.8-2.4,2.9v12.1c0,2.1,1,2.9,2.4,2.9
			c1.5,0,2.4-0.8,2.4-2.9V200z"/>
		<path fill="#353535" d="M773.5,195.4v21.3c0,0.2-0.2,0.4-0.4,0.4h-1.7c-0.2,0-0.5-0.3-0.5-0.4l-6-15.4v15.4c0,0.2-0.1,0.4-0.3,0.4
			H763c-0.2,0-0.4-0.2-0.4-0.4v-21.3c0-0.2,0.2-0.4,0.4-0.4h1.7c0.2,0,0.4,0.1,0.4,0.3l6.1,16.3v-16.3c0-0.2,0.1-0.4,0.3-0.4h1.7
			C773.4,195.1,773.5,195.2,773.5,195.4z"/>
	</g>
</g>
<g>
	<g>
		<path fill="none" stroke="#353535" stroke-width="3" stroke-linecap="round" stroke-linejoin="round" stroke-miterlimit="10" d="
			M500.6,161.6c2.1,0.9,3.3,3.5,1.7,5.4c-2.7,3.2-8.4,2-7.4-2.6C495.2,162.9,498.3,160.7,500.6,161.6z"/>
		
			<circle fill-rule="evenodd" clip-rule="evenodd" fill="none" stroke="#353535" stroke-width="3" stroke-linecap="round" stroke-linejoin="round" stroke-miterlimit="10" cx="502.6" cy="174.7" r="38.2"/>
		
			<path fill-rule="evenodd" clip-rule="evenodd" fill="none" stroke="#353535" stroke-width="3" stroke-linecap="round" stroke-linejoin="round" stroke-miterlimit="10" d="
			M481.4,143.6c0,0,7.8,0.3,8.6,7.2c0.7,5.4-2.9,13.6-9.8,11.9c-6.2-1.5-8.2,4.6-5.5,7.8c4.2,5.2,9.3,7.9,4.7,18.4
			c-2.2,5,3.7,9,6.9,12.2c3.3,3.2,2.6,7.1-1.2,7.4"/>
		
			<path fill-rule="evenodd" clip-rule="evenodd" fill="none" stroke="#353535" stroke-width="3" stroke-linecap="round" stroke-linejoin="round" stroke-miterlimit="10" d="
			M515.2,138.7c0,0-7.1,5.1-8.5,12.4c-1.4,7.2,2.6,11.1,10.6,13.5c4.8,1.4,6.8,5.8,6.1,10.5c-0.5,3.5-4.4,9-12.6,4
			c-7.1-4.3-10.7,4.8-9.8,11.9c1.2,9.3,9.7,9.4,14.5,6.5c5.5-3.4,9.9-2.4,8.3,4.3c-1.1,4.7-5.5,7.8-5.5,7.8"/>
	</g>
	<path fill="none" stroke="#353535" stroke-width="3" stroke-linecap="round" stroke-linejoin="round" stroke-miterlimit="10" d="
		M500.6,161.6c2.1,0.9,3.3,3.5,1.7,5.4c-2.7,3.2-8.4,2-7.4-2.6C495.2,162.9,498.3,160.7,500.6,161.6z"/>
</g>
</svg>
