<?xml version="1.0" encoding="utf-8"?>
<!-- Generator: Adobe Illustrator 17.1.0, SVG Export Plug-In . SVG Version: 6.00 Build 0)  -->
<!DOCTYPE svg PUBLIC "-//W3C//DTD SVG 1.1//EN" "http://www.w3.org/Graphics/SVG/1.1/DTD/svg11.dtd">
<svg version="1.1" id="Layer_1" xmlns="http://www.w3.org/2000/svg" xmlns:xlink="http://www.w3.org/1999/xlink" x="0px" y="0px"
	 viewBox="0 0 796.2 746.6" enable-background="new 0 0 796.2 746.6" xml:space="preserve">
<g>
	<path fill="#353535" d="M60.6,543v9.2c0,1.1-0.9,2-2,2H9.9c-1.1,0-2-0.9-2-2c0,0,0-10.3,0-11.5c0-7.9,4-20.9,10.6-28.8
		c3.8-4.7,16-19.3,19.4-23.2c7.7-9.4,9.7-13,9.7-21.4c0-8.8-2.2-19.1-13-19.1c-5.9,0-13.1,2.3-13.1,19.1v6.7c0,1.1-0.9,2-2,2h-9.4
		c-1.1,0-2-0.9-2-2v-7.6c0-18.4,8.8-30.8,26.8-30.8c16.6,0,25.7,12.1,25.9,30.2v3.1c0,14.2-6.7,20.9-13.1,29
		c-13.1,15.7-25.9,29-25.9,40.5v2.9h36.7C59.7,541.2,60.6,542.1,60.6,543z"/>
	<path fill="#353535" d="M74.3,542.9c0-0.9,0.7-1.8,1.8-1.8h10.1c0.9,0,1.8,0.9,1.8,1.8v9.5c0,1.1-0.9,1.8-1.8,1.8H76.1
		c-1.1,0-1.8-0.7-1.8-1.8V542.9z"/>
	<path fill="#353535" d="M156.2,463.7v10.8v53.3c0,16.9-10.1,28.4-26.5,28.4s-27-11.5-27-28.4v-11c0-0.9,0.9-1.8,1.8-1.8h9.9
		c1.1,0,1.8,0.9,1.8,1.8v12.1c0,10.8,6.8,14.2,13.1,14.2c5.2,0,13-2.9,13-14.2v-34.6c-3.8,5.8-9.7,6.7-13.1,6.7
		c-16.4,0-26.5-11.5-26.5-28.6v-8.6c0-17.1,10.1-28.3,26.6-28.3C145.4,435.4,156.2,446.6,156.2,463.7z M142.4,463.5
		c0-10.8-5.2-15.1-12.8-15.1c-7.9,0-12.8,4.3-12.8,15.1v9.2c0,11.2,5.4,15.3,12.8,15.3c7.6,0,12.8-4.3,12.8-15.3V463.5z"/>
	<path fill="#353535" d="M223.4,543v9.2c0,1.1-0.9,2-2,2h-48.8c-1.1,0-2-0.9-2-2c0,0,0-10.3,0-11.5c0-7.9,4-20.9,10.6-28.8
		c3.8-4.7,16-19.3,19.4-23.2c7.7-9.4,9.7-13,9.7-21.4c0-8.8-2.2-19.1-13-19.1c-5.9,0-13.1,2.3-13.1,19.1v6.7c0,1.1-0.9,2-2,2H173
		c-1.1,0-2-0.9-2-2v-7.6c0-18.4,8.8-30.8,26.8-30.8c16.6,0,25.7,12.1,25.9,30.2v3.1c0,14.2-6.7,20.9-13.1,29
		c-13.1,15.7-25.9,29-25.9,40.5v2.9h36.7C222.5,541.2,223.4,542.1,223.4,543z"/>
	<path fill="#353535" d="M302.7,496.8v6.8c0,1.1-0.7,1.8-1.8,1.8h-12.1v12.4c0,0.9-0.9,1.8-1.8,1.8h-7.2c-1.1,0-1.8-0.9-1.8-1.8
		v-12.4h-12.2c-0.9,0-1.8-0.7-1.8-1.8v-6.8c0-0.9,0.9-1.8,1.8-1.8h12.2v-12.2c0-1.1,0.7-1.8,1.8-1.8h7.2c0.9,0,1.8,0.7,1.8,1.8V495
		h12.1C302,495,302.7,495.9,302.7,496.8z"/>
	<path fill="#353535" d="M367.2,439.6v112.7c0,1.1-0.9,2-2,2H356c-1.1,0-1.8-0.9-1.8-2v-93.8h-11.7c-1.1,0-2-0.9-2-2v-4.9
		c0-1.1,0.9-2,1.8-2c14.4-5.2,10.6-12.1,16.7-12.1c1.4,0,6.1,0,6.1,0C366.3,437.6,367.2,438.5,367.2,439.6z"/>
</g>
<circle fill="none" stroke="#FFFFFF" stroke-width="2" stroke-miterlimit="10" cx="258.4" cy="561.4" r="56.1"/>
<g>
	<g>
		<path fill="#FFFFFF" d="M242.8,543.2h-3.4v-1.4h8.4v1.4h-3.4v11.9h-1.5V543.2z"/>
		<path fill="#FFFFFF" d="M248.9,550.4c0-3.4,1.8-5,3.7-5c2.1,0,3.4,1.7,3.4,4.9v0.4h-5.6c0.1,2.2,0.9,3.4,2.3,3.4
			c1.1,0,1.7-0.6,2.3-1.7l1,0.6c-0.7,1.4-1.8,2.2-3.3,2.2C250.5,555.3,248.9,553.7,248.9,550.4z M254.6,549.6
			c-0.1-1.7-0.7-2.9-2-2.9c-1.1,0-2,0.9-2.2,2.9H254.6z"/>
		<path fill="#FFFFFF" d="M257.3,552.9c0-1.9,1.6-3.3,5.3-4v-0.6c0-1.1-0.5-1.6-1.4-1.6c-1.2,0-2.1,0.6-2.8,1.3l-0.8-0.9
			c1-1,2.3-1.7,3.8-1.7c1.9,0,2.7,1,2.7,2.9v4.5c0,1.2,0.1,1.9,0.2,2.3h-1.5c-0.1-0.4-0.2-0.7-0.2-1.2c-0.8,0.8-1.8,1.3-3,1.3
			C258.2,555.3,257.3,554.4,257.3,552.9z M262.6,552.8v-2.9c-2.9,0.6-3.9,1.6-3.9,2.8c0,1,0.5,1.4,1.3,1.4
			C261.1,554.1,262,553.5,262.6,552.8z"/>
		<path fill="#FFFFFF" d="M266.3,545.6h1.5v1.3c0.7-0.7,1.7-1.5,2.9-1.5c1.3,0,1.9,0.5,2.2,1.5c0.7-0.8,1.7-1.5,3-1.5
			c1.5,0,2.3,0.9,2.3,2.6v7.1h-1.4v-6.8c0-1.1-0.4-1.7-1.3-1.7c-0.9,0-1.7,0.6-2.4,1.3v7.1h-1.5v-6.8c0-1.1-0.3-1.7-1.3-1.7
			c-0.8,0-1.6,0.6-2.4,1.4v7.1h-1.5V545.6z"/>
		<path fill="#FFFFFF" d="M226.7,565.8h1.9L232,577h0l3.3-11.2h1.9v13.3h-1.5v-10.9h0c-0.2,0.8-0.6,2.3-0.9,3.4l-2.3,7.5h-1.2
			l-2.3-7.6c-0.3-1-0.7-2.5-0.9-3.4h0v10.9h-1.4V565.8z"/>
		<path fill="#FFFFFF" d="M239.3,574.4c0-3.4,1.8-5,3.7-5c2.1,0,3.4,1.7,3.4,4.9v0.4h-5.6c0.1,2.2,0.9,3.4,2.3,3.4
			c1.1,0,1.7-0.6,2.3-1.7l1,0.6c-0.7,1.4-1.8,2.2-3.3,2.2C240.9,579.3,239.3,577.7,239.3,574.4z M245,573.6c-0.1-1.7-0.7-2.9-2-2.9
			c-1.1,0-2,0.9-2.2,2.9H245z"/>
		<path fill="#FFFFFF" d="M248.2,569.6h1.5v1.3c0.7-0.7,1.7-1.5,2.9-1.5c1.3,0,1.9,0.5,2.2,1.5c0.7-0.8,1.7-1.5,3-1.5
			c1.5,0,2.3,0.9,2.3,2.6v7.1h-1.4v-6.8c0-1.1-0.4-1.7-1.3-1.7c-0.9,0-1.7,0.6-2.4,1.3v7.1h-1.5v-6.8c0-1.1-0.3-1.7-1.3-1.7
			c-0.8,0-1.6,0.6-2.4,1.4v7.1h-1.5V569.6z"/>
		<path fill="#FFFFFF" d="M263.7,578v1.1h-1.5v-13.3h1.5v5c0.6-0.7,1.4-1.4,2.6-1.4c1.9,0,3.2,1.5,3.2,4.9c0,3.4-1.5,4.9-3.3,4.9
			C265.1,579.3,264.3,578.8,263.7,578z M268.1,574.4c0-2.5-0.9-3.7-2.1-3.7c-0.9,0-1.6,0.6-2.2,1.3v4.8c0.7,0.8,1.4,1.3,2.3,1.3
			C267.2,578.1,268.1,577,268.1,574.4z"/>
		<path fill="#FFFFFF" d="M270.9,574.4c0-3.4,1.8-5,3.7-5c2.1,0,3.4,1.7,3.4,4.9v0.4h-5.6c0.1,2.2,0.9,3.4,2.3,3.4
			c1.1,0,1.7-0.6,2.3-1.7l1,0.6c-0.7,1.4-1.8,2.2-3.3,2.2C272.5,579.3,270.9,577.7,270.9,574.4z M276.6,573.6
			c-0.1-1.7-0.7-2.9-2-2.9c-1.1,0-2,0.9-2.2,2.9H276.6z"/>
		<path fill="#FFFFFF" d="M279.8,569.6h1.5v1.6h0c0.5-1,1.5-1.8,3-1.8h0.2l-0.1,1.4c0,0-0.3,0-0.3,0c-1.2,0-2.3,0.8-2.8,1.9v6.4
			h-1.5V569.6z"/>
		<path fill="#FFFFFF" d="M285.2,577.4l1-0.7c0.6,1,1.6,1.5,2.6,1.5c1.2,0,1.9-0.5,1.9-1.4c0-2.3-5-1.4-5-4.8c0-1.5,1.2-2.6,3-2.6
			c1.4,0,2.4,0.7,3.1,1.7l-1,0.8c-0.5-0.7-1.2-1.3-2.2-1.3c-1.1,0-1.6,0.5-1.6,1.3c0,2.4,4.9,1.3,4.9,4.8c0,1.7-1.5,2.7-3.3,2.7
			C287.2,579.3,286,578.6,285.2,577.4z"/>
	</g>
</g>
<circle fill="none" stroke="#FFFFFF" stroke-width="2" stroke-miterlimit="10" cx="431.6" cy="493.3" r="45.6"/>
<g>
	<g>
		<path fill="#FFFFFF" d="M415.6,475.1h1.5v7c0.2-0.4,0.8-1.3,1.4-2.1l3.5-4.9h1.6l-3.7,5.2l4.3,8.2h-1.6l-3.6-6.9l-1.8,2.5v4.4
			h-1.5V475.1z"/>
		<path fill="#FFFFFF" d="M425.7,484.1v-8.9h1.5v8.8c0,2.2,0.7,3.5,2.7,3.5c2,0,2.7-1.3,2.7-3.4v-8.8h1.5v8.9c0,2.7-1.2,4.6-4.1,4.6
			C426.9,488.7,425.7,486.9,425.7,484.1z"/>
		<path fill="#FFFFFF" d="M436.7,475.1h3.9c2.5,0,4,1.1,4,3.3c0,1.9-1,2.7-2.1,3v0c1.4,0.3,2.5,1.2,2.5,3.3c0,2.3-1.5,3.6-4.1,3.6
			h-4.2V475.1z M440.5,481c1.7,0,2.6-0.6,2.6-2.2c0-1.6-0.8-2.3-2.6-2.3h-2.3v4.5H440.5z M440.8,487.2c1.8,0,2.6-0.8,2.6-2.4
			c0-1.8-1.1-2.4-2.9-2.4h-2.4v4.9H440.8z"/>
		<path fill="#FFFFFF" d="M447.2,475.1h1.5v13.3h-1.5V475.1z"/>
		<path fill="#FFFFFF" d="M412.1,499.1h3.8c2.6,0,4.1,1.2,4.1,3.8c0,2.1-1.2,3.2-2.5,3.6l2.7,5.9h-1.5l-2.6-5.7h-2.4v5.7h-1.5V499.1
			z M415.8,505.5c1.8,0,2.7-0.7,2.7-2.6c0-1.8-0.9-2.4-2.7-2.4h-2.2v5H415.8z"/>
		<path fill="#FFFFFF" d="M421.7,507.7c0-3.3,1.6-5,3.8-5c2.1,0,3.7,1.7,3.7,5c0,3.3-1.6,5-3.7,5S421.7,511,421.7,507.7z
			 M427.7,507.7c0-2.1-0.7-3.7-2.3-3.7c-1.5,0-2.3,1.5-2.3,3.7c0,2.1,0.7,3.7,2.3,3.7C426.9,511.4,427.7,510,427.7,507.7z"/>
		<path fill="#FFFFFF" d="M432.5,511.3v1.1H431v-13.3h1.5v5c0.6-0.7,1.4-1.4,2.6-1.4c1.9,0,3.2,1.5,3.2,4.9c0,3.4-1.5,4.9-3.3,4.9
			C433.9,512.6,433.1,512.1,432.5,511.3z M436.9,507.7c0-2.5-0.9-3.7-2.1-3.7c-0.9,0-1.6,0.6-2.2,1.3v4.8c0.7,0.8,1.4,1.3,2.2,1.3
			C436,511.4,436.9,510.3,436.9,507.7z"/>
		<path fill="#FFFFFF" d="M439.7,507.7c0-3.3,1.6-5,3.8-5c2.1,0,3.7,1.7,3.7,5c0,3.3-1.6,5-3.7,5S439.7,511,439.7,507.7z
			 M445.8,507.7c0-2.1-0.7-3.7-2.3-3.7c-1.5,0-2.3,1.5-2.3,3.7c0,2.1,0.7,3.7,2.3,3.7C445,511.4,445.8,510,445.8,507.7z"/>
		<path fill="#FFFFFF" d="M449.6,510.3v-6.2h-1.4V503h1.4v-3.4h1.4v3.4h2.1v1.2h-2.1v5.8c0,1,0.3,1.4,1.3,1.4c0.3,0,0.6-0.1,0.8-0.1
			v1.2c-0.2,0.1-0.7,0.1-1.1,0.1C450.3,512.6,449.6,512,449.6,510.3z"/>
	</g>
</g>
<line fill="none" stroke="#353535" stroke-width="4" stroke-linecap="round" stroke-linejoin="round" stroke-miterlimit="10" x1="512.6" y1="23" x2="793.7" y2="23"/>
<g>
	<path fill="#353535" d="M519.4,8.2L519.4,8.2h-2.2v3.2h-2.8V0.1h5c3,0,4.7,1.4,4.7,3.9c0,1.7-0.7,2.9-2,3.6l2.4,3.7h-3.2L519.4,8.2
		z M519.3,5.9c1.2,0,2-0.6,2-1.8c0-1.2-0.7-1.8-2-1.8h-2.2v3.6H519.3z"/>
	<path fill="#353535" d="M530.4,2.4v2.2h5.3v2.2h-5.3v2.3h6.1v2.2h-8.9V0.1h8.8v2.2H530.4z"/>
	<path fill="#353535" d="M548.6,1.2l-1.1,2.2c-1.2-0.7-2.7-1.2-3.6-1.2c-0.7,0-1.2,0.3-1.2,0.8c0,1.9,5.9,0.8,5.9,4.9
		c0,2.2-2,3.4-4.5,3.4c-1.9,0-3.8-0.7-5.1-1.8l1.1-2.2c1.2,1,2.9,1.7,4,1.7c0.9,0,1.5-0.3,1.5-1c0-2-5.9-0.8-5.9-4.8
		c0-2.1,1.8-3.4,4.5-3.4C545.8,0,547.5,0.5,548.6,1.2z"/>
	<path fill="#353535" d="M561.9,6.6c0,3-2,4.8-5.1,4.8c-3.2,0-5.2-1.9-5.2-4.8V0.1h2.8v6.5c0,1.5,1,2.4,2.3,2.4
		c1.3,0,2.3-0.9,2.3-2.4V0.1h2.8V6.6z"/>
	<path fill="#353535" d="M575.3,11.3l0-7.3l-2.7,6.2h-1.9L568.1,4v7.3h-2.5V0.1h3.1l3,6.7l3-6.7h3.1v11.2H575.3z"/>
	<path fill="#353535" d="M584.5,2.4v2.2h5.3v2.2h-5.3v2.3h6.1v2.2h-8.9V0.1h8.8v2.2H584.5z"/>
	<path fill="#353535" d="M604.7,0.1c2.5,0,4.1,1.1,4.1,2.8c0,1.2-0.7,2.1-1.9,2.5c1.4,0.3,2.3,1.4,2.3,2.8c0,1.9-1.7,3.1-4.3,3.1
		h-5.5V0.1H604.7z M602.2,4.6h2.3c0.8,0,1.4-0.4,1.4-1.2s-0.5-1.1-1.4-1.1h-2.3V4.6z M602.2,9.1h2.3c1.1,0,1.7-0.5,1.7-1.3
		c0-0.8-0.7-1.2-1.7-1.2h-2.3V9.1z"/>
	<path fill="#353535" d="M623.8,5.7c0,3.3-2.6,5.7-6.1,5.7c-3.5,0-6-2.5-6-5.7c0-3.3,2.6-5.7,6-5.7C621.2,0,623.8,2.5,623.8,5.7z
		 M614.6,5.7c0,1.9,1.5,3.3,3.2,3.3c1.7,0,3.1-1.5,3.1-3.3c0-1.9-1.4-3.3-3.1-3.3S614.6,3.8,614.6,5.7z"/>
	<path fill="#353535" d="M631.7,2.4v8.9h-2.8V2.4h-3.3V0.1h9.6v2.3H631.7z"/>
</g>
<rect x="2" y="683.1" fill="none" stroke="#FFFFFF" stroke-width="4" stroke-linecap="round" stroke-linejoin="round" stroke-miterlimit="10" width="481.8" height="60.3"/>
<g>
	<path fill="#FFFFFF" d="M27.6,706.4v2.2c0,0.2-0.2,0.4-0.4,0.4h-1.9c-0.2,0-0.4-0.2-0.4-0.4v-2.1c0-2.2-1.1-3.1-2.7-3.1
		c-1.5,0-2.6,0.8-2.6,3.1v12.8c0,2.2,1.1,3.1,2.6,3.1c1.5,0,2.7-0.8,2.7-3.1V717c0-0.2,0.2-0.4,0.4-0.4h1.9c0.2,0,0.4,0.2,0.4,0.4
		v2.2c0,3.3-2.1,5.6-5.3,5.6c-3.2,0-5.3-2.3-5.3-5.6v-12.9c0-3.4,1.8-5.6,5.3-5.6C25.7,700.8,27.6,703,27.6,706.4z"/>
	<path fill="#FFFFFF" d="M41,706.4v12.9c0,3.3-2.1,5.6-5.3,5.6c-3.2,0-5.3-2.3-5.3-5.6v-12.9c0-3.4,1.8-5.6,5.3-5.6
		C39.2,700.8,41,703,41,706.4z M38.3,706.4c0-2.2-1-3.1-2.6-3.1c-1.5,0-2.6,0.8-2.6,3.1v12.8c0,2.2,1,3.1,2.6,3.1
		c1.5,0,2.6-0.8,2.6-3.1V706.4z"/>
	<path fill="#FFFFFF" d="M55.2,718.7c0,3.5-1.8,5.8-5.3,5.8h-5c-0.2,0-0.4-0.2-0.4-0.4v-22.5c0-0.2,0.2-0.4,0.4-0.4h5
		c3.8,0,5.4,2.7,5.4,6.3V718.7z M49.9,721.9c1.8,0,2.5-1.2,2.5-2.6v-12.5c0-1.5-0.5-3-2.5-3h-2.8v18.1H49.9z"/>
	<path fill="#FFFFFF" d="M61.4,703.8v7.2h4.6c0.2,0,0.4,0.2,0.4,0.4v1.7c0,0.2-0.2,0.4-0.4,0.4h-4.6v8.4H68c0.2,0,0.4,0.2,0.4,0.4
		v1.8c0,0.2-0.2,0.4-0.4,0.4h-9c-0.2,0-0.4-0.2-0.4-0.4v-22.5c0-0.2,0.2-0.4,0.4-0.4h9c0.2,0,0.4,0.2,0.4,0.4v1.8
		c0,0.2-0.2,0.4-0.4,0.4H61.4z"/>
	<path fill="#FFFFFF" d="M87.1,706.4v2.2c0,0.2-0.2,0.4-0.4,0.4h-1.9c-0.2,0-0.4-0.2-0.4-0.4v-2.1c0-2.2-1.1-3.1-2.7-3.1
		c-1.5,0-2.6,0.8-2.6,3.1v12.8c0,2.2,1.1,3.1,2.6,3.1c1.5,0,2.7-0.8,2.7-3.1V717c0-0.2,0.2-0.4,0.4-0.4h1.9c0.2,0,0.4,0.2,0.4,0.4
		v2.2c0,3.3-2.1,5.6-5.3,5.6c-3.2,0-5.3-2.3-5.3-5.6v-12.9c0-3.4,1.8-5.6,5.3-5.6C85.2,700.8,87.1,703,87.1,706.4z"/>
	<path fill="#FFFFFF" d="M100.5,706.4v12.9c0,3.3-2.1,5.6-5.3,5.6c-3.2,0-5.3-2.3-5.3-5.6v-12.9c0-3.4,1.8-5.6,5.3-5.6
		C98.7,700.8,100.5,703,100.5,706.4z M97.8,706.4c0-2.2-1-3.1-2.6-3.1c-1.5,0-2.6,0.8-2.6,3.1v12.8c0,2.2,1,3.1,2.6,3.1
		c1.5,0,2.6-0.8,2.6-3.1V706.4z"/>
	<path fill="#FFFFFF" d="M119.2,701.6v22.5c0,0.2-0.2,0.4-0.4,0.4h-1.7c-0.2,0-0.4-0.2-0.4-0.4v-16.7l-3.9,16.8
		c0,0.1-0.2,0.3-0.4,0.3h-1.8c-0.1,0-0.3-0.1-0.4-0.3c0,0-3.8-16.2-3.9-16.8v16.7c0,0.2-0.2,0.4-0.4,0.4h0h-1.7
		c-0.2,0-0.4-0.2-0.4-0.4v-22.5c0-0.2,0.2-0.4,0.4-0.4h2.4c0.2,0,0.4,0.1,0.4,0.4l4.4,18.8l4.4-18.8c0-0.2,0.3-0.4,0.4-0.4h2.4
		C119,701.2,119.2,701.4,119.2,701.6z"/>
	<path fill="#FFFFFF" d="M138,701.6v22.5c0,0.2-0.2,0.4-0.4,0.4h-1.7c-0.2,0-0.4-0.2-0.4-0.4v-16.7l-3.9,16.8c0,0.1-0.2,0.3-0.4,0.3
		h-1.8c-0.1,0-0.3-0.1-0.4-0.3c0,0-3.8-16.2-3.9-16.8v16.7c0,0.2-0.2,0.4-0.4,0.4h0h-1.7c-0.2,0-0.4-0.2-0.4-0.4v-22.5
		c0-0.2,0.2-0.4,0.4-0.4h2.4c0.2,0,0.4,0.1,0.4,0.4l4.4,18.8l4.4-18.8c0-0.2,0.3-0.4,0.4-0.4h2.4C137.8,701.2,138,701.4,138,701.6z"
		/>
	<path fill="#FFFFFF" d="M145.7,703.8v18.1h1.8c0.2,0,0.4,0.2,0.4,0.4v1.9c0,0.2-0.2,0.4-0.4,0.4h-6.1c-0.2,0-0.4-0.1-0.4-0.4v-1.9
		c0-0.2,0.2-0.4,0.4-0.4h1.8v-18.1h-1.8c-0.2,0-0.4-0.1-0.4-0.4v-1.9c0-0.2,0.2-0.4,0.4-0.4h6.1c0.2,0,0.4,0.1,0.4,0.4v1.9
		c0,0.2-0.2,0.4-0.4,0.4H145.7z"/>
	<path fill="#FFFFFF" d="M160.2,701.6v1.8c0,0.2-0.2,0.4-0.4,0.4h-3.4v20.3c0,0.2-0.2,0.4-0.4,0.4H154c-0.2,0-0.4-0.2-0.4-0.4v-20.3
		h-3.4c-0.2,0-0.4-0.2-0.4-0.4v-1.8c0-0.2,0.2-0.4,0.4-0.4h9.5C160,701.2,160.2,701.4,160.2,701.6z"/>
	<path fill="#FFFFFF" d="M172.8,717.4c0,0.6,0,2.2,0,2.2c0,3.2-2.3,5.3-5.3,5.3c-3.2,0-5.5-2.3-5.5-5.8V717c0-0.2,0.1-0.4,0.4-0.4
		h1.9c0.2,0,0.4,0.2,0.4,0.4v2.6c0,2.1,1.3,2.9,2.9,2.9c1.9,0,2.6-1.3,2.6-2.9v-1.9c0-1.4-0.5-2.1-2.3-3.7l-2.8-2.6
		c-1.5-1.4-2.7-3.5-2.7-5.1c0-3.3,1.9-5.5,5.2-5.5c3.2,0,5.3,2.2,5.3,5.6v1.9c0,0.2-0.1,0.3-0.3,0.3h-2c-0.1,0-0.3-0.1-0.3-0.3v-2.2
		c0-2.2-1.1-3-2.6-3c-1.5,0-2.4,1-2.4,3c0,0.5,0.1,1.7,2.1,3.5c0.6,0.6,3.5,3.3,3.5,3.3C172.6,714.7,172.8,716.5,172.8,717.4z"/>
</g>
<g>
	<path fill="#FFFFFF" d="M416.9,701.6v22.5c0,0.2-0.2,0.4-0.4,0.4h-1.8c-0.2,0-0.4-0.2-0.4-0.4v-18.8H412c-0.2,0-0.4-0.2-0.4-0.4v-1
		c0-0.2,0.2-0.4,0.4-0.4c2.9-1,2.1-2.4,3.3-2.4c0.3,0,1.2,0,1.2,0C416.7,701.2,416.9,701.4,416.9,701.6z"/>
	<path fill="#FFFFFF" d="M422.9,722.2v1.8c0,0.4-0.2,0.7-0.3,0.9l-1.2,2.7c-0.1,0.1-0.1,0.2-0.3,0.2h-0.7c-0.1,0-0.2-0.1-0.1-0.2
		l0.7-3.1h-0.6c-0.2,0-0.4-0.1-0.4-0.4v-1.9c0-0.2,0.1-0.4,0.4-0.4h2C422.7,721.9,422.9,722,422.9,722.2z"/>
	<path fill="#FFFFFF" d="M436.5,706.4v2.2v10.7c0,3.4-2,5.7-5.3,5.7s-5.4-2.3-5.4-5.7V717c0-0.2,0.2-0.4,0.4-0.4h2
		c0.2,0,0.4,0.2,0.4,0.4v2.4c0,2.2,1.4,2.8,2.6,2.8c1,0,2.6-0.6,2.6-2.8v-6.9c-0.8,1.2-1.9,1.3-2.6,1.3c-3.3,0-5.3-2.3-5.3-5.7v-1.7
		c0-3.4,2-5.7,5.3-5.7C434.4,700.7,436.5,703,436.5,706.4z M433.7,706.4c0-2.2-1-3-2.6-3c-1.6,0-2.6,0.9-2.6,3v1.8
		c0,2.2,1.1,3.1,2.6,3.1c1.5,0,2.6-0.9,2.6-3.1V706.4z"/>
	<path fill="#FFFFFF" d="M450.4,706.4v2.2v10.7c0,3.4-2,5.7-5.3,5.7s-5.4-2.3-5.4-5.7V717c0-0.2,0.2-0.4,0.4-0.4h2
		c0.2,0,0.4,0.2,0.4,0.4v2.4c0,2.2,1.4,2.8,2.6,2.8c1,0,2.6-0.6,2.6-2.8v-6.9c-0.8,1.2-1.9,1.3-2.6,1.3c-3.3,0-5.3-2.3-5.3-5.7v-1.7
		c0-3.4,2-5.7,5.3-5.7C448.2,700.7,450.4,703,450.4,706.4z M447.6,706.4c0-2.2-1-3-2.6-3c-1.6,0-2.6,0.9-2.6,3v1.8
		c0,2.2,1.1,3.1,2.6,3.1c1.5,0,2.6-0.9,2.6-3.1V706.4z"/>
	<path fill="#FFFFFF" d="M464.4,716.7v2.2c0,4-1.9,6-5.5,6c-3.7,0-5.4-2-5.5-6v-2.2c0-1.5,0.5-2.7,1.3-3.6c0.3-0.3,0.6-0.5,0.9-0.7
		c-1.2-0.8-2-2.1-2-3.9v-1.9c0-3.5,1.5-5.8,5.3-5.8c3.6,0,5.3,2.3,5.3,5.8v1.9c0,1.8-0.8,3.1-2,3.9c0.3,0.2,0.6,0.4,0.9,0.7
		C463.9,714,464.4,715.2,464.4,716.7z M458.9,722.3c1.4,0,2.7-0.8,2.7-3v-2.6c0-2.1-1.3-2.8-2.7-2.8c-1.5,0-2.8,0.8-2.8,2.8v2.6
		C456.1,721.5,457.4,722.3,458.9,722.3z M458.9,703.4c-1.5,0-2.5,0.8-2.5,3v1.9c0,2.2,1,3,2.5,3c1.5,0,2.4-0.8,2.4-3v-1.9
		C461.3,704.2,460.3,703.4,458.9,703.4z"/>
</g>
<g>
	<path fill="#353535" d="M629.9,707.6v1.4c0,0.2-0.1,0.4-0.4,0.4h-2.5l-1,5.6h2.1c0.2,0,0.4,0.1,0.4,0.4v1.4c0,0.2-0.2,0.4-0.4,0.4
		h-2.5l-1.2,6.3c0,0.2-0.3,0.4-0.4,0.4h-1.5c-0.2,0-0.3-0.1-0.3-0.4l1.2-6.3h-2.9l-1.2,6.3c0,0.2-0.2,0.4-0.4,0.4h-1.5
		c-0.2,0-0.3-0.1-0.3-0.4l1.2-6.3h-2.2c-0.2,0-0.4-0.2-0.4-0.4v-1.4c0-0.2,0.2-0.4,0.4-0.4h2.6l1.1-5.6h-2.2c-0.2,0-0.4-0.2-0.4-0.4
		v-1.4c0-0.2,0.2-0.4,0.4-0.4h2.6l1.2-6.4c0-0.2,0.2-0.4,0.4-0.4h1.5c0.2,0,0.3,0.1,0.3,0.4l-1.2,6.4h2.9l1.2-6.4
		c0-0.2,0.2-0.4,0.4-0.4h1.5c0.2,0,0.3,0.1,0.3,0.4l-1.2,6.4h2.1C629.8,707.3,629.9,707.4,629.9,707.6z M624.9,709.4H622l-1.1,5.6
		h2.9L624.9,709.4z"/>
	<path fill="#353535" d="M636.4,700.9v22.5c0,0.2-0.2,0.4-0.4,0.4h-1.8c-0.2,0-0.4-0.2-0.4-0.4v-18.8h-2.3c-0.2,0-0.4-0.2-0.4-0.4
		v-1c0-0.2,0.2-0.4,0.4-0.4c2.9-1,2.1-2.4,3.3-2.4c0.3,0,1.2,0,1.2,0C636.2,700.5,636.4,700.7,636.4,700.9z"/>
	<path fill="#353535" d="M655.8,705.8v2.2c0,0.2-0.2,0.4-0.4,0.4h-1.9c-0.2,0-0.4-0.2-0.4-0.4v-2.1c0-2.2-1.1-3.1-2.7-3.1
		c-1.5,0-2.6,0.8-2.6,3.1v12.8c0,2.2,1.1,3.1,2.6,3.1c1.5,0,2.7-0.8,2.7-3.1v-2.2c0-0.2,0.2-0.4,0.4-0.4h1.9c0.2,0,0.4,0.2,0.4,0.4
		v2.2c0,3.3-2.1,5.6-5.3,5.6c-3.2,0-5.3-2.3-5.3-5.6v-12.9c0-3.4,1.8-5.6,5.3-5.6C654,700.1,655.8,702.4,655.8,705.8z"/>
	<path fill="#353535" d="M669.3,700.9v17.7c0,3.3-2.1,5.6-5.3,5.6c-3.2,0-5.3-2.3-5.3-5.6v-17.7c0-0.2,0.2-0.4,0.4-0.4h1.9
		c0.2,0,0.4,0.2,0.4,0.4v17.7c0,2.2,1.1,3.1,2.6,3.1c1.5,0,2.6-0.8,2.6-3.1v-17.7c0-0.2,0.2-0.4,0.4-0.4h1.9
		C669.2,700.5,669.3,700.7,669.3,700.9z"/>
	<path fill="#353535" d="M682.1,700.9v1.8c0,0.2-0.2,0.4-0.4,0.4h-3.4v20.3c0,0.2-0.2,0.4-0.4,0.4H676c-0.2,0-0.4-0.2-0.4-0.4v-20.3
		h-3.4c-0.2,0-0.4-0.2-0.4-0.4v-1.8c0-0.2,0.2-0.4,0.4-0.4h9.5C681.9,700.5,682.1,700.7,682.1,700.9z"/>
	<path fill="#353535" d="M687.4,703.2v7.2h4.6c0.2,0,0.4,0.2,0.4,0.4v1.7c0,0.2-0.2,0.4-0.4,0.4h-4.6v8.4h6.6c0.2,0,0.4,0.2,0.4,0.4
		v1.8c0,0.2-0.2,0.4-0.4,0.4h-9c-0.2,0-0.4-0.2-0.4-0.4v-22.5c0-0.2,0.2-0.4,0.4-0.4h9c0.2,0,0.4,0.2,0.4,0.4v1.8
		c0,0.2-0.2,0.4-0.4,0.4H687.4z"/>
	<path fill="#353535" d="M707.3,716.7c0,0.6,0,2.2,0,2.2c0,3.2-2.3,5.3-5.3,5.3c-3.2,0-5.5-2.3-5.5-5.8v-2.1c0-0.2,0.1-0.4,0.4-0.4
		h1.9c0.2,0,0.4,0.2,0.4,0.4v2.6c0,2.1,1.3,2.9,2.9,2.9c1.9,0,2.6-1.3,2.6-2.9v-1.9c0-1.4-0.5-2.1-2.3-3.7l-2.8-2.6
		c-1.5-1.4-2.7-3.5-2.7-5.1c0-3.3,1.9-5.5,5.2-5.5c3.2,0,5.3,2.2,5.3,5.6v1.9c0,0.2-0.1,0.3-0.3,0.3h-2c-0.1,0-0.3-0.1-0.3-0.3v-2.2
		c0-2.2-1.1-3-2.6-3c-1.5,0-2.4,1-2.4,3c0,0.5,0.1,1.7,2.1,3.5c0.6,0.6,3.5,3.3,3.5,3.3C707.2,714.1,707.3,715.9,707.3,716.7z"/>
	<path fill="#353535" d="M719.3,700.9v1.8c0,0.2-0.2,0.4-0.4,0.4h-3.4v20.3c0,0.2-0.2,0.4-0.4,0.4h-1.9c-0.2,0-0.4-0.2-0.4-0.4
		v-20.3h-3.4c-0.2,0-0.4-0.2-0.4-0.4v-1.8c0-0.2,0.2-0.4,0.4-0.4h9.5C719.2,700.5,719.3,700.7,719.3,700.9z"/>
	<path fill="#353535" d="M730,721.2h6.7c0.2,0,0.4,0.1,0.4,0.4v1.9c0,0.2-0.1,0.4-0.4,0.4h-9c-0.2,0-0.4-0.2-0.4-0.4v-22.5
		c0-0.2,0.2-0.4,0.4-0.4h1.9c0.2,0,0.4,0.2,0.4,0.4V721.2z"/>
	<path fill="#353535" d="M750.1,705.8v12.9c0,3.3-2.1,5.6-5.3,5.6c-3.2,0-5.3-2.3-5.3-5.6v-12.9c0-3.4,1.8-5.6,5.3-5.6
		C748.2,700.1,750.1,702.4,750.1,705.8z M747.3,705.8c0-2.2-1-3.1-2.6-3.1c-1.5,0-2.6,0.8-2.6,3.1v12.8c0,2.2,1,3.1,2.6,3.1
		c1.5,0,2.6-0.8,2.6-3.1V705.8z"/>
	<path fill="#353535" d="M764.4,713.1v10.5c0,0.1-0.1,0.3-0.3,0.3h-0.7c-0.1,0-0.3-0.1-0.3-0.2l-0.2-1.1c-1,1.1-2.4,1.7-4.1,1.7
		c-3.2,0-5.5-2.3-5.5-5.6v-12.9c0-3.4,1.8-5.6,5.3-5.6c3.5,0,5.3,2.2,5.3,5.6v2.2c0,0.2-0.2,0.4-0.4,0.4h-1.9
		c-0.2,0-0.4-0.2-0.4-0.4v-2.1c0-2.2-1.1-3.1-2.6-3.1c-1.5,0-2.6,0.8-2.6,3.1v12.8c0,2.2,1.3,3.1,2.8,3.1c1.5,0,2.8-0.8,2.8-3.1
		v-3.4h-1.5c-0.2,0-0.4-0.1-0.4-0.4v-1.8c0-0.2,0.2-0.4,0.4-0.4h3.9C764.3,712.7,764.4,712.9,764.4,713.1z"/>
	<path fill="#353535" d="M778.2,705.8v12.9c0,3.3-2.1,5.6-5.3,5.6c-3.2,0-5.3-2.3-5.3-5.6v-12.9c0-3.4,1.8-5.6,5.3-5.6
		C776.3,700.1,778.2,702.4,778.2,705.8z M775.4,705.8c0-2.2-1-3.1-2.6-3.1c-1.5,0-2.6,0.8-2.6,3.1v12.8c0,2.2,1,3.1,2.6,3.1
		c1.5,0,2.6-0.8,2.6-3.1V705.8z"/>
</g>
<g>
	
		<circle fill="none" stroke="#353535" stroke-width="6" stroke-linecap="round" stroke-linejoin="round" stroke-miterlimit="10" cx="652.1" cy="365.2" r="121.1"/>
	
		<circle fill="none" stroke="#353535" stroke-width="6" stroke-linecap="round" stroke-linejoin="round" stroke-miterlimit="10" cx="652.1" cy="214.9" r="29.1"/>
	
		<polyline fill="none" stroke="#353535" stroke-width="6" stroke-linecap="round" stroke-linejoin="round" stroke-miterlimit="10" points="
		646.8,244 646.8,217.7 657.4,217.7 657.4,244 	"/>
	
		<rect x="756.4" y="247.6" transform="matrix(0.7071 -0.7071 0.7071 0.7071 37.0334 614.3292)" fill="none" stroke="#353535" stroke-width="6" stroke-linecap="round" stroke-linejoin="round" stroke-miterlimit="10" width="7.4" height="29.8"/>
	
		<line fill="none" stroke="#353535" stroke-width="6" stroke-linecap="round" stroke-linejoin="round" stroke-miterlimit="10" x1="757.4" y1="265.1" x2="740.2" y2="282.3"/>
	
		<rect x="539" y="247.6" transform="matrix(-0.7071 -0.7071 0.7071 -0.7071 740.8971 831.8123)" fill="none" stroke="#353535" stroke-width="6" stroke-linecap="round" stroke-linejoin="round" stroke-miterlimit="10" width="7.4" height="29.8"/>
	
		<line fill="none" stroke="#353535" stroke-width="6" stroke-linecap="round" stroke-linejoin="round" stroke-miterlimit="10" x1="545.4" y1="265.1" x2="562.6" y2="282.3"/>
</g>
<g>
	<path fill="#FFFFFF" d="M567,365.7c0-0.5,0.4-1,1-1h5.6c0.5,0,1,0.5,1,1v5.3c0,0.6-0.5,1-1,1H568c-0.6,0-1-0.4-1-1V365.7z"/>
	<path fill="#FFFFFF" d="M612.1,321.8v35.8c0,9.3-5.9,15.6-14.5,15.6c-8.4,0-14.4-6.3-14.4-15.6v-35.8c0-9.4,5.4-15.6,14.4-15.6
		C606.8,306.2,612.1,312.4,612.1,321.8z M604.5,322c0-6.2-2.8-8.6-6.9-8.6c-3.9,0-6.8,2.4-6.8,8.6v35.4c0,6.2,2.9,8.6,6.8,8.6
		c4.1,0,6.9-2.4,6.9-8.6V322z"/>
	<path fill="#FFFFFF" d="M649.4,365.8v5.1c0,0.6-0.5,1.1-1.1,1.1h-27.1c-0.6,0-1.1-0.5-1.1-1.1c0,0,0-5.7,0-6.4
		c0-4.4,2.2-11.6,5.9-16c2.1-2.6,8.9-10.7,10.8-12.9c4.3-5.2,5.4-7.2,5.4-11.9c0-4.9-1.2-10.6-7.2-10.6c-3.3,0-7.3,1.3-7.3,10.6v3.7
		c0,0.6-0.5,1.1-1.1,1.1h-5.2c-0.6,0-1.1-0.5-1.1-1.1v-4.2c0-10.2,4.9-17.1,14.9-17.1c9.2,0,14.3,6.7,14.4,16.8v1.7
		c0,7.9-3.7,11.6-7.3,16.1c-7.3,8.7-14.4,16.1-14.4,22.5v1.6h20.4C648.9,364.8,649.4,365.3,649.4,365.8z"/>
	<path fill="#FFFFFF" d="M687.3,350.6v6.7c0,8.4-5.7,15.8-15.1,15.8c-9.1,0-14.6-6.4-14.6-14.5v-35.4c0-10.7,5.5-17,14.5-17
		c9.1,0,15,6.3,15,15.7v5.1c0,0.6-0.5,1-0.9,1h-5.8c-0.5,0-1-0.4-1-1v-5.6c0-4.3-1.6-8-7.1-8c-5.1,0-7.1,3.7-7.1,8v17
		c2.1-3.3,5.4-3.5,7.9-3.5C680.6,334.9,687.3,340.8,687.3,350.6z M665.1,350.4v7.9c0,5.3,3,7.9,7.3,7.9c4.3,0,7.3-3.5,7.3-7.9v-7.9
		c0-6-3-8.3-7.3-8.3C668.3,342.1,665.1,344.4,665.1,350.4z"/>
	<path fill="#FFFFFF" d="M725.9,345.2c0,4.9,0,10.6,0,10.6c0,8.8-3.8,17.3-14.9,17.3c-10.9,0-14.7-7.7-14.7-17.3v-4.4
		c0-0.6,0.5-1.1,1.1-1.1h5.3c0.6,0,1.1,0.5,1.1,1.1v5c0,4.7,0.6,9.5,7.4,9.5c6.2,0,7.1-4.8,7.1-9.5v-13.2c0-6.9-4.4-8.5-7.1-8.5
		c-2.9,0-6,0.9-7.1,3.8l-0.3,0.8c-0.2,0.3-0.6,0.5-1,0.5h-5.4c-0.5,0-1-0.3-1.1-0.8c0,0,0-1,0-1.4v-21v-8.2c0-0.6,0.5-1.1,1.1-1.1
		h7.2h19.9c0.5,0,1,0.5,1,1.1v5.1c0,0.6-0.5,1.1-1,1.1h-20.6v16.6c1.4-3.5,5.3-3.8,8.4-3.8C721.6,327.4,725.9,333.2,725.9,345.2z"/>
</g>
<g>
	<g>
		<path fill="#353535" d="M593.4,412H592l3.9-13.4h1.4l3.9,13.4h-1.5l-1.1-3.8h-4.2L593.4,412z M597.7,404.8
			c-0.5-1.6-0.8-2.8-1.1-4.1h0c-0.3,1.3-0.7,2.5-1.1,4.1l-0.6,2.1h3.4L597.7,404.8z"/>
		<path fill="#353535" d="M602,402.5h1.5l1.5,5.4c0.2,0.8,0.4,1.5,0.7,2.6h0c0.3-1.1,0.4-1.7,0.7-2.6l1.5-5.4h1.4l-2.9,9.5h-1.5
			L602,402.5z"/>
		<path fill="#353535" d="M610.3,407.2c0-3.4,1.8-5,3.7-5c2.1,0,3.4,1.7,3.4,4.9v0.4h-5.6c0.1,2.2,0.9,3.4,2.3,3.4
			c1.1,0,1.7-0.6,2.3-1.7l1,0.6c-0.7,1.4-1.8,2.3-3.3,2.3C611.9,412.2,610.3,410.5,610.3,407.2z M616,406.4c-0.1-1.7-0.7-2.9-2-2.9
			c-1.1,0-2,0.9-2.2,2.9H616z"/>
		<path fill="#353535" d="M619.2,402.5h1.5v1.6h0c0.5-1,1.5-1.8,3-1.8h0.2l-0.1,1.4c0,0-0.3,0-0.3,0c-1.2,0-2.2,0.8-2.8,1.9v6.4
			h-1.5V402.5z"/>
		<path fill="#353535" d="M624.9,409.7c0-1.9,1.6-3.3,5.3-4v-0.6c0-1.1-0.5-1.6-1.4-1.6c-1.2,0-2.1,0.6-2.8,1.3l-0.8-0.9
			c1-1,2.3-1.7,3.8-1.7c1.9,0,2.7,1,2.7,2.9v4.5c0,1.2,0.1,1.9,0.2,2.3h-1.5c-0.1-0.4-0.2-0.7-0.2-1.2c-0.8,0.8-1.8,1.4-3,1.4
			C625.8,412.1,624.9,411.2,624.9,409.7z M630.2,409.7v-2.9c-2.9,0.6-3.9,1.6-3.9,2.8c0,1,0.5,1.4,1.3,1.4
			C628.7,410.9,629.6,410.4,630.2,409.7z"/>
		<path fill="#353535" d="M641.2,402.3v1.4c-0.4,0-0.9,0.1-1.4,0.3c0.3,0.5,0.4,1.1,0.4,1.7c0,2.1-1.4,3.4-3.3,3.4
			c-0.5,0-0.9-0.1-1.3-0.2c-0.3,0.2-0.5,0.4-0.5,0.7c0,0.4,0.2,0.5,1.1,0.6l1.5,0.2c2.3,0.3,3.3,1,3.3,2.4c0,1.7-1.8,2.7-4.1,2.7
			c-2.7,0-3.7-0.9-3.7-2.3c0-1,0.6-1.7,1.5-2.1c-0.5-0.3-0.8-0.6-0.8-1.2c0-0.6,0.4-1.1,1-1.5c-0.8-0.6-1.3-1.6-1.3-2.8
			c0-2.1,1.4-3.4,3.3-3.4c1,0,1.8,0.3,2.4,1C639.8,402.8,640.6,402.5,641.2,402.3z M634.4,413.1c0,1,0.6,1.5,2.6,1.5
			c1.5,0,2.6-0.5,2.6-1.5c0-0.8-0.5-1.2-2.1-1.4l-1.5-0.2c-0.1,0-0.2,0-0.3,0C634.8,411.8,634.4,412.4,634.4,413.1z M638.8,405.7
			c0-1.4-0.7-2.3-1.9-2.3c-1.2,0-1.9,0.9-1.9,2.3c0,1.4,0.7,2.3,1.9,2.3C638.1,408,638.8,407.1,638.8,405.7z"/>
		<path fill="#353535" d="M642.3,407.2c0-3.4,1.8-5,3.7-5c2.1,0,3.4,1.7,3.4,4.9v0.4h-5.6c0.1,2.2,0.9,3.4,2.3,3.4
			c1.1,0,1.7-0.6,2.3-1.7l1,0.6c-0.7,1.4-1.8,2.3-3.3,2.3C643.9,412.2,642.3,410.5,642.3,407.2z M648,406.4c-0.1-1.7-0.7-2.9-2-2.9
			c-1.1,0-2,0.9-2.2,2.9H648z"/>
		<path fill="#353535" d="M658.4,402.5h1.5v1.6h0c0.5-1,1.5-1.8,3-1.8h0.2l-0.1,1.4c0,0-0.3,0-0.3,0c-1.2,0-2.3,0.8-2.8,1.9v6.4
			h-1.5V402.5z"/>
		<path fill="#353535" d="M664.2,407.2c0-3.4,1.8-5,3.7-5c2.1,0,3.4,1.7,3.4,4.9v0.4h-5.6c0.1,2.2,0.9,3.4,2.3,3.4
			c1.1,0,1.7-0.6,2.3-1.7l1,0.6c-0.7,1.4-1.8,2.3-3.3,2.3C665.8,412.2,664.2,410.5,664.2,407.2z M669.8,406.4
			c-0.1-1.7-0.7-2.9-2-2.9c-1.1,0-2,0.9-2.2,2.9H669.8z M668.1,398.7h1.7l-2.2,2.8h-1L668.1,398.7z"/>
		<path fill="#353535" d="M672.3,410.2l1-0.7c0.6,1,1.6,1.5,2.6,1.5c1.2,0,1.9-0.5,1.9-1.4c0-2.3-5-1.4-5-4.8c0-1.5,1.2-2.6,3-2.6
			c1.4,0,2.4,0.7,3.1,1.7l-1,0.8c-0.5-0.7-1.2-1.3-2.2-1.3c-1.1,0-1.6,0.5-1.6,1.3c0,2.4,4.9,1.3,4.9,4.8c0,1.7-1.5,2.7-3.3,2.7
			C674.2,412.2,673,411.4,672.3,410.2z"/>
		<path fill="#353535" d="M680.8,409.5v-7.1h1.4v6.8c0,1.1,0.4,1.7,1.4,1.7c0.9,0,1.7-0.6,2.5-1.4v-7.1h1.5v9.5h-1.5v-1.3
			c-0.7,0.8-1.7,1.5-3,1.5C681.7,412.2,680.8,411.3,680.8,409.5z"/>
		<path fill="#353535" d="M689.9,402.5h1.5v1.3c0.7-0.7,1.7-1.5,2.9-1.5c1.3,0,1.9,0.5,2.2,1.5c0.7-0.8,1.7-1.5,3-1.5
			c1.5,0,2.3,0.9,2.3,2.6v7.1h-1.4v-6.8c0-1.1-0.4-1.7-1.3-1.7c-0.9,0-1.7,0.6-2.4,1.3v7.1h-1.5v-6.8c0-1.1-0.3-1.7-1.3-1.7
			c-0.8,0-1.6,0.6-2.4,1.4v7.1h-1.5V402.5z"/>
		<path fill="#353535" d="M703.5,407.2c0-3.4,1.8-5,3.7-5c2.1,0,3.4,1.7,3.4,4.9v0.4H705c0.1,2.2,0.9,3.4,2.3,3.4
			c1.1,0,1.7-0.6,2.3-1.7l1,0.6c-0.7,1.4-1.8,2.3-3.3,2.3C705.1,412.2,703.5,410.5,703.5,407.2z M709.2,406.4
			c-0.1-1.7-0.7-2.9-2-2.9c-1.1,0-2,0.9-2.2,2.9H709.2z M707.5,398.7h1.7l-2.2,2.8h-1L707.5,398.7z"/>
		<path fill="#353535" d="M607.9,432.5h1.5v1.2c0.6-0.7,1.4-1.4,2.6-1.4c1.9,0,3.2,1.5,3.2,4.9c0,3.4-1.4,4.9-3.3,4.9
			c-1.1,0-1.9-0.5-2.5-1.3v4.8h-1.5V432.5z M613.7,437.2c0-2.5-0.9-3.7-2.1-3.7c-0.9,0-1.7,0.6-2.2,1.3v4.8c0.7,0.8,1.4,1.3,2.3,1.3
			C612.8,440.9,613.7,439.8,613.7,437.2z"/>
		<path fill="#353535" d="M616.5,439.7c0-1.9,1.6-3.3,5.3-4v-0.6c0-1.1-0.5-1.6-1.4-1.6c-1.2,0-2.1,0.6-2.8,1.3l-0.8-0.9
			c1-1,2.2-1.7,3.8-1.7c1.9,0,2.7,1,2.7,2.9v4.5c0,1.2,0.1,1.9,0.2,2.3H622c-0.1-0.4-0.2-0.7-0.2-1.2c-0.8,0.8-1.8,1.4-3,1.4
			C617.3,442.1,616.5,441.2,616.5,439.7z M621.8,439.7v-2.9c-2.9,0.6-3.9,1.6-3.9,2.8c0,1,0.5,1.4,1.3,1.4
			C620.2,440.9,621.1,440.4,621.8,439.7z"/>
		<path fill="#353535" d="M625.5,432.5h1.5v1.6h0c0.5-1,1.5-1.8,3-1.8h0.2l-0.1,1.4c0,0-0.3,0-0.3,0c-1.2,0-2.2,0.8-2.8,1.9v6.4
			h-1.5V432.5z"/>
		<path fill="#353535" d="M630.9,440.2l1-0.7c0.6,1,1.6,1.5,2.6,1.5c1.2,0,1.9-0.5,1.9-1.4c0-2.3-5-1.4-5-4.8c0-1.5,1.2-2.6,3-2.6
			c1.4,0,2.4,0.7,3.1,1.7l-1,0.8c-0.5-0.7-1.2-1.3-2.2-1.3c-1.1,0-1.6,0.5-1.6,1.3c0,2.4,4.9,1.3,4.9,4.8c0,1.7-1.5,2.7-3.3,2.7
			C632.8,442.2,631.6,441.4,630.9,440.2z"/>
		<path fill="#353535" d="M639.6,429h1.5v1.6h-1.5V429z M639.6,432.5h1.5v9.5h-1.5V432.5z"/>
		<path fill="#353535" d="M643.5,432.5h1.5v1.3c0.6-0.7,1.8-1.5,3-1.5c1.5,0,2.3,0.9,2.3,2.6v7.1h-1.4v-6.8c0-1.1-0.4-1.7-1.4-1.7
			c-0.9,0-1.9,0.7-2.6,1.4v7.1h-1.5V432.5z"/>
		<path fill="#353535" d="M659.8,432.3v1.4c-0.4,0-0.9,0.1-1.4,0.3c0.3,0.5,0.4,1.1,0.4,1.7c0,2.1-1.4,3.4-3.3,3.4
			c-0.5,0-0.9-0.1-1.3-0.2c-0.3,0.2-0.5,0.4-0.5,0.7c0,0.4,0.2,0.5,1.1,0.6l1.5,0.2c2.3,0.3,3.3,1,3.3,2.4c0,1.7-1.8,2.7-4.1,2.7
			c-2.7,0-3.7-0.9-3.7-2.3c0-1,0.6-1.7,1.5-2.1c-0.5-0.3-0.8-0.6-0.8-1.2c0-0.6,0.4-1.1,1-1.5c-0.8-0.6-1.3-1.6-1.3-2.8
			c0-2.1,1.4-3.4,3.3-3.4c1,0,1.8,0.3,2.4,1C658.4,432.8,659.2,432.5,659.8,432.3z M653,443.1c0,1,0.6,1.5,2.6,1.5
			c1.5,0,2.6-0.5,2.6-1.5c0-0.8-0.5-1.2-2.1-1.4l-1.5-0.2c-0.1,0-0.2,0-0.3,0C653.4,441.8,653,442.4,653,443.1z M657.4,435.7
			c0-1.4-0.7-2.3-1.9-2.3c-1.2,0-1.9,0.9-1.9,2.3c0,1.4,0.7,2.3,1.9,2.3C656.7,438,657.4,437.1,657.4,435.7z"/>
		<path fill="#353535" d="M665.5,439.8v-6.2h-1.4v-1.2h1.4v-3.4h1.4v3.4h2.1v1.2H667v5.8c0,1,0.3,1.4,1.3,1.4c0.3,0,0.6-0.1,0.8-0.1
			v1.2c-0.2,0.1-0.7,0.1-1.1,0.1C666.2,442.1,665.5,441.5,665.5,439.8z"/>
		<path fill="#353535" d="M670.9,429h1.5v1.6h-1.5V429z M670.9,432.5h1.5v9.5h-1.5V432.5z"/>
		<path fill="#353535" d="M674.8,432.5h1.5v1.3c0.7-0.7,1.7-1.5,2.9-1.5c1.3,0,1.9,0.5,2.2,1.5c0.7-0.8,1.7-1.5,3-1.5
			c1.5,0,2.3,0.9,2.3,2.6v7.1h-1.4v-6.8c0-1.1-0.4-1.7-1.3-1.7c-0.9,0-1.7,0.6-2.4,1.3v7.1h-1.5v-6.8c0-1.1-0.3-1.7-1.3-1.7
			c-0.8,0-1.6,0.6-2.4,1.4v7.1h-1.5V432.5z"/>
		<path fill="#353535" d="M688.3,437.2c0-3.4,1.8-5,3.7-5c2.1,0,3.4,1.7,3.4,4.9v0.4h-5.6c0.1,2.2,0.9,3.4,2.3,3.4
			c1.1,0,1.7-0.6,2.3-1.7l1,0.6c-0.7,1.4-1.8,2.3-3.3,2.3C689.9,442.2,688.3,440.5,688.3,437.2z M694,436.4c-0.1-1.7-0.7-2.9-2-2.9
			c-1.1,0-2,0.9-2.2,2.9H694z"/>
	</g>
</g>
<line fill="none" stroke="#353535" stroke-miterlimit="10" stroke-dasharray="1,6" x1="511.8" y1="610.1" x2="793.7" y2="610.1"/>
<line fill="none" stroke="#353535" stroke-miterlimit="10" stroke-dasharray="1,6" x1="511.8" y1="488.6" x2="793.7" y2="488.6"/>
<g>
	
		<line fill="none" stroke="#353535" stroke-width="2" stroke-linecap="round" stroke-linejoin="round" stroke-miterlimit="10" x1="520.7" y1="561" x2="525.8" y2="561"/>
	
		<line fill="none" stroke="#353535" stroke-width="2" stroke-linecap="round" stroke-linejoin="round" stroke-miterlimit="10" x1="516.5" y1="565.2" x2="530" y2="565.2"/>
	
		<line fill="none" stroke="#353535" stroke-width="2" stroke-linecap="round" stroke-linejoin="round" stroke-miterlimit="10" x1="516.5" y1="569.3" x2="530" y2="569.3"/>
	
		<polygon fill="none" stroke="#353535" stroke-width="2" stroke-linecap="round" stroke-linejoin="round" stroke-miterlimit="10" points="
		534.1,578.6 512.4,578.6 512.4,550.6 529,550.6 534.1,555.8 	"/>
	
		<polyline fill="none" stroke="#353535" stroke-width="2" stroke-linecap="round" stroke-linejoin="round" stroke-miterlimit="10" points="
		529,550.6 529,555.8 534.1,555.8 	"/>
</g>
<g>
	
		<line fill="none" stroke="#353535" stroke-width="2" stroke-linecap="round" stroke-linejoin="round" stroke-miterlimit="10" x1="546.6" y1="561" x2="551.8" y2="561"/>
	
		<line fill="none" stroke="#353535" stroke-width="2" stroke-linecap="round" stroke-linejoin="round" stroke-miterlimit="10" x1="542.5" y1="565.2" x2="555.9" y2="565.2"/>
	
		<line fill="none" stroke="#353535" stroke-width="2" stroke-linecap="round" stroke-linejoin="round" stroke-miterlimit="10" x1="542.5" y1="569.3" x2="555.9" y2="569.3"/>
	
		<polygon fill="none" stroke="#353535" stroke-width="2" stroke-linecap="round" stroke-linejoin="round" stroke-miterlimit="10" points="
		560.1,578.6 538.3,578.6 538.3,550.6 554.9,550.6 560.1,555.8 	"/>
	
		<polyline fill="none" stroke="#353535" stroke-width="2" stroke-linecap="round" stroke-linejoin="round" stroke-miterlimit="10" points="
		554.9,550.6 554.9,555.8 560.1,555.8 	"/>
</g>
<g>
	
		<line fill="none" stroke="#353535" stroke-width="2" stroke-linecap="round" stroke-linejoin="round" stroke-miterlimit="10" x1="572.6" y1="561" x2="577.8" y2="561"/>
	
		<line fill="none" stroke="#353535" stroke-width="2" stroke-linecap="round" stroke-linejoin="round" stroke-miterlimit="10" x1="568.4" y1="565.2" x2="581.9" y2="565.2"/>
	
		<line fill="none" stroke="#353535" stroke-width="2" stroke-linecap="round" stroke-linejoin="round" stroke-miterlimit="10" x1="568.4" y1="569.3" x2="581.9" y2="569.3"/>
	
		<polygon fill="none" stroke="#353535" stroke-width="2" stroke-linecap="round" stroke-linejoin="round" stroke-miterlimit="10" points="
		586,578.6 564.3,578.6 564.3,550.6 580.9,550.6 586,555.8 	"/>
	
		<polyline fill="none" stroke="#353535" stroke-width="2" stroke-linecap="round" stroke-linejoin="round" stroke-miterlimit="10" points="
		580.9,550.6 580.9,555.8 586,555.8 	"/>
</g>
<g>
	
		<line fill="none" stroke="#353535" stroke-width="2" stroke-linecap="round" stroke-linejoin="round" stroke-miterlimit="10" x1="702.3" y1="561" x2="707.5" y2="561"/>
	
		<line fill="none" stroke="#353535" stroke-width="2" stroke-linecap="round" stroke-linejoin="round" stroke-miterlimit="10" x1="698.2" y1="565.2" x2="711.7" y2="565.2"/>
	
		<line fill="none" stroke="#353535" stroke-width="2" stroke-linecap="round" stroke-linejoin="round" stroke-miterlimit="10" x1="698.2" y1="569.3" x2="711.7" y2="569.3"/>
	
		<polygon fill="none" stroke="#353535" stroke-width="2" stroke-linecap="round" stroke-linejoin="round" stroke-miterlimit="10" points="
		715.8,578.6 694.1,578.6 694.1,550.6 710.6,550.6 715.8,555.8 	"/>
	
		<polyline fill="none" stroke="#353535" stroke-width="2" stroke-linecap="round" stroke-linejoin="round" stroke-miterlimit="10" points="
		710.6,550.6 710.6,555.8 715.8,555.8 	"/>
</g>
<g>
	
		<line fill="none" stroke="#353535" stroke-width="2" stroke-linecap="round" stroke-linejoin="round" stroke-miterlimit="10" x1="728.3" y1="561" x2="733.5" y2="561"/>
	
		<line fill="none" stroke="#353535" stroke-width="2" stroke-linecap="round" stroke-linejoin="round" stroke-miterlimit="10" x1="724.1" y1="565.2" x2="737.6" y2="565.2"/>
	
		<line fill="none" stroke="#353535" stroke-width="2" stroke-linecap="round" stroke-linejoin="round" stroke-miterlimit="10" x1="724.1" y1="569.3" x2="737.6" y2="569.3"/>
	
		<polygon fill="none" stroke="#353535" stroke-width="2" stroke-linecap="round" stroke-linejoin="round" stroke-miterlimit="10" points="
		741.8,578.6 720,578.6 720,550.6 736.6,550.6 741.8,555.8 	"/>
	
		<polyline fill="none" stroke="#353535" stroke-width="2" stroke-linecap="round" stroke-linejoin="round" stroke-miterlimit="10" points="
		736.6,550.6 736.6,555.8 741.8,555.8 	"/>
</g>
<g>
	
		<line fill="none" stroke="#353535" stroke-width="2" stroke-linecap="round" stroke-linejoin="round" stroke-miterlimit="10" x1="754.2" y1="561" x2="759.4" y2="561"/>
	
		<line fill="none" stroke="#353535" stroke-width="2" stroke-linecap="round" stroke-linejoin="round" stroke-miterlimit="10" x1="750.1" y1="565.2" x2="763.6" y2="565.2"/>
	
		<line fill="none" stroke="#353535" stroke-width="2" stroke-linecap="round" stroke-linejoin="round" stroke-miterlimit="10" x1="750.1" y1="569.3" x2="763.6" y2="569.3"/>
	
		<polygon fill="none" stroke="#353535" stroke-width="2" stroke-linecap="round" stroke-linejoin="round" stroke-miterlimit="10" points="
		767.7,578.6 746,578.6 746,550.6 762.5,550.6 767.7,555.8 	"/>
	
		<polyline fill="none" stroke="#353535" stroke-width="2" stroke-linecap="round" stroke-linejoin="round" stroke-miterlimit="10" points="
		762.5,550.6 762.5,555.8 767.7,555.8 	"/>
</g>
<g>
	
		<line fill="none" stroke="#353535" stroke-width="2" stroke-linecap="round" stroke-linejoin="round" stroke-miterlimit="10" x1="676.4" y1="560.9" x2="681.6" y2="560.9"/>
	
		<line fill="none" stroke="#353535" stroke-width="2" stroke-linecap="round" stroke-linejoin="round" stroke-miterlimit="10" x1="672.2" y1="565.1" x2="685.7" y2="565.1"/>
	
		<line fill="none" stroke="#353535" stroke-width="2" stroke-linecap="round" stroke-linejoin="round" stroke-miterlimit="10" x1="672.2" y1="569.2" x2="685.7" y2="569.2"/>
	
		<polygon fill="none" stroke="#353535" stroke-width="2" stroke-linecap="round" stroke-linejoin="round" stroke-miterlimit="10" points="
		689.9,578.6 668.1,578.6 668.1,550.6 684.7,550.6 689.9,555.8 	"/>
	
		<polyline fill="none" stroke="#353535" stroke-width="2" stroke-linecap="round" stroke-linejoin="round" stroke-miterlimit="10" points="
		684.7,550.6 684.7,555.8 689.9,555.8 	"/>
</g>
<g>
	
		<line fill="none" stroke="#353535" stroke-width="2" stroke-linecap="round" stroke-linejoin="round" stroke-miterlimit="10" x1="598.5" y1="561" x2="603.7" y2="561"/>
	
		<line fill="none" stroke="#353535" stroke-width="2" stroke-linecap="round" stroke-linejoin="round" stroke-miterlimit="10" x1="594.4" y1="565.2" x2="607.9" y2="565.2"/>
	
		<line fill="none" stroke="#353535" stroke-width="2" stroke-linecap="round" stroke-linejoin="round" stroke-miterlimit="10" x1="594.4" y1="569.3" x2="607.9" y2="569.3"/>
	
		<polygon fill="none" stroke="#353535" stroke-width="2" stroke-linecap="round" stroke-linejoin="round" stroke-miterlimit="10" points="
		612,578.6 590.2,578.6 590.2,550.6 606.8,550.6 612,555.8 	"/>
	
		<polyline fill="none" stroke="#353535" stroke-width="2" stroke-linecap="round" stroke-linejoin="round" stroke-miterlimit="10" points="
		606.8,550.6 606.8,555.8 612,555.8 	"/>
</g>
<g>
	
		<line fill="none" stroke="#353535" stroke-width="2" stroke-linecap="round" stroke-linejoin="round" stroke-miterlimit="10" x1="624.5" y1="561" x2="629.7" y2="561"/>
	
		<line fill="none" stroke="#353535" stroke-width="2" stroke-linecap="round" stroke-linejoin="round" stroke-miterlimit="10" x1="620.3" y1="565.2" x2="633.8" y2="565.2"/>
	
		<line fill="none" stroke="#353535" stroke-width="2" stroke-linecap="round" stroke-linejoin="round" stroke-miterlimit="10" x1="620.3" y1="569.3" x2="633.8" y2="569.3"/>
	
		<polygon fill="none" stroke="#353535" stroke-width="2" stroke-linecap="round" stroke-linejoin="round" stroke-miterlimit="10" points="
		638,578.6 616.2,578.6 616.2,550.6 632.8,550.6 638,555.8 	"/>
	
		<polyline fill="none" stroke="#353535" stroke-width="2" stroke-linecap="round" stroke-linejoin="round" stroke-miterlimit="10" points="
		632.8,550.6 632.8,555.8 638,555.8 	"/>
</g>
<g>
	
		<line fill="none" stroke="#353535" stroke-width="2" stroke-linecap="round" stroke-linejoin="round" stroke-miterlimit="10" x1="650.4" y1="561" x2="655.6" y2="561"/>
	
		<line fill="none" stroke="#353535" stroke-width="2" stroke-linecap="round" stroke-linejoin="round" stroke-miterlimit="10" x1="646.3" y1="565.2" x2="659.8" y2="565.2"/>
	
		<line fill="none" stroke="#353535" stroke-width="2" stroke-linecap="round" stroke-linejoin="round" stroke-miterlimit="10" x1="646.3" y1="569.3" x2="659.8" y2="569.3"/>
	
		<polygon fill="none" stroke="#353535" stroke-width="2" stroke-linecap="round" stroke-linejoin="round" stroke-miterlimit="10" points="
		663.9,578.6 642.1,578.6 642.1,550.6 658.7,550.6 663.9,555.8 	"/>
	
		<polyline fill="none" stroke="#353535" stroke-width="2" stroke-linecap="round" stroke-linejoin="round" stroke-miterlimit="10" points="
		658.7,550.6 658.7,555.8 663.9,555.8 	"/>
</g>
<g>
	
		<line fill="none" stroke="#353535" stroke-width="2" stroke-linecap="round" stroke-linejoin="round" stroke-miterlimit="10" x1="780.2" y1="560.9" x2="785.4" y2="560.9"/>
	
		<line fill="none" stroke="#353535" stroke-width="2" stroke-linecap="round" stroke-linejoin="round" stroke-miterlimit="10" x1="776.1" y1="565.1" x2="789.5" y2="565.1"/>
	
		<line fill="none" stroke="#353535" stroke-width="2" stroke-linecap="round" stroke-linejoin="round" stroke-miterlimit="10" x1="776.1" y1="569.2" x2="789.5" y2="569.2"/>
	
		<polygon fill="none" stroke="#353535" stroke-width="2" stroke-linecap="round" stroke-linejoin="round" stroke-miterlimit="10" points="
		793.7,578.6 771.9,578.6 771.9,550.6 788.5,550.6 793.7,555.8 	"/>
	
		<polyline fill="none" stroke="#353535" stroke-width="2" stroke-linecap="round" stroke-linejoin="round" stroke-miterlimit="10" points="
		788.5,550.6 788.5,555.8 793.7,555.8 	"/>
</g>
<g>
	<path fill="#FFFFFF" d="M513,515.7h1.5v12h5.3v1.4H513V515.7z"/>
	<path fill="#FFFFFF" d="M521.1,524.3c0-3.3,1.6-5,3.8-5c2.1,0,3.7,1.7,3.7,5c0,3.3-1.6,5-3.7,5
		C522.7,529.2,521.1,527.5,521.1,524.3z M527.1,524.3c0-2.1-0.7-3.7-2.3-3.7c-1.5,0-2.3,1.5-2.3,3.7c0,2.1,0.7,3.7,2.3,3.7
		C526.4,528,527.1,526.5,527.1,524.3z"/>
	<path fill="#FFFFFF" d="M530.4,519.5h1.5v1.3c0.6-0.7,1.8-1.5,3-1.5c1.5,0,2.3,0.9,2.3,2.6v7.1h-1.4v-6.8c0-1.1-0.4-1.7-1.3-1.7
		c-0.9,0-1.9,0.7-2.6,1.4v7.1h-1.5V519.5z"/>
	<path fill="#FFFFFF" d="M546.8,519.4v1.4c-0.4,0-0.9,0.1-1.4,0.3c0.3,0.5,0.4,1.1,0.4,1.7c0,2.1-1.4,3.4-3.3,3.4
		c-0.5,0-0.9-0.1-1.3-0.2c-0.3,0.2-0.5,0.4-0.5,0.7c0,0.4,0.2,0.5,1.1,0.6l1.5,0.2c2.3,0.3,3.3,1,3.3,2.4c0,1.7-1.8,2.7-4.1,2.7
		c-2.7,0-3.7-0.9-3.7-2.3c0-1,0.6-1.7,1.5-2.1c-0.5-0.3-0.8-0.6-0.8-1.2c0-0.6,0.4-1.1,1-1.5c-0.8-0.6-1.3-1.6-1.3-2.8
		c0-2.1,1.4-3.4,3.3-3.4c1,0,1.8,0.3,2.4,1C545.3,519.8,546.1,519.5,546.8,519.4z M539.9,530.1c0,1,0.6,1.5,2.6,1.5
		c1.5,0,2.6-0.5,2.6-1.5c0-0.8-0.5-1.2-2.1-1.4l-1.5-0.2c-0.1,0-0.2,0-0.3,0C540.3,528.9,539.9,529.5,539.9,530.1z M544.4,522.8
		c0-1.4-0.7-2.3-1.9-2.3c-1.2,0-1.9,0.9-1.9,2.3c0,1.4,0.7,2.3,1.9,2.3C543.7,525.1,544.4,524.2,544.4,522.8z"/>
	<path fill="#FFFFFF" d="M547.9,524.3c0-3.4,1.8-5,3.7-5c2.1,0,3.4,1.7,3.4,4.9v0.4h-5.6c0.1,2.2,0.9,3.4,2.3,3.4
		c1.1,0,1.7-0.6,2.2-1.7l1,0.6c-0.7,1.4-1.8,2.3-3.3,2.3C549.5,529.2,547.9,527.6,547.9,524.3z M553.6,523.5c-0.1-1.7-0.7-2.9-2-2.9
		c-1.1,0-2,0.9-2.2,2.9H553.6z"/>
	<path fill="#FFFFFF" d="M556,527.3l1-0.7c0.6,1,1.6,1.5,2.6,1.5c1.2,0,1.9-0.5,1.9-1.4c0-2.3-5-1.4-5-4.8c0-1.5,1.2-2.6,3-2.6
		c1.4,0,2.4,0.7,3.1,1.7l-1,0.8c-0.5-0.7-1.2-1.3-2.2-1.3c-1.1,0-1.6,0.5-1.6,1.3c0,2.4,4.9,1.3,4.9,4.8c0,1.7-1.5,2.7-3.3,2.7
		C557.9,529.2,556.8,528.5,556,527.3z"/>
	<path fill="#FFFFFF" d="M565.2,526.9v-6.2h-1.4v-1.2h1.4v-3.4h1.4v3.4h2.1v1.2h-2.1v5.8c0,1,0.3,1.4,1.3,1.4c0.3,0,0.6-0.1,0.8-0.1
		v1.2c-0.2,0.1-0.7,0.1-1.1,0.1C565.9,529.1,565.2,528.5,565.2,526.9z"/>
	<path fill="#FFFFFF" d="M574.1,519.5h1.5v1.6h0c0.5-1,1.5-1.8,3-1.8h0.2l-0.1,1.4c0,0-0.3,0-0.3,0c-1.2,0-2.3,0.8-2.8,1.9v6.4h-1.5
		V519.5z"/>
	<path fill="#FFFFFF" d="M579.8,524.3c0-3.4,1.8-5,3.7-5c2.1,0,3.4,1.7,3.4,4.9v0.4h-5.6c0.1,2.2,0.9,3.4,2.3,3.4
		c1.1,0,1.7-0.6,2.2-1.7l1,0.6c-0.7,1.4-1.8,2.3-3.3,2.3C581.4,529.2,579.8,527.6,579.8,524.3z M585.5,523.5c-0.1-1.7-0.7-2.9-2-2.9
		c-1.1,0-2,0.9-2.2,2.9H585.5z M583.8,515.7h1.7l-2.2,2.8h-1L583.8,515.7z"/>
	<path fill="#FFFFFF" d="M588,527.3l1-0.7c0.6,1,1.6,1.5,2.6,1.5c1.2,0,1.9-0.5,1.9-1.4c0-2.3-5-1.4-5-4.8c0-1.5,1.2-2.6,3-2.6
		c1.4,0,2.4,0.7,3.1,1.7l-1,0.8c-0.5-0.7-1.2-1.3-2.2-1.3c-1.1,0-1.6,0.5-1.6,1.3c0,2.4,4.9,1.3,4.9,4.8c0,1.7-1.5,2.7-3.3,2.7
		C589.9,529.2,588.7,528.5,588,527.3z"/>
	<path fill="#FFFFFF" d="M596.5,526.6v-7.1h1.4v6.8c0,1.1,0.4,1.7,1.4,1.7c0.9,0,1.7-0.6,2.5-1.4v-7.1h1.5v9.5h-1.5v-1.3
		c-0.7,0.8-1.7,1.5-3,1.5C597.3,529.2,596.5,528.3,596.5,526.6z"/>
	<path fill="#FFFFFF" d="M605.6,519.5h1.5v1.3c0.7-0.7,1.7-1.5,2.9-1.5c1.3,0,1.9,0.5,2.2,1.5c0.7-0.8,1.7-1.5,3-1.5
		c1.5,0,2.3,0.9,2.3,2.6v7.1H616v-6.8c0-1.1-0.4-1.7-1.3-1.7c-0.9,0-1.7,0.6-2.4,1.3v7.1h-1.5v-6.8c0-1.1-0.3-1.7-1.3-1.7
		c-0.8,0-1.6,0.6-2.4,1.4v7.1h-1.5V519.5z"/>
	<path fill="#FFFFFF" d="M619.2,524.3c0-3.4,1.8-5,3.7-5c2.1,0,3.4,1.7,3.4,4.9v0.4h-5.6c0.1,2.2,0.9,3.4,2.3,3.4
		c1.1,0,1.7-0.6,2.2-1.7l1,0.6c-0.7,1.4-1.8,2.3-3.3,2.3C620.8,529.2,619.2,527.6,619.2,524.3z M624.9,523.5c-0.1-1.7-0.7-2.9-2-2.9
		c-1.1,0-2,0.9-2.2,2.9H624.9z M623.1,515.7h1.7l-2.2,2.8h-1L623.1,515.7z"/>
	<path fill="#FFFFFF" d="M630.9,527.3l1-0.7c0.6,1,1.6,1.5,2.6,1.5c1.2,0,1.9-0.5,1.9-1.4c0-2.3-5-1.4-5-4.8c0-1.5,1.2-2.6,3-2.6
		c1.4,0,2.4,0.7,3.1,1.7l-1,0.8c-0.5-0.7-1.2-1.3-2.2-1.3c-1.1,0-1.6,0.5-1.6,1.3c0,2.4,4.9,1.3,4.9,4.8c0,1.7-1.5,2.7-3.3,2.7
		C632.8,529.2,631.6,528.5,630.9,527.3z"/>
	<path fill="#FFFFFF" d="M639.4,526.6v-7.1h1.4v6.8c0,1.1,0.4,1.7,1.4,1.7c0.9,0,1.7-0.6,2.5-1.4v-7.1h1.5v9.5h-1.5v-1.3
		c-0.7,0.8-1.7,1.5-3,1.5C640.2,529.2,639.4,528.3,639.4,526.6z"/>
	<path fill="#FFFFFF" d="M650,527.9v1.1h-1.5v-13.3h1.5v5c0.6-0.7,1.4-1.4,2.6-1.4c1.9,0,3.2,1.5,3.2,4.9c0,3.4-1.5,4.9-3.3,4.9
		C651.4,529.2,650.6,528.7,650,527.9z M654.4,524.3c0-2.5-0.9-3.7-2.1-3.7c-0.9,0-1.6,0.6-2.2,1.3v4.8c0.7,0.8,1.4,1.3,2.3,1.3
		C653.5,528,654.4,526.9,654.4,524.3z"/>
	<path fill="#FFFFFF" d="M657.7,519.5h1.5v1.3c0.7-0.7,1.7-1.5,2.9-1.5c1.3,0,1.9,0.5,2.2,1.5c0.7-0.8,1.7-1.5,3-1.5
		c1.5,0,2.3,0.9,2.3,2.6v7.1H668v-6.8c0-1.1-0.4-1.7-1.3-1.7c-0.9,0-1.7,0.6-2.4,1.3v7.1h-1.5v-6.8c0-1.1-0.3-1.7-1.3-1.7
		c-0.8,0-1.6,0.6-2.4,1.4v7.1h-1.5V519.5z"/>
	<path fill="#FFFFFF" d="M671.8,516h1.5v1.6h-1.5V516z M671.8,519.5h1.5v9.5h-1.5V519.5z"/>
	<path fill="#FFFFFF" d="M676.2,526.9v-6.2h-1.4v-1.2h1.4v-3.4h1.4v3.4h2.1v1.2h-2.1v5.8c0,1,0.3,1.4,1.3,1.4c0.3,0,0.6-0.1,0.8-0.1
		v1.2c-0.2,0.1-0.7,0.1-1.1,0.1C676.9,529.1,676.2,528.5,676.2,526.9z"/>
	<path fill="#FFFFFF" d="M682.1,526.9v-6.2h-1.4v-1.2h1.4v-3.4h1.4v3.4h2.1v1.2h-2.1v5.8c0,1,0.3,1.4,1.3,1.4c0.3,0,0.6-0.1,0.8-0.1
		v1.2c-0.2,0.1-0.7,0.1-1.1,0.1C682.7,529.1,682.1,528.5,682.1,526.9z"/>
	<path fill="#FFFFFF" d="M686.9,524.3c0-3.4,1.8-5,3.7-5c2.1,0,3.4,1.7,3.4,4.9v0.4h-5.6c0.1,2.2,0.9,3.4,2.3,3.4
		c1.1,0,1.7-0.6,2.2-1.7l1,0.6c-0.7,1.4-1.8,2.3-3.3,2.3C688.5,529.2,686.9,527.6,686.9,524.3z M692.6,523.5c-0.1-1.7-0.7-2.9-2-2.9
		c-1.1,0-2,0.9-2.2,2.9H692.6z"/>
	<path fill="#FFFFFF" d="M695.4,524.3c0-3.4,1.4-5,3.3-5c1.1,0,1.9,0.5,2.6,1.3v-5h1.4v11c0,1.2,0.1,1.9,0.2,2.3h-1.5
		c-0.1-0.3-0.2-0.9-0.2-1.2c-0.6,0.7-1.4,1.4-2.6,1.4C696.8,529.2,695.4,527.7,695.4,524.3z M701.2,526.7v-4.8
		c-0.7-0.8-1.4-1.3-2.3-1.3c-1.3,0-2.1,1.1-2.1,3.7c0,2.5,0.9,3.7,2.2,3.7C699.9,528,700.6,527.3,701.2,526.7z"/>
	<path fill="#FFFFFF" d="M705.1,519.5h1.7v1.9h-1.7V519.5z M705.1,527.1h1.7v1.9h-1.7V527.1z"/>
</g>
<g>
	<g>
		<path fill="none" stroke="#353535" stroke-width="3" stroke-linecap="round" stroke-linejoin="round" stroke-miterlimit="10" d="
			M580.7,717.1h-43.7c-1.7,0-3-1.3-3-3v-18.8c0-1.7,1.3-3,3-3h43.7c1.7,0,3,1.3,3,3v18.8C583.7,715.8,582.4,717.1,580.7,717.1z"/>
		<path fill="none" stroke="#353535" stroke-width="3" stroke-linecap="round" stroke-linejoin="round" stroke-miterlimit="10" d="
			M574.5,686.1h-31.2c-1.7,0-3-1.3-3-3v-25c0-1.7,1.3-3,3-3h31.2c1.7,0,3,1.3,3,3v25C577.5,684.8,576.2,686.1,574.5,686.1z"/>
		
			<circle fill="none" stroke="#353535" stroke-width="3" stroke-linecap="round" stroke-linejoin="round" stroke-miterlimit="10" cx="551.1" cy="665.9" r="4.7"/>
		
			<circle fill="none" stroke="#353535" stroke-width="3" stroke-linecap="round" stroke-linejoin="round" stroke-miterlimit="10" cx="566.6" cy="665.9" r="4.7"/>
		
			<line fill="none" stroke="#353535" stroke-width="3" stroke-linecap="round" stroke-linejoin="round" stroke-miterlimit="10" x1="546.5" y1="676.8" x2="546.5" y2="679.9"/>
		
			<line fill="none" stroke="#353535" stroke-width="3" stroke-linecap="round" stroke-linejoin="round" stroke-miterlimit="10" x1="552.7" y1="676.8" x2="552.7" y2="679.9"/>
		
			<line fill="none" stroke="#353535" stroke-width="3" stroke-linecap="round" stroke-linejoin="round" stroke-miterlimit="10" x1="558.9" y1="676.8" x2="558.9" y2="679.9"/>
		
			<line fill="none" stroke="#353535" stroke-width="3" stroke-linecap="round" stroke-linejoin="round" stroke-miterlimit="10" x1="565.1" y1="676.8" x2="565.1" y2="679.9"/>
		
			<line fill="none" stroke="#353535" stroke-width="3" stroke-linecap="round" stroke-linejoin="round" stroke-miterlimit="10" x1="571.3" y1="676.8" x2="571.3" y2="679.9"/>
		
			<line fill="none" stroke="#353535" stroke-width="3" stroke-linecap="round" stroke-linejoin="round" stroke-miterlimit="10" x1="543.4" y1="740.4" x2="543.4" y2="745.1"/>
		
			<line fill="none" stroke="#353535" stroke-width="3" stroke-linecap="round" stroke-linejoin="round" stroke-miterlimit="10" x1="549.6" y1="740.4" x2="549.6" y2="745.1"/>
		
			<line fill="none" stroke="#353535" stroke-width="3" stroke-linecap="round" stroke-linejoin="round" stroke-miterlimit="10" x1="568.2" y1="740.4" x2="568.2" y2="745.1"/>
		
			<line fill="none" stroke="#353535" stroke-width="3" stroke-linecap="round" stroke-linejoin="round" stroke-miterlimit="10" x1="574.4" y1="740.4" x2="574.4" y2="745.1"/>
		<path fill="none" stroke="#353535" stroke-width="3" stroke-linecap="round" stroke-linejoin="round" stroke-miterlimit="10" d="
			M581.7,676.8h-4.2v-12.4h4.2c1.1,0,2,0.9,2,2v8.4C583.7,675.9,582.8,676.8,581.7,676.8z"/>
		<path fill="none" stroke="#353535" stroke-width="3" stroke-linecap="round" stroke-linejoin="round" stroke-miterlimit="10" d="
			M540.3,676.8h-4.2c-1.1,0-2-0.9-2-2v-8.4c0-1.1,0.9-2,2-2h4.2V676.8z"/>
		
			<rect x="549.6" y="686.1" fill="none" stroke="#353535" stroke-width="3" stroke-linecap="round" stroke-linejoin="round" stroke-miterlimit="10" width="18.6" height="6.2"/>
		<path fill="none" stroke="#353535" stroke-width="3" stroke-linecap="round" stroke-linejoin="round" stroke-miterlimit="10" d="
			M518.5,684.6L518.5,684.6c-3.4,0-6.2-2.8-6.2-6.2v-4.7h12.4v4.7C524.7,681.8,522,684.6,518.5,684.6z"/>
		<path fill="none" stroke="#353535" stroke-width="3" stroke-linecap="round" stroke-linejoin="round" stroke-miterlimit="10" d="
			M518.5,684.6v4.7c0,3.4,2.8,6.2,6.2,6.2h9.3"/>
		
			<line fill="none" stroke="#353535" stroke-width="3" stroke-linecap="round" stroke-linejoin="round" stroke-miterlimit="10" x1="521.6" y1="667.5" x2="521.6" y2="673.7"/>
		<path fill="none" stroke="#353535" stroke-width="3" stroke-linecap="round" stroke-linejoin="round" stroke-miterlimit="10" d="
			M596.1,706.3L596.1,706.3c3.4,0,6.2,2.8,6.2,6.2v4.7h-12.4v-4.7C589.9,709.1,592.7,706.3,596.1,706.3z"/>
		<path fill="none" stroke="#353535" stroke-width="3" stroke-linecap="round" stroke-linejoin="round" stroke-miterlimit="10" d="
			M596.1,706.3v-4.7c0-3.4-2.8-6.2-6.2-6.2h-6.2"/>
		
			<rect x="543.4" y="701.6" fill="none" stroke="#353535" stroke-width="3" stroke-linecap="round" stroke-linejoin="round" stroke-miterlimit="10" width="9.3" height="6.2"/>
		<path fill="none" stroke="#353535" stroke-width="3" stroke-linecap="round" stroke-linejoin="round" stroke-miterlimit="10" d="
			M555.8,745.1h-18.6v-6.2c0-5.1,4.2-9.3,9.3-9.3l0,0c5.1,0,9.3,4.2,9.3,9.3V745.1z"/>
		<path fill="none" stroke="#353535" stroke-width="3" stroke-linecap="round" stroke-linejoin="round" stroke-miterlimit="10" d="
			M580.6,745.1H562v-6.2c0-5.1,4.2-9.3,9.3-9.3l0,0c5.1,0,9.3,4.2,9.3,9.3V745.1z"/>
		
			<line fill="none" stroke="#353535" stroke-width="3" stroke-linecap="round" stroke-linejoin="round" stroke-miterlimit="10" x1="546.5" y1="717.1" x2="546.5" y2="729.6"/>
		
			<line fill="none" stroke="#353535" stroke-width="3" stroke-linecap="round" stroke-linejoin="round" stroke-miterlimit="10" x1="571.3" y1="717.1" x2="571.3" y2="729.6"/>
		
			<line fill="none" stroke="#353535" stroke-width="3" stroke-linecap="round" stroke-linejoin="round" stroke-miterlimit="10" x1="562" y1="703.2" x2="562" y2="706.3"/>
		
			<line fill="none" stroke="#353535" stroke-width="3" stroke-linecap="round" stroke-linejoin="round" stroke-miterlimit="10" x1="568.2" y1="703.2" x2="568.2" y2="706.3"/>
		
			<line fill="none" stroke="#353535" stroke-width="3" stroke-linecap="round" stroke-linejoin="round" stroke-miterlimit="10" x1="574.4" y1="703.2" x2="574.4" y2="706.3"/>
	</g>
</g>
<g>
	<path fill="#353535" d="M512.3,55l1.3-0.6c0.6,1.4,1.6,2.4,3.1,2.4c1.6,0,2.5-0.8,2.5-2.1c0-1.5-1.3-2.2-2.7-2.9
		c-1.7-0.8-3.6-1.7-3.6-4.1c0-1.9,1.6-3.3,3.6-3.3c2.1,0,3.3,1.3,4,2.8l-1.3,0.6c-0.5-1.1-1.3-2.1-2.7-2.1c-1.3,0-2.1,0.8-2.1,1.9
		c0,1.5,1.3,2.2,2.7,2.9c1.7,0.8,3.6,1.7,3.6,4.1c0,1.9-1.5,3.5-4,3.5C514.5,58.2,513.1,57,512.3,55z"/>
	<path fill="#353535" d="M522.2,53.2c0-3.3,1.6-5,3.8-5c2.1,0,3.7,1.7,3.7,5c0,3.3-1.6,5-3.7,5C523.9,58.2,522.2,56.5,522.2,53.2z
		 M528.3,53.2c0-2.1-0.7-3.7-2.3-3.7c-1.5,0-2.3,1.5-2.3,3.7c0,2.1,0.7,3.7,2.3,3.7C527.5,57,528.3,55.5,528.3,53.2z"/>
	<path fill="#353535" d="M531.6,48.5h1.5v1.3c0.7-0.7,1.7-1.5,2.9-1.5c1.3,0,1.9,0.5,2.2,1.5c0.7-0.8,1.7-1.5,3-1.5
		c1.5,0,2.3,0.9,2.3,2.6V58h-1.4v-6.8c0-1.1-0.4-1.7-1.3-1.7c-0.9,0-1.7,0.6-2.4,1.3V58h-1.5v-6.8c0-1.1-0.3-1.7-1.3-1.7
		c-0.8,0-1.6,0.6-2.4,1.4V58h-1.5V48.5z"/>
	<path fill="#353535" d="M545.1,53.2c0-3.4,1.8-5,3.7-5c2.1,0,3.4,1.7,3.4,4.9v0.4h-5.6c0.1,2.2,0.9,3.4,2.3,3.4
		c1.1,0,1.7-0.6,2.2-1.7l1,0.6c-0.7,1.4-1.8,2.3-3.3,2.3C546.7,58.2,545.1,56.5,545.1,53.2z M550.8,52.4c-0.1-1.7-0.7-2.9-2-2.9
		c-1.1,0-2,0.9-2.2,2.9H550.8z"/>
	<path fill="#353535" d="M554.6,55.8v-6.2h-1.4v-1.2h1.4v-3.4h1.4v3.4h2.1v1.2h-2.1v5.8c0,1,0.3,1.4,1.3,1.4c0.3,0,0.6-0.1,0.8-0.1
		V58c-0.2,0.1-0.7,0.1-1.1,0.1C555.3,58.1,554.6,57.5,554.6,55.8z"/>
	<path fill="#353535" d="M559.9,44.7h1.5v5.1c0.6-0.7,1.8-1.5,3-1.5c1.5,0,2.3,0.9,2.3,2.6V58h-1.4v-6.8c0-1.1-0.4-1.7-1.3-1.7
		c-0.9,0-1.9,0.7-2.6,1.4V58h-1.5V44.7z"/>
	<path fill="#353535" d="M569,45h1.5v1.6H569V45z M569,48.5h1.5V58H569V48.5z"/>
	<path fill="#353535" d="M572.9,48.5h1.5v1.3c0.6-0.7,1.8-1.5,3-1.5c1.5,0,2.3,0.9,2.3,2.6V58h-1.4v-6.8c0-1.1-0.4-1.7-1.3-1.7
		c-0.9,0-1.9,0.7-2.6,1.4V58h-1.5V48.5z"/>
	<path fill="#353535" d="M589.2,48.3v1.4c-0.4,0-0.9,0.1-1.4,0.3c0.3,0.5,0.4,1.1,0.4,1.7c0,2.1-1.4,3.4-3.3,3.4
		c-0.5,0-0.9-0.1-1.3-0.2c-0.3,0.2-0.5,0.4-0.5,0.7c0,0.4,0.2,0.5,1.1,0.6l1.5,0.2c2.3,0.3,3.3,1,3.3,2.4c0,1.7-1.8,2.7-4.1,2.7
		c-2.7,0-3.7-0.9-3.7-2.3c0-1,0.6-1.7,1.5-2.1c-0.5-0.3-0.8-0.6-0.8-1.2c0-0.6,0.4-1.1,1-1.5c-0.8-0.6-1.3-1.6-1.3-2.8
		c0-2.1,1.4-3.4,3.3-3.4c1,0,1.8,0.3,2.4,1C587.8,48.8,588.6,48.5,589.2,48.3z M582.4,59.1c0,1,0.6,1.5,2.6,1.5
		c1.5,0,2.6-0.5,2.6-1.5c0-0.8-0.5-1.2-2.1-1.4l-1.5-0.2c-0.1,0-0.2,0-0.3,0C582.8,57.8,582.4,58.4,582.4,59.1z M586.8,51.7
		c0-1.4-0.7-2.3-1.9-2.3c-1.2,0-1.9,0.9-1.9,2.3c0,1.4,0.7,2.3,1.9,2.3C586.1,54,586.8,53.1,586.8,51.7z"/>
	<path fill="#353535" d="M593.9,53.2c0-3.3,1.6-5,3.8-5c2.1,0,3.7,1.7,3.7,5c0,3.3-1.6,5-3.7,5C595.6,58.2,593.9,56.5,593.9,53.2z
		 M600,53.2c0-2.1-0.7-3.7-2.3-3.7c-1.5,0-2.3,1.5-2.3,3.7c0,2.1,0.7,3.7,2.3,3.7C599.2,57,600,55.5,600,53.2z"/>
	<path fill="#353535" d="M603.9,49.7h-1.4v-1.2h1.4V47c0-1.6,0.8-2.4,2.6-2.4c0.2,0,0.7,0,0.7,0v1.2c0,0-0.5,0-0.5,0
		c-0.8,0-1.3,0.3-1.3,1.2v1.4h1.8v1.2h-1.8V58h-1.4V49.7z"/>
	<path fill="#353535" d="M611.7,55.7c0-1.9,1.6-3.3,5.3-4v-0.6c0-1.1-0.5-1.6-1.4-1.6c-1.2,0-2.1,0.6-2.8,1.3L612,50
		c1-1,2.3-1.7,3.8-1.7c1.9,0,2.7,1,2.7,2.9v4.5c0,1.2,0.1,1.9,0.2,2.3h-1.5c-0.1-0.4-0.2-0.7-0.2-1.2c-0.8,0.8-1.8,1.4-3,1.4
		C612.6,58.1,611.7,57.2,611.7,55.7z M617,55.7v-2.9c-2.9,0.6-3.9,1.6-3.9,2.8c0,1,0.5,1.4,1.3,1.4C615.5,56.9,616.4,56.4,617,55.7z
		"/>
	<path fill="#353535" d="M623.5,56.2l1-0.7c0.6,1,1.6,1.5,2.6,1.5c1.2,0,1.9-0.5,1.9-1.4c0-2.3-5-1.4-5-4.8c0-1.5,1.2-2.6,3-2.6
		c1.4,0,2.4,0.7,3.1,1.7l-1,0.8c-0.5-0.7-1.2-1.3-2.2-1.3c-1.1,0-1.6,0.5-1.6,1.3c0,2.4,4.9,1.3,4.9,4.8c0,1.7-1.5,2.7-3.3,2.7
		C625.4,58.2,624.2,57.4,623.5,56.2z"/>
	<path fill="#353535" d="M632.2,45h1.5v1.6h-1.5V45z M632.2,48.5h1.5V58h-1.5V48.5z"/>
	<path fill="#353535" d="M635.7,53.2c0-3.4,1.4-5,3.3-5c1.1,0,1.9,0.5,2.6,1.3v-5h1.4v11c0,1.2,0.1,1.9,0.2,2.3h-1.5
		c-0.1-0.3-0.2-0.9-0.2-1.2c-0.6,0.7-1.4,1.4-2.6,1.4C637,58.1,635.7,56.7,635.7,53.2z M641.5,55.6v-4.8c-0.7-0.8-1.4-1.3-2.3-1.3
		c-1.3,0-2.1,1.1-2.1,3.7c0,2.5,0.9,3.7,2.2,3.7C640.1,56.9,640.9,56.3,641.5,55.6z"/>
	<path fill="#353535" d="M644.8,53.2c0-3.4,1.8-5,3.7-5c2.1,0,3.4,1.7,3.4,4.9v0.4h-5.6c0.1,2.2,0.9,3.4,2.3,3.4
		c1.1,0,1.7-0.6,2.2-1.7l1,0.6c-0.7,1.4-1.8,2.3-3.3,2.3C646.4,58.2,644.8,56.5,644.8,53.2z M650.4,52.4c-0.1-1.7-0.7-2.9-2-2.9
		c-1.1,0-2,0.9-2.2,2.9H650.4z"/>
	<path fill="#353535" d="M653.7,44.7h1.4v8.7c0.2-0.4,0.8-1.2,1.3-1.9l2.2-3h1.5l-2.6,3.5l2.9,6h-1.5l-2.3-4.8l-1.5,2V58h-1.4V44.7z
		"/>
	<path fill="#353535" d="M662,45h1.5v1.6H662V45z M662,48.5h1.5V58H662V48.5z"/>
	<path fill="#353535" d="M665.5,53.2c0-3.4,1.7-5,3.7-5c1.9,0,2.7,1.3,3.2,2.8l-1.3,0.4c-0.3-1.2-0.8-1.9-1.9-1.9
		c-1.2,0-2.2,1.1-2.2,3.7c0,2.3,0.8,3.7,2.2,3.7c1,0,1.6-0.6,2-2l1.3,0.3c-0.5,1.8-1.6,2.8-3.3,2.8
		C667.1,58.2,665.5,56.5,665.5,53.2z"/>
	<path fill="#353535" d="M674.1,44.7h1.4v8.7c0.2-0.4,0.8-1.2,1.3-1.9l2.2-3h1.5l-2.6,3.5l2.9,6h-1.5l-2.3-4.8l-1.5,2V58h-1.4V44.7z
		"/>
	<path fill="#353535" d="M683.2,58h-0.7v-1.9h1.7v1.7l-0.8,2h-0.7L683.2,58z"/>
	<path fill="#353535" d="M690.4,44.7h3.8c2.6,0,4.1,1.2,4.1,3.8c0,2.1-1.2,3.2-2.5,3.6l2.7,5.9h-1.5l-2.6-5.7h-2.4V58h-1.5V44.7z
		 M694.1,51c1.8,0,2.7-0.7,2.7-2.6c0-1.8-0.9-2.4-2.7-2.4h-2.2v5H694.1z"/>
	<path fill="#353535" d="M700,53.2c0-3.4,1.8-5,3.7-5c2.1,0,3.4,1.7,3.4,4.9v0.4h-5.6c0.1,2.2,0.9,3.4,2.3,3.4
		c1.1,0,1.7-0.6,2.2-1.7l1,0.6c-0.7,1.4-1.8,2.3-3.3,2.3C701.6,58.2,700,56.5,700,53.2z M705.7,52.4c-0.1-1.7-0.7-2.9-2-2.9
		c-1.1,0-2,0.9-2.2,2.9H705.7z M704,44.7h1.7l-2.2,2.8h-1L704,44.7z"/>
	<path fill="#353535" d="M708.2,56.2l1-0.7c0.6,1,1.6,1.5,2.6,1.5c1.2,0,1.9-0.5,1.9-1.4c0-2.3-5-1.4-5-4.8c0-1.5,1.2-2.6,3-2.6
		c1.4,0,2.4,0.7,3.1,1.7l-1,0.8c-0.5-0.7-1.2-1.3-2.2-1.3c-1.1,0-1.6,0.5-1.6,1.3c0,2.4,4.9,1.3,4.9,4.8c0,1.7-1.5,2.7-3.3,2.7
		C710.1,58.2,708.9,57.4,708.2,56.2z"/>
	<path fill="#353535" d="M716.7,55.5v-7.1h1.4v6.8c0,1.1,0.4,1.7,1.4,1.7c0.9,0,1.7-0.6,2.5-1.4v-7.1h1.5V58h-1.5v-1.3
		c-0.7,0.8-1.7,1.5-3,1.5C717.5,58.2,716.7,57.3,716.7,55.5z"/>
	<path fill="#353535" d="M725.8,48.5h1.5v1.3c0.7-0.7,1.7-1.5,2.9-1.5c1.3,0,1.9,0.5,2.2,1.5c0.7-0.8,1.7-1.5,3-1.5
		c1.5,0,2.3,0.9,2.3,2.6V58h-1.4v-6.8c0-1.1-0.4-1.7-1.3-1.7c-0.9,0-1.7,0.6-2.4,1.3V58H731v-6.8c0-1.1-0.3-1.7-1.3-1.7
		c-0.8,0-1.6,0.6-2.4,1.4V58h-1.5V48.5z"/>
	<path fill="#353535" d="M739.4,53.2c0-3.4,1.8-5,3.7-5c2.1,0,3.4,1.7,3.4,4.9v0.4h-5.6c0.1,2.2,0.9,3.4,2.3,3.4
		c1.1,0,1.7-0.6,2.2-1.7l1,0.6c-0.7,1.4-1.8,2.3-3.3,2.3C741,58.2,739.4,56.5,739.4,53.2z M745.1,52.4c-0.1-1.7-0.7-2.9-2-2.9
		c-1.1,0-2,0.9-2.2,2.9H745.1z M743.3,44.7h1.7l-2.2,2.8h-1L743.3,44.7z"/>
	<path fill="#353535" d="M748.5,44.7h3.9c2.5,0,4,1.1,4,3.3c0,1.9-1,2.7-2.1,3v0c1.3,0.3,2.5,1.2,2.5,3.3c0,2.3-1.5,3.6-4.1,3.6
		h-4.2V44.7z M752.3,50.5c1.7,0,2.6-0.6,2.6-2.2s-0.8-2.3-2.6-2.3H750v4.5H752.3z M752.7,56.7c1.8,0,2.6-0.8,2.6-2.4
		c0-1.8-1.1-2.4-2.9-2.4H750v4.9H752.7z"/>
	<path fill="#353535" d="M758.3,53.2c0-3.3,1.6-5,3.8-5c2.1,0,3.7,1.7,3.7,5c0,3.3-1.6,5-3.7,5C759.9,58.2,758.3,56.5,758.3,53.2z
		 M764.3,53.2c0-2.1-0.7-3.7-2.3-3.7c-1.5,0-2.3,1.5-2.3,3.7c0,2.1,0.7,3.7,2.3,3.7C763.6,57,764.3,55.5,764.3,53.2z"/>
	<path fill="#353535" d="M768.2,55.8v-6.2h-1.4v-1.2h1.4v-3.4h1.4v3.4h2.1v1.2h-2.1v5.8c0,1,0.3,1.4,1.3,1.4c0.3,0,0.6-0.1,0.8-0.1
		V58c-0.2,0.1-0.7,0.1-1.1,0.1C768.9,58.1,768.2,57.5,768.2,55.8z"/>
	<path fill="#353535" d="M512,86.2l1-0.7c0.6,1,1.6,1.5,2.6,1.5c1.2,0,1.9-0.5,1.9-1.4c0-2.3-5-1.4-5-4.8c0-1.5,1.2-2.6,3-2.6
		c1.4,0,2.4,0.7,3.1,1.7l-1,0.8c-0.5-0.7-1.2-1.3-2.2-1.3c-1.1,0-1.6,0.5-1.6,1.3c0,2.4,4.9,1.3,4.9,4.8c0,1.7-1.5,2.7-3.3,2.7
		C513.9,88.2,512.8,87.4,512,86.2z"/>
	<path fill="#353535" d="M521.2,85.8v-6.2h-1.4v-1.2h1.4v-3.4h1.4v3.4h2.1v1.2h-2.1v5.8c0,1,0.3,1.4,1.3,1.4c0.3,0,0.6-0.1,0.8-0.1
		V88c-0.2,0.1-0.7,0.1-1.1,0.1C521.9,88.1,521.2,87.5,521.2,85.8z"/>
	<path fill="#353535" d="M526,85.7c0-1.9,1.6-3.3,5.3-4v-0.6c0-1.1-0.5-1.6-1.4-1.6c-1.2,0-2.1,0.6-2.8,1.3l-0.8-0.9
		c1-1,2.3-1.7,3.8-1.7c1.9,0,2.7,1,2.7,2.9v4.5c0,1.2,0.1,1.9,0.2,2.3h-1.5c-0.1-0.4-0.2-0.7-0.2-1.2c-0.8,0.8-1.8,1.4-3,1.4
		C526.8,88.1,526,87.2,526,85.7z M531.3,85.7v-2.9c-2.9,0.6-3.9,1.6-3.9,2.8c0,1,0.5,1.4,1.3,1.4C529.7,86.9,530.6,86.4,531.3,85.7z
		"/>
	<path fill="#353535" d="M535,78.5h1.5v1.6h0c0.5-1,1.5-1.8,3-1.8h0.2l-0.1,1.4c0,0-0.3,0-0.3,0c-1.2,0-2.3,0.8-2.8,1.9V88H535V78.5
		z"/>
	<path fill="#353535" d="M541.8,85.8v-6.2h-1.4v-1.2h1.4v-3.4h1.4v3.4h2.1v1.2h-2.1v5.8c0,1,0.3,1.4,1.3,1.4c0.3,0,0.6-0.1,0.8-0.1
		V88c-0.2,0.1-0.7,0.1-1.1,0.1C542.4,88.1,541.8,87.5,541.8,85.8z"/>
	<path fill="#353535" d="M546.6,83.2c0-3.4,1.8-5,3.7-5c2.1,0,3.4,1.7,3.4,4.9v0.4H548c0.1,2.2,0.9,3.4,2.3,3.4
		c1.1,0,1.7-0.6,2.2-1.7l1,0.6c-0.7,1.4-1.8,2.3-3.3,2.3C548.2,88.2,546.6,86.5,546.6,83.2z M552.3,82.4c-0.1-1.7-0.7-2.9-2-2.9
		c-1.1,0-2,0.9-2.2,2.9H552.3z"/>
	<path fill="#353535" d="M555.1,83.2c0-3.4,1.4-5,3.3-5c1.1,0,1.9,0.5,2.6,1.3v-5h1.4v11c0,1.2,0.1,1.9,0.2,2.3h-1.5
		c-0.1-0.3-0.2-0.9-0.2-1.2c-0.6,0.7-1.4,1.4-2.6,1.4C556.4,88.1,555.1,86.7,555.1,83.2z M560.9,85.6v-4.8c-0.7-0.8-1.4-1.3-2.3-1.3
		c-1.3,0-2.1,1.1-2.1,3.7c0,2.5,0.9,3.7,2.2,3.7C559.5,86.9,560.3,86.3,560.9,85.6z"/>
	<path fill="#353535" d="M567.8,83.2c0-3.3,1.6-5,3.8-5c2.1,0,3.7,1.7,3.7,5c0,3.3-1.6,5-3.7,5C569.4,88.2,567.8,86.5,567.8,83.2z
		 M573.8,83.2c0-2.1-0.7-3.7-2.3-3.7c-1.5,0-2.3,1.5-2.3,3.7c0,2.1,0.7,3.7,2.3,3.7C573,87,573.8,85.5,573.8,83.2z"/>
	<path fill="#353535" d="M577.1,85.5v-7.1h1.4v6.8c0,1.1,0.4,1.7,1.4,1.7c0.9,0,1.7-0.6,2.5-1.4v-7.1h1.5V88h-1.5v-1.3
		c-0.7,0.8-1.7,1.5-3,1.5C577.9,88.2,577.1,87.3,577.1,85.5z"/>
	<path fill="#353535" d="M586.7,85.8v-6.2h-1.4v-1.2h1.4v-3.4h1.4v3.4h2.1v1.2h-2.1v5.8c0,1,0.3,1.4,1.3,1.4c0.3,0,0.6-0.1,0.8-0.1
		V88c-0.2,0.1-0.7,0.1-1.1,0.1C587.4,88.1,586.7,87.5,586.7,85.8z"/>
	<path fill="#353535" d="M595.1,85.7c0-1.9,1.6-3.3,5.3-4v-0.6c0-1.1-0.5-1.6-1.4-1.6c-1.2,0-2.1,0.6-2.8,1.3l-0.8-0.9
		c1-1,2.3-1.7,3.8-1.7c1.9,0,2.7,1,2.7,2.9v4.5c0,1.2,0.1,1.9,0.2,2.3h-1.5c-0.1-0.4-0.2-0.7-0.2-1.2c-0.8,0.8-1.8,1.4-3,1.4
		C595.9,88.1,595.1,87.2,595.1,85.7z M600.4,85.7v-2.9c-2.9,0.6-3.9,1.6-3.9,2.8c0,1,0.5,1.4,1.3,1.4
		C598.8,86.9,599.7,86.4,600.4,85.7z"/>
	<path fill="#353535" d="M603.3,86.2l1-0.7c0.6,1,1.6,1.5,2.6,1.5c1.2,0,1.9-0.5,1.9-1.4c0-2.3-5-1.4-5-4.8c0-1.5,1.2-2.6,3-2.6
		c1.4,0,2.4,0.7,3.1,1.7l-1,0.8c-0.5-0.7-1.2-1.3-2.2-1.3c-1.1,0-1.6,0.5-1.6,1.3c0,2.4,4.9,1.3,4.9,4.8c0,1.7-1.5,2.7-3.3,2.7
		C605.2,88.2,604,87.4,603.3,86.2z"/>
	<path fill="#353535" d="M615.7,74.7h1.9l3.4,11.2h0l3.3-11.2h1.9V88h-1.5V77.1h0c-0.2,0.8-0.6,2.3-0.9,3.4l-2.3,7.5h-1.2l-2.3-7.6
		c-0.3-1-0.7-2.5-0.9-3.4h0V88h-1.4V74.7z"/>
	<path fill="#353535" d="M628.2,85.7c0-1.9,1.6-3.3,5.3-4v-0.6c0-1.1-0.5-1.6-1.4-1.6c-1.2,0-2.1,0.6-2.8,1.3l-0.8-0.9
		c1-1,2.3-1.7,3.8-1.7c1.9,0,2.7,1,2.7,2.9v4.5c0,1.2,0.1,1.9,0.2,2.3h-1.5c-0.1-0.4-0.2-0.7-0.2-1.2c-0.8,0.8-1.8,1.4-3,1.4
		C629.1,88.1,628.2,87.2,628.2,85.7z M633.5,85.7v-2.9c-2.9,0.6-3.9,1.6-3.9,2.8c0,1,0.5,1.4,1.3,1.4
		C632,86.9,632.9,86.4,633.5,85.7z"/>
	<path fill="#353535" d="M637.8,85.8v-6.2h-1.4v-1.2h1.4v-3.4h1.4v3.4h2.1v1.2h-2.1v5.8c0,1,0.3,1.4,1.3,1.4c0.3,0,0.6-0.1,0.8-0.1
		V88c-0.2,0.1-0.7,0.1-1.1,0.1C638.4,88.1,637.8,87.5,637.8,85.8z"/>
	<path fill="#353535" d="M642.6,83.2c0-3.4,1.7-5,3.7-5c1.9,0,2.7,1.3,3.2,2.8l-1.3,0.4c-0.3-1.2-0.8-1.9-1.9-1.9
		c-1.2,0-2.2,1.1-2.2,3.7c0,2.3,0.8,3.7,2.2,3.7c1,0,1.6-0.6,2-2l1.3,0.3c-0.5,1.8-1.6,2.8-3.3,2.8
		C644.2,88.2,642.6,86.5,642.6,83.2z"/>
	<path fill="#353535" d="M651.3,74.7h1.5v5.1c0.6-0.7,1.8-1.5,3-1.5c1.5,0,2.3,0.9,2.3,2.6V88h-1.4v-6.8c0-1.1-0.4-1.7-1.3-1.7
		c-0.9,0-1.9,0.7-2.6,1.4V88h-1.5V74.7z"/>
	<path fill="#353535" d="M659.5,86.2l1-0.7c0.6,1,1.6,1.5,2.6,1.5c1.2,0,1.9-0.5,1.9-1.4c0-2.3-5-1.4-5-4.8c0-1.5,1.2-2.6,3-2.6
		c1.4,0,2.4,0.7,3.1,1.7l-1,0.8c-0.5-0.7-1.2-1.3-2.2-1.3c-1.1,0-1.6,0.5-1.6,1.3c0,2.4,4.9,1.3,4.9,4.8c0,1.7-1.5,2.7-3.3,2.7
		C661.4,88.2,660.2,87.4,659.5,86.2z"/>
	<path fill="#353535" d="M668.7,85.8v-6.2h-1.4v-1.2h1.4v-3.4h1.4v3.4h2.1v1.2h-2.1v5.8c0,1,0.3,1.4,1.3,1.4c0.3,0,0.6-0.1,0.8-0.1
		V88c-0.2,0.1-0.7,0.1-1.1,0.1C669.3,88.1,668.7,87.5,668.7,85.8z"/>
	<path fill="#353535" d="M674.1,75h1.5v1.6h-1.5V75z M674.1,78.5h1.5V88h-1.5V78.5z"/>
	<path fill="#353535" d="M683.3,86.7c-0.6,0.7-1.4,1.4-2.6,1.4c-1.9,0-3.2-1.5-3.2-4.9c0-3.4,1.4-5,3.2-5c1.1,0,1.9,0.6,2.6,1.4
		v-1.2h1.5v13.1h-1.5V86.7z M683.3,85.6v-4.8c-0.7-0.8-1.4-1.3-2.2-1.3c-1.3,0-2.1,1.1-2.1,3.7c0,2.6,0.9,3.7,2.2,3.7
		C682,86.9,682.6,86.4,683.3,85.6z"/>
	<path fill="#353535" d="M687.1,75.6v-1h1.4v1l-0.3,3.6h-0.9L687.1,75.6z"/>
	<path fill="#353535" d="M690.1,86.2l1-0.7c0.6,1,1.6,1.5,2.6,1.5c1.2,0,1.9-0.5,1.9-1.4c0-2.3-5-1.4-5-4.8c0-1.5,1.2-2.6,3-2.6
		c1.4,0,2.4,0.7,3.1,1.7l-1,0.8c-0.5-0.7-1.2-1.3-2.2-1.3c-1.1,0-1.6,0.5-1.6,1.3c0,2.4,4.9,1.3,4.9,4.8c0,1.7-1.5,2.7-3.3,2.7
		C692,88.2,690.8,87.4,690.1,86.2z"/>
	<path fill="#353535" d="M702.4,75h1.5v1.6h-1.5V75z M702.4,78.5h1.5V88h-1.5V78.5z"/>
	<path fill="#353535" d="M706.2,78.5h1.5v1.3c0.6-0.7,1.8-1.5,3-1.5c1.5,0,2.3,0.9,2.3,2.6V88h-1.4v-6.8c0-1.1-0.4-1.7-1.3-1.7
		c-0.9,0-1.9,0.7-2.6,1.4V88h-1.5V78.5z"/>
	<path fill="#353535" d="M715,81.7h3.7V83H715V81.7z"/>
	<path fill="#353535" d="M720.3,85.7c0-1.9,1.6-3.3,5.3-4v-0.6c0-1.1-0.5-1.6-1.4-1.6c-1.2,0-2.1,0.6-2.8,1.3l-0.8-0.9
		c1-1,2.3-1.7,3.8-1.7c1.9,0,2.7,1,2.7,2.9v4.5c0,1.2,0.1,1.9,0.2,2.3h-1.5c-0.1-0.4-0.2-0.7-0.2-1.2c-0.8,0.8-1.8,1.4-3,1.4
		C721.1,88.1,720.3,87.2,720.3,85.7z M725.6,85.7v-2.9c-2.9,0.6-3.9,1.6-3.9,2.8c0,1,0.5,1.4,1.3,1.4
		C724,86.9,724.9,86.4,725.6,85.7z"/>
	<path fill="#353535" d="M729.3,78.5h1.5v1.2c0.6-0.7,1.4-1.4,2.6-1.4c1.9,0,3.2,1.5,3.2,4.9c0,3.4-1.4,4.9-3.3,4.9
		c-1.1,0-1.9-0.5-2.5-1.3v4.8h-1.5V78.5z M735.1,83.2c0-2.5-0.9-3.7-2.1-3.7c-0.9,0-1.7,0.6-2.2,1.3v4.8c0.7,0.8,1.4,1.3,2.3,1.3
		C734.3,86.9,735.1,85.8,735.1,83.2z"/>
	<path fill="#353535" d="M738.4,78.5h1.5v1.2c0.6-0.7,1.4-1.4,2.6-1.4c1.9,0,3.2,1.5,3.2,4.9c0,3.4-1.4,4.9-3.3,4.9
		c-1.1,0-1.9-0.5-2.5-1.3v4.8h-1.5V78.5z M744.3,83.2c0-2.5-0.9-3.7-2.1-3.7c-0.9,0-1.7,0.6-2.2,1.3v4.8c0.7,0.8,1.4,1.3,2.3,1.3
		C743.4,86.9,744.3,85.8,744.3,83.2z"/>
	<path fill="#353535" d="M512.8,108.5h1.5v1.6h0c0.5-1,1.5-1.8,3-1.8h0.2l-0.1,1.4c0,0-0.3,0-0.3,0c-1.2,0-2.3,0.8-2.8,1.9v6.4h-1.5
		V108.5z"/>
	<path fill="#353535" d="M518.6,113.2c0-3.4,1.8-5,3.7-5c2.1,0,3.4,1.7,3.4,4.9v0.4H520c0.1,2.2,0.9,3.4,2.3,3.4
		c1.1,0,1.7-0.6,2.2-1.7l1,0.6c-0.7,1.4-1.8,2.3-3.3,2.3C520.2,118.2,518.6,116.5,518.6,113.2z M524.3,112.4c-0.1-1.7-0.7-2.9-2-2.9
		c-1.1,0-2,0.9-2.2,2.9H524.3z M522.5,104.7h1.7l-2.2,2.8h-1L522.5,104.7z"/>
	<path fill="#353535" d="M526.7,116.2l1-0.7c0.6,1,1.6,1.5,2.6,1.5c1.2,0,1.9-0.5,1.9-1.4c0-2.3-5-1.4-5-4.8c0-1.5,1.2-2.6,3-2.6
		c1.4,0,2.4,0.7,3.1,1.7l-1,0.8c-0.5-0.7-1.2-1.3-2.2-1.3c-1.1,0-1.6,0.5-1.6,1.3c0,2.4,4.9,1.3,4.9,4.8c0,1.7-1.5,2.7-3.3,2.7
		C528.6,118.2,527.4,117.4,526.7,116.2z"/>
	<path fill="#353535" d="M535.2,115.5v-7.1h1.4v6.8c0,1.1,0.4,1.7,1.4,1.7c0.9,0,1.7-0.6,2.5-1.4v-7.1h1.5v9.5h-1.5v-1.3
		c-0.7,0.8-1.7,1.5-3,1.5C536.1,118.2,535.2,117.3,535.2,115.5z"/>
	<path fill="#353535" d="M544.4,108.5h1.5v1.3c0.7-0.7,1.7-1.5,2.9-1.5c1.3,0,1.9,0.5,2.2,1.5c0.7-0.8,1.7-1.5,3-1.5
		c1.5,0,2.3,0.9,2.3,2.6v7.1h-1.4v-6.8c0-1.1-0.4-1.7-1.3-1.7c-0.9,0-1.7,0.6-2.4,1.3v7.1h-1.5v-6.8c0-1.1-0.3-1.7-1.3-1.7
		c-0.8,0-1.6,0.6-2.4,1.4v7.1h-1.5V108.5z"/>
	<path fill="#353535" d="M557.9,113.2c0-3.4,1.8-5,3.7-5c2.1,0,3.4,1.7,3.4,4.9v0.4h-5.6c0.1,2.2,0.9,3.4,2.3,3.4
		c1.1,0,1.7-0.6,2.2-1.7l1,0.6c-0.7,1.4-1.8,2.3-3.3,2.3C559.5,118.2,557.9,116.5,557.9,113.2z M563.6,112.4c-0.1-1.7-0.7-2.9-2-2.9
		c-1.1,0-2,0.9-2.2,2.9H563.6z M561.9,104.7h1.7l-2.2,2.8h-1L561.9,104.7z"/>
	<path fill="#353535" d="M570.4,108.5h1.5v1.2c0.6-0.7,1.4-1.4,2.6-1.4c1.9,0,3.2,1.5,3.2,4.9c0,3.4-1.4,4.9-3.3,4.9
		c-1.1,0-1.9-0.5-2.5-1.3v4.8h-1.5V108.5z M576.3,113.2c0-2.5-0.9-3.7-2.1-3.7c-0.9,0-1.7,0.6-2.2,1.3v4.8c0.7,0.8,1.4,1.3,2.3,1.3
		C575.4,116.9,576.3,115.8,576.3,113.2z"/>
	<path fill="#353535" d="M579.1,115.7c0-1.9,1.6-3.3,5.3-4v-0.6c0-1.1-0.5-1.6-1.4-1.6c-1.2,0-2.1,0.6-2.8,1.3l-0.8-0.9
		c1-1,2.3-1.7,3.8-1.7c1.9,0,2.7,1,2.7,2.9v4.5c0,1.2,0.1,1.9,0.2,2.3h-1.5c-0.1-0.4-0.2-0.7-0.2-1.2c-0.8,0.8-1.8,1.4-3,1.4
		C579.9,118.1,579.1,117.2,579.1,115.7z M584.4,115.7v-2.9c-2.9,0.6-3.9,1.6-3.9,2.8c0,1,0.5,1.4,1.3,1.4
		C582.8,116.9,583.7,116.4,584.4,115.7z"/>
	<path fill="#353535" d="M588,108.5h1.5v1.6h0c0.5-1,1.5-1.8,3-1.8h0.2l-0.1,1.4c0,0-0.3,0-0.3,0c-1.2,0-2.3,0.8-2.8,1.9v6.4H588
		V108.5z"/>
	<path fill="#353535" d="M593.5,116.2l1-0.7c0.6,1,1.6,1.5,2.6,1.5c1.2,0,1.9-0.5,1.9-1.4c0-2.3-5-1.4-5-4.8c0-1.5,1.2-2.6,3-2.6
		c1.4,0,2.4,0.7,3.1,1.7l-1,0.8c-0.5-0.7-1.2-1.3-2.2-1.3c-1.1,0-1.6,0.5-1.6,1.3c0,2.4,4.9,1.3,4.9,4.8c0,1.7-1.5,2.7-3.3,2.7
		C595.4,118.2,594.2,117.4,593.5,116.2z"/>
	<path fill="#353535" d="M602.2,105h1.5v1.6h-1.5V105z M602.2,108.5h1.5v9.5h-1.5V108.5z"/>
	<path fill="#353535" d="M606,108.5h1.5v1.3c0.6-0.7,1.8-1.5,3-1.5c1.5,0,2.3,0.9,2.3,2.6v7.1h-1.4v-6.8c0-1.1-0.4-1.7-1.3-1.7
		c-0.9,0-1.9,0.7-2.6,1.4v7.1H606V108.5z"/>
	<path fill="#353535" d="M622.4,108.3v1.4c-0.4,0-0.9,0.1-1.4,0.3c0.3,0.5,0.4,1.1,0.4,1.7c0,2.1-1.4,3.4-3.3,3.4
		c-0.5,0-0.9-0.1-1.3-0.2c-0.3,0.2-0.5,0.4-0.5,0.7c0,0.4,0.2,0.5,1.1,0.6l1.5,0.2c2.3,0.3,3.3,1,3.3,2.4c0,1.7-1.8,2.7-4.1,2.7
		c-2.7,0-3.7-0.9-3.7-2.3c0-1,0.6-1.7,1.5-2.1c-0.5-0.3-0.8-0.6-0.8-1.2c0-0.6,0.4-1.1,1-1.5c-0.8-0.6-1.3-1.6-1.3-2.8
		c0-2.1,1.4-3.4,3.3-3.4c1,0,1.8,0.3,2.4,1C620.9,108.8,621.7,108.5,622.4,108.3z M615.5,119.1c0,1,0.6,1.5,2.6,1.5
		c1.5,0,2.6-0.5,2.6-1.5c0-0.8-0.5-1.2-2.1-1.4l-1.5-0.2c-0.1,0-0.2,0-0.3,0C615.9,117.8,615.5,118.4,615.5,119.1z M620,111.7
		c0-1.4-0.7-2.3-1.9-2.3c-1.2,0-1.9,0.9-1.9,2.3c0,1.4,0.7,2.3,1.9,2.3C619.3,114,620,113.1,620,111.7z"/>
	<path fill="#353535" d="M628.1,115.8v-6.2h-1.4v-1.2h1.4v-3.4h1.4v3.4h2.1v1.2h-2.1v5.8c0,1,0.3,1.4,1.3,1.4c0.3,0,0.6-0.1,0.8-0.1
		v1.2c-0.2,0.1-0.7,0.1-1.1,0.1C628.8,118.1,628.1,117.5,628.1,115.8z"/>
	<path fill="#353535" d="M632.9,113.2c0-3.4,1.8-5,3.7-5c2.1,0,3.4,1.7,3.4,4.9v0.4h-5.6c0.1,2.2,0.9,3.4,2.3,3.4
		c1.1,0,1.7-0.6,2.2-1.7l1,0.6c-0.7,1.4-1.8,2.3-3.3,2.3C634.5,118.2,632.9,116.5,632.9,113.2z M638.6,112.4c-0.1-1.7-0.7-2.9-2-2.9
		c-1.1,0-2,0.9-2.2,2.9H638.6z"/>
	<path fill="#353535" d="M641.4,113.2c0-3.4,1.7-5,3.7-5c1.9,0,2.7,1.3,3.2,2.8l-1.3,0.4c-0.3-1.2-0.8-1.9-1.9-1.9
		c-1.2,0-2.2,1.1-2.2,3.7c0,2.3,0.8,3.7,2.2,3.7c1,0,1.6-0.6,2-2l1.3,0.3c-0.5,1.8-1.6,2.8-3.3,2.8
		C643,118.2,641.4,116.5,641.4,113.2z"/>
	<path fill="#353535" d="M650.1,104.7h1.5v5.1c0.6-0.7,1.8-1.5,3-1.5c1.5,0,2.3,0.9,2.3,2.6v7.1h-1.4v-6.8c0-1.1-0.4-1.7-1.3-1.7
		c-0.9,0-1.9,0.7-2.6,1.4v7.1h-1.5V104.7z"/>
	<path fill="#353535" d="M659.1,108.5h1.5v1.3c0.6-0.7,1.8-1.5,3-1.5c1.5,0,2.3,0.9,2.3,2.6v7.1h-1.4v-6.8c0-1.1-0.4-1.7-1.3-1.7
		c-0.9,0-1.9,0.7-2.6,1.4v7.1h-1.5V108.5z"/>
	<path fill="#353535" d="M667.7,113.2c0-3.3,1.6-5,3.8-5c2.1,0,3.7,1.7,3.7,5c0,3.3-1.6,5-3.7,5
		C669.3,118.2,667.7,116.5,667.7,113.2z M673.7,113.2c0-2.1-0.7-3.7-2.3-3.7c-1.5,0-2.3,1.5-2.3,3.7c0,2.1,0.7,3.7,2.3,3.7
		C672.9,117,673.7,115.5,673.7,113.2z"/>
	<path fill="#353535" d="M677.1,104.7h1.5V118h-1.5V104.7z"/>
	<path fill="#353535" d="M680.5,113.2c0-3.3,1.6-5,3.8-5c2.1,0,3.7,1.7,3.7,5c0,3.3-1.6,5-3.7,5
		C682.2,118.2,680.5,116.5,680.5,113.2z M686.6,113.2c0-2.1-0.7-3.7-2.3-3.7c-1.5,0-2.3,1.5-2.3,3.7c0,2.1,0.7,3.7,2.3,3.7
		C685.8,117,686.6,115.5,686.6,113.2z"/>
	<path fill="#353535" d="M697.2,108.3v1.4c-0.4,0-0.9,0.1-1.4,0.3c0.3,0.5,0.4,1.1,0.4,1.7c0,2.1-1.4,3.4-3.3,3.4
		c-0.5,0-0.9-0.1-1.3-0.2c-0.3,0.2-0.5,0.4-0.5,0.7c0,0.4,0.2,0.5,1.1,0.6l1.5,0.2c2.3,0.3,3.3,1,3.3,2.4c0,1.7-1.8,2.7-4.1,2.7
		c-2.7,0-3.7-0.9-3.7-2.3c0-1,0.6-1.7,1.5-2.1c-0.5-0.3-0.8-0.6-0.8-1.2c0-0.6,0.4-1.1,1-1.5c-0.8-0.6-1.3-1.6-1.3-2.8
		c0-2.1,1.4-3.4,3.3-3.4c1,0,1.8,0.3,2.4,1C695.8,108.8,696.5,108.5,697.2,108.3z M690.4,119.1c0,1,0.6,1.5,2.6,1.5
		c1.5,0,2.6-0.5,2.6-1.5c0-0.8-0.5-1.2-2.1-1.4l-1.5-0.2c-0.1,0-0.2,0-0.3,0C690.8,117.8,690.4,118.4,690.4,119.1z M694.8,111.7
		c0-1.4-0.7-2.3-1.9-2.3c-1.2,0-1.9,0.9-1.9,2.3c0,1.4,0.7,2.3,1.9,2.3C694.1,114,694.8,113.1,694.8,111.7z"/>
	<path fill="#353535" d="M697.7,121.4l0.3-1.2c0.2,0.1,0.7,0.1,1.2,0.1c0.8,0,1.2-0.5,1.5-1.5l0.3-0.8l-3-9.6h1.5l1.4,5
		c0.3,1,0.5,1.9,0.8,2.9h0c0.3-1,0.5-1.9,0.8-3l1.4-4.9h1.4L702,119c-0.6,1.7-1.2,2.6-2.8,2.6C698.6,121.6,698,121.5,697.7,121.4z"
		/>
	<path fill="#353535" d="M707.1,116.1h1.7v1.9h-1.7V116.1z"/>
	<path fill="#353535" d="M717.6,106h-3.4v-1.4h8.4v1.4h-3.4V118h-1.5V106z"/>
	<path fill="#353535" d="M723.7,113.2c0-3.3,1.6-5,3.8-5c2.1,0,3.7,1.7,3.7,5c0,3.3-1.6,5-3.7,5
		C725.4,118.2,723.7,116.5,723.7,113.2z M729.8,113.2c0-2.1-0.7-3.7-2.3-3.7c-1.5,0-2.3,1.5-2.3,3.7c0,2.1,0.7,3.7,2.3,3.7
		C729,117,729.8,115.5,729.8,113.2z"/>
	<path fill="#353535" d="M732.6,113.2c0-3.4,1.4-5,3.3-5c1.1,0,1.9,0.5,2.6,1.3v-5h1.4v11c0,1.2,0.1,1.9,0.2,2.3h-1.5
		c-0.1-0.3-0.2-0.9-0.2-1.2c-0.6,0.7-1.4,1.4-2.6,1.4C734,118.1,732.6,116.7,732.6,113.2z M738.5,115.6v-4.8
		c-0.7-0.8-1.4-1.3-2.3-1.3c-1.3,0-2.1,1.1-2.1,3.7c0,2.5,0.9,3.7,2.2,3.7C737.1,116.9,737.9,116.3,738.5,115.6z"/>
	<path fill="#353535" d="M741.7,115.7c0-1.9,1.6-3.3,5.3-4v-0.6c0-1.1-0.5-1.6-1.4-1.6c-1.2,0-2.1,0.6-2.8,1.3L742,110
		c1-1,2.3-1.7,3.8-1.7c1.9,0,2.7,1,2.7,2.9v4.5c0,1.2,0.1,1.9,0.2,2.3h-1.5c-0.1-0.4-0.2-0.7-0.2-1.2c-0.8,0.8-1.8,1.4-3,1.4
		C742.6,118.1,741.7,117.2,741.7,115.7z M747,115.7v-2.9c-2.9,0.6-3.9,1.6-3.9,2.8c0,1,0.5,1.4,1.3,1.4
		C745.5,116.9,746.4,116.4,747,115.7z"/>
	<path fill="#353535" d="M749.6,121.4l0.3-1.2c0.2,0.1,0.7,0.1,1.2,0.1c0.8,0,1.2-0.5,1.5-1.5l0.3-0.8l-3-9.6h1.5l1.4,5
		c0.3,1,0.5,1.9,0.8,2.9h0c0.3-1,0.5-1.9,0.8-3l1.4-4.9h1.4l-3.3,10.6c-0.6,1.7-1.2,2.6-2.8,2.6
		C750.5,121.6,749.9,121.5,749.6,121.4z"/>
	<path fill="#353535" d="M759.7,118H759v-1.9h1.7v1.7l-0.8,2h-0.7L759.7,118z"/>
	<path fill="#353535" d="M766.8,105h1.5v1.6h-1.5V105z M766.8,108.5h1.5v9.5h-1.5V108.5z"/>
	<path fill="#353535" d="M771.3,115.8v-6.2h-1.4v-1.2h1.4v-3.4h1.4v3.4h2.1v1.2h-2.1v5.8c0,1,0.3,1.4,1.3,1.4c0.3,0,0.6-0.1,0.8-0.1
		v1.2c-0.2,0.1-0.7,0.1-1.1,0.1C771.9,118.1,771.3,117.5,771.3,115.8z"/>
	<path fill="#353535" d="M776.6,105.6v-1h1.4v1l-0.3,3.6h-0.9L776.6,105.6z"/>
	<path fill="#353535" d="M779.5,116.2l1-0.7c0.6,1,1.6,1.5,2.6,1.5c1.2,0,1.9-0.5,1.9-1.4c0-2.3-5-1.4-5-4.8c0-1.5,1.2-2.6,3-2.6
		c1.4,0,2.4,0.7,3.1,1.7l-1,0.8c-0.5-0.7-1.2-1.3-2.2-1.3c-1.1,0-1.6,0.5-1.6,1.3c0,2.4,4.9,1.3,4.9,4.8c0,1.7-1.5,2.7-3.3,2.7
		C781.4,118.2,780.3,117.4,779.5,116.2z"/>
	<path fill="#353535" d="M512.3,145.7c0-1.9,1.6-3.3,5.3-4v-0.6c0-1.1-0.5-1.6-1.4-1.6c-1.2,0-2.1,0.6-2.8,1.3l-0.8-0.9
		c1-1,2.3-1.7,3.8-1.7c1.9,0,2.7,1,2.7,2.9v4.5c0,1.2,0.1,1.9,0.2,2.3h-1.5c-0.1-0.4-0.2-0.7-0.2-1.2c-0.8,0.8-1.8,1.4-3,1.4
		C513.2,148.1,512.3,147.2,512.3,145.7z M517.6,145.7v-2.9c-2.9,0.6-3.9,1.6-3.9,2.8c0,1,0.5,1.4,1.3,1.4
		C516.1,146.9,517,146.4,517.6,145.7z"/>
	<path fill="#353535" d="M524.1,146.2l1-0.7c0.6,1,1.6,1.5,2.6,1.5c1.2,0,1.9-0.5,1.9-1.4c0-2.3-5-1.4-5-4.8c0-1.5,1.2-2.6,3-2.6
		c1.4,0,2.4,0.7,3.1,1.7l-1,0.8c-0.5-0.7-1.2-1.3-2.2-1.3c-1.1,0-1.6,0.5-1.6,1.3c0,2.4,4.9,1.3,4.9,4.8c0,1.7-1.5,2.7-3.3,2.7
		C526,148.2,524.8,147.4,524.1,146.2z"/>
	<path fill="#353535" d="M533.3,145.8v-6.2h-1.4v-1.2h1.4v-3.4h1.4v3.4h2.1v1.2h-2.1v5.8c0,1,0.3,1.4,1.3,1.4c0.3,0,0.6-0.1,0.8-0.1
		v1.2c-0.2,0.1-0.7,0.1-1.1,0.1C533.9,148.1,533.3,147.5,533.3,145.8z"/>
	<path fill="#353535" d="M538.1,145.7c0-1.9,1.6-3.3,5.3-4v-0.6c0-1.1-0.5-1.6-1.4-1.6c-1.2,0-2.1,0.6-2.8,1.3l-0.8-0.9
		c1-1,2.3-1.7,3.8-1.7c1.9,0,2.7,1,2.7,2.9v4.5c0,1.2,0.1,1.9,0.2,2.3h-1.5c-0.1-0.4-0.2-0.7-0.2-1.2c-0.8,0.8-1.8,1.4-3,1.4
		C538.9,148.1,538.1,147.2,538.1,145.7z M543.4,145.7v-2.9c-2.9,0.6-3.9,1.6-3.9,2.8c0,1,0.5,1.4,1.3,1.4
		C541.8,146.9,542.7,146.4,543.4,145.7z"/>
	<path fill="#353535" d="M547,138.5h1.5v1.3c0.6-0.7,1.8-1.5,3-1.5c1.5,0,2.3,0.9,2.3,2.6v7.1h-1.4v-6.8c0-1.1-0.4-1.7-1.3-1.7
		c-0.9,0-1.9,0.7-2.6,1.4v7.1H547V138.5z"/>
	<path fill="#353535" d="M555.6,143.2c0-3.4,1.4-5,3.3-5c1.1,0,1.9,0.5,2.6,1.3v-5h1.4v11c0,1.2,0.1,1.9,0.2,2.3h-1.5
		c-0.1-0.3-0.2-0.9-0.2-1.2c-0.6,0.7-1.4,1.4-2.6,1.4C557,148.1,555.6,146.7,555.6,143.2z M561.5,145.6v-4.8
		c-0.7-0.8-1.4-1.3-2.3-1.3c-1.3,0-2.1,1.1-2.1,3.7c0,2.5,0.9,3.7,2.2,3.7C560.1,146.9,560.9,146.3,561.5,145.6z"/>
	<path fill="#353535" d="M564.7,145.7c0-1.9,1.6-3.3,5.3-4v-0.6c0-1.1-0.5-1.6-1.4-1.6c-1.2,0-2.1,0.6-2.8,1.3L565,140
		c1-1,2.3-1.7,3.8-1.7c1.9,0,2.7,1,2.7,2.9v4.5c0,1.2,0.1,1.9,0.2,2.3h-1.5c-0.1-0.4-0.2-0.7-0.2-1.2c-0.8,0.8-1.8,1.4-3,1.4
		C565.6,148.1,564.7,147.2,564.7,145.7z M570,145.7v-2.9c-2.9,0.6-3.9,1.6-3.9,2.8c0,1,0.5,1.4,1.3,1.4
		C568.5,146.9,569.4,146.4,570,145.7z"/>
	<path fill="#353535" d="M573.8,134.7h1.5V148h-1.5V134.7z"/>
	<path fill="#353535" d="M577.2,143.2c0-3.3,1.6-5,3.8-5c2.1,0,3.7,1.7,3.7,5c0,3.3-1.6,5-3.7,5
		C578.9,148.2,577.2,146.5,577.2,143.2z M583.3,143.2c0-2.1-0.7-3.7-2.3-3.7c-1.5,0-2.3,1.5-2.3,3.7c0,2.1,0.7,3.7,2.3,3.7
		C582.5,147,583.3,145.5,583.3,143.2z"/>
	<path fill="#353535" d="M586.6,138.5h1.5v1.3c0.6-0.7,1.8-1.5,3-1.5c1.5,0,2.3,0.9,2.3,2.6v7.1h-1.4v-6.8c0-1.1-0.4-1.7-1.3-1.7
		c-0.9,0-1.9,0.7-2.6,1.4v7.1h-1.5V138.5z"/>
	<path fill="#353535" d="M595.2,143.2c0-3.4,1.8-5,3.7-5c2.1,0,3.4,1.7,3.4,4.9v0.4h-5.6c0.1,2.2,0.9,3.4,2.3,3.4
		c1.1,0,1.7-0.6,2.2-1.7l1,0.6c-0.7,1.4-1.8,2.3-3.3,2.3C596.7,148.2,595.2,146.5,595.2,143.2z M600.8,142.4c-0.1-1.7-0.7-2.9-2-2.9
		c-1.1,0-2,0.9-2.2,2.9H600.8z"/>
	<path fill="#353535" d="M608.2,145.8v-6.2h-1.4v-1.2h1.4v-3.4h1.4v3.4h2.1v1.2h-2.1v5.8c0,1,0.3,1.4,1.3,1.4c0.3,0,0.6-0.1,0.8-0.1
		v1.2c-0.2,0.1-0.7,0.1-1.1,0.1C608.9,148.1,608.2,147.5,608.2,145.8z"/>
	<path fill="#353535" d="M613,143.2c0-3.3,1.6-5,3.8-5c2.1,0,3.7,1.7,3.7,5c0,3.3-1.6,5-3.7,5C614.7,148.2,613,146.5,613,143.2z
		 M619.1,143.2c0-2.1-0.7-3.7-2.3-3.7c-1.5,0-2.3,1.5-2.3,3.7c0,2.1,0.7,3.7,2.3,3.7C618.3,147,619.1,145.5,619.1,143.2z"/>
	<path fill="#353535" d="M622,143.2c0-3.3,1.6-5,3.8-5c2.1,0,3.7,1.7,3.7,5c0,3.3-1.6,5-3.7,5C623.6,148.2,622,146.5,622,143.2z
		 M628,143.2c0-2.1-0.7-3.7-2.3-3.7c-1.5,0-2.3,1.5-2.3,3.7c0,2.1,0.7,3.7,2.3,3.7C627.2,147,628,145.5,628,143.2z"/>
	<path fill="#353535" d="M631.4,134.7h1.5V148h-1.5V134.7z"/>
	<path fill="#353535" d="M639.5,139.7h-1.4v-1.2h1.4V137c0-1.6,0.8-2.4,2.6-2.4c0.2,0,0.7,0,0.7,0v1.2c0,0-0.5,0-0.5,0
		c-0.8,0-1.3,0.3-1.3,1.2v1.4h1.8v1.2h-1.8v8.3h-1.4V139.7z"/>
	<path fill="#353535" d="M643.8,143.2c0-3.3,1.6-5,3.8-5c2.1,0,3.7,1.7,3.7,5c0,3.3-1.6,5-3.7,5
		C645.4,148.2,643.8,146.5,643.8,143.2z M649.8,143.2c0-2.1-0.7-3.7-2.3-3.7c-1.5,0-2.3,1.5-2.3,3.7c0,2.1,0.7,3.7,2.3,3.7
		C649,147,649.8,145.5,649.8,143.2z"/>
	<path fill="#353535" d="M653.1,138.5h1.5v1.6h0c0.5-1,1.5-1.8,3-1.8h0.2l-0.1,1.4c0,0-0.3,0-0.3,0c-1.2,0-2.3,0.8-2.8,1.9v6.4h-1.5
		V138.5z"/>
	<path fill="#353535" d="M662.9,138.5h1.5v1.6h0c0.5-1,1.5-1.8,3-1.8h0.2l-0.1,1.4c0,0-0.3,0-0.3,0c-1.2,0-2.3,0.8-2.8,1.9v6.4h-1.5
		V138.5z"/>
	<path fill="#353535" d="M668.7,143.2c0-3.4,1.8-5,3.7-5c2.1,0,3.4,1.7,3.4,4.9v0.4h-5.6c0.1,2.2,0.9,3.4,2.3,3.4
		c1.1,0,1.7-0.6,2.2-1.7l1,0.6c-0.7,1.4-1.8,2.3-3.3,2.3C670.2,148.2,668.7,146.5,668.7,143.2z M674.3,142.4c-0.1-1.7-0.7-2.9-2-2.9
		c-1.1,0-2,0.9-2.2,2.9H674.3z"/>
	<path fill="#353535" d="M677.1,143.2c0-3.4,1.7-5,3.7-5c1.9,0,2.7,1.3,3.2,2.8l-1.3,0.4c-0.3-1.2-0.8-1.9-1.9-1.9
		c-1.2,0-2.2,1.1-2.2,3.7c0,2.3,0.8,3.7,2.2,3.7c1,0,1.6-0.6,2-2l1.3,0.3c-0.5,1.8-1.6,2.8-3.3,2.8
		C678.7,148.2,677.1,146.5,677.1,143.2z"/>
	<path fill="#353535" d="M685.8,138.5h1.5v1.6h0c0.5-1,1.5-1.8,3-1.8h0.2l-0.1,1.4c0,0-0.3,0-0.3,0c-1.2,0-2.3,0.8-2.8,1.9v6.4h-1.5
		V138.5z"/>
	<path fill="#353535" d="M691.9,145.5v-7.1h1.4v6.8c0,1.1,0.4,1.7,1.4,1.7c0.9,0,1.7-0.6,2.5-1.4v-7.1h1.5v9.5h-1.5v-1.3
		c-0.7,0.8-1.7,1.5-3,1.5C692.7,148.2,691.9,147.3,691.9,145.5z"/>
	<path fill="#353535" d="M701.1,135h1.5v1.6h-1.5V135z M701.1,138.5h1.5v9.5h-1.5V138.5z"/>
	<path fill="#353535" d="M705.6,145.8v-6.2h-1.4v-1.2h1.4v-3.4h1.4v3.4h2.1v1.2H707v5.8c0,1,0.3,1.4,1.3,1.4c0.3,0,0.6-0.1,0.8-0.1
		v1.2c-0.2,0.1-0.7,0.1-1.1,0.1C706.2,148.1,705.6,147.5,705.6,145.8z"/>
	<path fill="#353535" d="M710.4,143.2c0-3.4,1.8-5,3.7-5c2.1,0,3.4,1.7,3.4,4.9v0.4h-5.6c0.1,2.2,0.9,3.4,2.3,3.4
		c1.1,0,1.7-0.6,2.2-1.7l1,0.6c-0.7,1.4-1.8,2.3-3.3,2.3C712,148.2,710.4,146.5,710.4,143.2z M716.1,142.4c-0.1-1.7-0.7-2.9-2-2.9
		c-1.1,0-2,0.9-2.2,2.9H716.1z"/>
	<path fill="#353535" d="M719.3,138.5h1.5v1.6h0c0.5-1,1.5-1.8,3-1.8h0.2l-0.1,1.4c0,0-0.3,0-0.3,0c-1.2,0-2.3,0.8-2.8,1.9v6.4h-1.5
		V138.5z"/>
	<path fill="#353535" d="M724.7,146.2l1-0.7c0.6,1,1.6,1.5,2.6,1.5c1.2,0,1.9-0.5,1.9-1.4c0-2.3-5-1.4-5-4.8c0-1.5,1.2-2.6,3-2.6
		c1.4,0,2.4,0.7,3.1,1.7l-1,0.8c-0.5-0.7-1.2-1.3-2.2-1.3c-1.1,0-1.6,0.5-1.6,1.3c0,2.4,4.9,1.3,4.9,4.8c0,1.7-1.5,2.7-3.3,2.7
		C726.6,148.2,725.5,147.4,724.7,146.2z"/>
	<path fill="#353535" d="M733.5,146.1h1.7v1.9h-1.7V146.1z"/>
</g>
<g>
	<circle fill="#353535" cx="761.7" cy="499.7" r="34.4"/>
</g>
<g>
	<path fill="#AAABAC" d="M758.4,478.8v42.3c0,0.4-0.3,0.7-0.7,0.7h-3.4c-0.4,0-0.7-0.3-0.7-0.7v-35.2h-4.4c-0.4,0-0.7-0.3-0.7-0.7
		v-1.8c0-0.4,0.3-0.7,0.7-0.7c5.4-2,4-4.5,6.3-4.5c0.5,0,2.3,0,2.3,0C758,478.1,758.4,478.4,758.4,478.8z"/>
	<path fill="#AAABAC" d="M773.1,478.8v42.3c0,0.4-0.3,0.7-0.7,0.7h-3.4c-0.4,0-0.7-0.3-0.7-0.7v-35.2h-4.4c-0.4,0-0.7-0.3-0.7-0.7
		v-1.8c0-0.4,0.3-0.7,0.7-0.7c5.4-2,4-4.5,6.3-4.5c0.5,0,2.3,0,2.3,0C772.8,478.1,773.1,478.4,773.1,478.8z"/>
</g>
<g>
	<path fill="#FFFFFF" d="M748.1,498.4c0,2.8-1.7,4.5-4.3,4.5h-1.1v6.4c0,0.1-0.1,0.3-0.3,0.3h-1.2c-0.1,0-0.3-0.1-0.3-0.3v-15.2
		c0-0.1,0.1-0.3,0.3-0.3h2.7C746.4,493.8,748.1,495.3,748.1,498.4z M746.3,498.3c0-1.2-0.4-2.8-2.4-2.8h-1.2v5.5h1.2
		C746,501.1,746.3,499.8,746.3,498.3z"/>
	<path fill="#FFFFFF" d="M756.3,509.3c0,0.1-0.1,0.3-0.3,0.3h-1.3c-0.1,0-0.2-0.1-0.3-0.3l-0.5-3h-3.6l-0.5,3c0,0.2-0.1,0.3-0.3,0.3
		h-1.3c-0.1,0-0.3-0.1-0.3-0.3l2.9-15.2c0-0.1,0.1-0.3,0.3-0.3h2c0.1,0,0.2,0.1,0.3,0.3L756.3,509.3z M753.6,504.5l-1.5-8.8
		l-1.5,8.8H753.6z"/>
	<path fill="#FFFFFF" d="M765.3,502.3v7.1c0,0.1-0.1,0.2-0.2,0.2h-0.5c-0.1,0-0.2-0.1-0.2-0.1l-0.1-0.7c-0.7,0.7-1.6,1.1-2.8,1.1
		c-2.2,0-3.7-1.5-3.7-3.8v-8.7c0-2.3,1.2-3.8,3.6-3.8c2.4,0,3.6,1.5,3.6,3.8v1.5c0,0.1-0.1,0.3-0.3,0.3h-1.3c-0.1,0-0.3-0.1-0.3-0.3
		v-1.4c0-1.5-0.7-2.1-1.8-2.1c-1,0-1.8,0.6-1.8,2.1v8.7c0,1.5,0.9,2.1,1.9,2.1c1,0,1.9-0.6,1.9-2.1v-2.3h-1c-0.1,0-0.3-0.1-0.3-0.2
		v-1.2c0-0.1,0.1-0.3,0.3-0.3h2.6C765.2,502,765.3,502.1,765.3,502.3z"/>
	<path fill="#FFFFFF" d="M769.3,495.6v4.8h3.1c0.1,0,0.3,0.1,0.3,0.3v1.2c0,0.1-0.1,0.3-0.3,0.3h-3.1v5.7h4.5c0.1,0,0.3,0.1,0.3,0.3
		v1.2c0,0.1-0.1,0.3-0.3,0.3h-6.1c-0.1,0-0.3-0.1-0.3-0.3v-15.2c0-0.1,0.1-0.3,0.3-0.3h6.1c0.1,0,0.3,0.1,0.3,0.3v1.2
		c0,0.1-0.1,0.3-0.3,0.3H769.3z"/>
	<path fill="#FFFFFF" d="M782.8,504.7c0,0.4,0,1.5,0,1.5c0,2.2-1.6,3.6-3.6,3.6c-2.2,0-3.7-1.6-3.7-3.9v-1.4c0-0.1,0.1-0.2,0.2-0.2
		h1.3c0.1,0,0.2,0.1,0.2,0.2v1.8c0,1.4,0.9,2,1.9,1.9c1.3,0,1.8-0.9,1.8-1.9V505c0-0.9-0.3-1.4-1.5-2.5l-1.9-1.8
		c-1-0.9-1.8-2.4-1.8-3.5c0-2.3,1.3-3.7,3.5-3.7c2.2,0,3.6,1.5,3.6,3.8v1.3c0,0.1-0.1,0.2-0.2,0.2h-1.3c-0.1,0-0.2-0.1-0.2-0.2v-1.5
		c0-1.5-0.7-2-1.8-2c-1,0-1.7,0.7-1.7,2c0,0.3,0.1,1.1,1.4,2.3c0.4,0.4,2.4,2.2,2.4,2.2C782.7,503,782.8,504.2,782.8,504.7z"/>
</g>
</svg>
