<?xml version="1.0" encoding="utf-8"?>
<!-- Generator: Adobe Illustrator 17.1.0, SVG Export Plug-In . SVG Version: 6.00 Build 0)  -->
<!DOCTYPE svg PUBLIC "-//W3C//DTD SVG 1.1//EN" "http://www.w3.org/Graphics/SVG/1.1/DTD/svg11.dtd">
<svg version="1.1" id="Layer_1" xmlns="http://www.w3.org/2000/svg" xmlns:xlink="http://www.w3.org/1999/xlink" x="0px" y="0px"
	 viewBox="0 0 807.6 740.9" enable-background="new 0 0 807.6 740.9" xml:space="preserve">
<g>
	<path fill="#353535" d="M65,537.4v9.2c0,1.1-0.9,2-2,2H14.2c-1.1,0-2-0.9-2-2c0,0,0-10.3,0-11.5c0-7.9,4-20.9,10.6-28.8
		c3.8-4.7,16-19.3,19.4-23.2c7.7-9.4,9.7-13,9.7-21.4c0-8.8-2.2-19.1-13-19.1c-5.9,0-13.1,2.3-13.1,19.1v6.7c0,1.1-0.9,2-2,2h-9.4
		c-1.1,0-2-0.9-2-2v-7.6c0-18.4,8.8-30.8,26.8-30.8c16.6,0,25.7,12.1,25.9,30.2v3.1c0,14.2-6.7,20.9-13.1,29
		c-13.1,15.7-25.9,29-25.9,40.5v2.9H63C64.1,535.6,65,536.5,65,537.4z"/>
	<path fill="#353535" d="M78.6,537.2c0-0.9,0.7-1.8,1.8-1.8h10.1c0.9,0,1.8,0.9,1.8,1.8v9.5c0,1.1-0.9,1.8-1.8,1.8H80.4
		c-1.1,0-1.8-0.7-1.8-1.8V537.2z"/>
	<path fill="#353535" d="M160.5,458v10.8v53.3c0,16.9-10.1,28.4-26.5,28.4s-27-11.5-27-28.4v-11c0-0.9,0.9-1.8,1.8-1.8h9.9
		c1.1,0,1.8,0.9,1.8,1.8v12.1c0,10.8,6.8,14.2,13.1,14.2c5.2,0,13-2.9,13-14.2v-34.6c-3.8,5.8-9.7,6.7-13.1,6.7
		c-16.4,0-26.5-11.5-26.5-28.6V458c0-17.1,10.1-28.3,26.6-28.3C149.7,429.7,160.5,440.9,160.5,458z M146.7,457.8
		c0-10.8-5.2-15.1-12.8-15.1c-7.9,0-12.8,4.3-12.8,15.1v9.2c0,11.2,5.4,15.3,12.8,15.3c7.6,0,12.8-4.3,12.8-15.3V457.8z"/>
	<path fill="#353535" d="M227.7,537.4v9.2c0,1.1-0.9,2-2,2h-48.8c-1.1,0-2-0.9-2-2c0,0,0-10.3,0-11.5c0-7.9,4-20.9,10.6-28.8
		c3.8-4.7,16-19.3,19.4-23.2c7.7-9.4,9.7-13,9.7-21.4c0-8.8-2.2-19.1-13-19.1c-5.9,0-13.1,2.3-13.1,19.1v6.7c0,1.1-0.9,2-2,2h-9.4
		c-1.1,0-2-0.9-2-2v-7.6c0-18.4,8.8-30.8,26.8-30.8c16.6,0,25.7,12.1,25.9,30.2v3.1c0,14.2-6.7,20.9-13.1,29
		c-13.1,15.7-25.9,29-25.9,40.5v2.9h36.7C226.8,535.6,227.7,536.5,227.7,537.4z"/>
	<path fill="#353535" d="M307,491.1v6.8c0,1.1-0.7,1.8-1.8,1.8h-12.1v12.4c0,0.9-0.9,1.8-1.8,1.8h-7.2c-1.1,0-1.8-0.9-1.8-1.8v-12.4
		h-12.2c-0.9,0-1.8-0.7-1.8-1.8v-6.8c0-0.9,0.9-1.8,1.8-1.8h12.2v-12.2c0-1.1,0.7-1.8,1.8-1.8h7.2c0.9,0,1.8,0.7,1.8,1.8v12.2h12.1
		C306.3,489.3,307,490.2,307,491.1z"/>
	<path fill="#353535" d="M371.5,433.9v112.7c0,1.1-0.9,2-2,2h-9.2c-1.1,0-1.8-0.9-1.8-2v-93.8h-11.7c-1.1,0-2-0.9-2-2v-4.9
		c0-1.1,0.9-2,1.8-2c14.4-5.2,10.6-12.1,16.7-12.1c1.4,0,6.1,0,6.1,0C370.6,431.9,371.5,432.8,371.5,433.9z"/>
</g>
<circle fill="none" stroke="#FFFFFF" stroke-width="2" stroke-miterlimit="10" cx="262.7" cy="555.7" r="56.1"/>
<g>
	<g>
		<path fill="#FFFFFF" d="M247.1,537.5h-3.4v-1.4h8.4v1.4h-3.4v11.9h-1.5V537.5z"/>
		<path fill="#FFFFFF" d="M253.2,544.7c0-3.4,1.8-5,3.7-5c2.1,0,3.4,1.7,3.4,4.9v0.4h-5.6c0.1,2.2,0.9,3.4,2.3,3.4
			c1.1,0,1.7-0.6,2.3-1.7l1,0.6c-0.7,1.4-1.8,2.3-3.3,2.3C254.8,549.7,253.2,548,253.2,544.7z M258.9,543.9c-0.1-1.7-0.7-2.9-2-2.9
			c-1.1,0-2,0.9-2.2,2.9H258.9z"/>
		<path fill="#FFFFFF" d="M261.6,547.2c0-1.9,1.6-3.3,5.3-4v-0.6c0-1.1-0.5-1.6-1.4-1.6c-1.2,0-2.1,0.6-2.8,1.3l-0.8-0.9
			c1-1,2.3-1.7,3.8-1.7c1.9,0,2.7,1,2.7,2.9v4.5c0,1.2,0.1,1.9,0.2,2.3h-1.5c-0.1-0.4-0.2-0.7-0.2-1.2c-0.8,0.8-1.8,1.4-3,1.4
			C262.5,549.6,261.6,548.7,261.6,547.2z M267,547.2v-2.9c-2.9,0.6-3.9,1.6-3.9,2.8c0,1,0.5,1.4,1.3,1.4
			C265.4,548.4,266.3,547.9,267,547.2z"/>
		<path fill="#FFFFFF" d="M270.6,540h1.5v1.3c0.7-0.7,1.7-1.5,2.9-1.5c1.3,0,1.9,0.5,2.2,1.5c0.7-0.8,1.7-1.5,3-1.5
			c1.5,0,2.3,0.9,2.3,2.6v7.1H281v-6.8c0-1.1-0.4-1.7-1.3-1.7c-0.9,0-1.7,0.6-2.4,1.3v7.1h-1.5v-6.8c0-1.1-0.3-1.7-1.3-1.7
			c-0.8,0-1.6,0.6-2.4,1.4v7.1h-1.5V540z"/>
		<path fill="#FFFFFF" d="M231,560.1h1.9l3.4,11.2h0l3.3-11.2h1.9v13.3h-1.5v-10.9h0c-0.2,0.8-0.6,2.3-0.9,3.4l-2.3,7.5h-1.2
			l-2.3-7.6c-0.3-1-0.7-2.5-0.9-3.4h0v10.9H231V560.1z"/>
		<path fill="#FFFFFF" d="M243.6,568.7c0-3.4,1.8-5,3.7-5c2.1,0,3.4,1.7,3.4,4.9v0.4H245c0.1,2.2,0.9,3.4,2.3,3.4
			c1.1,0,1.7-0.6,2.3-1.7l1,0.6c-0.7,1.4-1.8,2.3-3.3,2.3C245.2,573.7,243.6,572,243.6,568.7z M249.3,567.9c-0.1-1.7-0.7-2.9-2-2.9
			c-1.1,0-2,0.9-2.2,2.9H249.3z"/>
		<path fill="#FFFFFF" d="M252.5,564h1.5v1.3c0.7-0.7,1.7-1.5,2.9-1.5c1.3,0,1.9,0.5,2.2,1.5c0.7-0.8,1.7-1.5,3-1.5
			c1.5,0,2.3,0.9,2.3,2.6v7.1h-1.4v-6.8c0-1.1-0.4-1.7-1.3-1.7c-0.9,0-1.7,0.6-2.4,1.3v7.1h-1.5v-6.8c0-1.1-0.3-1.7-1.3-1.7
			c-0.8,0-1.6,0.6-2.4,1.4v7.1h-1.5V564z"/>
		<path fill="#FFFFFF" d="M268,572.3v1.1h-1.5v-13.3h1.5v5c0.6-0.7,1.4-1.4,2.6-1.4c1.9,0,3.2,1.5,3.2,4.9c0,3.4-1.5,4.9-3.3,4.9
			C269.4,573.6,268.6,573.1,268,572.3z M272.4,568.7c0-2.5-0.9-3.7-2.1-3.7c-0.9,0-1.6,0.6-2.2,1.3v4.8c0.7,0.8,1.4,1.3,2.3,1.3
			C271.5,572.4,272.4,571.3,272.4,568.7z"/>
		<path fill="#FFFFFF" d="M275.2,568.7c0-3.4,1.8-5,3.7-5c2.1,0,3.4,1.7,3.4,4.9v0.4h-5.6c0.1,2.2,0.9,3.4,2.3,3.4
			c1.1,0,1.7-0.6,2.3-1.7l1,0.6c-0.7,1.4-1.8,2.3-3.3,2.3C276.8,573.7,275.2,572,275.2,568.7z M280.9,567.9c-0.1-1.7-0.7-2.9-2-2.9
			c-1.1,0-2,0.9-2.2,2.9H280.9z"/>
		<path fill="#FFFFFF" d="M284.1,564h1.5v1.6h0c0.5-1,1.5-1.8,3-1.8h0.2l-0.1,1.4c0,0-0.3,0-0.3,0c-1.2,0-2.3,0.8-2.8,1.9v6.4h-1.5
			V564z"/>
		<path fill="#FFFFFF" d="M289.5,571.7l1-0.7c0.6,1,1.6,1.5,2.6,1.5c1.2,0,1.9-0.5,1.9-1.4c0-2.3-5-1.4-5-4.8c0-1.5,1.2-2.6,3-2.6
			c1.4,0,2.4,0.7,3.1,1.7l-1,0.8c-0.5-0.7-1.2-1.3-2.2-1.3c-1.1,0-1.6,0.5-1.6,1.3c0,2.4,4.9,1.3,4.9,4.8c0,1.7-1.5,2.7-3.3,2.7
			C291.5,573.7,290.3,572.9,289.5,571.7z"/>
	</g>
</g>
<circle fill="none" stroke="#FFFFFF" stroke-width="2" stroke-miterlimit="10" cx="435.9" cy="487.6" r="45.6"/>
<g>
	<g>
		<path fill="#FFFFFF" d="M419.9,469.5h1.5v7c0.2-0.4,0.8-1.3,1.4-2.1l3.5-4.9h1.6l-3.7,5.2l4.3,8.2h-1.6l-3.6-6.9l-1.8,2.5v4.4
			h-1.5V469.5z"/>
		<path fill="#FFFFFF" d="M430,478.4v-8.9h1.5v8.8c0,2.2,0.7,3.5,2.7,3.5c2,0,2.7-1.3,2.7-3.4v-8.8h1.5v8.9c0,2.7-1.2,4.6-4.1,4.6
			C431.2,483,430,481.2,430,478.4z"/>
		<path fill="#FFFFFF" d="M441,469.5h3.9c2.5,0,4,1.1,4,3.3c0,1.9-1,2.7-2.1,3v0c1.4,0.3,2.5,1.2,2.5,3.3c0,2.3-1.5,3.6-4.1,3.6H441
			V469.5z M444.8,475.3c1.7,0,2.6-0.6,2.6-2.3s-0.8-2.3-2.6-2.3h-2.3v4.5H444.8z M445.1,481.5c1.8,0,2.6-0.8,2.6-2.4
			c0-1.8-1.1-2.4-2.9-2.4h-2.4v4.9H445.1z"/>
		<path fill="#FFFFFF" d="M451.5,469.5h1.5v13.3h-1.5V469.5z"/>
		<path fill="#FFFFFF" d="M416.4,493.5h3.8c2.6,0,4.1,1.2,4.1,3.8c0,2.1-1.2,3.2-2.5,3.6l2.7,5.9h-1.5l-2.6-5.7h-2.4v5.7h-1.5V493.5
			z M420.1,499.8c1.8,0,2.7-0.7,2.7-2.6c0-1.8-0.9-2.4-2.7-2.4h-2.2v5H420.1z"/>
		<path fill="#FFFFFF" d="M426,502c0-3.3,1.6-5,3.8-5c2.1,0,3.7,1.7,3.7,5c0,3.3-1.6,5-3.7,5S426,505.3,426,502z M432,502
			c0-2.1-0.7-3.7-2.3-3.7c-1.5,0-2.3,1.5-2.3,3.7c0,2.1,0.7,3.7,2.3,3.7C431.2,505.8,432,504.3,432,502z"/>
		<path fill="#FFFFFF" d="M436.8,505.7v1.1h-1.5v-13.3h1.5v5c0.6-0.7,1.4-1.4,2.6-1.4c1.9,0,3.2,1.5,3.2,4.9c0,3.4-1.5,4.9-3.3,4.9
			C438.2,506.9,437.4,506.5,436.8,505.7z M441.2,502c0-2.5-0.9-3.7-2.1-3.7c-0.9,0-1.6,0.6-2.2,1.3v4.8c0.7,0.8,1.4,1.3,2.3,1.3
			C440.3,505.7,441.2,504.7,441.2,502z"/>
		<path fill="#FFFFFF" d="M444,502c0-3.3,1.6-5,3.8-5c2.1,0,3.7,1.7,3.7,5c0,3.3-1.6,5-3.7,5S444,505.3,444,502z M450.1,502
			c0-2.1-0.7-3.7-2.3-3.7c-1.5,0-2.3,1.5-2.3,3.7c0,2.1,0.7,3.7,2.3,3.7C449.3,505.8,450.1,504.3,450.1,502z"/>
		<path fill="#FFFFFF" d="M454,504.7v-6.2h-1.4v-1.2h1.4v-3.4h1.4v3.4h2.1v1.2h-2.1v5.8c0,1,0.3,1.4,1.3,1.4c0.3,0,0.6-0.1,0.8-0.1
			v1.2c-0.2,0.1-0.7,0.1-1.1,0.1C454.6,506.9,454,506.3,454,504.7z"/>
	</g>
</g>
<line fill="none" stroke="#353535" stroke-width="4" stroke-linecap="round" stroke-linejoin="round" stroke-miterlimit="10" x1="516.9" y1="41.4" x2="798" y2="41.4"/>
<g>
	<path fill="#353535" d="M523.7,26.6L523.7,26.6h-2.2v3.2h-2.8V18.5h5c3,0,4.7,1.4,4.7,3.9c0,1.7-0.7,2.9-2,3.6l2.4,3.7h-3.2
		L523.7,26.6z M523.6,24.3c1.2,0,2-0.6,2-1.8c0-1.2-0.7-1.8-2-1.8h-2.2v3.6H523.6z"/>
	<path fill="#353535" d="M534.7,20.8V23h5.3v2.2h-5.3v2.3h6.1v2.2h-8.9V18.5h8.8v2.2H534.7z M537,17.6h-2.1l1.7-2.7l2.5,0.9
		L537,17.6z"/>
	<path fill="#353535" d="M552.9,19.7l-1.1,2.2c-1.2-0.7-2.7-1.2-3.6-1.2c-0.7,0-1.2,0.3-1.2,0.8c0,1.9,5.9,0.8,5.9,4.9
		c0,2.2-2,3.4-4.5,3.4c-1.9,0-3.8-0.7-5.1-1.8l1.1-2.2c1.2,1,2.9,1.7,4.1,1.7c0.9,0,1.5-0.3,1.5-1c0-2-5.9-0.8-5.9-4.8
		c0-2.1,1.8-3.4,4.5-3.4C550.1,18.4,551.8,18.9,552.9,19.7z"/>
	<path fill="#353535" d="M566.2,25c0,3-2,4.8-5.1,4.8c-3.2,0-5.2-1.9-5.2-4.8v-6.5h2.8V25c0,1.5,1,2.4,2.3,2.4
		c1.3,0,2.3-0.9,2.3-2.4v-6.5h2.8V25z"/>
	<path fill="#353535" d="M579.6,29.7l0-7.3l-2.7,6.2h-1.9l-2.7-6.2v7.3h-2.5V18.5h3.1l3,6.7l3-6.7h3.1v11.2H579.6z"/>
	<path fill="#353535" d="M588.8,20.8V23h5.3v2.2h-5.3v2.3h6.1v2.2H586V18.5h8.8v2.2H588.8z M591.1,17.6H589l1.7-2.7l2.5,0.9
		L591.1,17.6z"/>
	<path fill="#353535" d="M603.7,18.5c2.5,0,4.1,1.1,4.1,2.8c0,1.2-0.7,2.1-1.9,2.5c1.4,0.3,2.3,1.4,2.3,2.8c0,1.9-1.7,3.1-4.3,3.1
		h-5.5V18.5H603.7z M601.2,23h2.3c0.8,0,1.4-0.4,1.4-1.2c0-0.7-0.5-1.1-1.4-1.1h-2.3V23z M601.2,27.5h2.3c1.1,0,1.7-0.5,1.7-1.3
		c0-0.8-0.7-1.2-1.7-1.2h-2.3V27.5z"/>
	<path fill="#353535" d="M622.8,24.1c0,3.3-2.6,5.7-6.1,5.7c-3.5,0-6-2.5-6-5.7c0-3.3,2.6-5.7,6-5.7
		C620.2,18.4,622.8,20.9,622.8,24.1z M613.6,24.1c0,1.9,1.5,3.3,3.2,3.3c1.7,0,3.1-1.5,3.1-3.3s-1.4-3.3-3.1-3.3
		C615,20.8,613.6,22.2,613.6,24.1z"/>
	<path fill="#353535" d="M630.7,20.8v8.9h-2.8v-8.9h-3.3v-2.3h9.6v2.3H630.7z"/>
</g>
<rect x="6.3" y="677.4" fill="none" stroke="#FFFFFF" stroke-width="4" stroke-linecap="round" stroke-linejoin="round" stroke-miterlimit="10" width="481.8" height="60.3"/>
<g>
	<path fill="#FFFFFF" d="M31.9,700.7v2.2c0,0.2-0.2,0.4-0.4,0.4h-1.9c-0.2,0-0.4-0.2-0.4-0.4v-2.1c0-2.2-1.1-3.1-2.7-3.1
		c-1.5,0-2.6,0.8-2.6,3.1v12.8c0,2.2,1.1,3.1,2.6,3.1c1.5,0,2.7-0.8,2.7-3.1v-2.2c0-0.2,0.2-0.4,0.4-0.4h1.9c0.2,0,0.4,0.2,0.4,0.4
		v2.2c0,3.3-2.1,5.6-5.3,5.6c-3.2,0-5.3-2.3-5.3-5.6v-12.9c0-3.4,1.8-5.6,5.3-5.6C30,695.1,31.9,697.3,31.9,700.7z"/>
	<path fill="#FFFFFF" d="M45.3,700.7v12.9c0,3.3-2.1,5.6-5.3,5.6c-3.2,0-5.3-2.3-5.3-5.6v-12.9c0-3.4,1.8-5.6,5.3-5.6
		C43.5,695.1,45.3,697.3,45.3,700.7z M42.6,700.8c0-2.2-1-3.1-2.6-3.1c-1.5,0-2.6,0.8-2.6,3.1v12.8c0,2.2,1,3.1,2.6,3.1
		c1.5,0,2.6-0.8,2.6-3.1V700.8z"/>
	<path fill="#FFFFFF" d="M59.5,713c0,3.5-1.8,5.8-5.3,5.8h-5c-0.2,0-0.4-0.2-0.4-0.4v-22.5c0-0.2,0.2-0.4,0.4-0.4h5
		c3.8,0,5.4,2.7,5.4,6.3V713z M54.2,716.2c1.8,0,2.5-1.2,2.5-2.6v-12.5c0-1.5-0.5-3-2.5-3h-2.8v18.1H54.2z"/>
	<path fill="#FFFFFF" d="M65.7,698.1v7.2h4.6c0.2,0,0.4,0.2,0.4,0.4v1.7c0,0.2-0.2,0.4-0.4,0.4h-4.6v8.4h6.6c0.2,0,0.4,0.2,0.4,0.4
		v1.8c0,0.2-0.2,0.4-0.4,0.4h-9c-0.2,0-0.4-0.2-0.4-0.4v-22.5c0-0.2,0.2-0.4,0.4-0.4h9c0.2,0,0.4,0.2,0.4,0.4v1.8
		c0,0.2-0.2,0.4-0.4,0.4H65.7z"/>
	<path fill="#FFFFFF" d="M91.4,700.7v2.2c0,0.2-0.2,0.4-0.4,0.4h-1.9c-0.2,0-0.4-0.2-0.4-0.4v-2.1c0-2.2-1.1-3.1-2.7-3.1
		c-1.5,0-2.6,0.8-2.6,3.1v12.8c0,2.2,1.1,3.1,2.6,3.1c1.5,0,2.7-0.8,2.7-3.1v-2.2c0-0.2,0.2-0.4,0.4-0.4H91c0.2,0,0.4,0.2,0.4,0.4
		v2.2c0,3.3-2.1,5.6-5.3,5.6c-3.2,0-5.3-2.3-5.3-5.6v-12.9c0-3.4,1.8-5.6,5.3-5.6C89.5,695.1,91.4,697.3,91.4,700.7z"/>
	<path fill="#FFFFFF" d="M104.8,700.7v12.9c0,3.3-2.1,5.6-5.3,5.6c-3.2,0-5.3-2.3-5.3-5.6v-12.9c0-3.4,1.8-5.6,5.3-5.6
		C103,695.1,104.8,697.3,104.8,700.7z M102.1,700.8c0-2.2-1-3.1-2.6-3.1c-1.5,0-2.6,0.8-2.6,3.1v12.8c0,2.2,1,3.1,2.6,3.1
		c1.5,0,2.6-0.8,2.6-3.1V700.8z"/>
	<path fill="#FFFFFF" d="M123.5,695.9v22.5c0,0.2-0.2,0.4-0.4,0.4h-1.7c-0.2,0-0.4-0.2-0.4-0.4v-16.7l-3.9,16.8
		c0,0.1-0.2,0.3-0.4,0.3H115c-0.1,0-0.3-0.1-0.4-0.3c0,0-3.8-16.2-3.9-16.8v16.7c0,0.2-0.2,0.4-0.4,0.4h0h-1.7
		c-0.2,0-0.4-0.2-0.4-0.4v-22.5c0-0.2,0.2-0.4,0.4-0.4h2.4c0.2,0,0.4,0.1,0.4,0.4l4.4,18.8l4.4-18.8c0-0.2,0.3-0.4,0.4-0.4h2.4
		C123.3,695.5,123.5,695.7,123.5,695.9z"/>
	<path fill="#FFFFFF" d="M142.3,695.9v22.5c0,0.2-0.2,0.4-0.4,0.4h-1.7c-0.2,0-0.4-0.2-0.4-0.4v-16.7l-3.9,16.8
		c0,0.1-0.2,0.3-0.4,0.3h-1.8c-0.1,0-0.3-0.1-0.4-0.3c0,0-3.8-16.2-3.9-16.8v16.7c0,0.2-0.2,0.4-0.4,0.4h0h-1.7
		c-0.2,0-0.4-0.2-0.4-0.4v-22.5c0-0.2,0.2-0.4,0.4-0.4h2.4c0.2,0,0.4,0.1,0.4,0.4l4.4,18.8l4.4-18.8c0-0.2,0.3-0.4,0.4-0.4h2.4
		C142.1,695.5,142.3,695.7,142.3,695.9z"/>
	<path fill="#FFFFFF" d="M150,698.1v18.1h1.8c0.2,0,0.4,0.2,0.4,0.4v1.9c0,0.2-0.2,0.4-0.4,0.4h-6.1c-0.2,0-0.4-0.1-0.4-0.4v-1.9
		c0-0.2,0.2-0.4,0.4-0.4h1.8v-18.1h-1.8c-0.2,0-0.4-0.1-0.4-0.4v-1.9c0-0.2,0.2-0.4,0.4-0.4h6.1c0.2,0,0.4,0.1,0.4,0.4v1.9
		c0,0.2-0.2,0.4-0.4,0.4H150z"/>
	<path fill="#FFFFFF" d="M164.5,695.9v1.8c0,0.2-0.2,0.4-0.4,0.4h-3.4v20.3c0,0.2-0.2,0.4-0.4,0.4h-1.9c-0.2,0-0.4-0.2-0.4-0.4
		v-20.3h-3.4c-0.2,0-0.4-0.2-0.4-0.4v-1.8c0-0.2,0.2-0.4,0.4-0.4h9.5C164.3,695.5,164.5,695.7,164.5,695.9z"/>
	<path fill="#FFFFFF" d="M177.1,711.7c0,0.6,0,2.2,0,2.2c0,3.2-2.3,5.3-5.3,5.3c-3.2,0-5.5-2.3-5.5-5.8v-2.1c0-0.2,0.1-0.4,0.4-0.4
		h1.9c0.2,0,0.4,0.2,0.4,0.4v2.6c0,2.1,1.3,2.9,2.9,2.9c1.9,0,2.6-1.3,2.6-2.9v-1.9c0-1.4-0.5-2.1-2.3-3.7l-2.8-2.6
		c-1.5-1.4-2.7-3.5-2.7-5.1c0-3.3,1.9-5.5,5.2-5.5c3.2,0,5.3,2.2,5.3,5.6v1.9c0,0.2-0.1,0.3-0.3,0.3h-2c-0.1,0-0.3-0.1-0.3-0.3v-2.2
		c0-2.2-1.1-3-2.6-3c-1.5,0-2.4,1-2.4,3c0,0.5,0.1,1.7,2.1,3.5c0.6,0.6,3.5,3.3,3.5,3.3C176.9,709.1,177.1,710.8,177.1,711.7z"/>
</g>
<g>
	<path fill="#FFFFFF" d="M421.2,695.9v22.5c0,0.2-0.2,0.4-0.4,0.4H419c-0.2,0-0.4-0.2-0.4-0.4v-18.8h-2.3c-0.2,0-0.4-0.2-0.4-0.4v-1
		c0-0.2,0.2-0.4,0.4-0.4c2.9-1,2.1-2.4,3.3-2.4c0.3,0,1.2,0,1.2,0C421,695.5,421.2,695.7,421.2,695.9z"/>
	<path fill="#FFFFFF" d="M427.2,716.6v1.8c0,0.4-0.2,0.7-0.3,0.9l-1.2,2.7c-0.1,0.1-0.1,0.2-0.3,0.2h-0.7c-0.1,0-0.2-0.1-0.1-0.2
		l0.7-3.1h-0.6c-0.2,0-0.4-0.1-0.4-0.4v-1.9c0-0.2,0.1-0.4,0.4-0.4h2C427,716.2,427.2,716.4,427.2,716.6z"/>
	<path fill="#FFFFFF" d="M440.8,700.7v2.2v10.7c0,3.4-2,5.7-5.3,5.7s-5.4-2.3-5.4-5.7v-2.2c0-0.2,0.2-0.4,0.4-0.4h2
		c0.2,0,0.4,0.2,0.4,0.4v2.4c0,2.2,1.4,2.8,2.6,2.8c1,0,2.6-0.6,2.6-2.8v-6.9c-0.8,1.2-1.9,1.3-2.6,1.3c-3.3,0-5.3-2.3-5.3-5.7v-1.7
		c0-3.4,2-5.7,5.3-5.7C438.7,695.1,440.8,697.3,440.8,700.7z M438,700.7c0-2.2-1-3-2.6-3c-1.6,0-2.6,0.9-2.6,3v1.8
		c0,2.2,1.1,3.1,2.6,3.1c1.5,0,2.6-0.9,2.6-3.1V700.7z"/>
	<path fill="#FFFFFF" d="M454.7,700.7v2.2v10.7c0,3.4-2,5.7-5.3,5.7s-5.4-2.3-5.4-5.7v-2.2c0-0.2,0.2-0.4,0.4-0.4h2
		c0.2,0,0.4,0.2,0.4,0.4v2.4c0,2.2,1.4,2.8,2.6,2.8c1,0,2.6-0.6,2.6-2.8v-6.9c-0.8,1.2-1.9,1.3-2.6,1.3c-3.3,0-5.3-2.3-5.3-5.7v-1.7
		c0-3.4,2-5.7,5.3-5.7C452.5,695.1,454.7,697.3,454.7,700.7z M451.9,700.7c0-2.2-1-3-2.6-3c-1.6,0-2.6,0.9-2.6,3v1.8
		c0,2.2,1.1,3.1,2.6,3.1c1.5,0,2.6-0.9,2.6-3.1V700.7z"/>
	<path fill="#FFFFFF" d="M468.7,711v2.2c0,4-1.9,6-5.5,6c-3.7,0-5.4-2-5.5-6V711c0-1.5,0.5-2.7,1.3-3.6c0.3-0.3,0.6-0.5,0.9-0.7
		c-1.2-0.8-2-2.1-2-3.9v-1.9c0-3.5,1.5-5.8,5.3-5.8c3.6,0,5.3,2.3,5.3,5.8v1.9c0,1.8-0.8,3.1-2,3.9c0.3,0.2,0.6,0.4,0.9,0.7
		C468.2,708.3,468.7,709.5,468.7,711z M463.2,716.6c1.4,0,2.7-0.8,2.7-3V711c0-2.1-1.3-2.8-2.7-2.8c-1.5,0-2.8,0.8-2.8,2.8v2.6
		C460.4,715.8,461.7,716.6,463.2,716.6z M463.2,697.7c-1.5,0-2.5,0.8-2.5,3v1.9c0,2.2,1,3,2.5,3c1.5,0,2.4-0.8,2.4-3v-1.9
		C465.6,698.5,464.7,697.7,463.2,697.7z"/>
</g>
<g>
	<path fill="#353535" d="M634.2,701.9v1.4c0,0.2-0.1,0.4-0.4,0.4h-2.5l-1,5.6h2.1c0.2,0,0.4,0.1,0.4,0.4v1.4c0,0.2-0.2,0.4-0.4,0.4
		h-2.5l-1.2,6.3c0,0.2-0.3,0.4-0.4,0.4h-1.5c-0.2,0-0.3-0.1-0.3-0.4l1.2-6.3h-2.9l-1.2,6.3c0,0.2-0.2,0.4-0.4,0.4h-1.5
		c-0.2,0-0.3-0.1-0.3-0.4l1.2-6.3h-2.2c-0.2,0-0.4-0.2-0.4-0.4v-1.4c0-0.2,0.2-0.4,0.4-0.4h2.6l1.1-5.6h-2.2c-0.2,0-0.4-0.2-0.4-0.4
		v-1.4c0-0.2,0.2-0.4,0.4-0.4h2.6l1.2-6.4c0-0.2,0.2-0.4,0.4-0.4h1.5c0.2,0,0.3,0.1,0.3,0.4l-1.2,6.4h2.9l1.2-6.4
		c0-0.2,0.2-0.4,0.4-0.4h1.5c0.2,0,0.3,0.1,0.3,0.4l-1.2,6.4h2.1C634.1,701.6,634.2,701.7,634.2,701.9z M629.2,703.7h-2.9l-1.1,5.6
		h2.9L629.2,703.7z"/>
	<path fill="#353535" d="M640.7,695.3v22.5c0,0.2-0.2,0.4-0.4,0.4h-1.8c-0.2,0-0.4-0.2-0.4-0.4V699h-2.3c-0.2,0-0.4-0.2-0.4-0.4v-1
		c0-0.2,0.2-0.4,0.4-0.4c2.9-1,2.1-2.4,3.3-2.4c0.3,0,1.2,0,1.2,0C640.5,694.9,640.7,695,640.7,695.3z"/>
	<path fill="#353535" d="M660.1,700.1v2.2c0,0.2-0.2,0.4-0.4,0.4h-1.9c-0.2,0-0.4-0.2-0.4-0.4v-2.1c0-2.2-1.1-3.1-2.7-3.1
		c-1.5,0-2.6,0.8-2.6,3.1v12.8c0,2.2,1.1,3.1,2.6,3.1c1.5,0,2.7-0.8,2.7-3.1v-2.2c0-0.2,0.2-0.4,0.4-0.4h1.9c0.2,0,0.4,0.2,0.4,0.4
		v2.2c0,3.3-2.1,5.6-5.3,5.6c-3.2,0-5.3-2.3-5.3-5.6v-12.9c0-3.4,1.8-5.6,5.3-5.6C658.3,694.5,660.1,696.7,660.1,700.1z"/>
	<path fill="#353535" d="M673.6,695.3V713c0,3.3-2.1,5.6-5.3,5.6c-3.2,0-5.3-2.3-5.3-5.6v-17.7c0-0.2,0.2-0.4,0.4-0.4h1.9
		c0.2,0,0.4,0.2,0.4,0.4v17.7c0,2.2,1.1,3.1,2.6,3.1c1.5,0,2.6-0.8,2.6-3.1v-17.7c0-0.2,0.2-0.4,0.4-0.4h1.9
		C673.5,694.9,673.6,695,673.6,695.3z"/>
	<path fill="#353535" d="M686.4,695.3v1.8c0,0.2-0.2,0.4-0.4,0.4h-3.4v20.3c0,0.2-0.2,0.4-0.4,0.4h-1.9c-0.2,0-0.4-0.2-0.4-0.4
		v-20.3h-3.4c-0.2,0-0.4-0.2-0.4-0.4v-1.8c0-0.2,0.2-0.4,0.4-0.4h9.5C686.2,694.9,686.4,695,686.4,695.3z"/>
	<path fill="#353535" d="M691.7,697.5v7.2h4.6c0.2,0,0.4,0.2,0.4,0.4v1.7c0,0.2-0.2,0.4-0.4,0.4h-4.6v8.4h6.6c0.2,0,0.4,0.2,0.4,0.4
		v1.8c0,0.2-0.2,0.4-0.4,0.4h-9c-0.2,0-0.4-0.2-0.4-0.4v-22.5c0-0.2,0.2-0.4,0.4-0.4h9c0.2,0,0.4,0.2,0.4,0.4v1.8
		c0,0.2-0.2,0.4-0.4,0.4H691.7z"/>
	<path fill="#353535" d="M711.6,711.1c0,0.6,0,2.2,0,2.2c0,3.2-2.3,5.3-5.3,5.3c-3.2,0-5.5-2.3-5.5-5.8v-2.1c0-0.2,0.1-0.4,0.4-0.4
		h1.9c0.2,0,0.4,0.2,0.4,0.4v2.6c0,2.1,1.3,2.9,2.9,2.9c1.9,0,2.6-1.3,2.6-2.9v-1.9c0-1.4-0.5-2.1-2.3-3.7l-2.8-2.6
		c-1.5-1.4-2.7-3.5-2.7-5.1c0-3.3,1.9-5.5,5.2-5.5c3.2,0,5.3,2.2,5.3,5.6v1.9c0,0.2-0.1,0.3-0.3,0.3h-2c-0.1,0-0.3-0.1-0.3-0.3v-2.2
		c0-2.2-1.1-3-2.6-3c-1.5,0-2.4,1-2.4,3c0,0.5,0.1,1.7,2.1,3.5c0.6,0.6,3.5,3.3,3.5,3.3C711.5,708.4,711.6,710.2,711.6,711.1z"/>
	<path fill="#353535" d="M723.6,695.3v1.8c0,0.2-0.2,0.4-0.4,0.4h-3.4v20.3c0,0.2-0.2,0.4-0.4,0.4h-1.9c-0.2,0-0.4-0.2-0.4-0.4
		v-20.3h-3.4c-0.2,0-0.4-0.2-0.4-0.4v-1.8c0-0.2,0.2-0.4,0.4-0.4h9.5C723.5,694.9,723.6,695,723.6,695.3z"/>
	<path fill="#353535" d="M734.3,715.6h6.7c0.2,0,0.4,0.1,0.4,0.4v1.9c0,0.2-0.1,0.4-0.4,0.4h-9c-0.2,0-0.4-0.2-0.4-0.4v-22.5
		c0-0.2,0.2-0.4,0.4-0.4h1.9c0.2,0,0.4,0.2,0.4,0.4V715.6z"/>
	<path fill="#353535" d="M754.4,700.1V713c0,3.3-2.1,5.6-5.3,5.6c-3.2,0-5.3-2.3-5.3-5.6v-12.9c0-3.4,1.8-5.6,5.3-5.6
		C752.6,694.5,754.4,696.7,754.4,700.1z M751.7,700.1c0-2.2-1-3.1-2.6-3.1c-1.5,0-2.6,0.8-2.6,3.1v12.8c0,2.2,1,3.1,2.6,3.1
		c1.5,0,2.6-0.8,2.6-3.1V700.1z"/>
	<path fill="#353535" d="M768.8,707.4v10.5c0,0.1-0.1,0.3-0.3,0.3h-0.7c-0.1,0-0.3-0.1-0.3-0.2l-0.2-1.1c-1,1.1-2.4,1.7-4.1,1.7
		c-3.2,0-5.5-2.3-5.5-5.6v-12.9c0-3.4,1.8-5.6,5.3-5.6c3.5,0,5.3,2.2,5.3,5.6v2.2c0,0.2-0.2,0.4-0.4,0.4H766c-0.2,0-0.4-0.2-0.4-0.4
		v-2.1c0-2.2-1.1-3.1-2.6-3.1c-1.5,0-2.6,0.8-2.6,3.1v12.8c0,2.2,1.3,3.1,2.8,3.1c1.5,0,2.8-0.8,2.8-3.1v-3.4h-1.5
		c-0.2,0-0.4-0.1-0.4-0.4v-1.8c0-0.2,0.2-0.4,0.4-0.4h3.9C768.6,707,768.8,707.2,768.8,707.4z"/>
	<path fill="#353535" d="M782.5,700.1V713c0,3.3-2.1,5.6-5.3,5.6c-3.2,0-5.3-2.3-5.3-5.6v-12.9c0-3.4,1.8-5.6,5.3-5.6
		C780.6,694.5,782.5,696.7,782.5,700.1z M779.7,700.1c0-2.2-1-3.1-2.6-3.1c-1.5,0-2.6,0.8-2.6,3.1v12.8c0,2.2,1,3.1,2.6,3.1
		c1.5,0,2.6-0.8,2.6-3.1V700.1z"/>
</g>
<circle fill="none" stroke="#353535" stroke-width="6" stroke-linecap="round" stroke-linejoin="round" stroke-miterlimit="10" cx="659.4" cy="243.3" r="145.2"/>
<circle fill="none" stroke="#353535" stroke-width="6" stroke-linecap="round" stroke-linejoin="round" stroke-miterlimit="10" cx="659.4" cy="243.3" r="120"/>
<circle fill="none" stroke="#353535" stroke-width="6" stroke-linecap="round" stroke-linejoin="round" stroke-miterlimit="10" cx="659.4" cy="63.2" r="34.9"/>
<polyline fill="none" stroke="#353535" stroke-width="6" stroke-linecap="round" stroke-linejoin="round" stroke-miterlimit="10" points="
	653.1,98.1 653.1,66.5 665.7,66.5 665.7,98.1 "/>
<rect x="784.4" y="102.3" transform="matrix(0.7071 -0.7071 0.7071 0.7071 146.0839 592.9761)" fill="none" stroke="#353535" stroke-width="6" stroke-linecap="round" stroke-linejoin="round" stroke-miterlimit="10" width="8.9" height="35.7"/>
<line fill="none" stroke="#353535" stroke-width="6" stroke-linecap="round" stroke-linejoin="round" stroke-miterlimit="10" x1="785.7" y1="123.3" x2="765" y2="144"/>
<rect x="523.8" y="102.3" transform="matrix(-0.7071 -0.7071 0.7071 -0.7071 816.817 578.6351)" fill="none" stroke="#353535" stroke-width="6" stroke-linecap="round" stroke-linejoin="round" stroke-miterlimit="10" width="8.9" height="35.7"/>
<line fill="none" stroke="#353535" stroke-width="6" stroke-linecap="round" stroke-linejoin="round" stroke-miterlimit="10" x1="531.4" y1="123.3" x2="552.1" y2="144"/>
<g>
	<path fill="#FFFFFF" d="M579.4,250c0-0.5,0.4-1,1-1h5.6c0.5,0,1,0.5,1,1v5.3c0,0.6-0.5,1-1,1h-5.6c-0.6,0-1-0.4-1-1V250z"/>
	<path fill="#FFFFFF" d="M624.5,206.1v35.8c0,9.3-5.9,15.6-14.5,15.6c-8.4,0-14.4-6.3-14.4-15.6v-35.8c0-9.4,5.4-15.6,14.4-15.6
		C619.2,190.5,624.5,196.7,624.5,206.1z M616.9,206.3c0-6.2-2.8-8.6-6.9-8.6c-3.9,0-6.8,2.4-6.8,8.6v35.4c0,6.2,2.9,8.6,6.8,8.6
		c4.1,0,6.9-2.4,6.9-8.6V206.3z"/>
	<path fill="#FFFFFF" d="M661.8,250.1v5.1c0,0.6-0.5,1.1-1.1,1.1h-27.1c-0.6,0-1.1-0.5-1.1-1.1c0,0,0-5.7,0-6.4
		c0-4.4,2.2-11.6,5.9-16c2.1-2.6,8.9-10.7,10.8-12.9c4.3-5.2,5.4-7.2,5.4-11.9c0-4.9-1.2-10.6-7.2-10.6c-3.3,0-7.3,1.3-7.3,10.6v3.7
		c0,0.6-0.5,1.1-1.1,1.1h-5.2c-0.6,0-1.1-0.5-1.1-1.1v-4.2c0-10.2,4.9-17.1,14.9-17.1c9.2,0,14.3,6.7,14.4,16.8v1.7
		c0,7.9-3.7,11.6-7.3,16.1c-7.3,8.7-14.4,16.1-14.4,22.5v1.6h20.4C661.3,249.1,661.8,249.6,661.8,250.1z"/>
	<path fill="#FFFFFF" d="M699.7,234.9v6.7c0,8.4-5.7,15.8-15.1,15.8c-9.1,0-14.6-6.4-14.6-14.5v-35.4c0-10.7,5.5-17,14.5-17
		c9.1,0,15,6.3,15,15.7v5.1c0,0.6-0.5,1-0.9,1h-5.8c-0.5,0-1-0.4-1-1v-5.6c0-4.3-1.6-8-7.1-8c-5.1,0-7.1,3.7-7.1,8v17
		c2.1-3.3,5.4-3.5,7.9-3.5C693,219.2,699.7,225.1,699.7,234.9z M677.5,234.7v7.9c0,5.3,3,7.9,7.3,7.9c4.3,0,7.3-3.5,7.3-7.9v-7.9
		c0-6-3-8.3-7.3-8.3C680.7,226.4,677.5,228.7,677.5,234.7z"/>
	<path fill="#FFFFFF" d="M738.3,229.5c0,4.9,0,10.6,0,10.6c0,8.8-3.8,17.3-14.9,17.3c-10.9,0-14.7-7.7-14.7-17.3v-4.4
		c0-0.6,0.5-1.1,1.1-1.1h5.3c0.6,0,1.1,0.5,1.1,1.1v5c0,4.7,0.6,9.5,7.4,9.5c6.2,0,7.1-4.8,7.1-9.5v-13.2c0-6.9-4.4-8.5-7.1-8.5
		c-2.9,0-6,0.9-7.1,3.8l-0.3,0.8c-0.2,0.3-0.6,0.5-1,0.5h-5.4c-0.5,0-1-0.3-1.1-0.8c0,0,0-1,0-1.4v-21v-8.2c0-0.6,0.5-1.1,1.1-1.1
		h7.2h19.9c0.5,0,1,0.5,1,1.1v5.1c0,0.6-0.5,1.1-1,1.1h-20.6v16.6c1.4-3.5,5.3-3.8,8.4-3.8C734,211.7,738.3,217.5,738.3,229.5z"/>
</g>
<g>
	<g>
		<path fill="#353535" d="M599,295.3h-1.4l3.9-13.4h1.4l3.9,13.4h-1.5l-1.1-3.8h-4.2L599,295.3z M603.3,288.1
			c-0.5-1.6-0.8-2.8-1.1-4.1h0c-0.3,1.3-0.7,2.5-1.1,4.1l-0.6,2.1h3.4L603.3,288.1z"/>
		<path fill="#353535" d="M607.6,285.8h1.5l1.5,5.4c0.2,0.8,0.4,1.5,0.7,2.6h0c0.3-1.1,0.4-1.7,0.7-2.6l1.5-5.4h1.4l-2.9,9.5h-1.5
			L607.6,285.8z"/>
		<path fill="#353535" d="M615.9,290.6c0-3.4,1.8-5,3.7-5c2.1,0,3.4,1.7,3.4,4.9v0.4h-5.6c0.1,2.2,0.9,3.4,2.3,3.4
			c1.1,0,1.7-0.6,2.3-1.7l1,0.6c-0.7,1.4-1.8,2.3-3.3,2.3C617.5,295.5,615.9,293.9,615.9,290.6z M621.6,289.8
			c-0.1-1.7-0.7-2.9-2-2.9c-1.1,0-2,0.9-2.2,2.9H621.6z"/>
		<path fill="#353535" d="M624.8,285.8h1.5v1.6h0c0.5-1,1.5-1.8,3-1.8h0.2l-0.1,1.4c0,0-0.3,0-0.3,0c-1.2,0-2.3,0.8-2.8,1.9v6.4
			h-1.5V285.8z"/>
		<path fill="#353535" d="M630.5,293.1c0-1.9,1.6-3.3,5.3-4v-0.6c0-1.1-0.5-1.6-1.4-1.6c-1.2,0-2.1,0.6-2.8,1.3l-0.8-0.9
			c1-1,2.2-1.7,3.8-1.7c1.9,0,2.7,1,2.7,2.9v4.5c0,1.2,0.1,1.9,0.2,2.3H636c-0.1-0.4-0.2-0.7-0.2-1.2c-0.8,0.8-1.8,1.3-3,1.3
			C631.4,295.4,630.5,294.5,630.5,293.1z M635.8,293v-2.9c-2.9,0.6-3.9,1.6-3.9,2.8c0,1,0.5,1.4,1.3,1.4
			C634.3,294.2,635.2,293.7,635.8,293z"/>
		<path fill="#353535" d="M646.8,285.7v1.4c-0.4,0-0.9,0.1-1.4,0.3c0.3,0.5,0.4,1.1,0.4,1.7c0,2.1-1.4,3.4-3.3,3.4
			c-0.5,0-0.9-0.1-1.3-0.2c-0.3,0.2-0.5,0.4-0.5,0.7c0,0.4,0.2,0.5,1.1,0.6l1.5,0.2c2.3,0.3,3.3,1,3.3,2.4c0,1.7-1.8,2.7-4.1,2.7
			c-2.7,0-3.7-0.9-3.7-2.3c0-1,0.6-1.7,1.5-2.1c-0.5-0.3-0.8-0.6-0.8-1.2c0-0.6,0.4-1.1,1-1.5c-0.8-0.6-1.3-1.6-1.3-2.8
			c0-2.1,1.4-3.4,3.3-3.4c1,0,1.8,0.3,2.4,1C645.4,286.1,646.1,285.8,646.8,285.7z M640,296.4c0,1,0.6,1.5,2.6,1.5
			c1.5,0,2.6-0.5,2.6-1.5c0-0.8-0.5-1.2-2.1-1.4l-1.5-0.2c-0.1,0-0.2,0-0.3,0C640.4,295.2,640,295.8,640,296.4z M644.4,289.1
			c0-1.4-0.7-2.3-1.9-2.3c-1.2,0-1.9,0.9-1.9,2.3c0,1.4,0.7,2.3,1.9,2.3C643.7,291.4,644.4,290.5,644.4,289.1z"/>
		<path fill="#353535" d="M647.9,290.6c0-3.4,1.8-5,3.7-5c2.1,0,3.4,1.7,3.4,4.9v0.4h-5.6c0.1,2.2,0.9,3.4,2.3,3.4
			c1.1,0,1.7-0.6,2.3-1.7l1,0.6c-0.7,1.4-1.8,2.3-3.3,2.3C649.5,295.5,647.9,293.9,647.9,290.6z M653.6,289.8
			c-0.1-1.7-0.7-2.9-2-2.9c-1.1,0-2,0.9-2.2,2.9H653.6z"/>
		<path fill="#353535" d="M664,285.8h1.5v1.6h0c0.5-1,1.5-1.8,3-1.8h0.2l-0.1,1.4c0,0-0.3,0-0.3,0c-1.2,0-2.2,0.8-2.8,1.9v6.4H664
			V285.8z"/>
		<path fill="#353535" d="M669.7,290.6c0-3.4,1.8-5,3.7-5c2.1,0,3.4,1.7,3.4,4.9v0.4h-5.6c0.1,2.2,0.9,3.4,2.3,3.4
			c1.1,0,1.7-0.6,2.3-1.7l1,0.6c-0.7,1.4-1.8,2.3-3.3,2.3C671.3,295.5,669.7,293.9,669.7,290.6z M675.4,289.8
			c-0.1-1.7-0.7-2.9-2-2.9c-1.1,0-2,0.9-2.2,2.9H675.4z M673.7,282h1.7l-2.2,2.8h-1L673.7,282z"/>
		<path fill="#353535" d="M677.9,293.6l1-0.7c0.6,1,1.6,1.5,2.6,1.5c1.2,0,1.9-0.5,1.9-1.4c0-2.3-5-1.4-5-4.8c0-1.5,1.2-2.6,3-2.6
			c1.4,0,2.4,0.7,3.1,1.7l-1,0.8c-0.5-0.7-1.2-1.3-2.2-1.3c-1.1,0-1.6,0.5-1.6,1.3c0,2.4,4.9,1.3,4.9,4.8c0,1.7-1.5,2.7-3.3,2.7
			C679.8,295.5,678.6,294.7,677.9,293.6z"/>
		<path fill="#353535" d="M686.4,292.9v-7.1h1.4v6.8c0,1.1,0.4,1.7,1.4,1.7c0.9,0,1.7-0.6,2.5-1.4v-7.1h1.5v9.5h-1.5V294
			c-0.7,0.8-1.7,1.5-3,1.5C687.2,295.5,686.4,294.6,686.4,292.9z"/>
		<path fill="#353535" d="M695.5,285.8h1.5v1.3c0.7-0.7,1.7-1.5,2.9-1.5c1.3,0,1.9,0.5,2.2,1.5c0.7-0.8,1.7-1.5,3-1.5
			c1.5,0,2.3,0.9,2.3,2.6v7.1h-1.4v-6.8c0-1.1-0.4-1.7-1.3-1.7c-0.9,0-1.7,0.6-2.4,1.3v7.1h-1.5v-6.8c0-1.1-0.3-1.7-1.3-1.7
			c-0.8,0-1.6,0.6-2.4,1.3v7.1h-1.5V285.8z"/>
		<path fill="#353535" d="M709.1,290.6c0-3.4,1.8-5,3.7-5c2.1,0,3.4,1.7,3.4,4.9v0.4h-5.6c0.1,2.2,0.9,3.4,2.3,3.4
			c1.1,0,1.7-0.6,2.2-1.7l1,0.6c-0.7,1.4-1.8,2.3-3.3,2.3C710.7,295.5,709.1,293.9,709.1,290.6z M714.8,289.8
			c-0.1-1.7-0.7-2.9-2-2.9c-1.1,0-2,0.9-2.2,2.9H714.8z M713.1,282h1.7l-2.2,2.8h-1L713.1,282z"/>
		<path fill="#353535" d="M611.6,320.6c0-3.4,1.4-5,3.3-5c1.1,0,1.9,0.5,2.6,1.3v-5h1.4v11c0,1.2,0.1,1.9,0.2,2.3h-1.5
			c-0.1-0.3-0.2-0.9-0.2-1.2c-0.6,0.7-1.4,1.4-2.6,1.4C613,325.4,611.6,324,611.6,320.6z M617.5,322.9v-4.8
			c-0.7-0.8-1.4-1.3-2.2-1.3c-1.3,0-2.1,1.1-2.1,3.7c0,2.5,0.9,3.7,2.2,3.7C616.1,324.2,616.9,323.6,617.5,322.9z"/>
		<path fill="#353535" d="M620.7,320.6c0-3.4,1.8-5,3.7-5c2.1,0,3.4,1.7,3.4,4.9v0.4h-5.6c0.1,2.2,0.9,3.4,2.3,3.4
			c1.1,0,1.7-0.6,2.3-1.7l1,0.6c-0.7,1.4-1.8,2.3-3.3,2.3C622.3,325.5,620.7,323.9,620.7,320.6z M626.4,319.8
			c-0.1-1.7-0.7-2.9-2-2.9c-1.1,0-2,0.9-2.2,2.9H626.4z"/>
		<path fill="#353535" d="M629.7,312h1.5v13.3h-1.5V312z"/>
		<path fill="#353535" d="M633.7,312.3h1.5v1.6h-1.5V312.3z M633.7,315.8h1.5v9.5h-1.5V315.8z"/>
		<path fill="#353535" d="M636.7,315.8h1.5l1.5,5.4c0.2,0.8,0.4,1.5,0.7,2.6h0c0.3-1.1,0.4-1.7,0.7-2.6l1.5-5.4h1.4l-2.9,9.5h-1.5
			L636.7,315.8z"/>
		<path fill="#353535" d="M645,320.6c0-3.4,1.8-5,3.7-5c2.1,0,3.4,1.7,3.4,4.9v0.4h-5.6c0.1,2.2,0.9,3.4,2.3,3.4
			c1.1,0,1.7-0.6,2.2-1.7l1,0.6c-0.7,1.4-1.8,2.3-3.3,2.3C646.6,325.5,645,323.9,645,320.6z M650.7,319.8c-0.1-1.7-0.7-2.9-2-2.9
			c-1.1,0-2,0.9-2.2,2.9H650.7z"/>
		<path fill="#353535" d="M654,315.8h1.5v1.6h0c0.5-1,1.5-1.8,3-1.8h0.2l-0.1,1.4c0,0-0.3,0-0.3,0c-1.2,0-2.2,0.8-2.8,1.9v6.4H654
			V315.8z"/>
		<path fill="#353535" d="M659.1,328.7l0.3-1.2c0.2,0.1,0.7,0.1,1.2,0.1c0.8,0,1.2-0.5,1.5-1.5l0.3-0.8l-3-9.6h1.5l1.4,5
			c0.3,1,0.5,1.9,0.8,2.9h0c0.3-1,0.5-1.9,0.8-3l1.4-4.9h1.4l-3.3,10.6c-0.6,1.7-1.2,2.6-2.8,2.6C660,328.9,659.4,328.8,659.1,328.7
			z"/>
		<path fill="#353535" d="M672.5,323.2V317h-1.4v-1.2h1.4v-3.4h1.4v3.4h2.1v1.2H674v5.8c0,1,0.3,1.4,1.3,1.4c0.3,0,0.6-0.1,0.8-0.1
			v1.2c-0.2,0.1-0.7,0.1-1.1,0.1C673.2,325.4,672.5,324.8,672.5,323.2z"/>
		<path fill="#353535" d="M677.9,312.3h1.5v1.6h-1.5V312.3z M677.9,315.8h1.5v9.5h-1.5V315.8z"/>
		<path fill="#353535" d="M681.7,315.8h1.5v1.3c0.7-0.7,1.7-1.5,2.9-1.5c1.3,0,1.9,0.5,2.2,1.5c0.7-0.8,1.7-1.5,3-1.5
			c1.5,0,2.3,0.9,2.3,2.6v7.1h-1.4v-6.8c0-1.1-0.4-1.7-1.3-1.7c-0.9,0-1.7,0.6-2.4,1.3v7.1h-1.5v-6.8c0-1.1-0.3-1.7-1.3-1.7
			c-0.8,0-1.6,0.6-2.4,1.3v7.1h-1.5V315.8z"/>
		<path fill="#353535" d="M695.3,320.6c0-3.4,1.8-5,3.7-5c2.1,0,3.4,1.7,3.4,4.9v0.4h-5.6c0.1,2.2,0.9,3.4,2.3,3.4
			c1.1,0,1.7-0.6,2.3-1.7l1,0.6c-0.7,1.4-1.8,2.3-3.3,2.3C696.9,325.5,695.3,323.9,695.3,320.6z M701,319.8c-0.1-1.7-0.7-2.9-2-2.9
			c-1.1,0-2,0.9-2.2,2.9H701z"/>
	</g>
</g>
<g>
	<line fill="none" stroke="#353535" stroke-miterlimit="10" stroke-dasharray="1,6" x1="516.1" y1="596.9" x2="796.5" y2="596.9"/>
	<g>
		
			<line fill="none" stroke="#353535" stroke-width="2" stroke-linecap="round" stroke-linejoin="round" stroke-miterlimit="10" x1="531.7" y1="493.5" x2="539.8" y2="493.5"/>
		
			<line fill="none" stroke="#353535" stroke-width="2" stroke-linecap="round" stroke-linejoin="round" stroke-miterlimit="10" x1="525.2" y1="500" x2="546.4" y2="500"/>
		
			<line fill="none" stroke="#353535" stroke-width="2" stroke-linecap="round" stroke-linejoin="round" stroke-miterlimit="10" x1="525.2" y1="506.5" x2="546.4" y2="506.5"/>
		
			<polygon fill="none" stroke="#353535" stroke-width="2" stroke-linecap="round" stroke-linejoin="round" stroke-miterlimit="10" points="
			552.9,521.2 518.7,521.2 518.7,477.2 544.7,477.2 552.9,485.4 		"/>
		
			<polyline fill="none" stroke="#353535" stroke-width="2" stroke-linecap="round" stroke-linejoin="round" stroke-miterlimit="10" points="
			544.7,477.2 544.7,485.4 552.9,485.4 		"/>
	</g>
	<g>
		
			<line fill="none" stroke="#353535" stroke-width="2" stroke-linecap="round" stroke-linejoin="round" stroke-miterlimit="10" x1="572.5" y1="493.5" x2="580.6" y2="493.5"/>
		
			<line fill="none" stroke="#353535" stroke-width="2" stroke-linecap="round" stroke-linejoin="round" stroke-miterlimit="10" x1="566" y1="500" x2="587.1" y2="500"/>
		
			<line fill="none" stroke="#353535" stroke-width="2" stroke-linecap="round" stroke-linejoin="round" stroke-miterlimit="10" x1="566" y1="506.5" x2="587.1" y2="506.5"/>
		
			<polygon fill="none" stroke="#353535" stroke-width="2" stroke-linecap="round" stroke-linejoin="round" stroke-miterlimit="10" points="
			593.6,521.2 559.4,521.2 559.4,477.2 585.5,477.2 593.6,485.4 		"/>
		
			<polyline fill="none" stroke="#353535" stroke-width="2" stroke-linecap="round" stroke-linejoin="round" stroke-miterlimit="10" points="
			585.5,477.2 585.5,485.4 593.6,485.4 		"/>
	</g>
	<g>
		
			<line fill="none" stroke="#353535" stroke-width="2" stroke-linecap="round" stroke-linejoin="round" stroke-miterlimit="10" x1="613.2" y1="493.5" x2="621.4" y2="493.5"/>
		
			<line fill="none" stroke="#353535" stroke-width="2" stroke-linecap="round" stroke-linejoin="round" stroke-miterlimit="10" x1="606.7" y1="500" x2="627.9" y2="500"/>
		
			<line fill="none" stroke="#353535" stroke-width="2" stroke-linecap="round" stroke-linejoin="round" stroke-miterlimit="10" x1="606.7" y1="506.5" x2="627.9" y2="506.5"/>
		
			<polygon fill="none" stroke="#353535" stroke-width="2" stroke-linecap="round" stroke-linejoin="round" stroke-miterlimit="10" points="
			634.4,521.2 600.2,521.2 600.2,477.2 626.2,477.2 634.4,485.4 		"/>
		
			<polyline fill="none" stroke="#353535" stroke-width="2" stroke-linecap="round" stroke-linejoin="round" stroke-miterlimit="10" points="
			626.2,477.2 626.2,485.4 634.4,485.4 		"/>
	</g>
	<g>
		
			<line fill="none" stroke="#353535" stroke-width="2" stroke-linecap="round" stroke-linejoin="round" stroke-miterlimit="10" x1="654" y1="493.5" x2="662.1" y2="493.5"/>
		
			<line fill="none" stroke="#353535" stroke-width="2" stroke-linecap="round" stroke-linejoin="round" stroke-miterlimit="10" x1="647.5" y1="500" x2="668.6" y2="500"/>
		
			<line fill="none" stroke="#353535" stroke-width="2" stroke-linecap="round" stroke-linejoin="round" stroke-miterlimit="10" x1="647.5" y1="506.5" x2="668.6" y2="506.5"/>
		
			<polygon fill="none" stroke="#353535" stroke-width="2" stroke-linecap="round" stroke-linejoin="round" stroke-miterlimit="10" points="
			675.1,521.2 641,521.2 641,477.2 667,477.2 675.1,485.4 		"/>
		
			<polyline fill="none" stroke="#353535" stroke-width="2" stroke-linecap="round" stroke-linejoin="round" stroke-miterlimit="10" points="
			667,477.2 667,485.4 675.1,485.4 		"/>
	</g>
	<g>
		
			<line fill="none" stroke="#353535" stroke-width="2" stroke-linecap="round" stroke-linejoin="round" stroke-miterlimit="10" x1="695" y1="493.5" x2="703.2" y2="493.5"/>
		
			<line fill="none" stroke="#353535" stroke-width="2" stroke-linecap="round" stroke-linejoin="round" stroke-miterlimit="10" x1="688.5" y1="500" x2="709.7" y2="500"/>
		
			<line fill="none" stroke="#353535" stroke-width="2" stroke-linecap="round" stroke-linejoin="round" stroke-miterlimit="10" x1="688.5" y1="506.5" x2="709.7" y2="506.5"/>
		
			<polygon fill="none" stroke="#353535" stroke-width="2" stroke-linecap="round" stroke-linejoin="round" stroke-miterlimit="10" points="
			716.2,521.2 682,521.2 682,477.2 708.1,477.2 716.2,485.4 		"/>
		
			<polyline fill="none" stroke="#353535" stroke-width="2" stroke-linecap="round" stroke-linejoin="round" stroke-miterlimit="10" points="
			708.1,477.2 708.1,485.4 716.2,485.4 		"/>
	</g>
	<g>
		
			<line fill="none" stroke="#353535" stroke-width="2" stroke-linecap="round" stroke-linejoin="round" stroke-miterlimit="10" x1="735.9" y1="493.5" x2="744" y2="493.5"/>
		
			<line fill="none" stroke="#353535" stroke-width="2" stroke-linecap="round" stroke-linejoin="round" stroke-miterlimit="10" x1="729.4" y1="500" x2="750.5" y2="500"/>
		
			<line fill="none" stroke="#353535" stroke-width="2" stroke-linecap="round" stroke-linejoin="round" stroke-miterlimit="10" x1="729.4" y1="506.5" x2="750.5" y2="506.5"/>
		
			<polygon fill="none" stroke="#353535" stroke-width="2" stroke-linecap="round" stroke-linejoin="round" stroke-miterlimit="10" points="
			757,521.2 722.8,521.2 722.8,477.2 748.9,477.2 757,485.4 		"/>
		
			<polyline fill="none" stroke="#353535" stroke-width="2" stroke-linecap="round" stroke-linejoin="round" stroke-miterlimit="10" points="
			748.9,477.2 748.9,485.4 757,485.4 		"/>
	</g>
	<g>
		
			<line fill="none" stroke="#353535" stroke-width="2" stroke-linecap="round" stroke-linejoin="round" stroke-miterlimit="10" x1="531.7" y1="548.8" x2="539.8" y2="548.8"/>
		
			<line fill="none" stroke="#353535" stroke-width="2" stroke-linecap="round" stroke-linejoin="round" stroke-miterlimit="10" x1="525.2" y1="555.3" x2="546.4" y2="555.3"/>
		
			<line fill="none" stroke="#353535" stroke-width="2" stroke-linecap="round" stroke-linejoin="round" stroke-miterlimit="10" x1="525.2" y1="561.8" x2="546.4" y2="561.8"/>
		
			<polygon fill="none" stroke="#353535" stroke-width="2" stroke-linecap="round" stroke-linejoin="round" stroke-miterlimit="10" points="
			552.9,576.5 518.7,576.5 518.7,532.5 544.7,532.5 552.9,540.7 		"/>
		
			<polyline fill="none" stroke="#353535" stroke-width="2" stroke-linecap="round" stroke-linejoin="round" stroke-miterlimit="10" points="
			544.7,532.5 544.7,540.7 552.9,540.7 		"/>
	</g>
	<g>
		
			<line fill="none" stroke="#353535" stroke-width="2" stroke-linecap="round" stroke-linejoin="round" stroke-miterlimit="10" x1="572.5" y1="548.8" x2="580.6" y2="548.8"/>
		
			<line fill="none" stroke="#353535" stroke-width="2" stroke-linecap="round" stroke-linejoin="round" stroke-miterlimit="10" x1="566" y1="555.3" x2="587.1" y2="555.3"/>
		
			<line fill="none" stroke="#353535" stroke-width="2" stroke-linecap="round" stroke-linejoin="round" stroke-miterlimit="10" x1="566" y1="561.8" x2="587.1" y2="561.8"/>
		
			<polygon fill="none" stroke="#353535" stroke-width="2" stroke-linecap="round" stroke-linejoin="round" stroke-miterlimit="10" points="
			593.6,576.5 559.4,576.5 559.4,532.5 585.5,532.5 593.6,540.7 		"/>
		
			<polyline fill="none" stroke="#353535" stroke-width="2" stroke-linecap="round" stroke-linejoin="round" stroke-miterlimit="10" points="
			585.5,532.5 585.5,540.7 593.6,540.7 		"/>
	</g>
	<g>
		
			<line fill="none" stroke="#353535" stroke-width="2" stroke-linecap="round" stroke-linejoin="round" stroke-miterlimit="10" x1="613.2" y1="548.8" x2="621.4" y2="548.8"/>
		
			<line fill="none" stroke="#353535" stroke-width="2" stroke-linecap="round" stroke-linejoin="round" stroke-miterlimit="10" x1="606.7" y1="555.3" x2="627.9" y2="555.3"/>
		
			<line fill="none" stroke="#353535" stroke-width="2" stroke-linecap="round" stroke-linejoin="round" stroke-miterlimit="10" x1="606.7" y1="561.8" x2="627.9" y2="561.8"/>
		
			<polygon fill="none" stroke="#353535" stroke-width="2" stroke-linecap="round" stroke-linejoin="round" stroke-miterlimit="10" points="
			634.4,576.5 600.2,576.5 600.2,532.5 626.2,532.5 634.4,540.7 		"/>
		
			<polyline fill="none" stroke="#353535" stroke-width="2" stroke-linecap="round" stroke-linejoin="round" stroke-miterlimit="10" points="
			626.2,532.5 626.2,540.7 634.4,540.7 		"/>
	</g>
	<g>
		
			<line fill="none" stroke="#353535" stroke-width="2" stroke-linecap="round" stroke-linejoin="round" stroke-miterlimit="10" x1="654" y1="548.8" x2="662.1" y2="548.8"/>
		
			<line fill="none" stroke="#353535" stroke-width="2" stroke-linecap="round" stroke-linejoin="round" stroke-miterlimit="10" x1="647.5" y1="555.3" x2="668.6" y2="555.3"/>
		
			<line fill="none" stroke="#353535" stroke-width="2" stroke-linecap="round" stroke-linejoin="round" stroke-miterlimit="10" x1="647.5" y1="561.8" x2="668.6" y2="561.8"/>
		
			<polygon fill="none" stroke="#353535" stroke-width="2" stroke-linecap="round" stroke-linejoin="round" stroke-miterlimit="10" points="
			675.1,576.5 641,576.5 641,532.5 667,532.5 675.1,540.7 		"/>
		
			<polyline fill="none" stroke="#353535" stroke-width="2" stroke-linecap="round" stroke-linejoin="round" stroke-miterlimit="10" points="
			667,532.5 667,540.7 675.1,540.7 		"/>
	</g>
	<g>
		
			<line fill="none" stroke="#353535" stroke-width="2" stroke-linecap="round" stroke-linejoin="round" stroke-miterlimit="10" x1="776.7" y1="493.4" x2="784.8" y2="493.4"/>
		
			<line fill="none" stroke="#353535" stroke-width="2" stroke-linecap="round" stroke-linejoin="round" stroke-miterlimit="10" x1="770.2" y1="499.9" x2="791.3" y2="499.9"/>
		
			<line fill="none" stroke="#353535" stroke-width="2" stroke-linecap="round" stroke-linejoin="round" stroke-miterlimit="10" x1="770.2" y1="506.4" x2="791.3" y2="506.4"/>
		
			<polygon fill="none" stroke="#353535" stroke-width="2" stroke-linecap="round" stroke-linejoin="round" stroke-miterlimit="10" points="
			797.9,521.1 763.7,521.1 763.7,477.1 789.7,477.1 797.9,485.3 		"/>
		
			<polyline fill="none" stroke="#353535" stroke-width="2" stroke-linecap="round" stroke-linejoin="round" stroke-miterlimit="10" points="
			789.7,477.1 789.7,485.3 797.9,485.3 		"/>
	</g>
	<g>
		<path fill="#FFFFFF" d="M517.3,445h1.5v12h5.3v1.4h-6.8V445z"/>
		<path fill="#FFFFFF" d="M525.4,453.6c0-3.3,1.6-5,3.8-5c2.1,0,3.7,1.7,3.7,5c0,3.3-1.6,5-3.7,5C527,458.5,525.4,456.8,525.4,453.6
			z M531.4,453.6c0-2.1-0.7-3.7-2.3-3.7c-1.5,0-2.3,1.5-2.3,3.7c0,2.1,0.7,3.7,2.3,3.7C530.7,457.3,531.4,455.8,531.4,453.6z"/>
		<path fill="#FFFFFF" d="M534.8,448.8h1.5v1.3c0.6-0.7,1.8-1.5,3-1.5c1.5,0,2.3,0.9,2.3,2.6v7.1h-1.4v-6.8c0-1.1-0.4-1.7-1.3-1.7
			c-0.9,0-1.9,0.7-2.6,1.4v7.1h-1.5V448.8z"/>
		<path fill="#FFFFFF" d="M551.1,448.7v1.4c-0.4,0-0.9,0.1-1.4,0.3c0.3,0.5,0.4,1.1,0.4,1.7c0,2.1-1.4,3.4-3.3,3.4
			c-0.5,0-0.9-0.1-1.3-0.2c-0.3,0.2-0.5,0.4-0.5,0.7c0,0.4,0.2,0.5,1.1,0.6l1.5,0.2c2.3,0.3,3.3,1,3.3,2.4c0,1.7-1.8,2.7-4.1,2.7
			c-2.7,0-3.7-0.9-3.7-2.3c0-1,0.6-1.7,1.5-2.1c-0.5-0.3-0.8-0.6-0.8-1.2c0-0.6,0.4-1.1,1-1.5c-0.8-0.6-1.3-1.6-1.3-2.8
			c0-2.1,1.4-3.4,3.3-3.4c1,0,1.8,0.3,2.4,1C549.7,449.2,550.4,448.8,551.1,448.7z M544.3,459.4c0,1,0.6,1.5,2.6,1.5
			c1.5,0,2.6-0.5,2.6-1.5c0-0.8-0.5-1.2-2.1-1.4l-1.5-0.2c-0.1,0-0.2,0-0.3,0C544.7,458.2,544.3,458.8,544.3,459.4z M548.7,452.1
			c0-1.4-0.7-2.3-1.9-2.3c-1.2,0-1.9,0.9-1.9,2.3c0,1.4,0.7,2.3,1.9,2.3C548,454.4,548.7,453.5,548.7,452.1z"/>
		<path fill="#FFFFFF" d="M552.2,453.6c0-3.4,1.8-5,3.7-5c2.1,0,3.4,1.7,3.4,4.9v0.4h-5.6c0.1,2.2,0.9,3.4,2.3,3.4
			c1.1,0,1.7-0.6,2.2-1.7l1,0.6c-0.7,1.4-1.8,2.3-3.3,2.3C553.8,458.5,552.2,456.9,552.2,453.6z M557.9,452.8
			c-0.1-1.7-0.7-2.9-2-2.9c-1.1,0-2,0.9-2.2,2.9H557.9z"/>
		<path fill="#FFFFFF" d="M560.3,456.6l1-0.7c0.6,1,1.6,1.5,2.6,1.5c1.2,0,1.9-0.5,1.9-1.4c0-2.3-5-1.4-5-4.8c0-1.5,1.2-2.6,3-2.6
			c1.4,0,2.4,0.7,3.1,1.7l-1,0.8c-0.5-0.7-1.2-1.3-2.2-1.3c-1.1,0-1.6,0.5-1.6,1.3c0,2.4,4.9,1.3,4.9,4.8c0,1.7-1.5,2.7-3.3,2.7
			C562.2,458.5,561.1,457.8,560.3,456.6z"/>
		<path fill="#FFFFFF" d="M569.5,456.2V450h-1.4v-1.2h1.4v-3.4h1.4v3.4h2.1v1.2H571v5.8c0,1,0.3,1.4,1.3,1.4c0.3,0,0.6-0.1,0.8-0.1
			v1.2c-0.2,0.1-0.7,0.1-1.1,0.1C570.2,458.4,569.5,457.8,569.5,456.2z"/>
		<path fill="#FFFFFF" d="M578.4,448.8h1.5v1.6h0c0.5-1,1.5-1.8,3-1.8h0.2L583,450c0,0-0.3,0-0.3,0c-1.2,0-2.3,0.8-2.8,1.9v6.4h-1.5
			V448.8z"/>
		<path fill="#FFFFFF" d="M584.1,453.6c0-3.4,1.8-5,3.7-5c2.1,0,3.4,1.7,3.4,4.9v0.4h-5.6c0.1,2.2,0.9,3.4,2.3,3.4
			c1.1,0,1.7-0.6,2.2-1.7l1,0.6c-0.7,1.4-1.8,2.3-3.3,2.3C585.7,458.5,584.1,456.9,584.1,453.6z M589.8,452.8
			c-0.1-1.7-0.7-2.9-2-2.9c-1.1,0-2,0.9-2.2,2.9H589.8z M588.1,445h1.7l-2.2,2.8h-1L588.1,445z"/>
		<path fill="#FFFFFF" d="M592.3,456.6l1-0.7c0.6,1,1.6,1.5,2.6,1.5c1.2,0,1.9-0.5,1.9-1.4c0-2.3-5-1.4-5-4.8c0-1.5,1.2-2.6,3-2.6
			c1.4,0,2.4,0.7,3.1,1.7l-1,0.8c-0.5-0.7-1.2-1.3-2.2-1.3c-1.1,0-1.6,0.5-1.6,1.3c0,2.4,4.9,1.3,4.9,4.8c0,1.7-1.5,2.7-3.3,2.7
			C594.2,458.5,593,457.8,592.3,456.6z"/>
		<path fill="#FFFFFF" d="M600.8,455.9v-7.1h1.4v6.8c0,1.1,0.4,1.7,1.4,1.7c0.9,0,1.7-0.6,2.5-1.4v-7.1h1.5v9.5h-1.5V457
			c-0.7,0.8-1.7,1.5-3,1.5C601.6,458.5,600.8,457.6,600.8,455.9z"/>
		<path fill="#FFFFFF" d="M609.9,448.8h1.5v1.3c0.7-0.7,1.7-1.5,2.9-1.5c1.3,0,1.9,0.5,2.2,1.5c0.7-0.8,1.7-1.5,3-1.5
			c1.5,0,2.3,0.9,2.3,2.6v7.1h-1.4v-6.8c0-1.1-0.4-1.7-1.3-1.7c-0.9,0-1.7,0.6-2.4,1.3v7.1h-1.5v-6.8c0-1.1-0.3-1.7-1.3-1.7
			c-0.8,0-1.6,0.6-2.4,1.4v7.1h-1.5V448.8z"/>
		<path fill="#FFFFFF" d="M623.5,453.6c0-3.4,1.8-5,3.7-5c2.1,0,3.4,1.7,3.4,4.9v0.4h-5.6c0.1,2.2,0.9,3.4,2.3,3.4
			c1.1,0,1.7-0.6,2.2-1.7l1,0.6c-0.7,1.4-1.8,2.3-3.3,2.3C625.1,458.5,623.5,456.9,623.5,453.6z M629.2,452.8
			c-0.1-1.7-0.7-2.9-2-2.9c-1.1,0-2,0.9-2.2,2.9H629.2z M627.5,445h1.7l-2.2,2.8h-1L627.5,445z"/>
		<path fill="#FFFFFF" d="M635.2,456.6l1-0.7c0.6,1,1.6,1.5,2.6,1.5c1.2,0,1.9-0.5,1.9-1.4c0-2.3-5-1.4-5-4.8c0-1.5,1.2-2.6,3-2.6
			c1.4,0,2.4,0.7,3.1,1.7l-1,0.8c-0.5-0.7-1.2-1.3-2.2-1.3c-1.1,0-1.6,0.5-1.6,1.3c0,2.4,4.9,1.3,4.9,4.8c0,1.7-1.5,2.7-3.3,2.7
			C637.1,458.5,635.9,457.8,635.2,456.6z"/>
		<path fill="#FFFFFF" d="M643.7,455.9v-7.1h1.4v6.8c0,1.1,0.4,1.7,1.4,1.7c0.9,0,1.7-0.6,2.5-1.4v-7.1h1.5v9.5h-1.5V457
			c-0.7,0.8-1.7,1.5-3,1.5C644.5,458.5,643.7,457.6,643.7,455.9z"/>
		<path fill="#FFFFFF" d="M654.3,457.2v1.1h-1.5V445h1.5v5c0.6-0.7,1.4-1.4,2.6-1.4c1.9,0,3.2,1.5,3.2,4.9c0,3.4-1.5,4.9-3.3,4.9
			C655.7,458.5,655,458,654.3,457.2z M658.7,453.6c0-2.5-0.9-3.7-2.1-3.7c-0.9,0-1.6,0.6-2.2,1.3v4.8c0.7,0.8,1.4,1.3,2.3,1.3
			C657.8,457.3,658.7,456.2,658.7,453.6z"/>
		<path fill="#FFFFFF" d="M662,448.8h1.5v1.3c0.7-0.7,1.7-1.5,2.9-1.5c1.3,0,1.9,0.5,2.2,1.5c0.7-0.8,1.7-1.5,3-1.5
			c1.5,0,2.3,0.9,2.3,2.6v7.1h-1.4v-6.8c0-1.1-0.4-1.7-1.3-1.7c-0.9,0-1.7,0.6-2.4,1.3v7.1h-1.5v-6.8c0-1.1-0.3-1.7-1.3-1.7
			c-0.8,0-1.6,0.6-2.4,1.4v7.1H662V448.8z"/>
		<path fill="#FFFFFF" d="M676.1,445.4h1.5v1.6h-1.5V445.4z M676.1,448.8h1.5v9.5h-1.5V448.8z"/>
		<path fill="#FFFFFF" d="M680.5,456.2V450h-1.4v-1.2h1.4v-3.4h1.4v3.4h2.1v1.2H682v5.8c0,1,0.3,1.4,1.3,1.4c0.3,0,0.6-0.1,0.8-0.1
			v1.2c-0.2,0.1-0.7,0.1-1.1,0.1C681.2,458.4,680.5,457.8,680.5,456.2z"/>
		<path fill="#FFFFFF" d="M686.4,456.2V450H685v-1.2h1.4v-3.4h1.4v3.4h2.1v1.2h-2.1v5.8c0,1,0.3,1.4,1.3,1.4c0.3,0,0.6-0.1,0.8-0.1
			v1.2c-0.2,0.1-0.7,0.1-1.1,0.1C687,458.4,686.4,457.8,686.4,456.2z"/>
		<path fill="#FFFFFF" d="M691.2,453.6c0-3.4,1.8-5,3.7-5c2.1,0,3.4,1.7,3.4,4.9v0.4h-5.6c0.1,2.2,0.9,3.4,2.3,3.4
			c1.1,0,1.7-0.6,2.2-1.7l1,0.6c-0.7,1.4-1.8,2.3-3.3,2.3C692.8,458.5,691.2,456.9,691.2,453.6z M696.9,452.8
			c-0.1-1.7-0.7-2.9-2-2.9c-1.1,0-2,0.9-2.2,2.9H696.9z"/>
		<path fill="#FFFFFF" d="M699.7,453.6c0-3.4,1.4-5,3.3-5c1.1,0,1.9,0.5,2.6,1.3v-5h1.4v11c0,1.2,0.1,1.9,0.2,2.3h-1.5
			c-0.1-0.3-0.2-0.9-0.2-1.2c-0.6,0.7-1.4,1.4-2.6,1.4C701.1,458.5,699.7,457,699.7,453.6z M705.6,456v-4.8
			c-0.7-0.8-1.4-1.3-2.3-1.3c-1.3,0-2.1,1.1-2.1,3.7c0,2.5,0.9,3.7,2.2,3.7C704.2,457.3,705,456.7,705.6,456z"/>
		<path fill="#FFFFFF" d="M709.4,448.8h1.7v1.9h-1.7V448.8z M709.4,456.5h1.7v1.9h-1.7V456.5z"/>
	</g>
	<circle fill="#353535" cx="719.6" cy="559" r="50.9"/>
	<g>
		<g>
			<path fill="#AAABAC" d="M714.6,528.2v62.6c0,0.6-0.5,1.1-1.1,1.1h-5.1c-0.6,0-1-0.5-1-1.1v-52.1h-6.5c-0.6,0-1.1-0.5-1.1-1.1
				v-2.7c0-0.6,0.5-1.1,1-1.1c8-2.9,5.9-6.7,9.3-6.7c0.8,0,3.4,0,3.4,0C714.1,527.1,714.6,527.6,714.6,528.2z"/>
			<path fill="#AAABAC" d="M736.4,528.2v62.6c0,0.6-0.5,1.1-1.1,1.1h-5.1c-0.6,0-1-0.5-1-1.1v-52.1h-6.5c-0.6,0-1.1-0.5-1.1-1.1
				v-2.7c0-0.6,0.5-1.1,1-1.1c8-2.9,5.9-6.7,9.3-6.7c0.8,0,3.4,0,3.4,0C735.9,527.1,736.4,527.6,736.4,528.2z"/>
		</g>
	</g>
	<g>
		<path fill="#FFFFFF" d="M699.4,557.1c0,4.2-2.6,6.7-6.4,6.7h-1.7v9.5c0,0.2-0.2,0.4-0.4,0.4h-1.8c-0.2,0-0.4-0.2-0.4-0.4v-22.5
			c0-0.2,0.2-0.4,0.4-0.4h3.9C696.9,550.3,699.4,552.5,699.4,557.1z M696.8,557c0-1.8-0.5-4.1-3.6-4.1h-1.8v8.2h1.8
			C696.2,561.1,696.8,559.2,696.8,557z"/>
		<path fill="#FFFFFF" d="M711.5,573.2c0,0.2-0.2,0.4-0.4,0.4h-2c-0.2,0-0.4-0.1-0.4-0.4l-0.7-4.5h-5.3l-0.7,4.5
			c-0.1,0.3-0.2,0.4-0.4,0.4h-2c-0.2,0-0.4-0.2-0.4-0.4l4.2-22.5c0.1-0.2,0.2-0.4,0.4-0.4h3c0.2,0,0.3,0.2,0.4,0.4L711.5,573.2z
			 M707.5,566.2l-2.2-13l-2.2,13H707.5z"/>
		<path fill="#FFFFFF" d="M724.8,562.9v10.5c0,0.1-0.1,0.3-0.3,0.3h-0.7c-0.1,0-0.3-0.1-0.3-0.2l-0.2-1.1c-1,1.1-2.4,1.7-4.1,1.7
			c-3.2,0-5.5-2.3-5.5-5.6v-12.9c0-3.4,1.8-5.6,5.3-5.6c3.5,0,5.3,2.2,5.3,5.6v2.2c0,0.2-0.2,0.4-0.4,0.4H722
			c-0.2,0-0.4-0.2-0.4-0.4v-2.1c0-2.2-1.1-3.1-2.6-3.1c-1.5,0-2.6,0.8-2.6,3.1v12.8c0,2.2,1.3,3.1,2.8,3.1c1.5,0,2.8-0.8,2.8-3.1
			V565h-1.5c-0.2,0-0.4-0.1-0.4-0.4v-1.8c0-0.2,0.2-0.4,0.4-0.4h3.9C724.6,562.5,724.8,562.6,724.8,562.9z"/>
		<path fill="#FFFFFF" d="M730.8,552.9v7.2h4.6c0.2,0,0.4,0.2,0.4,0.4v1.7c0,0.2-0.2,0.4-0.4,0.4h-4.6v8.4h6.6
			c0.2,0,0.4,0.2,0.4,0.4v1.8c0,0.2-0.2,0.4-0.4,0.4h-9c-0.2,0-0.4-0.2-0.4-0.4v-22.5c0-0.2,0.2-0.4,0.4-0.4h9
			c0.2,0,0.4,0.2,0.4,0.4v1.8c0,0.2-0.2,0.4-0.4,0.4H730.8z"/>
		<path fill="#FFFFFF" d="M750.7,566.5c0,0.6,0,2.2,0,2.2c0,3.2-2.3,5.3-5.3,5.3c-3.2,0-5.5-2.3-5.5-5.8v-2.1c0-0.2,0.1-0.4,0.4-0.4
			h1.9c0.2,0,0.4,0.2,0.4,0.4v2.6c0,2.1,1.3,2.9,2.9,2.9c1.9,0,2.6-1.3,2.6-2.9v-1.9c0-1.4-0.5-2.1-2.3-3.7l-2.8-2.6
			c-1.5-1.4-2.7-3.5-2.7-5.1c0-3.3,1.9-5.5,5.2-5.5c3.2,0,5.3,2.2,5.3,5.6v1.9c0,0.2-0.1,0.3-0.3,0.3h-2c-0.1,0-0.3-0.1-0.3-0.3
			v-2.2c0-2.2-1.1-3-2.6-3c-1.5,0-2.4,1-2.4,3c0,0.5,0.1,1.7,2.1,3.5c0.6,0.6,3.5,3.3,3.5,3.3C750.6,563.9,750.7,565.6,750.7,566.5z
			"/>
	</g>
</g>
<g>
	<g>
		<path fill="none" stroke="#353535" stroke-width="3" stroke-linecap="round" stroke-linejoin="round" stroke-miterlimit="10" d="
			M585,711.5h-43.7c-1.7,0-3-1.3-3-3v-18.8c0-1.7,1.3-3,3-3H585c1.7,0,3,1.3,3,3v18.8C588,710.1,586.7,711.5,585,711.5z"/>
		<path fill="none" stroke="#353535" stroke-width="3" stroke-linecap="round" stroke-linejoin="round" stroke-miterlimit="10" d="
			M578.8,680.4h-31.2c-1.7,0-3-1.3-3-3v-25c0-1.7,1.3-3,3-3h31.2c1.7,0,3,1.3,3,3v25C581.8,679.1,580.5,680.4,578.8,680.4z"/>
		
			<circle fill="none" stroke="#353535" stroke-width="3" stroke-linecap="round" stroke-linejoin="round" stroke-miterlimit="10" cx="555.4" cy="660.3" r="4.7"/>
		
			<circle fill="none" stroke="#353535" stroke-width="3" stroke-linecap="round" stroke-linejoin="round" stroke-miterlimit="10" cx="571" cy="660.3" r="4.7"/>
		
			<line fill="none" stroke="#353535" stroke-width="3" stroke-linecap="round" stroke-linejoin="round" stroke-miterlimit="10" x1="550.8" y1="671.1" x2="550.8" y2="674.2"/>
		
			<line fill="none" stroke="#353535" stroke-width="3" stroke-linecap="round" stroke-linejoin="round" stroke-miterlimit="10" x1="557" y1="671.1" x2="557" y2="674.2"/>
		
			<line fill="none" stroke="#353535" stroke-width="3" stroke-linecap="round" stroke-linejoin="round" stroke-miterlimit="10" x1="563.2" y1="671.1" x2="563.2" y2="674.2"/>
		
			<line fill="none" stroke="#353535" stroke-width="3" stroke-linecap="round" stroke-linejoin="round" stroke-miterlimit="10" x1="569.4" y1="671.1" x2="569.4" y2="674.2"/>
		
			<line fill="none" stroke="#353535" stroke-width="3" stroke-linecap="round" stroke-linejoin="round" stroke-miterlimit="10" x1="575.6" y1="671.1" x2="575.6" y2="674.2"/>
		
			<line fill="none" stroke="#353535" stroke-width="3" stroke-linecap="round" stroke-linejoin="round" stroke-miterlimit="10" x1="547.7" y1="734.7" x2="547.7" y2="739.4"/>
		
			<line fill="none" stroke="#353535" stroke-width="3" stroke-linecap="round" stroke-linejoin="round" stroke-miterlimit="10" x1="553.9" y1="734.7" x2="553.9" y2="739.4"/>
		
			<line fill="none" stroke="#353535" stroke-width="3" stroke-linecap="round" stroke-linejoin="round" stroke-miterlimit="10" x1="572.5" y1="734.7" x2="572.5" y2="739.4"/>
		
			<line fill="none" stroke="#353535" stroke-width="3" stroke-linecap="round" stroke-linejoin="round" stroke-miterlimit="10" x1="578.7" y1="734.7" x2="578.7" y2="739.4"/>
		<path fill="none" stroke="#353535" stroke-width="3" stroke-linecap="round" stroke-linejoin="round" stroke-miterlimit="10" d="
			M586,671.1h-4.2v-12.4h4.2c1.1,0,2,0.9,2,2v8.4C588,670.2,587.1,671.1,586,671.1z"/>
		<path fill="none" stroke="#353535" stroke-width="3" stroke-linecap="round" stroke-linejoin="round" stroke-miterlimit="10" d="
			M544.6,671.1h-4.2c-1.1,0-2-0.9-2-2v-8.4c0-1.1,0.9-2,2-2h4.2V671.1z"/>
		
			<rect x="553.9" y="680.4" fill="none" stroke="#353535" stroke-width="3" stroke-linecap="round" stroke-linejoin="round" stroke-miterlimit="10" width="18.6" height="6.2"/>
		<path fill="none" stroke="#353535" stroke-width="3" stroke-linecap="round" stroke-linejoin="round" stroke-miterlimit="10" d="
			M522.8,678.9L522.8,678.9c-3.4,0-6.2-2.8-6.2-6.2V668h12.4v4.7C529.1,676.1,526.3,678.9,522.8,678.9z"/>
		<path fill="none" stroke="#353535" stroke-width="3" stroke-linecap="round" stroke-linejoin="round" stroke-miterlimit="10" d="
			M522.8,678.9v4.7c0,3.4,2.8,6.2,6.2,6.2h9.3"/>
		
			<line fill="none" stroke="#353535" stroke-width="3" stroke-linecap="round" stroke-linejoin="round" stroke-miterlimit="10" x1="526" y1="661.8" x2="526" y2="668"/>
		<path fill="none" stroke="#353535" stroke-width="3" stroke-linecap="round" stroke-linejoin="round" stroke-miterlimit="10" d="
			M600.4,700.6L600.4,700.6c3.4,0,6.2,2.8,6.2,6.2v4.7h-12.4v-4.7C594.2,703.4,597,700.6,600.4,700.6z"/>
		<path fill="none" stroke="#353535" stroke-width="3" stroke-linecap="round" stroke-linejoin="round" stroke-miterlimit="10" d="
			M600.4,700.6v-4.7c0-3.4-2.8-6.2-6.2-6.2H588"/>
		
			<rect x="547.7" y="695.9" fill="none" stroke="#353535" stroke-width="3" stroke-linecap="round" stroke-linejoin="round" stroke-miterlimit="10" width="9.3" height="6.2"/>
		<path fill="none" stroke="#353535" stroke-width="3" stroke-linecap="round" stroke-linejoin="round" stroke-miterlimit="10" d="
			M560.1,739.4h-18.6v-6.2c0-5.1,4.2-9.3,9.3-9.3l0,0c5.1,0,9.3,4.2,9.3,9.3V739.4z"/>
		<path fill="none" stroke="#353535" stroke-width="3" stroke-linecap="round" stroke-linejoin="round" stroke-miterlimit="10" d="
			M584.9,739.4h-18.6v-6.2c0-5.1,4.2-9.3,9.3-9.3l0,0c5.1,0,9.3,4.2,9.3,9.3V739.4z"/>
		
			<line fill="none" stroke="#353535" stroke-width="3" stroke-linecap="round" stroke-linejoin="round" stroke-miterlimit="10" x1="550.8" y1="711.5" x2="550.8" y2="723.9"/>
		
			<line fill="none" stroke="#353535" stroke-width="3" stroke-linecap="round" stroke-linejoin="round" stroke-miterlimit="10" x1="575.6" y1="711.5" x2="575.6" y2="723.9"/>
		
			<line fill="none" stroke="#353535" stroke-width="3" stroke-linecap="round" stroke-linejoin="round" stroke-miterlimit="10" x1="566.3" y1="697.5" x2="566.3" y2="700.6"/>
		
			<line fill="none" stroke="#353535" stroke-width="3" stroke-linecap="round" stroke-linejoin="round" stroke-miterlimit="10" x1="572.5" y1="697.5" x2="572.5" y2="700.6"/>
		
			<line fill="none" stroke="#353535" stroke-width="3" stroke-linecap="round" stroke-linejoin="round" stroke-miterlimit="10" x1="578.7" y1="697.5" x2="578.7" y2="700.6"/>
	</g>
</g>
</svg>
