<?xml version="1.0" encoding="utf-8"?>
<!-- Generator: Adobe Illustrator 17.1.0, SVG Export Plug-In . SVG Version: 6.00 Build 0)  -->
<!DOCTYPE svg PUBLIC "-//W3C//DTD SVG 1.1//EN" "http://www.w3.org/Graphics/SVG/1.1/DTD/svg11.dtd">
<svg version="1.1" id="Layer_1" xmlns="http://www.w3.org/2000/svg" xmlns:xlink="http://www.w3.org/1999/xlink" x="0px" y="0px"
	 viewBox="0 0 796.7 748.8" enable-background="new 0 0 796.7 748.8" xml:space="preserve">
<g>
	<path fill="#353535" d="M60.6,545.3v9.2c0,1.1-0.9,2-2,2H9.9c-1.1,0-2-0.9-2-2c0,0,0-10.3,0-11.5c0-7.9,4-20.9,10.6-28.8
		c3.8-4.7,16-19.3,19.4-23.2c7.7-9.4,9.7-13,9.7-21.4c0-8.8-2.2-19.1-13-19.1c-5.9,0-13.1,2.3-13.1,19.1v6.7c0,1.1-0.9,2-2,2h-9.4
		c-1.1,0-2-0.9-2-2v-7.6c0-18.4,8.8-30.8,26.8-30.8c16.6,0,25.7,12.1,25.9,30.2v3.1c0,14.2-6.7,20.9-13.1,29
		c-13.1,15.7-25.9,29-25.9,40.5v2.9h36.7C59.7,543.5,60.6,544.4,60.6,545.3z"/>
	<path fill="#353535" d="M74.3,545.1c0-0.9,0.7-1.8,1.8-1.8h10.1c0.9,0,1.8,0.9,1.8,1.8v9.5c0,1.1-0.9,1.8-1.8,1.8H76.1
		c-1.1,0-1.8-0.7-1.8-1.8V545.1z"/>
	<path fill="#353535" d="M156.2,465.9v10.8V530c0,16.9-10.1,28.4-26.5,28.4s-27-11.5-27-28.4v-11c0-0.9,0.9-1.8,1.8-1.8h9.9
		c1.1,0,1.8,0.9,1.8,1.8v12.1c0,10.8,6.8,14.2,13.1,14.2c5.2,0,13-2.9,13-14.2v-34.6c-3.8,5.8-9.7,6.7-13.1,6.7
		c-16.4,0-26.5-11.5-26.5-28.6v-8.6c0-17.1,10.1-28.3,26.6-28.3C145.4,437.7,156.2,448.8,156.2,465.9z M142.4,465.8
		c0-10.8-5.2-15.1-12.8-15.1c-7.9,0-12.8,4.3-12.8,15.1v9.2c0,11.2,5.4,15.3,12.8,15.3c7.6,0,12.8-4.3,12.8-15.3V465.8z"/>
	<path fill="#353535" d="M223.4,545.3v9.2c0,1.1-0.9,2-2,2h-48.8c-1.1,0-2-0.9-2-2c0,0,0-10.3,0-11.5c0-7.9,4-20.9,10.6-28.8
		c3.8-4.7,16-19.3,19.4-23.2c7.7-9.4,9.7-13,9.7-21.4c0-8.8-2.2-19.1-13-19.1c-5.9,0-13.1,2.3-13.1,19.1v6.7c0,1.1-0.9,2-2,2H173
		c-1.1,0-2-0.9-2-2v-7.6c0-18.4,8.8-30.8,26.8-30.8c16.6,0,25.7,12.1,25.9,30.2v3.1c0,14.2-6.7,20.9-13.1,29
		c-13.1,15.7-25.9,29-25.9,40.5v2.9h36.7C222.5,543.5,223.4,544.4,223.4,545.3z"/>
	<path fill="#353535" d="M302.7,499.1v6.8c0,1.1-0.7,1.8-1.8,1.8h-12.1v12.4c0,0.9-0.9,1.8-1.8,1.8h-7.2c-1.1,0-1.8-0.9-1.8-1.8
		v-12.4h-12.2c-0.9,0-1.8-0.7-1.8-1.8v-6.8c0-0.9,0.9-1.8,1.8-1.8h12.2V485c0-1.1,0.7-1.8,1.8-1.8h7.2c0.9,0,1.8,0.7,1.8,1.8v12.2
		h12.1C302,497.3,302.7,498.2,302.7,499.1z"/>
	<path fill="#353535" d="M367.2,441.8v112.7c0,1.1-0.9,2-2,2H356c-1.1,0-1.8-0.9-1.8-2v-93.8h-11.7c-1.1,0-2-0.9-2-2v-4.9
		c0-1.1,0.9-2,1.8-2c14.4-5.2,10.6-12.1,16.7-12.1c1.4,0,6.1,0,6.1,0C366.3,439.8,367.2,440.7,367.2,441.8z"/>
</g>
<circle fill="none" stroke="#FFFFFF" stroke-width="2" stroke-miterlimit="10" cx="258.4" cy="563.7" r="56.1"/>
<g>
	<g>
		<path fill="#FFFFFF" d="M242.8,545.5h-3.4v-1.4h8.4v1.4h-3.4v11.9h-1.5V545.5z"/>
		<path fill="#FFFFFF" d="M248.9,552.7c0-3.4,1.8-5,3.7-5c2.1,0,3.4,1.7,3.4,4.9v0.4h-5.6c0.1,2.2,0.9,3.4,2.3,3.4
			c1.1,0,1.7-0.6,2.3-1.7l1,0.6c-0.7,1.4-1.8,2.3-3.3,2.3C250.5,557.6,248.9,556,248.9,552.7z M254.6,551.9c-0.1-1.7-0.7-2.9-2-2.9
			c-1.1,0-2,0.9-2.2,2.9H254.6z"/>
		<path fill="#FFFFFF" d="M257.3,555.2c0-1.9,1.6-3.3,5.3-4v-0.6c0-1.1-0.5-1.6-1.4-1.6c-1.2,0-2.1,0.6-2.8,1.3l-0.8-0.9
			c1-1,2.3-1.7,3.8-1.7c1.9,0,2.7,1,2.7,2.9v4.5c0,1.2,0.1,1.9,0.2,2.3h-1.5c-0.1-0.4-0.2-0.7-0.2-1.2c-0.8,0.8-1.8,1.4-3,1.4
			C258.2,557.5,257.3,556.7,257.3,555.2z M262.6,555.1v-2.9c-2.9,0.6-3.9,1.6-3.9,2.8c0,1,0.5,1.4,1.3,1.4
			C261.1,556.3,262,555.8,262.6,555.1z"/>
		<path fill="#FFFFFF" d="M266.3,547.9h1.5v1.3c0.7-0.7,1.7-1.5,2.9-1.5c1.3,0,1.9,0.5,2.2,1.5c0.7-0.8,1.7-1.5,3-1.5
			c1.5,0,2.3,0.9,2.3,2.6v7.1h-1.4v-6.8c0-1.1-0.4-1.7-1.3-1.7c-0.9,0-1.7,0.6-2.4,1.3v7.1h-1.5v-6.8c0-1.1-0.3-1.7-1.3-1.7
			c-0.8,0-1.6,0.6-2.4,1.4v7.1h-1.5V547.9z"/>
		<path fill="#FFFFFF" d="M226.7,568.1h1.9l3.4,11.2h0l3.3-11.2h1.9v13.3h-1.5v-10.9h0c-0.2,0.8-0.6,2.3-0.9,3.4l-2.3,7.5h-1.2
			l-2.3-7.6c-0.3-1-0.7-2.5-0.9-3.4h0v10.9h-1.4V568.1z"/>
		<path fill="#FFFFFF" d="M239.3,576.7c0-3.4,1.8-5,3.7-5c2.1,0,3.4,1.7,3.4,4.9v0.4h-5.6c0.1,2.2,0.9,3.4,2.3,3.4
			c1.1,0,1.7-0.6,2.3-1.7l1,0.6c-0.7,1.4-1.8,2.3-3.3,2.3C240.9,581.6,239.3,580,239.3,576.7z M245,575.9c-0.1-1.7-0.7-2.9-2-2.9
			c-1.1,0-2,0.9-2.2,2.9H245z"/>
		<path fill="#FFFFFF" d="M248.2,571.9h1.5v1.3c0.7-0.7,1.7-1.5,2.9-1.5c1.3,0,1.9,0.5,2.2,1.5c0.7-0.8,1.7-1.5,3-1.5
			c1.5,0,2.3,0.9,2.3,2.6v7.1h-1.4v-6.8c0-1.1-0.4-1.7-1.3-1.7c-0.9,0-1.7,0.6-2.4,1.3v7.1h-1.5v-6.8c0-1.1-0.3-1.7-1.3-1.7
			c-0.8,0-1.6,0.6-2.4,1.4v7.1h-1.5V571.9z"/>
		<path fill="#FFFFFF" d="M263.7,580.3v1.1h-1.5v-13.3h1.5v5c0.6-0.7,1.4-1.4,2.6-1.4c1.9,0,3.2,1.5,3.2,4.9c0,3.4-1.5,4.9-3.3,4.9
			C265.1,581.6,264.3,581.1,263.7,580.3z M268.1,576.7c0-2.5-0.9-3.7-2.1-3.7c-0.9,0-1.6,0.6-2.2,1.3v4.8c0.7,0.8,1.4,1.3,2.3,1.3
			C267.2,580.3,268.1,579.3,268.1,576.7z"/>
		<path fill="#FFFFFF" d="M270.9,576.7c0-3.4,1.8-5,3.7-5c2.1,0,3.4,1.7,3.4,4.9v0.4h-5.6c0.1,2.2,0.9,3.4,2.3,3.4
			c1.1,0,1.7-0.6,2.3-1.7l1,0.6c-0.7,1.4-1.8,2.3-3.3,2.3C272.5,581.6,270.9,580,270.9,576.7z M276.6,575.9c-0.1-1.7-0.7-2.9-2-2.9
			c-1.1,0-2,0.9-2.2,2.9H276.6z"/>
		<path fill="#FFFFFF" d="M279.8,571.9h1.5v1.6h0c0.5-1,1.5-1.8,3-1.8h0.2l-0.1,1.4c0,0-0.3,0-0.3,0c-1.2,0-2.3,0.8-2.8,1.9v6.4
			h-1.5V571.9z"/>
		<path fill="#FFFFFF" d="M285.2,579.7l1-0.7c0.6,1,1.6,1.5,2.6,1.5c1.2,0,1.9-0.5,1.9-1.4c0-2.3-5-1.4-5-4.8c0-1.5,1.2-2.6,3-2.6
			c1.4,0,2.4,0.7,3.1,1.7l-1,0.8c-0.5-0.7-1.2-1.3-2.2-1.3c-1.1,0-1.6,0.5-1.6,1.3c0,2.4,4.9,1.3,4.9,4.8c0,1.7-1.5,2.7-3.3,2.7
			C287.2,581.6,286,580.8,285.2,579.7z"/>
	</g>
</g>
<circle fill="none" stroke="#FFFFFF" stroke-width="2" stroke-miterlimit="10" cx="431.6" cy="495.5" r="45.6"/>
<g>
	<g>
		<path fill="#FFFFFF" d="M415.6,477.4h1.5v7c0.2-0.4,0.8-1.3,1.4-2.1l3.5-4.9h1.6l-3.7,5.2l4.3,8.2h-1.6l-3.6-6.9l-1.8,2.5v4.4
			h-1.5V477.4z"/>
		<path fill="#FFFFFF" d="M425.7,486.4v-8.9h1.5v8.8c0,2.2,0.7,3.5,2.7,3.5c2,0,2.7-1.3,2.7-3.4v-8.8h1.5v8.9c0,2.7-1.2,4.6-4.1,4.6
			C426.9,491,425.7,489.1,425.7,486.4z"/>
		<path fill="#FFFFFF" d="M436.7,477.4h3.9c2.5,0,4,1.1,4,3.3c0,1.9-1,2.7-2.1,3v0c1.4,0.3,2.5,1.2,2.5,3.3c0,2.3-1.5,3.6-4.1,3.6
			h-4.2V477.4z M440.5,483.3c1.7,0,2.6-0.6,2.6-2.3s-0.8-2.3-2.6-2.3h-2.3v4.5H440.5z M440.8,489.4c1.8,0,2.6-0.8,2.6-2.4
			c0-1.8-1.1-2.4-2.9-2.4h-2.4v4.9H440.8z"/>
		<path fill="#FFFFFF" d="M447.2,477.4h1.5v13.3h-1.5V477.4z"/>
		<path fill="#FFFFFF" d="M412.1,501.4h3.8c2.6,0,4.1,1.2,4.1,3.8c0,2.1-1.2,3.2-2.5,3.6l2.7,5.9h-1.5l-2.6-5.7h-2.4v5.7h-1.5V501.4
			z M415.8,507.8c1.8,0,2.7-0.7,2.7-2.6c0-1.8-0.9-2.4-2.7-2.4h-2.2v5H415.8z"/>
		<path fill="#FFFFFF" d="M421.7,510c0-3.3,1.6-5,3.8-5c2.1,0,3.7,1.7,3.7,5c0,3.3-1.6,5-3.7,5S421.7,513.3,421.7,510z M427.7,510
			c0-2.1-0.7-3.7-2.3-3.7c-1.5,0-2.3,1.5-2.3,3.7c0,2.1,0.7,3.7,2.3,3.7C426.9,513.7,427.7,512.2,427.7,510z"/>
		<path fill="#FFFFFF" d="M432.5,513.6v1.1H431v-13.3h1.5v5c0.6-0.7,1.4-1.4,2.6-1.4c1.9,0,3.2,1.5,3.2,4.9c0,3.4-1.5,4.9-3.3,4.9
			C433.9,514.9,433.1,514.4,432.5,513.6z M436.9,510c0-2.5-0.9-3.7-2.1-3.7c-0.9,0-1.6,0.6-2.2,1.3v4.8c0.7,0.8,1.4,1.3,2.3,1.3
			C436,513.7,436.9,512.6,436.9,510z"/>
		<path fill="#FFFFFF" d="M439.7,510c0-3.3,1.6-5,3.8-5c2.1,0,3.7,1.7,3.7,5c0,3.3-1.6,5-3.7,5S439.7,513.3,439.7,510z M445.8,510
			c0-2.1-0.7-3.7-2.3-3.7c-1.5,0-2.3,1.5-2.3,3.7c0,2.1,0.7,3.7,2.3,3.7C445,513.7,445.8,512.2,445.8,510z"/>
		<path fill="#FFFFFF" d="M449.6,512.6v-6.2h-1.4v-1.2h1.4v-3.4h1.4v3.4h2.1v1.2h-2.1v5.8c0,1,0.3,1.4,1.3,1.4
			c0.3,0,0.6-0.1,0.8-0.1v1.2c-0.2,0.1-0.7,0.1-1.1,0.1C450.3,514.9,449.6,514.2,449.6,512.6z"/>
	</g>
</g>
<line fill="none" stroke="#353535" stroke-width="4" stroke-linecap="round" stroke-linejoin="round" stroke-miterlimit="10" x1="512.6" y1="25.2" x2="793.7" y2="25.2"/>
<g>
	<path fill="#353535" d="M519.4,10.5L519.4,10.5h-2.2v3.2h-2.8V2.4h5c3,0,4.7,1.4,4.7,3.9c0,1.7-0.7,2.9-2,3.6l2.4,3.7h-3.2
		L519.4,10.5z M519.3,8.2c1.2,0,2-0.6,2-1.8c0-1.2-0.7-1.8-2-1.8h-2.2v3.6H519.3z"/>
	<path fill="#353535" d="M530.4,4.6v2.2h5.3v2.2h-5.3v2.3h6.1v2.2h-8.9V2.4h8.8v2.2H530.4z"/>
	<path fill="#353535" d="M548.6,3.5l-1.1,2.2c-1.2-0.7-2.7-1.2-3.6-1.2c-0.7,0-1.2,0.3-1.2,0.8c0,1.9,5.9,0.8,5.9,4.9
		c0,2.2-2,3.4-4.5,3.4c-1.9,0-3.8-0.7-5.1-1.8l1.1-2.2c1.2,1,2.9,1.7,4,1.7c0.9,0,1.5-0.3,1.5-1c0-2-5.9-0.8-5.9-4.8
		c0-2.1,1.8-3.4,4.5-3.4C545.8,2.3,547.5,2.8,548.6,3.5z"/>
	<path fill="#353535" d="M561.9,8.9c0,3-2,4.8-5.1,4.8c-3.2,0-5.2-1.9-5.2-4.8V2.4h2.8v6.5c0,1.5,1,2.4,2.3,2.4
		c1.3,0,2.3-0.9,2.3-2.4V2.4h2.8V8.9z"/>
	<path fill="#353535" d="M575.3,13.6l0-7.3l-2.7,6.2h-1.9l-2.7-6.2v7.3h-2.5V2.4h3.1l3,6.7l3-6.7h3.1v11.2H575.3z"/>
	<path fill="#353535" d="M584.5,4.6v2.2h5.3v2.2h-5.3v2.3h6.1v2.2h-8.9V2.4h8.8v2.2H584.5z"/>
	<path fill="#353535" d="M604.7,2.4c2.5,0,4.1,1.1,4.1,2.8c0,1.2-0.7,2.1-1.9,2.5c1.4,0.3,2.3,1.4,2.3,2.8c0,1.9-1.7,3.1-4.3,3.1
		h-5.5V2.4H604.7z M602.2,6.9h2.3c0.8,0,1.4-0.4,1.4-1.2s-0.5-1.1-1.4-1.1h-2.3V6.9z M602.2,11.4h2.3c1.1,0,1.7-0.5,1.7-1.3
		c0-0.8-0.7-1.2-1.7-1.2h-2.3V11.4z"/>
	<path fill="#353535" d="M623.8,8c0,3.3-2.6,5.7-6.1,5.7c-3.5,0-6-2.5-6-5.7c0-3.3,2.6-5.7,6-5.7C621.2,2.3,623.8,4.7,623.8,8z
		 M614.6,8c0,1.9,1.5,3.3,3.2,3.3c1.7,0,3.1-1.5,3.1-3.3c0-1.9-1.4-3.3-3.1-3.3C616,4.7,614.6,6.1,614.6,8z"/>
	<path fill="#353535" d="M631.7,4.7v8.9h-2.8V4.7h-3.3V2.4h9.6v2.3H631.7z"/>
</g>
<rect x="2" y="685.4" fill="none" stroke="#FFFFFF" stroke-width="4" stroke-linecap="round" stroke-linejoin="round" stroke-miterlimit="10" width="481.8" height="60.3"/>
<g>
	<path fill="#FFFFFF" d="M27.6,708.7v2.2c0,0.2-0.2,0.4-0.4,0.4h-1.9c-0.2,0-0.4-0.2-0.4-0.4v-2.1c0-2.2-1.1-3.1-2.7-3.1
		c-1.5,0-2.6,0.8-2.6,3.1v12.8c0,2.2,1.1,3.1,2.6,3.1c1.5,0,2.7-0.8,2.7-3.1v-2.2c0-0.2,0.2-0.4,0.4-0.4h1.9c0.2,0,0.4,0.2,0.4,0.4
		v2.2c0,3.3-2.1,5.6-5.3,5.6c-3.2,0-5.3-2.3-5.3-5.6v-12.9c0-3.4,1.8-5.6,5.3-5.6C25.7,703.1,27.6,705.3,27.6,708.7z"/>
	<path fill="#FFFFFF" d="M41,708.7v12.9c0,3.3-2.1,5.6-5.3,5.6c-3.2,0-5.3-2.3-5.3-5.6v-12.9c0-3.4,1.8-5.6,5.3-5.6
		C39.2,703.1,41,705.3,41,708.7z M38.3,708.7c0-2.2-1-3.1-2.6-3.1c-1.5,0-2.6,0.8-2.6,3.1v12.8c0,2.2,1,3.1,2.6,3.1
		c1.5,0,2.6-0.8,2.6-3.1V708.7z"/>
	<path fill="#FFFFFF" d="M55.2,721c0,3.5-1.8,5.8-5.3,5.8h-5c-0.2,0-0.4-0.2-0.4-0.4v-22.5c0-0.2,0.2-0.4,0.4-0.4h5
		c3.8,0,5.4,2.7,5.4,6.3V721z M49.9,724.1c1.8,0,2.5-1.2,2.5-2.6v-12.5c0-1.5-0.5-3-2.5-3h-2.8v18.1H49.9z"/>
	<path fill="#FFFFFF" d="M61.4,706.1v7.2h4.6c0.2,0,0.4,0.2,0.4,0.4v1.7c0,0.2-0.2,0.4-0.4,0.4h-4.6v8.4H68c0.2,0,0.4,0.2,0.4,0.4
		v1.8c0,0.2-0.2,0.4-0.4,0.4h-9c-0.2,0-0.4-0.2-0.4-0.4v-22.5c0-0.2,0.2-0.4,0.4-0.4h9c0.2,0,0.4,0.2,0.4,0.4v1.8
		c0,0.2-0.2,0.4-0.4,0.4H61.4z"/>
	<path fill="#FFFFFF" d="M87.1,708.7v2.2c0,0.2-0.2,0.4-0.4,0.4h-1.9c-0.2,0-0.4-0.2-0.4-0.4v-2.1c0-2.2-1.1-3.1-2.7-3.1
		c-1.5,0-2.6,0.8-2.6,3.1v12.8c0,2.2,1.1,3.1,2.6,3.1c1.5,0,2.7-0.8,2.7-3.1v-2.2c0-0.2,0.2-0.4,0.4-0.4h1.9c0.2,0,0.4,0.2,0.4,0.4
		v2.2c0,3.3-2.1,5.6-5.3,5.6c-3.2,0-5.3-2.3-5.3-5.6v-12.9c0-3.4,1.8-5.6,5.3-5.6C85.2,703.1,87.1,705.3,87.1,708.7z"/>
	<path fill="#FFFFFF" d="M100.5,708.7v12.9c0,3.3-2.1,5.6-5.3,5.6c-3.2,0-5.3-2.3-5.3-5.6v-12.9c0-3.4,1.8-5.6,5.3-5.6
		C98.7,703.1,100.5,705.3,100.5,708.7z M97.8,708.7c0-2.2-1-3.1-2.6-3.1c-1.5,0-2.6,0.8-2.6,3.1v12.8c0,2.2,1,3.1,2.6,3.1
		c1.5,0,2.6-0.8,2.6-3.1V708.7z"/>
	<path fill="#FFFFFF" d="M119.2,703.8v22.5c0,0.2-0.2,0.4-0.4,0.4h-1.7c-0.2,0-0.4-0.2-0.4-0.4v-16.7l-3.9,16.8
		c0,0.1-0.2,0.3-0.4,0.3h-1.8c-0.1,0-0.3-0.1-0.4-0.3c0,0-3.8-16.2-3.9-16.8v16.7c0,0.2-0.2,0.4-0.4,0.4h0h-1.7
		c-0.2,0-0.4-0.2-0.4-0.4v-22.5c0-0.2,0.2-0.4,0.4-0.4h2.4c0.2,0,0.4,0.1,0.4,0.4l4.4,18.8l4.4-18.8c0-0.2,0.3-0.4,0.4-0.4h2.4
		C119,703.4,119.2,703.6,119.2,703.8z"/>
	<path fill="#FFFFFF" d="M138,703.8v22.5c0,0.2-0.2,0.4-0.4,0.4h-1.7c-0.2,0-0.4-0.2-0.4-0.4v-16.7l-3.9,16.8c0,0.1-0.2,0.3-0.4,0.3
		h-1.8c-0.1,0-0.3-0.1-0.4-0.3c0,0-3.8-16.2-3.9-16.8v16.7c0,0.2-0.2,0.4-0.4,0.4h0h-1.7c-0.2,0-0.4-0.2-0.4-0.4v-22.5
		c0-0.2,0.2-0.4,0.4-0.4h2.4c0.2,0,0.4,0.1,0.4,0.4l4.4,18.8l4.4-18.8c0-0.2,0.3-0.4,0.4-0.4h2.4C137.8,703.4,138,703.6,138,703.8z"
		/>
	<path fill="#FFFFFF" d="M145.7,706v18.1h1.8c0.2,0,0.4,0.2,0.4,0.4v1.9c0,0.2-0.2,0.4-0.4,0.4h-6.1c-0.2,0-0.4-0.1-0.4-0.4v-1.9
		c0-0.2,0.2-0.4,0.4-0.4h1.8V706h-1.8c-0.2,0-0.4-0.1-0.4-0.4v-1.9c0-0.2,0.2-0.4,0.4-0.4h6.1c0.2,0,0.4,0.1,0.4,0.4v1.9
		c0,0.2-0.2,0.4-0.4,0.4H145.7z"/>
	<path fill="#FFFFFF" d="M160.2,703.8v1.8c0,0.2-0.2,0.4-0.4,0.4h-3.4v20.3c0,0.2-0.2,0.4-0.4,0.4H154c-0.2,0-0.4-0.2-0.4-0.4V706
		h-3.4c-0.2,0-0.4-0.2-0.4-0.4v-1.8c0-0.2,0.2-0.4,0.4-0.4h9.5C160,703.4,160.2,703.6,160.2,703.8z"/>
	<path fill="#FFFFFF" d="M172.8,719.6c0,0.6,0,2.2,0,2.2c0,3.2-2.3,5.3-5.3,5.3c-3.2,0-5.5-2.3-5.5-5.8v-2.1c0-0.2,0.1-0.4,0.4-0.4
		h1.9c0.2,0,0.4,0.2,0.4,0.4v2.6c0,2.1,1.3,2.9,2.9,2.9c1.9,0,2.6-1.3,2.6-2.9V720c0-1.4-0.5-2.1-2.3-3.7l-2.8-2.6
		c-1.5-1.4-2.7-3.5-2.7-5.1c0-3.3,1.9-5.5,5.2-5.5c3.2,0,5.3,2.2,5.3,5.6v1.9c0,0.2-0.1,0.3-0.3,0.3h-2c-0.1,0-0.3-0.1-0.3-0.3v-2.2
		c0-2.2-1.1-3-2.6-3c-1.5,0-2.4,1-2.4,3c0,0.5,0.1,1.7,2.1,3.5c0.6,0.6,3.5,3.3,3.5,3.3C172.6,717,172.8,718.8,172.8,719.6z"/>
</g>
<g>
	<path fill="#FFFFFF" d="M422.5,703.8v22.5c0,0.2-0.2,0.4-0.4,0.4h-1.8c-0.2,0-0.4-0.2-0.4-0.4v-18.8h-2.3c-0.2,0-0.4-0.2-0.4-0.4
		v-1c0-0.2,0.2-0.4,0.4-0.4c2.9-1,2.1-2.4,3.3-2.4c0.3,0,1.2,0,1.2,0C422.3,703.4,422.5,703.6,422.5,703.8z"/>
	<path fill="#FFFFFF" d="M436.5,708.7v2.2v10.7c0,3.4-2,5.7-5.3,5.7s-5.4-2.3-5.4-5.7v-2.2c0-0.2,0.2-0.4,0.4-0.4h2
		c0.2,0,0.4,0.2,0.4,0.4v2.4c0,2.2,1.4,2.8,2.6,2.8c1,0,2.6-0.6,2.6-2.8v-6.9c-0.8,1.2-1.9,1.3-2.6,1.3c-3.3,0-5.3-2.3-5.3-5.7v-1.7
		c0-3.4,2-5.7,5.3-5.7C434.4,703,436.5,705.2,436.5,708.7z M433.7,708.6c0-2.2-1-3-2.6-3c-1.6,0-2.6,0.9-2.6,3v1.8
		c0,2.2,1.1,3.1,2.6,3.1c1.5,0,2.6-0.9,2.6-3.1V708.6z"/>
	<path fill="#FFFFFF" d="M450.4,708.7v2.2v10.7c0,3.4-2,5.7-5.3,5.7s-5.4-2.3-5.4-5.7v-2.2c0-0.2,0.2-0.4,0.4-0.4h2
		c0.2,0,0.4,0.2,0.4,0.4v2.4c0,2.2,1.4,2.8,2.6,2.8c1,0,2.6-0.6,2.6-2.8v-6.9c-0.8,1.2-1.9,1.3-2.6,1.3c-3.3,0-5.3-2.3-5.3-5.7v-1.7
		c0-3.4,2-5.7,5.3-5.7C448.2,703,450.4,705.2,450.4,708.7z M447.6,708.6c0-2.2-1-3-2.6-3c-1.6,0-2.6,0.9-2.6,3v1.8
		c0,2.2,1.1,3.1,2.6,3.1c1.5,0,2.6-0.9,2.6-3.1V708.6z"/>
	<path fill="#FFFFFF" d="M464.4,719v2.2c0,4-1.9,6-5.5,6c-3.7,0-5.4-2-5.5-6V719c0-1.5,0.5-2.7,1.3-3.6c0.3-0.3,0.6-0.5,0.9-0.7
		c-1.2-0.8-2-2.1-2-3.9v-1.9c0-3.5,1.5-5.8,5.3-5.8c3.6,0,5.3,2.3,5.3,5.8v1.9c0,1.8-0.8,3.1-2,3.9c0.3,0.2,0.6,0.4,0.9,0.7
		C463.9,716.3,464.4,717.5,464.4,719z M458.9,724.6c1.4,0,2.7-0.8,2.7-3V719c0-2.1-1.3-2.8-2.7-2.8c-1.5,0-2.8,0.8-2.8,2.8v2.6
		C456.1,723.8,457.4,724.6,458.9,724.6z M458.9,705.6c-1.5,0-2.5,0.8-2.5,3v1.9c0,2.2,1,3,2.5,3c1.5,0,2.4-0.8,2.4-3v-1.9
		C461.3,706.5,460.3,705.6,458.9,705.6z"/>
</g>
<g>
	<path fill="#353535" d="M629.9,709.9v1.4c0,0.2-0.1,0.4-0.4,0.4h-2.5l-1,5.6h2.1c0.2,0,0.4,0.1,0.4,0.4v1.4c0,0.2-0.2,0.4-0.4,0.4
		h-2.5l-1.2,6.3c0,0.2-0.3,0.4-0.4,0.4h-1.5c-0.2,0-0.3-0.1-0.3-0.4l1.2-6.3h-2.9l-1.2,6.3c0,0.2-0.2,0.4-0.4,0.4h-1.5
		c-0.2,0-0.3-0.1-0.3-0.4l1.2-6.3h-2.2c-0.2,0-0.4-0.2-0.4-0.4v-1.4c0-0.2,0.2-0.4,0.4-0.4h2.6l1.1-5.6h-2.2c-0.2,0-0.4-0.2-0.4-0.4
		v-1.4c0-0.2,0.2-0.4,0.4-0.4h2.6l1.2-6.4c0-0.2,0.2-0.4,0.4-0.4h1.5c0.2,0,0.3,0.1,0.3,0.4l-1.2,6.4h2.9l1.2-6.4
		c0-0.2,0.2-0.4,0.4-0.4h1.5c0.2,0,0.3,0.1,0.3,0.4l-1.2,6.4h2.1C629.8,709.5,629.9,709.7,629.9,709.9z M624.9,711.7H622l-1.1,5.6
		h2.9L624.9,711.7z"/>
	<path fill="#353535" d="M636.4,703.2v22.5c0,0.2-0.2,0.4-0.4,0.4h-1.8c-0.2,0-0.4-0.2-0.4-0.4V707h-2.3c-0.2,0-0.4-0.2-0.4-0.4v-1
		c0-0.2,0.2-0.4,0.4-0.4c2.9-1,2.1-2.4,3.3-2.4c0.3,0,1.2,0,1.2,0C636.2,702.8,636.4,703,636.4,703.2z"/>
	<path fill="#353535" d="M655.8,708v2.2c0,0.2-0.2,0.4-0.4,0.4h-1.9c-0.2,0-0.4-0.2-0.4-0.4v-2.1c0-2.2-1.1-3.1-2.7-3.1
		c-1.5,0-2.6,0.8-2.6,3.1v12.8c0,2.2,1.1,3.1,2.6,3.1c1.5,0,2.7-0.8,2.7-3.1v-2.2c0-0.2,0.2-0.4,0.4-0.4h1.9c0.2,0,0.4,0.2,0.4,0.4
		v2.2c0,3.3-2.1,5.6-5.3,5.6c-3.2,0-5.3-2.3-5.3-5.6V708c0-3.4,1.8-5.6,5.3-5.6C654,702.4,655.8,704.6,655.8,708z"/>
	<path fill="#353535" d="M669.3,703.2v17.7c0,3.3-2.1,5.6-5.3,5.6c-3.2,0-5.3-2.3-5.3-5.6v-17.7c0-0.2,0.2-0.4,0.4-0.4h1.9
		c0.2,0,0.4,0.2,0.4,0.4v17.7c0,2.2,1.1,3.1,2.6,3.1c1.5,0,2.6-0.8,2.6-3.1v-17.7c0-0.2,0.2-0.4,0.4-0.4h1.9
		C669.2,702.8,669.3,703,669.3,703.2z"/>
	<path fill="#353535" d="M682.1,703.2v1.8c0,0.2-0.2,0.4-0.4,0.4h-3.4v20.3c0,0.2-0.2,0.4-0.4,0.4H676c-0.2,0-0.4-0.2-0.4-0.4v-20.3
		h-3.4c-0.2,0-0.4-0.2-0.4-0.4v-1.8c0-0.2,0.2-0.4,0.4-0.4h9.5C681.9,702.8,682.1,703,682.1,703.2z"/>
	<path fill="#353535" d="M687.4,705.4v7.2h4.6c0.2,0,0.4,0.2,0.4,0.4v1.7c0,0.2-0.2,0.4-0.4,0.4h-4.6v8.4h6.6c0.2,0,0.4,0.2,0.4,0.4
		v1.8c0,0.2-0.2,0.4-0.4,0.4h-9c-0.2,0-0.4-0.2-0.4-0.4v-22.5c0-0.2,0.2-0.4,0.4-0.4h9c0.2,0,0.4,0.2,0.4,0.4v1.8
		c0,0.2-0.2,0.4-0.4,0.4H687.4z"/>
	<path fill="#353535" d="M707.3,719c0,0.6,0,2.2,0,2.2c0,3.2-2.3,5.3-5.3,5.3c-3.2,0-5.5-2.3-5.5-5.8v-2.1c0-0.2,0.1-0.4,0.4-0.4
		h1.9c0.2,0,0.4,0.2,0.4,0.4v2.6c0,2.1,1.3,2.9,2.9,2.9c1.9,0,2.6-1.3,2.6-2.9v-1.9c0-1.4-0.5-2.1-2.3-3.7l-2.8-2.6
		c-1.5-1.4-2.7-3.5-2.7-5.1c0-3.3,1.9-5.5,5.2-5.5c3.2,0,5.3,2.2,5.3,5.6v1.9c0,0.2-0.1,0.3-0.3,0.3h-2c-0.1,0-0.3-0.1-0.3-0.3v-2.2
		c0-2.2-1.1-3-2.6-3c-1.5,0-2.4,1-2.4,3c0,0.5,0.1,1.7,2.1,3.5c0.6,0.6,3.5,3.3,3.5,3.3C707.2,716.4,707.3,718.1,707.3,719z"/>
	<path fill="#353535" d="M719.3,703.2v1.8c0,0.2-0.2,0.4-0.4,0.4h-3.4v20.3c0,0.2-0.2,0.4-0.4,0.4h-1.9c-0.2,0-0.4-0.2-0.4-0.4
		v-20.3h-3.4c-0.2,0-0.4-0.2-0.4-0.4v-1.8c0-0.2,0.2-0.4,0.4-0.4h9.5C719.2,702.8,719.3,703,719.3,703.2z"/>
	<path fill="#353535" d="M730,723.5h6.7c0.2,0,0.4,0.1,0.4,0.4v1.9c0,0.2-0.1,0.4-0.4,0.4h-9c-0.2,0-0.4-0.2-0.4-0.4v-22.5
		c0-0.2,0.2-0.4,0.4-0.4h1.9c0.2,0,0.4,0.2,0.4,0.4V723.5z"/>
	<path fill="#353535" d="M750.1,708v12.9c0,3.3-2.1,5.6-5.3,5.6c-3.2,0-5.3-2.3-5.3-5.6V708c0-3.4,1.8-5.6,5.3-5.6
		C748.2,702.4,750.1,704.6,750.1,708z M747.3,708.1c0-2.2-1-3.1-2.6-3.1c-1.5,0-2.6,0.8-2.6,3.1v12.8c0,2.2,1,3.1,2.6,3.1
		c1.5,0,2.6-0.8,2.6-3.1V708.1z"/>
	<path fill="#353535" d="M764.4,715.4v10.5c0,0.1-0.1,0.3-0.3,0.3h-0.7c-0.1,0-0.3-0.1-0.3-0.2l-0.2-1.1c-1,1.1-2.4,1.7-4.1,1.7
		c-3.2,0-5.5-2.3-5.5-5.6V708c0-3.4,1.8-5.6,5.3-5.6c3.5,0,5.3,2.2,5.3,5.6v2.2c0,0.2-0.2,0.4-0.4,0.4h-1.9c-0.2,0-0.4-0.2-0.4-0.4
		v-2.1c0-2.2-1.1-3.1-2.6-3.1c-1.5,0-2.6,0.8-2.6,3.1v12.8c0,2.2,1.3,3.1,2.8,3.1c1.5,0,2.8-0.8,2.8-3.1v-3.4h-1.5
		c-0.2,0-0.4-0.1-0.4-0.4v-1.8c0-0.2,0.2-0.4,0.4-0.4h3.9C764.3,715,764.4,715.2,764.4,715.4z"/>
	<path fill="#353535" d="M778.2,708v12.9c0,3.3-2.1,5.6-5.3,5.6c-3.2,0-5.3-2.3-5.3-5.6V708c0-3.4,1.8-5.6,5.3-5.6
		C776.3,702.4,778.2,704.6,778.2,708z M775.4,708.1c0-2.2-1-3.1-2.6-3.1c-1.5,0-2.6,0.8-2.6,3.1v12.8c0,2.2,1,3.1,2.6,3.1
		c1.5,0,2.6-0.8,2.6-3.1V708.1z"/>
</g>
<g>
	
		<circle fill="none" stroke="#353535" stroke-width="6" stroke-linecap="round" stroke-linejoin="round" stroke-miterlimit="10" cx="652.1" cy="367.4" r="121.1"/>
	
		<circle fill="none" stroke="#353535" stroke-width="6" stroke-linecap="round" stroke-linejoin="round" stroke-miterlimit="10" cx="652.1" cy="217.2" r="29.1"/>
	
		<polyline fill="none" stroke="#353535" stroke-width="6" stroke-linecap="round" stroke-linejoin="round" stroke-miterlimit="10" points="
		646.8,246.3 646.8,220 657.4,220 657.4,246.3 	"/>
	
		<rect x="756.4" y="249.8" transform="matrix(0.7071 -0.7071 0.7071 0.7071 35.4246 614.9956)" fill="none" stroke="#353535" stroke-width="6" stroke-linecap="round" stroke-linejoin="round" stroke-miterlimit="10" width="7.4" height="29.8"/>
	
		<line fill="none" stroke="#353535" stroke-width="6" stroke-linecap="round" stroke-linejoin="round" stroke-miterlimit="10" x1="757.4" y1="267.4" x2="740.2" y2="284.6"/>
	
		<rect x="539" y="249.8" transform="matrix(-0.7071 -0.7071 0.7071 -0.7071 739.2883 835.6964)" fill="none" stroke="#353535" stroke-width="6" stroke-linecap="round" stroke-linejoin="round" stroke-miterlimit="10" width="7.4" height="29.8"/>
	
		<line fill="none" stroke="#353535" stroke-width="6" stroke-linecap="round" stroke-linejoin="round" stroke-miterlimit="10" x1="545.4" y1="267.4" x2="562.6" y2="284.6"/>
</g>
<g>
	<path fill="#FFFFFF" d="M567,368c0-0.5,0.4-1,1-1h5.6c0.5,0,1,0.5,1,1v5.3c0,0.6-0.5,1-1,1H568c-0.6,0-1-0.4-1-1V368z"/>
	<path fill="#FFFFFF" d="M612.1,324.1v35.8c0,9.3-5.9,15.6-14.5,15.6c-8.4,0-14.4-6.3-14.4-15.6v-35.8c0-9.4,5.4-15.6,14.4-15.6
		C606.8,308.5,612.1,314.7,612.1,324.1z M604.5,324.3c0-6.2-2.8-8.6-6.9-8.6c-3.9,0-6.8,2.4-6.8,8.6v35.4c0,6.2,2.9,8.6,6.8,8.6
		c4.1,0,6.9-2.4,6.9-8.6V324.3z"/>
	<path fill="#FFFFFF" d="M649.4,368.1v5.1c0,0.6-0.5,1.1-1.1,1.1h-27.1c-0.6,0-1.1-0.5-1.1-1.1c0,0,0-5.7,0-6.4
		c0-4.4,2.2-11.6,5.9-16c2.1-2.6,8.9-10.7,10.8-12.9c4.3-5.2,5.4-7.2,5.4-11.9c0-4.9-1.2-10.6-7.2-10.6c-3.3,0-7.3,1.3-7.3,10.6v3.7
		c0,0.6-0.5,1.1-1.1,1.1h-5.2c-0.6,0-1.1-0.5-1.1-1.1v-4.2c0-10.2,4.9-17.1,14.9-17.1c9.2,0,14.3,6.7,14.4,16.8v1.7
		c0,7.9-3.7,11.6-7.3,16.1c-7.3,8.7-14.4,16.1-14.4,22.5v1.6h20.4C648.9,367.1,649.4,367.6,649.4,368.1z"/>
	<path fill="#FFFFFF" d="M687.3,352.9v6.7c0,8.4-5.7,15.8-15.1,15.8c-9.1,0-14.6-6.4-14.6-14.5v-35.4c0-10.7,5.5-17,14.5-17
		c9.1,0,15,6.3,15,15.7v5.1c0,0.6-0.5,1-0.9,1h-5.8c-0.5,0-1-0.4-1-1v-5.6c0-4.3-1.6-8-7.1-8c-5.1,0-7.1,3.7-7.1,8v17
		c2.1-3.3,5.4-3.5,7.9-3.5C680.6,337.2,687.3,343.1,687.3,352.9z M665.1,352.7v7.9c0,5.3,3,7.9,7.3,7.9c4.3,0,7.3-3.5,7.3-7.9v-7.9
		c0-6-3-8.3-7.3-8.3C668.3,344.4,665.1,346.7,665.1,352.7z"/>
	<path fill="#FFFFFF" d="M725.9,347.5c0,4.9,0,10.6,0,10.6c0,8.8-3.8,17.3-14.9,17.3c-10.9,0-14.7-7.7-14.7-17.3v-4.4
		c0-0.6,0.5-1.1,1.1-1.1h5.3c0.6,0,1.1,0.5,1.1,1.1v5c0,4.7,0.6,9.5,7.4,9.5c6.2,0,7.1-4.8,7.1-9.5v-13.2c0-6.9-4.4-8.5-7.1-8.5
		c-2.9,0-6,0.9-7.1,3.8l-0.3,0.8c-0.2,0.3-0.6,0.5-1,0.5h-5.4c-0.5,0-1-0.3-1.1-0.8c0,0,0-1,0-1.4v-21v-8.2c0-0.6,0.5-1.1,1.1-1.1
		h7.2h19.9c0.5,0,1,0.5,1,1.1v5.1c0,0.6-0.5,1.1-1,1.1h-20.6v16.6c1.4-3.5,5.3-3.8,8.4-3.8C721.6,329.7,725.9,335.5,725.9,347.5z"/>
</g>
<g>
	<g>
		<path fill="#353535" d="M593.4,414.3H592l3.9-13.4h1.4l3.9,13.4h-1.5l-1.1-3.8h-4.2L593.4,414.3z M597.7,407.1
			c-0.5-1.6-0.8-2.8-1.1-4.1h0c-0.3,1.3-0.7,2.5-1.1,4.1l-0.6,2.1h3.4L597.7,407.1z"/>
		<path fill="#353535" d="M602,404.7h1.5l1.5,5.4c0.2,0.8,0.4,1.5,0.7,2.6h0c0.3-1.1,0.4-1.7,0.7-2.6l1.5-5.4h1.4l-2.9,9.5h-1.5
			L602,404.7z"/>
		<path fill="#353535" d="M610.3,409.5c0-3.4,1.8-5,3.7-5c2.1,0,3.4,1.7,3.4,4.9v0.4h-5.6c0.1,2.2,0.9,3.4,2.3,3.4
			c1.1,0,1.7-0.6,2.3-1.7l1,0.6c-0.7,1.4-1.8,2.3-3.3,2.3C611.9,414.5,610.3,412.8,610.3,409.5z M616,408.7c-0.1-1.7-0.7-2.9-2-2.9
			c-1.1,0-2,0.9-2.2,2.9H616z"/>
		<path fill="#353535" d="M619.2,404.7h1.5v1.6h0c0.5-1,1.5-1.8,3-1.8h0.2l-0.1,1.4c0,0-0.3,0-0.3,0c-1.2,0-2.3,0.8-2.8,1.9v6.4
			h-1.5V404.7z"/>
		<path fill="#353535" d="M624.9,412c0-1.9,1.6-3.3,5.3-4v-0.6c0-1.1-0.5-1.6-1.4-1.6c-1.2,0-2.1,0.6-2.8,1.3l-0.8-0.9
			c1-1,2.2-1.7,3.8-1.7c1.9,0,2.7,1,2.7,2.9v4.5c0,1.2,0.1,1.9,0.2,2.3h-1.5c-0.1-0.4-0.2-0.7-0.2-1.2c-0.8,0.8-1.8,1.4-3,1.4
			C625.8,414.4,624.9,413.5,624.9,412z M630.2,412V409c-2.9,0.6-3.9,1.6-3.9,2.8c0,1,0.5,1.4,1.3,1.4
			C628.7,413.2,629.6,412.7,630.2,412z"/>
		<path fill="#353535" d="M641.2,404.6v1.4c-0.4,0-0.9,0.1-1.4,0.3c0.3,0.5,0.4,1.1,0.4,1.7c0,2.1-1.4,3.4-3.3,3.4
			c-0.5,0-0.9-0.1-1.3-0.2c-0.3,0.2-0.5,0.4-0.5,0.7c0,0.4,0.2,0.5,1.1,0.6l1.5,0.2c2.3,0.3,3.3,1,3.3,2.4c0,1.7-1.8,2.7-4.1,2.7
			c-2.7,0-3.7-0.9-3.7-2.3c0-1,0.6-1.7,1.5-2.1c-0.5-0.3-0.8-0.6-0.8-1.2c0-0.6,0.4-1.1,1-1.5c-0.8-0.6-1.3-1.6-1.3-2.8
			c0-2.1,1.4-3.4,3.3-3.4c1,0,1.8,0.3,2.4,1C639.8,405.1,640.6,404.7,641.2,404.6z M634.4,415.4c0,1,0.6,1.5,2.6,1.5
			c1.5,0,2.6-0.5,2.6-1.5c0-0.8-0.5-1.2-2.1-1.4l-1.5-0.2c-0.1,0-0.2,0-0.3,0C634.8,414.1,634.4,414.7,634.4,415.4z M638.8,408
			c0-1.4-0.7-2.3-1.9-2.3c-1.2,0-1.9,0.9-1.9,2.3c0,1.4,0.7,2.3,1.9,2.3C638.1,410.3,638.8,409.4,638.8,408z"/>
		<path fill="#353535" d="M642.3,409.5c0-3.4,1.8-5,3.7-5c2.1,0,3.4,1.7,3.4,4.9v0.4h-5.6c0.1,2.2,0.9,3.4,2.3,3.4
			c1.1,0,1.7-0.6,2.3-1.7l1,0.6c-0.7,1.4-1.8,2.3-3.3,2.3C643.9,414.5,642.3,412.8,642.3,409.5z M648,408.7c-0.1-1.7-0.7-2.9-2-2.9
			c-1.1,0-2,0.9-2.2,2.9H648z"/>
		<path fill="#353535" d="M658.4,404.7h1.5v1.6h0c0.5-1,1.5-1.8,3-1.8h0.2l-0.1,1.4c0,0-0.3,0-0.3,0c-1.2,0-2.2,0.8-2.8,1.9v6.4
			h-1.5V404.7z"/>
		<path fill="#353535" d="M664.2,409.5c0-3.4,1.8-5,3.7-5c2.1,0,3.4,1.7,3.4,4.9v0.4h-5.6c0.1,2.2,0.9,3.4,2.3,3.4
			c1.1,0,1.7-0.6,2.3-1.7l1,0.6c-0.7,1.4-1.8,2.3-3.3,2.3C665.8,414.5,664.2,412.8,664.2,409.5z M669.8,408.7
			c-0.1-1.7-0.7-2.9-2-2.9c-1.1,0-2,0.9-2.2,2.9H669.8z M668.1,400.9h1.7l-2.2,2.8h-1L668.1,400.9z"/>
		<path fill="#353535" d="M672.3,412.5l1-0.7c0.6,1,1.6,1.5,2.6,1.5c1.2,0,1.9-0.5,1.9-1.4c0-2.3-5-1.4-5-4.8c0-1.5,1.2-2.6,3-2.6
			c1.4,0,2.4,0.7,3.1,1.7l-1,0.8c-0.5-0.7-1.2-1.3-2.2-1.3c-1.1,0-1.6,0.5-1.6,1.3c0,2.4,4.9,1.3,4.9,4.8c0,1.7-1.5,2.7-3.3,2.7
			C674.2,414.5,673,413.7,672.3,412.5z"/>
		<path fill="#353535" d="M680.8,411.8v-7.1h1.4v6.8c0,1.1,0.4,1.7,1.4,1.7c0.9,0,1.7-0.6,2.5-1.4v-7.1h1.5v9.5h-1.5v-1.3
			c-0.7,0.8-1.7,1.5-3,1.5C681.7,414.5,680.8,413.5,680.8,411.8z"/>
		<path fill="#353535" d="M689.9,404.7h1.5v1.3c0.7-0.7,1.7-1.5,2.9-1.5c1.3,0,1.9,0.5,2.2,1.5c0.7-0.8,1.7-1.5,3-1.5
			c1.5,0,2.3,0.9,2.3,2.6v7.1h-1.4v-6.8c0-1.1-0.4-1.7-1.3-1.7c-0.9,0-1.7,0.6-2.4,1.3v7.1h-1.5v-6.8c0-1.1-0.3-1.7-1.3-1.7
			c-0.8,0-1.6,0.6-2.4,1.4v7.1h-1.5V404.7z"/>
		<path fill="#353535" d="M703.5,409.5c0-3.4,1.8-5,3.7-5c2.1,0,3.4,1.7,3.4,4.9v0.4H705c0.1,2.2,0.9,3.4,2.3,3.4
			c1.1,0,1.7-0.6,2.2-1.7l1,0.6c-0.7,1.4-1.8,2.3-3.3,2.3C705.1,414.5,703.5,412.8,703.5,409.5z M709.2,408.7
			c-0.1-1.7-0.7-2.9-2-2.9c-1.1,0-2,0.9-2.2,2.9H709.2z M707.5,400.9h1.7l-2.2,2.8h-1L707.5,400.9z"/>
		<path fill="#353535" d="M607.9,434.7h1.5v1.2c0.6-0.7,1.4-1.4,2.6-1.4c1.9,0,3.2,1.5,3.2,4.9c0,3.4-1.4,4.9-3.3,4.9
			c-1.1,0-1.9-0.5-2.5-1.3v4.8h-1.5V434.7z M613.7,439.5c0-2.5-0.9-3.7-2.1-3.7c-0.9,0-1.7,0.6-2.2,1.3v4.8c0.7,0.8,1.4,1.3,2.3,1.3
			C612.8,443.2,613.7,442.1,613.7,439.5z"/>
		<path fill="#353535" d="M616.5,442c0-1.9,1.6-3.3,5.3-4v-0.6c0-1.1-0.5-1.6-1.4-1.6c-1.2,0-2.1,0.6-2.8,1.3l-0.8-0.9
			c1-1,2.3-1.7,3.8-1.7c1.9,0,2.7,1,2.7,2.9v4.5c0,1.2,0.1,1.9,0.2,2.3H622c-0.1-0.4-0.2-0.7-0.2-1.2c-0.8,0.8-1.8,1.4-3,1.4
			C617.3,444.4,616.5,443.5,616.5,442z M621.8,442V439c-2.9,0.6-3.9,1.6-3.9,2.8c0,1,0.5,1.4,1.3,1.4
			C620.2,443.2,621.1,442.7,621.8,442z"/>
		<path fill="#353535" d="M625.5,434.7h1.5v1.6h0c0.5-1,1.5-1.8,3-1.8h0.2l-0.1,1.4c0,0-0.3,0-0.3,0c-1.2,0-2.3,0.8-2.8,1.9v6.4
			h-1.5V434.7z"/>
		<path fill="#353535" d="M630.9,442.5l1-0.7c0.6,1,1.6,1.5,2.6,1.5c1.2,0,1.9-0.5,1.9-1.4c0-2.3-5-1.4-5-4.8c0-1.5,1.2-2.6,3-2.6
			c1.4,0,2.4,0.7,3.1,1.7l-1,0.8c-0.5-0.7-1.2-1.3-2.2-1.3c-1.1,0-1.6,0.5-1.6,1.3c0,2.4,4.9,1.3,4.9,4.8c0,1.7-1.5,2.7-3.3,2.7
			C632.8,444.5,631.6,443.7,630.9,442.5z"/>
		<path fill="#353535" d="M639.6,431.3h1.5v1.6h-1.5V431.3z M639.6,434.7h1.5v9.5h-1.5V434.7z"/>
		<path fill="#353535" d="M643.5,434.7h1.5v1.3c0.6-0.7,1.8-1.5,3-1.5c1.5,0,2.3,0.9,2.3,2.6v7.1h-1.4v-6.8c0-1.1-0.4-1.7-1.3-1.7
			c-0.9,0-1.9,0.7-2.6,1.4v7.1h-1.5V434.7z"/>
		<path fill="#353535" d="M659.8,434.6v1.4c-0.4,0-0.9,0.1-1.4,0.3c0.3,0.5,0.4,1.1,0.4,1.7c0,2.1-1.4,3.4-3.3,3.4
			c-0.5,0-0.9-0.1-1.3-0.2c-0.3,0.2-0.5,0.4-0.5,0.7c0,0.4,0.2,0.5,1.1,0.6l1.5,0.2c2.3,0.3,3.3,1,3.3,2.4c0,1.7-1.8,2.7-4.1,2.7
			c-2.7,0-3.7-0.9-3.7-2.3c0-1,0.6-1.7,1.5-2.1c-0.5-0.3-0.8-0.6-0.8-1.2c0-0.6,0.4-1.1,1-1.5c-0.8-0.6-1.3-1.6-1.3-2.8
			c0-2.1,1.4-3.4,3.3-3.4c1,0,1.8,0.3,2.4,1C658.4,435.1,659.2,434.7,659.8,434.6z M653,445.4c0,1,0.6,1.5,2.6,1.5
			c1.5,0,2.6-0.5,2.6-1.5c0-0.8-0.5-1.2-2.1-1.4l-1.5-0.2c-0.1,0-0.2,0-0.3,0C653.4,444.1,653,444.7,653,445.4z M657.4,438
			c0-1.4-0.7-2.3-1.9-2.3c-1.2,0-1.9,0.9-1.9,2.3c0,1.4,0.7,2.3,1.9,2.3C656.7,440.3,657.4,439.4,657.4,438z"/>
		<path fill="#353535" d="M665.5,442.1V436h-1.4v-1.2h1.4v-3.4h1.4v3.4h2.1v1.2H667v5.8c0,1,0.3,1.4,1.3,1.4c0.3,0,0.6-0.1,0.8-0.1
			v1.2c-0.2,0.1-0.7,0.1-1.1,0.1C666.2,444.4,665.5,443.8,665.5,442.1z"/>
		<path fill="#353535" d="M670.9,431.3h1.5v1.6h-1.5V431.3z M670.9,434.7h1.5v9.5h-1.5V434.7z"/>
		<path fill="#353535" d="M674.8,434.7h1.5v1.3c0.7-0.7,1.7-1.5,2.9-1.5c1.3,0,1.9,0.5,2.2,1.5c0.7-0.8,1.7-1.5,3-1.5
			c1.5,0,2.3,0.9,2.3,2.6v7.1h-1.4v-6.8c0-1.1-0.4-1.7-1.3-1.7c-0.9,0-1.7,0.6-2.4,1.3v7.1h-1.5v-6.8c0-1.1-0.3-1.7-1.3-1.7
			c-0.8,0-1.6,0.6-2.4,1.4v7.1h-1.5V434.7z"/>
		<path fill="#353535" d="M688.3,439.5c0-3.4,1.8-5,3.7-5c2.1,0,3.4,1.7,3.4,4.9v0.4h-5.6c0.1,2.2,0.9,3.4,2.3,3.4
			c1.1,0,1.7-0.6,2.2-1.7l1,0.6c-0.7,1.4-1.8,2.3-3.3,2.3C689.9,444.5,688.3,442.8,688.3,439.5z M694,438.7c-0.1-1.7-0.7-2.9-2-2.9
			c-1.1,0-2,0.9-2.2,2.9H694z"/>
	</g>
</g>
<line fill="none" stroke="#353535" stroke-miterlimit="10" stroke-dasharray="1,6" x1="511.8" y1="612.4" x2="793.7" y2="612.4"/>
<line fill="none" stroke="#353535" stroke-miterlimit="10" stroke-dasharray="1,6" x1="511.8" y1="490.9" x2="793.7" y2="490.9"/>
<g>
	
		<line fill="none" stroke="#353535" stroke-width="2" stroke-linecap="round" stroke-linejoin="round" stroke-miterlimit="10" x1="520.7" y1="563.3" x2="525.8" y2="563.3"/>
	
		<line fill="none" stroke="#353535" stroke-width="2" stroke-linecap="round" stroke-linejoin="round" stroke-miterlimit="10" x1="516.5" y1="567.4" x2="530" y2="567.4"/>
	
		<line fill="none" stroke="#353535" stroke-width="2" stroke-linecap="round" stroke-linejoin="round" stroke-miterlimit="10" x1="516.5" y1="571.6" x2="530" y2="571.6"/>
	
		<polygon fill="none" stroke="#353535" stroke-width="2" stroke-linecap="round" stroke-linejoin="round" stroke-miterlimit="10" points="
		534.1,580.9 512.4,580.9 512.4,552.9 529,552.9 534.1,558.1 	"/>
	
		<polyline fill="none" stroke="#353535" stroke-width="2" stroke-linecap="round" stroke-linejoin="round" stroke-miterlimit="10" points="
		529,552.9 529,558.1 534.1,558.1 	"/>
</g>
<g>
	
		<line fill="none" stroke="#353535" stroke-width="2" stroke-linecap="round" stroke-linejoin="round" stroke-miterlimit="10" x1="546.6" y1="563.3" x2="551.8" y2="563.3"/>
	
		<line fill="none" stroke="#353535" stroke-width="2" stroke-linecap="round" stroke-linejoin="round" stroke-miterlimit="10" x1="542.5" y1="567.4" x2="555.9" y2="567.4"/>
	
		<line fill="none" stroke="#353535" stroke-width="2" stroke-linecap="round" stroke-linejoin="round" stroke-miterlimit="10" x1="542.5" y1="571.6" x2="555.9" y2="571.6"/>
	
		<polygon fill="none" stroke="#353535" stroke-width="2" stroke-linecap="round" stroke-linejoin="round" stroke-miterlimit="10" points="
		560.1,580.9 538.3,580.9 538.3,552.9 554.9,552.9 560.1,558.1 	"/>
	
		<polyline fill="none" stroke="#353535" stroke-width="2" stroke-linecap="round" stroke-linejoin="round" stroke-miterlimit="10" points="
		554.9,552.9 554.9,558.1 560.1,558.1 	"/>
</g>
<g>
	
		<line fill="none" stroke="#353535" stroke-width="2" stroke-linecap="round" stroke-linejoin="round" stroke-miterlimit="10" x1="572.6" y1="563.3" x2="577.8" y2="563.3"/>
	
		<line fill="none" stroke="#353535" stroke-width="2" stroke-linecap="round" stroke-linejoin="round" stroke-miterlimit="10" x1="568.4" y1="567.4" x2="581.9" y2="567.4"/>
	
		<line fill="none" stroke="#353535" stroke-width="2" stroke-linecap="round" stroke-linejoin="round" stroke-miterlimit="10" x1="568.4" y1="571.6" x2="581.9" y2="571.6"/>
	
		<polygon fill="none" stroke="#353535" stroke-width="2" stroke-linecap="round" stroke-linejoin="round" stroke-miterlimit="10" points="
		586,580.9 564.3,580.9 564.3,552.9 580.9,552.9 586,558.1 	"/>
	
		<polyline fill="none" stroke="#353535" stroke-width="2" stroke-linecap="round" stroke-linejoin="round" stroke-miterlimit="10" points="
		580.9,552.9 580.9,558.1 586,558.1 	"/>
</g>
<g>
	
		<line fill="none" stroke="#353535" stroke-width="2" stroke-linecap="round" stroke-linejoin="round" stroke-miterlimit="10" x1="702.3" y1="563.3" x2="707.5" y2="563.3"/>
	
		<line fill="none" stroke="#353535" stroke-width="2" stroke-linecap="round" stroke-linejoin="round" stroke-miterlimit="10" x1="698.2" y1="567.4" x2="711.7" y2="567.4"/>
	
		<line fill="none" stroke="#353535" stroke-width="2" stroke-linecap="round" stroke-linejoin="round" stroke-miterlimit="10" x1="698.2" y1="571.6" x2="711.7" y2="571.6"/>
	
		<polygon fill="none" stroke="#353535" stroke-width="2" stroke-linecap="round" stroke-linejoin="round" stroke-miterlimit="10" points="
		715.8,580.9 694.1,580.9 694.1,552.9 710.6,552.9 715.8,558.1 	"/>
	
		<polyline fill="none" stroke="#353535" stroke-width="2" stroke-linecap="round" stroke-linejoin="round" stroke-miterlimit="10" points="
		710.6,552.9 710.6,558.1 715.8,558.1 	"/>
</g>
<g>
	
		<line fill="none" stroke="#353535" stroke-width="2" stroke-linecap="round" stroke-linejoin="round" stroke-miterlimit="10" x1="728.3" y1="563.3" x2="733.5" y2="563.3"/>
	
		<line fill="none" stroke="#353535" stroke-width="2" stroke-linecap="round" stroke-linejoin="round" stroke-miterlimit="10" x1="724.1" y1="567.4" x2="737.6" y2="567.4"/>
	
		<line fill="none" stroke="#353535" stroke-width="2" stroke-linecap="round" stroke-linejoin="round" stroke-miterlimit="10" x1="724.1" y1="571.6" x2="737.6" y2="571.6"/>
	
		<polygon fill="none" stroke="#353535" stroke-width="2" stroke-linecap="round" stroke-linejoin="round" stroke-miterlimit="10" points="
		741.8,580.9 720,580.9 720,552.9 736.6,552.9 741.8,558.1 	"/>
	
		<polyline fill="none" stroke="#353535" stroke-width="2" stroke-linecap="round" stroke-linejoin="round" stroke-miterlimit="10" points="
		736.6,552.9 736.6,558.1 741.8,558.1 	"/>
</g>
<g>
	
		<line fill="none" stroke="#353535" stroke-width="2" stroke-linecap="round" stroke-linejoin="round" stroke-miterlimit="10" x1="754.2" y1="563.3" x2="759.4" y2="563.3"/>
	
		<line fill="none" stroke="#353535" stroke-width="2" stroke-linecap="round" stroke-linejoin="round" stroke-miterlimit="10" x1="750.1" y1="567.4" x2="763.6" y2="567.4"/>
	
		<line fill="none" stroke="#353535" stroke-width="2" stroke-linecap="round" stroke-linejoin="round" stroke-miterlimit="10" x1="750.1" y1="571.6" x2="763.6" y2="571.6"/>
	
		<polygon fill="none" stroke="#353535" stroke-width="2" stroke-linecap="round" stroke-linejoin="round" stroke-miterlimit="10" points="
		767.7,580.9 746,580.9 746,552.9 762.5,552.9 767.7,558.1 	"/>
	
		<polyline fill="none" stroke="#353535" stroke-width="2" stroke-linecap="round" stroke-linejoin="round" stroke-miterlimit="10" points="
		762.5,552.9 762.5,558.1 767.7,558.1 	"/>
</g>
<g>
	
		<line fill="none" stroke="#353535" stroke-width="2" stroke-linecap="round" stroke-linejoin="round" stroke-miterlimit="10" x1="676.4" y1="563.2" x2="681.6" y2="563.2"/>
	
		<line fill="none" stroke="#353535" stroke-width="2" stroke-linecap="round" stroke-linejoin="round" stroke-miterlimit="10" x1="672.2" y1="567.4" x2="685.7" y2="567.4"/>
	
		<line fill="none" stroke="#353535" stroke-width="2" stroke-linecap="round" stroke-linejoin="round" stroke-miterlimit="10" x1="672.2" y1="571.5" x2="685.7" y2="571.5"/>
	
		<polygon fill="none" stroke="#353535" stroke-width="2" stroke-linecap="round" stroke-linejoin="round" stroke-miterlimit="10" points="
		689.9,580.8 668.1,580.8 668.1,552.9 684.7,552.9 689.9,558 	"/>
	
		<polyline fill="none" stroke="#353535" stroke-width="2" stroke-linecap="round" stroke-linejoin="round" stroke-miterlimit="10" points="
		684.7,552.9 684.7,558 689.9,558 	"/>
</g>
<g>
	
		<line fill="none" stroke="#353535" stroke-width="2" stroke-linecap="round" stroke-linejoin="round" stroke-miterlimit="10" x1="598.5" y1="563.3" x2="603.7" y2="563.3"/>
	
		<line fill="none" stroke="#353535" stroke-width="2" stroke-linecap="round" stroke-linejoin="round" stroke-miterlimit="10" x1="594.4" y1="567.4" x2="607.9" y2="567.4"/>
	
		<line fill="none" stroke="#353535" stroke-width="2" stroke-linecap="round" stroke-linejoin="round" stroke-miterlimit="10" x1="594.4" y1="571.6" x2="607.9" y2="571.6"/>
	
		<polygon fill="none" stroke="#353535" stroke-width="2" stroke-linecap="round" stroke-linejoin="round" stroke-miterlimit="10" points="
		612,580.9 590.2,580.9 590.2,552.9 606.8,552.9 612,558.1 	"/>
	
		<polyline fill="none" stroke="#353535" stroke-width="2" stroke-linecap="round" stroke-linejoin="round" stroke-miterlimit="10" points="
		606.8,552.9 606.8,558.1 612,558.1 	"/>
</g>
<g>
	
		<line fill="none" stroke="#353535" stroke-width="2" stroke-linecap="round" stroke-linejoin="round" stroke-miterlimit="10" x1="624.5" y1="563.3" x2="629.7" y2="563.3"/>
	
		<line fill="none" stroke="#353535" stroke-width="2" stroke-linecap="round" stroke-linejoin="round" stroke-miterlimit="10" x1="620.3" y1="567.4" x2="633.8" y2="567.4"/>
	
		<line fill="none" stroke="#353535" stroke-width="2" stroke-linecap="round" stroke-linejoin="round" stroke-miterlimit="10" x1="620.3" y1="571.6" x2="633.8" y2="571.6"/>
	
		<polygon fill="none" stroke="#353535" stroke-width="2" stroke-linecap="round" stroke-linejoin="round" stroke-miterlimit="10" points="
		638,580.9 616.2,580.9 616.2,552.9 632.8,552.9 638,558.1 	"/>
	
		<polyline fill="none" stroke="#353535" stroke-width="2" stroke-linecap="round" stroke-linejoin="round" stroke-miterlimit="10" points="
		632.8,552.9 632.8,558.1 638,558.1 	"/>
</g>
<g>
	
		<line fill="none" stroke="#353535" stroke-width="2" stroke-linecap="round" stroke-linejoin="round" stroke-miterlimit="10" x1="650.4" y1="563.3" x2="655.6" y2="563.3"/>
	
		<line fill="none" stroke="#353535" stroke-width="2" stroke-linecap="round" stroke-linejoin="round" stroke-miterlimit="10" x1="646.3" y1="567.4" x2="659.8" y2="567.4"/>
	
		<line fill="none" stroke="#353535" stroke-width="2" stroke-linecap="round" stroke-linejoin="round" stroke-miterlimit="10" x1="646.3" y1="571.6" x2="659.8" y2="571.6"/>
	
		<polygon fill="none" stroke="#353535" stroke-width="2" stroke-linecap="round" stroke-linejoin="round" stroke-miterlimit="10" points="
		663.9,580.9 642.1,580.9 642.1,552.9 658.7,552.9 663.9,558.1 	"/>
	
		<polyline fill="none" stroke="#353535" stroke-width="2" stroke-linecap="round" stroke-linejoin="round" stroke-miterlimit="10" points="
		658.7,552.9 658.7,558.1 663.9,558.1 	"/>
</g>
<g>
	
		<line fill="none" stroke="#353535" stroke-width="2" stroke-linecap="round" stroke-linejoin="round" stroke-miterlimit="10" x1="780.2" y1="563.2" x2="785.4" y2="563.2"/>
	
		<line fill="none" stroke="#353535" stroke-width="2" stroke-linecap="round" stroke-linejoin="round" stroke-miterlimit="10" x1="776.1" y1="567.4" x2="789.5" y2="567.4"/>
	
		<line fill="none" stroke="#353535" stroke-width="2" stroke-linecap="round" stroke-linejoin="round" stroke-miterlimit="10" x1="776.1" y1="571.5" x2="789.5" y2="571.5"/>
	
		<polygon fill="none" stroke="#353535" stroke-width="2" stroke-linecap="round" stroke-linejoin="round" stroke-miterlimit="10" points="
		793.7,580.8 771.9,580.8 771.9,552.9 788.5,552.9 793.7,558 	"/>
	
		<polyline fill="none" stroke="#353535" stroke-width="2" stroke-linecap="round" stroke-linejoin="round" stroke-miterlimit="10" points="
		788.5,552.9 788.5,558 793.7,558 	"/>
</g>
<g>
	<path fill="#FFFFFF" d="M513,518h1.5v12h5.3v1.4H513V518z"/>
	<path fill="#FFFFFF" d="M521.1,526.5c0-3.3,1.6-5,3.8-5c2.1,0,3.7,1.7,3.7,5c0,3.3-1.6,5-3.7,5
		C522.7,531.5,521.1,529.8,521.1,526.5z M527.1,526.5c0-2.1-0.7-3.7-2.3-3.7c-1.5,0-2.3,1.5-2.3,3.7c0,2.1,0.7,3.7,2.3,3.7
		C526.4,530.3,527.1,528.8,527.1,526.5z"/>
	<path fill="#FFFFFF" d="M530.4,521.8h1.5v1.3c0.6-0.7,1.8-1.5,3-1.5c1.5,0,2.3,0.9,2.3,2.6v7.1h-1.4v-6.8c0-1.1-0.4-1.7-1.3-1.7
		c-0.9,0-1.9,0.7-2.6,1.4v7.1h-1.5V521.8z"/>
	<path fill="#FFFFFF" d="M546.8,521.7v1.4c-0.4,0-0.9,0.1-1.4,0.3c0.3,0.5,0.4,1.1,0.4,1.7c0,2.1-1.4,3.4-3.3,3.4
		c-0.5,0-0.9-0.1-1.3-0.2c-0.3,0.2-0.5,0.4-0.5,0.7c0,0.4,0.2,0.5,1.1,0.6l1.5,0.2c2.3,0.3,3.3,1,3.3,2.4c0,1.7-1.8,2.7-4.1,2.7
		c-2.7,0-3.7-0.9-3.7-2.3c0-1,0.6-1.7,1.5-2.1c-0.5-0.3-0.8-0.6-0.8-1.2c0-0.6,0.4-1.1,1-1.5c-0.8-0.6-1.3-1.6-1.3-2.8
		c0-2.1,1.4-3.4,3.3-3.4c1,0,1.8,0.3,2.4,1C545.3,522.1,546.1,521.8,546.8,521.7z M539.9,532.4c0,1,0.6,1.5,2.6,1.5
		c1.5,0,2.6-0.5,2.6-1.5c0-0.8-0.5-1.2-2.1-1.4l-1.5-0.2c-0.1,0-0.2,0-0.3,0C540.3,531.1,539.9,531.8,539.9,532.4z M544.4,525
		c0-1.4-0.7-2.3-1.9-2.3c-1.2,0-1.9,0.9-1.9,2.3c0,1.4,0.7,2.3,1.9,2.3C543.7,527.3,544.4,526.4,544.4,525z"/>
	<path fill="#FFFFFF" d="M547.9,526.5c0-3.4,1.8-5,3.7-5c2.1,0,3.4,1.7,3.4,4.9v0.4h-5.6c0.1,2.2,0.9,3.4,2.3,3.4
		c1.1,0,1.7-0.6,2.2-1.7l1,0.6c-0.7,1.4-1.8,2.3-3.3,2.3C549.5,531.5,547.9,529.8,547.9,526.5z M553.6,525.7c-0.1-1.7-0.7-2.9-2-2.9
		c-1.1,0-2,0.9-2.2,2.9H553.6z"/>
	<path fill="#FFFFFF" d="M556,529.5l1-0.7c0.6,1,1.6,1.5,2.6,1.5c1.2,0,1.9-0.5,1.9-1.4c0-2.3-5-1.4-5-4.8c0-1.5,1.2-2.6,3-2.6
		c1.4,0,2.4,0.7,3.1,1.7l-1,0.8c-0.5-0.7-1.2-1.3-2.2-1.3c-1.1,0-1.6,0.5-1.6,1.3c0,2.4,4.9,1.3,4.9,4.8c0,1.7-1.5,2.7-3.3,2.7
		C557.9,531.5,556.8,530.7,556,529.5z"/>
	<path fill="#FFFFFF" d="M565.2,529.1V523h-1.4v-1.2h1.4v-3.4h1.4v3.4h2.1v1.2h-2.1v5.8c0,1,0.3,1.4,1.3,1.4c0.3,0,0.6-0.1,0.8-0.1
		v1.2c-0.2,0.1-0.7,0.1-1.1,0.1C565.9,531.4,565.2,530.8,565.2,529.1z"/>
	<path fill="#FFFFFF" d="M574.1,521.8h1.5v1.6h0c0.5-1,1.5-1.8,3-1.8h0.2l-0.1,1.4c0,0-0.3,0-0.3,0c-1.2,0-2.3,0.8-2.8,1.9v6.4h-1.5
		V521.8z"/>
	<path fill="#FFFFFF" d="M579.8,526.5c0-3.4,1.8-5,3.7-5c2.1,0,3.4,1.7,3.4,4.9v0.4h-5.6c0.1,2.2,0.9,3.4,2.3,3.4
		c1.1,0,1.7-0.6,2.2-1.7l1,0.6c-0.7,1.4-1.8,2.3-3.3,2.3C581.4,531.5,579.8,529.8,579.8,526.5z M585.5,525.7c-0.1-1.7-0.7-2.9-2-2.9
		c-1.1,0-2,0.9-2.2,2.9H585.5z M583.8,518h1.7l-2.2,2.8h-1L583.8,518z"/>
	<path fill="#FFFFFF" d="M588,529.5l1-0.7c0.6,1,1.6,1.5,2.6,1.5c1.2,0,1.9-0.5,1.9-1.4c0-2.3-5-1.4-5-4.8c0-1.5,1.2-2.6,3-2.6
		c1.4,0,2.4,0.7,3.1,1.7l-1,0.8c-0.5-0.7-1.2-1.3-2.2-1.3c-1.1,0-1.6,0.5-1.6,1.3c0,2.4,4.9,1.3,4.9,4.8c0,1.7-1.5,2.7-3.3,2.7
		C589.9,531.5,588.7,530.7,588,529.5z"/>
	<path fill="#FFFFFF" d="M596.5,528.8v-7.1h1.4v6.8c0,1.1,0.4,1.7,1.4,1.7c0.9,0,1.7-0.6,2.5-1.4v-7.1h1.5v9.5h-1.5V530
		c-0.7,0.8-1.7,1.5-3,1.5C597.3,531.5,596.5,530.6,596.5,528.8z"/>
	<path fill="#FFFFFF" d="M605.6,521.8h1.5v1.3c0.7-0.7,1.7-1.5,2.9-1.5c1.3,0,1.9,0.5,2.2,1.5c0.7-0.8,1.7-1.5,3-1.5
		c1.5,0,2.3,0.9,2.3,2.6v7.1H616v-6.8c0-1.1-0.4-1.7-1.3-1.7c-0.9,0-1.7,0.6-2.4,1.3v7.1h-1.5v-6.8c0-1.1-0.3-1.7-1.3-1.7
		c-0.8,0-1.6,0.6-2.4,1.4v7.1h-1.5V521.8z"/>
	<path fill="#FFFFFF" d="M619.2,526.5c0-3.4,1.8-5,3.7-5c2.1,0,3.4,1.7,3.4,4.9v0.4h-5.6c0.1,2.2,0.9,3.4,2.3,3.4
		c1.1,0,1.7-0.6,2.2-1.7l1,0.6c-0.7,1.4-1.8,2.3-3.3,2.3C620.8,531.5,619.2,529.8,619.2,526.5z M624.9,525.7c-0.1-1.7-0.7-2.9-2-2.9
		c-1.1,0-2,0.9-2.2,2.9H624.9z M623.1,518h1.7l-2.2,2.8h-1L623.1,518z"/>
	<path fill="#FFFFFF" d="M630.9,529.5l1-0.7c0.6,1,1.6,1.5,2.6,1.5c1.2,0,1.9-0.5,1.9-1.4c0-2.3-5-1.4-5-4.8c0-1.5,1.2-2.6,3-2.6
		c1.4,0,2.4,0.7,3.1,1.7l-1,0.8c-0.5-0.7-1.2-1.3-2.2-1.3c-1.1,0-1.6,0.5-1.6,1.3c0,2.4,4.9,1.3,4.9,4.8c0,1.7-1.5,2.7-3.3,2.7
		C632.8,531.5,631.6,530.7,630.9,529.5z"/>
	<path fill="#FFFFFF" d="M639.4,528.8v-7.1h1.4v6.8c0,1.1,0.4,1.7,1.4,1.7c0.9,0,1.7-0.6,2.5-1.4v-7.1h1.5v9.5h-1.5V530
		c-0.7,0.8-1.7,1.5-3,1.5C640.2,531.5,639.4,530.6,639.4,528.8z"/>
	<path fill="#FFFFFF" d="M650,530.2v1.1h-1.5V518h1.5v5c0.6-0.7,1.4-1.4,2.6-1.4c1.9,0,3.2,1.5,3.2,4.9c0,3.4-1.5,4.9-3.3,4.9
		C651.4,531.4,650.6,530.9,650,530.2z M654.4,526.5c0-2.5-0.9-3.7-2.1-3.7c-0.9,0-1.6,0.6-2.2,1.3v4.8c0.7,0.8,1.4,1.3,2.3,1.3
		C653.5,530.2,654.4,529.1,654.4,526.5z"/>
	<path fill="#FFFFFF" d="M657.7,521.8h1.5v1.3c0.7-0.7,1.7-1.5,2.9-1.5c1.3,0,1.9,0.5,2.2,1.5c0.7-0.8,1.7-1.5,3-1.5
		c1.5,0,2.3,0.9,2.3,2.6v7.1H668v-6.8c0-1.1-0.4-1.7-1.3-1.7c-0.9,0-1.7,0.6-2.4,1.3v7.1h-1.5v-6.8c0-1.1-0.3-1.7-1.3-1.7
		c-0.8,0-1.6,0.6-2.4,1.4v7.1h-1.5V521.8z"/>
	<path fill="#FFFFFF" d="M671.8,518.3h1.5v1.6h-1.5V518.3z M671.8,521.8h1.5v9.5h-1.5V521.8z"/>
	<path fill="#FFFFFF" d="M676.2,529.1V523h-1.4v-1.2h1.4v-3.4h1.4v3.4h2.1v1.2h-2.1v5.8c0,1,0.3,1.4,1.3,1.4c0.3,0,0.6-0.1,0.8-0.1
		v1.2c-0.2,0.1-0.7,0.1-1.1,0.1C676.9,531.4,676.2,530.8,676.2,529.1z"/>
	<path fill="#FFFFFF" d="M682.1,529.1V523h-1.4v-1.2h1.4v-3.4h1.4v3.4h2.1v1.2h-2.1v5.8c0,1,0.3,1.4,1.3,1.4c0.3,0,0.6-0.1,0.8-0.1
		v1.2c-0.2,0.1-0.7,0.1-1.1,0.1C682.7,531.4,682.1,530.8,682.1,529.1z"/>
	<path fill="#FFFFFF" d="M686.9,526.5c0-3.4,1.8-5,3.7-5c2.1,0,3.4,1.7,3.4,4.9v0.4h-5.6c0.1,2.2,0.9,3.4,2.3,3.4
		c1.1,0,1.7-0.6,2.2-1.7l1,0.6c-0.7,1.4-1.8,2.3-3.3,2.3C688.5,531.5,686.9,529.8,686.9,526.5z M692.6,525.7c-0.1-1.7-0.7-2.9-2-2.9
		c-1.1,0-2,0.9-2.2,2.9H692.6z"/>
	<path fill="#FFFFFF" d="M695.4,526.5c0-3.4,1.4-5,3.3-5c1.1,0,1.9,0.5,2.6,1.3v-5h1.4v11c0,1.2,0.1,1.9,0.2,2.3h-1.5
		c-0.1-0.3-0.2-0.9-0.2-1.2c-0.6,0.7-1.4,1.4-2.6,1.4C696.8,531.4,695.4,530,695.4,526.5z M701.2,528.9v-4.8
		c-0.7-0.8-1.4-1.3-2.3-1.3c-1.3,0-2.1,1.1-2.1,3.7c0,2.5,0.9,3.7,2.2,3.7C699.9,530.2,700.7,529.6,701.2,528.9z"/>
	<path fill="#FFFFFF" d="M705.1,521.8h1.7v1.9h-1.7V521.8z M705.1,529.4h1.7v1.9h-1.7V529.4z"/>
</g>
<g>
	<g>
		<path fill="none" stroke="#353535" stroke-width="3" stroke-linecap="round" stroke-linejoin="round" stroke-miterlimit="10" d="
			M580.7,719.4h-43.7c-1.7,0-3-1.3-3-3v-18.8c0-1.7,1.3-3,3-3h43.7c1.7,0,3,1.3,3,3v18.8C583.7,718.1,582.4,719.4,580.7,719.4z"/>
		<path fill="none" stroke="#353535" stroke-width="3" stroke-linecap="round" stroke-linejoin="round" stroke-miterlimit="10" d="
			M574.5,688.4h-31.2c-1.7,0-3-1.3-3-3v-25c0-1.7,1.3-3,3-3h31.2c1.7,0,3,1.3,3,3v25C577.5,687,576.2,688.4,574.5,688.4z"/>
		
			<circle fill="none" stroke="#353535" stroke-width="3" stroke-linecap="round" stroke-linejoin="round" stroke-miterlimit="10" cx="551.1" cy="668.2" r="4.7"/>
		
			<circle fill="none" stroke="#353535" stroke-width="3" stroke-linecap="round" stroke-linejoin="round" stroke-miterlimit="10" cx="566.6" cy="668.2" r="4.7"/>
		
			<line fill="none" stroke="#353535" stroke-width="3" stroke-linecap="round" stroke-linejoin="round" stroke-miterlimit="10" x1="546.5" y1="679.1" x2="546.5" y2="682.2"/>
		
			<line fill="none" stroke="#353535" stroke-width="3" stroke-linecap="round" stroke-linejoin="round" stroke-miterlimit="10" x1="552.7" y1="679.1" x2="552.7" y2="682.2"/>
		
			<line fill="none" stroke="#353535" stroke-width="3" stroke-linecap="round" stroke-linejoin="round" stroke-miterlimit="10" x1="558.9" y1="679.1" x2="558.9" y2="682.2"/>
		
			<line fill="none" stroke="#353535" stroke-width="3" stroke-linecap="round" stroke-linejoin="round" stroke-miterlimit="10" x1="565.1" y1="679.1" x2="565.1" y2="682.2"/>
		
			<line fill="none" stroke="#353535" stroke-width="3" stroke-linecap="round" stroke-linejoin="round" stroke-miterlimit="10" x1="571.3" y1="679.1" x2="571.3" y2="682.2"/>
		
			<line fill="none" stroke="#353535" stroke-width="3" stroke-linecap="round" stroke-linejoin="round" stroke-miterlimit="10" x1="543.4" y1="742.7" x2="543.4" y2="747.3"/>
		
			<line fill="none" stroke="#353535" stroke-width="3" stroke-linecap="round" stroke-linejoin="round" stroke-miterlimit="10" x1="549.6" y1="742.7" x2="549.6" y2="747.3"/>
		
			<line fill="none" stroke="#353535" stroke-width="3" stroke-linecap="round" stroke-linejoin="round" stroke-miterlimit="10" x1="568.2" y1="742.7" x2="568.2" y2="747.3"/>
		
			<line fill="none" stroke="#353535" stroke-width="3" stroke-linecap="round" stroke-linejoin="round" stroke-miterlimit="10" x1="574.4" y1="742.7" x2="574.4" y2="747.3"/>
		<path fill="none" stroke="#353535" stroke-width="3" stroke-linecap="round" stroke-linejoin="round" stroke-miterlimit="10" d="
			M581.7,679.1h-4.2v-12.4h4.2c1.1,0,2,0.9,2,2v8.4C583.7,678.2,582.8,679.1,581.7,679.1z"/>
		<path fill="none" stroke="#353535" stroke-width="3" stroke-linecap="round" stroke-linejoin="round" stroke-miterlimit="10" d="
			M540.3,679.1h-4.2c-1.1,0-2-0.9-2-2v-8.4c0-1.1,0.9-2,2-2h4.2V679.1z"/>
		
			<rect x="549.6" y="688.4" fill="none" stroke="#353535" stroke-width="3" stroke-linecap="round" stroke-linejoin="round" stroke-miterlimit="10" width="18.6" height="6.2"/>
		<path fill="none" stroke="#353535" stroke-width="3" stroke-linecap="round" stroke-linejoin="round" stroke-miterlimit="10" d="
			M518.5,686.8L518.5,686.8c-3.4,0-6.2-2.8-6.2-6.2V676h12.4v4.7C524.7,684.1,522,686.8,518.5,686.8z"/>
		<path fill="none" stroke="#353535" stroke-width="3" stroke-linecap="round" stroke-linejoin="round" stroke-miterlimit="10" d="
			M518.5,686.8v4.7c0,3.4,2.8,6.2,6.2,6.2h9.3"/>
		
			<line fill="none" stroke="#353535" stroke-width="3" stroke-linecap="round" stroke-linejoin="round" stroke-miterlimit="10" x1="521.6" y1="669.8" x2="521.6" y2="676"/>
		<path fill="none" stroke="#353535" stroke-width="3" stroke-linecap="round" stroke-linejoin="round" stroke-miterlimit="10" d="
			M596.1,708.6L596.1,708.6c3.4,0,6.2,2.8,6.2,6.2v4.7h-12.4v-4.7C589.9,711.3,592.7,708.6,596.1,708.6z"/>
		<path fill="none" stroke="#353535" stroke-width="3" stroke-linecap="round" stroke-linejoin="round" stroke-miterlimit="10" d="
			M596.1,708.6v-4.7c0-3.4-2.8-6.2-6.2-6.2h-6.2"/>
		
			<rect x="543.4" y="703.9" fill="none" stroke="#353535" stroke-width="3" stroke-linecap="round" stroke-linejoin="round" stroke-miterlimit="10" width="9.3" height="6.2"/>
		<path fill="none" stroke="#353535" stroke-width="3" stroke-linecap="round" stroke-linejoin="round" stroke-miterlimit="10" d="
			M555.8,747.3h-18.6v-6.2c0-5.1,4.2-9.3,9.3-9.3l0,0c5.1,0,9.3,4.2,9.3,9.3V747.3z"/>
		<path fill="none" stroke="#353535" stroke-width="3" stroke-linecap="round" stroke-linejoin="round" stroke-miterlimit="10" d="
			M580.6,747.3H562v-6.2c0-5.1,4.2-9.3,9.3-9.3l0,0c5.1,0,9.3,4.2,9.3,9.3V747.3z"/>
		
			<line fill="none" stroke="#353535" stroke-width="3" stroke-linecap="round" stroke-linejoin="round" stroke-miterlimit="10" x1="546.5" y1="719.4" x2="546.5" y2="731.8"/>
		
			<line fill="none" stroke="#353535" stroke-width="3" stroke-linecap="round" stroke-linejoin="round" stroke-miterlimit="10" x1="571.3" y1="719.4" x2="571.3" y2="731.8"/>
		
			<line fill="none" stroke="#353535" stroke-width="3" stroke-linecap="round" stroke-linejoin="round" stroke-miterlimit="10" x1="562" y1="705.5" x2="562" y2="708.6"/>
		
			<line fill="none" stroke="#353535" stroke-width="3" stroke-linecap="round" stroke-linejoin="round" stroke-miterlimit="10" x1="568.2" y1="705.5" x2="568.2" y2="708.6"/>
		
			<line fill="none" stroke="#353535" stroke-width="3" stroke-linecap="round" stroke-linejoin="round" stroke-miterlimit="10" x1="574.4" y1="705.5" x2="574.4" y2="708.6"/>
	</g>
</g>
<g>
	<path fill="#353535" d="M512.3,57.3l1.3-0.6c0.6,1.4,1.6,2.4,3.1,2.4c1.6,0,2.5-0.8,2.5-2.1c0-1.5-1.3-2.2-2.7-2.9
		c-1.7-0.8-3.6-1.7-3.6-4.1c0-1.9,1.6-3.3,3.6-3.3c2.1,0,3.3,1.3,4,2.8l-1.3,0.6c-0.5-1.1-1.3-2.1-2.7-2.1c-1.3,0-2.1,0.8-2.1,1.9
		c0,1.5,1.3,2.2,2.7,2.9c1.7,0.8,3.6,1.7,3.6,4.1c0,1.9-1.5,3.5-4,3.5C514.5,60.5,513.1,59.2,512.3,57.3z"/>
	<path fill="#353535" d="M522.2,55.5c0-3.3,1.6-5,3.8-5c2.1,0,3.7,1.7,3.7,5c0,3.3-1.6,5-3.7,5C523.9,60.5,522.2,58.8,522.2,55.5z
		 M528.3,55.5c0-2.1-0.7-3.7-2.3-3.7c-1.5,0-2.3,1.5-2.3,3.7c0,2.1,0.7,3.7,2.3,3.7C527.5,59.2,528.3,57.8,528.3,55.5z"/>
	<path fill="#353535" d="M531.6,50.8h1.5v1.3c0.7-0.7,1.7-1.5,2.9-1.5c1.3,0,1.9,0.5,2.2,1.5c0.7-0.8,1.7-1.5,3-1.5
		c1.5,0,2.3,0.9,2.3,2.6v7.1h-1.4v-6.8c0-1.1-0.4-1.7-1.3-1.7c-0.9,0-1.7,0.6-2.4,1.3v7.1h-1.5v-6.8c0-1.1-0.3-1.7-1.3-1.7
		c-0.8,0-1.6,0.6-2.4,1.4v7.1h-1.5V50.8z"/>
	<path fill="#353535" d="M545.1,55.5c0-3.4,1.8-5,3.7-5c2.1,0,3.4,1.7,3.4,4.9v0.4h-5.6c0.1,2.2,0.9,3.4,2.3,3.4
		c1.1,0,1.7-0.6,2.2-1.7l1,0.6c-0.7,1.4-1.8,2.3-3.3,2.3C546.7,60.5,545.1,58.8,545.1,55.5z M550.8,54.7c-0.1-1.7-0.7-2.9-2-2.9
		c-1.1,0-2,0.9-2.2,2.9H550.8z"/>
	<path fill="#353535" d="M554.6,58.1V52h-1.4v-1.2h1.4v-3.4h1.4v3.4h2.1V52h-2.1v5.8c0,1,0.3,1.4,1.3,1.4c0.3,0,0.6-0.1,0.8-0.1v1.2
		c-0.2,0.1-0.7,0.1-1.1,0.1C555.3,60.4,554.6,59.8,554.6,58.1z"/>
	<path fill="#353535" d="M559.9,46.9h1.5v5.1c0.6-0.7,1.8-1.5,3-1.5c1.5,0,2.3,0.9,2.3,2.6v7.1h-1.4v-6.8c0-1.1-0.4-1.7-1.3-1.7
		c-0.9,0-1.9,0.7-2.6,1.4v7.1h-1.5V46.9z"/>
	<path fill="#353535" d="M569,47.3h1.5v1.6H569V47.3z M569,50.8h1.5v9.5H569V50.8z"/>
	<path fill="#353535" d="M572.9,50.8h1.5v1.3c0.6-0.7,1.8-1.5,3-1.5c1.5,0,2.3,0.9,2.3,2.6v7.1h-1.4v-6.8c0-1.1-0.4-1.7-1.3-1.7
		c-0.9,0-1.9,0.7-2.6,1.4v7.1h-1.5V50.8z"/>
	<path fill="#353535" d="M589.2,50.6V52c-0.4,0-0.9,0.1-1.4,0.3c0.3,0.5,0.4,1.1,0.4,1.7c0,2.1-1.4,3.4-3.3,3.4
		c-0.5,0-0.9-0.1-1.3-0.2c-0.3,0.2-0.5,0.4-0.5,0.7c0,0.4,0.2,0.5,1.1,0.6l1.5,0.2c2.3,0.3,3.3,1,3.3,2.4c0,1.7-1.8,2.7-4.1,2.7
		c-2.7,0-3.7-0.9-3.7-2.3c0-1,0.6-1.7,1.5-2.1c-0.5-0.3-0.8-0.6-0.8-1.2c0-0.6,0.4-1.1,1-1.5c-0.8-0.6-1.3-1.6-1.3-2.8
		c0-2.1,1.4-3.4,3.3-3.4c1,0,1.8,0.3,2.4,1C587.8,51.1,588.6,50.7,589.2,50.6z M582.4,61.4c0,1,0.6,1.5,2.6,1.5
		c1.5,0,2.6-0.5,2.6-1.5c0-0.8-0.5-1.2-2.1-1.4l-1.5-0.2c-0.1,0-0.2,0-0.3,0C582.8,60.1,582.4,60.7,582.4,61.4z M586.8,54
		c0-1.4-0.7-2.3-1.9-2.3c-1.2,0-1.9,0.9-1.9,2.3c0,1.4,0.7,2.3,1.9,2.3C586.1,56.3,586.8,55.4,586.8,54z"/>
	<path fill="#353535" d="M593.9,55.5c0-3.3,1.6-5,3.8-5c2.1,0,3.7,1.7,3.7,5c0,3.3-1.6,5-3.7,5C595.6,60.5,593.9,58.8,593.9,55.5z
		 M600,55.5c0-2.1-0.7-3.7-2.3-3.7c-1.5,0-2.3,1.5-2.3,3.7c0,2.1,0.7,3.7,2.3,3.7C599.2,59.2,600,57.8,600,55.5z"/>
	<path fill="#353535" d="M603.9,52h-1.4v-1.2h1.4v-1.4c0-1.6,0.8-2.4,2.6-2.4c0.2,0,0.7,0,0.7,0v1.2c0,0-0.5,0-0.5,0
		c-0.8,0-1.3,0.3-1.3,1.2v1.4h1.8V52h-1.8v8.3h-1.4V52z"/>
	<path fill="#353535" d="M611.7,58c0-1.9,1.6-3.3,5.3-4v-0.6c0-1.1-0.5-1.6-1.4-1.6c-1.2,0-2.1,0.6-2.8,1.3l-0.8-0.9
		c1-1,2.3-1.7,3.8-1.7c1.9,0,2.7,1,2.7,2.9v4.5c0,1.2,0.1,1.9,0.2,2.3h-1.5c-0.1-0.4-0.2-0.7-0.2-1.2c-0.8,0.8-1.8,1.4-3,1.4
		C612.6,60.4,611.7,59.5,611.7,58z M617,58V55c-2.9,0.6-3.9,1.6-3.9,2.8c0,1,0.5,1.4,1.3,1.4C615.5,59.2,616.4,58.7,617,58z"/>
	<path fill="#353535" d="M623.5,58.5l1-0.7c0.6,1,1.6,1.5,2.6,1.5c1.2,0,1.9-0.5,1.9-1.4c0-2.3-5-1.4-5-4.8c0-1.5,1.2-2.6,3-2.6
		c1.4,0,2.4,0.7,3.1,1.7l-1,0.8c-0.5-0.7-1.2-1.3-2.2-1.3c-1.1,0-1.6,0.5-1.6,1.3c0,2.4,4.9,1.3,4.9,4.8c0,1.7-1.5,2.7-3.3,2.7
		C625.4,60.5,624.2,59.7,623.5,58.5z"/>
	<path fill="#353535" d="M632.2,47.3h1.5v1.6h-1.5V47.3z M632.2,50.8h1.5v9.5h-1.5V50.8z"/>
	<path fill="#353535" d="M635.7,55.5c0-3.4,1.4-5,3.3-5c1.1,0,1.9,0.5,2.6,1.3v-5h1.4v11c0,1.2,0.1,1.9,0.2,2.3h-1.5
		c-0.1-0.3-0.2-0.9-0.2-1.2c-0.6,0.7-1.4,1.4-2.6,1.4C637,60.4,635.7,58.9,635.7,55.5z M641.5,57.9v-4.8c-0.7-0.8-1.4-1.3-2.3-1.3
		c-1.3,0-2.1,1.1-2.1,3.7c0,2.5,0.9,3.7,2.2,3.7C640.1,59.2,640.9,58.6,641.5,57.9z"/>
	<path fill="#353535" d="M644.8,55.5c0-3.4,1.8-5,3.7-5c2.1,0,3.4,1.7,3.4,4.9v0.4h-5.6c0.1,2.2,0.9,3.4,2.3,3.4
		c1.1,0,1.7-0.6,2.2-1.7l1,0.6c-0.7,1.4-1.8,2.3-3.3,2.3C646.4,60.5,644.8,58.8,644.8,55.5z M650.4,54.7c-0.1-1.7-0.7-2.9-2-2.9
		c-1.1,0-2,0.9-2.2,2.9H650.4z"/>
	<path fill="#353535" d="M653.7,46.9h1.4v8.7c0.2-0.4,0.8-1.2,1.3-1.9l2.2-3h1.5l-2.6,3.5l2.9,6h-1.5l-2.3-4.8l-1.5,2v2.8h-1.4V46.9
		z"/>
	<path fill="#353535" d="M662,47.3h1.5v1.6H662V47.3z M662,50.8h1.5v9.5H662V50.8z"/>
	<path fill="#353535" d="M665.5,55.5c0-3.4,1.7-5,3.7-5c1.9,0,2.7,1.3,3.2,2.8l-1.3,0.4c-0.3-1.2-0.8-1.9-1.9-1.9
		c-1.2,0-2.2,1.1-2.2,3.7c0,2.3,0.8,3.7,2.2,3.7c1,0,1.6-0.6,2-2l1.3,0.3c-0.5,1.8-1.6,2.8-3.3,2.8
		C667.1,60.5,665.5,58.8,665.5,55.5z"/>
	<path fill="#353535" d="M674.1,46.9h1.4v8.7c0.2-0.4,0.8-1.2,1.3-1.9l2.2-3h1.5l-2.6,3.5l2.9,6h-1.5l-2.3-4.8l-1.5,2v2.8h-1.4V46.9
		z"/>
	<path fill="#353535" d="M683.2,60.3h-0.7v-1.9h1.7v1.7l-0.8,2h-0.7L683.2,60.3z"/>
	<path fill="#353535" d="M690.4,46.9h3.8c2.6,0,4.1,1.2,4.1,3.8c0,2.1-1.2,3.2-2.5,3.6l2.7,5.9h-1.5l-2.6-5.7h-2.4v5.7h-1.5V46.9z
		 M694.1,53.3c1.8,0,2.7-0.7,2.7-2.6c0-1.8-0.9-2.4-2.7-2.4h-2.2v5H694.1z"/>
	<path fill="#353535" d="M700,55.5c0-3.4,1.8-5,3.7-5c2.1,0,3.4,1.7,3.4,4.9v0.4h-5.6c0.1,2.2,0.9,3.4,2.3,3.4
		c1.1,0,1.7-0.6,2.2-1.7l1,0.6c-0.7,1.4-1.8,2.3-3.3,2.3C701.6,60.5,700,58.8,700,55.5z M705.7,54.7c-0.1-1.7-0.7-2.9-2-2.9
		c-1.1,0-2,0.9-2.2,2.9H705.7z M704,46.9h1.7l-2.2,2.8h-1L704,46.9z"/>
	<path fill="#353535" d="M708.2,58.5l1-0.7c0.6,1,1.6,1.5,2.6,1.5c1.2,0,1.9-0.5,1.9-1.4c0-2.3-5-1.4-5-4.8c0-1.5,1.2-2.6,3-2.6
		c1.4,0,2.4,0.7,3.1,1.7l-1,0.8c-0.5-0.7-1.2-1.3-2.2-1.3c-1.1,0-1.6,0.5-1.6,1.3c0,2.4,4.9,1.3,4.9,4.8c0,1.7-1.5,2.7-3.3,2.7
		C710.1,60.5,708.9,59.7,708.2,58.5z"/>
	<path fill="#353535" d="M716.7,57.8v-7.1h1.4v6.8c0,1.1,0.4,1.7,1.4,1.7c0.9,0,1.7-0.6,2.5-1.4v-7.1h1.5v9.5h-1.5v-1.3
		c-0.7,0.8-1.7,1.5-3,1.5C717.5,60.5,716.7,59.5,716.7,57.8z"/>
	<path fill="#353535" d="M725.8,50.8h1.5v1.3c0.7-0.7,1.7-1.5,2.9-1.5c1.3,0,1.9,0.5,2.2,1.5c0.7-0.8,1.7-1.5,3-1.5
		c1.5,0,2.3,0.9,2.3,2.6v7.1h-1.4v-6.8c0-1.1-0.4-1.7-1.3-1.7c-0.9,0-1.7,0.6-2.4,1.3v7.1H731v-6.8c0-1.1-0.3-1.7-1.3-1.7
		c-0.8,0-1.6,0.6-2.4,1.4v7.1h-1.5V50.8z"/>
	<path fill="#353535" d="M739.4,55.5c0-3.4,1.8-5,3.7-5c2.1,0,3.4,1.7,3.4,4.9v0.4h-5.6c0.1,2.2,0.9,3.4,2.3,3.4
		c1.1,0,1.7-0.6,2.2-1.7l1,0.6c-0.7,1.4-1.8,2.3-3.3,2.3C741,60.5,739.4,58.8,739.4,55.5z M745.1,54.7c-0.1-1.7-0.7-2.9-2-2.9
		c-1.1,0-2,0.9-2.2,2.9H745.1z M743.3,46.9h1.7l-2.2,2.8h-1L743.3,46.9z"/>
	<path fill="#353535" d="M748.5,46.9h3.9c2.5,0,4,1.1,4,3.3c0,1.9-1,2.7-2.1,3v0c1.3,0.3,2.5,1.2,2.5,3.3c0,2.3-1.5,3.6-4.1,3.6
		h-4.2V46.9z M752.3,52.8c1.7,0,2.6-0.6,2.6-2.2s-0.8-2.3-2.6-2.3H750v4.5H752.3z M752.7,58.9c1.8,0,2.6-0.8,2.6-2.4
		c0-1.8-1.1-2.4-2.9-2.4H750v4.9H752.7z"/>
	<path fill="#353535" d="M758.3,55.5c0-3.3,1.6-5,3.8-5c2.1,0,3.7,1.7,3.7,5c0,3.3-1.6,5-3.7,5C759.9,60.5,758.3,58.8,758.3,55.5z
		 M764.3,55.5c0-2.1-0.7-3.7-2.3-3.7c-1.5,0-2.3,1.5-2.3,3.7c0,2.1,0.7,3.7,2.3,3.7C763.6,59.2,764.3,57.8,764.3,55.5z"/>
	<path fill="#353535" d="M768.2,58.1V52h-1.4v-1.2h1.4v-3.4h1.4v3.4h2.1V52h-2.1v5.8c0,1,0.3,1.4,1.3,1.4c0.3,0,0.6-0.1,0.8-0.1v1.2
		c-0.2,0.1-0.7,0.1-1.1,0.1C768.9,60.4,768.2,59.8,768.2,58.1z"/>
	<path fill="#353535" d="M512,88.5l1-0.7c0.6,1,1.6,1.5,2.6,1.5c1.2,0,1.9-0.5,1.9-1.4c0-2.3-5-1.4-5-4.8c0-1.5,1.2-2.6,3-2.6
		c1.4,0,2.4,0.7,3.1,1.7l-1,0.8c-0.5-0.7-1.2-1.3-2.2-1.3c-1.1,0-1.6,0.5-1.6,1.3c0,2.4,4.9,1.3,4.9,4.8c0,1.7-1.5,2.7-3.3,2.7
		C513.9,90.5,512.8,89.7,512,88.5z"/>
	<path fill="#353535" d="M521.2,88.1V82h-1.4v-1.2h1.4v-3.4h1.4v3.4h2.1V82h-2.1v5.8c0,1,0.3,1.4,1.3,1.4c0.3,0,0.6-0.1,0.8-0.1v1.2
		c-0.2,0.1-0.7,0.1-1.1,0.1C521.9,90.4,521.2,89.8,521.2,88.1z"/>
	<path fill="#353535" d="M526,88c0-1.9,1.6-3.3,5.3-4v-0.6c0-1.1-0.5-1.6-1.4-1.6c-1.2,0-2.1,0.6-2.8,1.3l-0.8-0.9
		c1-1,2.3-1.7,3.8-1.7c1.9,0,2.7,1,2.7,2.9v4.5c0,1.2,0.1,1.9,0.2,2.3h-1.5c-0.1-0.4-0.2-0.7-0.2-1.2c-0.8,0.8-1.8,1.4-3,1.4
		C526.8,90.4,526,89.5,526,88z M531.3,88V85c-2.9,0.6-3.9,1.6-3.9,2.8c0,1,0.5,1.4,1.3,1.4C529.7,89.2,530.6,88.7,531.3,88z"/>
	<path fill="#353535" d="M535,80.8h1.5v1.6h0c0.5-1,1.5-1.8,3-1.8h0.2l-0.1,1.4c0,0-0.3,0-0.3,0c-1.2,0-2.3,0.8-2.8,1.9v6.4H535
		V80.8z"/>
	<path fill="#353535" d="M541.8,88.1V82h-1.4v-1.2h1.4v-3.4h1.4v3.4h2.1V82h-2.1v5.8c0,1,0.3,1.4,1.3,1.4c0.3,0,0.6-0.1,0.8-0.1v1.2
		c-0.2,0.1-0.7,0.1-1.1,0.1C542.4,90.4,541.8,89.8,541.8,88.1z"/>
	<path fill="#353535" d="M546.6,85.5c0-3.4,1.8-5,3.7-5c2.1,0,3.4,1.7,3.4,4.9v0.4H548c0.1,2.2,0.9,3.4,2.3,3.4
		c1.1,0,1.7-0.6,2.2-1.7l1,0.6c-0.7,1.4-1.8,2.3-3.3,2.3C548.2,90.5,546.6,88.8,546.6,85.5z M552.3,84.7c-0.1-1.7-0.7-2.9-2-2.9
		c-1.1,0-2,0.9-2.2,2.9H552.3z"/>
	<path fill="#353535" d="M555.1,85.5c0-3.4,1.4-5,3.3-5c1.1,0,1.9,0.5,2.6,1.3v-5h1.4v11c0,1.2,0.1,1.9,0.2,2.3h-1.5
		c-0.1-0.3-0.2-0.9-0.2-1.2c-0.6,0.7-1.4,1.4-2.6,1.4C556.4,90.4,555.1,88.9,555.1,85.5z M560.9,87.9v-4.8c-0.7-0.8-1.4-1.3-2.3-1.3
		c-1.3,0-2.1,1.1-2.1,3.7c0,2.5,0.9,3.7,2.2,3.7C559.5,89.2,560.3,88.6,560.9,87.9z"/>
	<path fill="#353535" d="M567.8,85.5c0-3.3,1.6-5,3.8-5c2.1,0,3.7,1.7,3.7,5c0,3.3-1.6,5-3.7,5C569.4,90.5,567.8,88.8,567.8,85.5z
		 M573.8,85.5c0-2.1-0.7-3.7-2.3-3.7c-1.5,0-2.3,1.5-2.3,3.7c0,2.1,0.7,3.7,2.3,3.7C573,89.2,573.8,87.8,573.8,85.5z"/>
	<path fill="#353535" d="M577.1,87.8v-7.1h1.4v6.8c0,1.1,0.4,1.7,1.4,1.7c0.9,0,1.7-0.6,2.5-1.4v-7.1h1.5v9.5h-1.5v-1.3
		c-0.7,0.8-1.7,1.5-3,1.5C577.9,90.5,577.1,89.5,577.1,87.8z"/>
	<path fill="#353535" d="M586.7,88.1V82h-1.4v-1.2h1.4v-3.4h1.4v3.4h2.1V82h-2.1v5.8c0,1,0.3,1.4,1.3,1.4c0.3,0,0.6-0.1,0.8-0.1v1.2
		c-0.2,0.1-0.7,0.1-1.1,0.1C587.4,90.4,586.7,89.8,586.7,88.1z"/>
	<path fill="#353535" d="M595.1,88c0-1.9,1.6-3.3,5.3-4v-0.6c0-1.1-0.5-1.6-1.4-1.6c-1.2,0-2.1,0.6-2.8,1.3l-0.8-0.9
		c1-1,2.3-1.7,3.8-1.7c1.9,0,2.7,1,2.7,2.9v4.5c0,1.2,0.1,1.9,0.2,2.3h-1.5c-0.1-0.4-0.2-0.7-0.2-1.2c-0.8,0.8-1.8,1.4-3,1.4
		C595.9,90.4,595.1,89.5,595.1,88z M600.4,88V85c-2.9,0.6-3.9,1.6-3.9,2.8c0,1,0.5,1.4,1.3,1.4C598.8,89.2,599.7,88.7,600.4,88z"/>
	<path fill="#353535" d="M603.3,88.5l1-0.7c0.6,1,1.6,1.5,2.6,1.5c1.2,0,1.9-0.5,1.9-1.4c0-2.3-5-1.4-5-4.8c0-1.5,1.2-2.6,3-2.6
		c1.4,0,2.4,0.7,3.1,1.7l-1,0.8c-0.5-0.7-1.2-1.3-2.2-1.3c-1.1,0-1.6,0.5-1.6,1.3c0,2.4,4.9,1.3,4.9,4.8c0,1.7-1.5,2.7-3.3,2.7
		C605.2,90.5,604,89.7,603.3,88.5z"/>
	<path fill="#353535" d="M615.7,76.9h1.9l3.4,11.2h0l3.3-11.2h1.9v13.3h-1.5V79.3h0c-0.2,0.8-0.6,2.3-0.9,3.4l-2.3,7.5h-1.2
		l-2.3-7.6c-0.3-1-0.7-2.5-0.9-3.4h0v10.9h-1.4V76.9z"/>
	<path fill="#353535" d="M628.2,88c0-1.9,1.6-3.3,5.3-4v-0.6c0-1.1-0.5-1.6-1.4-1.6c-1.2,0-2.1,0.6-2.8,1.3l-0.8-0.9
		c1-1,2.3-1.7,3.8-1.7c1.9,0,2.7,1,2.7,2.9v4.5c0,1.2,0.1,1.9,0.2,2.3h-1.5c-0.1-0.4-0.2-0.7-0.2-1.2c-0.8,0.8-1.8,1.4-3,1.4
		C629.1,90.4,628.2,89.5,628.2,88z M633.5,88V85c-2.9,0.6-3.9,1.6-3.9,2.8c0,1,0.5,1.4,1.3,1.4C632,89.2,632.9,88.7,633.5,88z"/>
	<path fill="#353535" d="M637.8,88.1V82h-1.4v-1.2h1.4v-3.4h1.4v3.4h2.1V82h-2.1v5.8c0,1,0.3,1.4,1.3,1.4c0.3,0,0.6-0.1,0.8-0.1v1.2
		c-0.2,0.1-0.7,0.1-1.1,0.1C638.4,90.4,637.8,89.8,637.8,88.1z"/>
	<path fill="#353535" d="M642.6,85.5c0-3.4,1.7-5,3.7-5c1.9,0,2.7,1.3,3.2,2.8l-1.3,0.4c-0.3-1.2-0.8-1.9-1.9-1.9
		c-1.2,0-2.2,1.1-2.2,3.7c0,2.3,0.8,3.7,2.2,3.7c1,0,1.6-0.6,2-2l1.3,0.3c-0.5,1.8-1.6,2.8-3.3,2.8
		C644.2,90.5,642.6,88.8,642.6,85.5z"/>
	<path fill="#353535" d="M651.3,76.9h1.5v5.1c0.6-0.7,1.8-1.5,3-1.5c1.5,0,2.3,0.9,2.3,2.6v7.1h-1.4v-6.8c0-1.1-0.4-1.7-1.3-1.7
		c-0.9,0-1.9,0.7-2.6,1.4v7.1h-1.5V76.9z"/>
	<path fill="#353535" d="M659.5,88.5l1-0.7c0.6,1,1.6,1.5,2.6,1.5c1.2,0,1.9-0.5,1.9-1.4c0-2.3-5-1.4-5-4.8c0-1.5,1.2-2.6,3-2.6
		c1.4,0,2.4,0.7,3.1,1.7l-1,0.8c-0.5-0.7-1.2-1.3-2.2-1.3c-1.1,0-1.6,0.5-1.6,1.3c0,2.4,4.9,1.3,4.9,4.8c0,1.7-1.5,2.7-3.3,2.7
		C661.4,90.5,660.2,89.7,659.5,88.5z"/>
	<path fill="#353535" d="M668.7,88.1V82h-1.4v-1.2h1.4v-3.4h1.4v3.4h2.1V82h-2.1v5.8c0,1,0.3,1.4,1.3,1.4c0.3,0,0.6-0.1,0.8-0.1v1.2
		c-0.2,0.1-0.7,0.1-1.1,0.1C669.3,90.4,668.7,89.8,668.7,88.1z"/>
	<path fill="#353535" d="M674.1,77.3h1.5v1.6h-1.5V77.3z M674.1,80.8h1.5v9.5h-1.5V80.8z"/>
	<path fill="#353535" d="M683.3,89c-0.6,0.7-1.4,1.4-2.6,1.4c-1.9,0-3.2-1.5-3.2-4.9c0-3.4,1.4-5,3.2-5c1.1,0,1.9,0.6,2.6,1.4v-1.2
		h1.5v13.1h-1.5V89z M683.3,87.9v-4.8c-0.7-0.8-1.4-1.3-2.2-1.3c-1.3,0-2.1,1.1-2.1,3.7c0,2.6,0.9,3.7,2.2,3.7
		C682,89.2,682.6,88.7,683.3,87.9z"/>
	<path fill="#353535" d="M687.1,77.9v-1h1.4v1l-0.3,3.6h-0.9L687.1,77.9z"/>
	<path fill="#353535" d="M690.1,88.5l1-0.7c0.6,1,1.6,1.5,2.6,1.5c1.2,0,1.9-0.5,1.9-1.4c0-2.3-5-1.4-5-4.8c0-1.5,1.2-2.6,3-2.6
		c1.4,0,2.4,0.7,3.1,1.7l-1,0.8c-0.5-0.7-1.2-1.3-2.2-1.3c-1.1,0-1.6,0.5-1.6,1.3c0,2.4,4.9,1.3,4.9,4.8c0,1.7-1.5,2.7-3.3,2.7
		C692,90.5,690.8,89.7,690.1,88.5z"/>
	<path fill="#353535" d="M702.4,77.3h1.5v1.6h-1.5V77.3z M702.4,80.8h1.5v9.5h-1.5V80.8z"/>
	<path fill="#353535" d="M706.2,80.8h1.5v1.3c0.6-0.7,1.8-1.5,3-1.5c1.5,0,2.3,0.9,2.3,2.6v7.1h-1.4v-6.8c0-1.1-0.4-1.7-1.3-1.7
		c-0.9,0-1.9,0.7-2.6,1.4v7.1h-1.5V80.8z"/>
	<path fill="#353535" d="M715,84h3.7v1.2H715V84z"/>
	<path fill="#353535" d="M720.3,88c0-1.9,1.6-3.3,5.3-4v-0.6c0-1.1-0.5-1.6-1.4-1.6c-1.2,0-2.1,0.6-2.8,1.3l-0.8-0.9
		c1-1,2.3-1.7,3.8-1.7c1.9,0,2.7,1,2.7,2.9v4.5c0,1.2,0.1,1.9,0.2,2.3h-1.5c-0.1-0.4-0.2-0.7-0.2-1.2c-0.8,0.8-1.8,1.4-3,1.4
		C721.1,90.4,720.3,89.5,720.3,88z M725.6,88V85c-2.9,0.6-3.9,1.6-3.9,2.8c0,1,0.5,1.4,1.3,1.4C724,89.2,724.9,88.7,725.6,88z"/>
	<path fill="#353535" d="M729.3,80.8h1.5V82c0.6-0.7,1.4-1.4,2.6-1.4c1.9,0,3.2,1.5,3.2,4.9c0,3.4-1.4,4.9-3.3,4.9
		c-1.1,0-1.9-0.5-2.5-1.3v4.8h-1.5V80.8z M735.1,85.5c0-2.5-0.9-3.7-2.1-3.7c-0.9,0-1.7,0.6-2.2,1.3v4.8c0.7,0.8,1.4,1.3,2.3,1.3
		C734.3,89.2,735.1,88.1,735.1,85.5z"/>
	<path fill="#353535" d="M738.4,80.8h1.5V82c0.6-0.7,1.4-1.4,2.6-1.4c1.9,0,3.2,1.5,3.2,4.9c0,3.4-1.4,4.9-3.3,4.9
		c-1.1,0-1.9-0.5-2.5-1.3v4.8h-1.5V80.8z M744.3,85.5c0-2.5-0.9-3.7-2.1-3.7c-0.9,0-1.7,0.6-2.2,1.3v4.8c0.7,0.8,1.4,1.3,2.3,1.3
		C743.4,89.2,744.3,88.1,744.3,85.5z"/>
	<path fill="#353535" d="M512.8,110.8h1.5v1.6h0c0.5-1,1.5-1.8,3-1.8h0.2l-0.1,1.4c0,0-0.3,0-0.3,0c-1.2,0-2.3,0.8-2.8,1.9v6.4h-1.5
		V110.8z"/>
	<path fill="#353535" d="M518.6,115.5c0-3.4,1.8-5,3.7-5c2.1,0,3.4,1.7,3.4,4.9v0.4H520c0.1,2.2,0.9,3.4,2.3,3.4
		c1.1,0,1.7-0.6,2.2-1.7l1,0.6c-0.7,1.4-1.8,2.3-3.3,2.3C520.2,120.5,518.6,118.8,518.6,115.5z M524.3,114.7c-0.1-1.7-0.7-2.9-2-2.9
		c-1.1,0-2,0.9-2.2,2.9H524.3z M522.5,106.9h1.7l-2.2,2.8h-1L522.5,106.9z"/>
	<path fill="#353535" d="M526.7,118.5l1-0.7c0.6,1,1.6,1.5,2.6,1.5c1.2,0,1.9-0.5,1.9-1.4c0-2.3-5-1.4-5-4.8c0-1.5,1.2-2.6,3-2.6
		c1.4,0,2.4,0.7,3.1,1.7l-1,0.8c-0.5-0.7-1.2-1.3-2.2-1.3c-1.1,0-1.6,0.5-1.6,1.3c0,2.4,4.9,1.3,4.9,4.8c0,1.7-1.5,2.7-3.3,2.7
		C528.6,120.5,527.4,119.7,526.7,118.5z"/>
	<path fill="#353535" d="M535.2,117.8v-7.1h1.4v6.8c0,1.1,0.4,1.7,1.4,1.7c0.9,0,1.7-0.6,2.5-1.4v-7.1h1.5v9.5h-1.5v-1.3
		c-0.7,0.8-1.7,1.5-3,1.5C536.1,120.5,535.2,119.5,535.2,117.8z"/>
	<path fill="#353535" d="M544.4,110.8h1.5v1.3c0.7-0.7,1.7-1.5,2.9-1.5c1.3,0,1.9,0.5,2.2,1.5c0.7-0.8,1.7-1.5,3-1.5
		c1.5,0,2.3,0.9,2.3,2.6v7.1h-1.4v-6.8c0-1.1-0.4-1.7-1.3-1.7c-0.9,0-1.7,0.6-2.4,1.3v7.1h-1.5v-6.8c0-1.1-0.3-1.7-1.3-1.7
		c-0.8,0-1.6,0.6-2.4,1.4v7.1h-1.5V110.8z"/>
	<path fill="#353535" d="M557.9,115.5c0-3.4,1.8-5,3.7-5c2.1,0,3.4,1.7,3.4,4.9v0.4h-5.6c0.1,2.2,0.9,3.4,2.3,3.4
		c1.1,0,1.7-0.6,2.2-1.7l1,0.6c-0.7,1.4-1.8,2.3-3.3,2.3C559.5,120.5,557.9,118.8,557.9,115.5z M563.6,114.7c-0.1-1.7-0.7-2.9-2-2.9
		c-1.1,0-2,0.9-2.2,2.9H563.6z M561.9,106.9h1.7l-2.2,2.8h-1L561.9,106.9z"/>
	<path fill="#353535" d="M570.4,110.8h1.5v1.2c0.6-0.7,1.4-1.4,2.6-1.4c1.9,0,3.2,1.5,3.2,4.9c0,3.4-1.4,4.9-3.3,4.9
		c-1.1,0-1.9-0.5-2.5-1.3v4.8h-1.5V110.8z M576.3,115.5c0-2.5-0.9-3.7-2.1-3.7c-0.9,0-1.7,0.6-2.2,1.3v4.8c0.7,0.8,1.4,1.3,2.3,1.3
		C575.4,119.2,576.3,118.1,576.3,115.5z"/>
	<path fill="#353535" d="M579.1,118c0-1.9,1.6-3.3,5.3-4v-0.6c0-1.1-0.5-1.6-1.4-1.6c-1.2,0-2.1,0.6-2.8,1.3l-0.8-0.9
		c1-1,2.3-1.7,3.8-1.7c1.9,0,2.7,1,2.7,2.9v4.5c0,1.2,0.1,1.9,0.2,2.3h-1.5c-0.1-0.4-0.2-0.7-0.2-1.2c-0.8,0.8-1.8,1.4-3,1.4
		C579.9,120.4,579.1,119.5,579.1,118z M584.4,118V115c-2.9,0.6-3.9,1.6-3.9,2.8c0,1,0.5,1.4,1.3,1.4
		C582.8,119.2,583.7,118.7,584.4,118z"/>
	<path fill="#353535" d="M588,110.8h1.5v1.6h0c0.5-1,1.5-1.8,3-1.8h0.2l-0.1,1.4c0,0-0.3,0-0.3,0c-1.2,0-2.3,0.8-2.8,1.9v6.4H588
		V110.8z"/>
	<path fill="#353535" d="M593.5,118.5l1-0.7c0.6,1,1.6,1.5,2.6,1.5c1.2,0,1.9-0.5,1.9-1.4c0-2.3-5-1.4-5-4.8c0-1.5,1.2-2.6,3-2.6
		c1.4,0,2.4,0.7,3.1,1.7l-1,0.8c-0.5-0.7-1.2-1.3-2.2-1.3c-1.1,0-1.6,0.5-1.6,1.3c0,2.4,4.9,1.3,4.9,4.8c0,1.7-1.5,2.7-3.3,2.7
		C595.4,120.5,594.2,119.7,593.5,118.5z"/>
	<path fill="#353535" d="M602.2,107.3h1.5v1.6h-1.5V107.3z M602.2,110.8h1.5v9.5h-1.5V110.8z"/>
	<path fill="#353535" d="M606,110.8h1.5v1.3c0.6-0.7,1.8-1.5,3-1.5c1.5,0,2.3,0.9,2.3,2.6v7.1h-1.4v-6.8c0-1.1-0.4-1.7-1.3-1.7
		c-0.9,0-1.9,0.7-2.6,1.4v7.1H606V110.8z"/>
	<path fill="#353535" d="M622.4,110.6v1.4c-0.4,0-0.9,0.1-1.4,0.3c0.3,0.5,0.4,1.1,0.4,1.7c0,2.1-1.4,3.4-3.3,3.4
		c-0.5,0-0.9-0.1-1.3-0.2c-0.3,0.2-0.5,0.4-0.5,0.7c0,0.4,0.2,0.5,1.1,0.6l1.5,0.2c2.3,0.3,3.3,1,3.3,2.4c0,1.7-1.8,2.7-4.1,2.7
		c-2.7,0-3.7-0.9-3.7-2.3c0-1,0.6-1.7,1.5-2.1c-0.5-0.3-0.8-0.6-0.8-1.2c0-0.6,0.4-1.1,1-1.5c-0.8-0.6-1.3-1.6-1.3-2.8
		c0-2.1,1.4-3.4,3.3-3.4c1,0,1.8,0.3,2.4,1C620.9,111.1,621.7,110.7,622.4,110.6z M615.5,121.4c0,1,0.6,1.5,2.6,1.5
		c1.5,0,2.6-0.5,2.6-1.5c0-0.8-0.5-1.2-2.1-1.4l-1.5-0.2c-0.1,0-0.2,0-0.3,0C615.9,120.1,615.5,120.7,615.5,121.4z M620,114
		c0-1.4-0.7-2.3-1.9-2.3c-1.2,0-1.9,0.9-1.9,2.3c0,1.4,0.7,2.3,1.9,2.3C619.3,116.3,620,115.4,620,114z"/>
	<path fill="#353535" d="M628.1,118.1V112h-1.4v-1.2h1.4v-3.4h1.4v3.4h2.1v1.2h-2.1v5.8c0,1,0.3,1.4,1.3,1.4c0.3,0,0.6-0.1,0.8-0.1
		v1.2c-0.2,0.1-0.7,0.1-1.1,0.1C628.8,120.4,628.1,119.8,628.1,118.1z"/>
	<path fill="#353535" d="M632.9,115.5c0-3.4,1.8-5,3.7-5c2.1,0,3.4,1.7,3.4,4.9v0.4h-5.6c0.1,2.2,0.9,3.4,2.3,3.4
		c1.1,0,1.7-0.6,2.2-1.7l1,0.6c-0.7,1.4-1.8,2.3-3.3,2.3C634.5,120.5,632.9,118.8,632.9,115.5z M638.6,114.7c-0.1-1.7-0.7-2.9-2-2.9
		c-1.1,0-2,0.9-2.2,2.9H638.6z"/>
	<path fill="#353535" d="M641.4,115.5c0-3.4,1.7-5,3.7-5c1.9,0,2.7,1.3,3.2,2.8l-1.3,0.4c-0.3-1.2-0.8-1.9-1.9-1.9
		c-1.2,0-2.2,1.1-2.2,3.7c0,2.3,0.8,3.7,2.2,3.7c1,0,1.6-0.6,2-2l1.3,0.3c-0.5,1.8-1.6,2.8-3.3,2.8
		C643,120.5,641.4,118.8,641.4,115.5z"/>
	<path fill="#353535" d="M650.1,106.9h1.5v5.1c0.6-0.7,1.8-1.5,3-1.5c1.5,0,2.3,0.9,2.3,2.6v7.1h-1.4v-6.8c0-1.1-0.4-1.7-1.3-1.7
		c-0.9,0-1.9,0.7-2.6,1.4v7.1h-1.5V106.9z"/>
	<path fill="#353535" d="M659.1,110.8h1.5v1.3c0.6-0.7,1.8-1.5,3-1.5c1.5,0,2.3,0.9,2.3,2.6v7.1h-1.4v-6.8c0-1.1-0.4-1.7-1.3-1.7
		c-0.9,0-1.9,0.7-2.6,1.4v7.1h-1.5V110.8z"/>
	<path fill="#353535" d="M667.7,115.5c0-3.3,1.6-5,3.8-5c2.1,0,3.7,1.7,3.7,5c0,3.3-1.6,5-3.7,5
		C669.3,120.5,667.7,118.8,667.7,115.5z M673.7,115.5c0-2.1-0.7-3.7-2.3-3.7c-1.5,0-2.3,1.5-2.3,3.7c0,2.1,0.7,3.7,2.3,3.7
		C672.9,119.2,673.7,117.8,673.7,115.5z"/>
	<path fill="#353535" d="M677.1,106.9h1.5v13.3h-1.5V106.9z"/>
	<path fill="#353535" d="M680.5,115.5c0-3.3,1.6-5,3.8-5c2.1,0,3.7,1.7,3.7,5c0,3.3-1.6,5-3.7,5
		C682.2,120.5,680.5,118.8,680.5,115.5z M686.6,115.5c0-2.1-0.7-3.7-2.3-3.7c-1.5,0-2.3,1.5-2.3,3.7c0,2.1,0.7,3.7,2.3,3.7
		C685.8,119.2,686.6,117.8,686.6,115.5z"/>
	<path fill="#353535" d="M697.2,110.6v1.4c-0.4,0-0.9,0.1-1.4,0.3c0.3,0.5,0.4,1.1,0.4,1.7c0,2.1-1.4,3.4-3.3,3.4
		c-0.5,0-0.9-0.1-1.3-0.2c-0.3,0.2-0.5,0.4-0.5,0.7c0,0.4,0.2,0.5,1.1,0.6l1.5,0.2c2.3,0.3,3.3,1,3.3,2.4c0,1.7-1.8,2.7-4.1,2.7
		c-2.7,0-3.7-0.9-3.7-2.3c0-1,0.6-1.7,1.5-2.1c-0.5-0.3-0.8-0.6-0.8-1.2c0-0.6,0.4-1.1,1-1.5c-0.8-0.6-1.3-1.6-1.3-2.8
		c0-2.1,1.4-3.4,3.3-3.4c1,0,1.8,0.3,2.4,1C695.8,111.1,696.5,110.7,697.2,110.6z M690.4,121.4c0,1,0.6,1.5,2.6,1.5
		c1.5,0,2.6-0.5,2.6-1.5c0-0.8-0.5-1.2-2.1-1.4l-1.5-0.2c-0.1,0-0.2,0-0.3,0C690.8,120.1,690.4,120.7,690.4,121.4z M694.8,114
		c0-1.4-0.7-2.3-1.9-2.3c-1.2,0-1.9,0.9-1.9,2.3c0,1.4,0.7,2.3,1.9,2.3C694.1,116.3,694.8,115.4,694.8,114z"/>
	<path fill="#353535" d="M697.7,123.7l0.3-1.2c0.2,0.1,0.7,0.1,1.2,0.1c0.8,0,1.2-0.5,1.5-1.5l0.3-0.8l-3-9.6h1.5l1.4,5
		c0.3,1,0.5,1.9,0.8,2.9h0c0.3-1,0.5-1.9,0.8-3l1.4-4.9h1.4l-3.3,10.6c-0.6,1.7-1.2,2.6-2.8,2.6C698.6,123.9,698,123.8,697.7,123.7z
		"/>
	<path fill="#353535" d="M707.1,118.4h1.7v1.9h-1.7V118.4z"/>
	<path fill="#353535" d="M717.6,108.3h-3.4v-1.4h8.4v1.4h-3.4v11.9h-1.5V108.3z"/>
	<path fill="#353535" d="M723.7,115.5c0-3.3,1.6-5,3.8-5c2.1,0,3.7,1.7,3.7,5c0,3.3-1.6,5-3.7,5
		C725.4,120.5,723.7,118.8,723.7,115.5z M729.8,115.5c0-2.1-0.7-3.7-2.3-3.7c-1.5,0-2.3,1.5-2.3,3.7c0,2.1,0.7,3.7,2.3,3.7
		C729,119.2,729.8,117.8,729.8,115.5z"/>
	<path fill="#353535" d="M732.6,115.5c0-3.4,1.4-5,3.3-5c1.1,0,1.9,0.5,2.6,1.3v-5h1.4v11c0,1.2,0.1,1.9,0.2,2.3h-1.5
		c-0.1-0.3-0.2-0.9-0.2-1.2c-0.6,0.7-1.4,1.4-2.6,1.4C734,120.4,732.6,118.9,732.6,115.5z M738.5,117.9v-4.8
		c-0.7-0.8-1.4-1.3-2.3-1.3c-1.3,0-2.1,1.1-2.1,3.7c0,2.5,0.9,3.7,2.2,3.7C737.1,119.2,737.9,118.6,738.5,117.9z"/>
	<path fill="#353535" d="M741.7,118c0-1.9,1.6-3.3,5.3-4v-0.6c0-1.1-0.5-1.6-1.4-1.6c-1.2,0-2.1,0.6-2.8,1.3l-0.8-0.9
		c1-1,2.3-1.7,3.8-1.7c1.9,0,2.7,1,2.7,2.9v4.5c0,1.2,0.1,1.9,0.2,2.3h-1.5c-0.1-0.4-0.2-0.7-0.2-1.2c-0.8,0.8-1.8,1.4-3,1.4
		C742.6,120.4,741.7,119.5,741.7,118z M747,118V115c-2.9,0.6-3.9,1.6-3.9,2.8c0,1,0.5,1.4,1.3,1.4C745.5,119.2,746.4,118.7,747,118z
		"/>
	<path fill="#353535" d="M749.6,123.7l0.3-1.2c0.2,0.1,0.7,0.1,1.2,0.1c0.8,0,1.2-0.5,1.5-1.5l0.3-0.8l-3-9.6h1.5l1.4,5
		c0.3,1,0.5,1.9,0.8,2.9h0c0.3-1,0.5-1.9,0.8-3l1.4-4.9h1.4l-3.3,10.6c-0.6,1.7-1.2,2.6-2.8,2.6
		C750.5,123.9,749.9,123.8,749.6,123.7z"/>
	<path fill="#353535" d="M759.7,120.3H759v-1.9h1.7v1.7l-0.8,2h-0.7L759.7,120.3z"/>
	<path fill="#353535" d="M766.8,107.3h1.5v1.6h-1.5V107.3z M766.8,110.8h1.5v9.5h-1.5V110.8z"/>
	<path fill="#353535" d="M771.3,118.1V112h-1.4v-1.2h1.4v-3.4h1.4v3.4h2.1v1.2h-2.1v5.8c0,1,0.3,1.4,1.3,1.4c0.3,0,0.6-0.1,0.8-0.1
		v1.2c-0.2,0.1-0.7,0.1-1.1,0.1C771.9,120.4,771.3,119.8,771.3,118.1z"/>
	<path fill="#353535" d="M776.6,107.9v-1h1.4v1l-0.3,3.6h-0.9L776.6,107.9z"/>
	<path fill="#353535" d="M779.5,118.5l1-0.7c0.6,1,1.6,1.5,2.6,1.5c1.2,0,1.9-0.5,1.9-1.4c0-2.3-5-1.4-5-4.8c0-1.5,1.2-2.6,3-2.6
		c1.4,0,2.4,0.7,3.1,1.7l-1,0.8c-0.5-0.7-1.2-1.3-2.2-1.3c-1.1,0-1.6,0.5-1.6,1.3c0,2.4,4.9,1.3,4.9,4.8c0,1.7-1.5,2.7-3.3,2.7
		C781.4,120.5,780.3,119.7,779.5,118.5z"/>
	<path fill="#353535" d="M512.3,148c0-1.9,1.6-3.3,5.3-4v-0.6c0-1.1-0.5-1.6-1.4-1.6c-1.2,0-2.1,0.6-2.8,1.3l-0.8-0.9
		c1-1,2.3-1.7,3.8-1.7c1.9,0,2.7,1,2.7,2.9v4.5c0,1.2,0.1,1.9,0.2,2.3h-1.5c-0.1-0.4-0.2-0.7-0.2-1.2c-0.8,0.8-1.8,1.4-3,1.4
		C513.2,150.4,512.3,149.5,512.3,148z M517.6,148V145c-2.9,0.6-3.9,1.6-3.9,2.8c0,1,0.5,1.4,1.3,1.4
		C516.1,149.2,517,148.7,517.6,148z"/>
	<path fill="#353535" d="M524.1,148.5l1-0.7c0.6,1,1.6,1.5,2.6,1.5c1.2,0,1.9-0.5,1.9-1.4c0-2.3-5-1.4-5-4.8c0-1.5,1.2-2.6,3-2.6
		c1.4,0,2.4,0.7,3.1,1.7l-1,0.8c-0.5-0.7-1.2-1.3-2.2-1.3c-1.1,0-1.6,0.5-1.6,1.3c0,2.4,4.9,1.3,4.9,4.8c0,1.7-1.5,2.7-3.3,2.7
		C526,150.5,524.8,149.7,524.1,148.5z"/>
	<path fill="#353535" d="M533.3,148.1V142h-1.4v-1.2h1.4v-3.4h1.4v3.4h2.1v1.2h-2.1v5.8c0,1,0.3,1.4,1.3,1.4c0.3,0,0.6-0.1,0.8-0.1
		v1.2c-0.2,0.1-0.7,0.1-1.1,0.1C533.9,150.4,533.3,149.8,533.3,148.1z"/>
	<path fill="#353535" d="M538.1,148c0-1.9,1.6-3.3,5.3-4v-0.6c0-1.1-0.5-1.6-1.4-1.6c-1.2,0-2.1,0.6-2.8,1.3l-0.8-0.9
		c1-1,2.3-1.7,3.8-1.7c1.9,0,2.7,1,2.7,2.9v4.5c0,1.2,0.1,1.9,0.2,2.3h-1.5c-0.1-0.4-0.2-0.7-0.2-1.2c-0.8,0.8-1.8,1.4-3,1.4
		C538.9,150.4,538.1,149.5,538.1,148z M543.4,148V145c-2.9,0.6-3.9,1.6-3.9,2.8c0,1,0.5,1.4,1.3,1.4
		C541.8,149.2,542.7,148.7,543.4,148z"/>
	<path fill="#353535" d="M547,140.8h1.5v1.3c0.6-0.7,1.8-1.5,3-1.5c1.5,0,2.3,0.9,2.3,2.6v7.1h-1.4v-6.8c0-1.1-0.4-1.7-1.3-1.7
		c-0.9,0-1.9,0.7-2.6,1.4v7.1H547V140.8z"/>
	<path fill="#353535" d="M555.6,145.5c0-3.4,1.4-5,3.3-5c1.1,0,1.9,0.5,2.6,1.3v-5h1.4v11c0,1.2,0.1,1.9,0.2,2.3h-1.5
		c-0.1-0.3-0.2-0.9-0.2-1.2c-0.6,0.7-1.4,1.4-2.6,1.4C557,150.4,555.6,148.9,555.6,145.5z M561.5,147.9v-4.8
		c-0.7-0.8-1.4-1.3-2.3-1.3c-1.3,0-2.1,1.1-2.1,3.7c0,2.5,0.9,3.7,2.2,3.7C560.1,149.2,560.9,148.6,561.5,147.9z"/>
	<path fill="#353535" d="M564.7,148c0-1.9,1.6-3.3,5.3-4v-0.6c0-1.1-0.5-1.6-1.4-1.6c-1.2,0-2.1,0.6-2.8,1.3l-0.8-0.9
		c1-1,2.3-1.7,3.8-1.7c1.9,0,2.7,1,2.7,2.9v4.5c0,1.2,0.1,1.9,0.2,2.3h-1.5c-0.1-0.4-0.2-0.7-0.2-1.2c-0.8,0.8-1.8,1.4-3,1.4
		C565.6,150.4,564.7,149.5,564.7,148z M570,148V145c-2.9,0.6-3.9,1.6-3.9,2.8c0,1,0.5,1.4,1.3,1.4C568.5,149.2,569.4,148.7,570,148z
		"/>
	<path fill="#353535" d="M573.8,136.9h1.5v13.3h-1.5V136.9z"/>
	<path fill="#353535" d="M577.2,145.5c0-3.3,1.6-5,3.8-5c2.1,0,3.7,1.7,3.7,5c0,3.3-1.6,5-3.7,5
		C578.9,150.5,577.2,148.8,577.2,145.5z M583.3,145.5c0-2.1-0.7-3.7-2.3-3.7c-1.5,0-2.3,1.5-2.3,3.7c0,2.1,0.7,3.7,2.3,3.7
		C582.5,149.2,583.3,147.8,583.3,145.5z"/>
	<path fill="#353535" d="M586.6,140.8h1.5v1.3c0.6-0.7,1.8-1.5,3-1.5c1.5,0,2.3,0.9,2.3,2.6v7.1h-1.4v-6.8c0-1.1-0.4-1.7-1.3-1.7
		c-0.9,0-1.9,0.7-2.6,1.4v7.1h-1.5V140.8z"/>
	<path fill="#353535" d="M595.2,145.5c0-3.4,1.8-5,3.7-5c2.1,0,3.4,1.7,3.4,4.9v0.4h-5.6c0.1,2.2,0.9,3.4,2.3,3.4
		c1.1,0,1.7-0.6,2.2-1.7l1,0.6c-0.7,1.4-1.8,2.3-3.3,2.3C596.7,150.5,595.2,148.8,595.2,145.5z M600.8,144.7c-0.1-1.7-0.7-2.9-2-2.9
		c-1.1,0-2,0.9-2.2,2.9H600.8z"/>
	<path fill="#353535" d="M608.2,148.1V142h-1.4v-1.2h1.4v-3.4h1.4v3.4h2.1v1.2h-2.1v5.8c0,1,0.3,1.4,1.3,1.4c0.3,0,0.6-0.1,0.8-0.1
		v1.2c-0.2,0.1-0.7,0.1-1.1,0.1C608.9,150.4,608.2,149.8,608.2,148.1z"/>
	<path fill="#353535" d="M613,145.5c0-3.3,1.6-5,3.8-5c2.1,0,3.7,1.7,3.7,5c0,3.3-1.6,5-3.7,5C614.7,150.5,613,148.8,613,145.5z
		 M619.1,145.5c0-2.1-0.7-3.7-2.3-3.7c-1.5,0-2.3,1.5-2.3,3.7c0,2.1,0.7,3.7,2.3,3.7C618.3,149.2,619.1,147.8,619.1,145.5z"/>
	<path fill="#353535" d="M622,145.5c0-3.3,1.6-5,3.8-5c2.1,0,3.7,1.7,3.7,5c0,3.3-1.6,5-3.7,5C623.6,150.5,622,148.8,622,145.5z
		 M628,145.5c0-2.1-0.7-3.7-2.3-3.7c-1.5,0-2.3,1.5-2.3,3.7c0,2.1,0.7,3.7,2.3,3.7C627.2,149.2,628,147.8,628,145.5z"/>
	<path fill="#353535" d="M631.4,136.9h1.5v13.3h-1.5V136.9z"/>
	<path fill="#353535" d="M639.5,142h-1.4v-1.2h1.4v-1.4c0-1.6,0.8-2.4,2.6-2.4c0.2,0,0.7,0,0.7,0v1.2c0,0-0.5,0-0.5,0
		c-0.8,0-1.3,0.3-1.3,1.2v1.4h1.8v1.2h-1.8v8.3h-1.4V142z"/>
	<path fill="#353535" d="M643.8,145.5c0-3.3,1.6-5,3.8-5c2.1,0,3.7,1.7,3.7,5c0,3.3-1.6,5-3.7,5
		C645.4,150.5,643.8,148.8,643.8,145.5z M649.8,145.5c0-2.1-0.7-3.7-2.3-3.7c-1.5,0-2.3,1.5-2.3,3.7c0,2.1,0.7,3.7,2.3,3.7
		C649,149.2,649.8,147.8,649.8,145.5z"/>
	<path fill="#353535" d="M653.1,140.8h1.5v1.6h0c0.5-1,1.5-1.8,3-1.8h0.2l-0.1,1.4c0,0-0.3,0-0.3,0c-1.2,0-2.3,0.8-2.8,1.9v6.4h-1.5
		V140.8z"/>
	<path fill="#353535" d="M662.9,140.8h1.5v1.6h0c0.5-1,1.5-1.8,3-1.8h0.2l-0.1,1.4c0,0-0.3,0-0.3,0c-1.2,0-2.3,0.8-2.8,1.9v6.4h-1.5
		V140.8z"/>
	<path fill="#353535" d="M668.7,145.5c0-3.4,1.8-5,3.7-5c2.1,0,3.4,1.7,3.4,4.9v0.4h-5.6c0.1,2.2,0.9,3.4,2.3,3.4
		c1.1,0,1.7-0.6,2.2-1.7l1,0.6c-0.7,1.4-1.8,2.3-3.3,2.3C670.2,150.5,668.7,148.8,668.7,145.5z M674.3,144.7c-0.1-1.7-0.7-2.9-2-2.9
		c-1.1,0-2,0.9-2.2,2.9H674.3z"/>
	<path fill="#353535" d="M677.1,145.5c0-3.4,1.7-5,3.7-5c1.9,0,2.7,1.3,3.2,2.8l-1.3,0.4c-0.3-1.2-0.8-1.9-1.9-1.9
		c-1.2,0-2.2,1.1-2.2,3.7c0,2.3,0.8,3.7,2.2,3.7c1,0,1.6-0.6,2-2l1.3,0.3c-0.5,1.8-1.6,2.8-3.3,2.8
		C678.7,150.5,677.1,148.8,677.1,145.5z"/>
	<path fill="#353535" d="M685.8,140.8h1.5v1.6h0c0.5-1,1.5-1.8,3-1.8h0.2l-0.1,1.4c0,0-0.3,0-0.3,0c-1.2,0-2.3,0.8-2.8,1.9v6.4h-1.5
		V140.8z"/>
	<path fill="#353535" d="M691.9,147.8v-7.1h1.4v6.8c0,1.1,0.4,1.7,1.4,1.7c0.9,0,1.7-0.6,2.5-1.4v-7.1h1.5v9.5h-1.5v-1.3
		c-0.7,0.8-1.7,1.5-3,1.5C692.7,150.5,691.9,149.5,691.9,147.8z"/>
	<path fill="#353535" d="M701.1,137.3h1.5v1.6h-1.5V137.3z M701.1,140.8h1.5v9.5h-1.5V140.8z"/>
	<path fill="#353535" d="M705.6,148.1V142h-1.4v-1.2h1.4v-3.4h1.4v3.4h2.1v1.2H707v5.8c0,1,0.3,1.4,1.3,1.4c0.3,0,0.6-0.1,0.8-0.1
		v1.2c-0.2,0.1-0.7,0.1-1.1,0.1C706.2,150.4,705.6,149.8,705.6,148.1z"/>
	<path fill="#353535" d="M710.4,145.5c0-3.4,1.8-5,3.7-5c2.1,0,3.4,1.7,3.4,4.9v0.4h-5.6c0.1,2.2,0.9,3.4,2.3,3.4
		c1.1,0,1.7-0.6,2.2-1.7l1,0.6c-0.7,1.4-1.8,2.3-3.3,2.3C712,150.5,710.4,148.8,710.4,145.5z M716.1,144.7c-0.1-1.7-0.7-2.9-2-2.9
		c-1.1,0-2,0.9-2.2,2.9H716.1z"/>
	<path fill="#353535" d="M719.3,140.8h1.5v1.6h0c0.5-1,1.5-1.8,3-1.8h0.2l-0.1,1.4c0,0-0.3,0-0.3,0c-1.2,0-2.3,0.8-2.8,1.9v6.4h-1.5
		V140.8z"/>
	<path fill="#353535" d="M724.7,148.5l1-0.7c0.6,1,1.6,1.5,2.6,1.5c1.2,0,1.9-0.5,1.9-1.4c0-2.3-5-1.4-5-4.8c0-1.5,1.2-2.6,3-2.6
		c1.4,0,2.4,0.7,3.1,1.7l-1,0.8c-0.5-0.7-1.2-1.3-2.2-1.3c-1.1,0-1.6,0.5-1.6,1.3c0,2.4,4.9,1.3,4.9,4.8c0,1.7-1.5,2.7-3.3,2.7
		C726.6,150.5,725.5,149.7,724.7,148.5z"/>
	<path fill="#353535" d="M733.5,148.4h1.7v1.9h-1.7V148.4z"/>
</g>
<g>
	<circle fill="#353535" cx="761.7" cy="501.9" r="34.4"/>
</g>
<g>
	<path fill="#AAABAC" d="M758.4,481.1v42.3c0,0.4-0.3,0.7-0.7,0.7h-3.4c-0.4,0-0.7-0.3-0.7-0.7v-35.2h-4.4c-0.4,0-0.7-0.3-0.7-0.7
		v-1.8c0-0.4,0.3-0.7,0.7-0.7c5.4-2,4-4.5,6.3-4.5c0.5,0,2.3,0,2.3,0C758,480.4,758.4,480.7,758.4,481.1z"/>
	<path fill="#AAABAC" d="M773.1,481.1v42.3c0,0.4-0.3,0.7-0.7,0.7h-3.4c-0.4,0-0.7-0.3-0.7-0.7v-35.2h-4.4c-0.4,0-0.7-0.3-0.7-0.7
		v-1.8c0-0.4,0.3-0.7,0.7-0.7c5.4-2,4-4.5,6.3-4.5c0.5,0,2.3,0,2.3,0C772.8,480.4,773.1,480.7,773.1,481.1z"/>
</g>
<g>
	<path fill="#FFFFFF" d="M748.1,500.7c0,2.8-1.7,4.5-4.3,4.5h-1.1v6.4c0,0.1-0.1,0.3-0.3,0.3h-1.2c-0.1,0-0.3-0.1-0.3-0.3v-15.2
		c0-0.1,0.1-0.3,0.3-0.3h2.7C746.4,496.1,748.1,497.5,748.1,500.7z M746.3,500.6c0-1.2-0.4-2.8-2.4-2.8h-1.2v5.5h1.2
		C746,503.4,746.3,502.1,746.3,500.6z"/>
	<path fill="#FFFFFF" d="M756.3,511.6c0,0.1-0.1,0.3-0.3,0.3h-1.3c-0.1,0-0.2-0.1-0.3-0.3l-0.5-3h-3.6l-0.5,3c0,0.2-0.1,0.3-0.3,0.3
		h-1.3c-0.1,0-0.3-0.1-0.3-0.3l2.9-15.2c0-0.1,0.1-0.3,0.3-0.3h2c0.1,0,0.2,0.1,0.3,0.3L756.3,511.6z M753.6,506.8l-1.5-8.8
		l-1.5,8.8H753.6z"/>
	<path fill="#FFFFFF" d="M765.3,504.6v7.1c0,0.1-0.1,0.2-0.2,0.2h-0.5c-0.1,0-0.2-0.1-0.2-0.1l-0.1-0.7c-0.7,0.7-1.6,1.1-2.8,1.1
		c-2.2,0-3.7-1.5-3.7-3.8v-8.7c0-2.3,1.2-3.8,3.6-3.8c2.4,0,3.6,1.5,3.6,3.8v1.5c0,0.1-0.1,0.3-0.3,0.3h-1.3c-0.1,0-0.3-0.1-0.3-0.3
		v-1.4c0-1.5-0.7-2.1-1.8-2.1c-1,0-1.8,0.6-1.8,2.1v8.7c0,1.5,0.9,2.1,1.9,2.1c1,0,1.9-0.6,1.9-2.1V506h-1c-0.1,0-0.3-0.1-0.3-0.2
		v-1.2c0-0.1,0.1-0.3,0.3-0.3h2.6C765.2,504.3,765.3,504.4,765.3,504.6z"/>
	<path fill="#FFFFFF" d="M769.3,497.8v4.8h3.1c0.1,0,0.3,0.1,0.3,0.3v1.2c0,0.1-0.1,0.3-0.3,0.3h-3.1v5.7h4.5c0.1,0,0.3,0.1,0.3,0.3
		v1.2c0,0.1-0.1,0.3-0.3,0.3h-6.1c-0.1,0-0.3-0.1-0.3-0.3v-15.2c0-0.1,0.1-0.3,0.3-0.3h6.1c0.1,0,0.3,0.1,0.3,0.3v1.2
		c0,0.1-0.1,0.3-0.3,0.3H769.3z"/>
	<path fill="#FFFFFF" d="M782.8,507c0,0.4,0,1.5,0,1.5c0,2.2-1.6,3.6-3.6,3.6c-2.2,0-3.7-1.6-3.7-3.9v-1.4c0-0.1,0.1-0.2,0.2-0.2
		h1.3c0.1,0,0.2,0.1,0.2,0.2v1.8c0,1.4,0.9,2,1.9,1.9c1.3,0,1.8-0.9,1.8-1.9v-1.3c0-0.9-0.3-1.4-1.5-2.5l-1.9-1.8
		c-1-0.9-1.8-2.4-1.8-3.5c0-2.3,1.3-3.7,3.5-3.7c2.2,0,3.6,1.5,3.6,3.8v1.3c0,0.1-0.1,0.2-0.2,0.2h-1.3c-0.1,0-0.2-0.1-0.2-0.2v-1.5
		c0-1.5-0.7-2-1.8-2c-1,0-1.7,0.7-1.7,2c0,0.3,0.1,1.1,1.4,2.3c0.4,0.4,2.4,2.2,2.4,2.2C782.7,505.2,782.8,506.4,782.8,507z"/>
</g>
</svg>
