<?xml version="1.0" encoding="utf-8"?>
<!-- Generator: Adobe Illustrator 17.1.0, SVG Export Plug-In . SVG Version: 6.00 Build 0)  -->
<!DOCTYPE svg PUBLIC "-//W3C//DTD SVG 1.1//EN" "http://www.w3.org/Graphics/SVG/1.1/DTD/svg11.dtd">
<svg version="1.1" id="Layer_1" xmlns="http://www.w3.org/2000/svg" xmlns:xlink="http://www.w3.org/1999/xlink" x="0px" y="0px"
	 viewBox="0 0 29 29" enable-background="new 0 0 29 29" xml:space="preserve">
<path fill="#FFFFFF" d="M25.9,0H3.1C1.4,0,0,1.4,0,3.1v22.8C0,27.6,1.4,29,3.1,29h22.8c1.7,0,3.1-1.4,3.1-3.1V3.1
	C29,1.4,27.6,0,25.9,0z M19.5,15.3c-0.1,0.1-0.1,0.2-0.2,0.3l-2.9,2.9c-0.2,0.2-0.5,0.3-0.7,0.3s-0.5-0.1-0.7-0.3
	c-0.4-0.4-0.4-1,0-1.4l1.2-1.1H9.6c-0.6,0-1-0.4-1-1s0.4-1,1-1h6.5L15,12.8c-0.4-0.4-0.4-1.1,0-1.5s1-0.4,1.4,0l2.9,2.9
	c0.1,0.1,0.2,0.2,0.2,0.3C19.6,14.8,19.6,15,19.5,15.3z"/>
</svg>
