<?xml version="1.0" encoding="utf-8"?>
<!-- Generator: Adobe Illustrator 17.1.0, SVG Export Plug-In . SVG Version: 6.00 Build 0)  -->
<!DOCTYPE svg PUBLIC "-//W3C//DTD SVG 1.1//EN" "http://www.w3.org/Graphics/SVG/1.1/DTD/svg11.dtd">
<svg version="1.1" id="Layer_1" xmlns="http://www.w3.org/2000/svg" xmlns:xlink="http://www.w3.org/1999/xlink" x="0px" y="0px"
	 viewBox="0 0 29.1 29.1" enable-background="new 0 0 29.1 29.1" xml:space="preserve">
<g>
	<g>
		<path fill="#FFFFFF" d="M26,29.1H3.1C1.4,29.1,0,27.7,0,26V3.1C0,1.4,1.4,0,3.1,0H26c1.7,0,3.1,1.4,3.1,3.1V26
			C29.1,27.7,27.7,29.1,26,29.1z M3.1,2C2.5,2,2,2.5,2,3.1V26c0,0.6,0.5,1.1,1.1,1.1H26c0.6,0,1.1-0.5,1.1-1.1V3.1
			C27.1,2.5,26.6,2,26,2H3.1z"/>
	</g>
</g>
<g>
	<g>
		<path fill="#FFFFFF" d="M19,15.6c-0.3,0-0.5-0.1-0.7-0.3l-2.9-2.9c-0.4-0.4-0.4-1,0-1.4s1-0.4,1.4,0l2.9,2.9c0.4,0.4,0.4,1,0,1.4
			C19.5,15.5,19.3,15.6,19,15.6z"/>
	</g>
	<g>
		<path fill="#FFFFFF" d="M16.2,18.4c-0.3,0-0.5-0.1-0.7-0.3c-0.4-0.4-0.4-1,0-1.4l2.9-2.9c0.4-0.4,1-0.4,1.4,0s0.4,1,0,1.4
			l-2.9,2.9C16.7,18.3,16.4,18.4,16.2,18.4z"/>
	</g>
	<g>
		<path fill="#FFFFFF" d="M19,15.6h-9c-0.6,0-1-0.4-1-1s0.4-1,1-1h9c0.6,0,1,0.4,1,1S19.6,15.6,19,15.6z"/>
	</g>
</g>
</svg>
