<?xml version="1.0" encoding="utf-8"?>
<!-- Generator: Adobe Illustrator 17.1.0, SVG Export Plug-In . SVG Version: 6.00 Build 0)  -->
<!DOCTYPE svg PUBLIC "-//W3C//DTD SVG 1.1//EN" "http://www.w3.org/Graphics/SVG/1.1/DTD/svg11.dtd">
<svg version="1.1" id="Layer_1" xmlns="http://www.w3.org/2000/svg" xmlns:xlink="http://www.w3.org/1999/xlink" x="0px" y="0px"
	 viewBox="1.1 725.3 1221.9 133.4" enable-background="new 1.1 725.3 1221.9 133.4" xml:space="preserve">
<rect x="611.7" y="726.8" fill="#FFFFFF" width="609.2" height="129.7"/>
<rect x="916.5" y="726.8" fill="#353535" width="304.5" height="129.7"/>
<rect x="638.1" y="759.1" fill="none" width="290.2" height="82.4"/>
<g enable-background="new    ">
	<path fill="#353535" d="M671.7,802.4v4c0,0.6-0.5,1-1,1h-4.5V819c0,0.6-0.5,1-1,1h-4.2c-0.6,0-1-0.5-1-1v-11.6h-18.5
		c-0.6,0-1-0.5-1-1c0,0,0-1.8,0-3.2c0-1.7,0.1-2,0.8-3.8c0.8-1.8,14.9-38,14.9-38c0.2-0.6,0.6-1,1.2-1h7.8c0.6,0,1,0.5,1,1v40.2h4.5
		C671.2,801.5,671.7,801.9,671.7,802.4z M646.6,801.5h13.3V767L646.6,801.5z"/>
	<path fill="#353535" d="M703.6,814.3v4.7c0,0.6-0.5,1-1,1h-25c-0.6,0-1-0.5-1-1c0,0,0-5.2,0-5.9c0-4.1,2-10.7,5.4-14.7
		c1.9-2.4,8.2-9.9,9.9-11.9c4-4.8,5-6.6,5-11c0-4.5-1.1-9.8-6.6-9.8c-3,0-6.7,1.2-6.7,9.8v3.4c0,0.6-0.5,1-1,1h-4.8
		c-0.6,0-1-0.5-1-1v-3.9c0-9.4,4.5-15.8,13.7-15.8c8.5,0,13.2,6.2,13.3,15.5v1.6c0,7.3-3.4,10.7-6.7,14.8
		c-6.7,8-13.3,14.8-13.3,20.7v1.5h18.8C703.2,813.4,703.6,813.9,703.6,814.3z"/>
</g>
<g enable-background="new    ">
	<path fill="#353535" d="M739.7,792.2v3.3c0,0.3-0.3,0.6-0.6,0.6h-2.9c-0.3,0-0.6-0.3-0.6-0.6v-3.3c0-3.4-1.7-4.7-4.1-4.7
		c-2.3,0-4,1.3-4,4.7V812c0,3.4,1.7,4.7,4,4.7c2.4,0,4.1-1.3,4.1-4.7v-3.4c0-0.3,0.3-0.6,0.6-0.6h2.9c0.3,0,0.6,0.3,0.6,0.6v3.4
		c0,5.1-3.1,8.6-8.2,8.6c-5,0-8.1-3.5-8.1-8.6v-19.8c0-5.2,2.8-8.6,8.1-8.6C736.8,783.6,739.7,787,739.7,792.2z"/>
	<path fill="#353535" d="M760.3,792.2V812c0,5.1-3.1,8.6-8.2,8.6c-5,0-8.1-3.5-8.1-8.6v-19.8c0-5.2,2.8-8.6,8.1-8.6
		C757.5,783.6,760.3,787,760.3,792.2z M756.1,792.3c0-3.4-1.6-4.7-4-4.7c-2.3,0-3.9,1.3-3.9,4.7V812c0,3.4,1.6,4.7,3.9,4.7
		c2.4,0,4-1.3,4-4.7V792.3z"/>
	<path fill="#353535" d="M792.6,784.8l-5.1,34.6c-0.1,0.3-0.3,0.6-0.6,0.6h-4h-0.1c-0.3,0-0.6-0.3-0.6-0.6l-3.9-26.7l-3.9,26.7
		c-0.1,0.3-0.3,0.6-0.6,0.6h-0.1h-4c-0.3,0-0.6-0.3-0.6-0.6l-5.1-34.6c0-0.3,0.3-0.6,0.6-0.6h2.9c0.3,0,0.5,0.2,0.6,0.6v0.1
		l3.6,28.7l4.6-28.7c0.1-0.4,0.3-0.6,0.6-0.6h2.7c0.3,0,0.4,0.2,0.6,0.6l4.6,28.7l3.6-28.7v-0.1c0.1-0.4,0.3-0.6,0.6-0.6h2.9
		C792.3,784.2,792.6,784.5,792.6,784.8z"/>
	<path fill="#353535" d="M812.7,792.2V812c0,5.1-3.1,8.6-8.2,8.6c-5,0-8.1-3.5-8.1-8.6v-19.8c0-5.2,2.8-8.6,8.1-8.6
		C809.9,783.6,812.7,787,812.7,792.2z M808.5,792.3c0-3.4-1.6-4.7-4-4.7c-2.3,0-3.9,1.3-3.9,4.7V812c0,3.4,1.6,4.7,3.9,4.7
		c2.4,0,4-1.3,4-4.7V792.3z"/>
	<path fill="#353535" d="M835.9,816.9v2.7c0,0.3-0.2,0.4-0.6,0.4c-4.8,0-5.4-3.8-5.4-9.6c0-4.6-1-6-5.2-6h-2.7v15
		c0,0.3-0.3,0.6-0.6,0.6h-2.8c-0.3,0-0.6-0.3-0.6-0.6v-34.6c0-0.3,0.3-0.6,0.6-0.6h6c5.9,0,9.8,3.2,9.8,10.2c0,4.3-1.5,7-4.4,7.8
		c3.5,0.7,3.7,4,3.7,6.8c0,0.3,0,3.2,0,3.5c0,3.5,1,3.6,1.5,3.8C835.6,816.3,835.9,816.6,835.9,816.9z M822.2,800.4h2.7
		c4.6,0,5.5-2.8,5.5-6.1c0-2.8-0.8-6.1-5.5-6.1h-2.7V800.4z"/>
	<path fill="#353535" d="M857.2,820h-2.7c-0.5,0-0.8-0.3-0.9-0.7l-5.9-17l-3.6,7.8v9.2c0,0.3-0.3,0.6-0.6,0.6h-3
		c-0.3,0-0.6-0.3-0.6-0.6v-34.5c0-0.3,0.3-0.7,0.6-0.7h3c0.3,0,0.6,0.4,0.6,0.7v17.5l7.7-17.5c0.2-0.3,0.3-0.7,0.8-0.7h3.3
		c0.4,0,0.7,0.2,0.4,0.7l-6.1,13.4l7.5,20.9C857.8,819.6,857.6,819.9,857.2,820z"/>
	<path fill="#353535" d="M871.4,789.6l-2.7,0.9l1.7,2.3c0.2,0.3,0.2,0.6-0.1,0.8l-1.5,1.1c-0.3,0.2-0.6,0.1-0.8-0.1l-1.7-2.3
		l-1.7,2.3c-0.2,0.2-0.6,0.3-0.8,0.1l-1.5-1.1c-0.2-0.2-0.3-0.5-0.1-0.8l1.7-2.3l-2.7-0.9c-0.3-0.1-0.4-0.4-0.3-0.7l0.6-1.8
		c0.1-0.3,0.4-0.4,0.7-0.3l2.7,0.8v-2.8c0-0.3,0.2-0.6,0.6-0.6h1.9c0.3,0,0.6,0.3,0.6,0.6v2.8l2.7-0.8c0.3-0.1,0.6,0.1,0.7,0.3
		l0.6,1.8C871.8,789.2,871.7,789.5,871.4,789.6z"/>
</g>
<g>
	<rect x="949.5" y="759.1" fill="none" width="179.6" height="82.4"/>
	<g enable-background="new    ">
		<path fill="#FFFFFF" d="M981.2,795.3c0,4.5,0,9.8,0,9.8c0,8.1-3.5,15.9-13.7,15.9c-10,0-13.5-7.1-13.5-15.9v-4.1c0-0.6,0.5-1,1-1
			h4.9c0.6,0,1,0.5,1,1v4.6c0,4.3,0.6,8.8,6.8,8.8c5.7,0,6.5-4.4,6.5-8.8v-12.2c0-6.4-4.1-7.8-6.5-7.8c-2.7,0-5.5,0.8-6.5,3.5
			l-0.3,0.7c-0.2,0.3-0.6,0.5-0.9,0.5h-5c-0.5,0-0.9-0.3-1-0.7c0,0,0-0.9,0-1.3V769v-7.6c0-0.6,0.5-1,1-1h6.6h18.3
			c0.5,0,0.9,0.5,0.9,1v4.7c0,0.6-0.5,1-0.9,1h-19v15.3c1.3-3.2,4.9-3.5,7.7-3.5C977.2,779,981.2,784.3,981.2,795.3z"/>
		<path fill="#FFFFFF" d="M1015.7,773.8v33c0,8.6-5.4,14.4-13.4,14.4c-7.7,0-13.3-5.8-13.3-14.4v-33c0-8.7,5-14.4,13.3-14.4
			C1010.8,759.4,1015.7,765.1,1015.7,773.8z M1008.7,774c0-5.7-2.6-7.9-6.4-7.9c-3.6,0-6.3,2.2-6.3,7.9v32.6c0,5.7,2.7,7.9,6.3,7.9
			c3.8,0,6.4-2.2,6.4-7.9V774z"/>
	</g>
	<g enable-background="new    ">
		<path fill="#FFFFFF" d="M1053,784.8v34.6c0,0.3-0.3,0.6-0.6,0.6h-3c-0.3,0-0.6-0.3-0.6-0.6v-15.8h-8.1v15.8c0,0.3-0.2,0.6-0.6,0.6
			h-3c-0.3,0-0.6-0.3-0.6-0.6v-34.6c0-0.3,0.3-0.6,0.6-0.6h3c0.3,0,0.6,0.3,0.6,0.6v14.9h8.1v-14.9c0-0.3,0.2-0.6,0.6-0.6h3
			C1052.7,784.2,1053,784.5,1053,784.8z"/>
		<path fill="#FFFFFF" d="M1074.6,792.2V812c0,5.1-3.1,8.6-8.2,8.6c-5,0-8.1-3.5-8.1-8.6v-19.8c0-5.2,2.8-8.6,8.1-8.6
			C1071.8,783.6,1074.6,787,1074.6,792.2z M1070.4,792.3c0-3.4-1.6-4.7-4-4.7c-2.3,0-3.9,1.3-3.9,4.7V812c0,3.4,1.6,4.7,3.9,4.7
			c2.4,0,4-1.3,4-4.7V792.3z"/>
		<path fill="#FFFFFF" d="M1103.4,784.8v34.6c0,0.3-0.3,0.6-0.6,0.6h-2.6c-0.3,0-0.6-0.3-0.6-0.6v-25.7l-6,25.8
			c-0.1,0.2-0.3,0.5-0.6,0.5h-2.8c-0.2,0-0.5-0.2-0.6-0.5c-0.1-0.1-5.8-24.9-6-25.8v25.7c0,0.3-0.3,0.6-0.6,0.6h-0.1h-2.5
			c-0.3,0-0.6-0.3-0.6-0.6v-34.6c0-0.3,0.3-0.6,0.6-0.6h3.8c0.3,0,0.6,0.2,0.7,0.6l6.7,28.8l6.7-28.8c0.1-0.3,0.4-0.6,0.7-0.6h3.8
			C1103.1,784.2,1103.4,784.5,1103.4,784.8z"/>
		<path fill="#FFFFFF" d="M1113,788.3v11h7c0.3,0,0.6,0.3,0.6,0.6v2.7c0,0.3-0.3,0.6-0.6,0.6h-7V816h10.2c0.3,0,0.6,0.3,0.6,0.6v2.8
			c0,0.3-0.3,0.6-0.6,0.6h-13.8c-0.3,0-0.6-0.3-0.6-0.6v-34.6c0-0.3,0.3-0.6,0.6-0.6h13.8c0.3,0,0.6,0.3,0.6,0.6v2.8
			c0,0.3-0.3,0.6-0.6,0.6H1113z"/>
	</g>
</g>
<rect x="3.1" y="727.3" fill="none" stroke="#353535" stroke-width="4" stroke-linecap="round" stroke-linejoin="round" stroke-miterlimit="10" width="1217.9" height="129.4"/>
<rect x="27.3" y="761.4" fill="none" width="333.9" height="82.4"/>
<g enable-background="new    ">
	<path fill="#353535" d="M57.4,816.6v4.7c0,0.6-0.5,1-1,1h-25c-0.6,0-1-0.5-1-1c0,0,0-5.2,0-5.9c0-4.1,2-10.7,5.4-14.7
		c1.9-2.4,8.2-9.9,9.9-11.9c4-4.8,5-6.6,5-11c0-4.5-1.1-9.8-6.6-9.8c-3,0-6.7,1.2-6.7,9.8v3.4c0,0.6-0.5,1-1,1h-4.8
		c-0.6,0-1-0.5-1-1v-3.9c0-9.4,4.5-15.8,13.7-15.8c8.5,0,13.2,6.2,13.3,15.5v1.6c0,7.3-3.4,10.7-6.7,14.8
		c-6.7,8-13.3,14.8-13.3,20.7v1.5h18.8C56.9,815.7,57.4,816.2,57.4,816.6z"/>
	<path fill="#353535" d="M91.6,776.1v33c0,8.6-5.4,14.4-13.4,14.4c-7.7,0-13.3-5.8-13.3-14.4v-33c0-8.7,5-14.4,13.3-14.4
		C86.7,761.7,91.6,767.4,91.6,776.1z M84.6,776.3c0-5.7-2.6-7.9-6.4-7.9c-3.6,0-6.3,2.2-6.3,7.9v32.6c0,5.7,2.7,7.9,6.3,7.9
		c3.8,0,6.4-2.2,6.4-7.9V776.3z"/>
	<path fill="#353535" d="M126.7,776.1v33c0,8.6-5.4,14.4-13.4,14.4c-7.7,0-13.3-5.8-13.3-14.4v-33c0-8.7,5-14.4,13.3-14.4
		C121.8,761.7,126.7,767.4,126.7,776.1z M119.7,776.3c0-5.7-2.6-7.9-6.4-7.9c-3.6,0-6.3,2.2-6.3,7.9v32.6c0,5.7,2.7,7.9,6.3,7.9
		c3.8,0,6.4-2.2,6.4-7.9V776.3z"/>
</g>
<g enable-background="new    ">
	<path fill="#353535" d="M151.1,790.5v27.9h2.7c0.3,0,0.6,0.3,0.6,0.6v2.9c0,0.3-0.3,0.6-0.6,0.6h-9.4c-0.3,0-0.6-0.2-0.6-0.6v-2.9
		c0-0.3,0.3-0.6,0.6-0.6h2.7v-27.9h-2.7c-0.3,0-0.6-0.2-0.6-0.6v-2.9c0-0.3,0.3-0.6,0.6-0.6h9.4c0.3,0,0.6,0.2,0.6,0.6v2.9
		c0,0.3-0.3,0.6-0.6,0.6H151.1z"/>
	<path fill="#353535" d="M175.6,805.8V822c0,0.2-0.2,0.4-0.4,0.4h-1.1c-0.2,0-0.4-0.2-0.4-0.3l-0.3-1.7c-1.5,1.7-3.7,2.6-6.4,2.6
		c-5,0-8.5-3.5-8.5-8.6v-19.8c0-5.2,2.8-8.6,8.1-8.6c5.4,0,8.2,3.4,8.2,8.6v3.3c0,0.3-0.3,0.6-0.6,0.6h-2.9c-0.3,0-0.6-0.3-0.6-0.6
		v-3.3c0-3.4-1.7-4.7-4-4.7c-2.3,0-4,1.3-4,4.7v19.7c0,3.4,2,4.7,4.3,4.7c2.4,0,4.4-1.3,4.4-4.7v-5.2h-2.4c-0.3,0-0.6-0.2-0.6-0.6
		v-2.7c0-0.3,0.3-0.6,0.6-0.6h6C175.4,805.2,175.6,805.5,175.6,805.8z"/>
	<path fill="#353535" d="M198.2,787.1v34.6c0,0.3-0.3,0.6-0.6,0.6h-2.7c-0.3,0-0.8-0.4-0.9-0.7l-9.7-25v25c0,0.3-0.2,0.6-0.6,0.6
		h-2.7c-0.3,0-0.6-0.3-0.6-0.6v-34.6c0-0.3,0.3-0.6,0.6-0.6h2.7c0.3,0,0.6,0.2,0.7,0.6l9.9,26.5v-26.5c0-0.3,0.2-0.6,0.6-0.6h2.8
		C198,786.5,198.2,786.8,198.2,787.1z"/>
	<path fill="#353535" d="M210.1,790.5v27.9h2.7c0.3,0,0.6,0.3,0.6,0.6v2.9c0,0.3-0.3,0.6-0.6,0.6h-9.4c-0.3,0-0.6-0.2-0.6-0.6v-2.9
		c0-0.3,0.3-0.6,0.6-0.6h2.7v-27.9h-2.7c-0.3,0-0.6-0.2-0.6-0.6v-2.9c0-0.3,0.3-0.6,0.6-0.6h9.4c0.3,0,0.6,0.2,0.6,0.6v2.9
		c0,0.3-0.3,0.6-0.6,0.6H210.1z"/>
	<path fill="#353535" d="M232.2,787.1v2.8c0,0.3-0.3,0.6-0.6,0.6h-5.3v31.2c0,0.3-0.3,0.6-0.6,0.6h-2.9c-0.3,0-0.6-0.3-0.6-0.6
		v-31.2H217c-0.3,0-0.6-0.3-0.6-0.6v-2.8c0-0.3,0.3-0.6,0.6-0.6h14.6C232,786.5,232.2,786.8,232.2,787.1z"/>
	<path fill="#353535" d="M240.3,790.6v11h7c0.3,0,0.6,0.3,0.6,0.6v2.7c0,0.3-0.3,0.6-0.6,0.6h-7v12.9h10.2c0.3,0,0.6,0.3,0.6,0.6
		v2.8c0,0.3-0.3,0.6-0.6,0.6h-13.8c-0.3,0-0.6-0.3-0.6-0.6v-34.6c0-0.3,0.3-0.6,0.6-0.6h13.8c0.3,0,0.6,0.3,0.6,0.6v2.8
		c0,0.3-0.3,0.6-0.6,0.6H240.3z"/>
</g>
</svg>
