<?xml version="1.0" encoding="utf-8"?>
<!-- Generator: Adobe Illustrator 17.1.0, SVG Export Plug-In . SVG Version: 6.00 Build 0)  -->
<!DOCTYPE svg PUBLIC "-//W3C//DTD SVG 1.1//EN" "http://www.w3.org/Graphics/SVG/1.1/DTD/svg11.dtd">
<svg version="1.1" id="Layer_1" xmlns="http://www.w3.org/2000/svg" xmlns:xlink="http://www.w3.org/1999/xlink" x="0px" y="0px"
	 viewBox="0 0 797.2 88.3" enable-background="new 0 0 797.2 88.3" xml:space="preserve">
<rect x="398.4" y="1.7" fill="#FFFFFF" width="396.8" height="84.5"/>
<rect x="596.9" y="1.7" fill="#353535" width="198.3" height="84.5"/>
<rect x="415.6" y="22.7" fill="none" width="189" height="53.7"/>
<text transform="matrix(1 0 0 1 415.5693 62.4113)"><tspan x="0" y="0" fill="#353535" font-family="'Interborough'" font-size="60">42 </tspan><tspan x="53.9" y="0" fill="#353535" font-family="'Interborough'" font-size="36">COWORK*</tspan></text>
<g>
	<rect x="618.4" y="22.7" fill="none" width="117" height="53.7"/>
	<text transform="matrix(1 0 0 1 618.4033 62.4113)"><tspan x="0" y="0" fill="#FFFFFF" font-family="'Interborough'" font-size="60">50</tspan><tspan x="45.9" y="0" fill="#FFFFFF" font-family="'Interborough'" font-size="30">  </tspan><tspan x="54.9" y="0" fill="#FFFFFF" font-family="'Interborough'" font-size="36">HOME</tspan></text>
</g>
<rect x="2" y="2" fill="none" stroke="#353535" stroke-width="4" stroke-linecap="round" stroke-linejoin="round" stroke-miterlimit="10" width="793.2" height="84.3"/>
<rect x="17.8" y="24.2" fill="none" width="217.5" height="53.7"/>
<text transform="matrix(1 0 0 1 17.7682 63.9112)"><tspan x="0" y="0" fill="#353535" font-family="'Interborough'" font-size="60">200</tspan><tspan x="67.5" y="0" fill="#353535" font-family="'Interborough'" font-size="24">  </tspan><tspan x="74.7" y="0" fill="#353535" font-family="'Interborough'" font-size="36">IGNITE</tspan></text>
</svg>
