<?xml version="1.0" encoding="utf-8"?>
<!-- Generator: Adobe Illustrator 17.1.0, SVG Export Plug-In . SVG Version: 6.00 Build 0)  -->
<!DOCTYPE svg PUBLIC "-//W3C//DTD SVG 1.1//EN" "http://www.w3.org/Graphics/SVG/1.1/DTD/svg11.dtd">
<svg version="1.1" id="Layer_1" xmlns="http://www.w3.org/2000/svg" xmlns:xlink="http://www.w3.org/1999/xlink" x="0px" y="0px"
	 viewBox="0 0 29 29" enable-background="new 0 0 29 29" xml:space="preserve">
<path fill="#FFFFFF" d="M25.9,0H3.1C1.4,0,0,1.4,0,3.1v22.8C0,27.6,1.4,29,3.1,29h22.8c1.7,0,3.1-1.4,3.1-3.1V3.1
	C29,1.4,27.6,0,25.9,0z M18.7,16h-6.5l1.2,1.1c0.4,0.4,0.4,1,0,1.4c-0.2,0.2-0.5,0.3-0.7,0.3s-0.5-0.1-0.7-0.3l-2.9-2.9
	c-0.1-0.1-0.2-0.2-0.2-0.3c-0.1-0.2-0.1-0.5,0-0.8c0.1-0.1,0.1-0.2,0.2-0.3l2.9-2.9c0.4-0.4,1-0.4,1.4,0s0.4,1.1,0,1.4L12.2,14h6.5
	c0.6,0,1,0.4,1,1S19.3,16,18.7,16z"/>
</svg>
