<?xml version="1.0" encoding="utf-8"?>
<!-- Generator: Adobe Illustrator 17.1.0, SVG Export Plug-In . SVG Version: 6.00 Build 0)  -->
<!DOCTYPE svg PUBLIC "-//W3C//DTD SVG 1.1//EN" "http://www.w3.org/Graphics/SVG/1.1/DTD/svg11.dtd">
<svg version="1.1" id="Layer_1" xmlns="http://www.w3.org/2000/svg" xmlns:xlink="http://www.w3.org/1999/xlink" x="0px" y="0px"
	 viewBox="0 0 795.7 280.3" enable-background="new 0 0 795.7 280.3" xml:space="preserve">
<g>
	<path fill="#353535" d="M5.1,4.6v2.2h5.3v2.2H5.1v2.3h6.1v2.2H2.2V2.4H11v2.2H5.1z"/>
	<path fill="#353535" d="M25.1,13.6h-3.4L19.3,10l-2.4,3.6h-3.3l4-5.7l-3.7-5.5h3.3l2.2,3.3l2.2-3.3h3.3l-3.7,5.3L25.1,13.6z"/>
	<path fill="#353535" d="M33.1,4.7v8.9h-2.8V4.7h-3.3V2.4h9.6v2.3H33.1z"/>
	<path fill="#353535" d="M42.2,4.6v2.2h5.3v2.2h-5.3v2.3h6.1v2.2h-8.9V2.4h8.8v2.2H42.2z"/>
	<path fill="#353535" d="M56.8,10.5L56.8,10.5h-2.2v3.2h-2.8V2.4h5c3,0,4.7,1.4,4.7,3.9c0,1.7-0.7,2.9-2,3.6l2.4,3.7h-3.2L56.8,10.5
		z M56.7,8.2c1.2,0,2-0.6,2-1.8c0-1.2-0.7-1.8-2-1.8h-2.2v3.6H56.7z"/>
	<path fill="#353535" d="M72.7,13.6l-5.2-6.9v6.9h-2.7V2.4h2.5l5.2,6.9V2.4h2.7v11.2H72.7z"/>
	<path fill="#353535" d="M81.6,11.5l-0.8,2.1h-2.9l4.8-11.2h2.9l4.7,11.2h-3l-0.8-2.1H81.6z M84.1,5.2l-1.6,4.1h3.2L84.1,5.2z"/>
	<path fill="#353535" d="M100.6,11.2v2.4H93V2.4h2.8v8.8H100.6z"/>
	<path fill="#353535" d="M117.6,3.5l-1.1,2.2c-1.2-0.7-2.7-1.2-3.6-1.2c-0.7,0-1.2,0.3-1.2,0.8c0,1.9,5.9,0.8,5.9,4.9
		c0,2.2-2,3.4-4.5,3.4c-1.9,0-3.8-0.7-5.1-1.8l1.1-2.2c1.2,1,2.9,1.7,4,1.7c0.9,0,1.5-0.3,1.5-1c0-2-5.9-0.8-5.9-4.8
		c0-2.1,1.8-3.4,4.5-3.4C114.8,2.3,116.4,2.8,117.6,3.5z"/>
	<path fill="#353535" d="M123.6,4.6v2.2h5.3v2.2h-5.3v2.3h6.1v2.2h-8.9V2.4h8.8v2.2H123.6z"/>
	<path fill="#353535" d="M138.2,10.5L138.2,10.5H136v3.2h-2.8V2.4h5c3,0,4.7,1.4,4.7,3.9c0,1.7-0.7,2.9-2,3.6l2.4,3.7h-3.2
		L138.2,10.5z M138.2,8.2c1.2,0,2-0.6,2-1.8c0-1.2-0.7-1.8-2-1.8H136v3.6H138.2z"/>
	<path fill="#353535" d="M149.4,13.6l-4.4-11.2h3l2.9,8.2l2.9-8.2h2.9l-4.4,11.2H149.4z"/>
	<path fill="#353535" d="M159.5,13.6V2.4h2.8v11.2H159.5z"/>
	<path fill="#353535" d="M175.9,4.2l-1.6,2c-0.7-0.9-1.8-1.5-2.8-1.5c-1.8,0-3.1,1.4-3.1,3.2c0,1.9,1.3,3.3,3.1,3.3
		c0.9,0,2-0.5,2.8-1.3l1.7,1.8c-1.2,1.2-3,2-4.6,2c-3.4,0-5.9-2.5-5.9-5.8c0-3.2,2.6-5.7,6-5.7C173.1,2.3,174.8,3,175.9,4.2z"/>
	<path fill="#353535" d="M181.7,4.6v2.2h5.3v2.2h-5.3v2.3h6.1v2.2h-8.9V2.4h8.8v2.2H181.7z"/>
	<path fill="#353535" d="M200,3.5l-1.1,2.2c-1.2-0.7-2.7-1.2-3.6-1.2c-0.7,0-1.2,0.3-1.2,0.8c0,1.9,5.9,0.8,5.9,4.9
		c0,2.2-2,3.4-4.5,3.4c-1.9,0-3.8-0.7-5.1-1.8l1.1-2.2c1.2,1,2.9,1.7,4,1.7c0.9,0,1.5-0.3,1.5-1c0-2-5.9-0.8-5.9-4.8
		c0-2.1,1.8-3.4,4.5-3.4C197.2,2.3,198.8,2.8,200,3.5z"/>
</g>
<line fill="none" stroke="#353535" stroke-width="4" stroke-linecap="round" stroke-linejoin="round" stroke-miterlimit="10" x1="2" y1="25.4" x2="793.7" y2="25.4"/>
<g>
	<path fill="#353535" d="M582.2,240.3v-8.9h1.5v8.8c0,2.2,0.7,3.5,2.7,3.5c2,0,2.7-1.3,2.7-3.4v-8.8h1.5v8.9c0,2.7-1.2,4.6-4.1,4.6
		C583.4,244.9,582.2,243,582.2,240.3z"/>
	<path fill="#353535" d="M592.1,242.9l1-0.7c0.6,1,1.6,1.5,2.6,1.5c1.2,0,1.9-0.5,1.9-1.4c0-2.3-5-1.4-5-4.8c0-1.5,1.2-2.6,3-2.6
		c1.4,0,2.4,0.7,3.1,1.7l-1,0.8c-0.5-0.7-1.2-1.3-2.2-1.3c-1.1,0-1.6,0.5-1.6,1.3c0,2.4,4.9,1.3,4.9,4.8c0,1.7-1.5,2.7-3.3,2.7
		C594.1,244.8,592.9,244.1,592.1,242.9z"/>
	<path fill="#353535" d="M600.3,239.9c0-3.4,1.8-5,3.7-5c2.1,0,3.4,1.7,3.4,4.9v0.4h-5.6c0.1,2.2,0.9,3.4,2.3,3.4
		c1.1,0,1.7-0.6,2.2-1.7l1,0.6c-0.7,1.4-1.8,2.3-3.3,2.3C601.9,244.8,600.3,243.2,600.3,239.9z M606,239.1c-0.1-1.7-0.7-2.9-2-2.9
		c-1.1,0-2,0.9-2.2,2.9H606z"/>
	<path fill="#353535" d="M608.8,239.9c0-3.4,1.4-5,3.3-5c1.1,0,1.9,0.5,2.6,1.3v-5h1.4v11c0,1.2,0.1,1.9,0.2,2.3h-1.5
		c-0.1-0.3-0.2-0.9-0.2-1.2c-0.6,0.7-1.4,1.4-2.6,1.4C610.2,244.8,608.8,243.3,608.8,239.9z M614.6,242.3v-4.8
		c-0.7-0.8-1.4-1.3-2.2-1.3c-1.3,0-2.1,1.1-2.1,3.7c0,2.5,0.9,3.7,2.2,3.7C613.3,243.6,614.1,243,614.6,242.3z"/>
	<path fill="#353535" d="M623.4,243.5v1.1H622v-13.3h1.5v5c0.6-0.7,1.4-1.4,2.6-1.4c1.9,0,3.2,1.5,3.2,4.9c0,3.4-1.5,4.9-3.3,4.9
		C624.8,244.8,624.1,244.3,623.4,243.5z M627.8,239.9c0-2.5-0.9-3.7-2.1-3.7c-0.9,0-1.6,0.6-2.2,1.3v4.8c0.7,0.8,1.4,1.3,2.2,1.3
		C626.9,243.6,627.8,242.5,627.8,239.9z"/>
	<path fill="#353535" d="M630.1,248l0.3-1.2c0.2,0.1,0.7,0.1,1.2,0.1c0.8,0,1.2-0.5,1.5-1.5l0.3-0.8l-3-9.6h1.5l1.4,5
		c0.3,1,0.5,1.9,0.8,2.9h0c0.3-1,0.5-1.9,0.8-3l1.4-4.9h1.4l-3.3,10.6c-0.6,1.7-1.2,2.6-2.8,2.6C630.9,248.3,630.3,248.1,630.1,248z
		"/>
	<path fill="#353535" d="M643.1,231.3h3.7c2.4,0,4.1,1.1,4.1,3.8c0,3-1.9,4-4.2,4h-2.1v5.6h-1.5V231.3z M646.8,237.8
		c1.8,0,2.7-0.7,2.7-2.6c0-1.8-0.9-2.5-2.7-2.5h-2.2v5.1H646.8z"/>
	<path fill="#353535" d="M652.4,239.9c0-3.4,1.8-5,3.7-5c2.1,0,3.4,1.7,3.4,4.9v0.4h-5.6c0.1,2.2,0.9,3.4,2.3,3.4
		c1.1,0,1.7-0.6,2.3-1.7l1,0.6c-0.7,1.4-1.8,2.3-3.3,2.3C654,244.8,652.4,243.2,652.4,239.9z M658,239.1c-0.1-1.7-0.7-2.9-2-2.9
		c-1.1,0-2,0.9-2.2,2.9H658z"/>
	<path fill="#353535" d="M660.8,239.9c0-3.3,1.6-5,3.8-5c2.1,0,3.7,1.7,3.7,5c0,3.3-1.6,5-3.7,5S660.8,243.1,660.8,239.9z
		 M666.9,239.9c0-2.1-0.7-3.7-2.3-3.7c-1.5,0-2.3,1.5-2.3,3.7c0,2.1,0.7,3.7,2.3,3.7C666.1,243.6,666.9,242.1,666.9,239.9z"/>
	<path fill="#353535" d="M670.2,235.1h1.5v1.2c0.6-0.7,1.4-1.4,2.6-1.4c1.9,0,3.2,1.5,3.2,4.9c0,3.4-1.4,4.9-3.3,4.9
		c-1.1,0-1.9-0.5-2.5-1.3v4.8h-1.5V235.1z M676,239.9c0-2.5-0.9-3.7-2.1-3.7c-0.9,0-1.7,0.6-2.2,1.3v4.8c0.7,0.8,1.4,1.3,2.2,1.3
		C675.2,243.6,676,242.5,676,239.9z"/>
	<path fill="#353535" d="M679.4,231.3h1.5v13.3h-1.5V231.3z"/>
	<path fill="#353535" d="M682.9,239.9c0-3.4,1.8-5,3.7-5c2.1,0,3.4,1.7,3.4,4.9v0.4h-5.6c0.1,2.2,0.9,3.4,2.3,3.4
		c1.1,0,1.7-0.6,2.3-1.7l1,0.6c-0.7,1.4-1.8,2.3-3.3,2.3C684.4,244.8,682.9,243.2,682.9,239.9z M688.5,239.1c-0.1-1.7-0.7-2.9-2-2.9
		c-1.1,0-2,0.9-2.2,2.9H688.5z"/>
</g>
<g>
	<path fill="#353535" d="M153.7,240.3v-8.9h1.5v8.8c0,2.2,0.7,3.5,2.7,3.5c2,0,2.7-1.3,2.7-3.4v-8.8h1.5v8.9c0,2.7-1.2,4.6-4.1,4.6
		C154.9,244.9,153.7,243,153.7,240.3z"/>
	<path fill="#353535" d="M163.6,242.9l1-0.7c0.6,1,1.6,1.5,2.6,1.5c1.2,0,1.9-0.5,1.9-1.4c0-2.3-5-1.4-5-4.8c0-1.5,1.2-2.6,3-2.6
		c1.4,0,2.4,0.7,3.1,1.7l-1,0.8c-0.5-0.7-1.2-1.3-2.2-1.3c-1.1,0-1.6,0.5-1.6,1.3c0,2.4,4.9,1.3,4.9,4.8c0,1.7-1.5,2.7-3.3,2.7
		C165.5,244.8,164.3,244.1,163.6,242.9z"/>
	<path fill="#353535" d="M171.8,239.9c0-3.4,1.8-5,3.7-5c2.1,0,3.4,1.7,3.4,4.9v0.4h-5.6c0.1,2.2,0.9,3.4,2.3,3.4
		c1.1,0,1.7-0.6,2.3-1.7l1,0.6c-0.7,1.4-1.8,2.3-3.3,2.3C173.3,244.8,171.8,243.2,171.8,239.9z M177.4,239.1c-0.1-1.7-0.7-2.9-2-2.9
		c-1.1,0-2,0.9-2.2,2.9H177.4z"/>
	<path fill="#353535" d="M180.2,239.9c0-3.4,1.4-5,3.3-5c1.1,0,1.9,0.5,2.6,1.3v-5h1.4v11c0,1.2,0.1,1.9,0.2,2.3h-1.5
		c-0.1-0.3-0.2-0.9-0.2-1.2c-0.6,0.7-1.4,1.4-2.6,1.4C181.6,244.8,180.2,243.3,180.2,239.9z M186.1,242.3v-4.8
		c-0.7-0.8-1.4-1.3-2.3-1.3c-1.3,0-2.1,1.1-2.1,3.7c0,2.5,0.9,3.7,2.2,3.7C184.7,243.6,185.5,243,186.1,242.3z"/>
	<path fill="#353535" d="M194.9,243.5v1.1h-1.5v-13.3h1.5v5c0.6-0.7,1.4-1.4,2.6-1.4c1.9,0,3.2,1.5,3.2,4.9c0,3.4-1.5,4.9-3.3,4.9
		C196.3,244.8,195.5,244.3,194.9,243.5z M199.2,239.9c0-2.5-0.9-3.7-2.1-3.7c-0.9,0-1.6,0.6-2.2,1.3v4.8c0.7,0.8,1.4,1.3,2.3,1.3
		C198.4,243.6,199.2,242.5,199.2,239.9z"/>
	<path fill="#353535" d="M201.5,248l0.3-1.2c0.2,0.1,0.7,0.1,1.2,0.1c0.8,0,1.2-0.5,1.5-1.5l0.3-0.8l-3-9.6h1.5l1.4,5
		c0.3,1,0.5,1.9,0.8,2.9h0c0.3-1,0.5-1.9,0.8-3l1.4-4.9h1.4l-3.3,10.6c-0.6,1.7-1.2,2.6-2.8,2.6C202.3,248.3,201.8,248.1,201.5,248z
		"/>
	<path fill="#353535" d="M215,244.6h-1.4l3.9-13.4h1.4l3.9,13.4h-1.5l-1.1-3.8h-4.2L215,244.6z M219.3,237.4
		c-0.5-1.6-0.8-2.8-1.1-4.1h0c-0.3,1.3-0.7,2.5-1.1,4.1l-0.6,2.1h3.4L219.3,237.4z"/>
	<path fill="#353535" d="M224.5,235.1h1.5v1.2c0.6-0.7,1.4-1.4,2.6-1.4c1.9,0,3.2,1.5,3.2,4.9c0,3.4-1.4,4.9-3.3,4.9
		c-1.1,0-1.9-0.5-2.5-1.3v4.8h-1.5V235.1z M230.3,239.9c0-2.5-0.9-3.7-2.1-3.7c-0.9,0-1.7,0.6-2.2,1.3v4.8c0.7,0.8,1.4,1.3,2.3,1.3
		C229.4,243.6,230.3,242.5,230.3,239.9z"/>
	<path fill="#353535" d="M233.6,235.1h1.5v1.2c0.6-0.7,1.4-1.4,2.6-1.4c1.9,0,3.2,1.5,3.2,4.9c0,3.4-1.4,4.9-3.3,4.9
		c-1.1,0-1.9-0.5-2.5-1.3v4.8h-1.5V235.1z M239.4,239.9c0-2.5-0.9-3.7-2.1-3.7c-0.9,0-1.7,0.6-2.2,1.3v4.8c0.7,0.8,1.4,1.3,2.3,1.3
		C238.6,243.6,239.4,242.5,239.4,239.9z"/>
	<path fill="#353535" d="M242.8,231.3h1.5v13.3h-1.5V231.3z"/>
	<path fill="#353535" d="M246.8,231.7h1.5v1.6h-1.5V231.7z M246.8,235.1h1.5v9.5h-1.5V235.1z"/>
	<path fill="#353535" d="M250.2,239.9c0-3.4,1.7-5,3.7-5c1.9,0,2.7,1.3,3.2,2.8l-1.3,0.4c-0.3-1.2-0.8-1.9-1.9-1.9
		c-1.2,0-2.2,1.1-2.2,3.7c0,2.3,0.8,3.7,2.2,3.7c1,0,1.6-0.6,2-2l1.3,0.3c-0.5,1.8-1.6,2.8-3.3,2.8
		C251.8,244.8,250.2,243.1,250.2,239.9z"/>
	<path fill="#353535" d="M258.4,242.4c0-1.9,1.6-3.3,5.3-4v-0.6c0-1.1-0.5-1.6-1.4-1.6c-1.2,0-2.1,0.6-2.8,1.3l-0.8-0.9
		c1-1,2.3-1.7,3.8-1.7c1.9,0,2.7,1,2.7,2.9v4.5c0,1.2,0.1,1.9,0.2,2.3h-1.5c-0.1-0.4-0.2-0.7-0.2-1.2c-0.8,0.8-1.8,1.4-3,1.4
		C259.2,244.8,258.4,243.9,258.4,242.4z M263.7,242.3v-2.9c-2.9,0.6-3.9,1.6-3.9,2.8c0,1,0.5,1.4,1.3,1.4
		C262.1,243.6,263,243.1,263.7,242.3z"/>
	<path fill="#353535" d="M267.9,242.5v-6.2h-1.4v-1.2h1.4v-3.4h1.4v3.4h2.1v1.2h-2.1v5.8c0,1,0.3,1.4,1.3,1.4c0.3,0,0.6-0.1,0.8-0.1
		v1.2c-0.2,0.1-0.7,0.1-1.1,0.1C268.6,244.7,267.9,244.1,267.9,242.5z"/>
	<path fill="#353535" d="M273.3,231.7h1.5v1.6h-1.5V231.7z M273.3,235.1h1.5v9.5h-1.5V235.1z"/>
	<path fill="#353535" d="M276.7,239.9c0-3.3,1.6-5,3.8-5c2.1,0,3.7,1.7,3.7,5c0,3.3-1.6,5-3.7,5S276.7,243.1,276.7,239.9z
		 M282.8,239.9c0-2.1-0.7-3.7-2.3-3.7c-1.5,0-2.3,1.5-2.3,3.7c0,2.1,0.7,3.7,2.3,3.7C282,243.6,282.8,242.1,282.8,239.9z"/>
	<path fill="#353535" d="M286.1,235.1h1.5v1.3c0.6-0.7,1.8-1.5,3-1.5c1.5,0,2.3,0.9,2.3,2.6v7.1h-1.4v-6.8c0-1.1-0.4-1.7-1.4-1.7
		c-0.9,0-1.9,0.7-2.6,1.4v7.1h-1.5V235.1z"/>
	<path fill="#353535" d="M294.3,242.9l1-0.7c0.6,1,1.6,1.5,2.6,1.5c1.2,0,1.9-0.5,1.9-1.4c0-2.3-5-1.4-5-4.8c0-1.5,1.2-2.6,3-2.6
		c1.4,0,2.4,0.7,3.1,1.7l-1,0.8c-0.5-0.7-1.2-1.3-2.2-1.3c-1.1,0-1.6,0.5-1.6,1.3c0,2.4,4.9,1.3,4.9,4.8c0,1.7-1.5,2.7-3.3,2.7
		C296.2,244.8,295.1,244.1,294.3,242.9z"/>
</g>
<path fill="#C68F61" d="M105.1,127.6c0,10.5-8.6,19.1-19.1,19.1S67,138.1,67,127.6H105.1z"/>
<g>
	<g>
		<path fill="#353535" d="M3.7,167.8h1.3v4.7h4.5v-4.7h1.3v11.1H9.4v-5.3H4.9v5.3H3.7V167.8z"/>
		<path fill="#353535" d="M12.4,174.9c0-2.8,1.5-4.1,3.1-4.1c1.8,0,2.8,1.4,2.8,4.1v0.3h-4.7c0,1.9,0.8,2.9,1.9,2.9
			c0.9,0,1.4-0.5,1.9-1.4l0.8,0.5c-0.6,1.1-1.5,1.9-2.8,1.9C13.7,179.1,12.4,177.7,12.4,174.9z M17.1,174.3
			c-0.1-1.4-0.6-2.4-1.7-2.4c-0.9,0-1.7,0.7-1.8,2.4H17.1z"/>
		<path fill="#353535" d="M19.8,171H21v1.4h0c0.4-0.8,1.3-1.5,2.5-1.5h0.2l-0.1,1.1c0,0-0.2,0-0.3,0c-1,0-1.9,0.7-2.3,1.6v5.3h-1.2
			V171z"/>
		<path fill="#353535" d="M24.6,174.9c0-2.7,1.4-4.1,3.1-4.1c1.8,0,3.1,1.4,3.1,4.1c0,2.7-1.4,4.1-3.1,4.1S24.6,177.6,24.6,174.9z
			 M29.7,174.9c0-1.7-0.6-3.1-1.9-3.1c-1.3,0-1.9,1.2-1.9,3.1c0,1.7,0.6,3.1,1.9,3.1C29,178,29.7,176.8,29.7,174.9z"/>
		<path fill="#353535" d="M32.4,167.8h1.2v7.3c0.2-0.3,0.7-1,1.1-1.6l1.8-2.5h1.2l-2.1,2.9l2.4,5h-1.2l-1.9-4l-1.3,1.7v2.4h-1.2
			V167.8z"/>
		<path fill="#353535" d="M39.2,176.9V171h1.2v5.7c0,0.9,0.3,1.4,1.2,1.4c0.8,0,1.4-0.5,2.1-1.1V171h1.2v7.9h-1.2v-1.1
			c-0.6,0.7-1.5,1.3-2.5,1.3C39.9,179.1,39.2,178.3,39.2,176.9z"/>
		<path fill="#353535" d="M56,167.8h1.6l2.8,9.3h0l2.7-9.3h1.6v11.1h-1.2v-9.1h0c-0.1,0.7-0.5,1.9-0.8,2.8l-1.9,6.3h-1l-1.9-6.3
			c-0.3-0.9-0.6-2.1-0.8-2.8h0v9.1H56V167.8z"/>
		<path fill="#353535" d="M66.4,177c0-1.6,1.3-2.7,4.4-3.3v-0.5c0-0.9-0.4-1.3-1.2-1.3c-1,0-1.7,0.5-2.3,1.1l-0.7-0.7
			c0.8-0.8,1.9-1.4,3.1-1.4c1.5,0,2.2,0.9,2.2,2.4v3.8c0,1,0,1.5,0.2,1.9H71c-0.1-0.3-0.2-0.6-0.2-1c-0.6,0.7-1.5,1.1-2.5,1.1
			C67.1,179,66.4,178.3,66.4,177z M70.8,177v-2.4c-2.4,0.5-3.2,1.4-3.2,2.3c0,0.8,0.4,1.2,1.1,1.2C69.5,178,70.3,177.6,70.8,177z"/>
		<path fill="#353535" d="M74,168.1h1.2v1.3H74V168.1z M74,171h1.2v7.9H74V171z"/>
		<path fill="#353535" d="M77.3,167.8h1.2v11.1h-1.2V167.8z"/>
		<path fill="#353535" d="M86.5,170.9v1.1c-0.4,0-0.8,0-1.2,0.2c0.2,0.4,0.4,0.9,0.4,1.5c0,1.8-1.1,2.8-2.7,2.8
			c-0.4,0-0.8-0.1-1.1-0.2c-0.3,0.1-0.5,0.3-0.5,0.6c0,0.3,0.2,0.4,0.9,0.5l1.2,0.2c1.9,0.2,2.7,0.8,2.7,2c0,1.4-1.5,2.2-3.4,2.2
			c-2.3,0-3.1-0.7-3.1-1.9c0-0.8,0.5-1.4,1.3-1.8c-0.4-0.2-0.7-0.5-0.7-1c0-0.5,0.4-0.9,0.9-1.2c-0.7-0.5-1-1.3-1-2.3
			c0-1.7,1.2-2.9,2.8-2.9c0.8,0,1.5,0.3,2,0.8C85.4,171.2,86,171,86.5,170.9z M80.9,179.8c0,0.8,0.5,1.2,2.1,1.2
			c1.3,0,2.2-0.5,2.2-1.2c0-0.6-0.4-1-1.8-1.2l-1.3-0.2c-0.1,0-0.2,0-0.2,0C81.2,178.8,80.9,179.3,80.9,179.8z M84.6,173.7
			c0-1.2-0.6-1.9-1.6-1.9c-1,0-1.6,0.8-1.6,1.9c0,1.2,0.6,1.9,1.6,1.9C84,175.6,84.6,174.9,84.6,173.7z"/>
		<path fill="#353535" d="M87.8,176.9V171H89v5.7c0,0.9,0.3,1.4,1.2,1.4c0.8,0,1.4-0.5,2.1-1.1V171h1.2v7.9h-1.2v-1.1
			c-0.6,0.7-1.5,1.3-2.5,1.3C88.5,179.1,87.8,178.3,87.8,176.9z"/>
		<path fill="#353535" d="M95.4,171h1.2v1.1c0.5-0.6,1.5-1.3,2.5-1.3c1.3,0,2,0.8,2,2.2v5.9h-1.2v-5.6c0-0.9-0.3-1.4-1.1-1.4
			c-0.8,0-1.6,0.6-2.1,1.1v5.9h-1.2V171z"/>
		<path fill="#353535" d="M112.1,167.8h3.1c2,0,3.4,0.9,3.4,3.2c0,2.5-1.5,3.3-3.5,3.3h-1.8v4.6h-1.2V167.8z M115.1,173.2
			c1.5,0,2.2-0.6,2.2-2.2c0-1.5-0.8-2.1-2.2-2.1h-1.8v4.2H115.1z"/>
		<path fill="#353535" d="M119.8,177c0-1.6,1.3-2.7,4.4-3.3v-0.5c0-0.9-0.4-1.3-1.2-1.3c-1,0-1.7,0.5-2.3,1.1l-0.7-0.7
			c0.8-0.8,1.9-1.4,3.1-1.4c1.5,0,2.2,0.9,2.2,2.4v3.8c0,1,0,1.5,0.2,1.9h-1.2c-0.1-0.3-0.2-0.6-0.2-1c-0.6,0.7-1.5,1.1-2.5,1.1
			C120.5,179,119.8,178.3,119.8,177z M124.2,177v-2.4c-2.4,0.5-3.2,1.4-3.2,2.3c0,0.8,0.4,1.2,1.1,1.2
			C122.9,178,123.6,177.6,124.2,177z"/>
		<path fill="#353535" d="M127.2,171h1.2v1c0.5-0.6,1.2-1.2,2.2-1.2c1.5,0,2.7,1.3,2.7,4.1c0,2.9-1.2,4.1-2.8,4.1
			c-0.9,0-1.6-0.4-2.1-1.1v4h-1.2V171z M132.1,174.9c0-2.1-0.7-3.1-1.8-3.1c-0.7,0-1.4,0.5-1.9,1.1v4c0.6,0.7,1.2,1.1,1.9,1.1
			C131.4,178,132.1,177.1,132.1,174.9z"/>
		<path fill="#353535" d="M134.5,174.9c0-2.8,1.5-4.1,3.1-4.1c1.8,0,2.8,1.4,2.8,4.1v0.3h-4.7c0,1.9,0.8,2.9,1.9,2.9
			c0.9,0,1.4-0.5,1.9-1.4l0.8,0.5c-0.6,1.1-1.5,1.9-2.8,1.9C135.8,179.1,134.5,177.7,134.5,174.9z M139.2,174.3
			c-0.1-1.4-0.6-2.4-1.7-2.4c-0.9,0-1.7,0.7-1.8,2.4H139.2z"/>
		<path fill="#353535" d="M141.9,171h1.2v1.4h0c0.4-0.8,1.3-1.5,2.5-1.5h0.2l-0.1,1.1c0,0-0.2,0-0.3,0c-1,0-1.9,0.7-2.3,1.6v5.3
			h-1.2V171z"/>
		<path fill="#353535" d="M147.6,177.1V172h-1.2v-1h1.2v-2.8h1.2v2.8h1.7v1h-1.7v4.9c0,0.8,0.2,1.2,1.1,1.2c0.2,0,0.5,0,0.7-0.1v1
			c-0.2,0.1-0.6,0.1-0.9,0.1C148.1,179,147.6,178.5,147.6,177.1z"/>
		<path fill="#353535" d="M152,171h1.2v1.4h0c0.4-0.8,1.3-1.5,2.5-1.5h0.2l-0.1,1.1c0,0-0.2,0-0.3,0c-1,0-1.9,0.7-2.3,1.6v5.3H152
			V171z"/>
		<path fill="#353535" d="M156.7,177c0-1.6,1.3-2.7,4.4-3.3v-0.5c0-0.9-0.4-1.3-1.2-1.3c-1,0-1.7,0.5-2.3,1.1l-0.7-0.7
			c0.8-0.8,1.9-1.4,3.1-1.4c1.5,0,2.2,0.9,2.2,2.4v3.8c0,1,0,1.5,0.2,1.9h-1.2c-0.1-0.3-0.2-0.6-0.2-1c-0.6,0.7-1.5,1.1-2.5,1.1
			C157.4,179,156.7,178.3,156.7,177z M161.1,177v-2.4c-2.4,0.5-3.2,1.4-3.2,2.3c0,0.8,0.4,1.2,1.1,1.2
			C159.8,178,160.6,177.6,161.1,177z"/>
		<path fill="#353535" d="M164.3,168.1h1.2v1.3h-1.2V168.1z M164.3,171h1.2v7.9h-1.2V171z"/>
		<path fill="#353535" d="M167.6,167.8h1.2v11.1h-1.2V167.8z"/>
		<path fill="#353535" d="M179.3,176.4l1.1-0.5c0.5,1.2,1.3,2,2.6,2c1.3,0,2.1-0.7,2.1-1.8c0-1.3-1.1-1.8-2.3-2.4
			c-1.4-0.7-3-1.4-3-3.4c0-1.6,1.3-2.8,3-2.8c1.8,0,2.8,1.1,3.3,2.3l-1.1,0.5c-0.4-0.9-1-1.8-2.2-1.8c-1,0-1.8,0.7-1.8,1.6
			c0,1.3,1.1,1.8,2.2,2.4c1.4,0.7,3,1.4,3,3.4c0,1.6-1.3,2.9-3.3,2.9C181.1,179.1,180,178.1,179.3,176.4z"/>
		<path fill="#353535" d="M188.4,177.1V172h-1.2v-1h1.2v-2.8h1.2v2.8h1.7v1h-1.7v4.9c0,0.8,0.2,1.2,1.1,1.2c0.2,0,0.5,0,0.7-0.1v1
			c-0.2,0.1-0.6,0.1-0.9,0.1C189,179,188.4,178.5,188.4,177.1z"/>
		<path fill="#353535" d="M192.8,171h1.2v1.4h0c0.4-0.8,1.3-1.5,2.5-1.5h0.2l-0.1,1.1c0,0-0.2,0-0.3,0c-1,0-1.9,0.7-2.3,1.6v5.3
			h-1.2V171z"/>
		<path fill="#353535" d="M198.1,168.1h1.2v1.3h-1.2V168.1z M198.1,171h1.2v7.9h-1.2V171z"/>
		<path fill="#353535" d="M201.3,171h1.2v1c0.5-0.6,1.2-1.2,2.2-1.2c1.5,0,2.7,1.3,2.7,4.1c0,2.9-1.2,4.1-2.8,4.1
			c-0.9,0-1.6-0.4-2.1-1.1v4h-1.2V171z M206.2,174.9c0-2.1-0.7-3.1-1.8-3.1c-0.7,0-1.4,0.5-1.9,1.1v4c0.6,0.7,1.2,1.1,1.9,1.1
			C205.5,178,206.2,177.1,206.2,174.9z"/>
		<path fill="#353535" d="M208.6,174.9c0-2.8,1.5-4.1,3.1-4.1c1.8,0,2.8,1.4,2.8,4.1v0.3h-4.7c0,1.9,0.8,2.9,1.9,2.9
			c0.9,0,1.4-0.5,1.9-1.4l0.8,0.5c-0.6,1.1-1.5,1.9-2.8,1.9C209.9,179.1,208.6,177.7,208.6,174.9z M213.3,174.3
			c-0.1-1.4-0.6-2.4-1.7-2.4c-0.9,0-1.7,0.7-1.8,2.4H213.3z"/>
		<path fill="#353535" d="M225.1,167.8h1.6l2.8,9.3h0l2.7-9.3h1.6v11.1h-1.2v-9.1h0c-0.1,0.7-0.5,1.9-0.8,2.8l-1.9,6.3h-1l-1.9-6.3
			c-0.3-0.9-0.6-2.1-0.8-2.8h0v9.1h-1.1V167.8z"/>
		<path fill="#353535" d="M235.6,174.9c0-2.7,1.4-4.1,3.1-4.1c1.8,0,3.1,1.4,3.1,4.1c0,2.7-1.4,4.1-3.1,4.1S235.6,177.6,235.6,174.9
			z M240.6,174.9c0-1.7-0.6-3.1-1.9-3.1c-1.3,0-1.9,1.2-1.9,3.1c0,1.7,0.6,3.1,1.9,3.1C240,178,240.6,176.8,240.6,174.9z"/>
		<path fill="#353535" d="M243.4,171h1.2v1.1c0.5-0.6,1.5-1.3,2.5-1.3c1.3,0,2,0.8,2,2.2v5.9h-1.2v-5.6c0-0.9-0.3-1.4-1.1-1.4
			c-0.8,0-1.6,0.6-2.1,1.1v5.9h-1.2V171z"/>
		<path fill="#353535" d="M257,170.9v1.1c-0.4,0-0.8,0-1.2,0.2c0.2,0.4,0.4,0.9,0.4,1.5c0,1.8-1.1,2.8-2.7,2.8
			c-0.4,0-0.8-0.1-1.1-0.2c-0.3,0.1-0.5,0.3-0.5,0.6c0,0.3,0.2,0.4,0.9,0.5l1.2,0.2c1.9,0.2,2.7,0.8,2.7,2c0,1.4-1.5,2.2-3.4,2.2
			c-2.3,0-3.1-0.7-3.1-1.9c0-0.8,0.5-1.4,1.3-1.8c-0.4-0.2-0.7-0.5-0.7-1c0-0.5,0.4-0.9,0.9-1.2c-0.7-0.5-1-1.3-1-2.3
			c0-1.7,1.2-2.9,2.8-2.9c0.8,0,1.5,0.3,2,0.8C255.8,171.2,256.5,171,257,170.9z M251.3,179.8c0,0.8,0.5,1.2,2.1,1.2
			c1.3,0,2.2-0.5,2.2-1.2c0-0.6-0.4-1-1.8-1.2l-1.3-0.2c-0.1,0-0.2,0-0.2,0C251.6,178.8,251.3,179.3,251.3,179.8z M255,173.7
			c0-1.2-0.6-1.9-1.6-1.9c-1,0-1.6,0.8-1.6,1.9c0,1.2,0.6,1.9,1.6,1.9C254.4,175.6,255,174.9,255,173.7z"/>
		<path fill="#353535" d="M257.9,174.9c0-2.7,1.4-4.1,3.1-4.1c1.8,0,3.1,1.4,3.1,4.1c0,2.7-1.4,4.1-3.1,4.1S257.9,177.6,257.9,174.9
			z M263,174.9c0-1.7-0.6-3.1-1.9-3.1c-1.3,0-1.9,1.2-1.9,3.1c0,1.7,0.6,3.1,1.9,3.1C262.3,178,263,176.8,263,174.9z"/>
		<path fill="#353535" d="M265.9,167.8h1.3v4.7h4.5v-4.7h1.3v11.1h-1.3v-5.3h-4.5v5.3h-1.3V167.8z"/>
		<path fill="#353535" d="M278.1,179c-2-0.3-3.4-2.3-3.4-5.7c0-3.7,1.7-5.8,4-5.8c2.3,0,4,2,4,5.8c0,3.5-1.4,5.4-3.5,5.7
			c0.1,1.3,0.8,1.6,2,1.6h0.6v1.1h-0.9C279,181.7,278.1,180.6,278.1,179z M281.5,173.3c0-2.9-1-4.6-2.7-4.6c-1.7,0-2.8,1.7-2.8,4.6
			c0,2.9,1.1,4.7,2.8,4.7C280.5,178,281.5,176.3,281.5,173.3z"/>
		<path fill="#353535" d="M295.7,168.9h-2.9v-1.2h7v1.2H297v9.9h-1.3V168.9z"/>
		<path fill="#353535" d="M300.5,171h1.2l1,4c0.2,0.8,0.3,1.3,0.5,2.2h0c0.2-0.9,0.3-1.4,0.5-2.2l0.9-3.9h1.1l0.9,3.9
			c0.2,0.8,0.3,1.4,0.5,2.3h0c0.2-0.9,0.3-1.5,0.5-2.3l0.9-3.9h1.1l-2,8h-1.1l-1.4-6h0l-1.4,6h-1L300.5,171z"/>
		<path fill="#353535" d="M310.8,168.1h1.2v1.3h-1.2V168.1z M310.8,171h1.2v7.9h-1.2V171z"/>
		<path fill="#353535" d="M314.1,167.8h1.2v11.1h-1.2V167.8z"/>
		<path fill="#353535" d="M317.4,168.1h1.2v1.3h-1.2V168.1z M317.4,171h1.2v7.9h-1.2V171z"/>
		<path fill="#353535" d="M320.3,174.9c0-2.7,1.4-4.1,3.1-4.1c1.8,0,3.1,1.4,3.1,4.1c0,2.7-1.4,4.1-3.1,4.1S320.3,177.6,320.3,174.9
			z M325.3,174.9c0-1.7-0.6-3.1-1.9-3.1c-1.3,0-1.9,1.2-1.9,3.1c0,1.7,0.6,3.1,1.9,3.1C324.7,178,325.3,176.8,325.3,174.9z"/>
		<path fill="#353535" d="M336.6,176.4l1.1-0.5c0.5,1.2,1.3,2,2.6,2c1.3,0,2.1-0.7,2.1-1.8c0-1.3-1.1-1.8-2.3-2.4
			c-1.4-0.7-3-1.4-3-3.4c0-1.6,1.3-2.8,3-2.8c1.8,0,2.8,1.1,3.3,2.3l-1.1,0.5c-0.4-0.9-1-1.8-2.2-1.8c-1,0-1.8,0.7-1.8,1.6
			c0,1.3,1.1,1.8,2.2,2.4c1.4,0.7,3,1.4,3,3.4c0,1.6-1.3,2.9-3.3,2.9C338.4,179.1,337.3,178.1,336.6,176.4z"/>
		<path fill="#353535" d="M345.2,171h1.2v1c0.5-0.6,1.2-1.2,2.2-1.2c1.5,0,2.7,1.3,2.7,4.1c0,2.9-1.2,4.1-2.8,4.1
			c-0.9,0-1.6-0.4-2.1-1.1v4h-1.2V171z M350.1,174.9c0-2.1-0.7-3.1-1.8-3.1c-0.7,0-1.4,0.5-1.9,1.1v4c0.6,0.7,1.2,1.1,1.9,1.1
			C349.4,178,350.1,177.1,350.1,174.9z"/>
		<path fill="#353535" d="M352.5,174.9c0-2.7,1.4-4.1,3.1-4.1c1.8,0,3.1,1.4,3.1,4.1c0,2.7-1.4,4.1-3.1,4.1S352.5,177.6,352.5,174.9
			z M357.5,174.9c0-1.7-0.6-3.1-1.9-3.1c-1.3,0-1.9,1.2-1.9,3.1c0,1.7,0.6,3.1,1.9,3.1C356.9,178,357.5,176.8,357.5,174.9z"/>
		<path fill="#353535" d="M360.8,177.1V172h-1.2v-1h1.2v-2.8h1.2v2.8h1.7v1H362v4.9c0,0.8,0.2,1.2,1.1,1.2c0.2,0,0.5,0,0.7-0.1v1
			c-0.2,0.1-0.6,0.1-0.9,0.1C361.3,179,360.8,178.5,360.8,177.1z"/>
		<path fill="#353535" d="M365.7,172h-1.2v-1h1.2v-1.2c0-1.3,0.7-2,2.2-2c0.1,0,0.6,0,0.6,0v1c0,0-0.4,0-0.5,0c-0.6,0-1.1,0.2-1.1,1
			v1.2h1.5v1h-1.5v6.9h-1.2V172z"/>
		<path fill="#353535" d="M369.7,168.1h1.2v1.3h-1.2V168.1z M369.7,171h1.2v7.9h-1.2V171z"/>
		<path fill="#353535" d="M372.9,171h1.2v1.4h0c0.4-0.8,1.3-1.5,2.5-1.5h0.2l-0.1,1.1c0,0-0.2,0-0.3,0c-1,0-1.9,0.7-2.3,1.6v5.3
			h-1.2V171z"/>
		<path fill="#353535" d="M377.7,174.9c0-2.8,1.5-4.1,3.1-4.1c1.8,0,2.8,1.4,2.8,4.1v0.3h-4.7c0,1.9,0.8,2.9,1.9,2.9
			c0.9,0,1.4-0.5,1.9-1.4l0.8,0.5c-0.6,1.1-1.5,1.9-2.8,1.9C379,179.1,377.7,177.7,377.7,174.9z M382.4,174.3
			c-0.1-1.4-0.6-2.4-1.7-2.4c-0.9,0-1.7,0.7-1.8,2.4H382.4z"/>
		<path fill="#353535" d="M394.3,167.8h1.3v4.7h4.5v-4.7h1.3v11.1H400v-5.3h-4.5v5.3h-1.3V167.8z"/>
		<path fill="#353535" d="M403.3,176.9V171h1.2v5.7c0,0.9,0.3,1.4,1.2,1.4c0.8,0,1.4-0.5,2.1-1.1V171h1.2v7.9h-1.2v-1.1
			c-0.6,0.7-1.5,1.3-2.5,1.3C404,179.1,403.3,178.3,403.3,176.9z"/>
		<path fill="#353535" d="M412.1,177.9v0.9h-1.2v-11.1h1.2v4.2c0.5-0.6,1.2-1.2,2.2-1.2c1.5,0,2.7,1.3,2.7,4.1
			c0,2.9-1.2,4.1-2.8,4.1C413.3,179,412.7,178.6,412.1,177.9z M415.8,174.9c0-2.1-0.7-3.1-1.8-3.1c-0.8,0-1.3,0.5-1.9,1.1v4
			c0.6,0.7,1.2,1.1,1.9,1.1C415.1,178,415.8,177.1,415.8,174.9z"/>
		<path fill="#353535" d="M418.1,176.4l1.1-0.5c0.5,1.2,1.3,2,2.6,2c1.3,0,2.1-0.7,2.1-1.8c0-1.3-1.1-1.8-2.3-2.4
			c-1.4-0.7-3-1.4-3-3.4c0-1.6,1.3-2.8,3-2.8c1.8,0,2.8,1.1,3.3,2.3l-1.1,0.5c-0.4-0.9-1-1.8-2.2-1.8c-1,0-1.8,0.7-1.8,1.6
			c0,1.3,1.1,1.8,2.2,2.4c1.4,0.7,3,1.4,3,3.4c0,1.6-1.3,2.9-3.3,2.9C419.9,179.1,418.8,178.1,418.1,176.4z"/>
		<path fill="#353535" d="M426.7,171h1.2v1c0.5-0.6,1.2-1.2,2.2-1.2c1.5,0,2.7,1.3,2.7,4.1c0,2.9-1.2,4.1-2.8,4.1
			c-0.9,0-1.6-0.4-2.1-1.1v4h-1.2V171z M431.6,174.9c0-2.1-0.7-3.1-1.8-3.1c-0.7,0-1.4,0.5-1.9,1.1v4c0.6,0.7,1.2,1.1,1.9,1.1
			C430.9,178,431.6,177.1,431.6,174.9z"/>
		<path fill="#353535" d="M434,174.9c0-2.7,1.4-4.1,3.1-4.1c1.8,0,3.1,1.4,3.1,4.1c0,2.7-1.4,4.1-3.1,4.1S434,177.6,434,174.9z
			 M439,174.9c0-1.7-0.6-3.1-1.9-3.1c-1.3,0-1.9,1.2-1.9,3.1c0,1.7,0.6,3.1,1.9,3.1C438.4,178,439,176.8,439,174.9z"/>
		<path fill="#353535" d="M442.3,177.1V172h-1.2v-1h1.2v-2.8h1.2v2.8h1.7v1h-1.7v4.9c0,0.8,0.2,1.2,1,1.2c0.2,0,0.5,0,0.7-0.1v1
			c-0.2,0.1-0.6,0.1-0.9,0.1C442.8,179,442.3,178.5,442.3,177.1z"/>
		<path fill="#353535" d="M455.8,167.8h1.6l2.8,9.3h0l2.7-9.3h1.6v11.1h-1.2v-9.1h0c-0.1,0.7-0.5,1.9-0.8,2.8l-1.9,6.3h-1l-1.9-6.3
			c-0.3-0.9-0.6-2.1-0.8-2.8h0v9.1h-1.1V167.8z"/>
		<path fill="#353535" d="M466.2,177c0-1.6,1.3-2.7,4.4-3.3v-0.5c0-0.9-0.4-1.3-1.2-1.3c-1,0-1.7,0.5-2.3,1.1l-0.7-0.7
			c0.8-0.8,1.9-1.4,3.1-1.4c1.5,0,2.2,0.9,2.2,2.4v3.8c0,1,0,1.5,0.2,1.9h-1.2c-0.1-0.3-0.2-0.6-0.2-1c-0.6,0.7-1.5,1.1-2.5,1.1
			C466.9,179,466.2,178.3,466.2,177z M470.7,177v-2.4c-2.4,0.5-3.2,1.4-3.2,2.3c0,0.8,0.4,1.2,1.1,1.2
			C469.3,178,470.1,177.6,470.7,177z"/>
		<path fill="#353535" d="M473.8,168.1h1.2v1.3h-1.2V168.1z M473.8,171h1.2v7.9h-1.2V171z"/>
		<path fill="#353535" d="M477.1,167.8h1.2v11.1h-1.2V167.8z"/>
		<path fill="#353535" d="M480,173.3c0-3.7,1.6-5.7,4-5.7c2.1,0,3,1.5,3.4,3.5l-1.2,0.2c-0.3-1.7-1-2.6-2.3-2.6
			c-1.7,0-2.7,1.7-2.7,4.6c0,3,1,4.7,2.7,4.7c1.3,0,2-0.8,2.4-2.7l1.2,0.2c-0.4,2.1-1.5,3.6-3.6,3.6
			C481.6,179.1,480,177.1,480,173.3z"/>
		<path fill="#353535" d="M489.1,167.8h1.2v4.3c0.5-0.6,1.5-1.3,2.5-1.3c1.3,0,2,0.8,2,2.2v5.9h-1.2v-5.6c0-0.9-0.3-1.4-1.1-1.4
			c-0.8,0-1.6,0.6-2.1,1.1v5.9h-1.2V167.8z"/>
		<path fill="#353535" d="M496.7,168.1h1.2v1.3h-1.2V168.1z M496.7,171h1.2v7.9h-1.2V171z"/>
		<path fill="#353535" d="M499.9,171h1.2v1.1c0.6-0.6,1.4-1.3,2.4-1.3c1.1,0,1.6,0.4,1.8,1.3c0.6-0.6,1.5-1.3,2.5-1.3
			c1.3,0,1.9,0.8,1.9,2.2v5.9h-1.2v-5.6c0-0.9-0.3-1.4-1.1-1.4c-0.7,0-1.4,0.5-2,1.1v6h-1.2v-5.6c0-0.9-0.2-1.4-1.1-1.4
			c-0.7,0-1.4,0.5-2,1.1v5.9h-1.2V171z"/>
		<path fill="#353535" d="M511.6,171h1.2v1c0.5-0.6,1.2-1.2,2.2-1.2c1.5,0,2.7,1.3,2.7,4.1c0,2.9-1.2,4.1-2.8,4.1
			c-0.9,0-1.6-0.4-2.1-1.1v4h-1.2V171z M516.5,174.9c0-2.1-0.7-3.1-1.8-3.1c-0.7,0-1.4,0.5-1.9,1.1v4c0.6,0.7,1.2,1.1,1.9,1.1
			C515.8,178,516.5,177.1,516.5,174.9z"/>
		<path fill="#353535" d="M530.5,168.9h-2.9v-1.2h7v1.2h-2.9v9.9h-1.3V168.9z"/>
		<path fill="#353535" d="M536,171h1.2v1.4h0c0.4-0.8,1.3-1.5,2.5-1.5h0.2l-0.1,1.1c0,0-0.2,0-0.3,0c-1,0-1.9,0.7-2.3,1.6v5.3H536
			V171z"/>
		<path fill="#353535" d="M540.8,174.9c0-2.8,1.5-4.1,3.1-4.1c1.8,0,2.8,1.4,2.8,4.1v0.3H542c0,1.9,0.8,2.9,1.9,2.9
			c0.9,0,1.4-0.5,1.9-1.4l0.8,0.5c-0.6,1.1-1.5,1.9-2.8,1.9C542.1,179.1,540.8,177.7,540.8,174.9z M545.5,174.3
			c-0.1-1.4-0.6-2.4-1.7-2.4c-0.9,0-1.7,0.7-1.8,2.4H545.5z"/>
		<path fill="#353535" d="M548.3,167.8h1.2v11.1h-1.2V167.8z"/>
		<path fill="#353535" d="M551.6,167.8h1.2v11.1h-1.2V167.8z"/>
		<path fill="#353535" d="M554.4,174.9c0-2.7,1.4-4.1,3.1-4.1c1.8,0,3.1,1.4,3.1,4.1c0,2.7-1.4,4.1-3.1,4.1S554.4,177.6,554.4,174.9
			z M559.5,174.9c0-1.7-0.6-3.1-1.9-3.1c-1.3,0-1.9,1.2-1.9,3.1c0,1.7,0.6,3.1,1.9,3.1C558.8,178,559.5,176.8,559.5,174.9z"/>
		<path fill="#353535" d="M571.4,167.8h1.3v4.7h4.5v-4.7h1.3v11.1h-1.3v-5.3h-4.5v5.3h-1.3V167.8z"/>
		<path fill="#353535" d="M580.6,168.1h1.2v1.3h-1.2V168.1z M580.6,171h1.2v7.9h-1.2V171z"/>
		<path fill="#353535" d="M583.8,171h1.2v1c0.5-0.6,1.2-1.2,2.2-1.2c1.5,0,2.7,1.3,2.7,4.1c0,2.9-1.2,4.1-2.8,4.1
			c-0.9,0-1.6-0.4-2.1-1.1v4h-1.2V171z M588.6,174.9c0-2.1-0.7-3.1-1.8-3.1c-0.7,0-1.4,0.5-1.9,1.1v4c0.6,0.7,1.2,1.1,1.9,1.1
			C587.9,178,588.6,177.1,588.6,174.9z"/>
		<path fill="#353535" d="M591.1,173.3c0-3.7,1.6-5.7,4-5.7c2.1,0,3,1.5,3.4,3.5l-1.2,0.2c-0.3-1.7-1-2.6-2.3-2.6
			c-1.7,0-2.7,1.7-2.7,4.6c0,3,1,4.7,2.7,4.7c1.3,0,2-0.8,2.4-2.7l1.2,0.2c-0.4,2.1-1.5,3.6-3.6,3.6
			C592.6,179.1,591.1,177.1,591.1,173.3z"/>
		<path fill="#353535" d="M600.2,167.8h1.2v4.3c0.5-0.6,1.5-1.3,2.5-1.3c1.3,0,2,0.8,2,2.2v5.9h-1.2v-5.6c0-0.9-0.3-1.4-1.1-1.4
			c-0.8,0-1.6,0.6-2.1,1.1v5.9h-1.2V167.8z"/>
		<path fill="#353535" d="M607.3,177c0-1.6,1.3-2.7,4.4-3.3v-0.5c0-0.9-0.4-1.3-1.2-1.3c-1,0-1.7,0.5-2.3,1.1l-0.7-0.7
			c0.8-0.8,1.9-1.4,3.1-1.4c1.5,0,2.2,0.9,2.2,2.4v3.8c0,1,0,1.5,0.2,1.9h-1.2c-0.1-0.3-0.2-0.6-0.2-1c-0.6,0.7-1.5,1.1-2.5,1.1
			C608,179,607.3,178.3,607.3,177z M611.7,177v-2.4c-2.4,0.5-3.2,1.4-3.2,2.3c0,0.8,0.4,1.2,1.1,1.2
			C610.4,178,611.2,177.6,611.7,177z"/>
		<path fill="#353535" d="M615.3,177.1V172h-1.2v-1h1.2v-2.8h1.2v2.8h1.7v1h-1.7v4.9c0,0.8,0.2,1.2,1,1.2c0.2,0,0.5,0,0.7-0.1v1
			c-0.2,0.1-0.6,0.1-0.9,0.1C615.8,179,615.3,178.5,615.3,177.1z"/>
		<path fill="#353535" d="M628.9,167.8h1.3v11.1h-1.3V167.8z"/>
		<path fill="#353535" d="M632.3,171h1.2v1.1c0.5-0.6,1.5-1.3,2.5-1.3c1.3,0,2,0.8,2,2.2v5.9h-1.2v-5.6c0-0.9-0.3-1.4-1.1-1.4
			c-0.8,0-1.6,0.6-2.1,1.1v5.9h-1.2V171z"/>
		<path fill="#353535" d="M639.3,167.8h1.3l1.7,6c0.4,1.3,0.6,2.3,0.9,3.4h0c0.3-1.1,0.6-2.1,0.9-3.3l1.7-6h1.2l-3.2,11.1h-1.2
			L639.3,167.8z"/>
		<path fill="#353535" d="M648.3,168.1h1.2v1.3h-1.2V168.1z M648.3,171h1.2v7.9h-1.2V171z"/>
		<path fill="#353535" d="M650.9,177.4l0.8-0.6c0.5,0.8,1.3,1.2,2.1,1.2c1,0,1.6-0.4,1.6-1.2c0-1.9-4.1-1.2-4.1-4
			c0-1.3,1-2.1,2.5-2.1c1.2,0,2,0.6,2.6,1.4l-0.8,0.6c-0.4-0.6-1-1-1.8-1c-0.9,0-1.3,0.4-1.3,1.1c0,2,4.1,1.1,4.1,4
			c0,1.4-1.2,2.2-2.7,2.2C652.5,179.1,651.5,178.4,650.9,177.4z"/>
		<path fill="#353535" d="M658.1,168.1h1.2v1.3h-1.2V168.1z M658.1,171h1.2v7.9h-1.2V171z"/>
		<path fill="#353535" d="M661,174.9c0-2.7,1.4-4.1,3.1-4.1c1.8,0,3.1,1.4,3.1,4.1c0,2.7-1.4,4.1-3.1,4.1S661,177.6,661,174.9z
			 M666,174.9c0-1.7-0.6-3.1-1.9-3.1c-1.3,0-1.9,1.2-1.9,3.1c0,1.7,0.6,3.1,1.9,3.1C665.4,178,666,176.8,666,174.9z"/>
		<path fill="#353535" d="M668.8,171h1.2v1.1c0.5-0.6,1.5-1.3,2.5-1.3c1.3,0,2,0.8,2,2.2v5.9h-1.2v-5.6c0-0.9-0.3-1.4-1.1-1.4
			c-0.8,0-1.6,0.6-2.1,1.1v5.9h-1.2V171z"/>
		<path fill="#353535" d="M685.5,167.8h3.2c2.1,0,3.3,0.9,3.3,2.8c0,1.6-0.9,2.3-1.8,2.5v0c1.1,0.2,2.1,1,2.1,2.7c0,2-1.3,3-3.4,3
			h-3.5V167.8z M688.6,172.7c1.4,0,2.2-0.5,2.2-1.9s-0.6-1.9-2.2-1.9h-2v3.8H688.6z M688.9,177.8c1.5,0,2.2-0.7,2.2-2
			c0-1.5-0.9-2-2.4-2h-2v4.1H688.9z"/>
		<path fill="#353535" d="M693.6,177c0-1.6,1.3-2.7,4.4-3.3v-0.5c0-0.9-0.4-1.3-1.2-1.3c-1,0-1.7,0.5-2.3,1.1l-0.7-0.7
			c0.8-0.8,1.9-1.4,3.1-1.4c1.5,0,2.2,0.9,2.2,2.4v3.8c0,1,0,1.5,0.2,1.9h-1.2c-0.1-0.3-0.2-0.6-0.2-1c-0.6,0.7-1.5,1.1-2.5,1.1
			C694.3,179,693.6,178.3,693.6,177z M698,177v-2.4c-2.4,0.5-3.2,1.4-3.2,2.3c0,0.8,0.4,1.2,1.1,1.2C696.7,178,697.4,177.6,698,177z
			"/>
		<path fill="#353535" d="M700.4,177.4l0.8-0.6c0.5,0.8,1.3,1.2,2.1,1.2c1,0,1.6-0.4,1.6-1.2c0-1.9-4.1-1.2-4.1-4
			c0-1.3,1-2.1,2.5-2.1c1.2,0,2,0.6,2.6,1.4l-0.8,0.6c-0.4-0.6-1-1-1.8-1c-0.9,0-1.3,0.4-1.3,1.1c0,2,4.1,1.1,4.1,4
			c0,1.4-1.2,2.2-2.7,2.2C702,179.1,701,178.4,700.4,177.4z"/>
		<path fill="#353535" d="M707.2,174.9c0-2.8,1.5-4.1,3.1-4.1c1.8,0,2.8,1.4,2.8,4.1v0.3h-4.7c0,1.9,0.8,2.9,1.9,2.9
			c0.9,0,1.4-0.5,1.9-1.4l0.8,0.5c-0.6,1.1-1.5,1.9-2.8,1.9C708.5,179.1,707.2,177.7,707.2,174.9z M711.9,174.3
			c-0.1-1.4-0.6-2.4-1.7-2.4c-0.9,0-1.7,0.7-1.8,2.4H711.9z"/>
		<path fill="#353535" d="M714.2,174.9c0-2.8,1.4-4.1,3.1-4.1c1.6,0,2.3,1.1,2.7,2.4l-1.1,0.3c-0.3-1-0.7-1.6-1.6-1.6
			c-1,0-1.8,0.9-1.8,3.1c0,1.9,0.7,3.1,1.8,3.1c0.8,0,1.4-0.5,1.7-1.6l1.1,0.3c-0.4,1.5-1.3,2.4-2.8,2.4
			C715.6,179.1,714.2,177.6,714.2,174.9z"/>
		<path fill="#353535" d="M721,177c0-1.6,1.3-2.7,4.4-3.3v-0.5c0-0.9-0.4-1.3-1.2-1.3c-1,0-1.7,0.5-2.3,1.1l-0.7-0.7
			c0.8-0.8,1.9-1.4,3.1-1.4c1.5,0,2.2,0.9,2.2,2.4v3.8c0,1,0,1.5,0.2,1.9h-1.2c-0.1-0.3-0.2-0.6-0.2-1c-0.6,0.7-1.5,1.1-2.5,1.1
			C721.7,179,721,178.3,721,177z M725.5,177v-2.4c-2.4,0.5-3.2,1.4-3.2,2.3c0,0.8,0.4,1.2,1.1,1.2C724.2,178,724.9,177.6,725.5,177z
			"/>
		<path fill="#353535" d="M728.5,171h1.2v1.1c0.6-0.6,1.4-1.3,2.4-1.3c1.1,0,1.6,0.4,1.8,1.3c0.6-0.6,1.5-1.3,2.5-1.3
			c1.3,0,1.9,0.8,1.9,2.2v5.9h-1.2v-5.6c0-0.9-0.3-1.4-1.1-1.4c-0.7,0-1.4,0.5-2,1.1v6h-1.2v-5.6c0-0.9-0.2-1.4-1.1-1.4
			c-0.7,0-1.4,0.5-2,1.1v5.9h-1.2V171z"/>
		<path fill="#353535" d="M740.2,171h1.2v1c0.5-0.6,1.2-1.2,2.2-1.2c1.5,0,2.7,1.3,2.7,4.1c0,2.9-1.2,4.1-2.8,4.1
			c-0.9,0-1.6-0.4-2.1-1.1v4h-1.2V171z M745.1,174.9c0-2.1-0.7-3.1-1.8-3.1c-0.7,0-1.4,0.5-1.9,1.1v4c0.6,0.7,1.2,1.1,1.9,1.1
			C744.4,178,745.1,177.1,745.1,174.9z"/>
		<path fill="#353535" d="M756.5,177.8h1.8v-8.7c-0.5,0.3-1.2,0.5-1.8,0.5v-1.1c0.7,0,1.4-0.3,1.8-0.7h1.2v10h1.6v1.1h-4.6V177.8z"
			/>
		<path fill="#353535" d="M762,176.9l1-0.5c0.5,1,1.2,1.7,2.2,1.7c1.5,0,2.1-1.3,2.1-2.8c0-1.7-0.8-2.7-1.9-2.7
			c-0.9,0-1.5,0.4-2,1.2l-0.9-0.2l0.4-5.8h5.2l-0.1,1.1h-4.1l-0.3,3.7c0.4-0.6,1.1-1,2.1-1c1.7,0,2.9,1.2,2.9,3.6
			c0,2.4-1.3,3.9-3.3,3.9C763.6,179.1,762.7,178.2,762,176.9z"/>
		<path fill="#353535" d="M770.2,167.8h5.6v1.2h-4.3v3.6h3.2v1.1h-3.2v5.2h-1.3V167.8z"/>
		<path fill="#353535" d="M777.3,168.1h1.2v1.3h-1.2V168.1z M777.3,171h1.2v7.9h-1.2V171z"/>
		<path fill="#353535" d="M779.8,171h1.2l1.3,4.5c0.2,0.7,0.3,1.2,0.6,2.1h0c0.2-0.9,0.4-1.4,0.6-2.1l1.3-4.5h1.1l-2.4,8h-1.3
			L779.8,171z"/>
		<path fill="#353535" d="M786.8,174.9c0-2.8,1.5-4.1,3.1-4.1c1.8,0,2.8,1.4,2.8,4.1v0.3H788c0,1.9,0.8,2.9,1.9,2.9
			c0.9,0,1.4-0.5,1.9-1.4l0.8,0.5c-0.6,1.1-1.5,1.9-2.8,1.9C788.1,179.1,786.8,177.7,786.8,174.9z M791.5,174.3
			c-0.1-1.4-0.6-2.4-1.7-2.4c-0.9,0-1.7,0.7-1.8,2.4H791.5z"/>
	</g>
</g>
<g>
	<path fill="#5D5D5D" d="M48.5,119.3c0,10.5-8.6,19.1-19.1,19.1s-19.1-8.5-19.1-19.1H48.5z"/>
	<rect x="10.3" y="100.6" fill="#C68F61" width="38.1" height="19.2"/>
	<rect x="10.3" y="81.5" fill="#FCD9BE" width="38.1" height="19.2"/>
	<rect x="10.3" y="62.8" fill="#FFFFFF" width="38.1" height="19.2"/>
</g>
<path fill="#5D5D5D" d="M218.4,127.6c0,10.5-8.6,19.1-19.1,19.1s-19.1-8.5-19.1-19.1H218.4z"/>
<g>
	<path fill="#5D5D5D" d="M161.8,127.6c0,10.5-8.6,19.1-19.1,19.1s-19.1-8.5-19.1-19.1H161.8z"/>
	<rect x="123.6" y="108.9" fill="#C68F61" width="38.1" height="19.2"/>
	<rect x="123.6" y="89.8" fill="#FFFFFF" width="38.1" height="19.2"/>
</g>
<path fill="#C68F61" d="M275.1,127.6c0,10.5-8.6,19.1-19.1,19.1c-10.5,0-19.1-8.5-19.1-19.1H275.1z"/>
<g>
	<path fill="#5D5D5D" d="M331.8,127.6c0,10.5-8.6,19.1-19.1,19.1c-10.5,0-19.1-8.5-19.1-19.1H331.8z"/>
	<rect x="293.6" y="108.9" fill="#FCD9BE" width="38.1" height="19.2"/>
</g>
<g>
	<path fill="#5D5D5D" d="M388.4,127.6c0,10.5-8.6,19.1-19.1,19.1c-10.5,0-19.1-8.5-19.1-19.1H388.4z"/>
	<rect x="350.3" y="108.9" fill="#C68F61" width="38.1" height="19.2"/>
	<rect x="350.3" y="89.8" fill="#FCD9BE" width="38.1" height="19.2"/>
	<rect x="350.3" y="71.1" fill="#FFFFFF" width="38.1" height="19.2"/>
</g>
<g>
	<path fill="#5D5D5D" d="M502.4,127.6c0,10.5-8.6,19.1-19.1,19.1c-10.5,0-19.1-8.5-19.1-19.1H502.4z"/>
	<rect x="464.3" y="108.9" fill="#C68F61" width="38.1" height="19.2"/>
	<rect x="464.3" y="89.8" fill="#FCD9BE" width="38.1" height="19.2"/>
	<rect x="464.3" y="71.1" fill="#FFFFFF" width="38.1" height="19.2"/>
</g>
<path fill="#5D5D5D" d="M445.1,127.6c0,10.5-8.6,19.1-19.1,19.1c-10.5,0-19.1-8.5-19.1-19.1H445.1z"/>
<g>
	<g>
		<path fill="none" stroke="#000000" stroke-linecap="round" stroke-linejoin="round" d="M6.9,191.4c0,4.9,4.9,8.4,10.7,8.4h177.7
			c15.1,0,25.8-1.8,32.4,12.3"/>
	</g>
	<g>
		<path fill="none" stroke="#000000" stroke-linecap="round" stroke-linejoin="round" d="M227.6,212.1c6.6-14,17.4-12.3,32.4-12.3
			h177.7c5.9,0,10.7-3.6,10.7-8.4"/>
	</g>
</g>
<g>
	<path fill="#FFFFFF" d="M615.1,127.6c0,10.5-8.6,19.1-19.1,19.1s-19.1-8.5-19.1-19.1H615.1z"/>
</g>
<g>
	<path fill="#C68F61" d="M671.6,127.6h-38.1l0,0c0,10.5,8.5,19.1,19.1,19.1c0,0,0.1,0,0.1,0c0,0,0.1,0,0.1,0
		C663.3,146.6,671.6,138.1,671.6,127.6L671.6,127.6z"/>
	<rect x="633.5" y="108.9" fill="#FCD9BE" width="38.1" height="19.2"/>
	<rect x="633.5" y="89.8" fill="#FFFFFF" width="38.1" height="19.2"/>
</g>
<g>
	<g>
		<g>
			<path fill="none" stroke="#000000" stroke-linecap="round" stroke-linejoin="round" d="M624.6,211.4c6.6-14,17.4-12.3,32.4-12.3
				h124.8c5.9,0,10.7-3.6,10.7-8.4"/>
		</g>
	</g>
	<g>
		<g>
			<path fill="none" stroke="#000000" stroke-linecap="round" stroke-linejoin="round" d="M457.2,190.7c0,4.9,4.9,8.4,10.7,8.4
				h124.8c15.1,0,25.8-1.8,32.4,12.3"/>
		</g>
	</g>
</g>
<g>
	<path fill="#5D5D5D" d="M558.9,127.6c0,10.5-8.6,19.1-19.1,19.1c-10.5,0-19.1-8.5-19.1-19.1H558.9z"/>
	<rect x="520.8" y="108.9" fill="#C68F61" width="38.1" height="19.2"/>
	<rect x="520.8" y="89.8" fill="#FCD9BE" width="38.1" height="19.2"/>
	<rect x="520.8" y="71.1" fill="#FFFFFF" width="38.1" height="19.2"/>
</g>
<g>
	<path fill="#5D5D5D" d="M728.1,127.6c0,10.5-8.6,19.1-19.1,19.1s-19.1-8.5-19.1-19.1H728.1z"/>
	<rect x="690" y="108.9" fill="#C68F61" width="38.1" height="19.2"/>
	<rect x="690" y="89.8" fill="#FCD9BE" width="38.1" height="19.2"/>
	<rect x="690" y="71.1" fill="#FFFFFF" width="38.1" height="19.2"/>
</g>
<g>
	<path fill="#5D5D5D" d="M785.1,127.6c0,10.5-8.5,19.1-19,19.1s-19.1-8.5-19.1-19.1H785.1z"/>
	<rect x="746.9" y="108.9" fill="#C68F61" width="38.1" height="19.2"/>
	<rect x="746.9" y="89.8" fill="#FCD9BE" width="38.1" height="19.2"/>
</g>
<rect x="746.9" y="71.1" fill="#FFFFFF" width="38.1" height="19.2"/>
</svg>
