<?xml version="1.0" encoding="utf-8"?>
<!-- Generator: Adobe Illustrator 17.1.0, SVG Export Plug-In . SVG Version: 6.00 Build 0)  -->
<!DOCTYPE svg PUBLIC "-//W3C//DTD SVG 1.1//EN" "http://www.w3.org/Graphics/SVG/1.1/DTD/svg11.dtd">
<svg version="1.1" id="Layer_1" xmlns="http://www.w3.org/2000/svg" xmlns:xlink="http://www.w3.org/1999/xlink" x="0px" y="0px"
	 viewBox="0 0 795.2 104.8" enable-background="new 0 0 795.2 104.8" xml:space="preserve">
<rect x="2.1" y="22.3" fill="#FFFFFF" width="198.1" height="80.5"/>
<rect x="199.8" y="22.3" fill="#FCD9BE" width="198.1" height="80.5"/>
<rect x="397.6" y="22.3" fill="#C68F61" width="198.1" height="80.5"/>
<rect x="595.3" y="22.3" fill="#5D5D5D" width="198.1" height="80.5"/>
<g>
	<path fill="#353535" d="M8,2.4V5h5v2.2H8v4.1H5.2V0.1h8.3v2.2H8z"/>
	<path fill="#353535" d="M19.3,2.4v2.2h5.3v2.2h-5.3v2.3h6.1v2.2h-8.9V0.1h8.8v2.2H19.3z"/>
	<path fill="#353535" d="M31.4,9.3l-0.8,2.1h-2.9l4.8-11.2h2.9l4.7,11.2h-3l-0.8-2.1H31.4z M33.8,3l-1.6,4.1h3.2L33.8,3z"/>
	<path fill="#353535" d="M46.7,2.4v8.9h-2.8V2.4h-3.3V0.1h9.6v2.3H46.7z"/>
	<path fill="#353535" d="M63,6.6c0,3-2,4.8-5.1,4.8c-3.2,0-5.2-1.9-5.2-4.8V0.1h2.8v6.5c0,1.5,1,2.4,2.3,2.4c1.3,0,2.3-0.9,2.3-2.4
		V0.1H63V6.6z"/>
	<path fill="#353535" d="M71.7,8.2L71.7,8.2h-2.2v3.2h-2.8V0.1h5c3,0,4.7,1.4,4.7,3.9c0,1.7-0.7,2.9-2,3.6l2.4,3.7h-3.2L71.7,8.2z
		 M71.6,5.9c1.2,0,2-0.6,2-1.8c0-1.2-0.7-1.8-2-1.8h-2.2v3.6H71.6z"/>
	<path fill="#353535" d="M82.7,2.4v2.2H88v2.2h-5.3v2.3h6.1v2.2h-8.9V0.1h8.8v2.2H82.7z"/>
	<path fill="#353535" d="M97,0.1c3.5,0,6,2.3,6,5.6c0,3.3-2.5,5.6-6.1,5.6h-4.7V0.1H97z M95.1,9.1h2c1.7,0,3-1.3,3-3.3
		c0-2-1.3-3.3-3.1-3.3h-1.9V9.1z"/>
	<path fill="#353535" d="M116.3,0.1c2.9,0,4.5,1.4,4.5,3.9c0,2.6-1.6,4.1-4.5,4.1h-2v3.2h-2.8V0.1H116.3z M114.2,5.9h1.9
		c1.2,0,2-0.6,2-1.8c0-1.2-0.7-1.8-2-1.8h-1.9V5.9z"/>
	<path fill="#353535" d="M129,8.2L129,8.2h-2.2v3.2h-2.8V0.1h5c3,0,4.7,1.4,4.7,3.9c0,1.7-0.7,2.9-2,3.6l2.4,3.7h-3.2L129,8.2z
		 M128.9,5.9c1.2,0,2-0.6,2-1.8c0-1.2-0.7-1.8-2-1.8h-2.2v3.6H128.9z"/>
	<path fill="#353535" d="M148.4,5.7c0,3.3-2.6,5.7-6.1,5.7c-3.5,0-6-2.5-6-5.7c0-3.3,2.6-5.7,6-5.7C145.8,0,148.4,2.5,148.4,5.7z
		 M139.2,5.7c0,1.9,1.5,3.3,3.2,3.3c1.7,0,3.1-1.5,3.1-3.3c0-1.9-1.4-3.3-3.1-3.3S139.2,3.8,139.2,5.7z"/>
	<path fill="#353535" d="M156.4,0.1c3.5,0,6,2.3,6,5.6c0,3.3-2.5,5.6-6.1,5.6h-4.7V0.1H156.4z M154.4,9.1h2c1.7,0,3-1.3,3-3.3
		c0-2-1.3-3.3-3.1-3.3h-1.9V9.1z"/>
	<path fill="#353535" d="M175.5,6.6c0,3-2,4.8-5.1,4.8c-3.2,0-5.2-1.9-5.2-4.8V0.1h2.8v6.5c0,1.5,1,2.4,2.3,2.4
		c1.3,0,2.3-0.9,2.3-2.4V0.1h2.8V6.6z"/>
	<path fill="#353535" d="M188.9,1.9l-1.6,2c-0.7-0.9-1.8-1.5-2.8-1.5c-1.8,0-3.1,1.4-3.1,3.2c0,1.9,1.3,3.3,3.1,3.3
		c0.9,0,2-0.5,2.8-1.3l1.7,1.8c-1.2,1.2-3,2-4.6,2c-3.4,0-5.9-2.5-5.9-5.8c0-3.2,2.6-5.7,6-5.7C186.1,0,187.8,0.8,188.9,1.9z"/>
	<path fill="#353535" d="M197,2.4v8.9h-2.8V2.4h-3.3V0.1h9.6v2.3H197z"/>
	<path fill="#353535" d="M211.9,1.2l-1.1,2.2c-1.2-0.7-2.7-1.2-3.6-1.2c-0.7,0-1.2,0.3-1.2,0.8c0,1.9,5.9,0.8,5.9,4.9
		c0,2.2-2,3.4-4.5,3.4c-1.9,0-3.8-0.7-5.1-1.8l1.1-2.2c1.2,1,2.9,1.7,4,1.7c0.9,0,1.5-0.3,1.5-1c0-2-5.9-0.8-5.9-4.8
		c0-2.1,1.8-3.4,4.5-3.4C209.1,0,210.8,0.5,211.9,1.2z"/>
</g>
<g>
	<path fill="#353535" d="M66.8,54.2v2.2c0,0.2-0.2,0.4-0.4,0.4h-1.9c-0.2,0-0.4-0.2-0.4-0.4v-2.1c0-2.2-1.1-3.1-2.7-3.1
		c-1.5,0-2.6,0.8-2.6,3.1V67c0,2.2,1.1,3.1,2.6,3.1c1.5,0,2.7-0.8,2.7-3.1v-2.2c0-0.2,0.2-0.4,0.4-0.4h1.9c0.2,0,0.4,0.2,0.4,0.4
		v2.2c0,3.3-2.1,5.6-5.3,5.6c-3.2,0-5.3-2.3-5.3-5.6V54.2c0-3.4,1.8-5.6,5.3-5.6C64.9,48.6,66.8,50.8,66.8,54.2z"/>
	<path fill="#353535" d="M80.8,71.9c0,0.2-0.2,0.4-0.4,0.4h-2c-0.2,0-0.4-0.1-0.4-0.4l-0.7-4.5H72l-0.7,4.5
		c-0.1,0.3-0.2,0.4-0.4,0.4h-2c-0.2,0-0.4-0.2-0.4-0.4l4.2-22.5c0.1-0.2,0.2-0.4,0.4-0.4h3c0.2,0,0.3,0.2,0.4,0.4L80.8,71.9z
		 M76.8,64.9l-2.2-13l-2.2,13H76.8z"/>
	<path fill="#353535" d="M91,49.4v1.8c0,0.2-0.2,0.4-0.4,0.4h-3.4v20.3c0,0.2-0.2,0.4-0.4,0.4h-1.9c-0.2,0-0.4-0.2-0.4-0.4V51.5H81
		c-0.2,0-0.4-0.2-0.4-0.4v-1.8c0-0.2,0.2-0.4,0.4-0.4h9.5C90.8,49,91,49.1,91,49.4z"/>
	<path fill="#353535" d="M103.1,71.9c0,0.2-0.2,0.4-0.4,0.4h-2c-0.2,0-0.4-0.1-0.4-0.4l-0.7-4.5h-5.3l-0.7,4.5
		c-0.1,0.3-0.2,0.4-0.4,0.4h-2c-0.2,0-0.4-0.2-0.4-0.4l4.2-22.5c0.1-0.2,0.2-0.4,0.4-0.4h3c0.2,0,0.3,0.2,0.4,0.4L103.1,71.9z
		 M99.2,64.9l-2.2-13l-2.2,13H99.2z"/>
	<path fill="#353535" d="M108.4,69.7h6.7c0.2,0,0.4,0.1,0.4,0.4v1.9c0,0.2-0.1,0.4-0.4,0.4h-9c-0.2,0-0.4-0.2-0.4-0.4V49.4
		c0-0.2,0.2-0.4,0.4-0.4h1.9c0.2,0,0.4,0.2,0.4,0.4V69.7z"/>
	<path fill="#353535" d="M126.3,49.4c0,0-5,13-5,13v9.6c0,0.2-0.2,0.4-0.4,0.4h-1.8c-0.2,0-0.4-0.2-0.4-0.4v-9.6c0,0-4.9-13-4.9-13
		c-0.1-0.2,0.1-0.4,0.4-0.4c0.6,0,1.7,0,1.7,0c0.3,0,0.4,0.1,0.5,0.4l3.6,9.9l3.6-9.9c0.1-0.3,0.2-0.4,0.5-0.4c0,0,0,0,1.8,0
		C126.2,49,126.3,49.1,126.3,49.4z"/>
	<path fill="#353535" d="M137.7,65.2c0,0.6,0,2.2,0,2.2c0,3.2-2.3,5.3-5.3,5.3c-3.2,0-5.5-2.3-5.5-5.8v-2.1c0-0.2,0.1-0.4,0.4-0.4
		h1.9c0.2,0,0.4,0.2,0.4,0.4v2.6c0,2.1,1.3,2.9,2.9,2.9c1.9,0,2.6-1.3,2.6-2.9v-1.9c0-1.4-0.5-2.1-2.3-3.7l-2.8-2.6
		c-1.5-1.4-2.7-3.5-2.7-5.1c0-3.3,1.9-5.5,5.2-5.5c3.2,0,5.3,2.2,5.3,5.6v1.9c0,0.2-0.1,0.3-0.3,0.3h-2c-0.1,0-0.3-0.1-0.3-0.3v-2.2
		c0-2.2-1.1-3-2.6-3c-1.5,0-2.4,1-2.4,3c0,0.5,0.1,1.7,2.1,3.5c0.6,0.6,3.5,3.3,3.5,3.3C137.6,62.5,137.7,64.3,137.7,65.2z"/>
	<path fill="#353535" d="M149.7,49.4v1.8c0,0.2-0.2,0.4-0.4,0.4h-3.4v20.3c0,0.2-0.2,0.4-0.4,0.4h-1.9c-0.2,0-0.4-0.2-0.4-0.4V51.5
		h-3.4c-0.2,0-0.4-0.2-0.4-0.4v-1.8c0-0.2,0.2-0.4,0.4-0.4h9.5C149.6,49,149.7,49.1,149.7,49.4z"/>
</g>
<g>
	<path fill="#353535" d="M271.9,51.6V59h4.6c0.2,0,0.4,0.2,0.4,0.4v1.7c0,0.2-0.2,0.4-0.4,0.4h-4.6v10.3c0,0.2-0.2,0.4-0.4,0.4h-1.9
		c-0.2,0-0.4-0.2-0.4-0.4V49.4c0-0.2,0.2-0.4,0.4-0.4h9c0.2,0,0.4,0.2,0.4,0.4v1.8c0,0.2-0.2,0.4-0.4,0.4H271.9z"/>
	<path fill="#353535" d="M284.4,51.6v7.2h4.6c0.2,0,0.4,0.2,0.4,0.4v1.7c0,0.2-0.2,0.4-0.4,0.4h-4.6v8.4h6.6c0.2,0,0.4,0.2,0.4,0.4
		v1.8c0,0.2-0.2,0.4-0.4,0.4h-9c-0.2,0-0.4-0.2-0.4-0.4V49.4c0-0.2,0.2-0.4,0.4-0.4h9c0.2,0,0.4,0.2,0.4,0.4v1.8
		c0,0.2-0.2,0.4-0.4,0.4H284.4z"/>
	<path fill="#353535" d="M303.4,49.4v1.8c0,0.2-0.2,0.4-0.4,0.4h-3.4v20.3c0,0.2-0.2,0.4-0.4,0.4h-1.9c-0.2,0-0.4-0.2-0.4-0.4V51.5
		h-3.4c-0.2,0-0.4-0.2-0.4-0.4v-1.8c0-0.2,0.2-0.4,0.4-0.4h9.5C303.3,49,303.4,49.1,303.4,49.4z"/>
	<path fill="#353535" d="M316.3,54.2v2.2c0,0.2-0.2,0.4-0.4,0.4H314c-0.2,0-0.4-0.2-0.4-0.4v-2.1c0-2.2-1.1-3.1-2.7-3.1
		c-1.5,0-2.6,0.8-2.6,3.1V67c0,2.2,1.1,3.1,2.6,3.1c1.5,0,2.7-0.8,2.7-3.1v-2.2c0-0.2,0.2-0.4,0.4-0.4h1.9c0.2,0,0.4,0.2,0.4,0.4
		v2.2c0,3.3-2.1,5.6-5.3,5.6c-3.2,0-5.3-2.3-5.3-5.6V54.2c0-3.4,1.8-5.6,5.3-5.6C314.4,48.6,316.3,50.8,316.3,54.2z"/>
	<path fill="#353535" d="M329.9,49.4v22.5c0,0.2-0.2,0.4-0.4,0.4h-2c-0.2,0-0.4-0.2-0.4-0.4V61.6h-5.3v10.3c0,0.2-0.1,0.4-0.4,0.4
		h-2c-0.2,0-0.4-0.2-0.4-0.4V49.4c0-0.2,0.2-0.4,0.4-0.4h2c0.2,0,0.4,0.2,0.4,0.4V59h5.3v-9.7c0-0.2,0.1-0.4,0.4-0.4h2
		C329.8,49,329.9,49.1,329.9,49.4z"/>
</g>
<g>
	<path fill="#353535" d="M635.6,49.4l-3.3,22.5c0,0.2-0.2,0.4-0.4,0.4h-2.6h0c-0.2,0-0.4-0.2-0.4-0.4l-2.6-17.4l-2.6,17.4
		c0,0.2-0.2,0.4-0.4,0.4h0h-2.6c-0.2,0-0.4-0.2-0.4-0.4L617,49.4c0-0.2,0.2-0.4,0.4-0.4h1.9c0.2,0,0.3,0.1,0.4,0.4v0l2.4,18.7
		l3-18.7c0.1-0.3,0.2-0.4,0.4-0.4h1.7c0.2,0,0.3,0.1,0.4,0.4l3,18.7l2.4-18.7v0c0.1-0.3,0.2-0.4,0.4-0.4h1.9
		C635.4,49,635.6,49.1,635.6,49.4z"/>
	<path fill="#353535" d="M642.5,51.5v18.1h1.8c0.2,0,0.4,0.2,0.4,0.4v1.9c0,0.2-0.2,0.4-0.4,0.4h-6.1c-0.2,0-0.4-0.1-0.4-0.4V70
		c0-0.2,0.2-0.4,0.4-0.4h1.8V51.5h-1.8c-0.2,0-0.4-0.1-0.4-0.4v-1.9c0-0.2,0.2-0.4,0.4-0.4h6.1c0.2,0,0.4,0.1,0.4,0.4v1.9
		c0,0.2-0.2,0.4-0.4,0.4H642.5z"/>
	<path fill="#353535" d="M658,54.2v2.2c0,0.2-0.2,0.4-0.4,0.4h-1.9c-0.2,0-0.4-0.2-0.4-0.4v-2.1c0-2.2-1.1-3.1-2.7-3.1
		c-1.5,0-2.6,0.8-2.6,3.1V67c0,2.2,1.1,3.1,2.6,3.1c1.5,0,2.7-0.8,2.7-3.1v-2.2c0-0.2,0.2-0.4,0.4-0.4h1.9c0.2,0,0.4,0.2,0.4,0.4
		v2.2c0,3.3-2.1,5.6-5.3,5.6c-3.2,0-5.3-2.3-5.3-5.6V54.2c0-3.4,1.8-5.6,5.3-5.6C656.2,48.6,658,50.8,658,54.2z"/>
	<path fill="#353535" d="M672.2,72.3h-1.7c-0.3,0-0.5-0.2-0.6-0.4L666,60.8l-2.3,5.1v6c0,0.2-0.2,0.4-0.4,0.4h-1.9
		c-0.2,0-0.4-0.2-0.4-0.4V49.4c0-0.2,0.2-0.4,0.4-0.4h1.9c0.2,0,0.4,0.3,0.4,0.4v11.4l5-11.4c0.1-0.2,0.2-0.5,0.5-0.5h2.1
		c0.3,0,0.4,0.1,0.3,0.5l-4,8.7l4.9,13.6C672.6,72,672.5,72.2,672.2,72.3z"/>
	<path fill="#353535" d="M677.6,51.6v7.2h4.6c0.2,0,0.4,0.2,0.4,0.4v1.7c0,0.2-0.2,0.4-0.4,0.4h-4.6v8.4h6.6c0.2,0,0.4,0.2,0.4,0.4
		v1.8c0,0.2-0.2,0.4-0.4,0.4h-9c-0.2,0-0.4-0.2-0.4-0.4V49.4c0-0.2,0.2-0.4,0.4-0.4h9c0.2,0,0.4,0.2,0.4,0.4v1.8
		c0,0.2-0.2,0.4-0.4,0.4H677.6z"/>
	<path fill="#353535" d="M698.2,66.5c0,3.5-1.8,5.8-5.3,5.8h-5c-0.2,0-0.4-0.2-0.4-0.4V49.4c0-0.2,0.2-0.4,0.4-0.4h5
		c3.8,0,5.4,2.7,5.4,6.3V66.5z M692.9,69.7c1.8,0,2.5-1.2,2.5-2.6V54.6c0-1.5-0.5-3-2.5-3h-2.8v18.1H692.9z"/>
	<path fill="#353535" d="M711.9,65.2c0,0.6,0,2.2,0,2.2c0,3.2-2.3,5.3-5.3,5.3c-3.2,0-5.5-2.3-5.5-5.8v-2.1c0-0.2,0.1-0.4,0.4-0.4
		h1.9c0.2,0,0.4,0.2,0.4,0.4v2.6c0,2.1,1.3,2.9,2.9,2.9c1.9,0,2.6-1.3,2.6-2.9v-1.9c0-1.4-0.5-2.1-2.3-3.7l-2.8-2.6
		c-1.5-1.4-2.7-3.5-2.7-5.1c0-3.3,1.9-5.5,5.2-5.5c3.2,0,5.3,2.2,5.3,5.6v1.9c0,0.2-0.1,0.3-0.3,0.3h-2c-0.1,0-0.3-0.1-0.3-0.3v-2.2
		c0-2.2-1.1-3-2.6-3c-1.5,0-2.4,1-2.4,3c0,0.5,0.1,1.7,2.1,3.5c0.6,0.6,3.5,3.3,3.5,3.3C711.8,62.5,711.9,64.3,711.9,65.2z"/>
	<path fill="#353535" d="M730.2,49.4v22.5c0,0.2-0.2,0.4-0.4,0.4h-1.7c-0.2,0-0.4-0.2-0.4-0.4V55.1L723.8,72c0,0.1-0.2,0.3-0.4,0.3
		h-1.8c-0.1,0-0.3-0.1-0.4-0.3c0,0-3.8-16.2-3.9-16.8v16.7c0,0.2-0.2,0.4-0.4,0.4h0h-1.7c-0.2,0-0.4-0.2-0.4-0.4V49.4
		c0-0.2,0.2-0.4,0.4-0.4h2.4c0.2,0,0.4,0.1,0.4,0.4l4.4,18.8l4.4-18.8c0-0.2,0.3-0.4,0.4-0.4h2.4C730,49,730.2,49.1,730.2,49.4z"/>
	<path fill="#353535" d="M744.9,71.9c0,0.2-0.2,0.4-0.4,0.4h-2c-0.2,0-0.4-0.1-0.4-0.4l-0.7-4.5h-5.3l-0.7,4.5
		c-0.1,0.3-0.2,0.4-0.4,0.4h-2c-0.2,0-0.4-0.2-0.4-0.4l4.2-22.5c0.1-0.2,0.2-0.4,0.4-0.4h3c0.2,0,0.3,0.2,0.4,0.4L744.9,71.9z
		 M741,64.9l-2.2-13l-2.2,13H741z"/>
	<path fill="#353535" d="M759.1,70.3V72c0,0.2-0.1,0.3-0.4,0.3c-3.1,0-3.5-2.4-3.5-6.2c0-3-0.7-3.9-3.4-3.9h-1.7v9.8
		c0,0.2-0.2,0.4-0.4,0.4h-1.8c-0.2,0-0.4-0.2-0.4-0.4V49.4c0-0.2,0.2-0.4,0.4-0.4h3.9c3.9,0,6.4,2.1,6.4,6.7c0,2.8-1,4.6-2.8,5.1
		c2.3,0.5,2.4,2.6,2.4,4.4c0,0.2,0,2.1,0,2.3c0,2.3,0.6,2.3,1,2.4C759,69.9,759.1,70,759.1,70.3z M750.3,59.5h1.8c3,0,3.6-1.8,3.6-4
		c0-1.8-0.5-4-3.6-4h-1.8V59.5z"/>
	<path fill="#353535" d="M770.8,49.4v1.8c0,0.2-0.2,0.4-0.4,0.4H767v20.3c0,0.2-0.2,0.4-0.4,0.4h-1.9c-0.2,0-0.4-0.2-0.4-0.4V51.5
		h-3.4c-0.2,0-0.4-0.2-0.4-0.4v-1.8c0-0.2,0.2-0.4,0.4-0.4h9.5C770.7,49,770.8,49.1,770.8,49.4z"/>
</g>
<g>
	<path fill="#353535" d="M455.4,49.4v22.5c0,0.2-0.2,0.4-0.4,0.4h-1.7c-0.2,0-0.4-0.2-0.4-0.4V55.1L449,72c0,0.1-0.2,0.3-0.4,0.3
		h-1.8c-0.1,0-0.3-0.1-0.4-0.3c0,0-3.8-16.2-3.9-16.8v16.7c0,0.2-0.2,0.4-0.4,0.4h0h-1.7c-0.2,0-0.4-0.2-0.4-0.4V49.4
		c0-0.2,0.2-0.4,0.4-0.4h2.4c0.2,0,0.4,0.1,0.4,0.4l4.4,18.8l4.4-18.8c0-0.2,0.3-0.4,0.4-0.4h2.4C455.2,49,455.4,49.1,455.4,49.4z"
		/>
	<path fill="#353535" d="M470.2,71.9c0,0.2-0.2,0.4-0.4,0.4h-2c-0.2,0-0.4-0.1-0.4-0.4l-0.7-4.5h-5.3l-0.7,4.5
		c-0.1,0.3-0.2,0.4-0.4,0.4h-2c-0.2,0-0.4-0.2-0.4-0.4l4.2-22.5c0.1-0.2,0.2-0.4,0.4-0.4h3c0.2,0,0.3,0.2,0.4,0.4L470.2,71.9z
		 M466.3,64.9l-2.2-13l-2.2,13H466.3z"/>
	<path fill="#353535" d="M480.4,49.4v1.8c0,0.2-0.2,0.4-0.4,0.4h-3.4v20.3c0,0.2-0.2,0.4-0.4,0.4h-1.9c-0.2,0-0.4-0.2-0.4-0.4V51.5
		h-3.4c-0.2,0-0.4-0.2-0.4-0.4v-1.8c0-0.2,0.2-0.4,0.4-0.4h9.5C480.2,49,480.4,49.1,480.4,49.4z"/>
	<path fill="#353535" d="M493.2,54.2v2.2c0,0.2-0.2,0.4-0.4,0.4h-1.9c-0.2,0-0.4-0.2-0.4-0.4v-2.1c0-2.2-1.1-3.1-2.7-3.1
		c-1.5,0-2.6,0.8-2.6,3.1V67c0,2.2,1.1,3.1,2.6,3.1c1.5,0,2.7-0.8,2.7-3.1v-2.2c0-0.2,0.2-0.4,0.4-0.4h1.9c0.2,0,0.4,0.2,0.4,0.4
		v2.2c0,3.3-2.1,5.6-5.3,5.6c-3.2,0-5.3-2.3-5.3-5.6V54.2c0-3.4,1.8-5.6,5.3-5.6C491.4,48.6,493.2,50.8,493.2,54.2z"/>
	<path fill="#353535" d="M506.9,49.4v22.5c0,0.2-0.2,0.4-0.4,0.4h-2c-0.2,0-0.4-0.2-0.4-0.4V61.6h-5.3v10.3c0,0.2-0.1,0.4-0.4,0.4
		h-2c-0.2,0-0.4-0.2-0.4-0.4V49.4c0-0.2,0.2-0.4,0.4-0.4h2c0.2,0,0.4,0.2,0.4,0.4V59h5.3v-9.7c0-0.2,0.1-0.4,0.4-0.4h2
		C506.7,49,506.9,49.1,506.9,49.4z"/>
	<path fill="#353535" d="M520.8,65.2c0,0.6,0,2.2,0,2.2c0,3.2-2.3,5.3-5.3,5.3c-3.2,0-5.5-2.3-5.5-5.8v-2.1c0-0.2,0.1-0.4,0.4-0.4
		h1.9c0.2,0,0.4,0.2,0.4,0.4v2.6c0,2.1,1.3,2.9,2.9,2.9c1.9,0,2.6-1.3,2.6-2.9v-1.9c0-1.4-0.5-2.1-2.3-3.7l-2.8-2.6
		c-1.5-1.4-2.7-3.5-2.7-5.1c0-3.3,1.9-5.5,5.2-5.5c3.2,0,5.3,2.2,5.3,5.6v1.9c0,0.2-0.1,0.3-0.3,0.3h-2c-0.1,0-0.3-0.1-0.3-0.3v-2.2
		c0-2.2-1.1-3-2.6-3c-1.5,0-2.4,1-2.4,3c0,0.5,0.1,1.7,2.1,3.5c0.6,0.6,3.5,3.3,3.5,3.3C520.6,62.5,520.8,64.3,520.8,65.2z"/>
	<path fill="#353535" d="M532.8,49.4v1.8c0,0.2-0.2,0.4-0.4,0.4H529v20.3c0,0.2-0.2,0.4-0.4,0.4h-1.9c-0.2,0-0.4-0.2-0.4-0.4V51.5
		h-3.4c-0.2,0-0.4-0.2-0.4-0.4v-1.8c0-0.2,0.2-0.4,0.4-0.4h9.5C532.6,49,532.8,49.1,532.8,49.4z"/>
	<path fill="#353535" d="M539.5,51.5v18.1h1.8c0.2,0,0.4,0.2,0.4,0.4v1.9c0,0.2-0.2,0.4-0.4,0.4h-6.1c-0.2,0-0.4-0.1-0.4-0.4V70
		c0-0.2,0.2-0.4,0.4-0.4h1.8V51.5h-1.8c-0.2,0-0.4-0.1-0.4-0.4v-1.9c0-0.2,0.2-0.4,0.4-0.4h6.1c0.2,0,0.4,0.1,0.4,0.4v1.9
		c0,0.2-0.2,0.4-0.4,0.4H539.5z"/>
	<path fill="#353535" d="M556.8,73.5v1.7c0,0.2-0.3,0.4-0.5,0.4c-2.2,0-4-1-4.7-3.3c-0.6,0.4-1.3,0.4-2.2,0.4c-2.8,0-5-2.3-5-5.6
		V54.2c0-3.4,1.8-5.6,5.3-5.6c3.5,0,5.3,2.2,5.3,5.6v12.9c0,1.4-0.4,3-1.1,3.7c0.2,2.1,1.4,2.3,2.4,2.3
		C556.5,73.1,556.8,73.3,556.8,73.5z M547.1,54.2v6.7c1.4,0,4.3-0.4,5.2,1.8v-8.5c0-2.2-1.1-3.1-2.6-3.1
		C548.2,51.2,547.1,52,547.1,54.2z M549.7,70.1c0.6,0,1.7-0.1,2.1-0.8c0-1.8,0-2.2,0-2.2c0-3.4-2.1-3.4-4.7-3.4V67
		C547.1,69.3,548.2,70.1,549.7,70.1z"/>
</g>
<g>
	<path fill="none" stroke="#353535" stroke-width="4" stroke-linecap="round" stroke-linejoin="round" stroke-miterlimit="10" d="
		M354.6,102.8h434.1c2.5,0,4.5-2,4.5-4.5V26.4c0-2.5-2-4.5-4.5-4.5H6.5c-2.5,0-4.5,2-4.5,4.5v71.8c0,2.5,2,4.5,4.5,4.5h373.9"/>
</g>
</svg>
