<?xml version="1.0" encoding="utf-8"?>
<!-- Generator: Adobe Illustrator 17.1.0, SVG Export Plug-In . SVG Version: 6.00 Build 0)  -->
<!DOCTYPE svg PUBLIC "-//W3C//DTD SVG 1.1//EN" "http://www.w3.org/Graphics/SVG/1.1/DTD/svg11.dtd">
<svg version="1.1" id="Layer_1" xmlns="http://www.w3.org/2000/svg" xmlns:xlink="http://www.w3.org/1999/xlink" x="0px" y="0px"
	 viewBox="0 0 795.7 280.3" enable-background="new 0 0 795.7 280.3" xml:space="preserve">
<rect x="1.1" y="1.7" fill="none" width="346.8" height="22.9"/>
<text transform="matrix(1 0 0 1 1.1007 13.608)" fill="#353535" font-family="'Montserrat-Bold'" font-size="16" letter-spacing="1">EXTERNAL SERVICES</text>
<line fill="none" stroke="#353535" stroke-width="4" stroke-linecap="round" stroke-linejoin="round" stroke-miterlimit="10" x1="2" y1="25.4" x2="793.7" y2="25.4"/>
<rect x="478.9" y="231.3" fill="none" width="313.7" height="49"/>
<text transform="matrix(1 0 0 1 580.9528 244.6347)" fill="#353535" font-family="'BentonSans-CondensedRegular'" font-size="18">Used by People</text>
<rect x="70.3" y="231.3" fill="none" width="313.7" height="49"/>
<text transform="matrix(1 0 0 1 152.3907 244.6347)" fill="#353535" font-family="'BentonSans-CondensedRegular'" font-size="18">Used by Applications</text>
<path fill="#C68F61" d="M105.1,127.6c0,10.5-8.6,19.1-19.1,19.1S67,138.1,67,127.6H105.1z"/>
<g>
	<rect x="1.3" y="167.8" fill="none" width="793.2" height="18.4"/>
	<text transform="matrix(1 0 0 1 2.5133 178.894)" fill="#353535" font-family="'BentonSans-CondensedRegular'" font-size="15">Heroku   Mailgun   Papertrail   Stripe   MongoHQ   Twilio   Spotfire   HubSpot   MailChimp   Trello   HipChat   InVision   Basecamp   15Five</text>
</g>
<g>
	<path fill="#5D5D5D" d="M48.5,119.3c0,10.5-8.6,19.1-19.1,19.1s-19.1-8.5-19.1-19.1H48.5z"/>
	<rect x="10.3" y="100.6" fill="#C68F61" width="38.1" height="19.2"/>
	<rect x="10.3" y="81.5" fill="#FCD9BE" width="38.1" height="19.2"/>
	<rect x="10.3" y="62.8" fill="#FFFFFF" width="38.1" height="19.2"/>
</g>
<path fill="#5D5D5D" d="M218.4,127.6c0,10.5-8.6,19.1-19.1,19.1s-19.1-8.5-19.1-19.1H218.4z"/>
<g>
	<path fill="#5D5D5D" d="M161.8,127.6c0,10.5-8.6,19.1-19.1,19.1s-19.1-8.5-19.1-19.1H161.8z"/>
	<rect x="123.6" y="108.9" fill="#C68F61" width="38.1" height="19.2"/>
	<rect x="123.6" y="89.8" fill="#FFFFFF" width="38.1" height="19.2"/>
</g>
<path fill="#C68F61" d="M275.1,127.6c0,10.5-8.6,19.1-19.1,19.1c-10.5,0-19.1-8.5-19.1-19.1H275.1z"/>
<g>
	<path fill="#5D5D5D" d="M331.8,127.6c0,10.5-8.6,19.1-19.1,19.1c-10.5,0-19.1-8.5-19.1-19.1H331.8z"/>
	<rect x="293.6" y="108.9" fill="#FCD9BE" width="38.1" height="19.2"/>
</g>
<g>
	<path fill="#5D5D5D" d="M388.4,127.6c0,10.5-8.6,19.1-19.1,19.1c-10.5,0-19.1-8.5-19.1-19.1H388.4z"/>
	<rect x="350.3" y="108.9" fill="#C68F61" width="38.1" height="19.2"/>
	<rect x="350.3" y="89.8" fill="#FCD9BE" width="38.1" height="19.2"/>
	<rect x="350.3" y="71.1" fill="#FFFFFF" width="38.1" height="19.2"/>
</g>
<g>
	<path fill="#5D5D5D" d="M502.4,127.6c0,10.5-8.6,19.1-19.1,19.1c-10.5,0-19.1-8.5-19.1-19.1H502.4z"/>
	<rect x="464.3" y="108.9" fill="#C68F61" width="38.1" height="19.2"/>
	<rect x="464.3" y="89.8" fill="#FCD9BE" width="38.1" height="19.2"/>
	<rect x="464.3" y="71.1" fill="#FFFFFF" width="38.1" height="19.2"/>
</g>
<path fill="#5D5D5D" d="M445.1,127.6c0,10.5-8.6,19.1-19.1,19.1c-10.5,0-19.1-8.5-19.1-19.1H445.1z"/>
<g>
	<g>
		<path fill="none" stroke="#000000" stroke-linecap="round" stroke-linejoin="round" d="M6.9,191.4c0,4.9,4.9,8.4,10.7,8.4h177.7
			c15.1,0,25.8-1.8,32.4,12.3"/>
	</g>
	<g>
		<path fill="none" stroke="#000000" stroke-linecap="round" stroke-linejoin="round" d="M227.6,212.1c6.6-14,17.4-12.3,32.4-12.3
			h177.7c5.9,0,10.7-3.6,10.7-8.4"/>
	</g>
</g>
<g>
	<path fill="#FFFFFF" d="M615.1,127.6c0,10.5-8.6,19.1-19.1,19.1s-19.1-8.5-19.1-19.1H615.1z"/>
</g>
<g>
	<path fill="#C68F61" d="M671.7,127.6h-38h-0.2c0,10.5,8.5,19.1,19.1,19.1c0,0,0.1,0,0.1,0c0,0,0.1,0,0.1,0
		c10.5,0,19.1-8.5,19.1-19.1H671.7z"/>
	<rect x="633.5" y="108.9" fill="#FCD9BE" width="38.1" height="19.2"/>
	<rect x="633.5" y="89.8" fill="#FFFFFF" width="38.1" height="19.2"/>
</g>
<g>
	<g>
		<g>
			<path fill="none" stroke="#000000" stroke-linecap="round" stroke-linejoin="round" d="M624.6,211.4c6.6-14,17.4-12.3,32.4-12.3
				h124.8c5.9,0,10.7-3.6,10.7-8.4"/>
		</g>
	</g>
	<g>
		<g>
			<path fill="none" stroke="#000000" stroke-linecap="round" stroke-linejoin="round" d="M457.2,190.7c0,4.9,4.9,8.4,10.7,8.4
				h124.8c15.1,0,25.8-1.8,32.4,12.3"/>
		</g>
	</g>
</g>
<g>
	<path fill="#5D5D5D" d="M558.9,127.6c0,10.5-8.6,19.1-19.1,19.1c-10.5,0-19.1-8.5-19.1-19.1H558.9z"/>
	<rect x="520.8" y="108.9" fill="#C68F61" width="38.1" height="19.2"/>
	<rect x="520.8" y="89.8" fill="#FCD9BE" width="38.1" height="19.2"/>
	<rect x="520.8" y="71.1" fill="#FFFFFF" width="38.1" height="19.2"/>
</g>
<g>
	<path fill="#5D5D5D" d="M728.1,127.6c0,10.5-8.6,19.1-19.1,19.1s-19.1-8.5-19.1-19.1H728.1z"/>
	<rect x="690" y="108.9" fill="#C68F61" width="38.1" height="19.2"/>
	<rect x="690" y="89.8" fill="#FCD9BE" width="38.1" height="19.2"/>
	<rect x="690" y="71.1" fill="#FFFFFF" width="38.1" height="19.2"/>
</g>
<g>
	<path fill="#5D5D5D" d="M785.1,127.6c0,10.5-8.6,19.1-19.1,19.1s-19.1-8.5-19.1-19.1H785.1z"/>
	<rect x="747" y="108.9" fill="#C68F61" width="38.1" height="19.2"/>
	<rect x="747" y="89.8" fill="#FCD9BE" width="38.1" height="19.2"/>
</g>
</svg>
