<?xml version="1.0" encoding="utf-8"?>
<!-- Generator: Adobe Illustrator 17.1.0, SVG Export Plug-In . SVG Version: 6.00 Build 0)  -->
<!DOCTYPE svg PUBLIC "-//W3C//DTD SVG 1.1//EN" "http://www.w3.org/Graphics/SVG/1.1/DTD/svg11.dtd">
<svg version="1.1" id="Layer_1" xmlns="http://www.w3.org/2000/svg" xmlns:xlink="http://www.w3.org/1999/xlink" x="0px" y="0px"
	 viewBox="0 0 795.7 246" enable-background="new 0 0 795.7 246" xml:space="preserve">
<g>
	<path fill="#353535" d="M5.1,2.4v2.2h5.3v2.2H5.1v2.3h6.1v2.2H2.2V0.1H11v2.2H5.1z"/>
	<path fill="#353535" d="M25.1,11.3h-3.4l-2.4-3.6l-2.4,3.6h-3.3l4-5.7l-3.7-5.5h3.3l2.2,3.3l2.2-3.3h3.3l-3.7,5.3L25.1,11.3z"/>
	<path fill="#353535" d="M33.1,2.4v8.9h-2.8V2.4h-3.3V0.1h9.6v2.3H33.1z"/>
	<path fill="#353535" d="M42.2,2.4v2.2h5.3v2.2h-5.3v2.3h6.1v2.2h-8.9V0.1h8.8v2.2H42.2z"/>
	<path fill="#353535" d="M56.8,8.2L56.8,8.2h-2.2v3.2h-2.8V0.1h5c3,0,4.7,1.4,4.7,3.9c0,1.7-0.7,2.9-2,3.6l2.4,3.7h-3.2L56.8,8.2z
		 M56.7,5.9c1.2,0,2-0.6,2-1.8c0-1.2-0.7-1.8-2-1.8h-2.2v3.6H56.7z"/>
	<path fill="#353535" d="M72.7,11.3l-5.2-6.9v6.9h-2.7V0.1h2.5L72.6,7V0.1h2.7v11.2H72.7z"/>
	<path fill="#353535" d="M81.6,9.3l-0.8,2.1h-2.9l4.8-11.2h2.9l4.7,11.2h-3l-0.8-2.1H81.6z M84.1,3l-1.6,4.1h3.2L84.1,3z"/>
	<path fill="#353535" d="M100.6,8.9v2.4H93V0.1h2.8v8.8H100.6z"/>
	<path fill="#353535" d="M117.6,1.2l-1.1,2.2c-1.2-0.7-2.7-1.2-3.6-1.2c-0.7,0-1.2,0.3-1.2,0.8c0,1.9,5.9,0.8,5.9,4.9
		c0,2.2-2,3.4-4.5,3.4c-1.9,0-3.8-0.7-5.1-1.8l1.1-2.2c1.2,1,2.9,1.7,4,1.7c0.9,0,1.5-0.3,1.5-1c0-2-5.9-0.8-5.9-4.8
		c0-2.1,1.8-3.4,4.5-3.4C114.8,0,116.4,0.5,117.6,1.2z"/>
	<path fill="#353535" d="M123.6,2.4v2.2h5.3v2.2h-5.3v2.3h6.1v2.2h-8.9V0.1h8.8v2.2H123.6z"/>
	<path fill="#353535" d="M138.2,8.2L138.2,8.2H136v3.2h-2.8V0.1h5c3,0,4.7,1.4,4.7,3.9c0,1.7-0.7,2.9-2,3.6l2.4,3.7h-3.2L138.2,8.2z
		 M138.2,5.9c1.2,0,2-0.6,2-1.8c0-1.2-0.7-1.8-2-1.8H136v3.6H138.2z"/>
	<path fill="#353535" d="M149.4,11.3l-4.4-11.2h3l2.9,8.2l2.9-8.2h2.9l-4.4,11.2H149.4z"/>
	<path fill="#353535" d="M159.5,11.3V0.1h2.8v11.2H159.5z"/>
	<path fill="#353535" d="M175.9,1.9l-1.6,2c-0.7-0.9-1.8-1.5-2.8-1.5c-1.8,0-3.1,1.4-3.1,3.2c0,1.9,1.3,3.3,3.1,3.3
		c0.9,0,2-0.5,2.8-1.3l1.7,1.8c-1.2,1.2-3,2-4.6,2c-3.4,0-5.9-2.5-5.9-5.8c0-3.2,2.6-5.7,6-5.7C173.1,0,174.8,0.8,175.9,1.9z"/>
	<path fill="#353535" d="M181.7,2.4v2.2h5.3v2.2h-5.3v2.3h6.1v2.2h-8.9V0.1h8.8v2.2H181.7z"/>
	<path fill="#353535" d="M200,1.2l-1.1,2.2c-1.2-0.7-2.7-1.2-3.6-1.2c-0.7,0-1.2,0.3-1.2,0.8c0,1.9,5.9,0.8,5.9,4.9
		c0,2.2-2,3.4-4.5,3.4c-1.9,0-3.8-0.7-5.1-1.8l1.1-2.2c1.2,1,2.9,1.7,4,1.7c0.9,0,1.5-0.3,1.5-1c0-2-5.9-0.8-5.9-4.8
		c0-2.1,1.8-3.4,4.5-3.4C197.2,0,198.8,0.5,200,1.2z"/>
</g>
<line fill="none" stroke="#353535" stroke-width="4" stroke-linecap="round" stroke-linejoin="round" stroke-miterlimit="10" x1="2" y1="23.2" x2="793.7" y2="23.2"/>
<g>
	<path fill="#353535" d="M582.2,238V229h1.5v8.8c0,2.2,0.7,3.5,2.7,3.5c2,0,2.7-1.3,2.7-3.4V229h1.5v8.9c0,2.7-1.2,4.6-4.1,4.6
		C583.4,242.6,582.2,240.8,582.2,238z"/>
	<path fill="#353535" d="M592.1,240.6l1-0.7c0.6,1,1.6,1.5,2.6,1.5c1.2,0,1.9-0.5,1.9-1.4c0-2.3-5-1.4-5-4.8c0-1.5,1.2-2.6,3-2.6
		c1.4,0,2.4,0.7,3.1,1.7l-1,0.8c-0.5-0.7-1.2-1.3-2.2-1.3c-1.1,0-1.6,0.5-1.6,1.3c0,2.4,4.9,1.3,4.9,4.8c0,1.7-1.5,2.7-3.3,2.7
		C594.1,242.6,592.9,241.8,592.1,240.6z"/>
	<path fill="#353535" d="M600.3,237.6c0-3.4,1.8-5,3.7-5c2.1,0,3.4,1.7,3.4,4.9v0.4h-5.6c0.1,2.2,0.9,3.4,2.3,3.4
		c1.1,0,1.7-0.6,2.3-1.7l1,0.6c-0.7,1.4-1.8,2.3-3.3,2.3C601.9,242.6,600.3,240.9,600.3,237.6z M606,236.8c-0.1-1.7-0.7-2.9-2-2.9
		c-1.1,0-2,0.9-2.2,2.9H606z"/>
	<path fill="#353535" d="M608.8,237.6c0-3.4,1.4-5,3.3-5c1.1,0,1.9,0.5,2.6,1.3v-5h1.4v11c0,1.2,0.1,1.9,0.2,2.3h-1.5
		c-0.1-0.3-0.2-0.9-0.2-1.2c-0.6,0.7-1.4,1.4-2.6,1.4C610.2,242.5,608.8,241,608.8,237.6z M614.7,240v-4.8c-0.7-0.8-1.4-1.3-2.3-1.3
		c-1.3,0-2.1,1.1-2.1,3.7c0,2.5,0.9,3.7,2.2,3.7C613.3,241.3,614.1,240.7,614.7,240z"/>
	<path fill="#353535" d="M623.4,241.2v1.1H622v-13.3h1.5v5c0.6-0.7,1.4-1.4,2.6-1.4c1.9,0,3.2,1.5,3.2,4.9c0,3.4-1.5,4.9-3.3,4.9
		C624.8,242.5,624.1,242,623.4,241.2z M627.8,237.6c0-2.5-0.9-3.7-2.1-3.7c-0.9,0-1.6,0.6-2.2,1.3v4.8c0.7,0.8,1.4,1.3,2.3,1.3
		C626.9,241.3,627.8,240.2,627.8,237.6z"/>
	<path fill="#353535" d="M630.1,245.8l0.3-1.2c0.2,0.1,0.7,0.1,1.2,0.1c0.8,0,1.2-0.5,1.5-1.5l0.3-0.8l-3-9.6h1.5l1.4,5
		c0.3,1,0.5,1.9,0.8,2.9h0c0.3-1,0.5-1.9,0.8-3l1.4-4.9h1.4l-3.3,10.6c-0.6,1.7-1.2,2.6-2.8,2.6C630.9,246,630.3,245.9,630.1,245.8z
		"/>
	<path fill="#353535" d="M643.1,229h3.7c2.4,0,4.1,1.1,4.1,3.8c0,3-1.9,4-4.2,4h-2.1v5.6h-1.5V229z M646.8,235.5
		c1.8,0,2.7-0.7,2.7-2.6c0-1.8-0.9-2.5-2.7-2.5h-2.2v5.1H646.8z"/>
	<path fill="#353535" d="M652.4,237.6c0-3.4,1.8-5,3.7-5c2.1,0,3.4,1.7,3.4,4.9v0.4h-5.6c0.1,2.2,0.9,3.4,2.3,3.4
		c1.1,0,1.7-0.6,2.3-1.7l1,0.6c-0.7,1.4-1.8,2.3-3.3,2.3C654,242.6,652.4,240.9,652.4,237.6z M658,236.8c-0.1-1.7-0.7-2.9-2-2.9
		c-1.1,0-2,0.9-2.2,2.9H658z"/>
	<path fill="#353535" d="M660.8,237.6c0-3.3,1.6-5,3.8-5c2.1,0,3.7,1.7,3.7,5c0,3.3-1.6,5-3.7,5S660.8,240.9,660.8,237.6z
		 M666.9,237.6c0-2.1-0.7-3.7-2.3-3.7c-1.5,0-2.3,1.5-2.3,3.7c0,2.1,0.7,3.7,2.3,3.7C666.1,241.3,666.9,239.9,666.9,237.6z"/>
	<path fill="#353535" d="M670.2,232.9h1.5v1.2c0.6-0.7,1.4-1.4,2.6-1.4c1.9,0,3.2,1.5,3.2,4.9c0,3.4-1.4,4.9-3.3,4.9
		c-1.1,0-1.9-0.5-2.5-1.3v4.8h-1.5V232.9z M676,237.6c0-2.5-0.9-3.7-2.1-3.7c-0.9,0-1.7,0.6-2.2,1.3v4.8c0.7,0.8,1.4,1.3,2.3,1.3
		C675.2,241.3,676,240.2,676,237.6z"/>
	<path fill="#353535" d="M679.4,229h1.5v13.3h-1.5V229z"/>
	<path fill="#353535" d="M682.9,237.6c0-3.4,1.8-5,3.7-5c2.1,0,3.4,1.7,3.4,4.9v0.4h-5.6c0.1,2.2,0.9,3.4,2.3,3.4
		c1.1,0,1.7-0.6,2.3-1.7l1,0.6c-0.7,1.4-1.8,2.3-3.3,2.3C684.4,242.6,682.9,240.9,682.9,237.6z M688.5,236.8c-0.1-1.7-0.7-2.9-2-2.9
		c-1.1,0-2,0.9-2.2,2.9H688.5z"/>
</g>
<g>
	<path fill="#353535" d="M153.7,238V229h1.5v8.8c0,2.2,0.7,3.5,2.7,3.5c2,0,2.7-1.3,2.7-3.4V229h1.5v8.9c0,2.7-1.2,4.6-4.1,4.6
		C154.9,242.6,153.7,240.8,153.7,238z"/>
	<path fill="#353535" d="M163.6,240.6l1-0.7c0.6,1,1.6,1.5,2.6,1.5c1.2,0,1.9-0.5,1.9-1.4c0-2.3-5-1.4-5-4.8c0-1.5,1.2-2.6,3-2.6
		c1.4,0,2.4,0.7,3.1,1.7l-1,0.8c-0.5-0.7-1.2-1.3-2.2-1.3c-1.1,0-1.6,0.5-1.6,1.3c0,2.4,4.9,1.3,4.9,4.8c0,1.7-1.5,2.7-3.3,2.7
		C165.5,242.6,164.3,241.8,163.6,240.6z"/>
	<path fill="#353535" d="M171.8,237.6c0-3.4,1.8-5,3.7-5c2.1,0,3.4,1.7,3.4,4.9v0.4h-5.6c0.1,2.2,0.9,3.4,2.3,3.4
		c1.1,0,1.7-0.6,2.3-1.7l1,0.6c-0.7,1.4-1.8,2.3-3.3,2.3C173.3,242.6,171.8,240.9,171.8,237.6z M177.4,236.8c-0.1-1.7-0.7-2.9-2-2.9
		c-1.1,0-2,0.9-2.2,2.9H177.4z"/>
	<path fill="#353535" d="M180.2,237.6c0-3.4,1.4-5,3.3-5c1.1,0,1.9,0.5,2.6,1.3v-5h1.4v11c0,1.2,0.1,1.9,0.2,2.3h-1.5
		c-0.1-0.3-0.2-0.9-0.2-1.2c-0.6,0.7-1.4,1.4-2.6,1.4C181.6,242.5,180.2,241,180.2,237.6z M186.1,240v-4.8c-0.7-0.8-1.4-1.3-2.2-1.3
		c-1.3,0-2.1,1.1-2.1,3.7c0,2.5,0.9,3.7,2.2,3.7C184.7,241.3,185.5,240.7,186.1,240z"/>
	<path fill="#353535" d="M194.9,241.2v1.1h-1.5v-13.3h1.5v5c0.6-0.7,1.4-1.4,2.6-1.4c1.9,0,3.2,1.5,3.2,4.9c0,3.4-1.5,4.9-3.3,4.9
		C196.3,242.5,195.5,242,194.9,241.2z M199.2,237.6c0-2.5-0.9-3.7-2.1-3.7c-0.9,0-1.6,0.6-2.2,1.3v4.8c0.7,0.8,1.4,1.3,2.2,1.3
		C198.4,241.3,199.2,240.2,199.2,237.6z"/>
	<path fill="#353535" d="M201.5,245.8l0.3-1.2c0.2,0.1,0.7,0.1,1.2,0.1c0.8,0,1.2-0.5,1.5-1.5l0.3-0.8l-3-9.6h1.5l1.4,5
		c0.3,1,0.5,1.9,0.8,2.9h0c0.3-1,0.5-1.9,0.8-3l1.4-4.9h1.4l-3.3,10.6c-0.6,1.7-1.2,2.6-2.8,2.6C202.3,246,201.8,245.9,201.5,245.8z
		"/>
	<path fill="#353535" d="M215,242.4h-1.4l3.9-13.4h1.4l3.9,13.4h-1.5l-1.1-3.8h-4.2L215,242.4z M219.3,235.2
		c-0.5-1.6-0.8-2.8-1.1-4.1h0c-0.3,1.3-0.7,2.5-1.1,4.1l-0.6,2.1h3.4L219.3,235.2z"/>
	<path fill="#353535" d="M224.5,232.9h1.5v1.2c0.6-0.7,1.4-1.4,2.6-1.4c1.9,0,3.2,1.5,3.2,4.9c0,3.4-1.4,4.9-3.3,4.9
		c-1.1,0-1.9-0.5-2.5-1.3v4.8h-1.5V232.9z M230.3,237.6c0-2.5-0.9-3.7-2.1-3.7c-0.9,0-1.7,0.6-2.2,1.3v4.8c0.7,0.8,1.4,1.3,2.3,1.3
		C229.4,241.3,230.3,240.2,230.3,237.6z"/>
	<path fill="#353535" d="M233.6,232.9h1.5v1.2c0.6-0.7,1.4-1.4,2.6-1.4c1.9,0,3.2,1.5,3.2,4.9c0,3.4-1.4,4.9-3.3,4.9
		c-1.1,0-1.9-0.5-2.5-1.3v4.8h-1.5V232.9z M239.4,237.6c0-2.5-0.9-3.7-2.1-3.7c-0.9,0-1.7,0.6-2.2,1.3v4.8c0.7,0.8,1.4,1.3,2.2,1.3
		C238.6,241.3,239.4,240.2,239.4,237.6z"/>
	<path fill="#353535" d="M242.8,229h1.5v13.3h-1.5V229z"/>
	<path fill="#353535" d="M246.8,229.4h1.5v1.6h-1.5V229.4z M246.8,232.9h1.5v9.5h-1.5V232.9z"/>
	<path fill="#353535" d="M250.2,237.6c0-3.4,1.7-5,3.7-5c1.9,0,2.7,1.3,3.2,2.8l-1.3,0.4c-0.3-1.2-0.8-1.9-1.9-1.9
		c-1.2,0-2.2,1.1-2.2,3.7c0,2.3,0.8,3.7,2.2,3.7c1,0,1.6-0.6,2-2l1.3,0.3c-0.5,1.8-1.6,2.8-3.3,2.8
		C251.8,242.6,250.2,240.9,250.2,237.6z"/>
	<path fill="#353535" d="M258.4,240.1c0-1.9,1.6-3.3,5.3-4v-0.6c0-1.1-0.5-1.6-1.4-1.6c-1.2,0-2.1,0.6-2.8,1.3l-0.8-0.9
		c1-1,2.3-1.7,3.8-1.7c1.9,0,2.7,1,2.7,2.9v4.5c0,1.2,0.1,1.9,0.2,2.3h-1.5c-0.1-0.4-0.2-0.7-0.2-1.2c-0.8,0.8-1.8,1.4-3,1.4
		C259.2,242.5,258.4,241.6,258.4,240.1z M263.7,240.1v-2.9c-2.9,0.6-3.9,1.6-3.9,2.8c0,1,0.5,1.4,1.3,1.4
		C262.1,241.3,263,240.8,263.7,240.1z"/>
	<path fill="#353535" d="M267.9,240.2v-6.2h-1.4v-1.2h1.4v-3.4h1.4v3.4h2.1v1.2h-2.1v5.8c0,1,0.3,1.4,1.3,1.4c0.3,0,0.6-0.1,0.8-0.1
		v1.2c-0.2,0.1-0.7,0.1-1.1,0.1C268.6,242.5,267.9,241.9,267.9,240.2z"/>
	<path fill="#353535" d="M273.3,229.4h1.5v1.6h-1.5V229.4z M273.3,232.9h1.5v9.5h-1.5V232.9z"/>
	<path fill="#353535" d="M276.7,237.6c0-3.3,1.6-5,3.8-5c2.1,0,3.7,1.7,3.7,5c0,3.3-1.6,5-3.7,5S276.7,240.9,276.7,237.6z
		 M282.8,237.6c0-2.1-0.7-3.7-2.3-3.7c-1.5,0-2.3,1.5-2.3,3.7c0,2.1,0.7,3.7,2.3,3.7C282,241.3,282.8,239.9,282.8,237.6z"/>
	<path fill="#353535" d="M286.1,232.9h1.5v1.3c0.6-0.7,1.8-1.5,3-1.5c1.5,0,2.3,0.9,2.3,2.6v7.1h-1.4v-6.8c0-1.1-0.4-1.7-1.4-1.7
		c-0.9,0-1.9,0.7-2.6,1.4v7.1h-1.5V232.9z"/>
	<path fill="#353535" d="M294.3,240.6l1-0.7c0.6,1,1.6,1.5,2.6,1.5c1.2,0,1.9-0.5,1.9-1.4c0-2.3-5-1.4-5-4.8c0-1.5,1.2-2.6,3-2.6
		c1.4,0,2.4,0.7,3.1,1.7l-1,0.8c-0.5-0.7-1.2-1.3-2.2-1.3c-1.1,0-1.6,0.5-1.6,1.3c0,2.4,4.9,1.3,4.9,4.8c0,1.7-1.5,2.7-3.3,2.7
		C296.2,242.6,295.1,241.8,294.3,240.6z"/>
</g>
<path fill="#C68F61" d="M105.1,125.3c0,10.5-8.6,19.1-19.1,19.1S67,135.8,67,125.3H105.1z"/>
<g>
	<g>
		<path fill="#353535" d="M3.7,165.5h1.3v4.7h4.5v-4.7h1.3v11.1H9.4v-5.3H4.9v5.3H3.7V165.5z"/>
		<path fill="#353535" d="M12.4,172.7c0-2.8,1.5-4.1,3.1-4.1c1.8,0,2.8,1.4,2.8,4.1v0.3h-4.7c0,1.9,0.8,2.9,1.9,2.9
			c0.9,0,1.4-0.5,1.9-1.4l0.8,0.5c-0.6,1.1-1.5,1.9-2.8,1.9C13.7,176.8,12.4,175.4,12.4,172.7z M17.1,172c-0.1-1.4-0.6-2.4-1.7-2.4
			c-0.9,0-1.7,0.7-1.8,2.4H17.1z"/>
		<path fill="#353535" d="M19.8,168.7H21v1.4h0c0.5-0.8,1.3-1.5,2.5-1.5h0.2l-0.1,1.1c0,0-0.2,0-0.3,0c-1,0-1.9,0.7-2.3,1.6v5.3
			h-1.2V168.7z"/>
		<path fill="#353535" d="M24.6,172.7c0-2.7,1.4-4.1,3.1-4.1c1.8,0,3.1,1.4,3.1,4.1c0,2.7-1.4,4.1-3.1,4.1S24.6,175.4,24.6,172.7z
			 M29.7,172.7c0-1.7-0.6-3.1-1.9-3.1c-1.3,0-1.9,1.2-1.9,3.1c0,1.7,0.6,3.1,1.9,3.1C29,175.8,29.7,174.5,29.7,172.7z"/>
		<path fill="#353535" d="M32.4,165.5h1.2v7.3c0.2-0.3,0.7-1,1.1-1.6l1.8-2.5h1.2l-2.1,2.9l2.4,5h-1.2l-1.9-4l-1.3,1.7v2.4h-1.2
			V165.5z"/>
		<path fill="#353535" d="M39.2,174.6v-5.9h1.2v5.7c0,0.9,0.3,1.4,1.2,1.4c0.8,0,1.4-0.5,2.1-1.1v-5.9h1.2v7.9h-1.2v-1.1
			c-0.6,0.7-1.5,1.3-2.5,1.3C39.9,176.8,39.2,176,39.2,174.6z"/>
		<path fill="#353535" d="M56,165.5h1.6l2.8,9.3h0l2.7-9.3h1.6v11.1h-1.2v-9.1h0c-0.1,0.7-0.5,1.9-0.8,2.8l-1.9,6.3h-1l-1.9-6.3
			c-0.3-0.9-0.6-2.1-0.8-2.8h0v9.1H56V165.5z"/>
		<path fill="#353535" d="M66.4,174.7c0-1.6,1.3-2.7,4.4-3.3v-0.5c0-0.9-0.4-1.3-1.2-1.3c-1,0-1.7,0.5-2.3,1.1l-0.7-0.7
			c0.8-0.8,1.9-1.4,3.1-1.4c1.5,0,2.2,0.9,2.2,2.4v3.8c0,1,0,1.5,0.2,1.9H71c-0.1-0.3-0.2-0.6-0.2-1c-0.6,0.7-1.5,1.1-2.5,1.1
			C67.1,176.7,66.4,176,66.4,174.7z M70.8,174.7v-2.4c-2.4,0.5-3.2,1.4-3.2,2.3c0,0.8,0.4,1.2,1.1,1.2
			C69.5,175.7,70.3,175.3,70.8,174.7z"/>
		<path fill="#353535" d="M74,165.8h1.2v1.3H74V165.8z M74,168.7h1.2v7.9H74V168.7z"/>
		<path fill="#353535" d="M77.3,165.5h1.2v11.1h-1.2V165.5z"/>
		<path fill="#353535" d="M86.5,168.6v1.1c-0.4,0-0.8,0-1.2,0.2c0.2,0.4,0.4,0.9,0.4,1.5c0,1.8-1.1,2.8-2.7,2.8
			c-0.4,0-0.8-0.1-1.1-0.2c-0.3,0.1-0.5,0.3-0.5,0.6c0,0.3,0.2,0.4,0.9,0.5l1.2,0.2c1.9,0.2,2.7,0.8,2.7,2c0,1.4-1.5,2.2-3.4,2.2
			c-2.3,0-3.1-0.7-3.1-1.9c0-0.8,0.5-1.4,1.3-1.8c-0.4-0.2-0.7-0.5-0.7-1c0-0.5,0.4-0.9,0.9-1.2c-0.7-0.5-1-1.3-1-2.3
			c0-1.7,1.2-2.9,2.8-2.9c0.8,0,1.5,0.3,2,0.8C85.4,169,86,168.7,86.5,168.6z M80.9,177.5c0,0.8,0.5,1.2,2.1,1.2
			c1.3,0,2.2-0.5,2.2-1.2c0-0.6-0.4-1-1.8-1.2l-1.3-0.2c-0.1,0-0.2,0-0.2,0C81.2,176.5,80.9,177,80.9,177.5z M84.6,171.4
			c0-1.2-0.6-1.9-1.6-1.9c-1,0-1.6,0.8-1.6,1.9c0,1.2,0.6,1.9,1.6,1.9C84,173.3,84.6,172.6,84.6,171.4z"/>
		<path fill="#353535" d="M87.8,174.6v-5.9H89v5.7c0,0.9,0.3,1.4,1.2,1.4c0.8,0,1.4-0.5,2.1-1.1v-5.9h1.2v7.9h-1.2v-1.1
			c-0.6,0.7-1.5,1.3-2.5,1.3C88.5,176.8,87.8,176,87.8,174.6z"/>
		<path fill="#353535" d="M95.4,168.7h1.2v1.1c0.5-0.6,1.5-1.3,2.5-1.3c1.3,0,2,0.8,2,2.2v5.9h-1.2V171c0-0.9-0.3-1.4-1.1-1.4
			c-0.8,0-1.6,0.6-2.1,1.1v5.9h-1.2V168.7z"/>
		<path fill="#353535" d="M112.1,165.5h3.1c2,0,3.4,0.9,3.4,3.2c0,2.5-1.5,3.3-3.5,3.3h-1.8v4.6h-1.2V165.5z M115.1,170.9
			c1.5,0,2.2-0.6,2.2-2.2c0-1.5-0.8-2.1-2.2-2.1h-1.8v4.2H115.1z"/>
		<path fill="#353535" d="M119.8,174.7c0-1.6,1.3-2.7,4.4-3.3v-0.5c0-0.9-0.4-1.3-1.2-1.3c-1,0-1.7,0.5-2.3,1.1l-0.7-0.7
			c0.8-0.8,1.9-1.4,3.1-1.4c1.5,0,2.2,0.9,2.2,2.4v3.8c0,1,0,1.5,0.2,1.9h-1.2c-0.1-0.3-0.2-0.6-0.2-1c-0.6,0.7-1.5,1.1-2.5,1.1
			C120.5,176.7,119.8,176,119.8,174.7z M124.2,174.7v-2.4c-2.4,0.5-3.2,1.4-3.2,2.3c0,0.8,0.4,1.2,1.1,1.2
			C122.9,175.7,123.6,175.3,124.2,174.7z"/>
		<path fill="#353535" d="M127.3,168.7h1.2v1c0.5-0.6,1.2-1.2,2.2-1.2c1.5,0,2.7,1.3,2.7,4.1c0,2.9-1.2,4.1-2.8,4.1
			c-0.9,0-1.6-0.4-2.1-1.1v4h-1.2V168.7z M132.1,172.7c0-2.1-0.7-3.1-1.8-3.1c-0.7,0-1.4,0.5-1.9,1.1v4c0.6,0.7,1.2,1.1,1.9,1.1
			C131.4,175.7,132.1,174.8,132.1,172.7z"/>
		<path fill="#353535" d="M134.5,172.7c0-2.8,1.5-4.1,3.1-4.1c1.8,0,2.8,1.4,2.8,4.1v0.3h-4.7c0,1.9,0.8,2.9,1.9,2.9
			c0.9,0,1.4-0.5,1.9-1.4l0.8,0.5c-0.6,1.1-1.5,1.9-2.8,1.9C135.8,176.8,134.5,175.4,134.5,172.7z M139.2,172
			c-0.1-1.4-0.6-2.4-1.7-2.4c-0.9,0-1.7,0.7-1.8,2.4H139.2z"/>
		<path fill="#353535" d="M141.9,168.7h1.2v1.4h0c0.4-0.8,1.3-1.5,2.5-1.5h0.2l-0.1,1.1c0,0-0.2,0-0.3,0c-1,0-1.9,0.7-2.3,1.6v5.3
			h-1.2V168.7z"/>
		<path fill="#353535" d="M147.6,174.8v-5.1h-1.2v-1h1.2v-2.8h1.2v2.8h1.7v1h-1.7v4.9c0,0.8,0.2,1.2,1,1.2c0.2,0,0.5,0,0.7-0.1v1
			c-0.2,0.1-0.6,0.1-0.9,0.1C148.1,176.7,147.6,176.2,147.6,174.8z"/>
		<path fill="#353535" d="M152,168.7h1.2v1.4h0c0.4-0.8,1.3-1.5,2.5-1.5h0.2l-0.1,1.1c0,0-0.2,0-0.3,0c-1,0-1.9,0.7-2.3,1.6v5.3H152
			V168.7z"/>
		<path fill="#353535" d="M156.7,174.7c0-1.6,1.3-2.7,4.4-3.3v-0.5c0-0.9-0.4-1.3-1.2-1.3c-1,0-1.7,0.5-2.3,1.1l-0.7-0.7
			c0.8-0.8,1.9-1.4,3.1-1.4c1.5,0,2.2,0.9,2.2,2.4v3.8c0,1,0,1.5,0.2,1.9h-1.2c-0.1-0.3-0.2-0.6-0.2-1c-0.6,0.7-1.5,1.1-2.5,1.1
			C157.4,176.7,156.7,176,156.7,174.7z M161.1,174.7v-2.4c-2.4,0.5-3.2,1.4-3.2,2.3c0,0.8,0.4,1.2,1.1,1.2
			C159.8,175.7,160.6,175.3,161.1,174.7z"/>
		<path fill="#353535" d="M164.3,165.8h1.2v1.3h-1.2V165.8z M164.3,168.7h1.2v7.9h-1.2V168.7z"/>
		<path fill="#353535" d="M167.6,165.5h1.2v11.1h-1.2V165.5z"/>
		<path fill="#353535" d="M179.3,174.2l1.1-0.5c0.5,1.2,1.3,2,2.6,2c1.3,0,2.1-0.7,2.1-1.8c0-1.3-1.1-1.8-2.3-2.4
			c-1.4-0.7-3-1.4-3-3.4c0-1.6,1.3-2.8,3-2.8c1.8,0,2.8,1.1,3.3,2.3l-1.1,0.5c-0.4-0.9-1-1.8-2.2-1.8c-1,0-1.8,0.7-1.8,1.6
			c0,1.3,1.1,1.8,2.2,2.4c1.4,0.7,3,1.4,3,3.4c0,1.6-1.3,2.9-3.3,2.9C181.1,176.8,180,175.8,179.3,174.2z"/>
		<path fill="#353535" d="M188.4,174.8v-5.1h-1.2v-1h1.2v-2.8h1.2v2.8h1.7v1h-1.7v4.9c0,0.8,0.2,1.2,1,1.2c0.2,0,0.5,0,0.7-0.1v1
			c-0.2,0.1-0.6,0.1-0.9,0.1C189,176.7,188.4,176.2,188.4,174.8z"/>
		<path fill="#353535" d="M192.8,168.7h1.2v1.4h0c0.4-0.8,1.3-1.5,2.5-1.5h0.2l-0.1,1.1c0,0-0.2,0-0.3,0c-1,0-1.9,0.7-2.3,1.6v5.3
			h-1.2V168.7z"/>
		<path fill="#353535" d="M198.1,165.8h1.2v1.3h-1.2V165.8z M198.1,168.7h1.2v7.9h-1.2V168.7z"/>
		<path fill="#353535" d="M201.3,168.7h1.2v1c0.5-0.6,1.2-1.2,2.2-1.2c1.5,0,2.7,1.3,2.7,4.1c0,2.9-1.2,4.1-2.8,4.1
			c-0.9,0-1.6-0.4-2.1-1.1v4h-1.2V168.7z M206.2,172.7c0-2.1-0.7-3.1-1.8-3.1c-0.7,0-1.4,0.5-1.9,1.1v4c0.6,0.7,1.2,1.1,1.9,1.1
			C205.5,175.7,206.2,174.8,206.2,172.7z"/>
		<path fill="#353535" d="M208.6,172.7c0-2.8,1.5-4.1,3.1-4.1c1.8,0,2.8,1.4,2.8,4.1v0.3h-4.7c0,1.9,0.8,2.9,1.9,2.9
			c0.9,0,1.4-0.5,1.9-1.4l0.8,0.5c-0.6,1.1-1.5,1.9-2.8,1.9C209.9,176.8,208.6,175.4,208.6,172.7z M213.3,172
			c-0.1-1.4-0.6-2.4-1.7-2.4c-0.9,0-1.7,0.7-1.8,2.4H213.3z"/>
		<path fill="#353535" d="M225.1,165.5h1.6l2.8,9.3h0l2.7-9.3h1.6v11.1h-1.2v-9.1h0c-0.1,0.7-0.5,1.9-0.8,2.8l-1.9,6.3h-1l-1.9-6.3
			c-0.3-0.9-0.6-2.1-0.8-2.8h0v9.1h-1.1V165.5z"/>
		<path fill="#353535" d="M235.6,172.7c0-2.7,1.4-4.1,3.1-4.1c1.8,0,3.1,1.4,3.1,4.1c0,2.7-1.4,4.1-3.1,4.1S235.6,175.4,235.6,172.7
			z M240.6,172.7c0-1.7-0.6-3.1-1.9-3.1c-1.3,0-1.9,1.2-1.9,3.1c0,1.7,0.6,3.1,1.9,3.1C240,175.8,240.6,174.5,240.6,172.7z"/>
		<path fill="#353535" d="M243.4,168.7h1.2v1.1c0.5-0.6,1.5-1.3,2.5-1.3c1.3,0,2,0.8,2,2.2v5.9h-1.2V171c0-0.9-0.3-1.4-1.1-1.4
			c-0.8,0-1.6,0.6-2.1,1.1v5.9h-1.2V168.7z"/>
		<path fill="#353535" d="M257,168.6v1.1c-0.4,0-0.8,0-1.2,0.2c0.2,0.4,0.4,0.9,0.4,1.5c0,1.8-1.1,2.8-2.7,2.8
			c-0.4,0-0.8-0.1-1.1-0.2c-0.3,0.1-0.5,0.3-0.5,0.6c0,0.3,0.2,0.4,0.9,0.5l1.2,0.2c1.9,0.2,2.7,0.8,2.7,2c0,1.4-1.5,2.2-3.4,2.2
			c-2.3,0-3.1-0.7-3.1-1.9c0-0.8,0.5-1.4,1.3-1.8c-0.4-0.2-0.7-0.5-0.7-1c0-0.5,0.4-0.9,0.9-1.2c-0.7-0.5-1-1.3-1-2.3
			c0-1.7,1.2-2.9,2.8-2.9c0.8,0,1.5,0.3,2,0.8C255.8,169,256.5,168.7,257,168.6z M251.3,177.5c0,0.8,0.5,1.2,2.1,1.2
			c1.3,0,2.2-0.5,2.2-1.2c0-0.6-0.4-1-1.8-1.2l-1.3-0.2c-0.1,0-0.2,0-0.2,0C251.6,176.5,251.3,177,251.3,177.5z M255,171.4
			c0-1.2-0.6-1.9-1.6-1.9c-1,0-1.6,0.8-1.6,1.9c0,1.2,0.6,1.9,1.6,1.9C254.4,173.3,255,172.6,255,171.4z"/>
		<path fill="#353535" d="M257.9,172.7c0-2.7,1.4-4.1,3.1-4.1c1.8,0,3.1,1.4,3.1,4.1c0,2.7-1.4,4.1-3.1,4.1S257.9,175.4,257.9,172.7
			z M263,172.7c0-1.7-0.6-3.1-1.9-3.1c-1.3,0-1.9,1.2-1.9,3.1c0,1.7,0.6,3.1,1.9,3.1C262.3,175.8,263,174.5,263,172.7z"/>
		<path fill="#353535" d="M265.9,165.5h1.3v4.7h4.5v-4.7h1.3v11.1h-1.3v-5.3h-4.5v5.3h-1.3V165.5z"/>
		<path fill="#353535" d="M278.1,176.7c-2-0.3-3.4-2.3-3.4-5.7c0-3.7,1.7-5.8,4-5.8c2.3,0,4,2,4,5.8c0,3.5-1.4,5.4-3.5,5.7
			c0.1,1.3,0.8,1.6,2,1.6h0.6v1.1h-0.9C279,179.4,278.1,178.3,278.1,176.7z M281.5,171.1c0-2.9-1-4.6-2.7-4.6
			c-1.7,0-2.8,1.7-2.8,4.6c0,2.9,1.1,4.7,2.8,4.7C280.5,175.7,281.5,174,281.5,171.1z"/>
		<path fill="#353535" d="M295.7,166.7h-2.9v-1.2h7v1.2H297v9.9h-1.3V166.7z"/>
		<path fill="#353535" d="M300.5,168.7h1.2l1,4c0.2,0.8,0.3,1.3,0.5,2.2h0c0.2-0.9,0.3-1.4,0.5-2.2l0.9-3.9h1.1l0.9,3.9
			c0.2,0.8,0.3,1.4,0.5,2.3h0c0.2-0.9,0.3-1.5,0.5-2.3l0.9-3.9h1.1l-2,8h-1.1l-1.4-6h0l-1.4,6h-1L300.5,168.7z"/>
		<path fill="#353535" d="M310.8,165.8h1.2v1.3h-1.2V165.8z M310.8,168.7h1.2v7.9h-1.2V168.7z"/>
		<path fill="#353535" d="M314.1,165.5h1.2v11.1h-1.2V165.5z"/>
		<path fill="#353535" d="M317.4,165.8h1.2v1.3h-1.2V165.8z M317.4,168.7h1.2v7.9h-1.2V168.7z"/>
		<path fill="#353535" d="M320.3,172.7c0-2.7,1.4-4.1,3.1-4.1c1.8,0,3.1,1.4,3.1,4.1c0,2.7-1.4,4.1-3.1,4.1S320.3,175.4,320.3,172.7
			z M325.3,172.7c0-1.7-0.6-3.1-1.9-3.1c-1.3,0-1.9,1.2-1.9,3.1c0,1.7,0.6,3.1,1.9,3.1C324.7,175.8,325.3,174.5,325.3,172.7z"/>
		<path fill="#353535" d="M336.6,174.2l1.1-0.5c0.5,1.2,1.3,2,2.6,2c1.3,0,2.1-0.7,2.1-1.8c0-1.3-1.1-1.8-2.3-2.4
			c-1.4-0.7-3-1.4-3-3.4c0-1.6,1.3-2.8,3-2.8c1.8,0,2.8,1.1,3.3,2.3l-1.1,0.5c-0.4-0.9-1-1.8-2.2-1.8c-1,0-1.8,0.7-1.8,1.6
			c0,1.3,1.1,1.8,2.2,2.4c1.4,0.7,3,1.4,3,3.4c0,1.6-1.3,2.9-3.3,2.9C338.4,176.8,337.3,175.8,336.6,174.2z"/>
		<path fill="#353535" d="M345.2,168.7h1.2v1c0.5-0.6,1.2-1.2,2.2-1.2c1.5,0,2.7,1.3,2.7,4.1c0,2.9-1.2,4.1-2.8,4.1
			c-0.9,0-1.6-0.4-2.1-1.1v4h-1.2V168.7z M350.1,172.7c0-2.1-0.7-3.1-1.8-3.1c-0.7,0-1.4,0.5-1.9,1.1v4c0.6,0.7,1.2,1.1,1.9,1.1
			C349.4,175.7,350.1,174.8,350.1,172.7z"/>
		<path fill="#353535" d="M352.5,172.7c0-2.7,1.4-4.1,3.1-4.1c1.8,0,3.1,1.4,3.1,4.1c0,2.7-1.4,4.1-3.1,4.1S352.5,175.4,352.5,172.7
			z M357.5,172.7c0-1.7-0.6-3.1-1.9-3.1c-1.3,0-1.9,1.2-1.9,3.1c0,1.7,0.6,3.1,1.9,3.1C356.9,175.8,357.5,174.5,357.5,172.7z"/>
		<path fill="#353535" d="M360.8,174.8v-5.1h-1.2v-1h1.2v-2.8h1.2v2.8h1.7v1H362v4.9c0,0.8,0.2,1.2,1,1.2c0.2,0,0.5,0,0.7-0.1v1
			c-0.2,0.1-0.6,0.1-0.9,0.1C361.3,176.7,360.8,176.2,360.8,174.8z"/>
		<path fill="#353535" d="M365.7,169.7h-1.2v-1h1.2v-1.2c0-1.3,0.7-2,2.2-2c0.1,0,0.6,0,0.6,0v1c0,0-0.4,0-0.5,0
			c-0.6,0-1.1,0.2-1.1,1v1.2h1.5v1h-1.5v6.9h-1.2V169.7z"/>
		<path fill="#353535" d="M369.7,165.8h1.2v1.3h-1.2V165.8z M369.7,168.7h1.2v7.9h-1.2V168.7z"/>
		<path fill="#353535" d="M372.9,168.7h1.2v1.4h0c0.4-0.8,1.3-1.5,2.5-1.5h0.2l-0.1,1.1c0,0-0.2,0-0.3,0c-1,0-1.9,0.7-2.3,1.6v5.3
			h-1.2V168.7z"/>
		<path fill="#353535" d="M377.7,172.7c0-2.8,1.5-4.1,3.1-4.1c1.8,0,2.8,1.4,2.8,4.1v0.3h-4.7c0,1.9,0.8,2.9,1.9,2.9
			c0.9,0,1.4-0.5,1.9-1.4l0.8,0.5c-0.6,1.1-1.5,1.9-2.8,1.9C379,176.8,377.7,175.4,377.7,172.7z M382.4,172
			c-0.1-1.4-0.6-2.4-1.7-2.4c-0.9,0-1.7,0.7-1.8,2.4H382.4z"/>
		<path fill="#353535" d="M394.3,165.5h1.3v4.7h4.5v-4.7h1.3v11.1H400v-5.3h-4.5v5.3h-1.3V165.5z"/>
		<path fill="#353535" d="M403.3,174.6v-5.9h1.2v5.7c0,0.9,0.3,1.4,1.2,1.4c0.8,0,1.4-0.5,2.1-1.1v-5.9h1.2v7.9h-1.2v-1.1
			c-0.6,0.7-1.5,1.3-2.5,1.3C404,176.8,403.3,176,403.3,174.6z"/>
		<path fill="#353535" d="M412.1,175.7v0.9h-1.2v-11.1h1.2v4.2c0.5-0.6,1.2-1.2,2.2-1.2c1.5,0,2.7,1.3,2.7,4.1
			c0,2.9-1.2,4.1-2.8,4.1C413.3,176.7,412.7,176.3,412.1,175.7z M415.8,172.7c0-2.1-0.7-3.1-1.8-3.1c-0.8,0-1.3,0.5-1.9,1.1v4
			c0.6,0.7,1.2,1.1,1.9,1.1C415.1,175.7,415.8,174.8,415.8,172.7z"/>
		<path fill="#353535" d="M418.1,174.2l1.1-0.5c0.5,1.2,1.3,2,2.6,2c1.3,0,2.1-0.7,2.1-1.8c0-1.3-1.1-1.8-2.3-2.4
			c-1.4-0.7-3-1.4-3-3.4c0-1.6,1.3-2.8,3-2.8c1.8,0,2.8,1.1,3.3,2.3l-1.1,0.5c-0.4-0.9-1-1.8-2.2-1.8c-1,0-1.8,0.7-1.8,1.6
			c0,1.3,1.1,1.8,2.2,2.4c1.4,0.7,3,1.4,3,3.4c0,1.6-1.3,2.9-3.3,2.9C419.9,176.8,418.8,175.8,418.1,174.2z"/>
		<path fill="#353535" d="M426.7,168.7h1.2v1c0.5-0.6,1.2-1.2,2.2-1.2c1.5,0,2.7,1.3,2.7,4.1c0,2.9-1.2,4.1-2.8,4.1
			c-0.9,0-1.6-0.4-2.1-1.1v4h-1.2V168.7z M431.6,172.7c0-2.1-0.7-3.1-1.8-3.1c-0.7,0-1.4,0.5-1.9,1.1v4c0.6,0.7,1.2,1.1,1.9,1.1
			C430.9,175.7,431.6,174.8,431.6,172.7z"/>
		<path fill="#353535" d="M434,172.7c0-2.7,1.4-4.1,3.1-4.1c1.8,0,3.1,1.4,3.1,4.1c0,2.7-1.4,4.1-3.1,4.1S434,175.4,434,172.7z
			 M439,172.7c0-1.7-0.6-3.1-1.9-3.1c-1.3,0-1.9,1.2-1.9,3.1c0,1.7,0.6,3.1,1.9,3.1C438.4,175.8,439,174.5,439,172.7z"/>
		<path fill="#353535" d="M442.3,174.8v-5.1h-1.2v-1h1.2v-2.8h1.2v2.8h1.7v1h-1.7v4.9c0,0.8,0.2,1.2,1,1.2c0.2,0,0.5,0,0.7-0.1v1
			c-0.2,0.1-0.6,0.1-0.9,0.1C442.8,176.7,442.3,176.2,442.3,174.8z"/>
		<path fill="#353535" d="M455.8,165.5h1.6l2.8,9.3h0l2.7-9.3h1.6v11.1h-1.2v-9.1h0c-0.1,0.7-0.5,1.9-0.8,2.8l-1.9,6.3h-1l-1.9-6.3
			c-0.3-0.9-0.6-2.1-0.8-2.8h0v9.1h-1.1V165.5z"/>
		<path fill="#353535" d="M466.2,174.7c0-1.6,1.3-2.7,4.4-3.3v-0.5c0-0.9-0.4-1.3-1.2-1.3c-1,0-1.7,0.5-2.3,1.1l-0.7-0.7
			c0.8-0.8,1.9-1.4,3.1-1.4c1.5,0,2.2,0.9,2.2,2.4v3.8c0,1,0,1.5,0.2,1.9h-1.2c-0.1-0.3-0.2-0.6-0.2-1c-0.6,0.7-1.5,1.1-2.5,1.1
			C466.9,176.7,466.2,176,466.2,174.7z M470.7,174.7v-2.4c-2.4,0.5-3.2,1.4-3.2,2.3c0,0.8,0.4,1.2,1.1,1.2
			C469.3,175.7,470.1,175.3,470.7,174.7z"/>
		<path fill="#353535" d="M473.8,165.8h1.2v1.3h-1.2V165.8z M473.8,168.7h1.2v7.9h-1.2V168.7z"/>
		<path fill="#353535" d="M477.1,165.5h1.2v11.1h-1.2V165.5z"/>
		<path fill="#353535" d="M480,171c0-3.7,1.6-5.7,4-5.7c2.1,0,3,1.5,3.4,3.5l-1.2,0.2c-0.3-1.7-1-2.6-2.3-2.6
			c-1.7,0-2.7,1.7-2.7,4.6c0,3,1,4.7,2.7,4.7c1.3,0,2-0.8,2.4-2.7l1.2,0.2c-0.4,2.1-1.5,3.6-3.6,3.6C481.6,176.8,480,174.8,480,171z
			"/>
		<path fill="#353535" d="M489.1,165.5h1.2v4.3c0.5-0.6,1.5-1.3,2.5-1.3c1.3,0,2,0.8,2,2.2v5.9h-1.2V171c0-0.9-0.3-1.4-1.1-1.4
			c-0.8,0-1.6,0.6-2.1,1.1v5.9h-1.2V165.5z"/>
		<path fill="#353535" d="M496.7,165.8h1.2v1.3h-1.2V165.8z M496.7,168.7h1.2v7.9h-1.2V168.7z"/>
		<path fill="#353535" d="M499.9,168.7h1.2v1.1c0.6-0.6,1.4-1.3,2.4-1.3c1.1,0,1.6,0.4,1.8,1.3c0.6-0.6,1.5-1.3,2.5-1.3
			c1.3,0,1.9,0.8,1.9,2.2v5.9h-1.2V171c0-0.9-0.3-1.4-1.1-1.4c-0.7,0-1.4,0.5-2,1.1v6h-1.2V171c0-0.9-0.2-1.4-1.1-1.4
			c-0.7,0-1.4,0.5-2,1.1v5.9h-1.2V168.7z"/>
		<path fill="#353535" d="M511.6,168.7h1.2v1c0.5-0.6,1.2-1.2,2.2-1.2c1.5,0,2.7,1.3,2.7,4.1c0,2.9-1.2,4.1-2.8,4.1
			c-0.9,0-1.6-0.4-2.1-1.1v4h-1.2V168.7z M516.5,172.7c0-2.1-0.7-3.1-1.8-3.1c-0.7,0-1.4,0.5-1.9,1.1v4c0.6,0.7,1.2,1.1,1.9,1.1
			C515.8,175.7,516.5,174.8,516.5,172.7z"/>
		<path fill="#353535" d="M530.5,166.7h-2.9v-1.2h7v1.2h-2.9v9.9h-1.3V166.7z"/>
		<path fill="#353535" d="M536,168.7h1.2v1.4h0c0.4-0.8,1.3-1.5,2.5-1.5h0.2l-0.1,1.1c0,0-0.2,0-0.3,0c-1,0-1.9,0.7-2.3,1.6v5.3H536
			V168.7z"/>
		<path fill="#353535" d="M540.8,172.7c0-2.8,1.5-4.1,3.1-4.1c1.8,0,2.8,1.4,2.8,4.1v0.3H542c0,1.9,0.8,2.9,1.9,2.9
			c0.9,0,1.4-0.5,1.9-1.4l0.8,0.5c-0.6,1.1-1.5,1.9-2.8,1.9C542.1,176.8,540.8,175.4,540.8,172.7z M545.5,172
			c-0.1-1.4-0.6-2.4-1.7-2.4c-0.9,0-1.7,0.7-1.8,2.4H545.5z"/>
		<path fill="#353535" d="M548.3,165.5h1.2v11.1h-1.2V165.5z"/>
		<path fill="#353535" d="M551.6,165.5h1.2v11.1h-1.2V165.5z"/>
		<path fill="#353535" d="M554.4,172.7c0-2.7,1.4-4.1,3.1-4.1c1.8,0,3.1,1.4,3.1,4.1c0,2.7-1.4,4.1-3.1,4.1S554.4,175.4,554.4,172.7
			z M559.5,172.7c0-1.7-0.6-3.1-1.9-3.1c-1.3,0-1.9,1.2-1.9,3.1c0,1.7,0.6,3.1,1.9,3.1C558.8,175.8,559.5,174.5,559.5,172.7z"/>
		<path fill="#353535" d="M571.4,165.5h1.3v4.7h4.5v-4.7h1.3v11.1h-1.3v-5.3h-4.5v5.3h-1.3V165.5z"/>
		<path fill="#353535" d="M580.6,165.8h1.2v1.3h-1.2V165.8z M580.6,168.7h1.2v7.9h-1.2V168.7z"/>
		<path fill="#353535" d="M583.8,168.7h1.2v1c0.5-0.6,1.2-1.2,2.2-1.2c1.5,0,2.7,1.3,2.7,4.1c0,2.9-1.2,4.1-2.8,4.1
			c-0.9,0-1.6-0.4-2.1-1.1v4h-1.2V168.7z M588.6,172.7c0-2.1-0.7-3.1-1.8-3.1c-0.7,0-1.4,0.5-1.9,1.1v4c0.6,0.7,1.2,1.1,1.9,1.1
			C587.9,175.7,588.6,174.8,588.6,172.7z"/>
		<path fill="#353535" d="M591.1,171c0-3.7,1.6-5.7,4-5.7c2.1,0,3,1.5,3.4,3.5l-1.2,0.2c-0.3-1.7-1-2.6-2.3-2.6
			c-1.7,0-2.7,1.7-2.7,4.6c0,3,1,4.7,2.7,4.7c1.3,0,2-0.8,2.4-2.7l1.2,0.2c-0.4,2.1-1.5,3.6-3.6,3.6
			C592.6,176.8,591.1,174.8,591.1,171z"/>
		<path fill="#353535" d="M600.2,165.5h1.2v4.3c0.5-0.6,1.5-1.3,2.5-1.3c1.3,0,2,0.8,2,2.2v5.9h-1.2V171c0-0.9-0.3-1.4-1.1-1.4
			c-0.8,0-1.6,0.6-2.1,1.1v5.9h-1.2V165.5z"/>
		<path fill="#353535" d="M607.3,174.7c0-1.6,1.3-2.7,4.4-3.3v-0.5c0-0.9-0.4-1.3-1.2-1.3c-1,0-1.7,0.5-2.3,1.1l-0.7-0.7
			c0.8-0.8,1.9-1.4,3.1-1.4c1.5,0,2.2,0.9,2.2,2.4v3.8c0,1,0,1.5,0.2,1.9h-1.2c-0.1-0.3-0.2-0.6-0.2-1c-0.6,0.7-1.5,1.1-2.5,1.1
			C608,176.7,607.3,176,607.3,174.7z M611.7,174.7v-2.4c-2.4,0.5-3.2,1.4-3.2,2.3c0,0.8,0.4,1.2,1.1,1.2
			C610.4,175.7,611.2,175.3,611.7,174.7z"/>
		<path fill="#353535" d="M615.3,174.8v-5.1h-1.2v-1h1.2v-2.8h1.2v2.8h1.7v1h-1.7v4.9c0,0.8,0.2,1.2,1,1.2c0.2,0,0.5,0,0.7-0.1v1
			c-0.2,0.1-0.6,0.1-0.9,0.1C615.8,176.7,615.3,176.2,615.3,174.8z"/>
		<path fill="#353535" d="M628.9,165.5h1.3v11.1h-1.3V165.5z"/>
		<path fill="#353535" d="M632.3,168.7h1.2v1.1c0.5-0.6,1.5-1.3,2.5-1.3c1.3,0,2,0.8,2,2.2v5.9h-1.2V171c0-0.9-0.3-1.4-1.1-1.4
			c-0.8,0-1.6,0.6-2.1,1.1v5.9h-1.2V168.7z"/>
		<path fill="#353535" d="M639.3,165.5h1.3l1.7,6c0.4,1.3,0.6,2.3,0.9,3.4h0c0.3-1.1,0.6-2.1,0.9-3.3l1.7-6h1.2l-3.2,11.1h-1.2
			L639.3,165.5z"/>
		<path fill="#353535" d="M648.3,165.8h1.2v1.3h-1.2V165.8z M648.3,168.7h1.2v7.9h-1.2V168.7z"/>
		<path fill="#353535" d="M650.9,175.2l0.8-0.6c0.5,0.8,1.3,1.2,2.1,1.2c1,0,1.6-0.4,1.6-1.2c0-1.9-4.1-1.2-4.1-4
			c0-1.3,1-2.1,2.5-2.1c1.2,0,2,0.6,2.6,1.4l-0.8,0.6c-0.4-0.6-1-1-1.8-1c-0.9,0-1.3,0.4-1.3,1.1c0,2,4.1,1.1,4.1,4
			c0,1.4-1.2,2.2-2.7,2.2C652.5,176.8,651.5,176.2,650.9,175.2z"/>
		<path fill="#353535" d="M658.1,165.8h1.2v1.3h-1.2V165.8z M658.1,168.7h1.2v7.9h-1.2V168.7z"/>
		<path fill="#353535" d="M661,172.7c0-2.7,1.4-4.1,3.1-4.1c1.8,0,3.1,1.4,3.1,4.1c0,2.7-1.4,4.1-3.1,4.1S661,175.4,661,172.7z
			 M666,172.7c0-1.7-0.6-3.1-1.9-3.1c-1.3,0-1.9,1.2-1.9,3.1c0,1.7,0.6,3.1,1.9,3.1C665.4,175.8,666,174.5,666,172.7z"/>
		<path fill="#353535" d="M668.8,168.7h1.2v1.1c0.5-0.6,1.5-1.3,2.5-1.3c1.3,0,2,0.8,2,2.2v5.9h-1.2V171c0-0.9-0.3-1.4-1.1-1.4
			c-0.8,0-1.6,0.6-2.1,1.1v5.9h-1.2V168.7z"/>
		<path fill="#353535" d="M685.5,165.5h3.2c2.1,0,3.3,0.9,3.3,2.8c0,1.6-0.9,2.3-1.8,2.5v0c1.1,0.2,2.1,1,2.1,2.7c0,2-1.3,3-3.4,3
			h-3.5V165.5z M688.6,170.4c1.4,0,2.2-0.5,2.2-1.9s-0.6-1.9-2.2-1.9h-2v3.8H688.6z M688.9,175.5c1.5,0,2.2-0.7,2.2-2
			c0-1.5-0.9-2-2.4-2h-2v4.1H688.9z"/>
		<path fill="#353535" d="M693.6,174.7c0-1.6,1.3-2.7,4.4-3.3v-0.5c0-0.9-0.4-1.3-1.2-1.3c-1,0-1.7,0.5-2.3,1.1l-0.7-0.7
			c0.8-0.8,1.9-1.4,3.1-1.4c1.5,0,2.2,0.9,2.2,2.4v3.8c0,1,0,1.5,0.2,1.9h-1.2c-0.1-0.3-0.2-0.6-0.2-1c-0.6,0.7-1.5,1.1-2.5,1.1
			C694.3,176.7,693.6,176,693.6,174.7z M698,174.7v-2.4c-2.4,0.5-3.2,1.4-3.2,2.3c0,0.8,0.4,1.2,1.1,1.2
			C696.7,175.7,697.4,175.3,698,174.7z"/>
		<path fill="#353535" d="M700.4,175.2l0.8-0.6c0.5,0.8,1.3,1.2,2.1,1.2c1,0,1.6-0.4,1.6-1.2c0-1.9-4.1-1.2-4.1-4
			c0-1.3,1-2.1,2.5-2.1c1.2,0,2,0.6,2.6,1.4l-0.8,0.6c-0.4-0.6-1-1-1.8-1c-0.9,0-1.3,0.4-1.3,1.1c0,2,4.1,1.1,4.1,4
			c0,1.4-1.2,2.2-2.7,2.2C702,176.8,701,176.2,700.4,175.2z"/>
		<path fill="#353535" d="M707.2,172.7c0-2.8,1.5-4.1,3.1-4.1c1.8,0,2.8,1.4,2.8,4.1v0.3h-4.7c0,1.9,0.8,2.9,1.9,2.9
			c0.9,0,1.4-0.5,1.9-1.4l0.8,0.5c-0.6,1.1-1.5,1.9-2.8,1.9C708.5,176.8,707.2,175.4,707.2,172.7z M711.9,172
			c-0.1-1.4-0.6-2.4-1.7-2.4c-0.9,0-1.7,0.7-1.8,2.4H711.9z"/>
		<path fill="#353535" d="M714.2,172.7c0-2.8,1.4-4.1,3.1-4.1c1.6,0,2.3,1.1,2.7,2.4l-1.1,0.3c-0.3-1-0.7-1.6-1.6-1.6
			c-1,0-1.8,0.9-1.8,3.1c0,1.9,0.7,3.1,1.8,3.1c0.8,0,1.4-0.5,1.7-1.6l1.1,0.3c-0.4,1.5-1.3,2.4-2.8,2.4
			C715.6,176.8,714.2,175.4,714.2,172.7z"/>
		<path fill="#353535" d="M721,174.7c0-1.6,1.3-2.7,4.4-3.3v-0.5c0-0.9-0.4-1.3-1.2-1.3c-1,0-1.7,0.5-2.3,1.1l-0.7-0.7
			c0.8-0.8,1.9-1.4,3.1-1.4c1.5,0,2.2,0.9,2.2,2.4v3.8c0,1,0,1.5,0.2,1.9h-1.2c-0.1-0.3-0.2-0.6-0.2-1c-0.6,0.7-1.5,1.1-2.5,1.1
			C721.7,176.7,721,176,721,174.7z M725.5,174.7v-2.4c-2.4,0.5-3.2,1.4-3.2,2.3c0,0.8,0.4,1.2,1.1,1.2
			C724.2,175.7,724.9,175.3,725.5,174.7z"/>
		<path fill="#353535" d="M728.5,168.7h1.2v1.1c0.6-0.6,1.4-1.3,2.4-1.3c1.1,0,1.6,0.4,1.8,1.3c0.6-0.6,1.5-1.3,2.5-1.3
			c1.3,0,1.9,0.8,1.9,2.2v5.9h-1.2V171c0-0.9-0.3-1.4-1.1-1.4c-0.7,0-1.4,0.5-2,1.1v6h-1.2V171c0-0.9-0.2-1.4-1.1-1.4
			c-0.7,0-1.4,0.5-2,1.1v5.9h-1.2V168.7z"/>
		<path fill="#353535" d="M740.2,168.7h1.2v1c0.5-0.6,1.2-1.2,2.2-1.2c1.5,0,2.7,1.3,2.7,4.1c0,2.9-1.2,4.1-2.8,4.1
			c-0.9,0-1.6-0.4-2.1-1.1v4h-1.2V168.7z M745.1,172.7c0-2.1-0.7-3.1-1.8-3.1c-0.7,0-1.4,0.5-1.9,1.1v4c0.6,0.7,1.2,1.1,1.9,1.1
			C744.4,175.7,745.1,174.8,745.1,172.7z"/>
		<path fill="#353535" d="M756.5,175.5h1.8v-8.7c-0.5,0.3-1.2,0.5-1.8,0.5v-1.1c0.7,0,1.4-0.3,1.8-0.7h1.2v10h1.6v1.1h-4.6V175.5z"
			/>
		<path fill="#353535" d="M762,174.6l1-0.5c0.5,1,1.2,1.7,2.2,1.7c1.5,0,2.1-1.3,2.1-2.8c0-1.7-0.8-2.7-1.9-2.7
			c-0.9,0-1.5,0.4-2,1.2l-0.9-0.2l0.4-5.8h5.2l-0.1,1.1h-4.1l-0.3,3.7c0.4-0.6,1.1-1,2.1-1c1.7,0,2.9,1.2,2.9,3.6
			c0,2.4-1.3,3.9-3.3,3.9C763.6,176.8,762.7,176,762,174.6z"/>
		<path fill="#353535" d="M770.2,165.5h5.6v1.2h-4.3v3.6h3.2v1.1h-3.2v5.2h-1.3V165.5z"/>
		<path fill="#353535" d="M777.3,165.8h1.2v1.3h-1.2V165.8z M777.3,168.7h1.2v7.9h-1.2V168.7z"/>
		<path fill="#353535" d="M779.8,168.7h1.2l1.3,4.5c0.2,0.7,0.3,1.2,0.6,2.1h0c0.2-0.9,0.4-1.4,0.6-2.1l1.3-4.5h1.1l-2.4,8h-1.3
			L779.8,168.7z"/>
		<path fill="#353535" d="M786.8,172.7c0-2.8,1.5-4.1,3.1-4.1c1.8,0,2.8,1.4,2.8,4.1v0.3H788c0,1.9,0.8,2.9,1.9,2.9
			c0.9,0,1.4-0.5,1.9-1.4l0.8,0.5c-0.6,1.1-1.5,1.9-2.8,1.9C788.1,176.8,786.8,175.4,786.8,172.7z M791.5,172
			c-0.1-1.4-0.6-2.4-1.7-2.4c-0.9,0-1.7,0.7-1.8,2.4H791.5z"/>
	</g>
</g>
<g>
	<path fill="#5D5D5D" d="M48.5,117c0,10.5-8.6,19.1-19.1,19.1s-19.1-8.5-19.1-19.1H48.5z"/>
	<rect x="10.3" y="98.3" fill="#C68F61" width="38.1" height="19.2"/>
	<rect x="10.3" y="79.2" fill="#FCD9BE" width="38.1" height="19.2"/>
	<rect x="10.3" y="60.5" fill="#FFFFFF" width="38.1" height="19.2"/>
</g>
<path fill="#5D5D5D" d="M218.4,125.3c0,10.5-8.6,19.1-19.1,19.1s-19.1-8.5-19.1-19.1H218.4z"/>
<g>
	<path fill="#5D5D5D" d="M161.8,125.3c0,10.5-8.6,19.1-19.1,19.1s-19.1-8.5-19.1-19.1H161.8z"/>
	<rect x="123.6" y="106.6" fill="#C68F61" width="38.1" height="19.2"/>
	<rect x="123.6" y="87.5" fill="#FFFFFF" width="38.1" height="19.2"/>
</g>
<path fill="#C68F61" d="M275.1,125.3c0,10.5-8.6,19.1-19.1,19.1c-10.5,0-19.1-8.5-19.1-19.1H275.1z"/>
<g>
	<path fill="#5D5D5D" d="M331.8,125.3c0,10.5-8.6,19.1-19.1,19.1c-10.5,0-19.1-8.5-19.1-19.1H331.8z"/>
	<rect x="293.6" y="106.6" fill="#FCD9BE" width="38.1" height="19.2"/>
</g>
<g>
	<path fill="#5D5D5D" d="M388.4,125.3c0,10.5-8.6,19.1-19.1,19.1c-10.5,0-19.1-8.5-19.1-19.1H388.4z"/>
	<rect x="350.3" y="106.6" fill="#C68F61" width="38.1" height="19.2"/>
	<rect x="350.3" y="87.5" fill="#FCD9BE" width="38.1" height="19.2"/>
	<rect x="350.3" y="68.8" fill="#FFFFFF" width="38.1" height="19.2"/>
</g>
<g>
	<path fill="#5D5D5D" d="M502.4,125.3c0,10.5-8.6,19.1-19.1,19.1c-10.5,0-19.1-8.5-19.1-19.1H502.4z"/>
	<rect x="464.3" y="106.6" fill="#C68F61" width="38.1" height="19.2"/>
	<rect x="464.3" y="87.5" fill="#FCD9BE" width="38.1" height="19.2"/>
	<rect x="464.3" y="68.8" fill="#FFFFFF" width="38.1" height="19.2"/>
</g>
<path fill="#5D5D5D" d="M445.1,125.3c0,10.5-8.6,19.1-19.1,19.1c-10.5,0-19.1-8.5-19.1-19.1H445.1z"/>
<g>
	<g>
		<path fill="none" stroke="#000000" stroke-linecap="round" stroke-linejoin="round" d="M6.9,189.1c0,4.9,4.9,8.4,10.7,8.4h177.7
			c15.1,0,25.8-1.8,32.4,12.3"/>
	</g>
	<g>
		<path fill="none" stroke="#000000" stroke-linecap="round" stroke-linejoin="round" d="M227.6,209.8c6.6-14,17.4-12.3,32.4-12.3
			h177.7c5.9,0,10.7-3.6,10.7-8.4"/>
	</g>
</g>
<g>
	<path fill="#FFFFFF" d="M615.1,125.3c0,10.5-8.6,19.1-19.1,19.1s-19.1-8.5-19.1-19.1H615.1z"/>
</g>
<g>
	<path fill="#C68F61" d="M671.7,125.3h-38h-0.2c0,10.5,8.5,19.1,19.1,19.1c0,0,0.1,0,0.1,0c0,0,0.1,0,0.1,0
		c10.5,0,19.1-8.5,19.1-19.1H671.7z"/>
	<rect x="633.5" y="106.6" fill="#FCD9BE" width="38.1" height="19.2"/>
	<rect x="633.5" y="87.5" fill="#FFFFFF" width="38.1" height="19.2"/>
</g>
<g>
	<g>
		<g>
			<path fill="none" stroke="#000000" stroke-linecap="round" stroke-linejoin="round" d="M624.6,209.1c6.6-14,17.4-12.3,32.4-12.3
				h124.8c5.9,0,10.7-3.6,10.7-8.4"/>
		</g>
	</g>
	<g>
		<g>
			<path fill="none" stroke="#000000" stroke-linecap="round" stroke-linejoin="round" d="M457.2,188.5c0,4.9,4.9,8.4,10.7,8.4
				h124.8c15.1,0,25.8-1.8,32.4,12.3"/>
		</g>
	</g>
</g>
<g>
	<path fill="#5D5D5D" d="M558.9,125.3c0,10.5-8.6,19.1-19.1,19.1c-10.5,0-19.1-8.5-19.1-19.1H558.9z"/>
	<rect x="520.8" y="106.6" fill="#C68F61" width="38.1" height="19.2"/>
	<rect x="520.8" y="87.5" fill="#FCD9BE" width="38.1" height="19.2"/>
	<rect x="520.8" y="68.8" fill="#FFFFFF" width="38.1" height="19.2"/>
</g>
<g>
	<path fill="#5D5D5D" d="M728.1,125.3c0,10.5-8.6,19.1-19.1,19.1s-19.1-8.5-19.1-19.1H728.1z"/>
	<rect x="690" y="106.6" fill="#C68F61" width="38.1" height="19.2"/>
	<rect x="690" y="87.5" fill="#FCD9BE" width="38.1" height="19.2"/>
	<rect x="690" y="68.8" fill="#FFFFFF" width="38.1" height="19.2"/>
</g>
<g>
	<path fill="#5D5D5D" d="M785.1,125.3c0,10.5-8.6,19.1-19.1,19.1s-19.1-8.5-19.1-19.1H785.1z"/>
	<rect x="747" y="106.6" fill="#C68F61" width="38.1" height="19.2"/>
	<rect x="747" y="87.5" fill="#FCD9BE" width="38.1" height="19.2"/>
</g>
</svg>
