<?xml version="1.0" encoding="utf-8"?>
<!-- Generator: Adobe Illustrator 17.1.0, SVG Export Plug-In . SVG Version: 6.00 Build 0)  -->
<!DOCTYPE svg PUBLIC "-//W3C//DTD SVG 1.1//EN" "http://www.w3.org/Graphics/SVG/1.1/DTD/svg11.dtd">
<svg version="1.1" id="Layer_1" xmlns="http://www.w3.org/2000/svg" xmlns:xlink="http://www.w3.org/1999/xlink" x="0px" y="0px"
	 viewBox="0 0 794.5 212.6" enable-background="new 0 0 794.5 212.6" xml:space="preserve">
<line fill="none" stroke="#353535" stroke-width="4" stroke-linecap="round" stroke-linejoin="round" stroke-miterlimit="10" x1="2" y1="71.5" x2="220" y2="71.5"/>
<g>
	<defs>
		<circle id="SVGID_1_" cx="218.7" cy="108.9" r="97"/>
	</defs>
	<clipPath id="SVGID_2_">
		<use xlink:href="#SVGID_1_"  overflow="visible"/>
	</clipPath>
	<g clip-path="url(#SVGID_2_)">
		<g>
			<g>
				<g>
					<g>
						<path fill="#C68F61" d="M219.7,108.9l-66.5-79.3c19.4-16.3,41.2-24.2,66.5-24.2V108.9z"/>
					</g>
				</g>
				<g>
					<g>
						<path fill="#FFFFFF" d="M219.7,108.9l-102-18c4.4-25,16-45,35.4-61.3L219.7,108.9z"/>
					</g>
				</g>
				<g>
					<g>
						<path fill="#C68F61" d="M219.7,108.9l-89.7,51.8c-12.7-22-16.7-44.7-12.3-69.7L219.7,108.9z"/>
					</g>
				</g>
				<g>
					<g>
						<path fill="#5D5D5D" d="M219.7,108.9l-35.4,97.3c-23.9-8.7-41.6-23.5-54.2-45.5L219.7,108.9z"/>
					</g>
				</g>
				<g>
					<g>
						<path fill="#FCD9BE" d="M219.7,108.9l35.4,97.3c-23.9,8.7-47,8.7-70.8,0L219.7,108.9z"/>
					</g>
				</g>
				<g>
					<g>
						<path fill="#FFFFFF" d="M219.7,108.9l89.7,51.8c-12.7,22-30.4,36.8-54.2,45.5L219.7,108.9z"/>
					</g>
				</g>
				<g>
					<g>
						<path fill="#C68F61" d="M219.7,108.9l102-18c4.4,25,0.4,47.8-12.3,69.7L219.7,108.9z"/>
					</g>
				</g>
				<g>
					<g>
						<path fill="#5D5D5D" d="M219.7,108.9l66.5-79.3c19.4,16.3,31,36.3,35.4,61.3L219.7,108.9z"/>
					</g>
				</g>
				<g>
					<g>
						<path fill="#FCD9BE" d="M219.7,108.9V5.3c25.4,0,47.1,7.9,66.5,24.2L219.7,108.9z"/>
					</g>
				</g>
			</g>
			<g>
				<g>
				</g>
				<g>
				</g>
				<g>
				</g>
				<g>
				</g>
				<g>
				</g>
				<g>
				</g>
				<g>
				</g>
				<g>
				</g>
				<g>
				</g>
			</g>
		</g>
		<g>
			
				<line fill="none" stroke="#353535" stroke-width="4" stroke-linecap="round" stroke-linejoin="round" stroke-miterlimit="10" x1="219" y1="2" x2="219" y2="106.7"/>
			
				<line fill="none" stroke="#353535" stroke-width="4" stroke-linecap="round" stroke-linejoin="round" stroke-miterlimit="10" x1="152.8" y1="28.7" x2="218.5" y2="110.1"/>
			
				<line fill="none" stroke="#353535" stroke-width="4" stroke-linecap="round" stroke-linejoin="round" stroke-miterlimit="10" x1="252.6" y1="199.8" x2="214.8" y2="102.2"/>
		</g>
	</g>
</g>
<g>
	<path fill="#353535" d="M9.8,57.2v2.4H2.2V48.4h2.8v8.8H9.8z"/>
	<path fill="#353535" d="M15.4,57.6l-0.8,2.1h-2.9l4.8-11.2h2.9l4.7,11.2h-3l-0.8-2.1H15.4z M17.8,51.3l-1.6,4.1h3.2L17.8,51.3z"/>
	<path fill="#353535" d="M34.6,59.6l-5.2-6.9v6.9h-2.7V48.4h2.5l5.2,6.9v-6.9h2.7v11.2H34.6z"/>
	<path fill="#353535" d="M50.8,53.9v4.4c-1.2,0.8-3.1,1.5-4.7,1.5c-3.4,0-6-2.5-6-5.7c0-3.2,2.6-5.7,6.2-5.7c1.7,0,3.4,0.6,4.6,1.7
		l-1.6,1.9c-0.8-0.8-2-1.2-3-1.2c-1.8,0-3.2,1.4-3.2,3.3c0,1.9,1.4,3.3,3.3,3.3c0.6,0,1.3-0.2,2-0.5v-2.9H50.8z"/>
	<path fill="#353535" d="M64.5,54.9c0,3-2,4.8-5.1,4.8c-3.2,0-5.2-1.9-5.2-4.8v-6.5h2.8v6.5c0,1.5,1,2.4,2.3,2.4
		c1.3,0,2.3-0.9,2.3-2.4v-6.5h2.8V54.9z"/>
	<path fill="#353535" d="M70.4,57.6l-0.8,2.1h-2.9l4.8-11.2h2.9l4.7,11.2h-3l-0.8-2.1H70.4z M72.8,51.3l-1.6,4.1h3.2L72.8,51.3z"/>
	<path fill="#353535" d="M91.3,53.9v4.4c-1.2,0.8-3.1,1.5-4.7,1.5c-3.4,0-6-2.5-6-5.7c0-3.2,2.6-5.7,6.2-5.7c1.7,0,3.4,0.6,4.6,1.7
		l-1.6,1.9c-0.8-0.8-2-1.2-3-1.2c-1.8,0-3.2,1.4-3.2,3.3c0,1.9,1.4,3.3,3.3,3.3c0.6,0,1.3-0.2,2-0.5v-2.9H91.3z"/>
	<path fill="#353535" d="M97.8,50.7v2.2h5.3v2.2h-5.3v2.3h6.1v2.2h-8.9V48.4h8.8v2.2H97.8z"/>
	<path fill="#353535" d="M116,49.5l-1.1,2.2c-1.2-0.7-2.7-1.2-3.6-1.2c-0.7,0-1.2,0.3-1.2,0.8c0,1.9,5.9,0.8,5.9,4.9
		c0,2.2-2,3.4-4.5,3.4c-1.9,0-3.8-0.7-5.1-1.8l1.1-2.2c1.2,1,2.9,1.7,4,1.7c0.9,0,1.5-0.3,1.5-1c0-2-5.9-0.8-5.9-4.8
		c0-2.1,1.8-3.4,4.5-3.4C113.2,48.3,114.9,48.8,116,49.5z"/>
</g>
<g>
	<path fill="#353535" d="M416.3,56.5L416.3,56.5h-2.2v3.2h-2.8V48.4h5c3,0,4.7,1.4,4.7,3.9c0,1.7-0.7,2.9-2,3.6l2.4,3.7H418
		L416.3,56.5z M416.2,54.2c1.2,0,2-0.6,2-1.8c0-1.2-0.7-1.8-2-1.8h-2.2v3.6H416.2z"/>
	<path fill="#353535" d="M427.3,50.7v2.2h5.3v2.2h-5.3v2.3h6.1v2.2h-8.9V48.4h8.8v2.2H427.3z"/>
	<path fill="#353535" d="M445.5,49.5l-1.1,2.2c-1.2-0.7-2.7-1.2-3.6-1.2c-0.7,0-1.2,0.3-1.2,0.8c0,1.9,5.9,0.8,5.9,4.9
		c0,2.2-2,3.4-4.5,3.4c-1.9,0-3.8-0.7-5.1-1.8l1.1-2.2c1.2,1,2.9,1.7,4,1.7c0.9,0,1.5-0.3,1.5-1c0-2-5.9-0.8-5.9-4.8
		c0-2.1,1.8-3.4,4.5-3.4C442.7,48.3,444.4,48.8,445.5,49.5z"/>
	<path fill="#353535" d="M460.1,54c0,3.3-2.6,5.7-6.1,5.7c-3.5,0-6.1-2.5-6.1-5.7c0-3.3,2.6-5.7,6.1-5.7
		C457.5,48.3,460.1,50.8,460.1,54z M450.9,54c0,1.9,1.5,3.3,3.2,3.3c1.7,0,3.1-1.5,3.1-3.3c0-1.9-1.4-3.3-3.1-3.3
		C452.3,50.7,450.9,52.1,450.9,54z"/>
	<path fill="#353535" d="M473.3,54.9c0,3-2,4.8-5.1,4.8c-3.2,0-5.2-1.9-5.2-4.8v-6.5h2.8v6.5c0,1.5,1,2.4,2.3,2.4
		c1.3,0,2.3-0.9,2.3-2.4v-6.5h2.8V54.9z"/>
	<path fill="#353535" d="M482,56.5L482,56.5h-2.2v3.2h-2.8V48.4h5c3,0,4.7,1.4,4.7,3.9c0,1.7-0.7,2.9-2,3.6l2.4,3.7h-3.2L482,56.5z
		 M481.9,54.2c1.2,0,2-0.6,2-1.8c0-1.2-0.7-1.8-2-1.8h-2.2v3.6H481.9z"/>
	<path fill="#353535" d="M499.8,50.2l-1.6,2c-0.7-0.9-1.8-1.5-2.8-1.5c-1.8,0-3.1,1.4-3.1,3.2c0,1.9,1.3,3.3,3.1,3.3
		c0.9,0,2-0.5,2.8-1.3l1.7,1.8c-1.2,1.2-3,2-4.6,2c-3.4,0-5.9-2.5-5.9-5.8c0-3.2,2.6-5.7,6-5.7C497,48.3,498.7,49.1,499.8,50.2z"/>
	<path fill="#353535" d="M505.6,50.7v2.2h5.3v2.2h-5.3v2.3h6.1v2.2h-8.9V48.4h8.8v2.2H505.6z"/>
	<path fill="#353535" d="M523.9,49.5l-1.1,2.2c-1.2-0.7-2.7-1.2-3.6-1.2c-0.7,0-1.2,0.3-1.2,0.8c0,1.9,5.9,0.8,5.9,4.9
		c0,2.2-2,3.4-4.5,3.4c-1.9,0-3.8-0.7-5.1-1.8l1.1-2.2c1.2,1,2.9,1.7,4,1.7c0.9,0,1.5-0.3,1.5-1c0-2-5.9-0.8-5.9-4.8
		c0-2.1,1.8-3.4,4.5-3.4C521.1,48.3,522.7,48.8,523.9,49.5z"/>
</g>
<line fill="none" stroke="#353535" stroke-width="4" stroke-linecap="round" stroke-linejoin="round" stroke-miterlimit="10" x1="411" y1="71.5" x2="792.5" y2="71.5"/>
<g>
	<g>
		<path fill="#353535" d="M408.7,178.1h2.4c3.1,0,4.7,1.6,4.7,5.5c0,3.9-1.7,5.6-4.7,5.6h-2.4V178.1z M411.3,188.1
			c2.2,0,3.3-1.3,3.3-4.4c0-3-1-4.4-3.3-4.4h-1.3v8.8H411.3z"/>
		<path fill="#353535" d="M417.1,185.3c0-2.8,1.5-4.1,3.1-4.1c1.8,0,2.8,1.4,2.8,4.1v0.3h-4.7c0,1.9,0.8,2.8,1.9,2.8
			c0.9,0,1.4-0.5,1.9-1.4l0.8,0.5c-0.6,1.1-1.5,1.9-2.8,1.9C418.4,189.4,417.1,188,417.1,185.3z M421.8,184.6
			c-0.1-1.4-0.6-2.4-1.7-2.4c-0.9,0-1.7,0.7-1.8,2.4H421.8z"/>
		<path fill="#353535" d="M423.9,187.8l0.8-0.6c0.5,0.8,1.3,1.2,2.1,1.2c1,0,1.6-0.4,1.6-1.2c0-2-4.1-1.2-4.1-4c0-1.3,1-2.1,2.5-2.1
			c1.2,0,2,0.6,2.6,1.4l-0.8,0.6c-0.4-0.6-1-1-1.8-1c-0.9,0-1.3,0.5-1.3,1.1c0,2,4.1,1.1,4.1,4c0,1.4-1.2,2.2-2.7,2.2
			C425.5,189.4,424.5,188.8,423.9,187.8z"/>
		<path fill="#353535" d="M431.1,178.4h1.2v1.3h-1.2V178.4z M431.1,181.3h1.2v7.9h-1.2V181.3z"/>
		<path fill="#353535" d="M440.4,181.2v1.1c-0.4,0-0.8,0-1.2,0.2c0.2,0.4,0.4,0.9,0.4,1.5c0,1.8-1.1,2.8-2.7,2.8
			c-0.4,0-0.8-0.1-1.1-0.2c-0.3,0.2-0.5,0.3-0.5,0.6c0,0.3,0.2,0.4,0.9,0.5l1.2,0.2c2,0.2,2.7,0.8,2.7,2c0,1.4-1.5,2.2-3.4,2.2
			c-2.3,0-3.1-0.7-3.1-1.9c0-0.8,0.5-1.4,1.3-1.8c-0.4-0.2-0.7-0.5-0.7-1c0-0.5,0.4-0.9,0.9-1.2c-0.7-0.5-1-1.3-1-2.3
			c0-1.7,1.2-2.9,2.8-2.9c0.8,0,1.5,0.3,2,0.8C439.2,181.6,439.9,181.3,440.4,181.2z M434.7,190.2c0,0.8,0.5,1.2,2.1,1.2
			c1.3,0,2.2-0.5,2.2-1.2c0-0.6-0.4-1-1.8-1.2l-1.3-0.2c-0.1,0-0.2,0-0.2,0C435.1,189.1,434.7,189.6,434.7,190.2z M438.4,184
			c0-1.2-0.6-1.9-1.6-1.9c-1,0-1.6,0.8-1.6,1.9c0,1.2,0.6,1.9,1.6,1.9C437.8,186,438.4,185.2,438.4,184z"/>
		<path fill="#353535" d="M441.7,181.3h1.2v1.1c0.5-0.6,1.5-1.3,2.5-1.3c1.3,0,2,0.8,2,2.2v5.9h-1.2v-5.6c0-0.9-0.3-1.4-1.1-1.4
			c-0.8,0-1.6,0.6-2.1,1.1v5.9h-1.2V181.3z"/>
		<path fill="#353535" d="M448.9,185.3c0-2.8,1.5-4.1,3.1-4.1c1.8,0,2.8,1.4,2.8,4.1v0.3h-4.7c0,1.9,0.8,2.8,1.9,2.8
			c0.9,0,1.4-0.5,1.9-1.4l0.8,0.5c-0.6,1.1-1.5,1.9-2.8,1.9C450.2,189.4,448.9,188,448.9,185.3z M453.6,184.6
			c-0.1-1.4-0.6-2.4-1.7-2.4c-0.9,0-1.7,0.7-1.8,2.4H453.6z"/>
		<path fill="#353535" d="M456.3,181.3h1.2v1.4h0c0.4-0.8,1.3-1.5,2.5-1.5h0.2l-0.1,1.1c0,0-0.2,0-0.3,0c-1,0-1.9,0.7-2.3,1.6v5.3
			h-1.2V181.3z"/>
		<path fill="#353535" d="M460.8,187.8l0.8-0.6c0.5,0.8,1.3,1.2,2.1,1.2c1,0,1.6-0.4,1.6-1.2c0-2-4.1-1.2-4.1-4c0-1.3,1-2.1,2.5-2.1
			c1.2,0,2,0.6,2.6,1.4l-0.8,0.6c-0.4-0.6-1-1-1.8-1c-0.9,0-1.3,0.5-1.3,1.1c0,2,4.1,1.1,4.1,4c0,1.4-1.2,2.2-2.7,2.2
			C462.4,189.4,461.4,188.8,460.8,187.8z"/>
		<path fill="#353535" d="M480.1,178.1h2.4c3.1,0,4.7,1.6,4.7,5.5c0,3.9-1.7,5.6-4.7,5.6h-2.4V178.1z M482.7,188.1
			c2.2,0,3.3-1.3,3.3-4.4c0-3-1-4.4-3.3-4.4h-1.3v8.8H482.7z"/>
		<path fill="#353535" d="M488.6,185.3c0-2.8,1.5-4.1,3.1-4.1c1.8,0,2.8,1.4,2.8,4.1v0.3h-4.7c0,1.9,0.8,2.8,1.9,2.8
			c0.9,0,1.4-0.5,1.9-1.4l0.8,0.5c-0.6,1.1-1.5,1.9-2.8,1.9C489.9,189.4,488.6,188,488.6,185.3z M493.3,184.6
			c-0.1-1.4-0.6-2.4-1.7-2.4c-0.9,0-1.7,0.7-1.8,2.4H493.3z"/>
		<path fill="#353535" d="M495.3,181.3h1.2l1.3,4.5c0.2,0.7,0.3,1.2,0.6,2.1h0c0.2-0.9,0.4-1.4,0.6-2.1l1.3-4.5h1.1l-2.4,7.9h-1.3
			L495.3,181.3z"/>
		<path fill="#353535" d="M502.2,185.3c0-2.8,1.5-4.1,3.1-4.1c1.8,0,2.8,1.4,2.8,4.1v0.3h-4.7c0,1.9,0.8,2.8,1.9,2.8
			c0.9,0,1.4-0.5,1.9-1.4l0.8,0.5c-0.6,1.1-1.5,1.9-2.8,1.9C503.6,189.4,502.2,188,502.2,185.3z M507,184.6
			c-0.1-1.4-0.6-2.4-1.7-2.4c-0.9,0-1.7,0.7-1.8,2.4H507z"/>
		<path fill="#353535" d="M509.7,178.1h1.2v11.1h-1.2V178.1z"/>
		<path fill="#353535" d="M512.6,185.3c0-2.7,1.4-4.1,3.1-4.1c1.8,0,3.1,1.4,3.1,4.1c0,2.7-1.4,4.1-3.1,4.1S512.6,188,512.6,185.3z
			 M517.6,185.3c0-1.7-0.6-3.1-1.9-3.1c-1.3,0-1.9,1.2-1.9,3.1c0,1.7,0.6,3.1,1.9,3.1C517,188.4,517.6,187.2,517.6,185.3z"/>
		<path fill="#353535" d="M520.4,181.3h1.2v1c0.5-0.6,1.2-1.2,2.2-1.2c1.5,0,2.7,1.3,2.7,4.1c0,2.9-1.2,4.1-2.8,4.1
			c-0.9,0-1.6-0.4-2.1-1.1v4h-1.2V181.3z M525.2,185.3c0-2.1-0.7-3.1-1.8-3.1c-0.7,0-1.4,0.5-1.9,1.1v4c0.6,0.7,1.2,1.1,1.9,1.1
			C524.5,188.4,525.2,187.5,525.2,185.3z"/>
		<path fill="#353535" d="M527.6,185.3c0-2.8,1.5-4.1,3.1-4.1c1.8,0,2.8,1.4,2.8,4.1v0.3h-4.7c0,1.9,0.8,2.8,1.9,2.8
			c0.9,0,1.4-0.5,1.9-1.4l0.8,0.5c-0.6,1.1-1.5,1.9-2.8,1.9C528.9,189.4,527.6,188,527.6,185.3z M532.4,184.6
			c-0.1-1.4-0.6-2.4-1.7-2.4c-0.9,0-1.7,0.7-1.8,2.4H532.4z"/>
		<path fill="#353535" d="M535.1,181.3h1.2v1.4h0c0.5-0.8,1.3-1.5,2.5-1.5h0.2l-0.1,1.1c0,0-0.2,0-0.3,0c-1,0-1.9,0.7-2.3,1.6v5.3
			h-1.2V181.3z"/>
		<path fill="#353535" d="M539.6,187.8l0.8-0.6c0.5,0.8,1.3,1.2,2.1,1.2c1,0,1.6-0.4,1.6-1.2c0-2-4.1-1.2-4.1-4c0-1.3,1-2.1,2.5-2.1
			c1.2,0,2,0.6,2.6,1.4l-0.8,0.6c-0.4-0.6-1-1-1.8-1c-0.9,0-1.3,0.5-1.3,1.1c0,2,4.1,1.1,4.1,4c0,1.4-1.2,2.2-2.7,2.2
			C541.2,189.4,540.2,188.8,539.6,187.8z"/>
		<path fill="#353535" d="M558.9,178.1h1.6l2.8,9.3h0l2.7-9.3h1.6v11.1h-1.2v-9.1h0c-0.1,0.7-0.5,1.9-0.8,2.8l-1.9,6.3h-1l-1.9-6.3
			c-0.3-0.9-0.6-2.1-0.8-2.8h0v9.1h-1.1V178.1z"/>
		<path fill="#353535" d="M569.3,187.4c0-1.6,1.3-2.7,4.4-3.3v-0.5c0-0.9-0.4-1.3-1.2-1.3c-1,0-1.7,0.5-2.3,1.1l-0.7-0.7
			c0.8-0.8,1.9-1.4,3.1-1.4c1.5,0,2.2,0.9,2.2,2.4v3.8c0,1,0,1.5,0.2,2h-1.2c-0.1-0.3-0.2-0.6-0.2-1c-0.6,0.7-1.5,1.1-2.5,1.1
			C570,189.4,569.3,188.6,569.3,187.4z M573.7,187.3v-2.4c-2.4,0.5-3.2,1.4-3.2,2.3c0,0.8,0.4,1.2,1.1,1.2
			C572.4,188.4,573.2,187.9,573.7,187.3z"/>
		<path fill="#353535" d="M576.8,181.3h1.2v1.1c0.5-0.6,1.5-1.3,2.5-1.3c1.3,0,2,0.8,2,2.2v5.9h-1.2v-5.6c0-0.9-0.3-1.4-1.1-1.4
			c-0.8,0-1.6,0.6-2.1,1.1v5.9h-1.2V181.3z"/>
		<path fill="#353535" d="M583.9,187.4c0-1.6,1.3-2.7,4.4-3.3v-0.5c0-0.9-0.4-1.3-1.2-1.3c-1,0-1.7,0.5-2.3,1.1l-0.7-0.7
			c0.8-0.8,1.9-1.4,3.1-1.4c1.5,0,2.2,0.9,2.2,2.4v3.8c0,1,0,1.5,0.2,2h-1.2c-0.1-0.3-0.2-0.6-0.2-1c-0.6,0.7-1.5,1.1-2.5,1.1
			C584.6,189.4,583.9,188.6,583.9,187.4z M588.3,187.3v-2.4c-2.4,0.5-3.2,1.4-3.2,2.3c0,0.8,0.4,1.2,1.1,1.2
			C587,188.4,587.8,187.9,588.3,187.3z"/>
		<path fill="#353535" d="M597.4,181.2v1.1c-0.4,0-0.8,0-1.2,0.2c0.2,0.4,0.4,0.9,0.4,1.5c0,1.8-1.1,2.8-2.7,2.8
			c-0.4,0-0.8-0.1-1.1-0.2c-0.3,0.2-0.5,0.3-0.5,0.6c0,0.3,0.2,0.4,0.9,0.5l1.2,0.2c2,0.2,2.7,0.8,2.7,2c0,1.4-1.5,2.2-3.4,2.2
			c-2.3,0-3.1-0.7-3.1-1.9c0-0.8,0.5-1.4,1.3-1.8c-0.4-0.2-0.7-0.5-0.7-1c0-0.5,0.4-0.9,0.9-1.2c-0.7-0.5-1-1.3-1-2.3
			c0-1.7,1.2-2.9,2.8-2.9c0.8,0,1.5,0.3,2,0.8C596.3,181.6,596.9,181.3,597.4,181.2z M591.8,190.2c0,0.8,0.5,1.2,2.1,1.2
			c1.3,0,2.2-0.5,2.2-1.2c0-0.6-0.4-1-1.8-1.2l-1.3-0.2c-0.1,0-0.2,0-0.2,0C592.1,189.1,591.8,189.6,591.8,190.2z M595.5,184
			c0-1.2-0.6-1.9-1.6-1.9c-1,0-1.6,0.8-1.6,1.9c0,1.2,0.6,1.9,1.6,1.9C594.9,186,595.5,185.2,595.5,184z"/>
		<path fill="#353535" d="M598.4,185.3c0-2.8,1.5-4.1,3.1-4.1c1.8,0,2.8,1.4,2.8,4.1v0.3h-4.7c0,1.9,0.8,2.8,1.9,2.8
			c0.9,0,1.4-0.5,1.9-1.4l0.8,0.5c-0.6,1.1-1.5,1.9-2.8,1.9C599.7,189.4,598.4,188,598.4,185.3z M603.1,184.6
			c-0.1-1.4-0.6-2.4-1.7-2.4c-0.9,0-1.7,0.7-1.8,2.4H603.1z"/>
		<path fill="#353535" d="M605.8,181.3h1.2v1.4h0c0.5-0.8,1.3-1.5,2.5-1.5h0.2l-0.1,1.1c0,0-0.2,0-0.3,0c-1,0-1.9,0.7-2.3,1.6v5.3
			h-1.2V181.3z"/>
		<path fill="#353535" d="M610.3,187.8l0.8-0.6c0.5,0.8,1.3,1.2,2.1,1.2c1,0,1.6-0.4,1.6-1.2c0-2-4.1-1.2-4.1-4c0-1.3,1-2.1,2.5-2.1
			c1.2,0,2,0.6,2.6,1.4l-0.8,0.6c-0.4-0.6-1-1-1.8-1c-0.9,0-1.3,0.5-1.3,1.1c0,2,4.1,1.1,4.1,4c0,1.4-1.2,2.2-2.7,2.2
			C611.9,189.4,611,188.8,610.3,187.8z"/>
		<path fill="#353535" d="M629.6,178.1h1.6l2.8,9.3h0l2.7-9.3h1.6v11.1h-1.2v-9.1h0c-0.1,0.7-0.5,1.9-0.8,2.8l-1.9,6.3h-1l-1.9-6.3
			c-0.3-0.9-0.6-2.1-0.8-2.8h0v9.1h-1.1V178.1z"/>
		<path fill="#353535" d="M640.1,187.4c0-1.6,1.3-2.7,4.4-3.3v-0.5c0-0.9-0.4-1.3-1.2-1.3c-1,0-1.7,0.5-2.3,1.1l-0.7-0.7
			c0.8-0.8,1.9-1.4,3.1-1.4c1.5,0,2.2,0.9,2.2,2.4v3.8c0,1,0,1.5,0.2,2h-1.2c-0.1-0.3-0.2-0.6-0.2-1c-0.6,0.7-1.5,1.1-2.5,1.1
			C640.8,189.4,640.1,188.6,640.1,187.4z M644.5,187.3v-2.4c-2.4,0.5-3.2,1.4-3.2,2.3c0,0.8,0.4,1.2,1.1,1.2
			C643.2,188.4,643.9,187.9,644.5,187.3z"/>
		<path fill="#353535" d="M647.6,181.3h1.2v1.4h0c0.4-0.8,1.3-1.5,2.5-1.5h0.2l-0.1,1.1c0,0-0.2,0-0.3,0c-1,0-1.9,0.7-2.3,1.6v5.3
			h-1.2V181.3z"/>
		<path fill="#353535" d="M652.7,178.1h1.2v7.3c0.2-0.3,0.7-1,1.1-1.6l1.8-2.5h1.2l-2.1,2.9l2.4,5h-1.2l-1.9-4l-1.3,1.7v2.4h-1.2
			V178.1z"/>
		<path fill="#353535" d="M659.2,185.3c0-2.8,1.5-4.1,3.1-4.1c1.8,0,2.8,1.4,2.8,4.1v0.3h-4.7c0,1.9,0.8,2.8,1.9,2.8
			c0.9,0,1.4-0.5,1.9-1.4l0.8,0.5c-0.6,1.1-1.5,1.9-2.8,1.9C660.6,189.4,659.2,188,659.2,185.3z M664,184.6
			c-0.1-1.4-0.6-2.4-1.7-2.4c-0.9,0-1.7,0.7-1.8,2.4H664z"/>
		<path fill="#353535" d="M667.1,187.5v-5.1H666v-1h1.2v-2.8h1.2v2.8h1.7v1h-1.7v4.9c0,0.8,0.2,1.2,1,1.2c0.2,0,0.5,0,0.7-0.1v1
			c-0.2,0.1-0.6,0.1-0.9,0.1C667.7,189.3,667.1,188.8,667.1,187.5z"/>
		<path fill="#353535" d="M671.6,178.4h1.2v1.3h-1.2V178.4z M671.6,181.3h1.2v7.9h-1.2V181.3z"/>
		<path fill="#353535" d="M674.8,181.3h1.2v1.1c0.5-0.6,1.5-1.3,2.5-1.3c1.3,0,2,0.8,2,2.2v5.9h-1.2v-5.6c0-0.9-0.3-1.4-1.1-1.4
			c-0.8,0-1.6,0.6-2.1,1.1v5.9h-1.2V181.3z"/>
		<path fill="#353535" d="M688.4,181.2v1.1c-0.4,0-0.8,0-1.2,0.2c0.2,0.4,0.4,0.9,0.4,1.5c0,1.8-1.1,2.8-2.7,2.8
			c-0.4,0-0.8-0.1-1.1-0.2c-0.3,0.2-0.5,0.3-0.5,0.6c0,0.3,0.2,0.4,0.9,0.5l1.2,0.2c1.9,0.2,2.7,0.8,2.7,2c0,1.4-1.5,2.2-3.4,2.2
			c-2.3,0-3.1-0.7-3.1-1.9c0-0.8,0.5-1.4,1.3-1.8c-0.4-0.2-0.7-0.5-0.7-1c0-0.5,0.4-0.9,0.9-1.2c-0.7-0.5-1-1.3-1-2.3
			c0-1.7,1.2-2.9,2.8-2.9c0.8,0,1.5,0.3,2,0.8C687.3,181.6,687.9,181.3,688.4,181.2z M682.8,190.2c0,0.8,0.5,1.2,2.1,1.2
			c1.3,0,2.2-0.5,2.2-1.2c0-0.6-0.4-1-1.8-1.2l-1.3-0.2c-0.1,0-0.2,0-0.2,0C683.1,189.1,682.8,189.6,682.8,190.2z M686.4,184
			c0-1.2-0.6-1.9-1.6-1.9c-1,0-1.6,0.8-1.6,1.9c0,1.2,0.6,1.9,1.6,1.9C685.9,186,686.4,185.2,686.4,184z"/>
		<path fill="#353535" d="M694.5,178.1h1.2l-5.5,11.1h-1.2L694.5,178.1z"/>
		<path fill="#353535" d="M696.5,186.8l1.1-0.5c0.5,1.2,1.3,2,2.6,2c1.3,0,2.1-0.7,2.1-1.8c0-1.3-1.1-1.8-2.3-2.4
			c-1.4-0.7-3-1.4-3-3.4c0-1.6,1.3-2.8,3-2.8c1.8,0,2.8,1.1,3.3,2.3l-1.1,0.5c-0.4-0.9-1-1.8-2.2-1.8c-1,0-1.8,0.7-1.8,1.6
			c0,1.3,1.1,1.8,2.2,2.4c1.4,0.7,3,1.4,3,3.4c0,1.6-1.3,2.9-3.3,2.9C698.4,189.4,697.2,188.4,696.5,186.8z"/>
		<path fill="#353535" d="M704.8,187.4c0-1.6,1.3-2.7,4.4-3.3v-0.5c0-0.9-0.4-1.3-1.2-1.3c-1,0-1.7,0.5-2.3,1.1l-0.7-0.7
			c0.8-0.8,1.9-1.4,3.1-1.4c1.5,0,2.2,0.9,2.2,2.4v3.8c0,1,0,1.5,0.2,2h-1.2c-0.1-0.3-0.2-0.6-0.2-1c-0.6,0.7-1.5,1.1-2.5,1.1
			C705.5,189.4,704.8,188.6,704.8,187.4z M709.2,187.3v-2.4c-2.4,0.5-3.2,1.4-3.2,2.3c0,0.8,0.4,1.2,1.1,1.2
			C707.9,188.4,708.7,187.9,709.2,187.3z"/>
		<path fill="#353535" d="M712.3,178.1h1.2v11.1h-1.2V178.1z"/>
		<path fill="#353535" d="M715.2,185.3c0-2.8,1.5-4.1,3.1-4.1c1.8,0,2.8,1.4,2.8,4.1v0.3h-4.7c0,1.9,0.8,2.8,1.9,2.8
			c0.9,0,1.4-0.5,1.9-1.4l0.8,0.5c-0.6,1.1-1.5,1.9-2.8,1.9C716.5,189.4,715.2,188,715.2,185.3z M719.9,184.6
			c-0.1-1.4-0.6-2.4-1.7-2.4c-0.9,0-1.7,0.7-1.8,2.4H719.9z"/>
		<path fill="#353535" d="M722,187.8l0.8-0.6c0.5,0.8,1.3,1.2,2.1,1.2c1,0,1.6-0.4,1.6-1.2c0-2-4.1-1.2-4.1-4c0-1.3,1-2.1,2.5-2.1
			c1.2,0,2,0.6,2.6,1.4l-0.8,0.6c-0.4-0.6-1-1-1.8-1c-0.9,0-1.3,0.5-1.3,1.1c0,2,4.1,1.1,4.1,4c0,1.4-1.2,2.2-2.7,2.2
			C723.6,189.4,722.6,188.8,722,187.8z"/>
		<path fill="#353535" d="M740.6,186.8l1.1-0.5c0.5,1.2,1.3,2,2.6,2c1.3,0,2.1-0.7,2.1-1.8c0-1.3-1.1-1.8-2.3-2.4
			c-1.4-0.7-3-1.4-3-3.4c0-1.6,1.3-2.8,3-2.8c1.8,0,2.8,1.1,3.3,2.3l-1.1,0.5c-0.4-0.9-1-1.8-2.2-1.8c-1,0-1.8,0.7-1.8,1.6
			c0,1.3,1.1,1.8,2.2,2.4c1.4,0.7,3,1.4,3,3.4c0,1.6-1.3,2.9-3.3,2.9C742.5,189.4,741.3,188.4,740.6,186.8z"/>
		<path fill="#353535" d="M749.2,187.2v-5.9h1.2v5.7c0,0.9,0.3,1.4,1.2,1.4c0.8,0,1.4-0.5,2.1-1.1v-5.9h1.2v7.9h-1.2v-1.1
			c-0.6,0.7-1.5,1.3-2.5,1.3C749.9,189.4,749.2,188.6,749.2,187.2z"/>
		<path fill="#353535" d="M756.8,181.3h1.2v1c0.5-0.6,1.2-1.2,2.2-1.2c1.5,0,2.7,1.3,2.7,4.1c0,2.9-1.2,4.1-2.8,4.1
			c-0.9,0-1.6-0.4-2.1-1.1v4h-1.2V181.3z M761.7,185.3c0-2.1-0.7-3.1-1.8-3.1c-0.7,0-1.4,0.5-1.9,1.1v4c0.6,0.7,1.2,1.1,1.9,1.1
			C761,188.4,761.7,187.5,761.7,185.3z"/>
		<path fill="#353535" d="M764.4,181.3h1.2v1c0.5-0.6,1.2-1.2,2.2-1.2c1.5,0,2.7,1.3,2.7,4.1c0,2.9-1.2,4.1-2.8,4.1
			c-0.9,0-1.6-0.4-2.1-1.1v4h-1.2V181.3z M769.3,185.3c0-2.1-0.7-3.1-1.8-3.1c-0.7,0-1.4,0.5-1.9,1.1v4c0.6,0.7,1.2,1.1,1.9,1.1
			C768.6,188.4,769.3,187.5,769.3,185.3z"/>
		<path fill="#353535" d="M771.7,185.3c0-2.7,1.4-4.1,3.1-4.1c1.8,0,3.1,1.4,3.1,4.1c0,2.7-1.4,4.1-3.1,4.1S771.7,188,771.7,185.3z
			 M776.7,185.3c0-1.7-0.6-3.1-1.9-3.1c-1.3,0-1.9,1.2-1.9,3.1c0,1.7,0.6,3.1,1.9,3.1C776.1,188.4,776.7,187.2,776.7,185.3z"/>
		<path fill="#353535" d="M779.5,181.3h1.2v1.4h0c0.4-0.8,1.3-1.5,2.5-1.5h0.2l-0.1,1.1c0,0-0.2,0-0.3,0c-1,0-1.9,0.7-2.3,1.6v5.3
			h-1.2V181.3z"/>
		<path fill="#353535" d="M785.1,187.5v-5.1H784v-1h1.2v-2.8h1.2v2.8h1.7v1h-1.7v4.9c0,0.8,0.2,1.2,1,1.2c0.2,0,0.5,0,0.7-0.1v1
			c-0.2,0.1-0.6,0.1-0.9,0.1C785.7,189.3,785.1,188.8,785.1,187.5z"/>
	</g>
</g>
<circle fill="#DCB38D" cx="218.7" cy="108.9" r="65"/>
<path fill="none" stroke="#353535" stroke-width="4" stroke-linecap="round" stroke-linejoin="round" stroke-miterlimit="10" d="
	M295.2,133.4c-10.4,32.4-40.7,55.9-76.5,55.9c-19.4,0-37.3-6.9-51.2-18.4"/>
<path fill="none" stroke="#353535" stroke-width="4" stroke-linecap="round" stroke-linejoin="round" stroke-miterlimit="10" d="
	M219.7,28.6c24.7,0.3,46.7,11.8,61.3,29.6"/>
<path fill="none" stroke="#353535" stroke-width="4" stroke-linecap="round" stroke-linejoin="round" stroke-miterlimit="10" d="
	M142.3,133.8c-2.5-7.8-3.9-16.2-3.9-24.9c0-24.7,11.2-46.8,28.7-61.5"/>
<g>
	<path fill="#FFFFFF" d="M413.7,134L413.7,134c-3.1,0-5.7,2.6-5.7,5.7v15.5c0,3.1,2.5,5.7,5.7,5.7h0c3.1,0,5.7-2.5,5.7-5.7v-15.5
		C419.3,136.6,416.8,134,413.7,134z"/>
	<path fill="#FCD9BE" d="M430,134L430,134c-3.1,0-5.7,2.6-5.7,5.7v15.5c0,3.1,2.5,5.7,5.7,5.7l0,0c3.1,0,5.7-2.5,5.7-5.7v-15.5
		C435.7,136.6,433.1,134,430,134z"/>
	<path fill="#C68F61" d="M446.3,134L446.3,134c-3.1,0-5.7,2.6-5.7,5.7v15.5c0,3.1,2.6,5.7,5.7,5.7h0c3.1,0,5.7-2.5,5.7-5.7v-15.5
		C452,136.6,449.5,134,446.3,134z"/>
	<path fill="#5D5D5D" d="M462.7,134L462.7,134c-3.1,0-5.7,2.6-5.7,5.7v15.5c0,3.1,2.5,5.7,5.7,5.7h0c3.1,0,5.7-2.5,5.7-5.7v-15.5
		C468.3,136.6,465.8,134,462.7,134z"/>
</g>
<g>
	<path fill="#FFFFFF" d="M748.8,134L748.8,134c-3.1,0-5.7,2.6-5.7,5.7v15.5c0,3.1,2.5,5.7,5.7,5.7l0,0c3.1,0,5.7-2.5,5.7-5.7v-15.5
		C754.4,136.6,751.9,134,748.8,134z"/>
	<path fill="#5D5D5D" d="M781.4,134L781.4,134c-3.1,0-5.7,2.6-5.7,5.7v15.5c0,3.1,2.5,5.7,5.7,5.7l0,0c3.1,0,5.7-2.5,5.7-5.7v-15.5
		C787.1,136.6,784.5,134,781.4,134z"/>
</g>
<g>
	<path fill="#FCD9BE" d="M582.2,134L582.2,134c-3.1,0-5.7,2.6-5.7,5.7v15.5c0,3.1,2.5,5.7,5.7,5.7l0,0c3.1,0,5.7-2.5,5.7-5.7v-15.5
		C587.9,136.6,585.4,134,582.2,134z"/>
	<path fill="#C68F61" d="M598.4,134L598.4,134c-3.1,0-5.7,2.6-5.7,5.7v15.5c0,3.1,2.5,5.7,5.7,5.7l0,0c3.1,0,5.7-2.5,5.7-5.7v-15.5
		C604.1,136.6,601.5,134,598.4,134z"/>
	<path fill="#5D5D5D" d="M614.9,109.3c-3.1,0-5.7,2.6-5.7,5.7v11v2.7v1.9v9.1v1.9v2.7v11c0,3.1,2.5,5.7,5.7,5.7
		c3.1,0,5.7-2.5,5.7-5.7v-11v-2.7v-1.9v-9.1v-1.9V126v-11C620.6,111.9,618,109.3,614.9,109.3z"/>
	<path fill="#FFFFFF" d="M565.8,109.3c-3.1,0-5.7,2.6-5.7,5.7v11v2.7v1.9v9.1v1.9v2.7v11c0,3.1,2.5,5.7,5.7,5.7
		c3.1,0,5.7-2.5,5.7-5.7v-11v-2.7v-1.9v-9.1v-1.9V126v-11C571.5,111.9,568.9,109.3,565.8,109.3z"/>
</g>
<g>
	<path fill="#5D5D5D" d="M705,83c-3.1,0-5.7,2.6-5.7,5.7V97v2.7v2.7v1.9v3.8v2.7v1.9v0.8v1.7v0.2v2.7v3.8v1.9v2.5v0.2v2.5v0.2v1.7
		v6.7v2.5l0,0v15.5c0,2.3,1.4,4.4,3.5,5.2c0.7,0.3,1.4,0.4,2.2,0.4c3.1,0,5.7-2.5,5.7-5.7v-11v-2.7v-1.9v-2.5v-6.7v-1.7v-0.2v-2.5
		V126v-2.5v-1.9v-3.8v-2.7V115v-1.7v-0.8v-1.9V108v-3.8v-1.9v-2.7V97v-8.3C710.7,85.5,708.1,83,705,83z"/>
	<path fill="#C68F61" d="M687.8,83c-3.1,0-5.7,2.6-5.7,5.7V97v2.7v2.7v1.9v3.8v2.7v1.9v0.8v1.7v0.2v2.7v3.8v1.9v2.5v0.2v2.5v0.2v1.7
		v6.7v2.5l0,0v15.5c0,2.3,1.4,4.4,3.5,5.2c0.7,0.3,1.4,0.4,2.2,0.4c3.1,0,5.7-2.5,5.7-5.7v-11v-2.7v-1.9v-2.5v-6.7v-1.7v-0.2v-2.5
		V126v-2.5v-1.9v-3.8v-2.7V115v-1.7v-0.8v-1.9V108v-3.8v-1.9v-2.7V97v-8.3C693.4,85.5,690.9,83,687.8,83z"/>
	<path fill="#FCD9BE" d="M671.9,134L671.9,134c-3.1,0-5.7,2.6-5.7,5.7v15.5c0,3.1,2.5,5.7,5.7,5.7l0,0c3.1,0,5.7-2.5,5.7-5.7v-15.5
		C677.6,136.6,675,134,671.9,134z"/>
	<path fill="#FFFFFF" d="M655.5,109.3c-3.1,0-5.7,2.6-5.7,5.7v11v2.7v1.9v9.1v1.9v2.7v11c0,3.1,2.5,5.7,5.7,5.7
		c3.1,0,5.7-2.5,5.7-5.7v-11v-2.7v-1.9v-9.1v-1.9V126v-11C661.1,111.9,658.6,109.3,655.5,109.3z"/>
</g>
<g>
	<path fill="#C68F61" d="M515.3,109.3c-3.1,0-5.7,2.6-5.7,5.7v11v2.7v1.9v9.1v1.9v2.7v11c0,3.1,2.5,5.7,5.7,5.7
		c3.1,0,5.7-2.5,5.7-5.7v-11v-2.7v-1.9v-9.1v-1.9V126v-11C521,111.9,518.5,109.3,515.3,109.3z"/>
	<path fill="#5D5D5D" d="M531.7,109.3c-3.1,0-5.7,2.6-5.7,5.7v11v2.7v1.9v9.1v1.9v2.7v11c0,3.1,2.5,5.7,5.7,5.7
		c3.1,0,5.7-2.5,5.7-5.7v-11v-2.7v-1.9v-9.1v-1.9V126v-11C537.3,111.9,534.8,109.3,531.7,109.3z"/>
	<path fill="#FCD9BE" d="M499,109.3c-3.1,0-5.7,2.6-5.7,5.7v11v2.7v1.9v9.1v1.9v2.7v11c0,3.1,2.6,5.7,5.7,5.7c3.1,0,5.7-2.5,5.7-5.7
		v-11v-2.7v-1.9v-9.1v-1.9V126v-11C504.7,111.9,502.1,109.3,499,109.3z"/>
</g>
<g>
	<path fill="#353535" d="M281.4,66.8l1.1,0c-0.1,0.7,0.1,1.4,0.4,1.9c0.4,0.7,1.1,1,2.1,0.4l7.3-4.5l0.7,1.1l-7.3,4.5
		c-1.5,0.9-2.8,0.5-3.6-0.8C281.5,68.7,281.3,67.7,281.4,66.8z"/>
	<path fill="#353535" d="M285.7,71.7c1.4-0.7,3,0,5,2.4l0.4-0.2c0.8-0.4,1-0.9,0.6-1.7c-0.4-0.9-1.2-1.3-2-1.6l0.4-0.9
		c1.1,0.4,2.1,1,2.7,2.2c0.7,1.4,0.3,2.4-1.1,3.1l-3.3,1.7c-0.9,0.4-1.4,0.7-1.7,1.1l-0.5-1.1c0.2-0.2,0.4-0.4,0.8-0.6
		c-0.9-0.3-1.7-0.8-2.1-1.8C284.3,73.2,284.6,72.3,285.7,71.7z M287.8,75.6l2.2-1.1c-1.6-1.9-2.7-2.3-3.5-1.8
		c-0.7,0.4-0.8,0.9-0.5,1.5C286.3,74.9,287,75.4,287.8,75.6z"/>
	<path fill="#353535" d="M294.2,75.2l0.5,1.1l-3.7,2.9c-0.6,0.4-1,0.8-1.8,1.3l0,0c0.9-0.1,1.5-0.2,2.2-0.3l4.7-0.5l0.4,1.1
		l-8.3,0.7l-0.5-1.2L294.2,75.2z"/>
	<path fill="#353535" d="M291.1,83.6c1.5-0.5,3,0.5,4.5,3.2l0.5-0.1c0.9-0.3,1.1-0.8,0.9-1.5c-0.3-0.9-1-1.5-1.7-1.9l0.5-0.9
		c1,0.5,1.9,1.4,2.3,2.6c0.5,1.5-0.2,2.4-1.6,2.8l-3.6,1.1c-0.9,0.3-1.5,0.5-1.8,0.8l-0.4-1.2c0.3-0.2,0.5-0.3,0.9-0.5
		c-0.9-0.4-1.5-1.1-1.8-2.1C289.4,84.8,289.9,84,291.1,83.6z M292.4,87.8l2.3-0.7c-1.2-2.2-2.3-2.7-3.2-2.4c-0.8,0.2-1,0.7-0.8,1.4
		C291,86.9,291.7,87.5,292.4,87.8z"/>
	<path fill="#353535" d="M293.6,89.9l0.7,1c-1.1,0.7-1.7,1.7-1.4,3c0.3,1.3,1.1,1.9,2.2,1.7c1.3-0.3,1.6-1.4,1.9-2.7
		c0.4-1.5,0.8-3.2,2.7-3.6c1.6-0.3,3,0.7,3.3,2.4c0.4,1.7-0.5,2.9-1.6,3.7l-0.7-1c0.8-0.6,1.5-1.4,1.3-2.6c-0.2-1-1-1.6-1.9-1.4
		c-1.3,0.3-1.6,1.4-1.9,2.7c-0.4,1.5-0.8,3.2-2.8,3.7c-1.6,0.3-3.1-0.7-3.5-2.7C291.4,92.2,292.2,90.9,293.6,89.9z"/>
	<path fill="#353535" d="M296.6,97.6c2.8-0.3,4.3,1,4.4,2.6c0.2,1.6-0.8,2.4-2.1,2.9l-0.4-1.1c1-0.4,1.5-0.9,1.4-1.7
		c-0.1-1-1.1-1.7-3.3-1.5c-1.9,0.2-3,1-2.9,2.2c0.1,0.8,0.7,1.3,1.8,1.5l-0.2,1.1c-1.5-0.3-2.5-1.1-2.7-2.5
		C292.7,99.3,293.9,97.9,296.6,97.6z"/>
	<path fill="#353535" d="M301.3,104.5l0,1.2l-1.4,0l0,0c0.8,0.4,1.6,1.2,1.6,2.5l0,0.2l-1.1,0c0,0,0-0.2,0-0.3c0-1-0.7-1.9-1.7-2.3
		l-5.3,0.2l0-1.2L301.3,104.5z"/>
	<path fill="#353535" d="M301.4,109.9l0,1.2l-7.9-0.1l0-1.2L301.4,109.9z M304.2,109.9l0,1.2l-1.3,0l0-1.2L304.2,109.9z"/>
	<path fill="#353535" d="M301.3,113.2l-0.1,1.2l-1-0.1c0.5,0.5,1.1,1.3,1,2.3c-0.1,1.5-1.5,2.6-4.3,2.3c-2.9-0.2-4-1.5-3.8-3.1
		c0.1-0.9,0.6-1.5,1.3-2l-3.9-0.3l0.1-1.2L301.3,113.2z M296.9,117.7c2.1,0.2,3.1-0.5,3.2-1.5c0.1-0.7-0.4-1.4-0.9-1.9l-4-0.3
		c-0.7,0.5-1.2,1.1-1.2,1.8C293.9,116.8,294.8,117.6,296.9,117.7z"/>
	<path fill="#353535" d="M294.4,120.5l5.1,0.8l0.2-1.2l1,0.2l-0.2,1.2l2.8,0.5l-0.2,1.2l-2.8-0.5l-0.3,1.7l-1-0.2l0.3-1.7l-4.8-0.8
		c-0.8-0.1-1.2,0-1.3,0.8c0,0.2,0,0.5,0,0.7l-1-0.2c0-0.2,0-0.6,0-0.9C292.4,120.7,293,120.3,294.4,120.5z"/>
</g>
<g>
	<path fill="#353535" d="M170.9,37.4l2.6-1.6c1.7-1.1,3.4-1,4.6,0.9c1.3,2.1,0.4,3.6-1.2,4.6l-1.5,0.9l2.4,3.9l-1.1,0.7L170.9,37.4z
		 M176.4,40.3c1.2-0.8,1.6-1.7,0.8-3c-0.8-1.3-1.7-1.4-3-0.6l-1.5,1l2.2,3.6L176.4,40.3z"/>
	<path fill="#353535" d="M183.8,45.8l-0.2-1c0.2,0,0.6-0.1,0.9-0.3c0.6-0.3,0.7-0.8,0.6-1.6l-0.1-0.7l-5.8-6.1l1.1-0.6l2.9,3.2
		c0.6,0.7,1.1,1.2,1.6,1.9l0,0c-0.2-0.9-0.3-1.6-0.5-2.5l-0.7-4.2l1-0.5l1.5,9.1c0.2,1.5,0.1,2.4-1.1,3
		C184.5,45.7,184,45.8,183.8,45.8z"/>
	<path fill="#353535" d="M188.8,38.3l-1.9-4.8l-1.1,0.4l-0.4-0.9l1.1-0.4l-1.1-2.6l1.1-0.5l1.1,2.6l1.6-0.7l0.4,0.9l-1.6,0.7
		l1.8,4.5c0.3,0.8,0.6,1,1.4,0.7c0.2-0.1,0.5-0.2,0.6-0.4l0.4,0.9c-0.1,0.1-0.5,0.3-0.8,0.5C190.1,39.8,189.4,39.6,188.8,38.3z"/>
	<path fill="#353535" d="M189.8,27.9l1.2-0.4l1.3,4.1c0.3-0.7,1-1.6,2-2c1.2-0.4,2.1,0.1,2.5,1.5l1.8,5.6l-1.1,0.4l-1.7-5.4
		c-0.3-0.9-0.7-1.2-1.5-1c-0.7,0.2-1.3,1-1.7,1.7l1.8,5.6l-1.2,0.4L189.8,27.9z"/>
	<path fill="#353535" d="M198.7,32.6c-0.6-2.7,0.5-4.3,2.2-4.7c1.7-0.4,3.3,0.7,3.9,3.4c0.6,2.7-0.5,4.3-2.2,4.7
		C200.9,36.4,199.3,35.3,198.7,32.6z M203.6,31.5c-0.4-1.7-1.2-2.9-2.5-2.6c-1.2,0.3-1.6,1.6-1.2,3.4c0.4,1.7,1.2,2.9,2.5,2.6
		C203.6,34.7,204,33.4,203.6,31.5z"/>
	<path fill="#353535" d="M205.7,27.1l1.2-0.1l0.1,1.1c0.4-0.6,1.3-1.4,2.3-1.6c1.3-0.2,2,0.5,2.2,2l0.7,5.8l-1.2,0.1l-0.7-5.6
		c-0.1-0.9-0.5-1.3-1.3-1.2c-0.8,0.1-1.5,0.8-2,1.4l0.7,5.8l-1.2,0.1L205.7,27.1z"/>
</g>
<g>
	<path fill="#353535" d="M157.6,169.4l-2.1-2.3c-1.5-1.6-1.5-3.2,0-4.6c1.3-1.2,2.6-1.1,3.6-0.5l2.1-5l0.9,0.9l-2,4.8l1.3,1.4
		l3.5-3.2l0.8,0.9L157.6,169.4z M159.5,163.6c-1-1.1-1.9-1.3-3.1-0.2c-1.1,1-1,1.9,0,3l1.2,1.3l3-2.8L159.5,163.6z"/>
	<path fill="#353535" d="M159,157.4l-4.7,3.5l-0.7-1l4.5-3.4c0.7-0.6,0.9-1.1,0.4-1.8c-0.5-0.6-1.2-0.9-2.2-1l-4.7,3.5l-0.7-1
		l6.3-4.8l0.7,1l-0.9,0.7c0.9,0.1,1.9,0.4,2.5,1.2C160.3,155.5,160.1,156.5,159,157.4z"/>
	<path fill="#353535" d="M155,149.9l0.8-0.5l0.6,1l-9.5,5.8l-0.6-1l3.6-2.2c-0.8-0.1-1.6-0.4-2.1-1.2c-0.8-1.3-0.3-3,2.1-4.4
		c2.4-1.5,4.1-1.1,4.9,0.2C155.3,148.4,155.3,149.1,155,149.9z M150.5,148.4c-1.8,1.1-2.2,2.2-1.7,3.1c0.4,0.7,1.1,0.9,1.9,1
		l3.4-2.1c0.3-0.8,0.3-1.6-0.1-2.2C153.5,147.4,152.4,147.3,150.5,148.4z"/>
	<path fill="#353535" d="M155.7,143.9l-1,0.2c0-0.2-0.1-0.6-0.3-0.9c-0.3-0.6-0.8-0.7-1.6-0.6l-0.7,0.1l-6.1,5.8l-0.6-1.1l3.2-2.9
		c0.7-0.6,1.2-1.1,1.9-1.6l0,0c-0.9,0.2-1.6,0.3-2.5,0.5l-4.1,0.7l-0.5-1l9.1-1.4c1.5-0.2,2.4-0.1,3,1.1
		C155.6,143.2,155.7,143.6,155.7,143.9z"/>
</g>
</svg>
