<?xml version="1.0" encoding="utf-8"?>
<!-- Generator: Adobe Illustrator 17.1.0, SVG Export Plug-In . SVG Version: 6.00 Build 0)  -->
<!DOCTYPE svg PUBLIC "-//W3C//DTD SVG 1.1//EN" "http://www.w3.org/Graphics/SVG/1.1/DTD/svg11.dtd">
<svg version="1.1" id="Layer_1" xmlns="http://www.w3.org/2000/svg" xmlns:xlink="http://www.w3.org/1999/xlink" x="0px" y="0px"
	 viewBox="0 0 791.2 113" enable-background="new 0 0 791.2 113" xml:space="preserve">
<g>
	<path fill="#353535" d="M5,2.4V5h5v2.2H5v4.1H2.2V0.1h8.3v2.2H5z"/>
	<path fill="#353535" d="M16.3,2.4v2.2h5.3v2.2h-5.3v2.3h6.1v2.2h-8.9V0.1h8.8v2.2H16.3z"/>
	<path fill="#353535" d="M28.4,9.3l-0.8,2.1h-2.9l4.8-11.2h2.9l4.7,11.2h-3l-0.8-2.1H28.4z M30.8,3l-1.6,4.1h3.2L30.8,3z"/>
	<path fill="#353535" d="M43.7,2.4v8.9h-2.8V2.4h-3.3V0.1h9.6v2.3H43.7z"/>
	<path fill="#353535" d="M60,6.6c0,3-2,4.8-5.1,4.8c-3.2,0-5.2-1.9-5.2-4.8V0.1h2.8v6.5c0,1.5,1,2.4,2.3,2.4c1.3,0,2.3-0.9,2.3-2.4
		V0.1H60V6.6z"/>
	<path fill="#353535" d="M68.7,8.2L68.7,8.2h-2.2v3.2h-2.8V0.1h5c3,0,4.7,1.4,4.7,3.9c0,1.7-0.7,2.9-2,3.6l2.4,3.7h-3.2L68.7,8.2z
		 M68.6,5.9c1.2,0,2-0.6,2-1.8c0-1.2-0.7-1.8-2-1.8h-2.2v3.6H68.6z"/>
	<path fill="#353535" d="M79.7,2.4v2.2H85v2.2h-5.3v2.3h6.1v2.2h-8.9V0.1h8.8v2.2H79.7z"/>
	<path fill="#353535" d="M94,0.1c3.5,0,6,2.3,6,5.6c0,3.3-2.5,5.6-6.1,5.6h-4.7V0.1H94z M92.1,9.1h2c1.7,0,3-1.3,3-3.3
		c0-2-1.3-3.3-3.1-3.3h-1.9V9.1z"/>
	<path fill="#353535" d="M113.3,0.1c2.9,0,4.5,1.4,4.5,3.9c0,2.6-1.6,4.1-4.5,4.1h-2v3.2h-2.8V0.1H113.3z M111.2,5.9h1.9
		c1.2,0,2-0.6,2-1.8c0-1.2-0.7-1.8-2-1.8h-1.9V5.9z"/>
	<path fill="#353535" d="M126,8.2L126,8.2h-2.2v3.2h-2.8V0.1h5c3,0,4.7,1.4,4.7,3.9c0,1.7-0.7,2.9-2,3.6l2.4,3.7h-3.2L126,8.2z
		 M125.9,5.9c1.2,0,2-0.6,2-1.8c0-1.2-0.7-1.8-2-1.8h-2.2v3.6H125.9z"/>
	<path fill="#353535" d="M145.4,5.7c0,3.3-2.6,5.7-6.1,5.7c-3.5,0-6.1-2.5-6.1-5.7c0-3.3,2.6-5.7,6.1-5.7
		C142.8,0,145.4,2.5,145.4,5.7z M136.2,5.7c0,1.9,1.5,3.3,3.2,3.3c1.7,0,3.1-1.5,3.1-3.3c0-1.9-1.4-3.3-3.1-3.3
		C137.7,2.4,136.2,3.8,136.2,5.7z"/>
	<path fill="#353535" d="M153.4,0.1c3.5,0,6,2.3,6,5.6c0,3.3-2.5,5.6-6.1,5.6h-4.7V0.1H153.4z M151.4,9.1h2c1.7,0,3-1.3,3-3.3
		c0-2-1.3-3.3-3.1-3.3h-1.9V9.1z"/>
	<path fill="#353535" d="M172.5,6.6c0,3-2,4.8-5.1,4.8c-3.2,0-5.2-1.9-5.2-4.8V0.1h2.8v6.5c0,1.5,1,2.4,2.3,2.4
		c1.3,0,2.3-0.9,2.3-2.4V0.1h2.8V6.6z"/>
	<path fill="#353535" d="M185.9,1.9l-1.6,2c-0.7-0.9-1.8-1.5-2.8-1.5c-1.8,0-3.1,1.4-3.1,3.2c0,1.9,1.3,3.3,3.1,3.3
		c0.9,0,2-0.5,2.8-1.3l1.7,1.8c-1.2,1.2-3,2-4.6,2c-3.4,0-5.9-2.5-5.9-5.8c0-3.2,2.6-5.7,6-5.7C183.1,0,184.8,0.8,185.9,1.9z"/>
	<path fill="#353535" d="M194,2.4v8.9h-2.8V2.4h-3.3V0.1h9.6v2.3H194z"/>
	<path fill="#353535" d="M208.9,1.2l-1.1,2.2c-1.2-0.7-2.7-1.2-3.6-1.2c-0.7,0-1.2,0.3-1.2,0.8c0,1.9,5.9,0.8,5.9,4.9
		c0,2.2-2,3.4-4.5,3.4c-1.9,0-3.8-0.7-5.1-1.8l1.1-2.2c1.2,1,2.9,1.7,4,1.7c0.9,0,1.5-0.3,1.5-1c0-2-5.9-0.8-5.9-4.8
		c0-2.1,1.8-3.4,4.5-3.4C206.1,0,207.8,0.5,208.9,1.2z"/>
</g>
<g>
	<path fill="#353535" d="M78.9,54.2v2.2c0,0.2-0.2,0.4-0.4,0.4h-1.9c-0.2,0-0.4-0.2-0.4-0.4v-2.1c0-2.2-1.1-3.1-2.7-3.1
		c-1.5,0-2.6,0.8-2.6,3.1V67c0,2.2,1.1,3.1,2.6,3.1c1.5,0,2.7-0.8,2.7-3.1v-2.2c0-0.2,0.2-0.4,0.4-0.4h1.9c0.2,0,0.4,0.2,0.4,0.4
		v2.2c0,3.3-2.1,5.6-5.3,5.6c-3.2,0-5.3-2.3-5.3-5.6V54.2c0-3.4,1.8-5.6,5.3-5.6C77.1,48.6,78.9,50.8,78.9,54.2z"/>
	<path fill="#353535" d="M92.9,71.9c0,0.2-0.2,0.4-0.4,0.4h-2c-0.2,0-0.4-0.1-0.4-0.4l-0.7-4.5h-5.3l-0.7,4.5
		c-0.1,0.3-0.2,0.4-0.4,0.4h-2c-0.2,0-0.4-0.2-0.4-0.4l4.2-22.5c0.1-0.2,0.2-0.4,0.4-0.4h3c0.2,0,0.3,0.2,0.4,0.4L92.9,71.9z
		 M89,64.9l-2.2-13l-2.2,13H89z"/>
	<path fill="#353535" d="M103.2,49.4v1.8c0,0.2-0.2,0.4-0.4,0.4h-3.4v20.3c0,0.2-0.2,0.4-0.4,0.4H97c-0.2,0-0.4-0.2-0.4-0.4V51.5
		h-3.4c-0.2,0-0.4-0.2-0.4-0.4v-1.8c0-0.2,0.2-0.4,0.4-0.4h9.5C103,49,103.2,49.1,103.2,49.4z"/>
	<path fill="#353535" d="M115.3,71.9c0,0.2-0.2,0.4-0.4,0.4h-2c-0.2,0-0.4-0.1-0.4-0.4l-0.7-4.5h-5.3l-0.7,4.5
		c-0.1,0.3-0.2,0.4-0.4,0.4h-2c-0.2,0-0.4-0.2-0.4-0.4l4.2-22.5c0.1-0.2,0.2-0.4,0.4-0.4h3c0.2,0,0.3,0.2,0.4,0.4L115.3,71.9z
		 M111.4,64.9l-2.2-13l-2.2,13H111.4z"/>
	<path fill="#353535" d="M120.6,69.7h6.7c0.2,0,0.4,0.1,0.4,0.4v1.9c0,0.2-0.1,0.4-0.4,0.4h-9c-0.2,0-0.4-0.2-0.4-0.4V49.4
		c0-0.2,0.2-0.4,0.4-0.4h1.9c0.2,0,0.4,0.2,0.4,0.4V69.7z"/>
	<path fill="#353535" d="M138.4,49.4c0,0-5,13-5,13v9.6c0,0.2-0.2,0.4-0.4,0.4h-1.8c-0.2,0-0.4-0.2-0.4-0.4v-9.6c0,0-4.9-13-4.9-13
		c-0.1-0.2,0.1-0.4,0.4-0.4c0.6,0,1.7,0,1.7,0c0.3,0,0.4,0.1,0.5,0.4l3.6,9.9l3.6-9.9c0.1-0.3,0.2-0.4,0.5-0.4c0,0,0,0,1.8,0
		C138.4,49,138.5,49.1,138.4,49.4z"/>
	<path fill="#353535" d="M149.9,65.2c0,0.6,0,2.2,0,2.2c0,3.2-2.3,5.3-5.3,5.3c-3.2,0-5.5-2.3-5.5-5.8v-2.1c0-0.2,0.1-0.4,0.4-0.4
		h1.9c0.2,0,0.4,0.2,0.4,0.4v2.6c0,2.1,1.3,2.9,2.9,2.9c1.9,0,2.6-1.3,2.6-2.9v-1.9c0-1.4-0.5-2.1-2.3-3.7l-2.8-2.6
		c-1.5-1.4-2.7-3.5-2.7-5.1c0-3.3,1.9-5.5,5.2-5.5c3.2,0,5.3,2.2,5.3,5.6v1.9c0,0.2-0.1,0.3-0.3,0.3h-2c-0.1,0-0.3-0.1-0.3-0.3v-2.2
		c0-2.2-1.1-3-2.6-3c-1.5,0-2.4,1-2.4,3c0,0.5,0.1,1.7,2.1,3.5c0.6,0.6,3.5,3.3,3.5,3.3C149.7,62.5,149.9,64.3,149.9,65.2z"/>
	<path fill="#353535" d="M161.9,49.4v1.8c0,0.2-0.2,0.4-0.4,0.4h-3.4v20.3c0,0.2-0.2,0.4-0.4,0.4h-1.9c-0.2,0-0.4-0.2-0.4-0.4V51.5
		H152c-0.2,0-0.4-0.2-0.4-0.4v-1.8c0-0.2,0.2-0.4,0.4-0.4h9.5C161.7,49,161.9,49.1,161.9,49.4z"/>
</g>
<g>
	<path fill="#353535" d="M251.3,51.6V59h4.6c0.2,0,0.4,0.2,0.4,0.4v1.7c0,0.2-0.2,0.4-0.4,0.4h-4.6v10.3c0,0.2-0.2,0.4-0.4,0.4h-1.9
		c-0.2,0-0.4-0.2-0.4-0.4V49.4c0-0.2,0.2-0.4,0.4-0.4h9c0.2,0,0.4,0.2,0.4,0.4v1.8c0,0.2-0.2,0.4-0.4,0.4H251.3z"/>
	<path fill="#353535" d="M263.7,51.6v7.2h4.6c0.2,0,0.4,0.2,0.4,0.4v1.7c0,0.2-0.2,0.4-0.4,0.4h-4.6v8.4h6.6c0.2,0,0.4,0.2,0.4,0.4
		v1.8c0,0.2-0.2,0.4-0.4,0.4h-9c-0.2,0-0.4-0.2-0.4-0.4V49.4c0-0.2,0.2-0.4,0.4-0.4h9c0.2,0,0.4,0.2,0.4,0.4v1.8
		c0,0.2-0.2,0.4-0.4,0.4H263.7z"/>
	<path fill="#353535" d="M282.8,49.4v1.8c0,0.2-0.2,0.4-0.4,0.4H279v20.3c0,0.2-0.2,0.4-0.4,0.4h-1.9c-0.2,0-0.4-0.2-0.4-0.4V51.5
		h-3.4c-0.2,0-0.4-0.2-0.4-0.4v-1.8c0-0.2,0.2-0.4,0.4-0.4h9.5C282.6,49,282.8,49.1,282.8,49.4z"/>
	<path fill="#353535" d="M295.6,54.2v2.2c0,0.2-0.2,0.4-0.4,0.4h-1.9c-0.2,0-0.4-0.2-0.4-0.4v-2.1c0-2.2-1.1-3.1-2.7-3.1
		c-1.5,0-2.6,0.8-2.6,3.1V67c0,2.2,1.1,3.1,2.6,3.1c1.5,0,2.7-0.8,2.7-3.1v-2.2c0-0.2,0.2-0.4,0.4-0.4h1.9c0.2,0,0.4,0.2,0.4,0.4
		v2.2c0,3.3-2.1,5.6-5.3,5.6c-3.2,0-5.3-2.3-5.3-5.6V54.2c0-3.4,1.8-5.6,5.3-5.6C293.8,48.6,295.6,50.8,295.6,54.2z"/>
	<path fill="#353535" d="M309.3,49.4v22.5c0,0.2-0.2,0.4-0.4,0.4h-2c-0.2,0-0.4-0.2-0.4-0.4V61.6h-5.3v10.3c0,0.2-0.1,0.4-0.4,0.4
		h-2c-0.2,0-0.4-0.2-0.4-0.4V49.4c0-0.2,0.2-0.4,0.4-0.4h2c0.2,0,0.4,0.2,0.4,0.4V59h5.3v-9.7c0-0.2,0.1-0.4,0.4-0.4h2
		C309.1,49,309.3,49.1,309.3,49.4z"/>
</g>
<g>
	<circle fill="#FCD9BE" cx="224.7" cy="60.5" r="8.3"/>
	<circle fill="#353535" cx="224.7" cy="60.5" r="3.3"/>
	<circle fill="#353535" cx="224.7" cy="60.5" r="3.3"/>
</g>
<g>
	<path fill="#353535" d="M619.5,49.4l-3.3,22.5c0,0.2-0.2,0.4-0.4,0.4h-2.6h0c-0.2,0-0.4-0.2-0.4-0.4l-2.6-17.4l-2.6,17.4
		c0,0.2-0.2,0.4-0.4,0.4h0h-2.6c-0.2,0-0.4-0.2-0.4-0.4L601,49.4c0-0.2,0.2-0.4,0.4-0.4h1.9c0.2,0,0.3,0.1,0.4,0.4v0l2.4,18.7
		l3-18.7c0.1-0.3,0.2-0.4,0.4-0.4h1.7c0.2,0,0.3,0.1,0.4,0.4l3,18.7l2.4-18.7v0c0.1-0.3,0.2-0.4,0.4-0.4h1.9
		C619.4,49,619.5,49.1,619.5,49.4z"/>
	<path fill="#353535" d="M626.5,51.5v18.1h1.8c0.2,0,0.4,0.2,0.4,0.4v1.9c0,0.2-0.2,0.4-0.4,0.4h-6.1c-0.2,0-0.4-0.1-0.4-0.4V70
		c0-0.2,0.2-0.4,0.4-0.4h1.8V51.5h-1.8c-0.2,0-0.4-0.1-0.4-0.4v-1.9c0-0.2,0.2-0.4,0.4-0.4h6.1c0.2,0,0.4,0.1,0.4,0.4v1.9
		c0,0.2-0.2,0.4-0.4,0.4H626.5z"/>
	<path fill="#353535" d="M642,54.2v2.2c0,0.2-0.2,0.4-0.4,0.4h-1.9c-0.2,0-0.4-0.2-0.4-0.4v-2.1c0-2.2-1.1-3.1-2.7-3.1
		c-1.5,0-2.6,0.8-2.6,3.1V67c0,2.2,1.1,3.1,2.6,3.1c1.5,0,2.7-0.8,2.7-3.1v-2.2c0-0.2,0.2-0.4,0.4-0.4h1.9c0.2,0,0.4,0.2,0.4,0.4
		v2.2c0,3.3-2.1,5.6-5.3,5.6c-3.2,0-5.3-2.3-5.3-5.6V54.2c0-3.4,1.8-5.6,5.3-5.6C640.2,48.6,642,50.8,642,54.2z"/>
	<path fill="#353535" d="M656.2,72.3h-1.7c-0.3,0-0.5-0.2-0.6-0.4L650,60.8l-2.3,5.1v6c0,0.2-0.2,0.4-0.4,0.4h-1.9
		c-0.2,0-0.4-0.2-0.4-0.4V49.4c0-0.2,0.2-0.4,0.4-0.4h1.9c0.2,0,0.4,0.3,0.4,0.4v11.4l5-11.4c0.1-0.2,0.2-0.5,0.5-0.5h2.1
		c0.3,0,0.4,0.1,0.3,0.5l-4,8.7l4.9,13.6C656.6,72,656.5,72.2,656.2,72.3z"/>
	<path fill="#353535" d="M661.6,51.6v7.2h4.6c0.2,0,0.4,0.2,0.4,0.4v1.7c0,0.2-0.2,0.4-0.4,0.4h-4.6v8.4h6.6c0.2,0,0.4,0.2,0.4,0.4
		v1.8c0,0.2-0.2,0.4-0.4,0.4h-9c-0.2,0-0.4-0.2-0.4-0.4V49.4c0-0.2,0.2-0.4,0.4-0.4h9c0.2,0,0.4,0.2,0.4,0.4v1.8
		c0,0.2-0.2,0.4-0.4,0.4H661.6z"/>
	<path fill="#353535" d="M682.2,66.5c0,3.5-1.8,5.8-5.3,5.8h-5c-0.2,0-0.4-0.2-0.4-0.4V49.4c0-0.2,0.2-0.4,0.4-0.4h5
		c3.8,0,5.4,2.7,5.4,6.3V66.5z M676.9,69.7c1.8,0,2.5-1.2,2.5-2.6V54.6c0-1.5-0.5-3-2.5-3h-2.8v18.1H676.9z"/>
	<path fill="#353535" d="M695.9,65.2c0,0.6,0,2.2,0,2.2c0,3.2-2.3,5.3-5.3,5.3c-3.2,0-5.5-2.3-5.5-5.8v-2.1c0-0.2,0.1-0.4,0.4-0.4
		h1.9c0.2,0,0.4,0.2,0.4,0.4v2.6c0,2.1,1.3,2.9,2.9,2.9c1.9,0,2.6-1.3,2.6-2.9v-1.9c0-1.4-0.5-2.1-2.3-3.7l-2.8-2.6
		c-1.5-1.4-2.7-3.5-2.7-5.1c0-3.3,1.9-5.5,5.2-5.5c3.2,0,5.3,2.2,5.3,5.6v1.9c0,0.2-0.1,0.3-0.3,0.3h-2c-0.1,0-0.3-0.1-0.3-0.3v-2.2
		c0-2.2-1.1-3-2.6-3c-1.5,0-2.4,1-2.4,3c0,0.5,0.1,1.7,2.1,3.5c0.6,0.6,3.5,3.3,3.5,3.3C695.8,62.5,695.9,64.3,695.9,65.2z"/>
	<path fill="#353535" d="M714.1,49.4v22.5c0,0.2-0.2,0.4-0.4,0.4h-1.7c-0.2,0-0.4-0.2-0.4-0.4V55.1L707.7,72c0,0.1-0.2,0.3-0.4,0.3
		h-1.8c-0.1,0-0.3-0.1-0.4-0.3c0,0-3.8-16.2-3.9-16.8v16.7c0,0.2-0.2,0.4-0.4,0.4h0h-1.7c-0.2,0-0.4-0.2-0.4-0.4V49.4
		c0-0.2,0.2-0.4,0.4-0.4h2.4c0.2,0,0.4,0.1,0.4,0.4l4.4,18.8l4.4-18.8c0-0.2,0.3-0.4,0.4-0.4h2.4C714,49,714.1,49.1,714.1,49.4z"/>
	<path fill="#353535" d="M728.9,71.9c0,0.2-0.2,0.4-0.4,0.4h-2c-0.2,0-0.4-0.1-0.4-0.4l-0.7-4.5h-5.3l-0.7,4.5
		c-0.1,0.3-0.2,0.4-0.4,0.4h-2c-0.2,0-0.4-0.2-0.4-0.4l4.2-22.5c0.1-0.2,0.2-0.4,0.4-0.4h3c0.2,0,0.3,0.2,0.4,0.4L728.9,71.9z
		 M725,64.9l-2.2-13l-2.2,13H725z"/>
	<path fill="#353535" d="M743.1,70.3V72c0,0.2-0.1,0.3-0.4,0.3c-3.1,0-3.5-2.4-3.5-6.2c0-3-0.7-3.9-3.4-3.9h-1.7v9.8
		c0,0.2-0.2,0.4-0.4,0.4h-1.8c-0.2,0-0.4-0.2-0.4-0.4V49.4c0-0.2,0.2-0.4,0.4-0.4h3.9c3.9,0,6.4,2.1,6.4,6.7c0,2.8-1,4.6-2.8,5.1
		c2.3,0.5,2.4,2.6,2.4,4.4c0,0.2,0,2.1,0,2.3c0,2.3,0.6,2.3,1,2.4C742.9,69.9,743.1,70,743.1,70.3z M734.2,59.5h1.8
		c3,0,3.6-1.8,3.6-4c0-1.8-0.5-4-3.6-4h-1.8V59.5z"/>
	<path fill="#353535" d="M754.8,49.4v1.8c0,0.2-0.2,0.4-0.4,0.4H751v20.3c0,0.2-0.2,0.4-0.4,0.4h-1.9c-0.2,0-0.4-0.2-0.4-0.4V51.5
		h-3.4c-0.2,0-0.4-0.2-0.4-0.4v-1.8c0-0.2,0.2-0.4,0.4-0.4h9.5C754.6,49,754.8,49.1,754.8,49.4z"/>
</g>
<circle fill="#5D5D5D" cx="576.6" cy="60.5" r="8.3"/>
<circle fill="#353535" cx="576.6" cy="60.5" r="3.3"/>
<circle fill="#353535" cx="576.6" cy="60.5" r="3.3"/>
<g>
	<path fill="#353535" d="M416.6,49.4v22.5c0,0.2-0.2,0.4-0.4,0.4h-1.7c-0.2,0-0.4-0.2-0.4-0.4V55.1L410.2,72c0,0.1-0.2,0.3-0.4,0.3
		H408c-0.1,0-0.3-0.1-0.4-0.3c0,0-3.8-16.2-3.9-16.8v16.7c0,0.2-0.2,0.4-0.4,0.4h0h-1.7c-0.2,0-0.4-0.2-0.4-0.4V49.4
		c0-0.2,0.2-0.4,0.4-0.4h2.4c0.2,0,0.4,0.1,0.4,0.4l4.4,18.8l4.4-18.8c0-0.2,0.3-0.4,0.4-0.4h2.4C416.4,49,416.6,49.1,416.6,49.4z"
		/>
	<path fill="#353535" d="M431.3,71.9c0,0.2-0.2,0.4-0.4,0.4h-2c-0.2,0-0.4-0.1-0.4-0.4l-0.7-4.5h-5.3l-0.7,4.5
		c-0.1,0.3-0.2,0.4-0.4,0.4h-2c-0.2,0-0.4-0.2-0.4-0.4l4.2-22.5c0.1-0.2,0.2-0.4,0.4-0.4h3c0.2,0,0.3,0.2,0.4,0.4L431.3,71.9z
		 M427.4,64.9l-2.2-13l-2.2,13H427.4z"/>
	<path fill="#353535" d="M441.6,49.4v1.8c0,0.2-0.2,0.4-0.4,0.4h-3.4v20.3c0,0.2-0.2,0.4-0.4,0.4h-1.9c-0.2,0-0.4-0.2-0.4-0.4V51.5
		h-3.4c-0.2,0-0.4-0.2-0.4-0.4v-1.8c0-0.2,0.2-0.4,0.4-0.4h9.5C441.4,49,441.6,49.1,441.6,49.4z"/>
	<path fill="#353535" d="M454.4,54.2v2.2c0,0.2-0.2,0.4-0.4,0.4h-1.9c-0.2,0-0.4-0.2-0.4-0.4v-2.1c0-2.2-1.1-3.1-2.7-3.1
		c-1.5,0-2.6,0.8-2.6,3.1V67c0,2.2,1.1,3.1,2.6,3.1c1.5,0,2.7-0.8,2.7-3.1v-2.2c0-0.2,0.2-0.4,0.4-0.4h1.9c0.2,0,0.4,0.2,0.4,0.4
		v2.2c0,3.3-2.1,5.6-5.3,5.6c-3.2,0-5.3-2.3-5.3-5.6V54.2c0-3.4,1.8-5.6,5.3-5.6C452.5,48.6,454.4,50.8,454.4,54.2z"/>
	<path fill="#353535" d="M468.1,49.4v22.5c0,0.2-0.2,0.4-0.4,0.4h-2c-0.2,0-0.4-0.2-0.4-0.4V61.6h-5.3v10.3c0,0.2-0.1,0.4-0.4,0.4
		h-2c-0.2,0-0.4-0.2-0.4-0.4V49.4c0-0.2,0.2-0.4,0.4-0.4h2c0.2,0,0.4,0.2,0.4,0.4V59h5.3v-9.7c0-0.2,0.1-0.4,0.4-0.4h2
		C467.9,49,468.1,49.1,468.1,49.4z"/>
	<path fill="#353535" d="M482,65.2c0,0.6,0,2.2,0,2.2c0,3.2-2.3,5.3-5.3,5.3c-3.2,0-5.5-2.3-5.5-5.8v-2.1c0-0.2,0.1-0.4,0.4-0.4h1.9
		c0.2,0,0.4,0.2,0.4,0.4v2.6c0,2.1,1.3,2.9,2.9,2.9c1.9,0,2.6-1.3,2.6-2.9v-1.9c0-1.4-0.5-2.1-2.3-3.7l-2.8-2.6
		c-1.5-1.4-2.7-3.5-2.7-5.1c0-3.3,1.9-5.5,5.2-5.5c3.2,0,5.3,2.2,5.3,5.6v1.9c0,0.2-0.1,0.3-0.3,0.3h-2c-0.1,0-0.3-0.1-0.3-0.3v-2.2
		c0-2.2-1.1-3-2.6-3c-1.5,0-2.4,1-2.4,3c0,0.5,0.1,1.7,2.1,3.5c0.6,0.6,3.5,3.3,3.5,3.3C481.8,62.5,482,64.3,482,65.2z"/>
	<path fill="#353535" d="M494,49.4v1.8c0,0.2-0.2,0.4-0.4,0.4h-3.4v20.3c0,0.2-0.2,0.4-0.4,0.4h-1.9c-0.2,0-0.4-0.2-0.4-0.4V51.5
		H484c-0.2,0-0.4-0.2-0.4-0.4v-1.8c0-0.2,0.2-0.4,0.4-0.4h9.5C493.8,49,494,49.1,494,49.4z"/>
	<path fill="#353535" d="M500.7,51.5v18.1h1.8c0.2,0,0.4,0.2,0.4,0.4v1.9c0,0.2-0.2,0.4-0.4,0.4h-6.1c-0.2,0-0.4-0.1-0.4-0.4V70
		c0-0.2,0.2-0.4,0.4-0.4h1.8V51.5h-1.8c-0.2,0-0.4-0.1-0.4-0.4v-1.9c0-0.2,0.2-0.4,0.4-0.4h6.1c0.2,0,0.4,0.1,0.4,0.4v1.9
		c0,0.2-0.2,0.4-0.4,0.4H500.7z"/>
	<path fill="#353535" d="M518,73.5v1.7c0,0.2-0.3,0.4-0.5,0.4c-2.2,0-4-1-4.7-3.3c-0.6,0.4-1.3,0.4-2.2,0.4c-2.8,0-5-2.3-5-5.6V54.2
		c0-3.4,1.8-5.6,5.3-5.6c3.5,0,5.3,2.2,5.3,5.6v12.9c0,1.4-0.4,3-1.1,3.7c0.2,2.1,1.4,2.3,2.4,2.3C517.7,73.1,518,73.3,518,73.5z
		 M508.2,54.2v6.7c1.4,0,4.3-0.4,5.2,1.8v-8.5c0-2.2-1.1-3.1-2.6-3.1C509.3,51.2,508.2,52,508.2,54.2z M510.8,70.1
		c0.6,0,1.7-0.1,2.1-0.8c0-1.8,0-2.2,0-2.2c0-3.4-2.1-3.4-4.7-3.4V67C508.2,69.3,509.3,70.1,510.8,70.1z"/>
</g>
<g>
	<circle fill="#C68F61" cx="376.2" cy="60.5" r="8.3"/>
	<circle fill="#353535" cx="376.2" cy="60.5" r="3.3"/>
	<circle fill="#353535" cx="376.2" cy="60.5" r="3.3"/>
</g>
<g>
	<circle fill="#FFFFFF" cx="41.3" cy="60.5" r="8.3"/>
	<circle fill="#353535" cx="41.3" cy="60.5" r="3.3"/>
</g>
<g>
	<g>
		<path fill="#353535" d="M786.7,25.9c0.3,0,0.5,0.3,0.5,0.5v71.8c0,0.3-0.3,0.5-0.5,0.5H411.6c-3.5,0-8.1,1.9-10.6,4.4l-5.6,5.6
			c-0.1,0.1-0.3,0.2-0.4,0.2c-0.1,0-0.3,0-0.4-0.2l-5.6-5.6c-2.5-2.5-7.1-4.4-10.6-4.4H4.5c-0.3,0-0.5-0.3-0.5-0.5V26.4
			c0-0.3,0.3-0.5,0.5-0.5H786.7 M786.7,21.9H4.5c-2.5,0-4.5,2-4.5,4.5v71.8c0,2.5,2,4.5,4.5,4.5h373.9c2.5,0,6,1.4,7.8,3.2l5.6,5.6
			c0.9,0.9,2.1,1.3,3.2,1.3s2.3-0.4,3.2-1.3l5.6-5.6c1.8-1.8,5.3-3.2,7.8-3.2h375.1c2.5,0,4.5-2,4.5-4.5V26.4
			C791.2,23.9,789.2,21.9,786.7,21.9L786.7,21.9z"/>
	</g>
</g>
</svg>
