<?xml version="1.0" encoding="utf-8"?>
<!-- Generator: Adobe Illustrator 17.1.0, SVG Export Plug-In . SVG Version: 6.00 Build 0)  -->
<!DOCTYPE svg PUBLIC "-//W3C//DTD SVG 1.1//EN" "http://www.w3.org/Graphics/SVG/1.1/DTD/svg11.dtd">
<svg version="1.1" id="Layer_1" xmlns="http://www.w3.org/2000/svg" xmlns:xlink="http://www.w3.org/1999/xlink" x="0px" y="0px"
	 viewBox="0 0 791.2 115.2" enable-background="new 0 0 791.2 115.2" xml:space="preserve">
<rect x="1" y="1.7" fill="none" width="247.3" height="22.9"/>
<text transform="matrix(1 0 0 1 1.0479 13.608)" fill="#353535" font-family="'Montserrat-Bold'" font-size="16" letter-spacing="1">FEATURED PRODUCTS</text>
<rect x="66.6" y="50.7" fill="none" width="98.6" height="39"/>
<text transform="matrix(1 0 0 1 66.6489 74.556)" fill="#353535" font-family="'Interborough'" font-size="36">CATALYS</text>
<rect x="246.8" y="50.7" fill="none" width="64.6" height="41.7"/>
<text transform="matrix(1 0 0 1 246.7505 74.556)" fill="#353535" font-family="'Interborough'" font-size="36">FETCH</text>
<g>
	<circle fill="#FCD9BE" cx="224.7" cy="62.8" r="8.3"/>
	<circle fill="#353535" cx="224.7" cy="62.8" r="3.3"/>
	<circle fill="#353535" cx="224.7" cy="62.8" r="3.3"/>
</g>
<rect x="600" y="50.7" fill="none" width="162.6" height="41.7"/>
<text transform="matrix(1 0 0 1 599.9541 74.556)" fill="#353535" font-family="'Interborough'" font-size="36">WICKEDSMART</text>
<circle fill="#5D5D5D" cx="576.6" cy="62.8" r="8.3"/>
<circle fill="#353535" cx="576.6" cy="62.8" r="3.3"/>
<circle fill="#353535" cx="576.6" cy="62.8" r="3.3"/>
<rect x="399.5" y="50.7" fill="none" width="120" height="38.3"/>
<text transform="matrix(1 0 0 1 399.519 74.556)" fill="#353535" font-family="'Interborough'" font-size="36">MATCHSTI</text>
<g>
	<circle fill="#C68F61" cx="376.2" cy="62.8" r="8.3"/>
	<circle fill="#353535" cx="376.2" cy="62.8" r="3.3"/>
	<circle fill="#353535" cx="376.2" cy="62.8" r="3.3"/>
</g>
<g>
	<circle fill="#FFFFFF" cx="41.3" cy="62.8" r="8.3"/>
	<circle fill="#353535" cx="41.3" cy="62.8" r="3.3"/>
</g>
<g>
	<g>
		<path fill="#353535" d="M786.7,28.2c0.3,0,0.5,0.3,0.5,0.5v71.8c0,0.3-0.3,0.5-0.5,0.5H411.6c-3.5,0-8.1,1.9-10.6,4.4l-5.6,5.6
			c-0.1,0.1-0.3,0.2-0.4,0.2c-0.1,0-0.3,0-0.4-0.2l-5.6-5.6c-2.5-2.5-7.1-4.4-10.6-4.4H4.5c-0.3,0-0.5-0.3-0.5-0.5V28.7
			c0-0.3,0.3-0.5,0.5-0.5H786.7 M786.7,24.2H4.5c-2.5,0-4.5,2-4.5,4.5v71.8c0,2.5,2,4.5,4.5,4.5h373.9c2.5,0,6,1.4,7.8,3.2l5.6,5.6
			c0.9,0.9,2.1,1.3,3.2,1.3c1.2,0,2.3-0.4,3.2-1.3l5.6-5.6c1.8-1.8,5.3-3.2,7.8-3.2h375.1c2.5,0,4.5-2,4.5-4.5V28.7
			C791.2,26.2,789.2,24.2,786.7,24.2L786.7,24.2z"/>
	</g>
</g>
</svg>
