<?xml version="1.0" encoding="utf-8"?>
<!-- Generator: Adobe Illustrator 17.1.0, SVG Export Plug-In . SVG Version: 6.00 Build 0)  -->
<!DOCTYPE svg PUBLIC "-//W3C//DTD SVG 1.1//EN" "http://www.w3.org/Graphics/SVG/1.1/DTD/svg11.dtd">
<svg version="1.1" id="Layer_1" xmlns="http://www.w3.org/2000/svg" xmlns:xlink="http://www.w3.org/1999/xlink" x="0px" y="0px"
	 viewBox="0 0 794.5 212.6" enable-background="new 0 0 794.5 212.6" xml:space="preserve">
<line fill="none" stroke="#353535" stroke-width="4" stroke-linecap="round" stroke-linejoin="round" stroke-miterlimit="10" x1="2" y1="71.5" x2="220" y2="71.5"/>
<g>
	<defs>
		<circle id="SVGID_1_" cx="218.7" cy="108.9" r="97"/>
	</defs>
	<clipPath id="SVGID_2_">
		<use xlink:href="#SVGID_1_"  overflow="visible"/>
	</clipPath>
	<g clip-path="url(#SVGID_2_)">
		<g>
			<g>
				<g>
					<g>
						<path fill="#C68F61" d="M219.7,108.9l-66.5-79.3c19.4-16.3,41.2-24.2,66.5-24.2V108.9z"/>
					</g>
				</g>
				<g>
					<g>
						<path fill="#FFFFFF" d="M219.7,108.9l-102-18c4.4-25,16-45,35.4-61.3L219.7,108.9z"/>
					</g>
				</g>
				<g>
					<g>
						<path fill="#C68F61" d="M219.7,108.9l-89.7,51.8c-12.7-22-16.7-44.7-12.3-69.7L219.7,108.9z"/>
					</g>
				</g>
				<g>
					<g>
						<path fill="#5D5D5D" d="M219.7,108.9l-35.4,97.3c-23.9-8.7-41.6-23.5-54.2-45.5L219.7,108.9z"/>
					</g>
				</g>
				<g>
					<g>
						<path fill="#FCD9BE" d="M219.7,108.9l35.4,97.3c-23.9,8.7-47,8.7-70.8,0L219.7,108.9z"/>
					</g>
				</g>
				<g>
					<g>
						<path fill="#FFFFFF" d="M219.7,108.9l89.7,51.8c-12.7,22-30.4,36.8-54.2,45.5L219.7,108.9z"/>
					</g>
				</g>
				<g>
					<g>
						<path fill="#C68F61" d="M219.7,108.9l102-18c4.4,25,0.4,47.8-12.3,69.7L219.7,108.9z"/>
					</g>
				</g>
				<g>
					<g>
						<path fill="#5D5D5D" d="M219.7,108.9l66.5-79.3c19.4,16.3,31,36.3,35.4,61.3L219.7,108.9z"/>
					</g>
				</g>
				<g>
					<g>
						<path fill="#FCD9BE" d="M219.7,108.9V5.3c25.4,0,47.1,7.9,66.5,24.2L219.7,108.9z"/>
					</g>
				</g>
			</g>
			<g>
				<g>
				</g>
				<g>
				</g>
				<g>
				</g>
				<g>
				</g>
				<g>
				</g>
				<g>
				</g>
				<g>
				</g>
				<g>
				</g>
				<g>
				</g>
			</g>
		</g>
		<g>
			
				<line fill="none" stroke="#353535" stroke-width="4" stroke-linecap="round" stroke-linejoin="round" stroke-miterlimit="10" x1="219" y1="2" x2="219" y2="106.7"/>
			
				<line fill="none" stroke="#353535" stroke-width="4" stroke-linecap="round" stroke-linejoin="round" stroke-miterlimit="10" x1="152.8" y1="28.7" x2="218.5" y2="110.1"/>
			
				<line fill="none" stroke="#353535" stroke-width="4" stroke-linecap="round" stroke-linejoin="round" stroke-miterlimit="10" x1="252.6" y1="199.8" x2="214.8" y2="102.2"/>
		</g>
	</g>
</g>
<rect x="1.1" y="47.8" fill="none" width="118.3" height="22.9"/>
<text transform="matrix(1 0 0 1 1.1007 59.6267)" fill="#353535" font-family="'Montserrat-Bold'" font-size="16" letter-spacing="1">LANGUAGES</text>
<rect x="410.1" y="47.8" fill="none" width="346.8" height="22.9"/>
<text transform="matrix(1 0 0 1 410.1007 59.6267)" fill="#353535" font-family="'Montserrat-Bold'" font-size="16" letter-spacing="1">RESOURCES</text>
<line fill="none" stroke="#353535" stroke-width="4" stroke-linecap="round" stroke-linejoin="round" stroke-miterlimit="10" x1="411" y1="71.5" x2="792.5" y2="71.5"/>
<g>
	<rect x="407.5" y="178.1" fill="none" width="385.2" height="26.5"/>
	<text transform="matrix(1 0 0 1 407.5255 189.2467)" fill="#353535" font-family="'BentonSans-CondensedRegular'" font-size="15">Designers    Developers    Managers    Marketing/Sales    Support </text>
</g>
<circle fill="#DCB38D" cx="218.7" cy="108.9" r="65"/>
<path fill="none" stroke="#353535" stroke-width="4" stroke-linecap="round" stroke-linejoin="round" stroke-miterlimit="10" d="
	M295.2,133.4c-10.4,32.4-40.7,55.9-76.5,55.9c-19.4,0-37.3-6.9-51.2-18.4"/>
<path fill="none" stroke="#353535" stroke-width="4" stroke-linecap="round" stroke-linejoin="round" stroke-miterlimit="10" d="
	M219.7,28.6c24.7,0.3,46.7,11.8,61.3,29.6"/>
<path fill="none" stroke="#353535" stroke-width="4" stroke-linecap="round" stroke-linejoin="round" stroke-miterlimit="10" d="
	M142.3,133.8c-2.5-7.8-3.9-16.2-3.9-24.9c0-24.7,11.2-46.8,28.7-61.5"/>
<g>
	<path fill="#FFFFFF" d="M413.7,134L413.7,134c-3.1,0-5.7,2.6-5.7,5.7v15.5c0,3.1,2.5,5.7,5.7,5.7h0c3.1,0,5.7-2.5,5.7-5.7v-15.5
		C419.3,136.6,416.8,134,413.7,134z"/>
	<path fill="#FCD9BE" d="M430,134L430,134c-3.1,0-5.7,2.6-5.7,5.7v15.5c0,3.1,2.5,5.7,5.7,5.7l0,0c3.1,0,5.7-2.5,5.7-5.7v-15.5
		C435.7,136.6,433.1,134,430,134z"/>
	<path fill="#C68F61" d="M446.3,134L446.3,134c-3.1,0-5.7,2.6-5.7,5.7v15.5c0,3.1,2.6,5.7,5.7,5.7h0c3.1,0,5.7-2.5,5.7-5.7v-15.5
		C452,136.6,449.5,134,446.3,134z"/>
	<path fill="#5D5D5D" d="M462.7,134L462.7,134c-3.1,0-5.7,2.6-5.7,5.7v15.5c0,3.1,2.5,5.7,5.7,5.7h0c3.1,0,5.7-2.5,5.7-5.7v-15.5
		C468.3,136.6,465.8,134,462.7,134z"/>
</g>
<g>
	<path fill="#FFFFFF" d="M748.8,134L748.8,134c-3.1,0-5.7,2.6-5.7,5.7v15.5c0,3.1,2.5,5.7,5.7,5.7l0,0c3.1,0,5.7-2.5,5.7-5.7v-15.5
		C754.4,136.6,751.9,134,748.8,134z"/>
	<path fill="#5D5D5D" d="M781.4,134L781.4,134c-3.1,0-5.7,2.6-5.7,5.7v15.5c0,3.1,2.5,5.7,5.7,5.7l0,0c3.1,0,5.7-2.5,5.7-5.7v-15.5
		C787.1,136.6,784.5,134,781.4,134z"/>
</g>
<g>
	<path fill="#FCD9BE" d="M582.2,134L582.2,134c-3.1,0-5.7,2.6-5.7,5.7v15.5c0,3.1,2.5,5.7,5.7,5.7l0,0c3.1,0,5.7-2.5,5.7-5.7v-15.5
		C587.9,136.6,585.4,134,582.2,134z"/>
	<path fill="#C68F61" d="M598.4,134L598.4,134c-3.1,0-5.7,2.6-5.7,5.7v15.5c0,3.1,2.5,5.7,5.7,5.7l0,0c3.1,0,5.7-2.5,5.7-5.7v-15.5
		C604.1,136.6,601.5,134,598.4,134z"/>
	<path fill="#5D5D5D" d="M614.9,109.3c-3.1,0-5.7,2.6-5.7,5.7v11v2.7v1.9v9.1v1.9v2.7v11c0,3.1,2.5,5.7,5.7,5.7
		c3.1,0,5.7-2.5,5.7-5.7v-11v-2.7v-1.9v-9.1v-1.9V126v-11C620.6,111.9,618,109.3,614.9,109.3z"/>
	<path fill="#FFFFFF" d="M565.8,109.3c-3.1,0-5.7,2.6-5.7,5.7v11v2.7v1.9v9.1v1.9v2.7v11c0,3.1,2.5,5.7,5.7,5.7
		c3.1,0,5.7-2.5,5.7-5.7v-11v-2.7v-1.9v-9.1v-1.9V126v-11C571.5,111.9,568.9,109.3,565.8,109.3z"/>
</g>
<g>
	<path fill="#5D5D5D" d="M705,83c-3.1,0-5.7,2.6-5.7,5.7V97v2.7v2.7v1.9v3.8v2.7v1.9v0.8v1.7v0.2v2.7v3.8v1.9v2.5v0.2v2.5v0.2v1.7
		v6.7v2.5l0,0v15.5c0,2.3,1.4,4.4,3.5,5.2c0.7,0.3,1.4,0.4,2.2,0.4c3.1,0,5.7-2.5,5.7-5.7v-11v-2.7v-1.9v-2.5v-6.7v-1.7v-0.2v-2.5
		V126v-2.5v-1.9v-3.8v-2.7V115v-1.7v-0.8v-1.9V108v-3.8v-1.9v-2.7V97v-8.3C710.7,85.5,708.1,83,705,83z"/>
	<path fill="#C68F61" d="M687.8,83c-3.1,0-5.7,2.6-5.7,5.7V97v2.7v2.7v1.9v3.8v2.7v1.9v0.8v1.7v0.2v2.7v3.8v1.9v2.5v0.2v2.5v0.2v1.7
		v6.7v2.5l0,0v15.5c0,2.3,1.4,4.4,3.5,5.2c0.7,0.3,1.4,0.4,2.2,0.4c3.1,0,5.7-2.5,5.7-5.7v-11v-2.7v-1.9v-2.5v-6.7v-1.7v-0.2v-2.5
		V126v-2.5v-1.9v-3.8v-2.7V115v-1.7v-0.8v-1.9V108v-3.8v-1.9v-2.7V97v-8.3C693.4,85.5,690.9,83,687.8,83z"/>
	<path fill="#FCD9BE" d="M671.9,134L671.9,134c-3.1,0-5.7,2.6-5.7,5.7v15.5c0,3.1,2.5,5.7,5.7,5.7l0,0c3.1,0,5.7-2.5,5.7-5.7v-15.5
		C677.6,136.6,675,134,671.9,134z"/>
	<path fill="#FFFFFF" d="M655.5,109.3c-3.1,0-5.7,2.6-5.7,5.7v11v2.7v1.9v9.1v1.9v2.7v11c0,3.1,2.5,5.7,5.7,5.7
		c3.1,0,5.7-2.5,5.7-5.7v-11v-2.7v-1.9v-9.1v-1.9V126v-11C661.1,111.9,658.6,109.3,655.5,109.3z"/>
</g>
<g>
	<path fill="#C68F61" d="M515.3,109.3c-3.1,0-5.7,2.6-5.7,5.7v11v2.7v1.9v9.1v1.9v2.7v11c0,3.1,2.5,5.7,5.7,5.7
		c3.1,0,5.7-2.5,5.7-5.7v-11v-2.7v-1.9v-9.1v-1.9V126v-11C521,111.9,518.5,109.3,515.3,109.3z"/>
	<path fill="#5D5D5D" d="M531.7,109.3c-3.1,0-5.7,2.6-5.7,5.7v11v2.7v1.9v9.1v1.9v2.7v11c0,3.1,2.5,5.7,5.7,5.7
		c3.1,0,5.7-2.5,5.7-5.7v-11v-2.7v-1.9v-9.1v-1.9V126v-11C537.3,111.9,534.8,109.3,531.7,109.3z"/>
	<path fill="#FCD9BE" d="M499,109.3c-3.1,0-5.7,2.6-5.7,5.7v11v2.7v1.9v9.1v1.9v2.7v11c0,3.1,2.6,5.7,5.7,5.7c3.1,0,5.7-2.5,5.7-5.7
		v-11v-2.7v-1.9v-9.1v-1.9V126v-11C504.7,111.9,502.1,109.3,499,109.3z"/>
</g>
<circle fill="none" cx="218.7" cy="108.9" r="80.3"/>
<text transform="matrix(0.5259 0.8506 -0.8506 0.5259 280.6244 66.9583)" fill="#353535" font-family="'BentonSans-CondensedRegular'" font-size="15">J</text>
<text transform="matrix(0.4516 0.8922 -0.8922 0.4516 283.8183 72.0638)" fill="#353535" font-family="'BentonSans-CondensedRegular'" font-size="15">a</text>
<text transform="matrix(0.3738 0.9275 -0.9275 0.3738 286.7968 77.9222)" fill="#353535" font-family="'BentonSans-CondensedRegular'" font-size="15">v</text>
<text transform="matrix(0.293 0.9561 -0.9561 0.293 289.1268 83.6267)" fill="#353535" font-family="'BentonSans-CondensedRegular'" font-size="15">a</text>
<text transform="matrix(0.2008 0.9796 -0.9796 0.2008 291.0945 89.8726)" fill="#353535" font-family="'BentonSans-CondensedRegular'" font-size="15">S</text>
<text transform="matrix(0.1086 0.9941 -0.9941 0.1086 292.6299 97.4058)" fill="#353535" font-family="'BentonSans-CondensedRegular'" font-size="15">c</text>
<text transform="matrix(3.460904e-02 0.9994 -0.9994 3.460904e-02 293.3118 103.7884)" fill="#353535" font-family="'BentonSans-CondensedRegular'" font-size="15">r</text>
<text transform="matrix(-1.792845e-02 0.9998 -0.9998 -1.792845e-02 293.4649 108.6789)" fill="#353535" font-family="'BentonSans-CondensedRegular'" font-size="15">i</text>
<text transform="matrix(-8.528034e-02 0.9964 -0.9964 -8.528034e-02 293.498 111.6026)" fill="#353535" font-family="'BentonSans-CondensedRegular'" font-size="15">p</text>
<text transform="matrix(-0.162 0.9868 -0.9868 -0.162 292.8485 118.761)" fill="#353535" font-family="'BentonSans-CondensedRegular'" font-size="15">t</text>
<circle fill="none" cx="218.7" cy="108.9" r="80.3"/>
<text transform="matrix(0.8503 -0.5263 0.5263 0.8503 175.8129 47.4064)"><tspan x="0" y="0" fill="#353535" font-family="'BentonSans-CondensedRegular'" font-size="15">P</tspan><tspan x="7.8" y="0" fill="#353535" font-family="'BentonSans-CondensedRegular'" font-size="15" rotate="5.4">y</tspan><tspan x="14.2" y="0.6" fill="#353535" font-family="'BentonSans-CondensedRegular'" font-size="15" rotate="9.6">t</tspan><tspan x="18.5" y="1.3" fill="#353535" font-family="'BentonSans-CondensedRegular'" font-size="15" rotate="14.1">h</tspan><tspan x="25.4" y="3" fill="#353535" font-family="'BentonSans-CondensedRegular'" font-size="15" rotate="19.4">o</tspan><tspan x="31.9" y="5.3" fill="#353535" font-family="'BentonSans-CondensedRegular'" font-size="15" rotate="24.7">n</tspan></text>
<circle fill="none" cx="218.7" cy="108.9" r="80.3"/>
<text transform="matrix(-0.678 -0.7351 0.7351 -0.678 166.5762 162.7491)"><tspan x="0" y="0" fill="#353535" font-family="'BentonSans-CondensedRegular'" font-size="15">R</tspan><tspan x="8" y="0" fill="#353535" font-family="'BentonSans-CondensedRegular'" font-size="15" rotate="5.8">u</tspan><tspan x="15" y="0.7" fill="#353535" font-family="'BentonSans-CondensedRegular'" font-size="15" rotate="11.2">b</tspan><tspan x="22" y="2.1" fill="#353535" font-family="'BentonSans-CondensedRegular'" font-size="15" rotate="16.4">y</tspan></text>
</svg>
