<?xml version="1.0" encoding="utf-8"?>
<!-- Generator: Adobe Illustrator 17.1.0, SVG Export Plug-In . SVG Version: 6.00 Build 0)  -->
<!DOCTYPE svg PUBLIC "-//W3C//DTD SVG 1.1//EN" "http://www.w3.org/Graphics/SVG/1.1/DTD/svg11.dtd">
<svg version="1.1" id="Layer_1" xmlns="http://www.w3.org/2000/svg" xmlns:xlink="http://www.w3.org/1999/xlink" x="0px" y="0px"
	 viewBox="0 0 1439.4 411.8" enable-background="new 0 0 1439.4 411.8" xml:space="preserve">
<path fill="#FFFFFF" d="M531.3,187h-19.5h-44.1H265.4L375.6,15.8l0.2-1.1c0.7-3.3,0-6.4-1.8-8.7c-1.8-2.2-4.6-3.4-7.8-3.4h-25.1
	c-5.2,0-7.8,2.8-10.6,5.8l-0.9,0.9L222.4,172.6l-22.5,31.8l22.5,31.8l107.5,164.4c2.4,3,5.7,7.1,11.7,7.1h25.1c3.3,0,6-1.2,7.8-3.4
	c1.8-2.2,2.5-5.3,1.8-8.7l-0.2-1.1l-109-170.1h174.1h33h43.2l0-0.3h20.4h25.9l-7.9-37.1H531.3z"/>
<path fill="#FFFFFF" d="M769.6,187h-25.9h-88h-36.9h-66v37.4h184.3h32.4c12.2,0,18.7-6.5,18.7-18.7C788.3,193.4,781.8,187,769.6,187
	z"/>
</svg>
