<?xml version="1.0" encoding="utf-8"?>
<!-- Generator: Adobe Illustrator 17.1.0, SVG Export Plug-In . SVG Version: 6.00 Build 0)  -->
<!DOCTYPE svg PUBLIC "-//W3C//DTD SVG 1.1//EN" "http://www.w3.org/Graphics/SVG/1.1/DTD/svg11.dtd">
<svg version="1.1" id="Layer_1" xmlns="http://www.w3.org/2000/svg" xmlns:xlink="http://www.w3.org/1999/xlink" x="0px" y="0px"
	 viewBox="0 0 1439.4 411.8" enable-background="new 0 0 1439.4 411.8" xml:space="preserve">
<path fill="#FFF800" d="M199.5,368.5c-6.4-1.9-17.8-2.5-17.8-43.2c0-3.2,0-36.2,0-40c0-32.4-2.5-69.9-42.6-78.2
	c32.4-8.9,50.2-40.7,50.2-89.6C189.4,36.2,144.2,0,76.3,0H7C3.2,0,0,3.2,0,7v397.8c0,3.8,3.2,7,7,7h32.4c3.8,0,7-3.2,7-7V232.6h30.5
	c47.7,0,59.7,15.9,59.7,69.3c0,66.7,7,109.9,62.3,109.9c3.8,0,6.4-1.9,6.4-5.1v-30.5C205.2,371.7,202.1,369.2,199.5,368.5z
	 M79.4,186.2H48.3V46.4h31.1c53.4,0,62.9,37.5,62.9,69.9C142.3,153.8,132.8,186.2,79.4,186.2z"/>
<path fill="#FFF800" d="M924.1,0h-108c-3.8,0-7,2.5-7,6.4v33c0,3.8,3.2,6.4,7,6.4h31.1V366h-31.1c-3.8,0-7,3.2-7,6.4v33
	c0,3.8,3.2,6.4,7,6.4h108c3.8,0,7-2.5,7-6.4v-33c0-3.2-3.2-6.4-7-6.4h-31.1V45.8h31.1c3.8,0,7-2.5,7-6.4v-33
	C931.1,2.5,927.9,0,924.1,0z"/>
<path fill="#FFF800" d="M1180.8,0H1149c-3.8,0-6.4,3.2-6.4,7v304.4l-113.7-305c-0.6-3.8-3.8-6.4-7.6-6.4h-31.1c-3.8,0-7,3.2-7,7
	v397.8c0,3.8,3.2,7,7,7h31.1c3.8,0,6.4-3.2,6.4-7V116.9l111.8,287.2c0.6,2.5,7,7.6,10.2,7.6h31.1c3.8,0,7-3.2,7-7V7
	C1187.8,3.2,1184.6,0,1180.8,0z"/>
<path fill="#FFF800" d="M1344.8,0h-87.7c-3.8,0-7,3.2-7,7v397.8c0,3.8,3.2,7,7,7h89c61.6,0,93.4-40,93.4-102.3V110.6
	C1439.4,47,1412.1,0,1344.8,0z M1391.1,319.6c0,24.1-12.1,45.8-44.5,45.8h-48.9v-319h48.9c34.9,0,44.5,27.3,44.5,53.4V319.6z"/>
<polygon fill="none" points="594.5,183.4 594,187 618.8,187 606.8,105.1 "/>
<path fill="#FFF800" d="M627.3,7c-1.3-4.4-3.2-7-6.4-7h-30.5c-3.2,0-5.1,2.5-6.4,7l-28.4,176.4l-7.1,44.2l0,0.3l-5.5,34.3
	l-11.9,73.9l-9.4-73.9h-42.5l20.9,142.5c0.6,3.8,3.2,7,7,7H553h0.6c3.8,0,6.4-3.2,7-7l10.5-71.7l11.1-70.8l5.4-34.3l0-0.3l0.5-3.2
	L594,187l0.6-3.5l12.2-78.4l12,81.9h36.9L627.3,7z"/>
<path fill="#FFF800" d="M762.7,0H729c-3.8,0-5.7,2.5-7,7v0.6l-30.9,244.3l41.9,4L769.7,7C769.7,3.2,766.5,0,762.7,0z"/>
<path fill="#FFF800" d="M489.4,7.6V7c-1.3-4.4-3.2-7-7-7h-33.7c-3.8,0-7,3.2-7,7l29.5,180h44.1L489.4,7.6z"/>
<path fill="#FFF800" d="M680.1,337.4l-12-75.2h-38.2l21,142.5c0.6,3.8,3.2,7,7,7h0.6h45.8c3.8,0,6.4-3.2,7-7l26-176.9H694
	L680.1,337.4z"/>
</svg>
