<?xml version="1.0" encoding="utf-8"?>
<!-- Generator: Adobe Illustrator 17.1.0, SVG Export Plug-In . SVG Version: 6.00 Build 0)  -->
<!DOCTYPE svg PUBLIC "-//W3C//DTD SVG 1.1//EN" "http://www.w3.org/Graphics/SVG/1.1/DTD/svg11.dtd">
<svg version="1.1" id="Layer_1" xmlns="http://www.w3.org/2000/svg" xmlns:xlink="http://www.w3.org/1999/xlink" x="0px" y="0px"
	 viewBox="0 0 513.9 120.8" enable-background="new 0 0 513.9 120.8" xml:space="preserve">
<g>
	<path fill="#FFFFFF" d="M52,28.3v64.4c0,16.7-10.6,28.1-26.1,28.1C10.8,120.8,0,109.4,0,92.7V28.3C0,11.3,9.7,0.2,25.9,0.2
		C42.5,0.2,52,11.3,52,28.3z M38.3,28.6c0-11.2-5-15.5-12.4-15.5c-7,0-12.2,4.3-12.2,15.5v63.7c0,11.2,5.2,15.5,12.2,15.5
		c7.4,0,12.4-4.3,12.4-15.5V28.6z"/>
	<path fill="#FFFFFF" d="M90.5,4v112.7c0,1.1-0.9,2-2,2h-9.2c-1.1,0-1.8-0.9-1.8-2V22.9H65.9c-1.1,0-2-0.9-2-2V16c0-1.1,0.9-2,1.8-2
		C80.1,8.8,76.3,2,82.4,2c1.4,0,6.1,0,6.1,0C89.6,2,90.5,2.9,90.5,4z"/>
</g>
<g>
	<path fill="#FFFFFF" d="M256.5,89.6c0,19.4-9,31-27,31c-16.4,0-26.3-11.3-26.3-28.3v-11c0-0.9,0.7-2,1.8-2h9.5c0.9,0,1.8,1.1,1.8,2
		v11.9c0,7.7,3.8,15.5,13.5,15.5c12.6,0,13.1-10.6,13.1-18.2V78.3c0-10.8-14-13.9-17.3-14c-1.8,0-1.8-0.9-1.8-2v-8.6
		c0-0.7,0.5-1.4,1.6-2c0,0,17.8-5.6,17.8-17.8v-4.5c0-10.8-4.1-16.4-13.3-16.4c-9.5,0-12.8,6.7-12.8,14.4v10.1
		c0,0.9-0.9,1.8-1.8,1.8h-10.1c-1.1,0-1.8-0.9-1.8-1.8v-9.4C203.5,11,214,0,230.4,0c17.6,0,26.1,11.9,26.1,29c0,0,0,0.9,0,3.1
		c0,14.9-13,25.2-18.2,25.2c0,0,18.2,3.1,18.2,24.5V89.6z"/>
	<path fill="#FFFFFF" d="M293.2,4v112.7c0,1.1-0.9,2-2,2H282c-1.1,0-1.8-0.9-1.8-2V22.9h-11.7c-1.1,0-2-0.9-2-2V16
		c0-1.1,0.9-2,1.8-2C282.7,8.8,279,2,285.1,2c1.4,0,6.1,0,6.1,0C292.3,2,293.2,2.9,293.2,4z"/>
</g>
<g>
	<path fill="#FFFFFF" d="M446.4,70.4c0,8.8,0,19.1,0,19.1c0,15.8-6.8,31.1-26.8,31.1c-19.6,0-26.5-13.9-26.5-31.1v-7.9
		c0-1.1,0.9-2,2-2h9.5c1.1,0,2,0.9,2,2v9c0,8.5,1.1,17.1,13.3,17.1c11.2,0,12.8-8.6,12.8-17.1V66.8c0-12.4-7.9-15.3-12.8-15.3
		c-5.2,0-10.8,1.6-12.8,6.8l-0.5,1.4c-0.4,0.5-1.1,0.9-1.8,0.9h-9.7c-0.9,0-1.8-0.5-2-1.4c0,0,0-1.8,0-2.5V18.9V4.1c0-1.1,0.9-2,2-2
		h13h35.8c0.9,0,1.8,0.9,1.8,2v9.2c0,1.1-0.9,2-1.8,2h-37.1v29.9c2.5-6.3,9.5-6.8,15.1-6.8C438.7,38.3,446.4,48.8,446.4,70.4z"/>
	<path fill="#FFFFFF" d="M513.9,28.3v64.4c0,16.7-10.6,28.1-26.1,28.1c-15.1,0-25.9-11.3-25.9-28.1V28.3c0-16.9,9.7-28.1,25.9-28.1
		C504.4,0.2,513.9,11.3,513.9,28.3z M500.3,28.6c0-11.2-5-15.5-12.4-15.5c-7,0-12.2,4.3-12.2,15.5v63.7c0,11.2,5.2,15.5,12.2,15.5
		c7.4,0,12.4-4.3,12.4-15.5V28.6z"/>
</g>
</svg>
