<?xml version="1.0" encoding="utf-8"?>
<!-- Generator: Adobe Illustrator 17.1.0, SVG Export Plug-In . SVG Version: 6.00 Build 0)  -->
<!DOCTYPE svg PUBLIC "-//W3C//DTD SVG 1.1//EN" "http://www.w3.org/Graphics/SVG/1.1/DTD/svg11.dtd">
<svg version="1.1" id="Layer_1" xmlns="http://www.w3.org/2000/svg" xmlns:xlink="http://www.w3.org/1999/xlink" x="0px" y="0px"
	 viewBox="0 0 822.9 198.2" enable-background="new 0 0 822.9 198.2" xml:space="preserve">
<path fill="#3DAFFC" d="M77.9,126.6c0.5,0.7,0.7,1.5,0.7,2.4c-0.5,2.1-1.9,4.1-4.2,5.9c-0.7,1.9-1.7,3.7-3.1,5.6
	c-0.2,0.9-0.7,1.9-1.4,2.8c-0.7,0.5-1.3,0.9-1.7,1.4c-0.9,1.9-2.7,3.8-5.2,5.9c-2.1,2.8-4.2,5.4-6.3,7.7c-0.7,1.2-1.9,2.1-3.5,2.8
	c-0.7,0.7-1.3,1.3-1.7,1.7c-0.5,0-0.8,0.2-1,0.7v1.7c0.2,1.2,0.3,2.1,0.3,2.8c0,0.7,0.2,1.4,0.7,2.1c0,0.7,0.1,1.6,0.3,2.8
	c0.2,0.9,0.3,1.7,0.3,2.4c0,0.9,0,1.9,0,2.8c0,0.9-0.2,2.1-0.7,3.5c0,1.4-0.3,2.7-1,3.8c-0.7,1.2-1.3,2.4-1.7,3.8
	c-3.3,3.3-6.6,6.2-10.1,8.7c-1.6,0-3.5,0-5.6,0c-1.9-0.2-3.1-0.7-3.8-1.4c-0.9-0.5-1.7-0.7-2.4-0.7c-0.7-0.7-1.4-1.4-2.1-2.1
	c-0.7-0.2-1.4-0.4-2.1-0.4c-0.7-0.9-1.4-1.9-2.1-2.8c-0.7-0.5-1.3-1.4-1.7-2.8c-0.5-1.4-0.3-2.7,0.3-3.8c0.2-0.2,0.1-1-0.3-2.4
	c0-1.4,0.2-2.3,0.7-2.8c0.9-0.7,1.7-1.4,2.4-2.1c0.7-0.7,1.4-1,2.1-1c0.7-0.7,1.3-1.4,1.7-2.1v-0.3c-1.9-1.9-3.1-3.7-3.8-5.6
	c-0.7-0.7-1.4-1.4-2.1-2.1c-0.7-0.9-1.3-1.6-1.7-2.1c-0.7-0.9-1.4-1.9-2.1-2.8c-0.7-0.9-1.4-1.6-2.1-2.1c-0.5-0.7-1-1.5-1.7-2.4
	c-0.7-1.2-1.3-2.2-1.7-3.1c-0.5-0.9-0.8-1.7-1-2.4c-0.7-0.7-1.6-1.4-2.8-2.1c-0.7-0.9-1.4-1.9-2.1-2.8c-0.7-0.7-1.3-1.5-1.7-2.4
	c-0.7-1.4-1.4-2.8-2.1-4.2c0-0.7,0-1.4,0-2.1c0.5-0.9,0.3-1.7-0.3-2.4c0-0.7,0-1.2,0-1.4c0-1.2,0-2.4,0-3.8c0.7-0.5,0.8-1,0.3-1.7
	c0-0.7,0-1.3,0-1.7c1.4-3.7,3.3-7,5.6-9.8c0.9-0.9,2-2,3.1-3.1c0.2-0.2,0.6-0.6,1-1c0.9-0.9,1.5-1.9,1.7-2.8
	c1.2-1.9,2.4-3.1,3.8-3.8c2.3-0.2,3.8-0.7,4.5-1.4c1.4,0,2.6,0,3.5,0c0.7-0.5,2.3-0.5,4.9,0c2.6,0,4.5,0.3,5.9,1
	c0.5,0,1.6,0.3,3.5,1c2.1,0.7,3.6,1.3,4.5,1.7c2.3,0.7,3.8,2.4,4.5,5.2c0,0.7-0.1,1.6-0.3,2.8c0,1.2-1,1.5-3.1,1c-0.5,0-0.8,0-1,0
	c-1.6,0.9-2.8,1.3-3.5,1c-0.2-0.7-0.6-0.9-1-0.7c-0.9,0-1.9,0.3-2.8,1c-0.9,0-1.7,0.2-2.4,0.7c-2.1,0.7-4.2,1.3-6.3,1.7
	c-0.7,0.7-1.3,1.2-1.7,1.4c-0.5,0-0.8,0.5-1,1.4c-0.5,1.4-0.5,2.6,0,3.5c0.7,0.7,0.9,1.6,0.7,2.8c1.2,3,2.8,6.3,4.9,9.8
	c0.7,1.2,1.9,2.4,3.5,3.8c2.8,1.9,5.4,4.1,7.7,6.6c1.2,0.7,2.4,1.6,3.8,2.8c0.9,0.7,1.4,1.2,1.4,1.4v0.3c2.3-0.9,4.5-2.6,6.6-4.9
	c1.2-0.9,2.1-2,2.8-3.1l0.3-0.7c1.4-1.4,2.7-2.8,3.8-4.2c1.2-1.6,2.3-3,3.5-4.2c0.9-3,2.4-5.6,4.5-7.7c1.4-1.6,2.6-3.4,3.5-5.2
	c0.9-0.5,1.6-0.8,2.1-1c0.5-0.7,1.2-0.8,2.1-0.3c0.5,0,1,0.5,1.7,1.4C76.9,125.2,77.2,125.9,77.9,126.6z M34.2,181.1
	c-0.2-0.9-0.8-1.4-1.7-1.4c-0.7-0.5-1.4-0.3-2.1,0.4c0.5,0,0.3,0.2-0.3,0.7c-0.7,0.7-1.3,1.6-1.7,2.8c0,0.9,0,1.6,0,2.1
	c1.4-0.7,2.6-1.4,3.5-2.1C32.7,182.6,33.5,181.8,34.2,181.1z M171.8,127.2c-1.2,3.3-2.4,6.4-3.8,9.4c0,0.7-0.3,1.5-1,2.4
	c-1.4,1.4-2.8,3.1-4.2,5.2c0,0.7-0.3,1.3-1,1.7c-0.7,0.9-1.4,2.1-2.1,3.5c0,0.5-0.1,0.9-0.3,1.4c-1.2,2.1-2.8,4.5-4.9,7.3
	c-1.2,1.2-2.2,2.4-3.1,3.8c-0.5,0.9-1.2,1.7-2.1,2.4c-1.4,1.2-2.9,2.4-4.5,3.8c-0.9,0.7-2.1,1.7-3.5,3.1c-0.7,0.7-1.5,1.5-2.4,2.4
	c-0.7,0.7-1.4,1.4-2.1,2.1c0,0.5-1.3,2.3-3.8,5.6c-2.1,2.8-4,4.5-5.6,5.2c-1.4,2.1-3.5,4.2-6.3,6.3c-2.1,1.2-4.1,2.1-5.9,2.8
	c-3.7-0.9-6.8-3-9.1-6.3c-0.5-2.6-1.2-4.9-2.1-7c0-1.4-0.2-3-0.7-4.9c-0.5-0.7-1.2-1.6-2.1-2.8c-0.5-1.6-0.5-3.1,0-4.5
	c0.7-1.4,1-2.8,1-4.2c0-1.4,0-2.9,0-4.5c0-1.4,0.2-2.4,0.7-3.1c0.7-2.8,0.9-5.7,0.7-8.7c0.5-0.7,0.3-1.4-0.3-2.1
	c-0.7-2.8-1-5.2-1-7.3c0.2-0.9,0-2-0.7-3.1c0-1.2-0.3-2.4-1-3.8c0-0.7-0.3-1-1-1c-0.7,0.2-1.3,0.7-1.7,1.4c-0.9,1.4-2.1,3.1-3.5,5.2
	c-2.8,4.9-5.4,10.4-7.7,16.4c-0.9,2.3-1.7,5.1-2.4,8.4c-0.2,1.6-0.7,3.5-1.4,5.6c-0.9,0.7-2.4,1.3-4.5,1.7c-3.3-0.9-5.5-1.7-6.6-2.4
	c-0.9-0.7-3.1-2.1-6.6-4.2c-0.9-3.5-1.6-6.5-2.1-9.1c0-4.4-0.6-8.4-1.7-11.9c-1.2-4-2.1-7.7-2.8-11.2c0.2-0.7,0-1.6-0.7-2.8
	c-0.2-1.4-0.3-2.8-0.3-4.2c0-2.8,0-5.4,0-7.7c0-2.1-0.2-4.1-0.7-5.9c0-1.4-0.3-2.8-1-4.2c-0.2,0-0.3-3.7-0.3-11.2
	c0-7.7-0.2-14.1-0.7-19.2c0.7-1.4,1-2.4,1-3.1c0-2.8,0-5.5,0-8c-1.2-1.9-2.4-3.5-3.8-4.9c0-0.7-0.3-1.6-1-2.8c0.2-1.4,0.6-2.4,1-3.1
	c0.5-1.9,1.6-3.1,3.5-3.8c1.9-0.7,3-1.9,3.5-3.5v-0.3c0.9,0,2,0.1,3.1,0.3c1.9-1.2,3.3-2.1,4.2-2.8c1.6,0.2,3.1,0.1,4.5-0.3
	c2.1,0,3.6,0,4.5,0c0.9,0.5,1.7,0.9,2.4,1.4c0.5,0.5,0.7,0.8,0.7,1c0.5,0.9,1,2.1,1.7,3.5c1.6,4.2,2.7,8.6,3.1,13.3
	c0.5,2.1,0.9,4,1.4,5.6c0.9,0.7,1.4,3.4,1.4,8c0.5,4.2,0.2,6.9-0.7,8c0,3,0,6.4,0,10.1c0,2.3-0.2,4.9-0.7,7.7
	c-0.5,1.4-0.6,3.1-0.3,5.2c0.2,2.6,0,5-0.7,7.3c-0.2,0.7-0.3,1.5-0.3,2.4c0.5,2.1,0.2,4.2-0.7,6.3c0,0.2,0,0.7,0,1.4
	c0,2.6-0.5,5-1.4,7.3c0.7,0.5,1.4,0.3,2.1-0.3c0.5-2.1,0.9-3.5,1.4-4.2c0.9-1.4,1.9-2.6,2.8-3.5c2.3-2.1,4.9-3.6,7.7-4.5
	c0.9-0.5,1.9-0.9,2.8-1.4c0.9,0,2,0.2,3.1,0.7c1.2-0.7,2.4-1.3,3.8-1.7c1.9-0.7,3.8-1.4,5.9-2.1c1.6-0.7,3.1-0.7,4.5,0
	c2.1,0.2,4.1,1,5.9,2.4c3.5,2.8,6.3,5.8,8.4,9.1c2.1,2.8,3.6,5.9,4.5,9.4c0.7,2.1,1.7,4.2,3.1,6.3c0.2,0.5,0.6,1,1,1.7
	c0,3.5,0,7,0,10.5c0,0.5-0.1,1-0.3,1.7c2.1-1.6,4.1-2.8,5.9-3.5c0.9-1.4,1.7-2.6,2.4-3.5c2.1-2.1,3.7-4.2,4.9-6.3
	c0.7-1.6,1.4-3.1,2.1-4.5c0.5,0,1.7-1.6,3.8-4.9c2.3-3.3,4.2-6.9,5.6-10.8c0.9-0.7,1.9-1.3,2.8-1.7c0.5-0.5,0.9-1,1.4-1.7
	c2.1-0.5,3.8,0.4,5.2,2.4C172.5,124.4,172.5,125.8,171.8,127.2z M259.4,123.5c-1.4,1.9-2.2,2.9-2.4,3.1c-2.1,2.8-4.2,5.6-6.3,8.4
	c-1.9,2.1-4.2,3.3-7,3.5c-0.9,0.2-1.6,0.7-2.1,1.4c0,0.7-0.7,0.7-2.1,0c-0.7-0.7-1.7-0.9-3.1-0.7c-2.3-0.7-4.4-1.6-6.3-2.8
	c-0.9-0.7-1.9-1.7-2.8-3.1c-0.7-0.7-1.4-1.3-2.1-1.7c-1.4,0.2-2.6,0.7-3.5,1.4c-3.3,2.1-7.1,4-11.5,5.6c0,0.2-0.3,0.3-1,0.3
	c-2.3,1.4-4.9,2.8-7.7,4.2c-2.1,1.4-4.5,2.9-7.3,4.5c-0.7,0-1.3,0.4-1.7,1c-0.9,0-2.1,0.1-3.5,0.3c-2.3-0.2-4.5-0.3-6.6-0.3
	c-0.9-0.5-2.1-1-3.5-1.7c-0.7-0.7-1.7-0.9-3.1-0.7c-2.8-1.2-5.8-2.4-9.1-3.8c-4.7-2.8-8-6.9-10.1-12.2c-0.7-1.6-1.4-3.1-2.1-4.5
	c-1.4-2.8-2.4-5.8-3.1-9.1c0.7-0.9,1-2,1-3.1c0-1.6-0.3-3.1-1-4.5c0.9-3.7,2-7.7,3.1-11.9c2.1-2.8,3.4-4.7,3.8-5.6
	c0.5-0.9,2.1-2.7,4.9-5.2c0.9,0,2.2-0.2,3.8-0.7c0.7-0.7,1.6-1.3,2.8-1.7c1.2,0,2.4-0.2,3.8-0.7c1.4,0,2.6-0.3,3.5-1
	c2.3,0.7,4.7,1,7,1c2.3-0.7,4.5-1,6.6-1s4.1,0,5.9,0c1.4-0.7,2.8-1.2,4.2-1.4c2.8,0,5.5,0,8,0c3.5,1.2,6.3,2.4,8.4,3.8
	c3.5,1.4,6.5,3.1,9.1,5.2c2.1,0.7,4,0.8,5.6,0.3c1.6-0.5,3.1-0.9,4.5-1.4c1.4,0.5,2.7,0.8,3.8,1c1.4,0,2.8,0.3,4.2,1
	c2.3,1.9,4.5,4,6.6,6.3c0.5,2.1,0.3,4.5-0.3,7.3c-0.7,2.1-0.9,3.6-0.7,4.5c0.2,0.7,0.5,2.4,0.7,5.2c0.2,0,0.6,0,1,0
	c2.3-2.1,4.1-4.8,5.2-8c2.8-3.3,5.2-6.6,7.3-10.1c0.5-0.7,1-1.6,1.7-2.8c0.7-1.2,1.2-2.1,1.4-2.8c1.6-1.2,2.8-2.1,3.5-2.8
	c0.9-0.7,2.4-0.9,4.5-0.7c2.3,1.2,3.4,2.1,3.1,2.8c-0.2,0.5-0.3,2.1-0.3,4.9c-1.9,2.6-3,4.8-3.5,6.6c0,1.4-1.4,3.5-4.2,6.3
	c-1.9,2.1-3.1,3.8-3.8,5.2c-0.2,0.9-1.3,2.3-3.1,4.2C262.2,119,260.8,121.2,259.4,123.5z M220.3,107.4c0.7-2.1,1-3.8,1-5.2
	c-0.7-1.6-1.9-2.7-3.5-3.1c-3.5-1.4-6.8-2.9-9.8-4.5c-0.7-0.5-1.4-0.5-2.1,0c-1.9,0.2-3.3,1-4.2,2.4c-3.5,4.7-6.1,9.7-7.7,15
	c-0.7,1.4-0.7,2.8,0,4.2c0.7,1.6,2,3.1,3.8,4.5c1.4,0,2.7,0.1,3.8,0.3c0.7,0.2,1.3,0.7,1.7,1.4c0.7,0.7,1.5,1.2,2.4,1.4
	c3.5-1.6,5.9-2.4,7.3-2.4c1.4-0.2,3.6-0.6,6.6-1c0.7-0.7,1.2-1.2,1.4-1.4c-0.5-2.1-0.7-4.2-0.7-6.3
	C220.4,110.6,220.3,108.8,220.3,107.4z M341.9,133.4c0.2,0.7,0.3,1.5,0.3,2.4c0,1.4-0.6,2.6-1.7,3.5c-0.7,0.5-1.4,0.9-2.1,1.4
	c0,0.7-0.3,1.7-1,3.1c-0.5,0.5-0.9,0.7-1.4,0.7c-2.8,0.2-5.1,0.8-7,1.7c-3.3-0.9-6.4-1.7-9.4-2.4c-1.6-1.4-3.5-2.8-5.6-4.2
	c-0.7-2.6-1.6-4.9-2.8-7c0-1.4-0.5-2.8-1.4-4.2c-0.7-1.6-1.2-3.1-1.4-4.5c-1.4-2.8-3-5.7-4.9-8.7c-0.7-0.7-1-1.7-1-3.1
	c0-0.9-0.3-1.7-1-2.4c-0.2-0.7-0.7-0.8-1.4-0.3c-1.2,3.7-1.2,7.1,0,10.1c0.2,2.1,0.3,4.1,0.3,5.9c0,3.3,0.1,6.1,0.3,8.4
	c0,0.5-0.2,0.7-0.7,0.7c-0.2,0.5-0.7,0.7-1.4,0.7c-3.5,1.4-6.5,3.3-9.1,5.6c-2.1,0-4.2,0.1-6.3,0.3c-0.7,0.7-1.3,1.5-1.7,2.4
	c-0.5,0.5-1.2,1-2.1,1.7c-1.4-0.2-2.9-0.8-4.5-1.7c-1.2-1.2-2.4-2-3.8-2.4c-1.4-2.1-2.3-4.2-2.8-6.3c0-4.7,0-9.1,0-13.3
	c0-2.1,0.2-4.1,0.7-5.9c0.7-0.9,0.8-1.6,0.3-2.1c0-0.7,0-1.3,0-1.7c0.7-3,1-6.2,1-9.4c0-0.9,0-1.9,0-2.8c0.7-2.1,1-4.2,1-6.3
	c0-2.3,0-4.8,0-7.3c0.5-1.2,0.3-2.1-0.3-2.8c-0.5,0-0.8,0-1,0c0.2-6.8,0.3-13.3,0.3-19.6c0.9-2.1,1.6-4.1,2.1-5.9
	c-0.5-1.9-0.6-3.7-0.3-5.6c0.2-0.9,0.3-1.7,0.3-2.4c0-7.5-0.1-14.7-0.3-21.7c0.5-1.6,0.3-3.8-0.3-6.6c0-0.7,0.1-1.4,0.3-2.1
	c0.2-0.9,0.3-1.9,0.3-2.8c0.7-0.5,1-1,1-1.7c0.7-0.9,0.9-1.6,0.7-2.1c0-0.7-0.3-1.4-1-2.1c0.5-0.7,1-1.4,1.7-2.1
	c0.7-0.2,1.5-0.6,2.4-1c0.7-0.9,1.4-2,2.1-3.1c2.8-0.2,5.4-1,7.7-2.4c1.4,1.4,2.4,2.9,3.1,4.5c0.7,3,1.6,5.6,2.8,7.7
	c1.2,2.1,2.1,4.4,2.8,7c0.5,2.6,0.7,5.2,0.7,8c0.7,0.7,0.9,1.4,0.7,2.1c-0.2,2.3,0,4.7,0.7,7c0.2,0.9,0.3,1.9,0.3,2.8
	c0.5,0.5,0.7,0.5,0.7,0c1.4-3.5,2.8-6.3,4.2-8.4c0.9-1.4,1.7-2.8,2.4-4.2c1.4-3.3,3.1-6.1,5.2-8.4c1.4-1.4,2.4-3.1,3.1-5.2
	c0.7-1.9,1.6-3.1,2.8-3.8c0.7-0.9,1.2-1.7,1.4-2.4c0.7-1.2,1.2-2.1,1.4-2.8c1.2-3,3.1-4.9,5.9-5.6c0.7,0,1.4,0.2,2.1,0.7
	c0.7-0.5,1.4-0.3,2.1,0.4c0.7,0.5,1.4,0.8,2.1,1c0.9,2.6,1.7,4.9,2.4,7v3.1c-1.4,2.1-2.3,4.2-2.8,6.3c0.7,0.9,1.2,1.4,1.4,1.4
	c0.5,0,0.7,0.2,0.7,0.7c-0.2,1.9-0.7,3.4-1.4,4.5c-1.2,1.2-2.2,2.4-3.1,3.8c-0.9,0.5-1.7,1-2.4,1.7c-0.2,1.2-0.7,2.2-1.4,3.1
	c-0.2,0.7-0.7,1.4-1.4,2.1c0,0.9-0.2,1.9-0.7,2.8c-0.7,1.4-1.4,2.7-2.1,3.8c-2.1,2.8-4.1,6.3-5.9,10.5c-0.5,2.8-1.7,5.2-3.8,7.3
	c-0.5,0.7-0.7,1.4-0.7,2.1c-0.5,1.4-1.2,3.1-2.1,5.2c-0.7,1.6-1.2,3.1-1.4,4.5c1.4,3.3,2.6,6.1,3.5,8.4c2.1,2.1,4.4,4.5,7,7.3
	c0.7,0.7,1.6,1.6,2.8,2.8c0.2,0,0.7,0,1.4,0c0.9,1.4,2.3,3.5,4.2,6.3c2.1,2.6,3,3.8,2.8,3.8c3.5,4.2,6.4,8.6,8.7,13.3
	c0.9,2.3,2.1,4.9,3.5,7.7c0,2.3,0.1,4.7,0.3,7C341.2,130.3,341.4,131.8,341.9,133.4z M395.6,84.5c0.2-0.5,0.5-0.9,0.9-1.4
	c0.8-2.6,1.3-5.2,1.5-8c-2.1-1.6-4.9-2.5-7.7-1.8c-0.2,0-0.3,0-0.5,0.1c-0.9,0.7-1.4,1.2-1.4,1.4c-1.9,1.4-4,3.1-6.3,5.2
	c-2.1,1.9-4.3,3.1-6.6,3.8c-0.2,0.2-0.7,0.4-1.4,0.4c-0.9-1.4-2.1-2.6-3.5-3.5c-0.2-0.5-0.7-0.9-1.4-1.4c-0.7-0.9-1.4-1.6-2.1-2.1
	c-2.1-1.4-3.7-3-4.9-4.9c-0.7-1.4-1.4-2.6-2.1-3.5v-3.5c0-1.4-0.2-2.8-0.7-4.2c0.2-0.7,0.6-1,1-1c2.3-0.7,4.7-1.2,7-1.4
	c1.4,0.2,2.7,0.1,3.8-0.3c2.6-0.9,5.2-2,8-3.1c1.9-1.9,3.8-3.5,5.9-4.9c0.9-1.6,1.7-3.4,2.4-5.2v-2.8c-0.5-0.9-0.8-1.7-1-2.4
	c-1.4-2.3-2.4-3.8-3.1-4.5c-0.5-0.9-2.1-2.1-4.9-3.5c-0.5,0-0.8-0.1-1-0.4c-3-0.7-6.6-0.9-10.8-0.7c-2.8,1.2-5.9,2.1-9.4,2.8
	c-3.5,0.7-6.9,1.5-10.1,2.4c-1.4,1.4-3.5,2.7-6.3,3.8c-0.5,0.7-0.8,1.4-1,2.1c-1.2,0.7-2.2,1.5-3.1,2.4v1c0,0.2-0.3,0.7-1,1.4
	c-0.7,0.9-1.4,2.4-2.1,4.5c-0.7,2.1-1.7,4.2-3.1,6.3c0,2.8-0.2,5.8-0.7,9.1c0.5,2.3,0.6,4.5,0.3,6.6c1.6,4,2.8,6.6,3.5,8
	c1.2,0.9,2.8,2.9,4.9,5.9c1.2,1.2,2.2,2.2,3.1,3.1c2.3,1.4,5,2.3,8,2.8c1.2,0,3.7,0.8,7.7,2.4c4.2,1.4,7.2,2.4,9.1,3.1h10.1
	c1.9-0.7,3.7-1.4,5.6-2.1c3.7-2.8,7.2-5.8,10.5-9.1C393.4,86.6,394.4,85.6,395.6,84.5z M365.3,47.2c0.5-0.7,0.7-1.4,0.7-2.1v-2.4
	c0-0.7,0.3-1.4,1-2.1c2.1-0.7,4.1-0.7,5.9,0c0.5,0.5,0.7,0.9,0.7,1.4v1.7c-1.4,2.3-3.7,4-7,4.9c-0.5-0.7-0.9-1-1.4-1V47.2z
	 M668.2,104.9c-1.4,1.6-3.5,3.5-6.3,5.6c-0.7,0.2-1.7,0.7-3.1,1.4c-1.2,0.5-2.4,1-3.8,1.7c-0.5,0-1.9,0.6-4.2,1.7
	c-1.4,0-3.3,0.4-5.6,1c-1.4,0-2.6,0.1-3.5,0.3c-0.5,0.2-1.3,0-2.4-0.7c0.2,1.9,0.3,4,0.3,6.3c0,2.1,0.1,4,0.3,5.6
	c0,0.7-0.2,1.3-0.7,1.7c-1.2,2.1-2.1,4.2-2.8,6.3c-0.9,0.9-2.1,2.1-3.5,3.5c-0.7,1.4-1.5,2.9-2.4,4.5c-1.4,0.7-3,1.9-4.9,3.5
	c-0.9,0.9-2.3,2.1-4.2,3.5c-1.4,0.2-3.1,0.3-5.2,0.3c-0.7,0.5-1.5,0.8-2.4,1c-1.4-0.7-2.9-0.8-4.5-0.4c-1.6,0-3.1,0-4.5,0
	c-0.9,0-1.7,0-2.4,0c-1.4-0.9-3-1.7-4.9-2.4c-0.7-0.7-1.4-1.2-2.1-1.4c-0.5-0.7-1-1.3-1.7-1.7c-0.7-0.5-1.3-0.9-1.7-1.4
	c-0.2-0.5-0.7-0.9-1.4-1.4c-1.6-2.3-2.8-4.5-3.5-6.6c0-0.7-0.2-1.4-0.7-2.1c0-0.7-0.3-1.3-1-1.7c0-0.5-0.1-1-0.3-1.7
	c0.2-0.9,0-1.6-0.7-2.1c0-1.4-0.2-2.4-0.7-3.1c0.5-0.5,0.3-0.9-0.3-1.4c0-0.7,0-1.4,0-2.1c0-1.4,0-2.8,0-4.2c-0.5-1.4-0.5-2.6,0-3.5
	c0-0.5,0.1-0.7,0.3-0.7c0.2-1.9,0.6-3.1,1-3.8c0.5-0.9,0.9-2.1,1.4-3.5c0.9-0.7,1.4-1.7,1.4-3.1c0-1.4,0.3-2.6,1-3.5
	c0.7-0.9,1.2-1.7,1.4-2.4c0.2-0.7,0.3-1.7,0.3-3.1c0.9-0.7,1.9-1.4,2.8-2.1c0.7,0,1.4-0.1,2.1-0.3c1.4-1.2,2.8-2.1,4.2-2.8
	c1.4-0.7,2.8-1.5,4.2-2.4c1.4-0.5,2.8-0.9,4.2-1.4c1.4-0.5,2.9-1,4.5-1.7c1.6-0.7,3.4-1,5.2-1c0.9-0.5,2-0.3,3.1,0.3
	c1.4,0,2.6,0.3,3.5,1c1.9,0.7,3.5,1.5,4.9,2.4c0.7,1.2,1.6,2.4,2.8,3.8c0.7,0.7,1.2,1.7,1.4,3.1c0.2,0.7,0.3,1.3,0.3,1.7
	c0.7,0.7,1,1.5,1,2.4c0.2,0.9,0.7,2.1,1.4,3.5c0.2,1.2,0.6,2.2,1,3.1c3.3,0.7,5.2,1,5.9,1c0.7-0.2,1.3-0.3,1.7-0.3
	c0.7,0,1.4-0.2,2.1-0.7c0.7-0.7,1.4-0.8,2.1-0.3c0.9,0.2,1.7,0,2.4-0.7c2.1-1.2,3.7-2.1,4.9-2.8c1.2-0.7,2.1-1.2,2.8-1.4
	c0.7-0.2,1.4-0.7,2.1-1.4c0.7-0.5,1.2-0.7,1.4-0.7l0.3-1h0.3c0.2-0.5,0.6-0.7,1-0.7c0.7,0,1-0.1,1-0.3c0-0.7,0.7-1.3,2.1-1.7
	c1.6-0.5,2.2-0.5,1.7,0h1c0.9,0,1.5,0.3,1.7,1c0.9,1.2,1.3,2.1,1,2.8c0,2.1-0.5,3.7-1.4,4.9C670.6,103.3,669.6,104.2,668.2,104.9z
	 M624.9,116.8c0.2-1.2,0.2-2.1,0-2.8c-0.5-1.4-0.5-2.6,0-3.5c-1.4-3.5-2.8-7-4.2-10.5c-0.5-0.7-1-1.4-1.7-2.1c0-0.5-0.2-0.7-0.7-0.7
	h-2.1c-1.6,0.7-2.8,1.6-3.5,2.8c-0.7,1.6-1.4,3.1-2.1,4.5c-0.7,2.8-1.3,5.5-1.7,8c0,2.1-0.2,4.3-0.7,6.6c0,0.5,0,1.3,0,2.4
	c0.5,1.6,0.7,3.5,0.7,5.6c0,0.7,0.2,1.7,0.7,3.1c0.7,1.9,1.3,3.8,1.7,5.9c0.5,0.7,0.7,1.3,0.7,1.7c1.4,1.4,2.8,1.7,4.2,1
	c0.7-0.7,1.4-1.7,2.1-3.1c0.7-1.4,1.4-2.6,2.1-3.5c1.9-1.9,3.1-3.8,3.8-5.9c-0.5-1.4-0.2-2.8,0.7-4.2v-3.1
	C624.9,118.5,624.9,117.7,624.9,116.8z M764.2,67.5c-0.7,0.7-1,1.3-1,1.7c0.2,0,0,0.5-0.7,1.4c-0.7,1.4-1.4,2.8-2.1,4.2
	c0.2,0.5-0.7,1.9-2.8,4.2c-2.1,3.7-4.7,7.5-7.7,11.2c-2.1,1.9-4.4,4.2-7,7c-1.9,1.9-3.3,3.1-4.2,3.8c-0.7,0.2-1.7,0.9-3.1,2.1
	c-2.1,1.2-4.2,2.2-6.3,3.1c-3.7,1.4-7.3,2.6-10.8,3.5c-0.2,0-0.1,0.1,0.3,0.3c0.5,0.7,0.5,1.6,0,2.8c0,4.9,0,9.7,0,14.3
	c0,1.4-0.1,2.8-0.3,4.2c-0.2,0.5-0.3,1.4-0.3,2.8c0.5,0.9,0.2,1.7-0.7,2.4c-1.4,4.2-3,8.1-4.9,11.9c-1.9,3.3-4.1,6.3-6.6,9.1
	c-1.6,1.4-3.6,2.4-5.9,3.1c-0.5,0-0.9,0.1-1.4,0.4c-0.7,0.2-1.4,1-2.1,2.4c-1.4,1.9-3.5,3.5-6.3,4.9h-10.8c-1.4-0.5-2.8-1-4.2-1.7
	c-2.3-2.6-5.1-4.9-8.4-7c-0.2-0.7-0.7-1.5-1.4-2.4c-0.7-2.3-1.4-4.8-2.1-7.3c-1.4-5.4-2.8-10.5-4.2-15.4c-0.2-0.7-0.3-1.5-0.3-2.4
	c0-2.1-0.2-3.8-0.7-5.2c-0.5-0.7-0.6-1.4-0.3-2.1c0-1.4,0-2.8,0-4.2c0.5-1.9,0.3-3.5-0.3-4.9c-0.5-1.4-0.5-2.6,0-3.5
	c0.9-2.1,0.8-4.1-0.3-5.9c0.2-0.5,0.3-1,0.3-1.7c0.7-1.4,0.7-2.6,0-3.5c-0.5-1.4-0.7-2.8-0.7-4.2c0-0.7,0-1.4,0-2.1
	c0-2.6,0.1-5.2,0.3-8c0.7-3.7,1.4-7.3,2.1-10.8c0.7-2.1,1.5-4.2,2.4-6.3c0.5-1.2,0.9-2.4,1.4-3.8c0.5-1.4,0.9-2.8,1.4-4.2
	c1.9-4.9,4.2-9.1,7-12.6c0.5-0.7,0.7-1.4,0.7-2.1c0.9,0,1.9-0.2,2.8-0.7c0.9-0.5,1.9-1,2.8-1.7c0.9,0.2,2,0.1,3.1-0.3
	c0.2-0.5,0.6-0.7,1-0.7c0.9-0.9,2-1.7,3.1-2.4c3.3-2.1,6.6-3.7,10.1-4.9c2.1-0.7,3.8-1.3,5.2-1.7c1.4-0.7,2.8-0.7,4.2,0
	c1.4,0,2.8,0.3,4.2,1c0.7,0,1.4,0.3,2.1,1c1.4,0.9,2.4,1.7,3.1,2.4c1.4,0.7,2.8,1.4,4.2,2.1c1.9,0.7,3.1,2.1,3.8,4.2
	c0.7,1.6,1.4,3.5,2.1,5.6c0.7,0.2,0.7,0.7,0,1.4c-0.5,2.8-1.2,5.8-2.1,9.1c-1.2,2.6-2.4,4.9-3.8,7c-1.4,1.4-2.9,2.8-4.5,4.2
	c-1.2,1.4-2.8,2.8-4.9,4.2c-2.6,1.6-5.2,2.9-8,3.8c-1.9,0.7-4,1.7-6.3,3.1c-0.7,0.7-1.7,1.7-3.1,3.1c0.2,0.5,0.6,0.7,1,0.7
	c2.8-1.4,5.7-1.6,8.7-0.7c1.2,0.5,2.4,0.9,3.8,1.4c0.9,0.9,1.7,1.9,2.4,2.8c1.2,0.9,2.4,1.2,3.8,0.7c0.5,0,0.7-0.1,0.7-0.3
	c1.4,1.4,3.3,2.8,5.6,4.2c2.6,1.2,4.1,1.4,4.5,0.7c0.7,0,1.2,0,1.4,0c0.7,0,2-0.2,3.8-0.7c2.1-0.7,3.1-1.3,3.1-1.7
	c0.2-0.5,1-1.4,2.4-2.8c1.4-0.5,2.2-0.5,2.4,0c0.2,0,0.6-0.8,1-2.4c1.4-1.2,2.4-1.7,3.1-1.7c0.7-0.5,1.7-1.6,3.1-3.5
	c1.4-1.4,2.2-2.3,2.4-2.8c0.7-0.7,1.4-1.7,2.1-3.1c2.1-3,3.5-4.9,4.2-5.6c0.7-2.1,1.5-3.6,2.4-4.5c0.9-0.9,1.6-2,2.1-3.1
	c0.7-2.1,1-3.3,1-3.5c0.5-0.5,1.4-1.3,2.8-2.4c1.4-0.7,2.1-0.8,2.1-0.4c2.8,2.3,3.8,4.2,3.1,5.6C764.9,63.8,764.6,65.2,764.2,67.5z
	 M702.3,105.6c-2.1,0-4.3-0.1-6.6-0.3c-2.3-0.2-4.5-0.7-6.6-1.4c-0.2,0-0.7,0.2-1.4,0.7c0,1.2-0.3,2.4-1,3.8c0,1.4,0,2.8,0,4.2
	c0.2,1.4-0.1,2.7-1,3.8c0,0.5,0,1,0,1.7c0,2.3,0,4.9,0,7.7c-0.2,0.9-0.1,1.9,0.3,2.8c0.5,1.4,0.7,2.8,0.7,4.2c0,0.9,0,1.9,0,2.8
	c0.5,1.4,0.7,2.9,0.7,4.5c0,0.7,0.1,1.3,0.3,1.7c0.7,1.9,0.9,3.6,0.7,5.2c0.2,1.2,0.7,2.1,1.4,2.8c0.2,0,0.6,0,1,0
	c2.8-4.2,5.1-8.7,7-13.6c0-0.5,0.1-0.8,0.3-1c1.2-4.2,2.1-8,2.8-11.5c0-1.9,0-3.5,0-4.9c0-1.4,0.3-2.7,1-3.8c0.7-0.2,0.8-0.6,0.3-1
	c-0.2-1.9,0-3.8,0.7-5.9C703.7,107.3,703.5,106.5,702.3,105.6z M689.9,73.8c2.2-0.7,4.1-1.1,5.5-1.1c3.3-1.5,5.5-3.7,6.6-6.6
	c2.2-3.7,3.9-7.7,5-12.2c0-0.4,0-1.1,0-2.2c-0.4-1.8-1.7-3.3-3.9-4.4c-3,1.9-5,3.7-6.1,5.5c-3,4.4-5.5,9.2-7.7,14.4
	C688.9,69.4,689.1,71.6,689.9,73.8z M822.4,106.8c-0.7-0.3-1.1-0.5-1.3-0.7l-1.3-0.1c-1.5,0.6-3.1,1.1-4.8,1.4
	c-0.7-0.1-1.4,0-2.1,0.2c-0.7,0.1-7.2,0.5-7.7,0.4c-2.3-0.1-4.5-0.1-6.7-0.1l-0.6-0.1c-0.3-0.1-0.6-0.2-0.7-0.2
	c-0.2-0.1-0.5-0.2-0.7-0.3c0-0.1,0-0.1-0.1-0.2c0,0.1,0,0.2,0,0.2c0,0,0,0,0,0c-0.3-0.1-1.7-2.4-0.6-1.6c-2.2-1.7-3.9-3.7-4.8-6.1
	c-0.4,0.1-0.8,0.2-1.2,0.2c-0.1-0.1-0.1-0.3-0.2-0.4c-0.2-0.3-0.6-0.9-1.2-1.8c-0.4-0.4-0.8-0.8-1.3-1c-0.5-0.2-0.7-0.3-0.8-0.3
	c-0.9-0.8-1.8-1.3-2.6-1.4c-0.5,0-0.9,0-1.2,0.3c0,0-0.1,0-0.1,0.1c-0.5-0.2-1-0.4-1.4-0.5c-3-0.9-5.9-0.7-8.7,0.7
	c-0.5,0-0.8-0.2-1-0.7c1.4-1.4,2.4-2.4,3.1-3.1c2.3-1.4,4.4-2.4,6.3-3.1c2.8-0.9,5.5-2.2,8-3.8c2.1-1.4,3.7-2.8,4.9-4.2
	c1.6-1.4,3.1-2.8,4.5-4.2c1.4-2.1,2.7-4.4,3.8-7c0.9-3.3,1.6-6.3,2.1-9.1c0.7-0.7,0.7-1.2,0-1.4c-0.7-2.1-1.4-4-2.1-5.6
	c-0.7-2.1-2-3.5-3.8-4.2c-1.4-0.7-2.8-1.4-4.2-2.1c-0.7-0.7-1.7-1.5-3.1-2.4c-0.7-0.7-1.4-1-2.1-1c-1.4-0.7-2.8-1-4.2-1
	c-1.4-0.7-2.8-0.7-4.2,0c-1.4,0.5-3.1,1-5.2,1.7c-3.5,1.2-6.9,2.8-10.1,4.9c-1.2,0.7-2.2,1.5-3.1,2.4c-0.5,0-0.8,0.2-1,0.7
	c-1.2,0.5-2.2,0.6-3.1,0.3c-0.9,0.7-1.9,1.3-2.8,1.7c-0.9,0.5-1.9,0.7-2.8,0.7c0,0.7-0.2,1.4-0.7,2.1c-2.8,3.5-5.1,7.7-7,12.6
	c-0.5,1.4-0.9,2.8-1.4,4.2c-0.5,1.4-0.9,2.7-1.4,3.8c-0.9,2.1-1.7,4.2-2.4,6.3c-0.7,3.5-1.4,7.1-2.1,10.8c-0.2,2.8-0.3,5.5-0.3,8
	v2.1c0,1.4,0.2,2.8,0.7,4.2c0.7,0.9,0.7,2.1,0,3.5c0,0.7-0.1,1.3-0.3,1.7c1.2,1.9,1.3,3.8,0.3,5.9c-0.5,0.9-0.5,2.1,0,3.5
	c0.7,1.4,0.8,3,0.3,4.9v4.2c-0.2,0.7-0.1,1.4,0.3,2.1c0.5,1.4,0.7,3.1,0.7,5.2c0,0.9,0.1,1.7,0.3,2.4c1.4,4.9,2.8,10,4.2,15.4
	c0.7,2.6,1.4,5,2.1,7.3c0.7,0.9,1.2,1.7,1.4,2.4c3.3,2.1,6.1,4.4,8.4,7c1.4,0.7,2.8,1.3,4.2,1.7h10.8c2.8-1.4,4.9-3,6.3-4.9
	c0.7-1.4,1.4-2.2,2.1-2.4c0.5-0.2,0.9-0.4,1.4-0.4c2.3-0.7,4.3-1.7,5.9-3.1c2.6-2.8,4.8-5.8,6.6-9.1c1.9-3.7,3.5-7.7,4.9-11.9
	c0.9-0.7,1.2-1.5,0.7-2.4c0-1.4,0.1-2.3,0.3-2.8c0.2-1.4,0.3-2.8,0.3-4.2v-9.5c0-0.2,0.2-0.4,0.4-0.5c0-0.5,0.1-0.9,0.3-1.2
	c0.3-0.3,0.6-0.6,0.9-0.9c0.2-1,0.3-1.9,0.1-2.8c-0.1-0.3,0.1-0.6,0.3-0.8c0-0.2,0.1-0.2,0.4-0.2c0.5,0,1.1-0.1,1.7-0.3
	c0.7-0.4,1.2-0.7,1.7-0.7c0.4,0,7.2-0.4,8.4-0.3c0.3-0.3,0.8-0.3,1.5,0c0.6-0.2,1.1-0.4,1.4-0.5c0.3-0.2,0.5-0.3,0.8-0.3
	c0.7-0.2,1.4-0.4,2.1-0.6c0.8-0.3,1.4-0.7,1.9-1.3c0.2-0.2,0.4-0.5,0.7-0.7c0.3-0.7,0.7-1.5,1-2.2l0.3-4
	C822.8,107.8,822.6,107.3,822.4,106.8z M772.7,72.7c1.4-3.3,3-6.3,4.9-9.1c0.7-1.2,2-2.3,3.8-3.5c1.4,0.7,2.2,1.6,2.4,2.8v1.4
	c-0.7,2.8-1.7,5.4-3.1,7.7c-0.7,1.9-2.1,3.3-4.2,4.2c-0.9,0-2.1,0.2-3.5,0.7C772.6,75.5,772.5,74.1,772.7,72.7z M782.1,123
	c-0.7,1.2-1,2.4-1,3.8v4.9c-0.7,3.5-1.6,7.3-2.8,11.5c-0.2,0.2-0.3,0.6-0.3,1c-1.9,4.9-4.2,9.4-7,13.6h-1c-0.7-0.7-1.2-1.6-1.4-2.8
	c0.2-1.6,0-3.4-0.7-5.2c-0.2-0.5-0.3-1-0.3-1.7c0-1.6-0.2-3.1-0.7-4.5v-2.8c0-1.4-0.2-2.8-0.7-4.2c-0.5-0.9-0.6-1.9-0.3-2.8v-9.4
	c0.9-1.2,1.3-2.4,1-3.8v-4.2c0.7-1.4,1-2.7,1-3.8c0.7-0.5,1.2-0.7,1.4-0.7c2.1,0.7,4.3,1.2,6.6,1.4c0,0,0.1,0,0.1,0
	c0.1,0.2,0.2,0.4,0.4,0.5c0.7,0.3,1.4,0.6,2.1,0.9c0.1,0.2,0.5,0.4,0.9,0.6c0.5,0.2,0.8,0.4,1.1,0.6c0.2,0.2,0.7,0.3,1.3,0.4
	l1.2,0.1c0,0,0.1,0,0.1,0c-0.6,2-0.8,3.9-0.6,5.7C782.9,122.4,782.8,122.8,782.1,123z M477,128.5c-0.2-1.6-0.3-3.4-0.3-5.4v-6
	c-0.9-2.3-1.8-4.8-2.5-7.4c-0.7-2.1-1.6-4.3-2.8-6.7c-1.6-2.8-2.9-5.7-3.9-8.8c0-0.2-0.2-0.6-0.7-1.1c-0.9-0.5-2.5-0.9-4.6-1.4
	c-3-0.7-5.7-1.4-8.1-2.1c-0.9-0.7-2.1-0.7-3.5,0c-1.4,0.5-4.9,2.5-10.5,6c-0.7,1.4-1.1,2.8-1.1,4.2c0.7,1.6,1.3,2.8,1.8,3.5
	c0.9,1.4,1.8,2.8,2.5,4.2c0.7,2.1,0.9,4.2,0.7,6.3c0.7,4.9,0.6,9.7-0.3,14.4c-0.5,0.7-0.6,1.8-0.4,3.2c0.7,1.2,0.7,2.2,0,3.2
	c-0.7,2.3-1.1,4.9-1.1,7.7c0.5,1.9,0.9,3.2,1.4,3.9c2.3,4.4,5.3,7.7,8.8,9.8c2.1,0.2,4,0.7,5.6,1.4h7.4c1.4-0.2,2.5-0.6,3.2-1.1
	c2.7-0.8,5-2.4,7-4.8C475.5,143.9,476.3,136.2,477,128.5z M440.2,73.6c1.9,0.7,3,1.4,3.5,2.1c2.1,1.4,4.6,2.1,7.4,2.1
	c5.1-0.7,9.5-1.8,13-3.2c2.1-0.9,3.2-2.5,3.2-4.6c0.9-0.7,1.1-1.3,0.4-1.8c0.5-1.4-0.1-2.8-1.8-4.2c-1.4-2.8-3.5-4.2-6.3-4.2
	c-3.5-0.7-7.2-0.6-11.2,0.4c-1.9,0.7-3.9,2.2-6,4.6c-0.5,0-1.1,0.8-1.8,2.5c-0.7,0.7-1.2,2.2-1.4,4.6
	C439,72.3,439.3,72.9,440.2,73.6z M560.8,59.2c0.2-1.2,0-2.3-0.5-3.2c-0.5-0.7-1.1-1.4-1.6-2.1c-0.3-0.9-0.7-1.8-1.2-2.7
	c0.7-0.7,0.1-1.1-1.7-1.2c-1.5-0.2-2.6,0-3.5,0.5c-0.5,0.4-2.3,1-5.6,1.8c-0.7,0.3-2,1-4,2c-1.1,0.5-1.7,1-1.8,1.7
	c-0.1,0.4-0.8,0.5-2.3,0.3c-1-0.1-2,0-2.9,0.3c-0.4-0.5-0.7-1-1-1.7l0.7-5.3c1.3-3.6,2.2-7.1,2.6-10.4c0.6-1.2,1.2-2.2,1.9-2.9
	c-0.1-0.9-0.1-1.7,0-2.5c0.9-0.3,1.1-1.3,0.7-3.1c-0.5-1.3-1.4-2.4-2.7-3.2c-1.1-1.4-2-2.5-2.7-3.2c-0.2-0.4-0.5-0.7-1.2-0.8
	c-1.9,0.2-4.3,0.8-7.2,1.9c-0.7,0.3-1.4,0.8-2.1,1.3c-0.7,0.5-1.5,1.1-2.4,1.6c0.4,0.5,0.2,1-0.5,1.5c-0.5,0.6-0.8,1.1-0.8,1.5
	c-0.7,0.8-1.6,1.4-2.8,1.9c-0.4,1.8-1.3,3-2.6,3.4c-0.6,0.1-1.3,0.6-2.1,1.3c-0.9,1.8-1.7,3.6-2.6,5.3c-0.5,0.4-1,1.1-1.6,2.3
	c-0.6,1.2-1.1,2.1-1.6,2.6c-0.5,0.6-0.8,1.7-1.1,3.3l-0.4,3.1c-0.1,0.4-0.3,1-0.9,1.8c0,0.4-0.4,0.8-1.1,1.2c0,0,0,0,0,0
	c2.6,6-0.5,11.9-6,14.8c-5,2.7-10.2,4.6-15.8,5.8c-0.4,0.1-0.7,0.1-1.1,0.2c-0.2,0.4-0.6,0.7-1.1,1c0.3,0.7,0.2,1.2-0.5,1.5
	c-0.7,0.3-1.1,0.9-1.2,1.7l-0.2,1.2c-0.4-0.1-1,0.6-1.8,2c0.1,0.6,0.4,1.4,1,2.3c1,0.8,1.4,1.5,1.3,2.4c0.3,0.7,0.7,1.9,1.1,3.6
	c0.6,0.1,1.1,0.5,1.4,1.1c1.3,0,2.3,0.3,3,1c0.8,0.7,1.5,1.6,2.2,2.5c2.4,0.7,4.8,0.9,7.2,0.6c0.8-0.1,1.6,0.2,2.1,0.9
	c0.4,0.1,0.6,0.4,0.5,1c-0.2,1.2,0.1,2.7,0.7,4.5c1,1.8,1.6,3.3,1.7,4.3c0.1,1.1,0.2,18.4-0.2,21.5c0.7,0.7,0.7,2-0.2,3.8
	c0.4,1.5,0.8,2.7,1.1,3.6c0.5,0.7,0.8,1.4,0.7,2c0.4,1.7,0.8,3.6,1.2,5.5c0.6,2,1.6,3.7,3.1,5.1c0.6,0.5,1.1,1.1,1.7,1.8
	c1.8,0.9,3.7,1.8,5.6,2.9l10.2,1.3c1.3-0.3,2.6-0.6,3.9-1.1c0.9-1.8,1.5-2.9,2-3.2l0.4-3.4c-1.4-4-2.4-8.1-3.2-12.4
	c0.2-1.9,0.1-3.7-0.3-5.4c-0.2-1.7-0.5-18.4-0.1-19.6c0.5-5.8,0.8-11.6,0.9-17.2l0.2-1.6c0.3-0.8,0.5-1.4,0.5-1.8
	c1-1.5,1.4-3.2,0.9-4.9c0.7-0.5,1-1.1,0.9-1.8c2-0.6,3.2-1.2,3.7-1.7c0.7-0.7,1.7-1.4,3.1-1.8c3.3-1.3,6.1-3,8.2-5.3
	c0.7-0.3,1.4-0.7,2.3-1c1-1.1,1.9-1.8,2.8-1.9c0.9-0.5,2.5-1.5,4.8-2.9c1.2-0.9,2.1-1.9,2.8-3.1c0.7-1.2,0.9-1.9,0.7-2.1
	C559,63.4,560.4,61.2,560.8,59.2z"/>
</svg>
