<?xml version="1.0" encoding="utf-8"?>
<!-- Generator: Adobe Illustrator 17.1.0, SVG Export Plug-In . SVG Version: 6.00 Build 0)  -->
<!DOCTYPE svg PUBLIC "-//W3C//DTD SVG 1.1//EN" "http://www.w3.org/Graphics/SVG/1.1/DTD/svg11.dtd">
<svg version="1.1" id="Layer_1" xmlns="http://www.w3.org/2000/svg" xmlns:xlink="http://www.w3.org/1999/xlink" x="0px" y="0px"
	 viewBox="0 0 1092.5 204.9" enable-background="new 0 0 1092.5 204.9" xml:space="preserve">
<g>
	<path fill="#FFFFFF" d="M133.8,92.2c-4.1,5.5-6.5,8.6-7.2,9.3c-0.7,0.7-2.5,3-5.4,6.8c-2.4,3.4-4.2,5.4-5.4,6.1
		c-1.2,1.4-2.9,3.2-5,5.4c-1.7,2.2-3.6,4.3-5.7,6.5c-2.2,1.9-4.1,3.9-5.7,6.1c-1.4,1.7-2.5,2.9-3.2,3.6c-1,0.7-2.2,1.3-3.6,1.8
		c-1.4,0.5-2.9,1.2-4.3,2.2c-1.4,0.5-2.8,1-3.9,1.4h-6.1c-1.9-0.5-3.9-1.3-6.1-2.5c-1.2-2.4-2.5-5-3.9-7.9c0-2.2-0.4-4.2-1.1-6.1
		c-0.2-1.9-0.1-3.8,0.4-5.7c0.7-1,0.8-2,0.4-3.2c0-1.7,0.2-3.2,0.7-4.7c0.2-1,0.4-1.8,0.4-2.5c-0.5-0.7-1-1.3-1.4-1.8
		c0-2.2-0.1-3.9-0.4-5.4c0.7-2.9,1.6-5.5,2.5-7.9c0.7-2.9,1.3-5.4,1.8-7.5c-0.7-2.9-1.3-5.5-1.8-7.9c-0.5,0-0.8,0-1.1,0
		c-4.3,4.3-7.9,9.1-10.8,14.4c-0.5,1-1.1,1.8-1.8,2.5c-0.7,1-1.3,2.5-1.8,4.7c-0.2,0.7-0.7,1.8-1.4,3.2c-0.7,1.4-1.3,2.9-1.8,4.3
		c-0.7,2.9-1.8,5.7-3.2,8.6c0,0.2-0.2,0.7-0.7,1.4c-0.7,2.2-1.8,4.3-3.2,6.5c-1,0-1.9,0.2-2.9,0.7c-1-0.2-1.8-0.4-2.5-0.4
		c-1.2-0.9-2.2-2-2.9-3.2c-0.7-1-1.4-1.8-2.2-2.5c-0.7-2.4-1.1-4.3-1.1-5.7c0-3.3,0-6.5,0-9.3c0-0.7,0-1.3,0-1.8
		c0.5-1.2,0.7-2.2,0.7-2.9c0-1.4-0.1-2.5-0.4-3.2c-0.7,0-1.2,0.2-1.4,0.7c-1.7,1.9-3,3.9-3.9,6.1c-1,0.7-1.4,1.9-1.4,3.6
		c0,1.7-0.5,3.2-1.4,4.7c-0.5,1.4-1.1,2.7-1.8,3.9c-1.7,3.6-3,7.4-3.9,11.5c-1,2.9-1.9,6-2.9,9.3v0.7c-1.4,2.4-2.5,5.3-3.2,8.6
		c-0.7,1.2-1.4,2.3-2.2,3.2c-1.9,0.5-3.6,0.5-5,0c-1-0.9-1.8-1.8-2.5-2.5c-1-1.9-1.9-3.2-2.9-3.9c0-3.6,0.2-6.6,0.7-9
		c0-0.2,0-0.6,0-1.1c0-1.4,0.1-2.7,0.4-3.9c0.5-1.4,0.7-2.6,0.7-3.6c0.2-3.6,0.7-7.1,1.4-10.4c0.7-2.4,1.4-4.9,2.2-7.5
		c0.5-0.7,0.4-1.2-0.4-1.4c0.5-5.5-0.5-11.1-2.9-16.9v-0.4c1-1.7,2.2-3.2,3.6-4.7c0.7-1,1.4-2.2,2.2-3.6c1-1,2.3-1.8,3.9-2.5
		c0.7,0,1.4,0.2,2.2,0.7c1.4-0.2,2.5-0.4,3.2-0.4c1,0,1.8,0.2,2.5,0.7c0.7,0.5,1.1,0.8,1.1,1.1c0.5,0.7,0.7,1.3,0.7,1.8
		c0,0.5,0.4,1,1.1,1.4c0,1-0.4,1.8-1.1,2.5c-0.5,0.2-0.5,0.7,0,1.4c1.4-1.7,2.9-3.2,4.3-4.7c1-1,2-1.6,3.2-1.8
		c1.4-0.7,2.5-0.7,3.2,0c2.4,0.7,4.9,1.8,7.5,3.2c0.7,1.4,1.7,3,2.9,4.7c0.2,0.5,0.7,0.7,1.4,0.7c2.9-3.3,5.5-6.5,7.9-9.3
		c1.2-1.2,2.2-2.5,2.9-3.9c1-1.4,2.5-3.1,4.7-5c2.2-2.2,3.9-3.6,5.4-4.3c2.2-1,4.1-1.6,5.7-1.8c1.4-0.2,2.9-0.6,4.3-1.1
		c1.7,0.5,3.2,0.8,4.7,1.1c1,0.2,2,0.7,3.2,1.4c1.7,0.7,2.9,1.6,3.6,2.5c0.7,0,1.6-0.1,2.5-0.4c0.7,0.2,1.3,0.7,1.8,1.4
		c0.7,0.7,1.4,1,2.2,0.7c1.7,0.7,2.9,1.9,3.6,3.6c0.7,0.7,1.2,1.7,1.4,2.9c0.5,1.7,0.7,3.2,0.7,4.7c0.2,1,0.4,1.8,0.4,2.5
		c0,1.4,0,3.2,0,5.4c0,0.5,0,1,0,1.4c-0.5,1.4-0.7,2.9-0.7,4.3c0.5,1.2,0.4,2.4-0.4,3.6c-0.7,2.4-1.2,4.8-1.4,7.2
		c0,1.9-0.4,3.5-1.1,4.7c-1,3.1-1.8,6.1-2.5,9c0.5,0.7,1.2,1.3,2.2,1.8c1.7-1.4,3.2-2.9,4.7-4.3c0.5,0,2.6-2.5,6.5-7.5
		c4.3-5.3,6.3-7.9,6.1-7.9c0.7-1.4,1.4-2.7,2.2-3.9c1.4-1.4,3.6-4.1,6.5-7.9c3.1-4.1,4.9-7.1,5.4-9c0.5-0.5,1.7-1.8,3.6-3.9
		c0.5-0.7,0.7-1.3,0.7-1.8c0.7-0.7,1.1-0.8,1.1-0.4c1.4-0.5,2.9-0.4,4.3,0.4c1.4,0,2.5,0.2,3.2,0.7c1,0.7,1.8,1.6,2.5,2.5
		C141,81,138.4,86,133.8,92.2z"/>
	<path fill="#FFFFFF" d="M235.4,114.1c-1.4,1.9-2.3,3-2.5,3.2c-2.2,2.9-4.3,5.7-6.5,8.6c-1.9,2.2-4.3,3.4-7.2,3.6
		c-1,0.2-1.7,0.7-2.2,1.4c0,0.7-0.7,0.7-2.2,0c-0.7-0.7-1.8-1-3.2-0.7c-2.4-0.7-4.5-1.7-6.5-2.9c-1-0.7-1.9-1.8-2.9-3.2
		c-0.7-0.7-1.4-1.3-2.2-1.8c-1.4,0.2-2.6,0.7-3.6,1.4c-3.4,2.2-7.3,4.1-11.8,5.7c0,0.2-0.4,0.4-1.1,0.4c-2.4,1.4-5,2.9-7.9,4.3
		c-2.2,1.4-4.7,3-7.5,4.7c-0.7,0-1.3,0.4-1.8,1.1c-1,0-2.2,0.1-3.6,0.4c-2.4-0.2-4.7-0.4-6.8-0.4c-1-0.5-2.2-1.1-3.6-1.8
		c-0.7-0.7-1.8-1-3.2-0.7c-2.9-1.2-6-2.5-9.3-3.9c-4.8-2.9-8.3-7.1-10.4-12.6c-0.7-1.7-1.4-3.2-2.2-4.7c-1.4-2.9-2.5-6-3.2-9.3
		c0.7-0.9,1.1-2,1.1-3.2c0-1.7-0.4-3.2-1.1-4.7c1-3.8,2-7.9,3.2-12.2c2.2-2.9,3.5-4.8,3.9-5.7c0.5-1,2.2-2.7,5-5.4
		c1,0,2.3-0.2,3.9-0.7c0.7-0.7,1.7-1.3,2.9-1.8c1.2,0,2.5-0.2,3.9-0.7c1.4,0,2.6-0.4,3.6-1.1c2.4,0.7,4.8,1.1,7.2,1.1
		c2.4-0.7,4.7-1.1,6.8-1.1c2.2,0,4.2,0,6.1,0c1.4-0.7,2.9-1.2,4.3-1.4c2.9,0,5.6,0,8.3,0c3.6,1.2,6.5,2.5,8.6,3.9
		c3.6,1.4,6.7,3.2,9.3,5.4c2.2,0.7,4.1,0.8,5.7,0.4c1.7-0.5,3.2-1,4.7-1.4c1.4,0.5,2.7,0.8,3.9,1.1c1.4,0,2.9,0.4,4.3,1.1
		c2.4,1.9,4.7,4.1,6.8,6.5c0.5,2.2,0.4,4.7-0.4,7.5c-0.7,2.2-1,3.7-0.7,4.7c0.2,0.7,0.5,2.5,0.7,5.4c0.2,0,0.6,0,1.1,0
		c2.4-2.2,4.2-4.9,5.4-8.2c2.9-3.3,5.4-6.8,7.5-10.4c0.5-0.7,1.1-1.7,1.8-2.9c0.7-1.2,1.2-2.2,1.4-2.9c1.7-1.2,2.9-2.2,3.6-2.9
		c1-0.7,2.5-1,4.7-0.7c2.4,1.2,3.5,2.2,3.2,2.9c-0.2,0.5-0.4,2.2-0.4,5c-1.9,2.6-3.1,4.9-3.6,6.8c0,1.4-1.4,3.6-4.3,6.5
		c-1.9,2.2-3.2,3.9-3.9,5.4c-0.2,1-1.3,2.4-3.2,4.3C238.2,109.4,236.8,111.7,235.4,114.1z M195.2,97.6c0.7-2.2,1.1-3.9,1.1-5.4
		c-0.7-1.7-1.9-2.7-3.6-3.2c-3.6-1.4-6.9-3-10-4.7c-0.7-0.5-1.4-0.5-2.2,0c-1.9,0.2-3.4,1.1-4.3,2.5c-3.6,4.8-6.2,9.9-7.9,15.4
		c-0.7,1.4-0.7,2.9,0,4.3c0.7,1.7,2,3.2,3.9,4.7c1.4,0,2.7,0.1,3.9,0.4c0.7,0.2,1.3,0.7,1.8,1.4c0.7,0.7,1.6,1.2,2.5,1.4
		c3.6-1.7,6.1-2.5,7.5-2.5c1.4-0.2,3.7-0.6,6.8-1.1c0.7-0.7,1.2-1.2,1.4-1.4c-0.5-2.2-0.7-4.3-0.7-6.5
		C195.3,100.8,195.2,99,195.2,97.6z"/>
	<path fill="#FFFFFF" d="M360.9,88.6c-0.5,0.2-1,1.1-1.4,2.5c-1.4,1.9-3,4.3-4.7,7.2c-1.7,2.9-2.9,5.3-3.6,7.2
		c-0.7,1.4-1.3,2.5-1.8,3.2c-0.5,0.7-1.1,1.8-1.8,3.2c-0.7,1.4-1.9,3.4-3.6,5.7c-1.4,2.2-2.9,4.3-4.3,6.5c-0.7,1.4-2,4.1-3.9,7.9
		c-1.4,1.4-3.1,3.5-5,6.1c-1.9,2.6-3.6,4.7-5,6.1c-0.5,0.5-1.1,1.2-1.8,2.2c-0.7,0.5-1.3,0.9-1.8,1.4c-1.9,0.5-3.7,1.1-5.4,1.8
		c-1.7,0.7-3.2,1.4-4.7,2.2l-6.8,0.4c-2.4,0-5-1-7.9-2.9c-2.2-2.9-4.1-6-5.7-9.3c-0.2-0.5-0.4-1.1-0.4-1.8c0-1.2-0.2-2.2-0.7-2.9
		c-0.5-0.7-0.7-1.4-0.7-2.2c0-0.7-0.2-1.3-0.7-1.8c0-3.6,0.5-6.8,1.4-9.7c0.5-3.6,0.8-6.9,1.1-10c0.2-2.2,0.7-3.9,1.4-5.4
		c0-0.5,0-1.1,0-1.8c2.2-9.8,1.1-15.4-3.2-16.9c-1.4-0.7-2.9-1.3-4.3-1.8c-0.5,0-0.8,0.2-1.1,0.7c-1.7,1.2-3.2,2.3-4.7,3.2
		c-1,0.5-1.8,1.1-2.5,1.8c0,1.7-0.2,3.6-0.7,5.7c0,0.7,0,1.4,0,2.2c0.2,3.6-0.1,7.2-1.1,10.8c-0.5,2.9-1.2,6-2.2,9.3
		c-0.5,3.6-1,7.4-1.4,11.5c0,2.2-0.4,4.3-1.1,6.5c-0.2,1.2-0.8,2.2-1.8,2.9c-1.4,0.7-3.1,1.3-5,1.8c-1.9,0.2-2.9,0.5-2.9,0.7
		c-1.9,1.4-4.2,1.9-6.8,1.4c-1.7-0.7-3-1.1-3.9-1.1c-1.9-0.2-3.4-1.1-4.3-2.5c-0.5-1.9-1.4-3.2-2.9-3.9c-0.5-3.3-0.5-6.5,0-9.3
		c1-3.6,1.8-7.2,2.5-10.8c-0.2-1.4-0.1-3.6,0.4-6.5c1-3.6,1.3-6.8,1.1-9.7c0-1.4-0.5-3.5-1.4-6.1c-0.7-2.6-0.6-6.8,0.4-12.6
		c1.4-2.2,2.9-4,4.3-5.4c1.4-1.2,2.3-2.3,2.5-3.2c0.7-1,1.7-1.6,2.9-1.8c0.7,0,1.4,0,2.2,0s1.6,0,2.5,0c3.3-0.7,6.1,0,8.3,2.2
		c0.2,0.2,0.7,0.4,1.4,0.4h2.9c1.2-0.9,2.5-1.8,3.9-2.5c0.7,0,1.4-0.4,2.2-1.1c0.7-1,1.4-1.4,2.2-1.4c1-0.5,2-0.5,3.2,0
		c0.7-1,1.3-1.8,1.8-2.5c1.9-0.2,3.9-0.6,6.1-1.1c2.2,1,4.4,2.2,6.8,3.6c0.7,0,2,0.2,3.9,0.7c2.2,0.5,3.2,0.6,3.2,0.4
		c5,2.9,8.3,6.5,9.7,10.8c1.7,4.3,2.4,9,2.2,14c0,4.8-0.5,10-1.4,15.8c-0.7,5.3-1.3,10.4-1.8,15.4c0.5,2.9,1.3,3.9,2.5,3.2
		c1.7-0.7,3-1.1,3.9-1.1c0,0.2,1.4-1.6,4.3-5.4c2.9-4.3,4.4-6.3,4.7-6.1c1-0.7,2.2-3,3.6-6.8c1.7-3.8,3-6.2,3.9-7.2
		c0.5-0.7,1.1-1.4,1.8-2.2c1.2-0.9,2.2-2.3,2.9-3.9c2.6-3.3,4.9-6.9,6.8-10.8c0.7-0.7,1.4-1.8,2.2-3.2l1.8-2.2
		c0.5-0.5,0.7-1.1,0.7-1.8c0.7-0.2,1.4-0.4,2.2-0.4c1.7-0.5,3.2-0.4,4.7,0.4c1.4,0.7,1.8,3.2,1.1,7.5
		C362,87.5,361.7,88.4,360.9,88.6z"/>
	<path fill="#FFFFFF" d="M457.1,89.3c-0.7,0.2-1.4,1-2.2,2.2c-0.7,1.7-1.2,3.6-1.4,5.7c0.2,0.7,0,1.6-0.7,2.5
		c-0.7,1-1.6,1.8-2.5,2.5c-0.5,2.2-1.7,4.4-3.6,6.8c-0.7,2.2-1.8,3.9-3.2,5.4c-1.2,1.2-2.2,2.7-2.9,4.7c-0.7,1.4-1.7,2.9-2.9,4.3
		c-0.2,0.7-0.7,1.4-1.4,2.2c-1,1.4-2.2,2.8-3.6,3.9c-0.5,0.5-1.2,1.1-2.2,1.8c-0.7,0.5-1.2,1.1-1.4,1.8c-0.7,0.7-1.7,1.6-2.9,2.5
		c-0.7,1-1.3,1.8-1.8,2.5c-0.7,0.2-1.4,0.7-2.2,1.4c-0.7,0.7-1.8,1.6-3.2,2.5c0.5,0.5,0.4,1.6-0.4,3.2c0,0.5-0.2,1.2-0.7,2.2
		c-0.5,0.7-0.6,1.4-0.4,2.2c0.5,1.4,0.5,2.9,0,4.3c-0.7,4.1-1.2,6.6-1.4,7.5c-0.2,1.4-0.4,2.7-0.4,3.9c-0.5,2.2-1,3.8-1.4,5
		c-0.7,1.7-1.4,3.6-2.2,5.7s-1.6,4.5-2.5,7.2c-0.2,0.7-0.4,1.4-0.4,2.2c0,0.7-0.2,1.7-0.7,2.9c-0.5,1.2-0.8,3-1.1,5.4
		c-1.2,0.7-1.8,1.3-1.8,1.8c-1,1-2.2,1.7-3.6,2.2c-1.9,2.4-4.5,4.3-7.9,5.7c-1-0.2-2-0.4-3.2-0.4c-0.7,0-1.3,0-1.8,0
		c-1.9,0.5-3.9,0.9-6.1,1.4c-2.2,0.5-4.4,0.5-6.8,0c-1,0-2.2-0.1-3.6-0.4c-0.5-1.2-1-2.2-1.4-2.9c-1-1.2-1.9-2.2-2.9-2.9
		c0-0.7,0-1.3,0-1.8c0-1.4,0-2.9,0-4.3c0-1-0.1-2-0.4-3.2c0.2-0.7,0.4-1.6,0.4-2.5c0-1,0-1.9,0-2.9c1-2.4,1.8-4.5,2.5-6.5
		c0.7-2.4,1.3-4.2,1.8-5.4c0.5-0.7,1.1-1.3,1.8-1.8c1.2-1.4,2.2-2.6,2.9-3.6c0.7-1,1.2-1.9,1.4-2.9c1.2-1.2,2.2-1.8,2.9-1.8
		c2.2-2.2,3.6-4.1,4.3-5.7c0.5-0.7,1.1-1.4,1.8-2.2c1-1,1.7-1.4,2.2-1.4c1-0.2,1.8-0.6,2.5-1.1c0.7-0.5,1.4-1.1,2.2-1.8
		c0-0.7,0-1.4,0-2.2c0.2-0.7,0.4-1.4,0.4-2.2c0-0.7,0.1-1.4,0.4-2.2c0.2-1,0.2-1.8,0-2.5c0-0.5,0-1.1,0-1.8c0.2-0.7,0.4-1.6,0.4-2.5
		c0-0.7,0-2.2,0-4.3c0-2.2,0.1-3.2,0.4-3.2c0.2-1.2,0.4-2.2,0.4-2.9l-0.4,0.4c-0.2,0-0.4,0.2-0.4,0.7c-0.5,0-0.8,0-1.1,0
		c-0.2,0.5-1.1,1.6-2.5,3.2c-1.4,1.4-2.4,2.4-2.9,2.9c-0.5-0.2-0.8,0-1.1,0.7c-1,0.7-2.2,1.3-3.6,1.8c-0.7,0-1.7-0.1-2.9-0.4
		c-0.7,0-1.7,0.2-2.9,0.7h-3.9c-1.4-0.2-2.6-0.7-3.6-1.4c-0.7-1.2-1.4-1.8-2.2-1.8c-1.9-1.4-3.9-2.9-6.1-4.3c-1.2-1-2.2-1.8-2.9-2.5
		c-0.7-2.4-1.4-4.5-2.2-6.5c-0.2-1.2-0.7-2.2-1.4-2.9c-0.7-2.2-1.1-4.5-1.1-7.2c0-0.7-0.2-1.3-0.7-1.8c0-0.7-0.1-1.4-0.4-2.2
		c0-1,0-1.8,0-2.5c0-2.2,0-4.3,0-6.5c0.5-0.7,0.5-1.2,0-1.4c-0.7-1.2-1.1-2.2-1.1-2.9l1.1-0.4c-0.7-1.9-1.1-3.8-1.1-5.7
		c0-1.4,0-2.6,0-3.6c0-1-0.1-2-0.4-3.2c0.5-1.4,1.1-2.2,1.8-2.2c0.7-0.2,1.3-0.6,1.8-1.1c0.7,0,1.4-0.1,2.2-0.4
		c1.4-0.2,2.5-0.4,3.2-0.4c0.5-0.9,1.1-1.8,1.8-2.5c2.6-0.7,5.4-1.3,8.3-1.8c1,0.5,1.9,1.2,2.9,2.2c0.5,0.5,1,0.8,1.4,1.1
		c1,0.7,1.9,1.8,2.9,3.2c0,0.7,0.1,1.8,0.4,3.2c0.5,1.2,0.7,2,0.7,2.5c0.5,0.7,0.5,1.8,0,3.2c0,5.3,0,10.8,0,16.5
		c0.2,0.7,0.4,1.6,0.4,2.5c0.5,0.7,0.6,1.4,0.4,2.2c0.5,0.5,0.5,1.2,0,2.2c0.2,1,0.6,2.2,1.1,3.6c-0.5,1.9-0.6,4.7-0.4,8.2
		c0.5,0.2,0.7,0.7,0.7,1.4c0,0.7,0,1.3,0,1.8h1.1c1-1.4,1.7-2.9,2.2-4.3c1-0.7,1.9-1.4,2.9-2.2c0.5-0.5,0.7-1.1,0.7-1.8
		c1-2.2,2-4.4,3.2-6.8c0.7-0.7,1.3-1.4,1.8-2.2c0.7-2.4,1.4-4.2,2.2-5.4c0.7-0.7,1.1-1.4,1.1-2.2c-0.2-1.4-0.1-2.9,0.4-4.3
		c-0.5-0.7-1-1.3-1.4-1.8c1.4-1.9,1.8-3.3,1.1-4.3c-0.7-1.7-1.1-2.9-1.1-3.6c0-1-0.1-1.8-0.4-2.5c0.7-0.2,1.4-0.4,2.2-0.4
		c1-1.4,1.8-2.5,2.5-3.2c1.9-0.5,3.9-0.4,6.1,0.4c1.2-1,2-1.3,2.5-1.1c0.7-0.2,1.4-0.4,2.2-0.4c1.4-1,2.3-1.4,2.5-1.4
		c0.2,0.5,0.4,1.3,0.4,2.5c0.5,0.7,0.6,1.3,0.4,1.8c0.2,1,0.6,2.2,1.1,3.6c0.7,0.5,1.4,1.1,2.2,1.8c0,0.2,0,0.7,0,1.4
		c0,2.2,0.1,3.7,0.4,4.7c0.2,1,0.7,2.9,1.4,5.7c0.7,1.4,1.1,2.9,1.1,4.3c0,2.2,0.1,3.9,0.4,5.4c0.5,0.7,0.5,1.8,0,3.2
		c0,2.4,0,4.7,0,6.8c0.5,0.7,0.4,1.7-0.4,2.9c0,0.7,0,1.7,0,2.9c0.2,0.7,0.2,1.4,0,2.2l0.4,0.4c1.2-1.2,2-2.3,2.5-3.2
		c0.5-1.2,1.1-1.9,1.8-2.2c0.7-0.7,1.4-1.4,2.2-2.2c0.7-0.7,1.3-1.4,1.8-2.2c1.4-0.7,2.3-1.9,2.5-3.6c0.7-1.7,1.4-3.1,2.2-4.3
		c0.7-0.7,1.3-1.6,1.8-2.5c0-0.7,0.1-1.1,0.4-1.1c2.2-3.6,4.2-7.2,6.1-10.8c0.7-1.9,1.4-3.2,2.2-3.9c0.7-0.9,1.4-2.4,2.2-4.3
		c0.5-1,0.8-1.4,1.1-1.4c0.5-0.5,0.6-1.3,0.4-2.5c0.7-0.5,1.6-1.1,2.5-1.8c1.4-1,2.5-1.3,3.2-1.1c1,0,1.7,0.4,2.2,1.1
		c0,0.7,0.5,1.6,1.4,2.5c1,0.7,1.3,1.4,1.1,2.2C458.5,87.4,458.1,88.6,457.1,89.3z M391.8,166.5c0.7-1.4,1-3.1,0.7-5l-0.7-0.4
		c-0.7,0.2-1.7,1.1-2.9,2.5c-1,1-1.8,1.8-2.5,2.5c-0.5,0.5-1.1,1.2-1.8,2.2c-0.2,0.7-0.7,1.6-1.4,2.5c0,0.5-0.4,1.1-1.1,1.8
		c-1.9,2.2-3.7,6.8-5.4,14c-0.7,4.3-0.8,6.9-0.4,7.9l1.1,0.4l4.7,0.7c1,0,1.7-0.4,2.2-1.1l1.1-4.3c1.2-0.5,2.2-1.1,2.9-1.8
		c0-0.7,0-1.3,0-1.8c0.5-0.5,0.7-1.1,0.7-1.8c0.2-1.2,0.4-2.2,0.4-2.9c1-3.1,1.6-6.5,1.8-10c0-0.2,0.2-1.3,0.7-3.2
		C391.8,167.7,391.8,167,391.8,166.5z"/>
	<path fill="#FFFFFF" d="M589.5,72.8c-1,0.2-1.9,1.1-2.9,2.5c-1,0.5-1.8,1-2.5,1.4c-2.2,2.9-5,5.3-8.6,7.2c-1.4,0.7-2.5,1.6-3.2,2.5
		c-0.5,0.7-1.8,1.6-3.9,2.5c0,0.7-0.2,1.4-0.7,2.2c0.5,1.9,0.4,3.8-0.4,5.7c0,0.5-0.1,1.2-0.4,2.2c0,0.7,0,1.3,0,1.8
		c0.7,6.5,1.2,13,1.4,19.7c-0.2,1.4-0.1,3.1,0.4,5c0.7,1.9,1.1,3.9,1.1,6.1c1.4,4.8,3.2,9.3,5.4,13.6c0,0.5,0,1.2,0,2.2
		c0,0.7,0,1.3,0,1.8c-0.5,0.5-1.1,1.8-1.8,3.9c-1.4,0.7-2.9,1.3-4.3,1.8h-11.8c-2.4-1-4.7-1.8-6.8-2.5c-0.7-0.7-1.4-1.3-2.2-1.8
		c-1.9-1.4-3.4-3.2-4.3-5.4c-0.7-2.2-1.4-4.2-2.2-6.1c0-0.7-0.4-1.4-1.1-2.2c-0.7-1-1.3-2.3-1.8-3.9c0.2-1.7,0.1-3.1-0.4-4.3
		c0-3.3-0.1-5.7-0.4-7.2c-0.2-1.2-1.1-2.7-2.5-4.7c-1-1.9-1.4-3.6-1.4-5c0-0.7-0.2-1.1-0.7-1.1c-0.7-0.7-1.6-0.9-2.5-0.7
		c-2.6,0.7-5.4,0.8-8.3,0.4c-1-1-1.9-1.8-2.9-2.5c-1-0.5-2.2-0.7-3.6-0.7c-0.5-0.7-1.1-1.1-1.8-1.1c-0.7-1.9-1.3-3.2-1.8-3.9
		c0-1-0.6-1.8-1.8-2.5c-0.7-0.7-1.2-1.6-1.4-2.5c0.5-1.7,1.1-2.5,1.8-2.5c0-0.5,0-1,0-1.4c-0.5-2.2-1.1-3.9-1.8-5.4
		c1.7-1.4,3.5-2.2,5.4-2.2c1.4-2.2,2.9-4.4,4.3-6.8c0.5-0.5,1.1-1,1.8-1.4c1.4-2.4,3.2-4.8,5.4-7.2c2.2-2.4,4.3-4.5,6.5-6.5
		c0.7-0.5,1.2-1,1.4-1.4l2.2-1.1c1-0.5,1.4-1.1,1.4-1.8c0.2-0.9,0.5-1.7,0.7-2.2c0-0.7,0-1.8,0-3.4c0-1.6,0.2-2.9,0.7-4.1
		c0.5-0.7,1-1.7,1.4-3.1c0.5-1.3,1-2.3,1.4-3.1c0.5-1.9,1.2-4.1,2.2-6.5c0.7-1,1.4-1.6,2.2-1.8c1.4-0.7,2.3-2.2,2.5-4.3
		c1.2-0.7,2.2-1.6,2.9-2.5c0-0.5,0.2-1.1,0.7-1.8c0.5-0.7,0.6-1.3,0.4-1.8c1-0.7,1.8-1.4,2.5-2.2c0.7-0.7,1.4-1.3,2.2-1.8
		c2.9-1.7,5.5-2.7,7.9-3.2c0.7,0,1.2,0.2,1.4,0.7c1,1,2.2,2,3.6,3.2c1.7,0.7,2.9,1.8,3.6,3.2c0.5,1.9,0.4,3.1-0.4,3.6
		c0,1,0.1,1.9,0.4,2.9c-0.7,1-1.3,2.2-1.8,3.6c0,3.8-0.5,7.9-1.4,12.2c0,1.9,0,3.9,0,6.1c0.5,0.7,1,1.3,1.4,1.8c1-0.5,2-0.7,3.2-0.7
		c1.7,0,2.5-0.2,2.5-0.7c0-0.5,0.6-1.2,1.8-2.2c2.2-1.4,3.6-2.4,4.3-2.9c3.3-1.4,5.4-2.4,6.1-2.9c1-0.7,2.3-1.1,3.9-1.1
		c1.9-0.2,2.6,0.1,2.2,1.1c0.7,1,1.3,1.9,1.8,2.9c0.7,0.7,1.4,1.4,2.2,2.2c0.7,1,1.1,2.2,1.1,3.6c-0.2,2.4-1.4,5-3.6,7.9
		c0.5,0.5,0.5,1.1,0,1.8c-0.2,0.5-0.8,0.7-1.8,0.7c-2.4,1.4-2.6,1.9-0.7,1.4c1.9-0.7,1.7,0.1-0.7,2.5
		C592.1,70.8,590.4,72.1,589.5,72.8z"/>
	<path fill="#FFFFFF" d="M715.8,84.7c-1.2,3.4-2.5,6.6-3.9,9.7c0,0.7-0.4,1.6-1.1,2.5c-1.4,1.4-2.9,3.2-4.3,5.4
		c0,0.7-0.4,1.3-1.1,1.8c-0.7,1-1.4,2.2-2.2,3.6c0,0.5-0.1,1-0.4,1.4c-1.2,2.2-2.9,4.7-5,7.5c-1.2,1.2-2.3,2.5-3.2,3.9
		c-0.5,1-1.2,1.8-2.2,2.5c-1.4,1.2-3,2.5-4.7,3.9c-1,0.7-2.2,1.8-3.6,3.2c-0.7,0.7-1.6,1.6-2.5,2.5c-0.7,0.7-1.4,1.4-2.2,2.2
		c0,0.5-1.3,2.4-3.9,5.7c-2.2,2.9-4.1,4.7-5.7,5.4c-1.4,2.2-3.6,4.3-6.5,6.5c-2.2,1.2-4.2,2.2-6.1,2.9c-3.8-1-6.9-3.1-9.3-6.5
		c-0.5-2.6-1.2-5-2.2-7.2c0-1.4-0.2-3.1-0.7-5c-0.5-0.7-1.2-1.7-2.2-2.9c-0.5-1.7-0.5-3.2,0-4.7c0.7-1.4,1.1-2.9,1.1-4.3
		c0-1.4,0-3,0-4.7c0-1.4,0.2-2.5,0.7-3.2c0.7-2.9,1-5.9,0.7-9c0.5-0.7,0.4-1.4-0.4-2.2c-0.7-2.9-1.1-5.4-1.1-7.5c0.2-1,0-2-0.7-3.2
		c0-1.2-0.4-2.5-1.1-3.9c0-0.7-0.4-1.1-1.1-1.1c-0.7,0.2-1.3,0.7-1.8,1.4c-1,1.4-2.2,3.2-3.6,5.4c-2.9,5-5.5,10.6-7.9,16.9
		c-1,2.4-1.8,5.3-2.5,8.6c-0.2,1.7-0.7,3.6-1.4,5.7c-1,0.7-2.5,1.3-4.7,1.8c-3.4-1-5.6-1.8-6.8-2.5c-1-0.7-3.2-2.2-6.8-4.3
		c-1-3.6-1.7-6.7-2.2-9.3c0-4.5-0.6-8.6-1.8-12.2c-1.2-4.1-2.2-7.9-2.9-11.5c0.2-0.7,0-1.7-0.7-2.9c-0.2-1.4-0.4-2.9-0.4-4.3
		c0-2.9,0-5.5,0-7.9c0-2.2-0.2-4.2-0.7-6.1c0-1.4-0.4-2.9-1.1-4.3c-0.2,0-0.4-3.8-0.4-11.5c0-7.9-0.2-14.5-0.7-19.7
		c0.7-1.4,1.1-2.5,1.1-3.2c0-2.9,0-5.6,0-8.3c-1.2-1.9-2.5-3.6-3.9-5c0-0.7-0.4-1.7-1.1-2.9c0.2-1.4,0.6-2.5,1.1-3.2
		c0.5-1.9,1.7-3.2,3.6-3.9c1.9-0.7,3.1-1.9,3.6-3.6V2.9c1,0,2,0.1,3.2,0.4c1.9-1.2,3.3-2.2,4.3-2.9c1.7,0.2,3.2,0.1,4.7-0.4
		c2.2,0,3.7,0,4.7,0c1,0.5,1.8,1,2.5,1.4c0.5,0.5,0.7,0.8,0.7,1.1c0.5,1,1.1,2.2,1.8,3.6c1.7,4.3,2.7,8.9,3.2,13.6
		c0.5,2.2,1,4.1,1.4,5.7c1,0.7,1.4,3.5,1.4,8.3c0.5,4.3,0.2,7.1-0.7,8.3c0,3.1,0,6.6,0,10.4c0,2.4-0.2,5-0.7,7.9
		c-0.5,1.4-0.6,3.2-0.4,5.4c0.2,2.6,0,5.1-0.7,7.5c-0.2,0.7-0.4,1.6-0.4,2.5c0.5,2.2,0.2,4.3-0.7,6.5c0,0.2,0,0.7,0,1.4
		c0,2.6-0.5,5.1-1.4,7.5c0.7,0.5,1.4,0.4,2.2-0.4c0.5-2.2,1-3.6,1.4-4.3c1-1.4,1.9-2.6,2.9-3.6c2.4-2.2,5-3.7,7.9-4.7
		c1-0.5,1.9-1,2.9-1.4c1,0,2,0.2,3.2,0.7c1.2-0.7,2.5-1.3,3.9-1.8c1.9-0.7,3.9-1.4,6.1-2.2c1.7-0.7,3.2-0.7,4.7,0
		c2.2,0.2,4.2,1.1,6.1,2.5c3.6,2.9,6.5,6,8.6,9.3c2.2,2.9,3.7,6.1,4.7,9.7c0.7,2.2,1.8,4.3,3.2,6.5c0.2,0.5,0.6,1.1,1.1,1.8
		c0,3.6,0,7.2,0,10.8c0,0.5-0.1,1.1-0.4,1.8c2.2-1.7,4.2-2.9,6.1-3.6c1-1.4,1.8-2.6,2.5-3.6c2.2-2.2,3.8-4.3,5-6.5
		c0.7-1.7,1.4-3.2,2.2-4.7c0.5,0,1.8-1.7,3.9-5c2.4-3.3,4.3-7.1,5.7-11.1c1-0.7,1.9-1.3,2.9-1.8c0.5-0.5,1-1.1,1.4-1.8
		c2.2-0.5,3.9,0.4,5.4,2.5C716.5,81.8,716.5,83.2,715.8,84.7z"/>
	<path fill="#FFFFFF" d="M813,114.1c-1.4,1.9-2.3,3-2.5,3.2c-2.2,2.9-4.3,5.7-6.5,8.6c-1.9,2.2-4.3,3.4-7.2,3.6
		c-1,0.2-1.7,0.7-2.2,1.4c0,0.7-0.7,0.7-2.2,0c-0.7-0.7-1.8-1-3.2-0.7c-2.4-0.7-4.5-1.7-6.5-2.9c-1-0.7-1.9-1.8-2.9-3.2
		c-0.7-0.7-1.4-1.3-2.2-1.8c-1.4,0.2-2.6,0.7-3.6,1.4c-3.4,2.2-7.3,4.1-11.8,5.7c0,0.2-0.4,0.4-1.1,0.4c-2.4,1.4-5,2.9-7.9,4.3
		c-2.2,1.4-4.7,3-7.5,4.7c-0.7,0-1.3,0.4-1.8,1.1c-1,0-2.2,0.1-3.6,0.4c-2.4-0.2-4.7-0.4-6.8-0.4c-1-0.5-2.2-1.1-3.6-1.8
		c-0.7-0.7-1.8-1-3.2-0.7c-2.9-1.2-6-2.5-9.3-3.9c-4.8-2.9-8.3-7.1-10.4-12.6c-0.7-1.7-1.4-3.2-2.2-4.7c-1.4-2.9-2.5-6-3.2-9.3
		c0.7-0.9,1.1-2,1.1-3.2c0-1.7-0.4-3.2-1.1-4.7c1-3.8,2-7.9,3.2-12.2c2.2-2.9,3.5-4.8,3.9-5.7c0.5-1,2.2-2.7,5-5.4
		c1,0,2.3-0.2,3.9-0.7c0.7-0.7,1.7-1.3,2.9-1.8c1.2,0,2.5-0.2,3.9-0.7c1.4,0,2.6-0.4,3.6-1.1c2.4,0.7,4.8,1.1,7.2,1.1
		c2.4-0.7,4.7-1.1,6.8-1.1c2.2,0,4.2,0,6.1,0c1.4-0.7,2.9-1.2,4.3-1.4c2.9,0,5.6,0,8.3,0c3.6,1.2,6.5,2.5,8.6,3.9
		c3.6,1.4,6.7,3.2,9.3,5.4c2.2,0.7,4.1,0.8,5.7,0.4c1.7-0.5,3.2-1,4.7-1.4c1.4,0.5,2.7,0.8,3.9,1.1c1.4,0,2.9,0.4,4.3,1.1
		c2.4,1.9,4.7,4.1,6.8,6.5c0.5,2.2,0.4,4.7-0.4,7.5c-0.7,2.2-1,3.7-0.7,4.7c0.2,0.7,0.5,2.5,0.7,5.4c0.2,0,0.6,0,1.1,0
		c2.4-2.2,4.2-4.9,5.4-8.2c2.9-3.3,5.4-6.8,7.5-10.4c0.5-0.7,1.1-1.7,1.8-2.9c0.7-1.2,1.2-2.2,1.4-2.9c1.7-1.2,2.9-2.2,3.6-2.9
		c1-0.7,2.5-1,4.7-0.7c2.4,1.2,3.5,2.2,3.2,2.9c-0.2,0.5-0.4,2.2-0.4,5c-1.9,2.6-3.1,4.9-3.6,6.8c0,1.4-1.4,3.6-4.3,6.5
		c-1.9,2.2-3.2,3.9-3.9,5.4c-0.2,1-1.3,2.4-3.2,4.3C815.9,109.4,814.4,111.7,813,114.1z M772.8,97.6c0.7-2.2,1.1-3.9,1.1-5.4
		c-0.7-1.7-1.9-2.7-3.6-3.2c-3.6-1.4-6.9-3-10-4.7c-0.7-0.5-1.4-0.5-2.2,0c-1.9,0.2-3.4,1.1-4.3,2.5c-3.6,4.8-6.2,9.9-7.9,15.4
		c-0.7,1.4-0.7,2.9,0,4.3c0.7,1.7,2,3.2,3.9,4.7c1.4,0,2.7,0.1,3.9,0.4c0.7,0.2,1.3,0.7,1.8,1.4c0.7,0.7,1.6,1.2,2.5,1.4
		c3.6-1.7,6.1-2.5,7.5-2.5c1.4-0.2,3.7-0.6,6.8-1.1c0.7-0.7,1.2-1.2,1.4-1.4c-0.5-2.2-0.7-4.3-0.7-6.5
		C772.9,100.8,772.8,99,772.8,97.6z"/>
	<path fill="#FFFFFF" d="M938.6,88.6c-0.5,0.2-1,1.1-1.4,2.5c-1.4,1.9-3,4.3-4.7,7.2c-1.7,2.9-2.9,5.3-3.6,7.2
		c-0.7,1.4-1.3,2.5-1.8,3.2c-0.5,0.7-1.1,1.8-1.8,3.2c-0.7,1.4-1.9,3.4-3.6,5.7c-1.4,2.2-2.9,4.3-4.3,6.5c-0.7,1.4-2,4.1-3.9,7.9
		c-1.4,1.4-3.1,3.5-5,6.1c-1.9,2.6-3.6,4.7-5,6.1c-0.5,0.5-1.1,1.2-1.8,2.2c-0.7,0.5-1.3,0.9-1.8,1.4c-1.9,0.5-3.7,1.1-5.4,1.8
		c-1.7,0.7-3.2,1.4-4.7,2.2l-6.8,0.4c-2.4,0-5-1-7.9-2.9c-2.2-2.9-4.1-6-5.7-9.3c-0.2-0.5-0.4-1.1-0.4-1.8c0-1.2-0.2-2.2-0.7-2.9
		c-0.5-0.7-0.7-1.4-0.7-2.2c0-0.7-0.2-1.3-0.7-1.8c0-3.6,0.5-6.8,1.4-9.7c0.5-3.6,0.8-6.9,1.1-10c0.2-2.2,0.7-3.9,1.4-5.4
		c0-0.5,0-1.1,0-1.8c2.2-9.8,1.1-15.4-3.2-16.9c-1.4-0.7-2.9-1.3-4.3-1.8c-0.5,0-0.8,0.2-1.1,0.7c-1.7,1.2-3.2,2.3-4.7,3.2
		c-1,0.5-1.8,1.1-2.5,1.8c0,1.7-0.2,3.6-0.7,5.7c0,0.7,0,1.4,0,2.2c0.2,3.6-0.1,7.2-1.1,10.8c-0.5,2.9-1.2,6-2.2,9.3
		c-0.5,3.6-1,7.4-1.4,11.5c0,2.2-0.4,4.3-1.1,6.5c-0.2,1.2-0.8,2.2-1.8,2.9c-1.4,0.7-3.1,1.3-5,1.8c-1.9,0.2-2.9,0.5-2.9,0.7
		c-1.9,1.4-4.2,1.9-6.8,1.4c-1.7-0.7-3-1.1-3.9-1.1c-1.9-0.2-3.4-1.1-4.3-2.5c-0.5-1.9-1.4-3.2-2.9-3.9c-0.5-3.3-0.5-6.5,0-9.3
		c1-3.6,1.8-7.2,2.5-10.8c-0.2-1.4-0.1-3.6,0.4-6.5c1-3.6,1.3-6.8,1.1-9.7c0-1.4-0.5-3.5-1.4-6.1c-0.7-2.6-0.6-6.8,0.4-12.6
		c1.4-2.2,2.9-4,4.3-5.4c1.4-1.2,2.3-2.3,2.5-3.2c0.7-1,1.7-1.6,2.9-1.8c0.7,0,1.4,0,2.2,0c0.7,0,1.6,0,2.5,0c3.3-0.7,6.1,0,8.3,2.2
		c0.2,0.2,0.7,0.4,1.4,0.4h2.9c1.2-0.9,2.5-1.8,3.9-2.5c0.7,0,1.4-0.4,2.2-1.1c0.7-1,1.4-1.4,2.2-1.4c1-0.5,2-0.5,3.2,0
		c0.7-1,1.3-1.8,1.8-2.5c1.9-0.2,3.9-0.6,6.1-1.1c2.2,1,4.4,2.2,6.8,3.6c0.7,0,2,0.2,3.9,0.7c2.2,0.5,3.2,0.6,3.2,0.4
		c5,2.9,8.3,6.5,9.7,10.8c1.7,4.3,2.4,9,2.2,14c0,4.8-0.5,10-1.4,15.8c-0.7,5.3-1.3,10.4-1.8,15.4c0.5,2.9,1.3,3.9,2.5,3.2
		c1.7-0.7,3-1.1,3.9-1.1c0,0.2,1.4-1.6,4.3-5.4c2.9-4.3,4.4-6.3,4.7-6.1c1-0.7,2.2-3,3.6-6.8c1.7-3.8,3-6.2,3.9-7.2
		c0.5-0.7,1.1-1.4,1.8-2.2c1.2-0.9,2.2-2.3,2.9-3.9c2.6-3.3,4.9-6.9,6.8-10.8c0.7-0.7,1.4-1.8,2.2-3.2l1.8-2.2
		c0.5-0.5,0.7-1.1,0.7-1.8c0.7-0.2,1.4-0.4,2.2-0.4c1.7-0.5,3.2-0.4,4.7,0.4c1.4,0.7,1.8,3.2,1.1,7.5
		C939.7,87.5,939.3,88.4,938.6,88.6z"/>
	<path fill="#FFFFFF" d="M1006,142.4c0.2,0.7,0.4,1.6,0.4,2.5c0,1.4-0.6,2.6-1.8,3.6c-0.7,0.5-1.4,1-2.2,1.4c0,0.7-0.4,1.8-1.1,3.2
		c-0.5,0.5-1,0.7-1.4,0.7c-2.9,0.2-5.3,0.8-7.2,1.8c-3.4-1-6.6-1.8-9.7-2.5c-1.7-1.4-3.6-2.9-5.7-4.3c-0.7-2.6-1.7-5-2.9-7.2
		c0-1.4-0.5-2.9-1.4-4.3c-0.7-1.7-1.2-3.2-1.4-4.7c-1.4-2.9-3.1-5.9-5-9c-0.7-0.7-1.1-1.8-1.1-3.2c0-1-0.4-1.8-1.1-2.5
		c-0.2-0.7-0.7-0.8-1.4-0.4c-1.2,3.8-1.2,7.3,0,10.4c0.2,2.2,0.4,4.2,0.4,6.1c0,3.4,0.1,6.2,0.4,8.6c0,0.5-0.2,0.7-0.7,0.7
		c-0.2,0.5-0.7,0.7-1.4,0.7c-3.6,1.4-6.7,3.3-9.3,5.7c-2.2,0-4.3,0.1-6.5,0.4c-0.7,0.7-1.3,1.6-1.8,2.5c-0.5,0.5-1.2,1.1-2.2,1.8
		c-1.4-0.2-3-0.8-4.7-1.8c-1.2-1.2-2.5-2-3.9-2.5c-1.4-2.2-2.4-4.3-2.9-6.5c0-4.8,0-9.3,0-13.6c0-2.2,0.2-4.2,0.7-6.1
		c0.7-0.9,0.8-1.7,0.4-2.2c0-0.7,0-1.3,0-1.8c0.7-3.1,1.1-6.3,1.1-9.7c0-1,0-1.9,0-2.9c0.7-2.2,1.1-4.3,1.1-6.5c0-2.4,0-4.9,0-7.5
		c0.5-1.2,0.4-2.2-0.4-2.9c-0.5,0-0.8,0-1.1,0c0.2-6.9,0.4-13.6,0.4-20.1c1-2.2,1.7-4.2,2.2-6.1c-0.5-1.9-0.6-3.8-0.4-5.7
		c0.2-1,0.4-1.8,0.4-2.5c0-7.7-0.1-15.1-0.4-22.2c0.5-1.7,0.4-3.9-0.4-6.8c0-0.7,0.1-1.4,0.4-2.2c0.2-0.9,0.4-1.9,0.4-2.9
		c0.7-0.5,1.1-1.1,1.1-1.8c0.7-1,1-1.7,0.7-2.2c0-0.7-0.4-1.4-1.1-2.2c0.5-0.7,1.1-1.4,1.8-2.2c0.7-0.2,1.6-0.6,2.5-1.1
		c0.7-1,1.4-2,2.2-3.2c2.9-0.2,5.5-1.1,7.9-2.5c1.4,1.4,2.5,3,3.2,4.7c0.7,3.1,1.7,5.7,2.9,7.9c1.2,2.2,2.2,4.5,2.9,7.2
		c0.5,2.6,0.7,5.4,0.7,8.3c0.7,0.7,1,1.4,0.7,2.2c-0.2,2.4,0,4.8,0.7,7.2c0.2,1,0.4,1.9,0.4,2.9c0.5,0.5,0.7,0.5,0.7,0
		c1.4-3.6,2.9-6.5,4.3-8.6c1-1.4,1.8-2.9,2.5-4.3c1.4-3.3,3.2-6.2,5.4-8.6c1.4-1.4,2.5-3.2,3.2-5.4c0.7-1.9,1.7-3.2,2.9-3.9
		c0.7-1,1.2-1.8,1.4-2.5c0.7-1.2,1.2-2.2,1.4-2.9c1.2-3.1,3.2-5,6.1-5.7c0.7,0,1.4,0.2,2.2,0.7c0.7-0.5,1.4-0.4,2.2,0.4
		c0.7,0.5,1.4,0.8,2.2,1.1c1,2.6,1.8,5,2.5,7.2v3.2c-1.4,2.2-2.4,4.3-2.9,6.5c0.7,1,1.2,1.4,1.4,1.4c0.5,0,0.7,0.2,0.7,0.7
		c-0.2,1.9-0.7,3.5-1.4,4.7c-1.2,1.2-2.3,2.5-3.2,3.9c-1,0.5-1.8,1.1-2.5,1.8c-0.2,1.2-0.7,2.3-1.4,3.2c-0.2,0.7-0.7,1.4-1.4,2.2
		c0,1-0.2,1.9-0.7,2.9c-0.7,1.4-1.4,2.8-2.2,3.9c-2.2,2.9-4.2,6.5-6.1,10.8c-0.5,2.9-1.8,5.4-3.9,7.5c-0.5,0.7-0.7,1.4-0.7,2.2
		c-0.5,1.4-1.2,3.2-2.2,5.4c-0.7,1.7-1.2,3.2-1.4,4.7c1.4,3.4,2.6,6.2,3.6,8.6c2.2,2.2,4.5,4.7,7.2,7.5c0.7,0.7,1.7,1.7,2.9,2.9
		c0.2,0,0.7,0,1.4,0c1,1.4,2.4,3.6,4.3,6.5c2.2,2.6,3.1,3.9,2.9,3.9c3.6,4.3,6.6,8.9,9,13.6c1,2.4,2.2,5,3.6,7.9
		c0,2.4,0.1,4.8,0.4,7.2C1005.3,139.2,1005.6,140.8,1006,142.4z"/>
	<path fill="#FFFFFF" d="M1091.8,82.5c0.5,0.7,0.7,1.6,0.7,2.5c-0.5,2.2-1.9,4.2-4.3,6.1c-0.7,1.9-1.8,3.8-3.2,5.7
		c-0.2,1-0.7,1.9-1.4,2.9c-0.7,0.5-1.3,1-1.8,1.4c-1,1.9-2.8,3.9-5.4,6.1c-2.2,2.9-4.3,5.5-6.5,7.9c-0.7,1.2-1.9,2.2-3.6,2.9
		c-0.7,0.7-1.3,1.3-1.8,1.8c-0.5,0-0.8,0.2-1.1,0.7v1.8c0.2,1.2,0.4,2.2,0.4,2.9c0,0.7,0.2,1.4,0.7,2.2c0,0.7,0.1,1.7,0.4,2.9
		c0.2,1,0.4,1.8,0.4,2.5c0,1,0,1.9,0,2.9c0,1-0.2,2.2-0.7,3.6c0,1.4-0.4,2.8-1.1,3.9c-0.7,1.2-1.3,2.5-1.8,3.9
		c-3.4,3.3-6.8,6.3-10.4,9c-1.7,0-3.6,0-5.7,0c-1.9-0.2-3.2-0.7-3.9-1.4c-1-0.5-1.8-0.7-2.5-0.7c-0.7-0.7-1.4-1.4-2.2-2.2
		c-0.7-0.2-1.4-0.4-2.2-0.4c-0.7-1-1.4-1.9-2.2-2.9c-0.7-0.5-1.3-1.4-1.8-2.9c-0.5-1.4-0.4-2.7,0.4-3.9c0.2-0.2,0.1-1.1-0.4-2.5
		c0-1.4,0.2-2.4,0.7-2.9c1-0.7,1.8-1.4,2.5-2.2c0.7-0.7,1.4-1.1,2.2-1.1c0.7-0.7,1.3-1.4,1.8-2.2v-0.4c-1.9-1.9-3.2-3.8-3.9-5.7
		c-0.7-0.7-1.4-1.4-2.2-2.2c-0.7-0.9-1.3-1.7-1.8-2.2c-0.7-1-1.4-1.9-2.2-2.9c-0.7-1-1.4-1.7-2.2-2.2c-0.5-0.7-1.1-1.6-1.8-2.5
		c-0.7-1.2-1.3-2.3-1.8-3.2c-0.5-1-0.8-1.8-1.1-2.5c-0.7-0.7-1.7-1.4-2.9-2.2c-0.7-1-1.4-1.9-2.2-2.9c-0.7-0.7-1.3-1.6-1.8-2.5
		c-0.7-1.4-1.4-2.9-2.2-4.3c0-0.7,0-1.4,0-2.2c0.5-1,0.4-1.8-0.4-2.5c0-0.7,0-1.2,0-1.4c0-1.2,0-2.5,0-3.9c0.7-0.5,0.8-1.1,0.4-1.8
		c0-0.7,0-1.3,0-1.8c1.4-3.8,3.3-7.2,5.7-10c1-1,2-2,3.2-3.2c0.2-0.2,0.6-0.6,1.1-1.1c1-0.9,1.6-1.9,1.8-2.9
		c1.2-1.9,2.5-3.2,3.9-3.9c2.4-0.2,3.9-0.7,4.7-1.4c1.4,0,2.6,0,3.6,0c0.7-0.5,2.4-0.5,5,0c2.6,0,4.7,0.4,6.1,1.1
		c0.5,0,1.7,0.4,3.6,1.1c2.2,0.7,3.7,1.3,4.7,1.8c2.4,0.7,3.9,2.5,4.7,5.4c0,0.7-0.1,1.7-0.4,2.9c0,1.2-1.1,1.6-3.2,1.1
		c-0.5,0-0.8,0-1.1,0c-1.7,1-2.9,1.3-3.6,1.1c-0.2-0.7-0.6-1-1.1-0.7c-1,0-1.9,0.4-2.9,1.1c-1,0-1.8,0.2-2.5,0.7
		c-2.2,0.7-4.3,1.3-6.5,1.8c-0.7,0.7-1.3,1.2-1.8,1.4c-0.5,0-0.8,0.5-1.1,1.4c-0.5,1.4-0.5,2.6,0,3.6c0.7,0.7,1,1.7,0.7,2.9
		c1.2,3.1,2.9,6.5,5,10c0.7,1.2,1.9,2.5,3.6,3.9c2.9,1.9,5.5,4.2,7.9,6.8c1.2,0.7,2.5,1.7,3.9,2.9c1,0.7,1.4,1.2,1.4,1.4v0.4
		c2.4-1,4.7-2.6,6.8-5c1.2-1,2.2-2,2.9-3.2l0.4-0.7c1.4-1.4,2.7-2.9,3.9-4.3c1.2-1.7,2.4-3.1,3.6-4.3c1-3.1,2.5-5.7,4.7-7.9
		c1.4-1.7,2.6-3.5,3.6-5.4c1-0.5,1.7-0.8,2.2-1.1c0.5-0.7,1.2-0.8,2.2-0.4c0.5,0,1.1,0.5,1.8,1.4
		C1090.7,81.1,1091.1,81.8,1091.8,82.5z M1046.9,138.5c-0.2-1-0.8-1.4-1.8-1.4c-0.7-0.5-1.4-0.4-2.2,0.4c0.5,0,0.4,0.2-0.4,0.7
		c-0.7,0.7-1.3,1.7-1.8,2.9c0,1,0,1.7,0,2.2c1.4-0.7,2.6-1.4,3.6-2.2C1045.4,140.1,1046.2,139.2,1046.9,138.5z"/>
</g>
</svg>
