<?xml version="1.0" encoding="utf-8"?>
<!-- Generator: Adobe Illustrator 17.1.0, SVG Export Plug-In . SVG Version: 6.00 Build 0)  -->
<!DOCTYPE svg PUBLIC "-//W3C//DTD SVG 1.1//EN" "http://www.w3.org/Graphics/SVG/1.1/DTD/svg11.dtd">
<svg version="1.1" id="Layer_1" xmlns="http://www.w3.org/2000/svg" xmlns:xlink="http://www.w3.org/1999/xlink" x="0px" y="0px"
	 viewBox="0 0 613.4 41.1" enable-background="new 0 0 613.4 41.1" xml:space="preserve">
<g>
	<path fill="#FFF800" d="M255.8,11.7c0-5.8-4-11.7-12.9-11.7c-7.3,0-10.9,5.7-11,5.9c-0.4,0.6-0.3,1.3,0.2,1.8l0.7,0.6
		c0.6,0.4,1.4,0.3,1.9-0.2c0.1-0.1,0.2-0.2,0.3-0.3c1-1.1,3.6-4.1,8-4.1c6.2,0,9,4.1,9,8.2c0,3.3-1.9,6.6-6.2,10.9L231,37.4
		c-0.4,0.4-0.6,0.8-0.6,1.3v0.5c0,0.6,0.5,1.2,1.3,1.2h22.4c0.7,0,1.3-0.6,1.3-1.3v-0.9c0-0.7-0.6-1.3-1.3-1.3h-17.8l12.1-12
		C252.1,21.3,255.8,17.2,255.8,11.7z"/>
	<path fill="#FFF800" d="M281.1,0c-9.3,0-14.6,7.5-14.6,20.5c0,12.9,5.5,20.6,14.6,20.6c9.1,0,14.5-7.7,14.5-20.6
		C295.6,7.7,290.2,0,281.1,0z M281.1,37.6c-6.9,0-10.8-6.1-10.8-17.1c0-10.9,3.8-17,10.8-17c6.9,0,10.7,6,10.7,17
		C291.8,31.5,288,37.6,281.1,37.6z"/>
	<path fill="#FFF800" d="M331.8,0.6h-22.2c-0.7,0-1.3,0.6-1.3,1.3v37.4c0,0.7,0.6,1.3,1.3,1.3h1c0.8,0,1.4-0.5,1.4-1.3v-16H329
		c0.4,0,0.7-0.2,0.9-0.3c0.4-0.4,0.4-1.1,0.4-1.6l0-0.2c0-0.7-0.6-1.3-1.3-1.3H312V4.1h19.8c0.7,0,1.3-0.6,1.3-1.3V1.8
		C333,1.1,332.5,0.6,331.8,0.6z"/>
	<path fill="#FFF800" d="M360.9,0c-11.3,0-20.5,9.2-20.5,20.6c0,11.5,9,20.5,20.5,20.5c11.5,0,20.6-9,20.6-20.5
		C381.5,9.2,372.2,0,360.9,0z M360.9,37.5c-9.4,0-17-7.6-17-16.9c0-9.4,7.6-17,17-17c9.4,0,17,7.6,17,17
		C377.9,29.9,370.3,37.5,360.9,37.5z"/>
	<path fill="#FFF800" d="M421.8,0.6h-1.1c-0.8,0-1.3,0.5-1.3,1.3v24c0,7-4.5,11.6-11.4,11.6c-6.9,0-11.3-4.6-11.3-11.6V1.8
		c0-0.7-0.6-1.3-1.3-1.3h-1.2c-0.7,0-1.3,0.6-1.3,1.3V26c0,9,6,15,15,15c9.1,0,15.1-6,15.1-15V1.8C423.1,1.1,422.5,0.6,421.8,0.6z"
		/>
	<path fill="#FFF800" d="M464.9,12.8c0-6.9-5.7-12.3-12.9-12.3h-13.8c-0.7,0-1.3,0.5-1.3,1.3v37.4c0,0.7,0.6,1.3,1.3,1.3h1
		c0.8,0,1.4-0.5,1.4-1.3V25.5h9.7c0.6,0,1.1,0,1.7,0l7.8,14.1c0.4,0.7,0.8,1,1.7,1h1.4c0.4,0,0.8-0.2,1-0.5c0.2-0.4,0.2-0.9-0.1-1.3
		L456,24.9C461.3,23.1,464.9,18.3,464.9,12.8z M461.1,12.8c0,5.1-4.1,9-9.3,9h-11.1V4.2h11.1C457,4.2,461.1,8,461.1,12.8z"/>
	<path fill="#FFF800" d="M497.3,0.6h-23.9c-0.7,0-1.3,0.5-1.3,1.3v0.8c0,1.3,0.9,1.4,1.3,1.4h10v35.2c0,0.7,0.6,1.3,1.3,1.3h1
		c0.8,0,1.4-0.5,1.4-1.3V4.1h10.1c0.7,0,1.3-0.5,1.3-1.3V1.8C498.6,1.1,498.1,0.6,497.3,0.6z"/>
	<path fill="#FFF800" d="M532.2,0.6H510c-0.7,0-1.3,0.6-1.3,1.3v37.4c0,0.7,0.6,1.3,1.3,1.3h22.2c0.7,0,1.3-0.6,1.3-1.3v-0.9
		c0-0.7-0.6-1.3-1.3-1.3h-19.7V21.7h17c0.7,0,1.3-0.6,1.3-1.3v-0.9c0-0.7-0.6-1.3-1.3-1.3h-17V4.1h19.7c0.7,0,1.3-0.6,1.3-1.3V1.8
		C533.5,1.1,532.9,0.6,532.2,0.6z"/>
	<path fill="#FFF800" d="M568.5,0.6h-22.2c-0.7,0-1.3,0.6-1.3,1.3v37.4c0,0.7,0.6,1.3,1.3,1.3h22.2c0.7,0,1.3-0.6,1.3-1.3v-0.9
		c0-0.7-0.6-1.3-1.3-1.3h-19.7V21.7h17c0.7,0,1.3-0.6,1.3-1.3v-0.9c0-0.7-0.6-1.3-1.3-1.3h-17V4.1h19.7c0.7,0,1.3-0.6,1.3-1.3V1.8
		C569.8,1.1,569.2,0.6,568.5,0.6z"/>
	<path fill="#FFF800" d="M612.1,0.6H611c-0.7,0-1.3,0.6-1.3,1.3v31.8l-25.3-33c-0.3-0.5-0.8-0.7-1.3-0.7h-0.4
		c-0.8,0-1.4,0.5-1.4,1.3v37.9c0,0.7,0.6,1.3,1.3,1.3h1.1c0.7,0,1.3-0.6,1.3-1.3V7.1l25.6,33.3c0.3,0.5,0.8,0.7,1.3,0.7h0.2
		c0.8,0,1.4-0.5,1.4-1.3V1.8C613.4,1.1,612.8,0.6,612.1,0.6z"/>
</g>
<g>
	<path fill="#FFF800" d="M97.7,2.2c-0.1-0.9-0.8-1.6-1.7-1.7h0h0h-0.1c-0.4,0-0.7,0.1-1,0.3l0,0c-0.1,0.1-0.2,0.1-0.2,0.2
		c0,0,0,0,0,0c-0.1,0.1-0.1,0.2-0.2,0.2c0,0,0,0,0,0c-0.1,0.1-0.1,0.2-0.1,0.3c0,0,0,0,0,0c0,0.1-0.1,0.2-0.1,0.3c0,0,0,0,0,0.1
		c0,0.1,0,0.1,0,0.2v0.2v0v0v17.8v13C91.3,29.9,68.3,2,67.7,1.3c0,0,0,0,0,0c-0.1-0.1-0.1-0.1-0.1-0.1c0,0,0,0,0,0
		c-0.1-0.1-0.1-0.1-0.2-0.2c0,0,0,0,0,0c-0.1-0.1-0.2-0.1-0.2-0.1c0,0,0,0,0,0c-0.1,0-0.2-0.1-0.3-0.1c0,0,0,0-0.1,0
		c-0.1,0-0.2,0-0.2,0c0,0-0.1,0-0.1,0c0,0-0.1,0-0.1,0h0h0h-0.1c0,0,0,0-0.1,0c0,0,0,0-0.1,0c-0.1,0-0.2,0-0.3,0c0,0,0,0,0,0
		c-0.1,0-0.2,0.1-0.3,0.1c0,0,0,0,0,0c-0.1,0-0.1,0.1-0.2,0.1l0,0c0,0,0,0,0,0c0,0,0,0,0,0L65,1c0,0,0,0,0,0C65,1,65,1,65,1.1
		c0,0,0,0,0,0c-0.1,0.1-0.1,0.2-0.2,0.2c0,0,0,0,0,0c-0.1,0.1-0.1,0.2-0.1,0.3c0,0,0,0,0,0c0,0.1-0.1,0.2-0.1,0.3c0,0,0,0,0,0.1
		c0,0,0,0.1,0,0.1c0,0,0,0,0,0c0,0,0,0,0,0.1v0.2v0v0v17.8v17.8v0v0v0.2c0,0,0,0,0,0.1c0,0,0,0,0,0c0,0,0,0.1,0,0.1c0,0,0,0,0,0.1
		c0,0.1,0,0.2,0.1,0.3c0,0,0,0,0,0c0,0.1,0.1,0.2,0.1,0.3c0,0,0,0,0,0c0.1,0.1,0.1,0.2,0.2,0.2c0,0,0,0,0,0c0,0,0.1,0.1,0.1,0.1
		c0,0,0,0,0,0l0.1,0.1c0,0,0,0,0,0c0,0,0,0,0,0l0,0c0.1,0,0.1,0.1,0.2,0.1c0,0,0,0,0,0c0.1,0,0.2,0.1,0.3,0.1c0,0,0,0,0,0
		c0.1,0,0.2,0,0.3,0c0,0,0,0,0.1,0c0,0,0,0,0.1,0h0h0.1h0c0,0,0.1,0,0.1,0c0,0,0.1,0,0.1,0c0.1,0,0.2,0,0.3,0c0,0,0,0,0.1,0
		c0.1,0,0.2-0.1,0.3-0.1c0,0,0,0,0,0c0.1,0,0.2-0.1,0.2-0.1c0,0,0,0,0,0c0.1-0.1,0.1-0.1,0.2-0.2c0,0,0,0,0,0c0,0,0,0,0.1-0.1
		c0,0,0,0,0,0c0.6-0.7,3.3-4,6.7-8.1c0,0,0,0,0,0c-0.1,0.1,2.9-3.5,6.7-8.1l13.4,16.2c0.1,0.1,0.1,0.1,0.2,0.2c0,0,0,0,0,0
		c0.1,0.1,0.2,0.1,0.2,0.2l0,0c0.1,0,0.1,0.1,0.2,0.1c0,0,0,0,0,0c0.1,0,0.2,0.1,0.3,0.1c0,0,0,0,0,0c0.1,0,0.2,0,0.3,0.1
		c0,0,0.1,0,0.1,0c0,0,0.1,0,0.1,0h0H96h0c0,0,0,0,0.1,0c0,0,0.1,0,0.1,0c0.1,0,0.1,0,0.2,0c0,0,0.1,0,0.1,0c0.1,0,0.1,0,0.2-0.1
		c0,0,0.1,0,0.1-0.1c0.1,0,0.1-0.1,0.2-0.1c0,0,0,0,0,0l0.1-0.1c0,0,0,0,0,0c0,0,0.1-0.1,0.1-0.1c0,0,0.1-0.1,0.1-0.1c0,0,0,0,0-0.1
		c0-0.1,0.1-0.1,0.1-0.2c0,0,0,0,0,0c0-0.1,0.1-0.2,0.1-0.3c0,0,0,0,0,0c0-0.1,0-0.2,0.1-0.3l0,0v0c0-0.1,0-0.2,0-0.3
		c0-1.6,0-9.7,0-17.8C97.7,11.2,97.7,2.2,97.7,2.2z M68,33.3c0-3.4,0-8.2,0-13c0-4.8,0-9.6,0-13l10.8,13L68,33.3z"/>
	<path fill="#FFF800" d="M157.5,0.6C157.5,0.6,157.5,0.6,157.5,0.6c-0.1,0-0.1,0-0.1,0h-5.1h-19.9h-5.1h-0.2
		c-0.9,0.1-1.5,0.8-1.6,1.6v0.1c0,0.9,0.8,1.6,1.7,1.6c0,0,0.1,0,0.1,0c0,0,0,0,0,0h5.1h8.2v34.1v0.2c0.1,0.9,0.8,1.6,1.7,1.6h0.1
		c1,0,1.7-0.8,1.7-1.8c0,0,0-0.1,0-0.1c0,0,0,0,0,0V3.9h8.2h5.1h0.2c0.9-0.1,1.5-0.8,1.6-1.6V2.2C159.2,1.3,158.4,0.6,157.5,0.6"/>
	<path fill="#FFF800" d="M115.9,2.2c-0.1-0.9-0.8-1.6-1.7-1.7H114c-1,0-1.7,0.8-1.7,1.8c0,0,0,0.1,0,0.1c0,0,0,0,0,0v35.6v0.2
		c0.1,0.9,0.8,1.6,1.7,1.7h0.1c0.9,0,1.7-0.8,1.7-1.7C115.9,38.6,115.9,2.2,115.9,2.2 M115.9,38.1C115.9,38.1,115.9,38.1,115.9,38.1
		C115.9,38.1,115.9,38.1,115.9,38.1"/>
	<path fill="#FFF800" d="M3.5,2.4V2.2C3.5,1.3,2.7,0.6,1.8,0.5H1.7C0.8,0.6,0,1.4,0,2.3c0,0,0,0.1,0,0.1c0,0,0,0,0,0l0,31.1l0,4.5
		l0,0.2c0.1,0.9,0.8,1.6,1.7,1.7h0.1c0.9,0,1.7-0.8,1.7-1.7c0,0.3,0-32.5,0-32.5l0,0V2.4z M3.5,38.1C3.5,38.1,3.5,38.1,3.5,38.1
		C3.5,38.1,3.5,38.1,3.5,38.1"/>
	<g>
		<path fill="#FFF800" d="M172.5,4.1c6,0,24.6,0,24.6,0c0.9-0.1,1.6-0.8,1.7-1.7V2.3c0-1-0.8-1.7-1.8-1.7c0,0-0.1,0-0.1,0
			c0,0,0,0,0,0h-25.9h0c0,0,0,0-0.1,0h-0.1c-0.9,0-1.6,0.7-1.7,1.7v0.2v2.2v5v21.3v5v2.2c0,0,0,0,0,0c0,0,0,0.1,0,0.1
			c0,0.4,0.1,0.7,0.3,1c0,0,0,0,0,0c0.1,0.1,0.1,0.2,0.2,0.2c0,0,0,0,0,0c0.1,0.1,0.1,0.1,0.2,0.2c0,0,0.1,0,0.1,0.1
			c0.1,0,0.1,0.1,0.2,0.1c0.1,0,0.1,0.1,0.2,0.1c0,0,0.1,0,0.1,0c0.1,0,0.2,0,0.4,0c-0.3,0,26.4,0,26.4,0c0.9-0.1,1.6-0.8,1.7-1.7
			v-0.1c0-1-0.8-1.7-1.8-1.7c0,0-0.1,0-0.1,0c0,0,0,0,0,0h-24.3c0-1,0-2.4,0-4.1c0-0.1,0-0.1,0-0.2c5.7-5.7,10.8-10.8,10.7-10.7
			c0.3-0.3,0.5-0.8,0.5-1.2c0-0.4-0.2-0.9-0.5-1.2c0.1,0.1-5-5-10.7-10.7c0-0.1,0-0.1,0-0.2C172.5,6.5,172.5,5.1,172.5,4.1z
			 M183,21.6C183,21.6,183,21.6,183,21.6C183,21.6,183,21.6,183,21.6z M183,18.9C183,18.9,183,18.9,183,18.9
			C183,18.9,183,18.9,183,18.9z M179.3,20.2l-6.9,6.9c0-4.4,0-9.4,0-13.8L179.3,20.2z"/>
	</g>
	<path fill="#FFF800" d="M51.7,21.2c-0.1-0.9-0.8-1.6-1.6-1.7H35.9h0h0h0h-0.6h-0.2c-0.9,0.1-1.6,0.8-1.7,1.7v0.1
		c0,0.5,0.2,0.9,0.5,1.2c0,0,0.1,0.1,0,0c0,0,7.9,7.9,12.2,12.2c-3.1,1.5-7,2.4-10.6,2.4c-10.4,0-17.4-6.7-17.4-16.8
		c0-10.1,7-16.9,17.3-16.9c4.5,0,8.2,1.3,11.7,4.1c0.3,0.2,0.6,0.3,1,0.3c0.5,0,0.9-0.2,1.2-0.5l0.1-0.2c0.2-0.3,0.3-0.6,0.3-1
		c0-0.5-0.2-1-0.6-1.3l0,0c0,0,0,0,0,0c0,0,0,0,0,0C45,1.5,40.7,0,35.4,0C23.1,0,14.5,8.4,14.5,20.3c0,11.9,8.6,20.2,20.9,20.2
		c4.4,0,9.4-1.2,13.3-3.2c0.2-0.1,0.3-0.2,0.5-0.3h0c0.7-0.4,1.3-0.7,1.8-1.1c0,0,0,0,0,0c0.4-0.3,0.7-0.8,0.8-1.3c0,0,0-0.1,0-0.1
		c0-2.1,0-7.7,0-11.5C51.7,23,51.7,21.2,51.7,21.2z M39.5,23c2.5,0,6.4,0,8.7,0v8.7L39.5,23z"/>
</g>
</svg>
