<?xml version="1.0" encoding="utf-8"?>
<!-- Generator: Adobe Illustrator 17.1.0, SVG Export Plug-In . SVG Version: 6.00 Build 0)  -->
<!DOCTYPE svg PUBLIC "-//W3C//DTD SVG 1.1//EN" "http://www.w3.org/Graphics/SVG/1.1/DTD/svg11.dtd">
<svg version="1.1" id="Layer_1" xmlns="http://www.w3.org/2000/svg" xmlns:xlink="http://www.w3.org/1999/xlink" x="0px" y="0px"
	 viewBox="0 0 752.2 135.2" enable-background="new 0 0 752.2 135.2" xml:space="preserve">
<g>
	<path fill="#FFFFFF" d="M26.6,4v112.7c0,1.1-0.9,2-2,2h-9.2c-1.1,0-1.8-0.9-1.8-2V22.9H2c-1.1,0-2-0.9-2-2V16c0-1.1,0.9-2,1.8-2
		C16.2,8.8,12.4,2,18.5,2c1.4,0,6.1,0,6.1,0C25.7,2,26.6,2.9,26.6,4z"/>
	<path fill="#FFFFFF" d="M95,89.6c0,19.4-9,31-27,31c-16.4,0-26.3-11.3-26.3-28.3v-11c0-0.9,0.7-2,1.8-2h9.5c0.9,0,1.8,1.1,1.8,2
		v11.9c0,7.7,3.8,15.5,13.5,15.5c12.6,0,13.1-10.6,13.1-18.2V78.3c0-10.8-14-13.9-17.3-14c-1.8,0-1.8-0.9-1.8-2v-8.6
		c0-0.7,0.5-1.4,1.6-2c0,0,17.8-5.6,17.8-17.8v-4.5c0-10.8-4.1-16.4-13.3-16.4c-9.5,0-12.8,6.7-12.8,14.4v10.1
		c0,0.9-0.9,1.8-1.8,1.8H43.9c-1.1,0-1.8-0.9-1.8-1.8v-9.4C42.1,11,52.6,0,68.9,0C86.6,0,95,11.9,95,29c0,0,0,0.9,0,3.1
		c0,14.9-13,25.2-18.2,25.2c0,0,18.2,3.1,18.2,24.5V89.6z"/>
	<path fill="#FFFFFF" d="M160.4,107.5v9.2c0,1.1-0.9,2-2,2h-48.8c-1.1,0-2-0.9-2-2c0,0,0-10.3,0-11.5c0-7.9,4-20.9,10.6-28.8
		c3.8-4.7,16-19.3,19.4-23.2c7.7-9.4,9.7-13,9.7-21.4c0-8.8-2.2-19.1-13-19.1c-5.9,0-13.1,2.3-13.1,19.1v6.7c0,1.1-0.9,2-2,2H110
		c-1.1,0-2-0.9-2-2v-7.6C108,12.4,116.8,0,134.8,0c16.6,0,25.7,12.1,25.9,30.2v3.1c0,14.2-6.7,20.9-13.1,29
		c-13.1,15.7-25.9,29-25.9,40.5v2.9h36.7C159.5,105.7,160.4,106.6,160.4,107.5z"/>
	<path fill="#FFFFFF" d="M187.7,107.3v8.8c0,1.8-0.9,3.4-1.4,4.7l-5.8,13.3c-0.4,0.5-0.5,1.1-1.3,1.1h-3.4c-0.7,0-0.9-0.5-0.7-1.1
		l3.6-15.5h-2.9c-1.1,0-1.8-0.7-1.8-1.8v-9.5c0-0.9,0.7-1.8,1.8-1.8h10.1C186.8,105.5,187.7,106.4,187.7,107.3z"/>
	<path fill="#FFFFFF" d="M256.7,79.7v11c0,19.8-9.5,29.9-27.5,29.9c-18.7,0-27-10.1-27.7-29.9v-11c0-7.6,2.5-13.7,6.7-17.8
		c1.3-1.4,2.9-2.5,4.3-3.4c-5.8-4-9.9-10.6-9.9-19.6v-9.7C202.7,11.7,210.1,0,229.1,0c18,0,26.5,11.7,26.5,29.2v9.7
		c0,9-4.1,15.7-9.9,19.6c1.6,0.9,3.1,2,4.3,3.4C254.2,66.1,256.7,72.2,256.7,79.7z M229.1,107.6c7.2,0,13.7-4,13.7-14.8V79.7
		c0-10.3-6.5-14-13.7-14c-7.4,0-13.9,3.8-13.9,14v13.1C215.3,103.7,221.8,107.6,229.1,107.6z M229.1,13c-7.6,0-12.4,4.1-12.4,15.1
		v9.5c0,10.8,4.9,14.9,12.4,14.9c7.4,0,12.2-4.1,12.2-14.9v-9.5C241.4,17.1,236.5,13,229.1,13z"/>
	<path fill="#FFFFFF" d="M323.5,28.3v64.4c0,16.7-10.6,28.1-26.1,28.1c-15.1,0-25.9-11.3-25.9-28.1V28.3c0-16.9,9.7-28.1,25.9-28.1
		C313.9,0.2,323.5,11.3,323.5,28.3z M309.8,28.6c0-11.2-5-15.5-12.4-15.5c-7,0-12.2,4.3-12.2,15.5v63.7c0,11.2,5.2,15.5,12.2,15.5
		c7.4,0,12.4-4.3,12.4-15.5V28.6z"/>
	<path fill="#FFFFFF" d="M392,28.3v64.4c0,16.7-10.6,28.1-26.1,28.1c-15.1,0-25.9-11.3-25.9-28.1V28.3c0-16.9,9.7-28.1,25.9-28.1
		C382.5,0.2,392,11.3,392,28.3z M378.4,28.6c0-11.2-5-15.5-12.4-15.5c-7,0-12.2,4.3-12.2,15.5v63.7c0,11.2,5.2,15.5,12.2,15.5
		c7.4,0,12.4-4.3,12.4-15.5V28.6z"/>
	<path fill="#FFFFFF" d="M512.6,4v112.7c0,1.1-0.9,2-2,2h-8.5c-1.1,0-2-0.9-2-2V32.9L480.6,117c-0.2,0.7-0.9,1.6-1.8,1.6h-9
		c-0.7,0-1.6-0.7-1.8-1.6c-0.2-0.2-18.9-81-19.6-84.1v83.7c0,1.1-0.9,2-2,2h-0.2h-8.3c-1.1,0-2-0.9-2-2V4c0-1.1,0.9-2,2-2h12.2
		c0.9,0,2,0.7,2.2,1.8l22,93.8l22-93.8c0.2-1.1,1.3-1.8,2.2-1.8h12.2C511.7,2,512.6,2.9,512.6,4z"/>
	<path fill="#FFFFFF" d="M551.1,14.9v90.7h8.8c1.1,0,2,0.9,2,1.8v9.4c0,1.1-0.9,1.8-2,1.8h-30.6c-1.1,0-2-0.7-2-1.8v-9.4
		c0-0.9,0.9-1.8,2-1.8h8.8V14.9h-8.8c-1.1,0-2-0.7-2-1.8V3.8c0-1.1,0.9-1.8,2-1.8H560c1.1,0,2,0.7,2,1.8v9.4c0,1.1-0.9,1.8-2,1.8
		H551.1z"/>
	<path fill="#FFFFFF" d="M590.7,105.5H624c1.1,0,1.8,0.7,1.8,1.8v9.5c0,1.1-0.7,1.8-1.8,1.8h-45c-1.1,0-2-0.9-2-2V4c0-1.1,0.9-2,2-2
		h9.7c1.1,0,2,0.9,2,2V105.5z"/>
	<path fill="#FFFFFF" d="M652.5,15.1v35.8h22.9c1.1,0,2,0.9,2,2v8.6c0,1.1-0.9,2-2,2h-22.9v41.9h33.1c1.1,0,2,0.9,2,2v9.2
		c0,1.1-0.9,2-2,2h-44.8c-1.1,0-2-0.9-2-2V4c0-1.1,0.9-2,2-2h44.8c1.1,0,2,0.9,2,2v9.2c0,1.1-0.9,2-2,2H652.5z"/>
	<path fill="#FFFFFF" d="M752.2,83c0,2.9,0,11.2,0,11.2c0,16.2-11.7,26.5-26.6,26.5c-16,0-27.7-11.7-27.7-28.8V81.2
		c0-0.9,0.7-1.8,1.8-1.8h9.5c0.9,0,1.8,0.9,1.8,1.8v13.1c0,10.4,6.7,14.6,14.4,14.4c9.4-0.2,13.1-6.3,13.1-14.4V85
		c0-6.8-2.5-10.3-11.3-18.7l-14-13c-7.4-7-13.3-17.5-13.3-25.7c0-16.7,9.7-27.5,25.9-27.5c16,0,26.3,11.2,26.3,27.9v9.7
		c0,0.9-0.7,1.6-1.6,1.6h-9.9c-0.7,0-1.6-0.7-1.6-1.6V26.8c0-11-5.4-14.9-13.1-14.9c-7.6,0-12.2,5-12.2,15.1
		c0,2.5,0.7,8.5,10.3,17.3c3.1,3.1,17.5,16.6,17.5,16.6C751.5,69.8,752.2,78.7,752.2,83z"/>
</g>
</svg>
