<?xml version="1.0" encoding="utf-8"?>
<!-- Generator: Adobe Illustrator 17.1.0, SVG Export Plug-In . SVG Version: 6.00 Build 0)  -->
<!DOCTYPE svg PUBLIC "-//W3C//DTD SVG 1.1//EN" "http://www.w3.org/Graphics/SVG/1.1/DTD/svg11.dtd">
<svg version="1.1" id="Layer_1" xmlns="http://www.w3.org/2000/svg" xmlns:xlink="http://www.w3.org/1999/xlink" x="0px" y="0px"
	 viewBox="0 0 796.4 130.3" enable-background="new 0 0 796.4 130.3" xml:space="preserve">
<rect x="2" y="2" fill="none" stroke="#353535" stroke-width="4" stroke-linecap="round" stroke-linejoin="round" stroke-miterlimit="10" width="792.4" height="60.3"/>
<rect x="34.3" y="2" fill="#445DD8" stroke="#353535" stroke-width="4" stroke-linecap="round" stroke-linejoin="round" stroke-miterlimit="10" width="388.1" height="60.3"/>
<g>
	<path fill="#353535" d="M245.1,23l-3.3,22.5c0,0.2-0.2,0.4-0.4,0.4h-2.6h0c-0.2,0-0.4-0.2-0.4-0.4l-2.6-17.4l-2.6,17.4
		c0,0.2-0.2,0.4-0.4,0.4h0h-2.6c-0.2,0-0.4-0.2-0.4-0.4L226.6,23c0-0.2,0.2-0.4,0.4-0.4h1.9c0.2,0,0.3,0.1,0.4,0.4v0l2.4,18.7
		l3-18.7c0.1-0.3,0.2-0.4,0.4-0.4h1.7c0.2,0,0.3,0.1,0.4,0.4l3,18.7l2.4-18.7v0c0.1-0.3,0.2-0.4,0.4-0.4h1.9
		C245,22.6,245.1,22.8,245.1,23z"/>
	<path fill="#353535" d="M258.2,27.8v12.9c0,3.3-2.1,5.6-5.3,5.6c-3.2,0-5.3-2.3-5.3-5.6V27.8c0-3.4,1.8-5.6,5.3-5.6
		C256.4,22.2,258.2,24.4,258.2,27.8z M255.5,27.9c0-2.2-1-3.1-2.6-3.1c-1.5,0-2.6,0.8-2.6,3.1v12.8c0,2.2,1,3.1,2.6,3.1
		c1.5,0,2.6-0.8,2.6-3.1V27.9z"/>
	<path fill="#353535" d="M273.3,43.9v1.7c0,0.2-0.1,0.3-0.4,0.3c-3.1,0-3.5-2.4-3.5-6.2c0-3-0.7-3.9-3.4-3.9h-1.7v9.8
		c0,0.2-0.2,0.4-0.4,0.4h-1.8c-0.2,0-0.4-0.2-0.4-0.4V23c0-0.2,0.2-0.4,0.4-0.4h3.9c3.9,0,6.4,2.1,6.4,6.7c0,2.8-1,4.6-2.8,5.1
		c2.3,0.5,2.4,2.6,2.4,4.4c0,0.2,0,2.1,0,2.3c0,2.3,0.6,2.3,1,2.4C273.2,43.5,273.3,43.7,273.3,43.9z M264.4,33.2h1.8
		c3,0,3.6-1.8,3.6-4c0-1.8-0.5-4-3.6-4h-1.8V33.2z"/>
	<path fill="#353535" d="M287.2,45.9h-1.7c-0.3,0-0.5-0.2-0.6-0.4L281,34.5l-2.3,5.1v6c0,0.2-0.2,0.4-0.4,0.4h-1.9
		c-0.2,0-0.4-0.2-0.4-0.4V23c0-0.2,0.2-0.4,0.4-0.4h1.9c0.2,0,0.4,0.3,0.4,0.4v11.4l5-11.4c0.1-0.2,0.2-0.5,0.5-0.5h2.1
		c0.3,0,0.4,0.1,0.3,0.5l-4,8.7l4.9,13.6C287.6,45.7,287.5,45.8,287.2,45.9z"/>
</g>
<g>
	<path fill="#353535" d="M709.1,23l-3.3,22.5c0,0.2-0.2,0.4-0.4,0.4h-2.6h0c-0.2,0-0.4-0.2-0.4-0.4l-2.6-17.4l-2.6,17.4
		c0,0.2-0.2,0.4-0.4,0.4h0h-2.6c-0.2,0-0.4-0.2-0.4-0.4L690.6,23c0-0.2,0.2-0.4,0.4-0.4h1.9c0.2,0,0.3,0.1,0.4,0.4v0l2.4,18.7
		l3-18.7c0.1-0.3,0.2-0.4,0.4-0.4h1.7c0.2,0,0.3,0.1,0.4,0.4l3,18.7l2.4-18.7v0c0.1-0.3,0.2-0.4,0.4-0.4h1.9
		C709,22.6,709.1,22.8,709.1,23z"/>
	<path fill="#353535" d="M722.2,27.8v12.9c0,3.3-2.1,5.6-5.3,5.6c-3.2,0-5.3-2.3-5.3-5.6V27.8c0-3.4,1.8-5.6,5.3-5.6
		C720.4,22.2,722.2,24.4,722.2,27.8z M719.5,27.9c0-2.2-1-3.1-2.6-3.1c-1.5,0-2.6,0.8-2.6,3.1v12.8c0,2.2,1,3.1,2.6,3.1
		c1.5,0,2.6-0.8,2.6-3.1V27.9z"/>
	<path fill="#353535" d="M737.3,43.9v1.7c0,0.2-0.1,0.3-0.4,0.3c-3.1,0-3.5-2.4-3.5-6.2c0-3-0.7-3.9-3.4-3.9h-1.7v9.8
		c0,0.2-0.2,0.4-0.4,0.4h-1.8c-0.2,0-0.4-0.2-0.4-0.4V23c0-0.2,0.2-0.4,0.4-0.4h3.9c3.9,0,6.4,2.1,6.4,6.7c0,2.8-1,4.6-2.8,5.1
		c2.3,0.5,2.4,2.6,2.4,4.4c0,0.2,0,2.1,0,2.3c0,2.3,0.6,2.3,1,2.4C737.2,43.5,737.3,43.7,737.3,43.9z M728.4,33.2h1.8
		c3,0,3.6-1.8,3.6-4c0-1.8-0.5-4-3.6-4h-1.8V33.2z"/>
	<path fill="#353535" d="M751.2,45.9h-1.7c-0.3,0-0.5-0.2-0.6-0.4L745,34.5l-2.3,5.1v6c0,0.2-0.2,0.4-0.4,0.4h-1.9
		c-0.2,0-0.4-0.2-0.4-0.4V23c0-0.2,0.2-0.4,0.4-0.4h1.9c0.2,0,0.4,0.3,0.4,0.4v11.4l5-11.4c0.1-0.2,0.2-0.5,0.5-0.5h2.1
		c0.3,0,0.4,0.1,0.3,0.5l-4,8.7l4.9,13.6C751.6,45.7,751.5,45.8,751.2,45.9z"/>
</g>
<rect x="509.3" y="2" fill="#445DD8" stroke="#353535" stroke-width="4" stroke-linecap="round" stroke-linejoin="round" stroke-miterlimit="10" width="106.5" height="60.3"/>
<g>
	<path fill="#353535" d="M533.3,23.1v22.5c0,0.2-0.2,0.4-0.4,0.4h-1.7c-0.2,0-0.4-0.2-0.4-0.4V28.9l-3.9,16.8c0,0.1-0.2,0.3-0.4,0.3
		h-1.8c-0.1,0-0.3-0.1-0.4-0.3c0,0-3.8-16.2-3.9-16.8v16.7c0,0.2-0.2,0.4-0.4,0.4h0h-1.7c-0.2,0-0.4-0.2-0.4-0.4V23.1
		c0-0.2,0.2-0.4,0.4-0.4h2.4c0.2,0,0.4,0.1,0.4,0.4l4.4,18.8L530,23c0-0.2,0.3-0.4,0.4-0.4h2.4C533.1,22.7,533.3,22.9,533.3,23.1z"
		/>
	<path fill="#353535" d="M539.6,25.3v7.2h4.6c0.2,0,0.4,0.2,0.4,0.4v1.7c0,0.2-0.2,0.4-0.4,0.4h-4.6v8.4h6.6c0.2,0,0.4,0.2,0.4,0.4
		v1.8c0,0.2-0.2,0.4-0.4,0.4h-9c-0.2,0-0.4-0.2-0.4-0.4V23.1c0-0.2,0.2-0.4,0.4-0.4h9c0.2,0,0.4,0.2,0.4,0.4v1.8
		c0,0.2-0.2,0.4-0.4,0.4H539.6z"/>
	<path fill="#353535" d="M552.1,25.3v7.2h4.6c0.2,0,0.4,0.2,0.4,0.4v1.7c0,0.2-0.2,0.4-0.4,0.4h-4.6v8.4h6.6c0.2,0,0.4,0.2,0.4,0.4
		v1.8c0,0.2-0.2,0.4-0.4,0.4h-9c-0.2,0-0.4-0.2-0.4-0.4V23.1c0-0.2,0.2-0.4,0.4-0.4h9c0.2,0,0.4,0.2,0.4,0.4v1.8
		c0,0.2-0.2,0.4-0.4,0.4H552.1z"/>
	<path fill="#353535" d="M571.2,23.1v1.8c0,0.2-0.2,0.4-0.4,0.4h-3.4v20.3c0,0.2-0.2,0.4-0.4,0.4h-1.9c-0.2,0-0.4-0.2-0.4-0.4V25.3
		h-3.4c-0.2,0-0.4-0.2-0.4-0.4v-1.8c0-0.2,0.2-0.4,0.4-0.4h9.5C571,22.7,571.2,22.9,571.2,23.1z"/>
	<path fill="#353535" d="M577.9,25.3v18.1h1.8c0.2,0,0.4,0.2,0.4,0.4v1.9c0,0.2-0.2,0.4-0.4,0.4h-6.1c-0.2,0-0.4-0.1-0.4-0.4v-1.9
		c0-0.2,0.2-0.4,0.4-0.4h1.8V25.3h-1.8c-0.2,0-0.4-0.1-0.4-0.4V23c0-0.2,0.2-0.4,0.4-0.4h6.1c0.2,0,0.4,0.1,0.4,0.4v1.9
		c0,0.2-0.2,0.4-0.4,0.4H577.9z"/>
	<path fill="#353535" d="M594.6,23.1v22.5c0,0.2-0.2,0.4-0.4,0.4h-1.8c-0.2,0-0.5-0.3-0.6-0.4l-6.3-16.3v16.3c0,0.2-0.1,0.4-0.4,0.4
		h-1.8c-0.2,0-0.4-0.2-0.4-0.4V23.1c0-0.2,0.2-0.4,0.4-0.4h1.8c0.2,0,0.4,0.1,0.4,0.4l6.4,17.3V23.1c0-0.2,0.1-0.4,0.4-0.4h1.8
		C594.4,22.7,594.6,22.9,594.6,23.1z"/>
	<path fill="#353535" d="M609.1,35.2v10.5c0,0.1-0.1,0.3-0.3,0.3h-0.7c-0.1,0-0.3-0.1-0.3-0.2l-0.2-1.1c-1,1.1-2.4,1.7-4.1,1.7
		c-3.2,0-5.5-2.3-5.5-5.6V27.9c0-3.4,1.8-5.6,5.3-5.6c3.5,0,5.3,2.2,5.3,5.6v2.2c0,0.2-0.2,0.4-0.4,0.4h-1.9c-0.2,0-0.4-0.2-0.4-0.4
		v-2.1c0-2.2-1.1-3.1-2.6-3.1c-1.5,0-2.6,0.8-2.6,3.1v12.8c0,2.2,1.3,3.1,2.8,3.1c1.5,0,2.8-0.8,2.8-3.1v-3.4h-1.5
		c-0.2,0-0.4-0.1-0.4-0.4v-1.8c0-0.2,0.2-0.4,0.4-0.4h3.9C608.9,34.8,609.1,35,609.1,35.2z"/>
</g>
<rect x="615.8" y="2" fill="#445DD8" stroke="#353535" stroke-width="4" stroke-linecap="round" stroke-linejoin="round" stroke-miterlimit="10" width="31.3" height="60.3"/>
<rect x="2.7" y="2" fill="#445DD8" stroke="#353535" stroke-width="4" stroke-linecap="round" stroke-linejoin="round" stroke-miterlimit="10" width="106.5" height="60.3"/>
<g>
	<path fill="#353535" d="M20.3,25.3v7.2h4.6c0.2,0,0.4,0.2,0.4,0.4v1.7c0,0.2-0.2,0.4-0.4,0.4h-4.6v8.4h6.6c0.2,0,0.4,0.2,0.4,0.4
		v1.8c0,0.2-0.2,0.4-0.4,0.4h-9c-0.2,0-0.4-0.2-0.4-0.4V23.1c0-0.2,0.2-0.4,0.4-0.4h9c0.2,0,0.4,0.2,0.4,0.4v1.8
		c0,0.2-0.2,0.4-0.4,0.4H20.3z"/>
	<path fill="#353535" d="M45.4,23.1v22.5c0,0.2-0.2,0.4-0.4,0.4h-1.7c-0.2,0-0.4-0.2-0.4-0.4V28.9L39,45.7c0,0.1-0.2,0.3-0.4,0.3
		h-1.8c-0.1,0-0.3-0.1-0.4-0.3c0,0-3.8-16.2-3.9-16.8v16.7c0,0.2-0.2,0.4-0.4,0.4h0h-1.7c-0.2,0-0.4-0.2-0.4-0.4V23.1
		c0-0.2,0.2-0.4,0.4-0.4h2.4c0.2,0,0.4,0.1,0.4,0.4l4.4,18.8L42.1,23c0-0.2,0.3-0.4,0.4-0.4H45C45.2,22.7,45.4,22.9,45.4,23.1z"/>
	<path fill="#353535" d="M60.1,45.6c0,0.2-0.2,0.4-0.4,0.4h-2c-0.2,0-0.4-0.1-0.4-0.4l-0.7-4.5h-5.3l-0.7,4.5
		c-0.1,0.3-0.2,0.4-0.4,0.4h-2c-0.2,0-0.4-0.2-0.4-0.4l4.2-22.5c0.1-0.2,0.2-0.4,0.4-0.4h3c0.2,0,0.3,0.2,0.4,0.4L60.1,45.6z
		 M56.2,38.6l-2.2-13l-2.2,13H56.2z"/>
	<path fill="#353535" d="M66.9,25.3v18.1h1.8c0.2,0,0.4,0.2,0.4,0.4v1.9c0,0.2-0.2,0.4-0.4,0.4h-6.1c-0.2,0-0.4-0.1-0.4-0.4v-1.9
		c0-0.2,0.2-0.4,0.4-0.4h1.8V25.3h-1.8c-0.2,0-0.4-0.1-0.4-0.4V23c0-0.2,0.2-0.4,0.4-0.4h6.1c0.2,0,0.4,0.1,0.4,0.4v1.9
		c0,0.2-0.2,0.4-0.4,0.4H66.9z"/>
	<path fill="#353535" d="M74.8,43.4h6.7c0.2,0,0.4,0.1,0.4,0.4v1.9c0,0.2-0.1,0.4-0.4,0.4h-9c-0.2,0-0.4-0.2-0.4-0.4V23.1
		c0-0.2,0.2-0.4,0.4-0.4h1.9c0.2,0,0.4,0.2,0.4,0.4V43.4z"/>
	<path fill="#353535" d="M94.7,38.9c0,0.6,0,2.2,0,2.2c0,3.2-2.3,5.3-5.3,5.3c-3.2,0-5.5-2.3-5.5-5.8v-2.1c0-0.2,0.1-0.4,0.4-0.4
		h1.9c0.2,0,0.4,0.2,0.4,0.4v2.6c0,2.1,1.3,2.9,2.9,2.9c1.9,0,2.6-1.3,2.6-2.9v-1.9c0-1.4-0.5-2.1-2.3-3.7l-2.8-2.6
		c-1.5-1.4-2.7-3.5-2.7-5.1c0-3.3,1.9-5.5,5.2-5.5c3.2,0,5.3,2.2,5.3,5.6v1.9c0,0.2-0.1,0.3-0.3,0.3h-2c-0.1,0-0.3-0.1-0.3-0.3v-2.2
		c0-2.2-1.1-3-2.6-3c-1.5,0-2.4,1-2.4,3c0,0.5,0.1,1.7,2.1,3.5c0.6,0.6,3.5,3.3,3.5,3.3C94.6,36.2,94.7,38,94.7,38.9z"/>
</g>
<rect x="404.7" y="2" fill="#445DD8" stroke="#353535" stroke-width="4" stroke-linecap="round" stroke-linejoin="round" stroke-miterlimit="10" width="106.5" height="60.3"/>
<g>
	<path fill="#353535" d="M427.7,43.4h6.7c0.2,0,0.4,0.1,0.4,0.4v1.9c0,0.2-0.1,0.4-0.4,0.4h-9c-0.2,0-0.4-0.2-0.4-0.4V23.1
		c0-0.2,0.2-0.4,0.4-0.4h1.9c0.2,0,0.4,0.2,0.4,0.4V43.4z"/>
	<path fill="#353535" d="M447.9,23.1v17.7c0,3.3-2.1,5.6-5.3,5.6c-3.2,0-5.3-2.3-5.3-5.6V23.1c0-0.2,0.2-0.4,0.4-0.4h1.9
		c0.2,0,0.4,0.2,0.4,0.4v17.7c0,2.2,1.1,3.1,2.6,3.1c1.5,0,2.6-0.8,2.6-3.1V23.1c0-0.2,0.2-0.4,0.4-0.4h1.9
		C447.8,22.7,447.9,22.9,447.9,23.1z"/>
	<path fill="#353535" d="M463,23.1v22.5c0,0.2-0.2,0.4-0.4,0.4h-1.8c-0.2,0-0.5-0.3-0.6-0.4l-6.3-16.3v16.3c0,0.2-0.1,0.4-0.4,0.4
		h-1.8c-0.2,0-0.4-0.2-0.4-0.4V23.1c0-0.2,0.2-0.4,0.4-0.4h1.8c0.2,0,0.4,0.1,0.4,0.4l6.4,17.3V23.1c0-0.2,0.1-0.4,0.4-0.4h1.8
		C462.8,22.7,463,22.9,463,23.1z"/>
	<path fill="#353535" d="M477,27.9v2.2c0,0.2-0.2,0.4-0.4,0.4h-1.9c-0.2,0-0.4-0.2-0.4-0.4v-2.1c0-2.2-1.1-3.1-2.7-3.1
		c-1.5,0-2.6,0.8-2.6,3.1v12.8c0,2.2,1.1,3.1,2.6,3.1c1.5,0,2.7-0.8,2.7-3.1v-2.2c0-0.2,0.2-0.4,0.4-0.4h1.9c0.2,0,0.4,0.2,0.4,0.4
		v2.2c0,3.3-2.1,5.6-5.3,5.6c-3.2,0-5.3-2.3-5.3-5.6V27.9c0-3.4,1.8-5.6,5.3-5.6C475.1,22.3,477,24.5,477,27.9z"/>
	<path fill="#353535" d="M490.6,23.1v22.5c0,0.2-0.2,0.4-0.4,0.4h-2c-0.2,0-0.4-0.2-0.4-0.4V35.3h-5.3v10.3c0,0.2-0.1,0.4-0.4,0.4
		h-2c-0.2,0-0.4-0.2-0.4-0.4V23.1c0-0.2,0.2-0.4,0.4-0.4h2c0.2,0,0.4,0.2,0.4,0.4v9.7h5.3v-9.7c0-0.2,0.1-0.4,0.4-0.4h2
		C490.5,22.7,490.6,22.9,490.6,23.1z"/>
</g>
<g>
	<g>
		<g>
			<path fill="#353535" d="M508.5,95.3h6.7v1.4H510v4.3h3.8v1.4H510v6.3h-1.5V95.3z"/>
			<path fill="#353535" d="M516.4,103.9c0-3.3,1.6-5,3.8-5c2.1,0,3.7,1.7,3.7,5c0,3.3-1.6,5-3.7,5
				C518.1,108.8,516.4,107.1,516.4,103.9z M522.5,103.9c0-2.1-0.7-3.7-2.3-3.7c-1.5,0-2.3,1.5-2.3,3.7c0,2.1,0.7,3.7,2.3,3.7
				C521.7,107.6,522.5,106.1,522.5,103.9z"/>
			<path fill="#353535" d="M525.3,103.9c0-3.3,1.6-5,3.8-5c2.1,0,3.7,1.7,3.7,5c0,3.3-1.6,5-3.7,5S525.3,107.1,525.3,103.9z
				 M531.4,103.9c0-2.1-0.7-3.7-2.3-3.7c-1.5,0-2.3,1.5-2.3,3.7c0,2.1,0.7,3.7,2.3,3.7C530.6,107.6,531.4,106.1,531.4,103.9z"/>
			<path fill="#353535" d="M533.9,106.9l1-0.7c0.6,1,1.6,1.5,2.6,1.5c1.2,0,1.9-0.5,1.9-1.4c0-2.3-5-1.4-5-4.8c0-1.5,1.2-2.6,3-2.6
				c1.4,0,2.4,0.7,3.1,1.7l-1,0.8c-0.5-0.7-1.2-1.3-2.2-1.3c-1.1,0-1.6,0.5-1.6,1.3c0,2.4,4.9,1.3,4.9,4.8c0,1.7-1.5,2.7-3.3,2.7
				C535.8,108.8,534.6,108.1,533.9,106.9z"/>
			<path fill="#353535" d="M544,107.5v1.1h-1.5V95.3h1.5v5c0.6-0.7,1.4-1.4,2.6-1.4c1.9,0,3.2,1.5,3.2,4.9c0,3.4-1.5,4.9-3.3,4.9
				C545.4,108.8,544.6,108.3,544,107.5z M548.4,103.9c0-2.5-0.9-3.7-2.1-3.7c-0.9,0-1.6,0.6-2.2,1.3v4.8c0.7,0.8,1.4,1.3,2.3,1.3
				C547.5,107.6,548.4,106.5,548.4,103.9z"/>
			<path fill="#353535" d="M551.2,106.4c0-1.9,1.6-3.3,5.3-4v-0.6c0-1.1-0.5-1.6-1.4-1.6c-1.2,0-2.1,0.6-2.8,1.3l-0.8-0.9
				c1-1,2.2-1.7,3.8-1.7c1.9,0,2.7,1,2.7,2.9v4.5c0,1.2,0.1,1.9,0.2,2.3h-1.5c-0.1-0.4-0.2-0.7-0.2-1.2c-0.8,0.8-1.8,1.4-3,1.4
				C552,108.8,551.2,107.9,551.2,106.4z M556.5,106.3v-2.9c-2.9,0.6-3.9,1.6-3.9,2.8c0,1,0.5,1.4,1.3,1.4
				C554.9,107.6,555.8,107.1,556.5,106.3z"/>
			<path fill="#353535" d="M560.2,95.3h1.5v13.3h-1.5V95.3z"/>
			<path fill="#353535" d="M564.2,95.3h1.5v13.3h-1.5V95.3z"/>
			<path fill="#353535" d="M568.9,108.6h-0.7v-1.9h1.7v1.7l-0.8,2h-0.7L568.9,108.6z"/>
			<path fill="#353535" d="M575.2,95.3h1.5l2,7.2c0.4,1.5,0.8,2.8,1.1,4.1h0c0.3-1.3,0.7-2.5,1.1-4l2-7.2h1.4l-3.9,13.4h-1.4
				L575.2,95.3z"/>
			<path fill="#353535" d="M586.1,95.7h1.5v1.6h-1.5V95.7z M586.1,99.1h1.5v9.5h-1.5V99.1z"/>
			<path fill="#353535" d="M589.5,103.9c0-3.4,1.4-5,3.3-5c1.1,0,1.9,0.5,2.6,1.3v-5h1.4v11c0,1.2,0.1,1.9,0.2,2.3h-1.5
				c-0.1-0.3-0.2-0.9-0.2-1.2c-0.6,0.7-1.4,1.4-2.6,1.4C590.9,108.8,589.5,107.3,589.5,103.9z M595.4,106.3v-4.8
				c-0.7-0.8-1.4-1.3-2.3-1.3c-1.3,0-2.1,1.1-2.1,3.7c0,2.5,0.9,3.7,2.2,3.7C594,107.6,594.8,107,595.4,106.3z"/>
			<path fill="#353535" d="M598.6,103.9c0-3.4,1.8-5,3.7-5c2.1,0,3.4,1.7,3.4,4.9v0.4h-5.6c0.1,2.2,0.9,3.4,2.3,3.4
				c1.1,0,1.7-0.6,2.3-1.7l1,0.6c-0.7,1.4-1.8,2.3-3.3,2.3C600.2,108.8,598.6,107.2,598.6,103.9z M604.3,103.1
				c-0.1-1.7-0.7-2.9-2-2.9c-1.1,0-2,0.9-2.2,2.9H604.3z"/>
			<path fill="#353535" d="M607.1,103.9c0-3.3,1.6-5,3.8-5c2.1,0,3.7,1.7,3.7,5c0,3.3-1.6,5-3.7,5
				C608.7,108.8,607.1,107.1,607.1,103.9z M613.1,103.9c0-2.1-0.7-3.7-2.3-3.7c-1.5,0-2.3,1.5-2.3,3.7c0,2.1,0.7,3.7,2.3,3.7
				C612.4,107.6,613.1,106.1,613.1,103.9z"/>
			<path fill="#353535" d="M619.7,101.9c0-4.3,1.8-6.9,4.8-6.9c2.4,0,3.6,1.6,4.1,4.2l-1.4,0.3c-0.5-2.1-1.2-3.1-2.8-3.1
				c-1.9,0-3.2,1.9-3.2,5.5c0,3.8,1.2,5.6,3.3,5.6c1.8,0,2.8-1.3,2.8-4h-2.5v-1.3h3.9v6.4h-1.2v-1.8h0c-0.4,1-1.5,2.1-3.1,2.1
				C621.4,108.9,619.7,106.4,619.7,101.9z"/>
			<path fill="#353535" d="M630.5,106.4c0-1.9,1.6-3.3,5.3-4v-0.6c0-1.1-0.5-1.6-1.4-1.6c-1.2,0-2.1,0.6-2.8,1.3l-0.8-0.9
				c1-1,2.2-1.7,3.8-1.7c1.9,0,2.7,1,2.7,2.9v4.5c0,1.2,0.1,1.9,0.2,2.3H636c-0.1-0.4-0.2-0.7-0.2-1.2c-0.8,0.8-1.8,1.4-3,1.4
				C631.4,108.8,630.5,107.9,630.5,106.4z M635.8,106.3v-2.9c-2.9,0.6-3.9,1.6-3.9,2.8c0,1,0.5,1.4,1.3,1.4
				C634.3,107.6,635.2,107.1,635.8,106.3z"/>
			<path fill="#353535" d="M639.5,99.1h1.5v1.3c0.7-0.7,1.7-1.5,2.9-1.5c1.3,0,1.9,0.5,2.2,1.5c0.7-0.8,1.7-1.5,3-1.5
				c1.5,0,2.3,0.9,2.3,2.6v7.1h-1.4v-6.8c0-1.1-0.4-1.7-1.3-1.7c-0.9,0-1.7,0.6-2.4,1.3v7.1h-1.5v-6.8c0-1.1-0.3-1.7-1.3-1.7
				c-0.8,0-1.6,0.6-2.4,1.4v7.1h-1.5V99.1z"/>
			<path fill="#353535" d="M653.1,103.9c0-3.4,1.8-5,3.7-5c2.1,0,3.4,1.7,3.4,4.9v0.4h-5.6c0.1,2.2,0.9,3.4,2.3,3.4
				c1.1,0,1.7-0.6,2.3-1.7l1,0.6c-0.7,1.4-1.8,2.3-3.3,2.3C654.7,108.8,653.1,107.2,653.1,103.9z M658.8,103.1
				c-0.1-1.7-0.7-2.9-2-2.9c-1.1,0-2,0.9-2.2,2.9H658.8z"/>
			<path fill="#353535" d="M661.2,106.9l1-0.7c0.6,1,1.6,1.5,2.6,1.5c1.2,0,1.9-0.5,1.9-1.4c0-2.3-5-1.4-5-4.8c0-1.5,1.2-2.6,3-2.6
				c1.4,0,2.4,0.7,3.1,1.7l-1,0.8c-0.5-0.7-1.2-1.3-2.2-1.3c-1.1,0-1.6,0.5-1.6,1.3c0,2.4,4.9,1.3,4.9,4.8c0,1.7-1.5,2.7-3.3,2.7
				C663.1,108.8,661.9,108.1,661.2,106.9z"/>
			<path fill="#353535" d="M670.6,108.6h-0.7v-1.9h1.7v1.7l-0.8,2h-0.7L670.6,108.6z"/>
			<path fill="#353535" d="M678,95.3h1.5v13.3H678V95.3z"/>
			<path fill="#353535" d="M682.1,99.1h1.5v1.3c0.6-0.7,1.8-1.5,3-1.5c1.5,0,2.3,0.9,2.3,2.6v7.1h-1.4v-6.8c0-1.1-0.4-1.7-1.3-1.7
				c-0.9,0-1.9,0.7-2.6,1.4v7.1h-1.5V99.1z"/>
			<path fill="#353535" d="M691.7,106.5v-6.2h-1.4v-1.2h1.4v-3.4h1.4v3.4h2.1v1.2h-2.1v5.8c0,1,0.3,1.4,1.3,1.4
				c0.3,0,0.6-0.1,0.8-0.1v1.2c-0.2,0.1-0.7,0.1-1.1,0.1C692.4,108.7,691.7,108.1,691.7,106.5z"/>
			<path fill="#353535" d="M696.6,103.9c0-3.4,1.8-5,3.7-5c2.1,0,3.4,1.7,3.4,4.9v0.4H698c0.1,2.2,0.9,3.4,2.3,3.4
				c1.1,0,1.7-0.6,2.3-1.7l1,0.6c-0.7,1.4-1.8,2.3-3.3,2.3C698.2,108.8,696.6,107.2,696.6,103.9z M702.2,103.1
				c-0.1-1.7-0.7-2.9-2-2.9c-1.1,0-2,0.9-2.2,2.9H702.2z"/>
			<path fill="#353535" d="M705.5,99.1h1.5v1.6h0c0.5-1,1.5-1.8,3-1.8h0.2l-0.1,1.4c0,0-0.3,0-0.3,0c-1.2,0-2.2,0.8-2.8,1.9v6.4
				h-1.5V99.1z"/>
			<path fill="#353535" d="M711.7,99.1h1.5v1.3c0.6-0.7,1.8-1.5,3-1.5c1.5,0,2.3,0.9,2.3,2.6v7.1h-1.4v-6.8c0-1.1-0.4-1.7-1.4-1.7
				c-0.9,0-1.9,0.7-2.6,1.4v7.1h-1.5V99.1z"/>
			<path fill="#353535" d="M720.3,103.9c0-3.4,1.8-5,3.7-5c2.1,0,3.4,1.7,3.4,4.9v0.4h-5.6c0.1,2.2,0.9,3.4,2.3,3.4
				c1.1,0,1.7-0.6,2.3-1.7l1,0.6c-0.7,1.4-1.8,2.3-3.3,2.3C721.9,108.8,720.3,107.2,720.3,103.9z M725.9,103.1
				c-0.1-1.7-0.7-2.9-2-2.9c-1.1,0-2,0.9-2.2,2.9H725.9z"/>
			<path fill="#353535" d="M729.8,106.5v-6.2h-1.4v-1.2h1.4v-3.4h1.4v3.4h2.1v1.2h-2.1v5.8c0,1,0.3,1.4,1.3,1.4
				c0.3,0,0.6-0.1,0.8-0.1v1.2c-0.2,0.1-0.7,0.1-1.1,0.1C730.4,108.7,729.8,108.1,729.8,106.5z"/>
		</g>
	</g>
	
		<line fill="none" stroke="#353535" stroke-width="3" stroke-linecap="round" stroke-linejoin="round" stroke-miterlimit="10" x1="631.5" y1="40.6" x2="631.5" y2="81.6"/>
	<circle fill="#353535" cx="631.5" cy="40.3" r="4.1"/>
	
		<line fill="none" stroke="#353535" stroke-width="3" stroke-linecap="round" stroke-linejoin="round" stroke-miterlimit="10" x1="624.9" y1="82.1" x2="638.1" y2="82.1"/>
</g>
</svg>
