<?xml version="1.0" encoding="utf-8"?>
<!-- Generator: Adobe Illustrator 17.1.0, SVG Export Plug-In . SVG Version: 6.00 Build 0)  -->
<!DOCTYPE svg PUBLIC "-//W3C//DTD SVG 1.1//EN" "http://www.w3.org/Graphics/SVG/1.1/DTD/svg11.dtd">
<svg version="1.1" id="Layer_1" xmlns="http://www.w3.org/2000/svg" xmlns:xlink="http://www.w3.org/1999/xlink" x="0px" y="0px"
	 viewBox="1.1 706.9 1221.9 171.4" enable-background="new 1.1 706.9 1221.9 171.4" xml:space="preserve">
<rect x="3.1" y="708.9" fill="none" stroke="#353535" stroke-width="4" stroke-linecap="round" stroke-linejoin="round" stroke-miterlimit="10" width="1217.9" height="92.7"/>
<rect x="52.7" y="708.9" fill="#445DD8" stroke="#353535" stroke-width="4" stroke-linecap="round" stroke-linejoin="round" stroke-miterlimit="10" width="596.5" height="92.7"/>
<rect x="167.2" y="739.9" fill="none" width="455.1" height="38"/>
<g enable-background="new    ">
	<path fill="#353535" d="M376.6,741.1l-5.1,34.6c-0.1,0.3-0.3,0.6-0.6,0.6h-4h-0.1c-0.3,0-0.6-0.3-0.6-0.6l-3.9-26.7l-3.9,26.7
		c-0.1,0.3-0.3,0.6-0.6,0.6h-0.1h-4c-0.3,0-0.6-0.3-0.6-0.6l-5.1-34.6c0-0.3,0.3-0.6,0.6-0.6h2.9c0.3,0,0.5,0.2,0.6,0.6v0.1
		l3.7,28.7l4.6-28.8c0.1-0.4,0.3-0.6,0.6-0.6h2.7c0.3,0,0.4,0.2,0.6,0.6l4.6,28.8l3.7-28.7v-0.1c0.1-0.4,0.3-0.6,0.6-0.6h2.9
		C376.4,740.5,376.6,740.8,376.6,741.1z"/>
	<path fill="#353535" d="M396.8,748.6v19.8c0,5.1-3.2,8.6-8.2,8.6c-5,0-8.1-3.5-8.1-8.6v-19.8c0-5.2,2.8-8.6,8.1-8.6
		C393.9,739.9,396.8,743.4,396.8,748.6z M392.6,748.6c0-3.4-1.6-4.7-4-4.7c-2.3,0-3.9,1.3-3.9,4.7v19.7c0,3.4,1.6,4.7,3.9,4.7
		c2.4,0,4-1.3,4-4.7V748.6z"/>
	<path fill="#353535" d="M420,773.3v2.7c0,0.3-0.2,0.4-0.6,0.4c-4.8,0-5.4-3.8-5.4-9.6c0-4.6-1.1-6-5.2-6h-2.7v15
		c0,0.3-0.3,0.6-0.6,0.6h-2.8c-0.3,0-0.6-0.3-0.6-0.6v-34.6c0-0.3,0.3-0.6,0.6-0.6h6c5.9,0,9.8,3.2,9.8,10.2c0,4.3-1.5,7-4.4,7.8
		c3.5,0.7,3.7,4,3.7,6.8c0,0.3,0,3.2,0,3.5c0,3.5,1,3.6,1.5,3.8C419.7,772.7,420,772.9,420,773.3z M406.3,756.7h2.7
		c4.6,0,5.5-2.8,5.5-6.1c0-2.8-0.8-6.1-5.5-6.1h-2.7V756.7z"/>
	<path fill="#353535" d="M441.3,776.4h-2.7c-0.5,0-0.8-0.3-0.9-0.7l-5.9-17l-3.6,7.8v9.2c0,0.3-0.3,0.6-0.6,0.6h-3
		c-0.3,0-0.6-0.3-0.6-0.6v-34.6c0-0.3,0.3-0.7,0.6-0.7h3c0.3,0,0.6,0.4,0.6,0.7v17.5l7.7-17.5c0.2-0.3,0.3-0.7,0.8-0.7h3.3
		c0.4,0,0.7,0.2,0.4,0.7l-6.1,13.4l7.5,20.9C441.9,775.9,441.7,776.2,441.3,776.4z"/>
</g>
<rect x="994.1" y="739.7" fill="none" width="227.6" height="38"/>
<g enable-background="new    ">
	<path fill="#353535" d="M1089.8,741.1l-5.1,34.6c-0.1,0.3-0.3,0.6-0.6,0.6h-4h-0.1c-0.3,0-0.6-0.3-0.6-0.6l-3.9-26.7l-3.9,26.7
		c-0.1,0.3-0.3,0.6-0.6,0.6h-0.1h-4c-0.3,0-0.6-0.3-0.6-0.6l-5.1-34.6c0-0.3,0.3-0.6,0.6-0.6h2.9c0.3,0,0.5,0.2,0.6,0.6v0.1
		l3.7,28.7l4.6-28.8c0.1-0.4,0.3-0.6,0.6-0.6h2.7c0.3,0,0.4,0.2,0.6,0.6l4.6,28.8l3.7-28.7v-0.1c0.1-0.4,0.3-0.6,0.6-0.6h2.9
		C1089.5,740.5,1089.8,740.8,1089.8,741.1z"/>
	<path fill="#353535" d="M1109.9,748.6v19.8c0,5.1-3.2,8.6-8.2,8.6c-5,0-8.1-3.5-8.1-8.6v-19.8c0-5.2,2.8-8.6,8.1-8.6
		C1107.1,739.9,1109.9,743.4,1109.9,748.6z M1105.7,748.6c0-3.4-1.6-4.7-4-4.7c-2.3,0-3.9,1.3-3.9,4.7v19.7c0,3.4,1.6,4.7,3.9,4.7
		c2.4,0,4-1.3,4-4.7V748.6z"/>
	<path fill="#353535" d="M1133.1,773.3v2.7c0,0.3-0.2,0.4-0.6,0.4c-4.8,0-5.4-3.8-5.4-9.6c0-4.6-1.1-6-5.2-6h-2.7v15
		c0,0.3-0.3,0.6-0.6,0.6h-2.8c-0.3,0-0.6-0.3-0.6-0.6v-34.6c0-0.3,0.3-0.6,0.6-0.6h6c5.9,0,9.8,3.2,9.8,10.2c0,4.3-1.5,7-4.4,7.8
		c3.5,0.7,3.7,4,3.7,6.8c0,0.3,0,3.2,0,3.5c0,3.5,1,3.6,1.5,3.8C1132.8,772.7,1133.1,772.9,1133.1,773.3z M1119.4,756.7h2.7
		c4.6,0,5.5-2.8,5.5-6.1c0-2.8-0.8-6.1-5.5-6.1h-2.7V756.7z"/>
	<path fill="#353535" d="M1154.4,776.4h-2.7c-0.5,0-0.8-0.3-0.9-0.7l-5.9-17l-3.6,7.8v9.2c0,0.3-0.3,0.6-0.6,0.6h-3
		c-0.3,0-0.6-0.3-0.6-0.6v-34.6c0-0.3,0.3-0.7,0.6-0.7h3c0.3,0,0.6,0.4,0.6,0.7v17.5l7.7-17.5c0.2-0.3,0.3-0.7,0.8-0.7h3.3
		c0.4,0,0.7,0.2,0.4,0.7l-6.1,13.4l7.5,20.9C1155,775.9,1154.8,776.2,1154.4,776.4z"/>
</g>
<rect x="782.8" y="708.9" fill="#445DD8" stroke="#353535" stroke-width="4" stroke-linecap="round" stroke-linejoin="round" stroke-miterlimit="10" width="163.7" height="92.7"/>
<rect x="784.7" y="739.9" fill="none" width="162.1" height="38"/>
<g enable-background="new    ">
	<path fill="#353535" d="M819.7,741.2v34.6c0,0.3-0.3,0.6-0.6,0.6h-2.6c-0.3,0-0.6-0.3-0.6-0.6v-25.7l-6,25.8
		c-0.1,0.2-0.3,0.5-0.6,0.5h-2.8c-0.2,0-0.5-0.2-0.6-0.5c-0.1-0.1-5.8-24.9-6-25.8v25.7c0,0.3-0.3,0.6-0.6,0.6h-0.1h-2.5
		c-0.3,0-0.6-0.3-0.6-0.6v-34.6c0-0.3,0.3-0.6,0.6-0.6h3.8c0.3,0,0.6,0.2,0.7,0.6l6.8,28.8l6.8-28.8c0.1-0.3,0.4-0.6,0.7-0.6h3.8
		C819.4,740.6,819.7,740.9,819.7,741.2z"/>
	<path fill="#353535" d="M829.3,744.7v11h7c0.3,0,0.6,0.3,0.6,0.6v2.7c0,0.3-0.3,0.6-0.6,0.6h-7v12.9h10.2c0.3,0,0.6,0.3,0.6,0.6
		v2.8c0,0.3-0.3,0.6-0.6,0.6h-13.8c-0.3,0-0.6-0.3-0.6-0.6v-34.6c0-0.3,0.3-0.6,0.6-0.6h13.8c0.3,0,0.6,0.3,0.6,0.6v2.8
		c0,0.3-0.3,0.6-0.6,0.6H829.3z"/>
	<path fill="#353535" d="M848.6,744.7v11h7c0.3,0,0.6,0.3,0.6,0.6v2.7c0,0.3-0.3,0.6-0.6,0.6h-7v12.9h10.2c0.3,0,0.6,0.3,0.6,0.6
		v2.8c0,0.3-0.3,0.6-0.6,0.6H845c-0.3,0-0.6-0.3-0.6-0.6v-34.6c0-0.3,0.3-0.6,0.6-0.6h13.8c0.3,0,0.6,0.3,0.6,0.6v2.8
		c0,0.3-0.3,0.6-0.6,0.6H848.6z"/>
	<path fill="#353535" d="M877.9,741.2v2.8c0,0.3-0.3,0.6-0.6,0.6h-5.3v31.3c0,0.3-0.3,0.6-0.6,0.6h-2.9c-0.3,0-0.6-0.3-0.6-0.6
		v-31.3h-5.3c-0.3,0-0.6-0.3-0.6-0.6v-2.8c0-0.3,0.3-0.6,0.6-0.6h14.7C877.6,740.6,877.9,740.9,877.9,741.2z"/>
	<path fill="#353535" d="M888.2,744.6v27.9h2.7c0.3,0,0.6,0.3,0.6,0.6v2.9c0,0.3-0.3,0.6-0.6,0.6h-9.4c-0.3,0-0.6-0.2-0.6-0.6V773
		c0-0.3,0.3-0.6,0.6-0.6h2.7v-27.9h-2.7c-0.3,0-0.6-0.2-0.6-0.6v-2.9c0-0.3,0.3-0.6,0.6-0.6h9.4c0.3,0,0.6,0.2,0.6,0.6v2.9
		c0,0.3-0.3,0.6-0.6,0.6H888.2z"/>
	<path fill="#353535" d="M913.9,741.2v34.6c0,0.3-0.3,0.6-0.6,0.6h-2.7c-0.3,0-0.8-0.4-0.9-0.7l-9.7-25v25.1c0,0.3-0.2,0.6-0.6,0.6
		h-2.7c-0.3,0-0.6-0.3-0.6-0.6v-34.6c0-0.3,0.3-0.6,0.6-0.6h2.7c0.3,0,0.6,0.2,0.7,0.6l9.9,26.6v-26.5c0-0.3,0.2-0.6,0.6-0.6h2.8
		C913.6,740.6,913.9,740.9,913.9,741.2z"/>
	<path fill="#353535" d="M936.1,759.9v16.2c0,0.2-0.2,0.4-0.4,0.4h-1.1c-0.2,0-0.4-0.2-0.4-0.3l-0.3-1.7c-1.5,1.7-3.7,2.6-6.4,2.6
		c-5,0-8.5-3.5-8.5-8.6v-19.8c0-5.2,2.8-8.6,8.1-8.6c5.4,0,8.2,3.4,8.2,8.6v3.3c0,0.3-0.3,0.6-0.6,0.6h-2.9c-0.3,0-0.6-0.3-0.6-0.6
		v-3.3c0-3.4-1.7-4.7-4-4.7c-2.3,0-4,1.3-4,4.7v19.7c0,3.4,2,4.7,4.3,4.7c2.4,0,4.4-1.3,4.4-4.7v-5.2h-2.4c-0.3,0-0.6-0.2-0.6-0.6
		v-2.7c0-0.3,0.3-0.6,0.6-0.6h6C935.8,759.3,936.1,759.6,936.1,759.9z"/>
</g>
<rect x="946.4" y="708.9" fill="#445DD8" stroke="#353535" stroke-width="4" stroke-linecap="round" stroke-linejoin="round" stroke-miterlimit="10" width="48.1" height="92.7"/>
<rect x="4.1" y="708.9" fill="#445DD8" stroke="#353535" stroke-width="4" stroke-linecap="round" stroke-linejoin="round" stroke-miterlimit="10" width="163.7" height="92.7"/>
<rect x="4.8" y="739.9" fill="none" width="162.1" height="38"/>
<g enable-background="new    ">
	<path fill="#353535" d="M31.2,744.7v11h7c0.3,0,0.6,0.3,0.6,0.6v2.7c0,0.3-0.3,0.6-0.6,0.6h-7v12.9h10.2c0.3,0,0.6,0.3,0.6,0.6v2.8
		c0,0.3-0.3,0.6-0.6,0.6H27.6c-0.3,0-0.6-0.3-0.6-0.6v-34.6c0-0.3,0.3-0.6,0.6-0.6h13.8c0.3,0,0.6,0.3,0.6,0.6v2.8
		c0,0.3-0.3,0.6-0.6,0.6H31.2z"/>
	<path fill="#353535" d="M69.8,741.2v34.6c0,0.3-0.3,0.6-0.6,0.6h-2.6c-0.3,0-0.6-0.3-0.6-0.6v-25.7l-6,25.8
		c-0.1,0.2-0.3,0.5-0.6,0.5h-2.8c-0.2,0-0.5-0.2-0.6-0.5c-0.1-0.1-5.8-24.9-6-25.8v25.7c0,0.3-0.3,0.6-0.6,0.6h-0.1h-2.5
		c-0.3,0-0.6-0.3-0.6-0.6v-34.6c0-0.3,0.3-0.6,0.6-0.6h3.8c0.3,0,0.6,0.2,0.7,0.6L58,770l6.8-28.8c0.1-0.3,0.4-0.6,0.7-0.6h3.8
		C69.5,740.6,69.8,740.9,69.8,741.2z"/>
	<path fill="#353535" d="M92.4,775.9c0,0.3-0.3,0.6-0.6,0.6h-3c-0.3,0-0.6-0.2-0.6-0.6l-1.1-6.9H79l-1.1,6.9
		c-0.1,0.4-0.3,0.6-0.6,0.6h-3c-0.3,0-0.6-0.3-0.6-0.6l6.5-34.6c0.1-0.3,0.3-0.6,0.6-0.6h4.5c0.3,0,0.5,0.3,0.6,0.6L92.4,775.9z
		 M86.4,765.1L83,745.2l-3.4,19.9H86.4z"/>
	<path fill="#353535" d="M102.8,744.6v27.9h2.7c0.3,0,0.6,0.3,0.6,0.6v2.9c0,0.3-0.3,0.6-0.6,0.6h-9.4c-0.3,0-0.6-0.2-0.6-0.6V773
		c0-0.3,0.3-0.6,0.6-0.6h2.7v-27.9h-2.7c-0.3,0-0.6-0.2-0.6-0.6v-2.9c0-0.3,0.3-0.6,0.6-0.6h9.4c0.3,0,0.6,0.2,0.6,0.6v2.9
		c0,0.3-0.3,0.6-0.6,0.6H102.8z"/>
	<path fill="#353535" d="M115,772.4h10.2c0.3,0,0.6,0.2,0.6,0.6v2.9c0,0.3-0.2,0.6-0.6,0.6h-13.8c-0.3,0-0.6-0.3-0.6-0.6v-34.6
		c0-0.3,0.3-0.6,0.6-0.6h3c0.3,0,0.6,0.3,0.6,0.6V772.4z"/>
	<path fill="#353535" d="M145.6,765.5c0,0.9,0,3.4,0,3.4c0,5-3.6,8.1-8.2,8.1c-4.9,0-8.5-3.6-8.5-8.9V765c0-0.3,0.2-0.6,0.6-0.6h2.9
		c0.3,0,0.6,0.3,0.6,0.6v4c0,3.2,2,4.5,4.4,4.4c2.9-0.1,4-1.9,4-4.4v-2.9c0-2.1-0.8-3.2-3.5-5.8l-4.3-4c-2.3-2.2-4.1-5.4-4.1-7.9
		c0-5.1,3-8.5,8-8.5c4.9,0,8.1,3.4,8.1,8.6v3c0,0.3-0.2,0.5-0.5,0.5h-3c-0.2,0-0.5-0.2-0.5-0.5v-3.3c0-3.4-1.7-4.6-4-4.6
		c-2.3,0-3.8,1.5-3.8,4.6c0,0.8,0.2,2.6,3.2,5.3c0.9,0.9,5.4,5.1,5.4,5.1C145.4,761.5,145.6,764.2,145.6,765.5z"/>
</g>
<rect x="622" y="708.9" fill="#445DD8" stroke="#353535" stroke-width="4" stroke-linecap="round" stroke-linejoin="round" stroke-miterlimit="10" width="163.7" height="92.7"/>
<rect x="622.6" y="739.9" fill="none" width="162.1" height="38"/>
<g enable-background="new    ">
	<path fill="#353535" d="M657.4,772.4h10.2c0.3,0,0.6,0.2,0.6,0.6v2.9c0,0.3-0.2,0.6-0.6,0.6h-13.8c-0.3,0-0.6-0.3-0.6-0.6v-34.6
		c0-0.3,0.3-0.6,0.6-0.6h3c0.3,0,0.6,0.3,0.6,0.6V772.4z"/>
	<path fill="#353535" d="M688.4,741.2v27.2c0,5.1-3.2,8.6-8.2,8.6c-5,0-8.1-3.5-8.1-8.6v-27.2c0-0.3,0.3-0.6,0.6-0.6h3
		c0.3,0,0.6,0.3,0.6,0.6v27.2c0,3.4,1.7,4.7,4,4.7c2.4,0,4-1.3,4-4.7v-27.2c0-0.3,0.3-0.6,0.6-0.6h3
		C688.2,740.6,688.4,740.9,688.4,741.2z"/>
	<path fill="#353535" d="M711.5,741.2v34.6c0,0.3-0.3,0.6-0.6,0.6h-2.7c-0.3,0-0.8-0.4-0.9-0.7l-9.7-25v25.1c0,0.3-0.2,0.6-0.6,0.6
		h-2.7c-0.3,0-0.6-0.3-0.6-0.6v-34.6c0-0.3,0.3-0.6,0.6-0.6h2.7c0.3,0,0.6,0.2,0.7,0.6l9.9,26.6v-26.5c0-0.3,0.2-0.6,0.6-0.6h2.8
		C711.2,740.6,711.5,740.9,711.5,741.2z"/>
	<path fill="#353535" d="M733,748.6v3.3c0,0.3-0.3,0.6-0.6,0.6h-2.9c-0.3,0-0.6-0.3-0.6-0.6v-3.3c0-3.4-1.7-4.7-4.1-4.7
		c-2.3,0-4,1.3-4,4.7v19.7c0,3.4,1.7,4.7,4,4.7c2.4,0,4.1-1.3,4.1-4.7V765c0-0.3,0.3-0.6,0.6-0.6h2.9c0.3,0,0.6,0.3,0.6,0.6v3.4
		c0,5.1-3.2,8.6-8.2,8.6c-5,0-8.1-3.5-8.1-8.6v-19.8c0-5.2,2.8-8.6,8.1-8.6C730.2,740,733,743.4,733,748.6z"/>
	<path fill="#353535" d="M754.1,741.2v34.6c0,0.3-0.3,0.6-0.6,0.6h-3c-0.3,0-0.6-0.3-0.6-0.6v-15.8h-8.1v15.8c0,0.3-0.2,0.6-0.6,0.6
		h-3c-0.3,0-0.6-0.3-0.6-0.6v-34.6c0-0.3,0.3-0.6,0.6-0.6h3c0.3,0,0.6,0.3,0.6,0.6v14.9h8.1v-14.9c0-0.3,0.2-0.6,0.6-0.6h3
		C753.8,740.6,754.1,740.9,754.1,741.2z"/>
</g>
<g>
	<g>
		<g>
			<path fill="#353535" d="M693.3,852.2h10.3v2.2h-8v6.6h5.8v2.2h-5.8v9.7h-2.3V852.2z"/>
			<path fill="#353535" d="M705.4,865.5c0-5.1,2.5-7.7,5.8-7.7c3.2,0,5.7,2.6,5.7,7.7s-2.5,7.7-5.7,7.7S705.4,870.4,705.4,865.5z
				 M714.8,865.5c0-3.2-1.1-5.7-3.5-5.7c-2.3,0-3.5,2.3-3.5,5.7c0,3.2,1.1,5.7,3.5,5.7C713.6,871.2,714.8,868.8,714.8,865.5z"/>
			<path fill="#353535" d="M719.1,865.5c0-5.1,2.5-7.7,5.8-7.7c3.2,0,5.7,2.6,5.7,7.7s-2.5,7.7-5.7,7.7S719.1,870.4,719.1,865.5z
				 M728.5,865.5c0-3.2-1.1-5.7-3.5-5.7c-2.3,0-3.5,2.3-3.5,5.7c0,3.2,1.1,5.7,3.5,5.7C727.3,871.2,728.5,868.8,728.5,865.5z"/>
			<path fill="#353535" d="M732.3,870.1l1.5-1.1c0.9,1.5,2.5,2.3,4,2.3c1.8,0,2.9-0.8,2.9-2.2c0-3.5-7.7-2.2-7.7-7.4
				c0-2.3,1.8-4,4.6-4c2.2,0,3.7,1.1,4.8,2.6l-1.5,1.2c-0.8-1.1-1.8-2-3.4-2c-1.7,0-2.5,0.8-2.5,2c0,3.7,7.5,2,7.5,7.4
				c0,2.6-2.3,4.1-5.1,4.1C735.3,873,733.4,871.9,732.3,870.1z"/>
			<path fill="#353535" d="M747.9,871v1.7h-2.3v-20.4h2.3v7.7c0.9-1.1,2.2-2.2,4-2.2c2.9,0,4.9,2.3,4.9,7.5s-2.3,7.5-5.1,7.5
				C750,873,748.8,872.2,747.9,871z M754.5,865.5c0-3.8-1.4-5.7-3.2-5.7c-1.4,0-2.5,0.9-3.4,2v7.4c1.1,1.2,2.2,2,3.5,2
				C753.2,871.2,754.5,869.5,754.5,865.5z"/>
			<path fill="#353535" d="M758.9,869.3c0-2.9,2.5-5.1,8.1-6.1v-0.9c0-1.7-0.8-2.5-2.2-2.5c-1.8,0-3.2,0.9-4.3,2l-1.2-1.4
				c1.5-1.5,3.4-2.6,5.8-2.6c2.9,0,4.1,1.5,4.1,4.5v6.9c0,1.8,0.2,2.9,0.3,3.5h-2.3c-0.2-0.6-0.3-1.1-0.3-1.8
				c-1.2,1.2-2.8,2.2-4.6,2.2C760.2,873,758.9,871.6,758.9,869.3z M767.1,869.2v-4.5c-4.5,0.9-6,2.5-6,4.3c0,1.5,0.8,2.2,2,2.2
				C764.6,871.2,766,870.4,767.1,869.2z"/>
			<path fill="#353535" d="M772.8,852.2h2.3v20.4h-2.3V852.2z"/>
			<path fill="#353535" d="M778.9,852.2h2.3v20.4h-2.3V852.2z"/>
			<path fill="#353535" d="M786,872.7h-1.1v-2.9h2.6v2.6l-1.2,3.1h-0.9L786,872.7z"/>
			<path fill="#353535" d="M795.8,852.2h2.3l3.1,11.1c0.6,2.3,1.2,4.3,1.7,6.3l0,0c0.5-2,1.1-3.8,1.7-6.1l3.1-11.1h2.2l-6,20.6h-2.2
				L795.8,852.2z"/>
			<path fill="#353535" d="M812.6,852.9h2.3v2.5h-2.3V852.9z M812.6,858.1h2.3v14.6h-2.3V858.1z"/>
			<path fill="#353535" d="M817.8,865.5c0-5.2,2.2-7.7,5.1-7.7c1.7,0,2.9,0.8,4,2v-7.7h2.2V869c0,1.8,0.2,2.9,0.3,3.5H827
				c-0.2-0.5-0.3-1.4-0.3-1.8c-0.9,1.1-2.2,2.2-4,2.2C819.9,873,817.8,870.7,817.8,865.5z M826.7,869.2v-7.4c-1.1-1.2-2.2-2-3.4-2
				c-2,0-3.2,1.7-3.2,5.7c0,3.8,1.4,5.7,3.4,5.7C824.7,871.2,825.9,870.2,826.7,869.2z"/>
			<path fill="#353535" d="M831.8,865.5c0-5.2,2.8-7.7,5.7-7.7c3.2,0,5.2,2.6,5.2,7.5v0.6h-8.6c0.2,3.4,1.4,5.2,3.5,5.2
				c1.7,0,2.6-0.9,3.5-2.6l1.5,0.9c-1.1,2.2-2.8,3.5-5.1,3.5C834.2,873,831.8,870.5,831.8,865.5z M840.5,864.2
				c-0.2-2.6-1.1-4.5-3.1-4.5c-1.7,0-3.1,1.4-3.4,4.5H840.5z"/>
			<path fill="#353535" d="M844.8,865.5c0-5.1,2.5-7.7,5.8-7.7c3.2,0,5.7,2.6,5.7,7.7s-2.5,7.7-5.7,7.7
				C847.5,873.1,844.8,870.4,844.8,865.5z M854.1,865.5c0-3.2-1.1-5.7-3.5-5.7c-2.3,0-3.5,2.3-3.5,5.7c0,3.2,1.1,5.7,3.5,5.7
				S854.1,868.8,854.1,865.5z"/>
			<path fill="#353535" d="M864.2,862.4c0-6.6,2.8-10.6,7.4-10.6c3.7,0,5.5,2.5,6.3,6.5l-2.2,0.5c-0.8-3.2-1.8-4.8-4.3-4.8
				c-2.9,0-4.9,2.9-4.9,8.5c0,5.8,1.8,8.6,5.1,8.6c2.8,0,4.3-2,4.3-6.1H872v-2h6v9.8h-1.8v-2.8l0,0c-0.6,1.5-2.3,3.2-4.8,3.2
				C866.8,873.1,864.2,869.3,864.2,862.4z"/>
			<path fill="#353535" d="M880.8,869.3c0-2.9,2.5-5.1,8.1-6.1v-0.9c0-1.7-0.8-2.5-2.2-2.5c-1.8,0-3.2,0.9-4.3,2l-1.2-1.4
				c1.5-1.5,3.5-2.6,5.8-2.6c2.9,0,4.1,1.5,4.1,4.5v6.9c0,1.8,0.2,2.9,0.3,3.5h-2.3c-0.2-0.6-0.3-1.1-0.3-1.8
				c-1.2,1.2-2.8,2.2-4.6,2.2C882.2,873,880.8,871.6,880.8,869.3z M889,869.2v-4.5c-4.5,0.9-6,2.5-6,4.3c0,1.5,0.8,2.2,2,2.2
				C886.6,871.2,888,870.4,889,869.2z"/>
			<path fill="#353535" d="M894.6,858.1h2.3v2c1.1-1.1,2.6-2.3,4.5-2.3c2,0,2.9,0.8,3.4,2.3c1.1-1.2,2.6-2.3,4.6-2.3
				c2.3,0,3.5,1.4,3.5,4v10.9h-2.2v-10.5c0-1.7-0.6-2.6-2-2.6c-1.4,0-2.6,0.9-3.7,2v10.9h-2.3v-10.5c0-1.7-0.5-2.6-2-2.6
				c-1.2,0-2.5,0.9-3.7,2.2v10.9h-2.3v-14.4H894.6z"/>
			<path fill="#353535" d="M915.5,865.5c0-5.2,2.8-7.7,5.7-7.7c3.2,0,5.2,2.6,5.2,7.5v0.6h-8.6c0.2,3.4,1.4,5.2,3.5,5.2
				c1.7,0,2.6-0.9,3.5-2.6l1.5,0.9c-1.1,2.2-2.8,3.5-5.1,3.5C918,873,915.5,870.5,915.5,865.5z M924.1,864.2
				c-0.2-2.6-1.1-4.5-3.1-4.5c-1.7,0-3.1,1.4-3.4,4.5H924.1z"/>
			<path fill="#353535" d="M928,870.1l1.5-1.1c0.9,1.5,2.5,2.3,4,2.3c1.8,0,2.9-0.8,2.9-2.2c0-3.5-7.7-2.2-7.7-7.4
				c0-2.3,1.8-4,4.6-4c2.2,0,3.7,1.1,4.8,2.6l-1.5,1.2c-0.8-1.1-1.8-2-3.4-2c-1.7,0-2.5,0.8-2.5,2c0,3.7,7.5,2,7.5,7.4
				c0,2.6-2.3,4.1-5.1,4.1C930.9,873,929.1,871.9,928,870.1z"/>
			<path fill="#353535" d="M942.4,872.7h-1.1v-2.9h2.6v2.6l-1.2,3.1h-1.1L942.4,872.7z"/>
			<path fill="#353535" d="M952.7,862.5c0-6.9,3.1-10.6,7.4-10.6s7.4,3.7,7.4,10.6s-3.1,10.6-7.4,10.6
				C956,873.1,952.7,869.5,952.7,862.5z M965.2,862.5c0-5.4-2-8.5-5.1-8.5c-3.2,0-5.1,3.1-5.1,8.5s2,8.5,5.1,8.5
				C963.3,871,965.2,867.9,965.2,862.5z"/>
			<path fill="#353535" d="M970.6,858.1h2.3v2c0.9-1.1,2.8-2.3,4.6-2.3c2.3,0,3.5,1.4,3.5,4v10.9h-2.2v-10.5c0-1.7-0.6-2.6-2.2-2.6
				c-1.4,0-2.9,1.1-4,2.2v10.9h-2.3v-14.6H970.6z"/>
			<path fill="#353535" d="M984.7,852.2h2.3v20.4h-2.3V852.2z"/>
			<path fill="#353535" d="M990.7,852.9h2.3v2.5h-2.3V852.9z M990.7,858.1h2.3v14.6h-2.3V858.1z"/>
			<path fill="#353535" d="M996.7,858.1h2.3v2c0.9-1.1,2.8-2.3,4.6-2.3c2.3,0,3.5,1.4,3.5,4v10.9h-2.2v-10.5c0-1.7-0.6-2.6-2.2-2.6
				c-1.4,0-2.9,1.1-4,2.2v10.9h-2.3v-14.6H996.7z"/>
			<path fill="#353535" d="M1009.9,865.5c0-5.2,2.8-7.7,5.7-7.7c3.2,0,5.2,2.6,5.2,7.5v0.6h-8.6c0.2,3.4,1.4,5.2,3.5,5.2
				c1.7,0,2.6-0.9,3.5-2.6l1.5,0.9c-1.1,2.2-2.8,3.5-5.1,3.5C1012.4,873,1009.9,870.5,1009.9,865.5z M1018.7,864.2
				c-0.2-2.6-1.1-4.5-3.1-4.5c-1.7,0-3.1,1.4-3.4,4.5H1018.7z"/>
			<path fill="#353535" d="M1028.2,868.2l2-0.9c0.9,2.2,2.5,3.7,4.8,3.7c2.5,0,3.8-1.2,3.8-3.2c0-2.3-2-3.4-4.1-4.5
				c-2.6-1.2-5.5-2.6-5.5-6.3c0-2.9,2.5-5.1,5.5-5.1c3.2,0,5.1,2,6.1,4.3l-2,0.9c-0.8-1.7-2-3.2-4.1-3.2c-2,0-3.2,1.2-3.2,2.9
				c0,2.3,2,3.4,4.1,4.5c2.6,1.2,5.5,2.6,5.5,6.3c0,2.9-2.3,5.4-6.1,5.4C1031.6,873.1,1029.4,871.2,1028.2,868.2z"/>
			<path fill="#353535" d="M1044.2,852.2h2.3v7.8c0.9-1.1,2.8-2.3,4.6-2.3c2.3,0,3.5,1.4,3.5,4v10.9h-2.2v-10.5
				c0-1.7-0.6-2.6-2.2-2.6c-1.4,0-2.9,1.1-4,2.2v10.9h-2.3v-20.4H1044.2z"/>
			<path fill="#353535" d="M1057.4,865.5c0-5.1,2.5-7.7,5.8-7.7c3.2,0,5.7,2.6,5.7,7.7s-2.5,7.7-5.7,7.7
				C1060,873.1,1057.4,870.4,1057.4,865.5z M1066.8,865.5c0-3.2-1.1-5.7-3.5-5.7c-2.3,0-3.5,2.3-3.5,5.7c0,3.2,1.1,5.7,3.5,5.7
				C1065.5,871.2,1066.8,868.8,1066.8,865.5z"/>
			<path fill="#353535" d="M1071.8,858.1h2.3v1.8c0.9-1.1,2.2-2.2,4-2.2c2.9,0,4.9,2.3,4.9,7.5c0,5.2-2.2,7.5-5.1,7.5
				c-1.7,0-2.9-0.8-3.8-2v7.4h-2.3V858.1z M1080.8,865.5c0-3.8-1.4-5.7-3.2-5.7c-1.4,0-2.6,0.9-3.4,2v7.4c1.1,1.2,2.2,2,3.5,2
				C1079.4,871.2,1080.8,869.5,1080.8,865.5z"/>
			<path fill="#353535" d="M1085.8,858.1h2.3v1.8c0.9-1.1,2.2-2.2,4-2.2c2.9,0,4.9,2.3,4.9,7.5c0,5.2-2.2,7.5-5.1,7.5
				c-1.7,0-2.9-0.8-3.8-2v7.4h-2.3V858.1z M1094.7,865.5c0-3.8-1.4-5.7-3.2-5.7c-1.4,0-2.6,0.9-3.4,2v7.4c1.1,1.2,2.2,2,3.4,2
				C1093.5,871.2,1094.7,869.5,1094.7,865.5z"/>
			<path fill="#353535" d="M1100,852.9h2.3v2.5h-2.3V852.9z M1100,858.1h2.3v14.6h-2.3V858.1z"/>
			<path fill="#353535" d="M1106,858.1h2.3v2c0.9-1.1,2.8-2.3,4.6-2.3c2.3,0,3.5,1.4,3.5,4v10.9h-2.2v-10.5c0-1.7-0.6-2.6-2.2-2.6
				c-1.4,0-2.9,1.1-4,2.2v10.9h-2.3v-14.6H1106z"/>
			<path fill="#353535" d="M1131,857.9v2.2c-0.6,0-1.4,0.2-2.2,0.5c0.5,0.8,0.6,1.7,0.6,2.6c0,3.2-2.2,5.2-5.1,5.2
				c-0.8,0-1.4-0.2-2-0.3c-0.5,0.3-0.8,0.6-0.8,1.1c0,0.6,0.3,0.8,1.7,0.9l2.3,0.3c3.5,0.5,5.1,1.5,5.1,3.7c0,2.6-2.8,4.1-6.3,4.1
				c-4.1,0-5.7-1.4-5.7-3.5c0-1.5,0.9-2.6,2.3-3.2c-0.8-0.5-1.2-0.9-1.2-1.8s0.6-1.7,1.5-2.3c-1.2-0.9-2-2.5-2-4.3
				c0-3.2,2.2-5.2,5.1-5.2c1.5,0,2.8,0.5,3.7,1.5C1128.9,858.7,1130.1,858.1,1131,857.9z M1120.6,874.4c0,1.5,0.9,2.3,4,2.3
				c2.3,0,4-0.8,4-2.3c0-1.2-0.8-1.8-3.2-2.2l-2.3-0.3c-0.2,0-0.3,0-0.5,0C1121.2,872.5,1120.6,873.5,1120.6,874.4z M1127.5,863.2
				c0-2.2-1.1-3.5-2.9-3.5c-1.8,0-2.9,1.4-2.9,3.5c0,2.2,1.1,3.5,2.9,3.5C1126.4,866.7,1127.5,865.3,1127.5,863.2z"/>
			<path fill="#353535" d="M1134.7,872.7h-1.1v-2.9h2.6v2.6l-1.2,3.1h-1.1L1134.7,872.7z"/>
			<path fill="#353535" d="M1145.2,862.4c0-6.8,2.9-10.6,7.4-10.6c3.8,0,5.7,2.6,6.3,6.5l-2.2,0.5c-0.6-3.1-1.8-4.8-4.3-4.8
				c-3.2,0-4.9,3.2-4.9,8.5c0,5.5,1.8,8.6,4.9,8.6c2.5,0,3.7-1.5,4.5-4.9l2.2,0.3c-0.8,4-2.8,6.8-6.6,6.8
				C1147.9,873.1,1145.2,869.5,1145.2,862.4z"/>
			<path fill="#353535" d="M1161.1,865.5c0-5.1,2.5-7.7,5.8-7.7c3.2,0,5.7,2.6,5.7,7.7s-2.5,7.7-5.7,7.7
				C1163.8,873.1,1161.1,870.4,1161.1,865.5z M1170.4,865.5c0-3.2-1.1-5.7-3.5-5.7c-2.3,0-3.5,2.3-3.5,5.7c0,3.2,1.1,5.7,3.5,5.7
				S1170.4,868.8,1170.4,865.5z"/>
			<path fill="#353535" d="M1176.4,859.9h-2.2v-1.8h2.2v-2.2c0-2.5,1.2-3.7,4-3.7c0.3,0,1.1,0,1.1,0v1.8h-0.8c-1.2,0-2,0.5-2,1.8
				v2.2h2.8v1.8h-2.8v12.8h-2.2v-12.8H1176.4z"/>
			<path fill="#353535" d="M1184.7,859.9h-2.2v-1.8h2.2v-2.2c0-2.5,1.2-3.7,4-3.7c0.3,0,1.1,0,1.1,0v1.8h-0.8c-1.2,0-2,0.5-2,1.8
				v2.2h2.8v1.8h-2.8v12.8h-2.2v-12.8H1184.7z"/>
			<path fill="#353535" d="M1191.3,865.5c0-5.2,2.8-7.7,5.7-7.7c3.2,0,5.2,2.6,5.2,7.5v0.6h-8.6c0.2,3.4,1.4,5.2,3.5,5.2
				c1.7,0,2.6-0.9,3.5-2.6l1.5,0.9c-1.1,2.2-2.8,3.5-5.1,3.5C1193.7,873,1191.3,870.5,1191.3,865.5z M1199.9,864.2
				c-0.2-2.6-1.1-4.5-3.1-4.5c-1.7,0-3.1,1.4-3.4,4.5H1199.9z"/>
			<path fill="#353535" d="M1204.2,865.5c0-5.2,2.8-7.7,5.7-7.7c3.2,0,5.2,2.6,5.2,7.5v0.6h-8.6c0.2,3.4,1.4,5.2,3.5,5.2
				c1.7,0,2.6-0.9,3.5-2.6l1.5,0.9c-1.1,2.2-2.8,3.5-5.1,3.5C1206.6,873,1204.2,870.5,1204.2,865.5z M1212.9,864.2
				c-0.2-2.6-1.1-4.5-3.1-4.5c-1.7,0-3.1,1.4-3.4,4.5H1212.9z"/>
		</g>
	</g>
	
		<line fill="none" stroke="#353535" stroke-width="3" stroke-linecap="round" stroke-linejoin="round" stroke-miterlimit="10" x1="970.6" y1="768.2" x2="970.6" y2="831.2"/>
	<circle fill="#353535" cx="970.6" cy="767.7" r="6.3"/>
	
		<line fill="none" stroke="#353535" stroke-width="3" stroke-linecap="round" stroke-linejoin="round" stroke-miterlimit="10" x1="960.4" y1="832" x2="980.7" y2="832"/>
</g>
</svg>
