<?xml version="1.0" encoding="utf-8"?>
<!-- Generator: Adobe Illustrator 17.1.0, SVG Export Plug-In . SVG Version: 6.00 Build 0)  -->
<!DOCTYPE svg PUBLIC "-//W3C//DTD SVG 1.1//EN" "http://www.w3.org/Graphics/SVG/1.1/DTD/svg11.dtd">
<svg version="1.1" id="Layer_1" xmlns="http://www.w3.org/2000/svg" xmlns:xlink="http://www.w3.org/1999/xlink" x="0px" y="0px"
	 viewBox="0 0 796.4 112.2" enable-background="new 0 0 796.4 112.2" xml:space="preserve">
<rect x="2" y="2" fill="none" stroke="#353535" stroke-width="4" stroke-linecap="round" stroke-linejoin="round" stroke-miterlimit="10" width="792.4" height="60.3"/>
<rect x="34.3" y="2" fill="#445DD8" stroke="#353535" stroke-width="4" stroke-linecap="round" stroke-linejoin="round" stroke-miterlimit="10" width="388.1" height="60.3"/>
<rect x="108.8" y="22.2" fill="none" width="296.1" height="24.7"/>
<text transform="matrix(1 0 0 1 225.4709 45.9383)" fill="#353535" font-family="'Interborough'" font-size="36">WORK</text>
<rect x="646.8" y="22.1" fill="none" width="148.1" height="24.7"/>
<text transform="matrix(1 0 0 1 689.4697 45.9383)" fill="#353535" font-family="'Interborough'" font-size="36">WORK</text>
<rect x="509.3" y="2" fill="#445DD8" stroke="#353535" stroke-width="4" stroke-linecap="round" stroke-linejoin="round" stroke-miterlimit="10" width="106.5" height="60.3"/>
<rect x="510.6" y="22.2" fill="none" width="105.5" height="24.7"/>
<text transform="matrix(1 0 0 1 516.25 45.9988)" fill="#353535" font-family="'Interborough'" font-size="36">MEETING</text>
<rect x="615.8" y="2" fill="#445DD8" stroke="#353535" stroke-width="4" stroke-linecap="round" stroke-linejoin="round" stroke-miterlimit="10" width="31.3" height="60.3"/>
<rect x="2.7" y="2" fill="#445DD8" stroke="#353535" stroke-width="4" stroke-linecap="round" stroke-linejoin="round" stroke-miterlimit="10" width="106.5" height="60.3"/>
<rect x="3.1" y="22.2" fill="none" width="105.5" height="24.7"/>
<text transform="matrix(1 0 0 1 15.7599 45.9988)" fill="#353535" font-family="'Interborough'" font-size="36">EMAILS</text>
<rect x="404.7" y="2" fill="#445DD8" stroke="#353535" stroke-width="4" stroke-linecap="round" stroke-linejoin="round" stroke-miterlimit="10" width="106.5" height="60.3"/>
<rect x="405.1" y="22.2" fill="none" width="105.5" height="24.7"/>
<text transform="matrix(1 0 0 1 423.2134 45.9988)" fill="#353535" font-family="'Interborough'" font-size="36">LUNCH</text>
<g>
	<g>
		<g>
			<path fill="#353535" d="M451.1,95.3h6.7v1.4h-5.2v4.3h3.8v1.4h-3.8v6.3h-1.5V95.3z"/>
			<path fill="#353535" d="M459,103.9c0-3.3,1.6-5,3.8-5c2.1,0,3.7,1.7,3.7,5c0,3.3-1.6,5-3.7,5S459,107.1,459,103.9z M465.1,103.9
				c0-2.1-0.7-3.7-2.3-3.7c-1.5,0-2.3,1.5-2.3,3.7c0,2.1,0.7,3.7,2.3,3.7C464.3,107.6,465.1,106.1,465.1,103.9z"/>
			<path fill="#353535" d="M467.9,103.9c0-3.3,1.6-5,3.8-5c2.1,0,3.7,1.7,3.7,5c0,3.3-1.6,5-3.7,5S467.9,107.1,467.9,103.9z
				 M474,103.9c0-2.1-0.7-3.7-2.3-3.7c-1.5,0-2.3,1.5-2.3,3.7c0,2.1,0.7,3.7,2.3,3.7C473.2,107.6,474,106.1,474,103.9z"/>
			<path fill="#353535" d="M476.5,106.9l1-0.7c0.6,1,1.6,1.5,2.6,1.5c1.2,0,1.9-0.5,1.9-1.4c0-2.3-5-1.4-5-4.8c0-1.5,1.2-2.6,3-2.6
				c1.4,0,2.4,0.7,3.1,1.7l-1,0.8c-0.5-0.7-1.2-1.3-2.2-1.3c-1.1,0-1.6,0.5-1.6,1.3c0,2.4,4.9,1.3,4.9,4.8c0,1.7-1.5,2.7-3.3,2.7
				C478.4,108.8,477.2,108.1,476.5,106.9z"/>
			<path fill="#353535" d="M486.6,107.5v1.1h-1.5V95.3h1.5v5c0.6-0.7,1.4-1.4,2.6-1.4c1.9,0,3.2,1.5,3.2,4.9c0,3.4-1.5,4.9-3.3,4.9
				C488,108.8,487.2,108.3,486.6,107.5z M490.9,103.9c0-2.5-0.9-3.7-2.1-3.7c-0.9,0-1.6,0.6-2.2,1.3v4.8c0.7,0.8,1.4,1.3,2.3,1.3
				C490.1,107.6,490.9,106.5,490.9,103.9z"/>
			<path fill="#353535" d="M493.8,106.4c0-1.9,1.6-3.3,5.3-4v-0.6c0-1.1-0.5-1.6-1.4-1.6c-1.2,0-2.1,0.6-2.8,1.3l-0.8-0.9
				c1-1,2.2-1.7,3.8-1.7c1.9,0,2.7,1,2.7,2.9v4.5c0,1.2,0.1,1.9,0.2,2.3h-1.5c-0.1-0.4-0.2-0.7-0.2-1.2c-0.8,0.8-1.8,1.4-3,1.4
				C494.6,108.8,493.8,107.9,493.8,106.4z M499.1,106.3v-2.9c-2.9,0.6-3.9,1.6-3.9,2.8c0,1,0.5,1.4,1.3,1.4
				C497.5,107.6,498.4,107.1,499.1,106.3z"/>
			<path fill="#353535" d="M502.8,95.3h1.5v13.3h-1.5V95.3z"/>
			<path fill="#353535" d="M506.8,95.3h1.5v13.3h-1.5V95.3z"/>
			<path fill="#353535" d="M511.4,108.6h-0.7v-1.9h1.7v1.7l-0.8,2H511L511.4,108.6z"/>
			<path fill="#353535" d="M517.8,95.3h1.5l2,7.2c0.4,1.5,0.8,2.8,1.1,4.1h0c0.3-1.3,0.7-2.5,1.1-4l2-7.2h1.4l-3.9,13.4h-1.4
				L517.8,95.3z"/>
			<path fill="#353535" d="M528.7,95.7h1.5v1.6h-1.5V95.7z M528.7,99.1h1.5v9.5h-1.5V99.1z"/>
			<path fill="#353535" d="M532.1,103.9c0-3.4,1.4-5,3.3-5c1.1,0,1.9,0.5,2.6,1.3v-5h1.4v11c0,1.2,0.1,1.9,0.2,2.3h-1.5
				c-0.1-0.3-0.2-0.9-0.2-1.2c-0.6,0.7-1.4,1.4-2.6,1.4C533.5,108.8,532.1,107.3,532.1,103.9z M537.9,106.3v-4.8
				c-0.7-0.8-1.4-1.3-2.2-1.3c-1.3,0-2.1,1.1-2.1,3.7c0,2.5,0.9,3.7,2.2,3.7C536.6,107.6,537.4,107,537.9,106.3z"/>
			<path fill="#353535" d="M541.2,103.9c0-3.4,1.8-5,3.7-5c2.1,0,3.4,1.7,3.4,4.9v0.4h-5.6c0.1,2.2,0.9,3.4,2.3,3.4
				c1.1,0,1.7-0.6,2.3-1.7l1,0.6c-0.7,1.4-1.8,2.3-3.3,2.3C542.8,108.8,541.2,107.2,541.2,103.9z M546.9,103.1
				c-0.1-1.7-0.7-2.9-2-2.9c-1.1,0-2,0.9-2.2,2.9H546.9z"/>
			<path fill="#353535" d="M549.7,103.9c0-3.3,1.6-5,3.8-5c2.1,0,3.7,1.7,3.7,5c0,3.3-1.6,5-3.7,5S549.7,107.1,549.7,103.9z
				 M555.7,103.9c0-2.1-0.7-3.7-2.3-3.7c-1.5,0-2.3,1.5-2.3,3.7c0,2.1,0.7,3.7,2.3,3.7C555,107.6,555.7,106.1,555.7,103.9z"/>
			<path fill="#353535" d="M562.3,101.9c0-4.3,1.8-6.9,4.8-6.9c2.4,0,3.6,1.6,4.1,4.2l-1.4,0.3c-0.5-2.1-1.2-3.1-2.8-3.1
				c-1.9,0-3.2,1.9-3.2,5.5c0,3.8,1.2,5.6,3.3,5.6c1.8,0,2.8-1.3,2.8-4h-2.5v-1.3h3.9v6.4h-1.2v-1.8h0c-0.4,1-1.5,2.1-3.1,2.1
				C564,108.9,562.3,106.4,562.3,101.9z"/>
			<path fill="#353535" d="M573.1,106.4c0-1.9,1.6-3.3,5.3-4v-0.6c0-1.1-0.5-1.6-1.4-1.6c-1.2,0-2.1,0.6-2.8,1.3l-0.8-0.9
				c1-1,2.3-1.7,3.8-1.7c1.9,0,2.7,1,2.7,2.9v4.5c0,1.2,0.1,1.9,0.2,2.3h-1.5c-0.1-0.4-0.2-0.7-0.2-1.2c-0.8,0.8-1.8,1.4-3,1.4
				C574,108.8,573.1,107.9,573.1,106.4z M578.4,106.3v-2.9c-2.9,0.6-3.9,1.6-3.9,2.8c0,1,0.5,1.4,1.3,1.4
				C576.9,107.6,577.8,107.1,578.4,106.3z"/>
			<path fill="#353535" d="M582.1,99.1h1.5v1.3c0.7-0.7,1.7-1.5,2.9-1.5c1.3,0,1.9,0.5,2.2,1.5c0.7-0.8,1.7-1.5,3-1.5
				c1.5,0,2.3,0.9,2.3,2.6v7.1h-1.4v-6.8c0-1.1-0.4-1.7-1.3-1.7c-0.9,0-1.7,0.6-2.4,1.3v7.1h-1.5v-6.8c0-1.1-0.3-1.7-1.3-1.7
				c-0.8,0-1.6,0.6-2.4,1.4v7.1h-1.5V99.1z"/>
			<path fill="#353535" d="M595.7,103.9c0-3.4,1.8-5,3.7-5c2.1,0,3.4,1.7,3.4,4.9v0.4h-5.6c0.1,2.2,0.9,3.4,2.3,3.4
				c1.1,0,1.7-0.6,2.3-1.7l1,0.6c-0.7,1.4-1.8,2.3-3.3,2.3C597.3,108.8,595.7,107.2,595.7,103.9z M601.3,103.1
				c-0.1-1.7-0.7-2.9-2-2.9c-1.1,0-2,0.9-2.2,2.9H601.3z"/>
			<path fill="#353535" d="M603.8,106.9l1-0.7c0.6,1,1.6,1.5,2.6,1.5c1.2,0,1.9-0.5,1.9-1.4c0-2.3-5-1.4-5-4.8c0-1.5,1.2-2.6,3-2.6
				c1.4,0,2.4,0.7,3.1,1.7l-1,0.8c-0.5-0.7-1.2-1.3-2.2-1.3c-1.1,0-1.6,0.5-1.6,1.3c0,2.4,4.9,1.3,4.9,4.8c0,1.7-1.5,2.7-3.3,2.7
				C605.7,108.8,604.5,108.1,603.8,106.9z"/>
			<path fill="#353535" d="M613.2,108.6h-0.7v-1.9h1.7v1.7l-0.8,2h-0.7L613.2,108.6z"/>
			<path fill="#353535" d="M619.9,102c0-4.5,2-6.9,4.8-6.9c2.8,0,4.8,2.4,4.8,6.9s-2,6.9-4.8,6.9C622,108.9,619.9,106.5,619.9,102z
				 M628,102c0-3.5-1.3-5.5-3.3-5.5c-2.1,0-3.3,2-3.3,5.5s1.3,5.5,3.3,5.5C626.8,107.5,628,105.5,628,102z"/>
			<path fill="#353535" d="M631.5,99.1h1.5v1.3c0.6-0.7,1.8-1.5,3-1.5c1.5,0,2.3,0.9,2.3,2.6v7.1h-1.4v-6.8c0-1.1-0.4-1.7-1.4-1.7
				c-0.9,0-1.9,0.7-2.6,1.4v7.1h-1.5V99.1z"/>
			<path fill="#353535" d="M640.7,95.3h1.5v13.3h-1.5V95.3z"/>
			<path fill="#353535" d="M644.6,95.7h1.5v1.6h-1.5V95.7z M644.6,99.1h1.5v9.5h-1.5V99.1z"/>
			<path fill="#353535" d="M648.5,99.1h1.5v1.3c0.6-0.7,1.8-1.5,3-1.5c1.5,0,2.3,0.9,2.3,2.6v7.1h-1.4v-6.8c0-1.1-0.4-1.7-1.4-1.7
				c-0.9,0-1.9,0.7-2.6,1.4v7.1h-1.5V99.1z"/>
			<path fill="#353535" d="M657.1,103.9c0-3.4,1.8-5,3.7-5c2.1,0,3.4,1.7,3.4,4.9v0.4h-5.6c0.1,2.2,0.9,3.4,2.3,3.4
				c1.1,0,1.7-0.6,2.3-1.7l1,0.6c-0.7,1.4-1.8,2.3-3.3,2.3C658.7,108.8,657.1,107.2,657.1,103.9z M662.8,103.1
				c-0.1-1.7-0.7-2.9-2-2.9c-1.1,0-2,0.9-2.2,2.9H662.8z"/>
			<path fill="#353535" d="M669,105.7l1.3-0.6c0.6,1.4,1.6,2.4,3.1,2.4c1.6,0,2.5-0.8,2.5-2.1c0-1.5-1.3-2.2-2.7-2.9
				c-1.7-0.8-3.6-1.7-3.6-4.1c0-1.9,1.6-3.3,3.6-3.3c2.1,0,3.3,1.3,4,2.8l-1.3,0.6c-0.5-1.1-1.3-2.1-2.7-2.1c-1.3,0-2.1,0.8-2.1,1.9
				c0,1.5,1.3,2.2,2.7,2.9c1.7,0.8,3.6,1.7,3.6,4.1c0,1.9-1.5,3.5-4,3.5C671.2,108.9,669.8,107.6,669,105.7z"/>
			<path fill="#353535" d="M679.4,95.3h1.5v5.1c0.6-0.7,1.8-1.5,3-1.5c1.5,0,2.3,0.9,2.3,2.6v7.1h-1.4v-6.8c0-1.1-0.4-1.7-1.4-1.7
				c-0.9,0-1.9,0.7-2.6,1.4v7.1h-1.5V95.3z"/>
			<path fill="#353535" d="M688,103.9c0-3.3,1.6-5,3.8-5c2.1,0,3.7,1.7,3.7,5c0,3.3-1.6,5-3.7,5S688,107.1,688,103.9z M694.1,103.9
				c0-2.1-0.7-3.7-2.3-3.7c-1.5,0-2.3,1.5-2.3,3.7c0,2.1,0.7,3.7,2.3,3.7C693.3,107.6,694.1,106.1,694.1,103.9z"/>
			<path fill="#353535" d="M697.4,99.1h1.5v1.2c0.6-0.7,1.4-1.4,2.6-1.4c1.9,0,3.2,1.5,3.2,4.9c0,3.4-1.4,4.9-3.3,4.9
				c-1.1,0-1.9-0.5-2.5-1.3v4.8h-1.5V99.1z M703.2,103.9c0-2.5-0.9-3.7-2.1-3.7c-0.9,0-1.7,0.6-2.2,1.3v4.8c0.7,0.8,1.4,1.3,2.3,1.3
				C702.3,107.6,703.2,106.5,703.2,103.9z"/>
			<path fill="#353535" d="M706.5,99.1h1.5v1.2c0.6-0.7,1.4-1.4,2.6-1.4c1.9,0,3.2,1.5,3.2,4.9c0,3.4-1.4,4.9-3.3,4.9
				c-1.1,0-1.9-0.5-2.5-1.3v4.8h-1.5V99.1z M712.3,103.9c0-2.5-0.9-3.7-2.1-3.7c-0.9,0-1.7,0.6-2.2,1.3v4.8c0.7,0.8,1.4,1.3,2.2,1.3
				C711.5,107.6,712.3,106.5,712.3,103.9z"/>
			<path fill="#353535" d="M715.7,95.7h1.5v1.6h-1.5V95.7z M715.7,99.1h1.5v9.5h-1.5V99.1z"/>
			<path fill="#353535" d="M719.6,99.1h1.5v1.3c0.6-0.7,1.8-1.5,3-1.5c1.5,0,2.3,0.9,2.3,2.6v7.1H725v-6.8c0-1.1-0.4-1.7-1.4-1.7
				c-0.9,0-1.9,0.7-2.6,1.4v7.1h-1.5V99.1z"/>
			<path fill="#353535" d="M735.9,99v1.4c-0.4,0-0.9,0.1-1.4,0.3c0.3,0.5,0.4,1.1,0.4,1.7c0,2.1-1.4,3.4-3.3,3.4
				c-0.5,0-0.9-0.1-1.3-0.2c-0.3,0.2-0.5,0.4-0.5,0.7c0,0.4,0.2,0.5,1.1,0.6l1.5,0.2c2.3,0.3,3.3,1,3.3,2.4c0,1.7-1.8,2.7-4.1,2.7
				c-2.7,0-3.7-0.9-3.7-2.3c0-1,0.6-1.7,1.5-2.1c-0.5-0.3-0.8-0.6-0.8-1.2c0-0.6,0.4-1.1,1-1.5c-0.8-0.6-1.3-1.6-1.3-2.8
				c0-2.1,1.4-3.4,3.3-3.4c1,0,1.8,0.3,2.4,1C734.5,99.5,735.3,99.1,735.9,99z M729.1,109.7c0,1,0.6,1.5,2.6,1.5
				c1.5,0,2.6-0.5,2.6-1.5c0-0.8-0.5-1.2-2.1-1.4l-1.5-0.2c-0.1,0-0.2,0-0.3,0C729.5,108.5,729.1,109.1,729.1,109.7z M733.6,102.4
				c0-1.4-0.7-2.3-1.9-2.3c-1.2,0-1.9,0.9-1.9,2.3c0,1.4,0.7,2.3,1.9,2.3C732.9,104.7,733.6,103.8,733.6,102.4z"/>
			<path fill="#353535" d="M738.3,108.6h-0.7v-1.9h1.7v1.7l-0.8,2h-0.7L738.3,108.6z"/>
			<path fill="#353535" d="M745.1,101.9c0-4.4,1.9-6.9,4.8-6.9c2.5,0,3.7,1.7,4.1,4.2l-1.4,0.3c-0.4-2-1.2-3.1-2.8-3.1
				c-2.1,0-3.2,2.1-3.2,5.5c0,3.6,1.2,5.6,3.2,5.6c1.6,0,2.4-1,2.9-3.2l1.4,0.2c-0.5,2.6-1.8,4.4-4.3,4.4
				C746.9,108.9,745.1,106.5,745.1,101.9z"/>
			<path fill="#353535" d="M755.5,103.9c0-3.3,1.6-5,3.8-5c2.1,0,3.7,1.7,3.7,5c0,3.3-1.6,5-3.7,5S755.5,107.1,755.5,103.9z
				 M761.5,103.9c0-2.1-0.7-3.7-2.3-3.7c-1.5,0-2.3,1.5-2.3,3.7c0,2.1,0.7,3.7,2.3,3.7C760.8,107.6,761.5,106.1,761.5,103.9z"/>
			<path fill="#353535" d="M765.4,100.3h-1.4v-1.2h1.4v-1.4c0-1.6,0.8-2.4,2.6-2.4c0.2,0,0.7,0,0.7,0v1.2c0,0-0.5,0-0.5,0
				c-0.8,0-1.3,0.3-1.3,1.2v1.4h1.8v1.2h-1.8v8.3h-1.4V100.3z"/>
			<path fill="#353535" d="M770.8,100.3h-1.4v-1.2h1.4v-1.4c0-1.6,0.8-2.4,2.6-2.4c0.2,0,0.7,0,0.7,0v1.2c0,0-0.5,0-0.5,0
				c-0.8,0-1.3,0.3-1.3,1.2v1.4h1.8v1.2h-1.8v8.3h-1.4V100.3z"/>
			<path fill="#353535" d="M775.1,103.9c0-3.4,1.8-5,3.7-5c2.1,0,3.4,1.7,3.4,4.9v0.4h-5.6c0.1,2.2,0.9,3.4,2.3,3.4
				c1.1,0,1.7-0.6,2.3-1.7l1,0.6c-0.7,1.4-1.8,2.3-3.3,2.3C776.7,108.8,775.1,107.2,775.1,103.9z M780.7,103.1
				c-0.1-1.7-0.7-2.9-2-2.9c-1.1,0-2,0.9-2.2,2.9H780.7z"/>
			<path fill="#353535" d="M783.5,103.9c0-3.4,1.8-5,3.7-5c2.1,0,3.4,1.7,3.4,4.9v0.4H785c0.1,2.2,0.9,3.4,2.3,3.4
				c1.1,0,1.7-0.6,2.3-1.7l1,0.6c-0.7,1.4-1.8,2.3-3.3,2.3C785.1,108.8,783.5,107.2,783.5,103.9z M789.2,103.1
				c-0.1-1.7-0.7-2.9-2-2.9c-1.1,0-2,0.9-2.2,2.9H789.2z"/>
		</g>
	</g>
	
		<line fill="none" stroke="#353535" stroke-width="3" stroke-linecap="round" stroke-linejoin="round" stroke-miterlimit="10" x1="631.5" y1="40.6" x2="631.5" y2="81.6"/>
	<circle fill="#353535" cx="631.5" cy="40.3" r="4.1"/>
	
		<line fill="none" stroke="#353535" stroke-width="3" stroke-linecap="round" stroke-linejoin="round" stroke-miterlimit="10" x1="624.9" y1="82.1" x2="638.1" y2="82.1"/>
</g>
</svg>
