<?xml version="1.0" encoding="utf-8"?>
<!-- Generator: Adobe Illustrator 17.1.0, SVG Export Plug-In . SVG Version: 6.00 Build 0)  -->
<!DOCTYPE svg PUBLIC "-//W3C//DTD SVG 1.1//EN" "http://www.w3.org/Graphics/SVG/1.1/DTD/svg11.dtd">
<svg version="1.1" id="Layer_1" xmlns="http://www.w3.org/2000/svg" xmlns:xlink="http://www.w3.org/1999/xlink" x="0px" y="0px"
	 viewBox="0 0 884.6 466.7" enable-background="new 0 0 884.6 466.7" xml:space="preserve">
<rect x="205" y="207.5" fill="none" stroke="#FFFFFF" stroke-width="4" stroke-linecap="round" stroke-linejoin="round" stroke-miterlimit="10" width="177.1" height="60.3"/>
<g>
	<path fill="#FFFFFF" d="M242,231.2v2.2c0,0.2-0.2,0.4-0.4,0.4h-1.9c-0.2,0-0.4-0.2-0.4-0.4v-2.1c0-2.2-1.1-3.1-2.7-3.1
		c-1.5,0-2.6,0.8-2.6,3.1V244c0,2.2,1.1,3.1,2.6,3.1c1.5,0,2.7-0.8,2.7-3.1v-2.2c0-0.2,0.2-0.4,0.4-0.4h1.9c0.2,0,0.4,0.2,0.4,0.4
		v2.2c0,3.3-2.1,5.6-5.3,5.6c-3.2,0-5.3-2.3-5.3-5.6v-12.9c0-3.4,1.8-5.6,5.3-5.6C240.2,225.6,242,227.8,242,231.2z"/>
	<path fill="#FFFFFF" d="M255.4,231.2v12.9c0,3.3-2.1,5.6-5.3,5.6c-3.2,0-5.3-2.3-5.3-5.6v-12.9c0-3.4,1.8-5.6,5.3-5.6
		C253.6,225.6,255.4,227.8,255.4,231.2z M252.7,231.2c0-2.2-1-3.1-2.6-3.1c-1.5,0-2.6,0.8-2.6,3.1V244c0,2.2,1,3.1,2.6,3.1
		c1.5,0,2.6-0.8,2.6-3.1V231.2z"/>
	<path fill="#FFFFFF" d="M274.1,226.3v22.5c0,0.2-0.2,0.4-0.4,0.4h-1.7c-0.2,0-0.4-0.2-0.4-0.4v-16.7l-3.9,16.8
		c0,0.1-0.2,0.3-0.4,0.3h-1.8c-0.1,0-0.3-0.1-0.4-0.3c0,0-3.8-16.2-3.9-16.8v16.7c0,0.2-0.2,0.4-0.4,0.4h0h-1.7
		c-0.2,0-0.4-0.2-0.4-0.4v-22.5c0-0.2,0.2-0.4,0.4-0.4h2.4c0.2,0,0.4,0.1,0.4,0.4l4.4,18.8l4.4-18.8c0-0.2,0.3-0.4,0.4-0.4h2.4
		C274,226,274.1,226.1,274.1,226.3z"/>
	<path fill="#FFFFFF" d="M292.9,226.3v22.5c0,0.2-0.2,0.4-0.4,0.4h-1.7c-0.2,0-0.4-0.2-0.4-0.4v-16.7l-3.9,16.8
		c0,0.1-0.2,0.3-0.4,0.3h-1.8c-0.1,0-0.3-0.1-0.4-0.3c0,0-3.8-16.2-3.9-16.8v16.7c0,0.2-0.2,0.4-0.4,0.4h0H278
		c-0.2,0-0.4-0.2-0.4-0.4v-22.5c0-0.2,0.2-0.4,0.4-0.4h2.4c0.2,0,0.4,0.1,0.4,0.4l4.4,18.8l4.4-18.8c0-0.2,0.3-0.4,0.4-0.4h2.4
		C292.8,226,292.9,226.1,292.9,226.3z"/>
	<path fill="#FFFFFF" d="M307,226.3v17.7c0,3.3-2.1,5.6-5.3,5.6c-3.2,0-5.3-2.3-5.3-5.6v-17.7c0-0.2,0.2-0.4,0.4-0.4h1.9
		c0.2,0,0.4,0.2,0.4,0.4V244c0,2.2,1.1,3.1,2.6,3.1c1.5,0,2.6-0.8,2.6-3.1v-17.7c0-0.2,0.2-0.4,0.4-0.4h1.9
		C306.9,226,307,226.1,307,226.3z"/>
	<path fill="#FFFFFF" d="M322.1,226.3v22.5c0,0.2-0.2,0.4-0.4,0.4h-1.8c-0.2,0-0.5-0.3-0.6-0.4l-6.3-16.3v16.3
		c0,0.2-0.1,0.4-0.4,0.4h-1.8c-0.2,0-0.4-0.2-0.4-0.4v-22.5c0-0.2,0.2-0.4,0.4-0.4h1.8c0.2,0,0.4,0.1,0.4,0.4l6.4,17.3v-17.2
		c0-0.2,0.1-0.4,0.4-0.4h1.8C321.9,226,322.1,226.1,322.1,226.3z"/>
	<path fill="#FFFFFF" d="M329.8,228.5v18.1h1.8c0.2,0,0.4,0.2,0.4,0.4v1.9c0,0.2-0.2,0.4-0.4,0.4h-6.1c-0.2,0-0.4-0.1-0.4-0.4V247
		c0-0.2,0.2-0.4,0.4-0.4h1.8v-18.1h-1.8c-0.2,0-0.4-0.1-0.4-0.4v-1.9c0-0.2,0.2-0.4,0.4-0.4h6.1c0.2,0,0.4,0.1,0.4,0.4v1.9
		c0,0.2-0.2,0.4-0.4,0.4H329.8z"/>
	<path fill="#FFFFFF" d="M344.2,226.3v1.8c0,0.2-0.2,0.4-0.4,0.4h-3.4v20.3c0,0.2-0.2,0.4-0.4,0.4h-1.9c-0.2,0-0.4-0.2-0.4-0.4
		v-20.3h-3.4c-0.2,0-0.4-0.2-0.4-0.4v-1.8c0-0.2,0.2-0.4,0.4-0.4h9.5C344,226,344.2,226.1,344.2,226.3z"/>
	<path fill="#FFFFFF" d="M357.6,226.3c0,0-5,13-5,13v9.6c0,0.2-0.2,0.4-0.4,0.4h-1.8c-0.2,0-0.4-0.2-0.4-0.4v-9.6c0,0-4.9-13-4.9-13
		c-0.1-0.2,0.1-0.4,0.4-0.4c0.6,0,1.7,0,1.7,0c0.3,0,0.4,0.1,0.5,0.4l3.6,9.9l3.6-9.9c0.1-0.3,0.2-0.4,0.5-0.4c0,0,0,0,1.8,0
		C357.6,226,357.7,226.1,357.6,226.3z"/>
</g>
<rect x="551.6" y="79.2" fill="none" stroke="#FFFFFF" stroke-width="4" stroke-linecap="round" stroke-linejoin="round" stroke-miterlimit="10" width="177.1" height="60.3"/>
<g>
	<path fill="#FFFFFF" d="M583,115.1c0,3.5-1.8,5.8-5.3,5.8h-5c-0.2,0-0.4-0.2-0.4-0.4V98c0-0.2,0.2-0.4,0.4-0.4h5
		c3.8,0,5.4,2.7,5.4,6.3V115.1z M577.7,118.3c1.8,0,2.5-1.2,2.5-2.6v-12.5c0-1.5-0.5-3-2.5-3h-2.8v18.1H577.7z"/>
	<path fill="#FFFFFF" d="M589.1,100.2v7.2h4.6c0.2,0,0.4,0.2,0.4,0.4v1.7c0,0.2-0.2,0.4-0.4,0.4h-4.6v8.4h6.6c0.2,0,0.4,0.2,0.4,0.4
		v1.8c0,0.2-0.2,0.4-0.4,0.4h-9c-0.2,0-0.4-0.2-0.4-0.4V98c0-0.2,0.2-0.4,0.4-0.4h9c0.2,0,0.4,0.2,0.4,0.4v1.8
		c0,0.2-0.2,0.4-0.4,0.4H589.1z"/>
	<path fill="#FFFFFF" d="M610.3,98l-4.2,22.5c-0.1,0.2-0.2,0.4-0.4,0.4h0h-3h0c-0.2,0-0.3-0.2-0.4-0.4L598,98c0-0.2,0.2-0.4,0.4-0.4
		h1.9c0.2,0,0.3,0.1,0.4,0.4l3.5,19.8l3.4-19.8c0.1-0.3,0.2-0.4,0.4-0.4h1.9C610.1,97.6,610.3,97.8,610.3,98z"/>
	<path fill="#FFFFFF" d="M625.6,109.5v1.4c0,0.2-0.1,0.4-0.4,0.4h-2.4v2.5c0,0.2-0.2,0.4-0.4,0.4h-1.4c-0.2,0-0.4-0.2-0.4-0.4v-2.5
		h-2.4c-0.2,0-0.4-0.1-0.4-0.4v-1.4c0-0.2,0.2-0.4,0.4-0.4h2.4v-2.4c0-0.2,0.1-0.4,0.4-0.4h1.4c0.2,0,0.4,0.1,0.4,0.4v2.4h2.4
		C625.5,109.1,625.6,109.3,625.6,109.5z"/>
	<path fill="#FFFFFF" d="M645,115.1c0,3.5-1.8,5.8-5.3,5.8h-5c-0.2,0-0.4-0.2-0.4-0.4V98c0-0.2,0.2-0.4,0.4-0.4h5
		c3.8,0,5.4,2.7,5.4,6.3V115.1z M639.8,118.3c1.8,0,2.5-1.2,2.5-2.6v-12.5c0-1.5-0.5-3-2.5-3H637v18.1H639.8z"/>
	<path fill="#FFFFFF" d="M651.2,100.2v7.2h4.6c0.2,0,0.4,0.2,0.4,0.4v1.7c0,0.2-0.2,0.4-0.4,0.4h-4.6v8.4h6.6c0.2,0,0.4,0.2,0.4,0.4
		v1.8c0,0.2-0.2,0.4-0.4,0.4h-9c-0.2,0-0.4-0.2-0.4-0.4V98c0-0.2,0.2-0.4,0.4-0.4h9c0.2,0,0.4,0.2,0.4,0.4v1.8
		c0,0.2-0.2,0.4-0.4,0.4H651.2z"/>
	<path fill="#FFFFFF" d="M671.2,113.8c0,0.6,0,2.2,0,2.2c0,3.2-2.3,5.3-5.3,5.3c-3.2,0-5.5-2.3-5.5-5.8v-2.1c0-0.2,0.1-0.4,0.4-0.4
		h1.9c0.2,0,0.4,0.2,0.4,0.4v2.6c0,2.1,1.3,2.9,2.9,2.9c1.9,0,2.6-1.3,2.6-2.9v-1.9c0-1.4-0.5-2.1-2.3-3.7l-2.8-2.6
		c-1.5-1.4-2.7-3.5-2.7-5.1c0-3.3,1.9-5.5,5.2-5.5c3.2,0,5.3,2.2,5.3,5.6v1.9c0,0.2-0.1,0.3-0.3,0.3h-2c-0.1,0-0.3-0.1-0.3-0.3v-2.2
		c0-2.2-1.1-3-2.6-3c-1.5,0-2.4,1-2.4,3c0,0.5,0.1,1.7,2.1,3.5c0.6,0.6,3.5,3.3,3.5,3.3C671,111.2,671.2,113,671.2,113.8z"/>
	<path fill="#FFFFFF" d="M678.1,100.2v18.1h1.8c0.2,0,0.4,0.2,0.4,0.4v1.9c0,0.2-0.2,0.4-0.4,0.4h-6.1c-0.2,0-0.4-0.1-0.4-0.4v-1.9
		c0-0.2,0.2-0.4,0.4-0.4h1.8v-18.1h-1.8c-0.2,0-0.4-0.1-0.4-0.4V98c0-0.2,0.2-0.4,0.4-0.4h6.1c0.2,0,0.4,0.1,0.4,0.4v1.9
		c0,0.2-0.2,0.4-0.4,0.4H678.1z"/>
	<path fill="#FFFFFF" d="M694,110.2v10.5c0,0.1-0.1,0.3-0.3,0.3h-0.7c-0.1,0-0.3-0.1-0.3-0.2l-0.2-1.1c-1,1.1-2.4,1.7-4.1,1.7
		c-3.2,0-5.5-2.3-5.5-5.6v-12.9c0-3.4,1.8-5.6,5.3-5.6c3.5,0,5.3,2.2,5.3,5.6v2.2c0,0.2-0.2,0.4-0.4,0.4h-1.9
		c-0.2,0-0.4-0.2-0.4-0.4v-2.1c0-2.2-1.1-3.1-2.6-3.1c-1.5,0-2.6,0.8-2.6,3.1v12.8c0,2.2,1.3,3.1,2.8,3.1c1.5,0,2.8-0.8,2.8-3.1
		v-3.4h-1.5c-0.2,0-0.4-0.1-0.4-0.4v-1.8c0-0.2,0.2-0.4,0.4-0.4h3.9C693.9,109.8,694,110,694,110.2z"/>
	<path fill="#FFFFFF" d="M708.8,98v22.5c0,0.2-0.2,0.4-0.4,0.4h-1.8c-0.2,0-0.5-0.3-0.6-0.4l-6.3-16.3v16.3c0,0.2-0.1,0.4-0.4,0.4
		h-1.8c-0.2,0-0.4-0.2-0.4-0.4V98c0-0.2,0.2-0.4,0.4-0.4h1.8c0.2,0,0.4,0.1,0.4,0.4l6.4,17.3V98c0-0.2,0.1-0.4,0.4-0.4h1.8
		C708.6,97.6,708.8,97.8,708.8,98z"/>
</g>
<rect x="409.3" y="396.5" fill="none" stroke="#FFFFFF" stroke-width="4" stroke-linecap="round" stroke-linejoin="round" stroke-miterlimit="10" width="177.1" height="60.3"/>
<g>
	<path fill="#FFFFFF" d="M440.5,417.5v18.1h1.8c0.2,0,0.4,0.2,0.4,0.4v1.9c0,0.2-0.2,0.4-0.4,0.4h-6.1c-0.2,0-0.4-0.1-0.4-0.4V436
		c0-0.2,0.2-0.4,0.4-0.4h1.8v-18.1h-1.8c-0.2,0-0.4-0.1-0.4-0.4v-1.9c0-0.2,0.2-0.4,0.4-0.4h6.1c0.2,0,0.4,0.1,0.4,0.4v1.9
		c0,0.2-0.2,0.4-0.4,0.4H440.5z"/>
	<path fill="#FFFFFF" d="M457.2,415.3v22.5c0,0.2-0.2,0.4-0.4,0.4H455c-0.2,0-0.5-0.3-0.6-0.4l-6.3-16.3v16.3c0,0.2-0.1,0.4-0.4,0.4
		H446c-0.2,0-0.4-0.2-0.4-0.4v-22.5c0-0.2,0.2-0.4,0.4-0.4h1.8c0.2,0,0.4,0.1,0.4,0.4l6.4,17.3v-17.2c0-0.2,0.1-0.4,0.4-0.4h1.8
		C457,415,457.2,415.1,457.2,415.3z"/>
	<path fill="#FFFFFF" d="M472.2,415.3v22.5c0,0.2-0.2,0.4-0.4,0.4h-1.8c-0.2,0-0.5-0.3-0.6-0.4l-6.3-16.3v16.3
		c0,0.2-0.1,0.4-0.4,0.4H461c-0.2,0-0.4-0.2-0.4-0.4v-22.5c0-0.2,0.2-0.4,0.4-0.4h1.8c0.2,0,0.4,0.1,0.4,0.4l6.4,17.3v-17.2
		c0-0.2,0.1-0.4,0.4-0.4h1.8C472,415,472.2,415.1,472.2,415.3z"/>
	<path fill="#FFFFFF" d="M486.2,420.2v12.9c0,3.3-2.1,5.6-5.3,5.6c-3.2,0-5.3-2.3-5.3-5.6v-12.9c0-3.4,1.8-5.6,5.3-5.6
		C484.4,414.6,486.2,416.8,486.2,420.2z M483.5,420.2c0-2.2-1-3.1-2.6-3.1c-1.5,0-2.6,0.8-2.6,3.1V433c0,2.2,1,3.1,2.6,3.1
		c1.5,0,2.6-0.8,2.6-3.1V420.2z"/>
	<path fill="#FFFFFF" d="M500.6,415.3l-4.2,22.5c-0.1,0.2-0.2,0.4-0.4,0.4h0h-3h0c-0.2,0-0.3-0.2-0.4-0.4l-4.2-22.5
		c0-0.2,0.2-0.4,0.4-0.4h1.9c0.2,0,0.3,0.1,0.4,0.4l3.5,19.8l3.4-19.8c0.1-0.3,0.2-0.4,0.4-0.4h1.9
		C500.5,415,500.6,415.1,500.6,415.3z"/>
	<path fill="#FFFFFF" d="M512.7,437.9c0,0.2-0.2,0.4-0.4,0.4h-2c-0.2,0-0.4-0.1-0.4-0.4l-0.7-4.5h-5.3l-0.7,4.5
		c-0.1,0.3-0.2,0.4-0.4,0.4h-2c-0.2,0-0.4-0.2-0.4-0.4l4.2-22.5c0.1-0.2,0.2-0.4,0.4-0.4h3c0.2,0,0.3,0.2,0.4,0.4L512.7,437.9z
		 M508.7,430.9l-2.2-13l-2.2,13H508.7z"/>
	<path fill="#FFFFFF" d="M522.9,415.3v1.8c0,0.2-0.2,0.4-0.4,0.4h-3.4v20.3c0,0.2-0.2,0.4-0.4,0.4h-1.9c-0.2,0-0.4-0.2-0.4-0.4
		v-20.3h-3.4c-0.2,0-0.4-0.2-0.4-0.4v-1.8c0-0.2,0.2-0.4,0.4-0.4h9.5C522.7,415,522.9,415.1,522.9,415.3z"/>
	<path fill="#FFFFFF" d="M529.6,417.5v18.1h1.8c0.2,0,0.4,0.2,0.4,0.4v1.9c0,0.2-0.2,0.4-0.4,0.4h-6.1c-0.2,0-0.4-0.1-0.4-0.4V436
		c0-0.2,0.2-0.4,0.4-0.4h1.8v-18.1h-1.8c-0.2,0-0.4-0.1-0.4-0.4v-1.9c0-0.2,0.2-0.4,0.4-0.4h6.1c0.2,0,0.4,0.1,0.4,0.4v1.9
		c0,0.2-0.2,0.4-0.4,0.4H529.6z"/>
	<path fill="#FFFFFF" d="M545.1,420.2v12.9c0,3.3-2.1,5.6-5.3,5.6c-3.2,0-5.3-2.3-5.3-5.6v-12.9c0-3.4,1.8-5.6,5.3-5.6
		C543.2,414.6,545.1,416.8,545.1,420.2z M542.3,420.2c0-2.2-1-3.1-2.6-3.1c-1.5,0-2.6,0.8-2.6,3.1V433c0,2.2,1,3.1,2.6,3.1
		c1.5,0,2.6-0.8,2.6-3.1V420.2z"/>
	<path fill="#FFFFFF" d="M560,415.3v22.5c0,0.2-0.2,0.4-0.4,0.4h-1.8c-0.2,0-0.5-0.3-0.6-0.4l-6.3-16.3v16.3c0,0.2-0.1,0.4-0.4,0.4
		h-1.8c-0.2,0-0.4-0.2-0.4-0.4v-22.5c0-0.2,0.2-0.4,0.4-0.4h1.8c0.2,0,0.4,0.1,0.4,0.4l6.4,17.3v-17.2c0-0.2,0.1-0.4,0.4-0.4h1.8
		C559.9,415,560,415.1,560,415.3z"/>
</g>
<g>
	<g>
		<path fill="#353535" d="M422.6,233.4h3.8c2.6,0,4.1,1.2,4.1,3.8c0,2.1-1.2,3.2-2.5,3.6l2.7,5.9h-1.5l-2.6-5.7h-2.4v5.7h-1.5V233.4
			z M426.3,239.8c1.8,0,2.7-0.7,2.7-2.6c0-1.8-0.9-2.4-2.7-2.4h-2.2v5H426.3z"/>
		<path fill="#353535" d="M432.2,242c0-3.4,1.8-5,3.7-5c2.1,0,3.4,1.7,3.4,4.9v0.4h-5.6c0.1,2.2,0.9,3.4,2.3,3.4
			c1.1,0,1.7-0.6,2.3-1.7l1,0.6c-0.7,1.4-1.8,2.3-3.3,2.3C433.8,246.9,432.2,245.3,432.2,242z M437.9,241.2c-0.1-1.7-0.7-2.9-2-2.9
			c-1.1,0-2,0.9-2.2,2.9H437.9z"/>
		<path fill="#353535" d="M441.7,244.6v-6.2h-1.4v-1.2h1.4v-3.4h1.4v3.4h2.1v1.2h-2.1v5.8c0,1,0.3,1.4,1.3,1.4
			c0.3,0,0.6-0.1,0.8-0.1v1.2c-0.2,0.1-0.7,0.1-1.1,0.1C442.4,246.8,441.7,246.2,441.7,244.6z"/>
		<path fill="#353535" d="M447,233.4h1.5v5.1c0.6-0.7,1.8-1.5,3-1.5c1.5,0,2.3,0.9,2.3,2.6v7.1h-1.4V240c0-1.1-0.4-1.7-1.4-1.7
			c-0.9,0-1.9,0.7-2.6,1.4v7.1H447V233.4z"/>
		<path fill="#353535" d="M456,237.2h1.5v1.6h0c0.5-1,1.5-1.8,3-1.8h0.2l-0.1,1.4c0,0-0.3,0-0.3,0c-1.2,0-2.2,0.8-2.8,1.9v6.4H456
			V237.2z"/>
		<path fill="#353535" d="M461.8,242c0-3.4,1.8-5,3.7-5c2.1,0,3.4,1.7,3.4,4.9v0.4h-5.6c0.1,2.2,0.9,3.4,2.3,3.4
			c1.1,0,1.7-0.6,2.3-1.7l1,0.6c-0.7,1.4-1.8,2.3-3.3,2.3C463.4,246.9,461.8,245.3,461.8,242z M467.5,241.2c-0.1-1.7-0.7-2.9-2-2.9
			c-1.1,0-2,0.9-2.2,2.9H467.5z"/>
		<path fill="#353535" d="M470.2,244.5c0-1.9,1.6-3.3,5.3-4v-0.6c0-1.1-0.5-1.6-1.4-1.6c-1.2,0-2.1,0.6-2.8,1.3l-0.8-0.9
			c1-1,2.3-1.7,3.8-1.7c1.9,0,2.7,1,2.7,2.9v4.5c0,1.2,0.1,1.9,0.2,2.3h-1.5c-0.1-0.4-0.2-0.7-0.2-1.2c-0.8,0.8-1.8,1.4-3,1.4
			C471,246.9,470.2,246,470.2,244.5z M475.5,244.4v-2.9c-2.9,0.6-3.9,1.6-3.9,2.8c0,1,0.5,1.4,1.3,1.4
			C473.9,245.7,474.8,245.1,475.5,244.4z"/>
		<path fill="#353535" d="M478.7,242c0-3.4,1.4-5,3.3-5c1.1,0,1.9,0.5,2.6,1.3v-5h1.4v11c0,1.2,0.1,1.9,0.2,2.3h-1.5
			c-0.1-0.3-0.2-0.9-0.2-1.2c-0.6,0.7-1.4,1.4-2.6,1.4C480.1,246.9,478.7,245.4,478.7,242z M484.6,244.4v-4.8
			c-0.7-0.8-1.4-1.3-2.3-1.3c-1.3,0-2.1,1.1-2.1,3.7c0,2.5,0.9,3.7,2.2,3.7C483.2,245.7,484,245,484.6,244.4z"/>
		<path fill="#353535" d="M487.9,242c0-3.4,1.8-5,3.7-5c2.1,0,3.4,1.7,3.4,4.9v0.4h-5.6c0.1,2.2,0.9,3.4,2.3,3.4
			c1.1,0,1.7-0.6,2.3-1.7l1,0.6c-0.7,1.4-1.8,2.3-3.3,2.3C489.4,246.9,487.9,245.3,487.9,242z M493.5,241.2c-0.1-1.7-0.7-2.9-2-2.9
			c-1.1,0-2,0.9-2.2,2.9H493.5z"/>
		<path fill="#353535" d="M496.3,242c0-3.4,1.4-5,3.3-5c1.1,0,1.9,0.5,2.6,1.3v-5h1.4v11c0,1.2,0.1,1.9,0.2,2.3h-1.5
			c-0.1-0.3-0.2-0.9-0.2-1.2c-0.6,0.7-1.4,1.4-2.6,1.4C497.7,246.9,496.3,245.4,496.3,242z M502.2,244.4v-4.8
			c-0.7-0.8-1.4-1.3-2.2-1.3c-1.3,0-2.1,1.1-2.1,3.7c0,2.5,0.9,3.7,2.2,3.7C500.8,245.7,501.6,245,502.2,244.4z"/>
	</g>
</g>
<g>
	<g>
		<path fill="#353535" d="M201.5,332.7h1.9l3.4,11.2h0l3.3-11.2h1.9V346h-1.5v-10.9h0c-0.2,0.8-0.6,2.3-0.9,3.4l-2.3,7.5h-1.2
			l-2.3-7.6c-0.3-1-0.7-2.5-0.9-3.4h0V346h-1.4V332.7z"/>
		<path fill="#353535" d="M214,341.2c0-3.3,1.6-5,3.8-5c2.1,0,3.7,1.7,3.7,5c0,3.3-1.6,5-3.7,5S214,344.5,214,341.2z M220.1,341.2
			c0-2.1-0.7-3.7-2.3-3.7c-1.5,0-2.3,1.5-2.3,3.7c0,2.1,0.7,3.7,2.3,3.7C219.3,345,220.1,343.5,220.1,341.2z"/>
		<path fill="#353535" d="M222.6,336.5h1.5l1.5,5.4c0.2,0.8,0.4,1.5,0.7,2.6h0c0.3-1.1,0.4-1.7,0.7-2.6l1.5-5.4h1.4L227,346h-1.5
			L222.6,336.5z"/>
		<path fill="#353535" d="M230.9,341.2c0-3.4,1.8-5,3.7-5c2.1,0,3.4,1.7,3.4,4.9v0.4h-5.6c0.1,2.2,0.9,3.4,2.3,3.4
			c1.1,0,1.7-0.6,2.3-1.7l1,0.6c-0.7,1.4-1.8,2.3-3.3,2.3C232.5,346.2,230.9,344.5,230.9,341.2z M236.5,340.4
			c-0.1-1.7-0.7-2.9-2-2.9c-1.1,0-2,0.9-2.2,2.9H236.5z"/>
		<path fill="#353535" d="M239.8,336.5h1.5v1.3c0.7-0.7,1.7-1.5,2.9-1.5c1.3,0,1.9,0.5,2.2,1.5c0.7-0.8,1.7-1.5,3-1.5
			c1.5,0,2.3,0.9,2.3,2.6v7.1h-1.4v-6.8c0-1.1-0.4-1.7-1.3-1.7c-0.9,0-1.7,0.6-2.4,1.3v7.1H245v-6.8c0-1.1-0.3-1.7-1.3-1.7
			c-0.8,0-1.6,0.6-2.4,1.3v7.1h-1.5V336.5z"/>
		<path fill="#353535" d="M255.3,344.9v1.1h-1.5v-13.3h1.5v5c0.6-0.7,1.4-1.4,2.6-1.4c1.9,0,3.2,1.5,3.2,4.9c0,3.4-1.5,4.9-3.3,4.9
			C256.7,346.1,255.9,345.6,255.3,344.9z M259.6,341.2c0-2.5-0.9-3.7-2.1-3.7c-0.9,0-1.6,0.6-2.2,1.3v4.8c0.7,0.8,1.4,1.3,2.3,1.3
			C258.8,344.9,259.6,343.8,259.6,341.2z"/>
		<path fill="#353535" d="M262.5,341.2c0-3.4,1.8-5,3.7-5c2.1,0,3.4,1.7,3.4,4.9v0.4h-5.6c0.1,2.2,0.9,3.4,2.3,3.4
			c1.1,0,1.7-0.6,2.3-1.7l1,0.6c-0.7,1.4-1.8,2.3-3.3,2.3C264.1,346.2,262.5,344.5,262.5,341.2z M268.2,340.4
			c-0.1-1.7-0.7-2.9-2-2.9c-1.1,0-2,0.9-2.2,2.9H268.2z"/>
		<path fill="#353535" d="M271.4,336.5h1.5v1.6h0c0.5-1,1.5-1.8,3-1.8h0.2l-0.1,1.4c0,0-0.3,0-0.3,0c-1.2,0-2.3,0.8-2.8,1.9v6.4
			h-1.5V336.5z"/>
	</g>
</g>
<g>
	<g>
		<path fill="#353535" d="M308.6,333.1h1.4l1.4,6.8c0.3,1.4,0.5,2.3,0.8,3.9h0c0.3-1.6,0.5-2.5,0.8-3.9l1.4-6.8h1.4l1.4,7
			c0.3,1.4,0.5,2.3,0.7,3.8h0c0.2-1.4,0.5-2.4,0.7-3.8l1.5-7h1.4l-3,13.4h-1.3l-2.2-10.7h0l-2.2,10.7h-1.3L308.6,333.1z"/>
		<path fill="#353535" d="M323.3,333.4h1.5v1.6h-1.5V333.4z M323.3,336.9h1.5v9.5h-1.5V336.9z"/>
		<path fill="#353535" d="M327.1,336.9h1.5v1.3c0.6-0.7,1.8-1.5,3-1.5c1.5,0,2.3,0.9,2.3,2.6v7.1h-1.4v-6.8c0-1.1-0.4-1.7-1.4-1.7
			c-0.9,0-1.9,0.7-2.6,1.4v7.1h-1.5V336.9z"/>
		<path fill="#353535" d="M340.8,343.3h-5.4v-1.2l5.1-9.1h1.7v8.9h1.9v1.3h-1.9v3.1h-1.4V343.3z M340.9,341.9v-6.8h0l-3.8,6.8H340.9
			z"/>
		<path fill="#353535" d="M348.5,340.9l-3.7-7.8h1.5l2.9,6.4h0l2.9-6.4h1.5l-3.7,7.8v5.5h-1.5V340.9z"/>
		<path fill="#353535" d="M354.7,341.6c0-3.3,1.6-5,3.8-5c2.1,0,3.7,1.7,3.7,5c0,3.3-1.6,5-3.7,5S354.7,344.9,354.7,341.6z
			 M360.8,341.6c0-2.1-0.7-3.7-2.3-3.7c-1.5,0-2.3,1.5-2.3,3.7c0,2.1,0.7,3.7,2.3,3.7C360,345.4,360.8,343.9,360.8,341.6z"/>
		<path fill="#353535" d="M364,343.9v-7.1h1.4v6.8c0,1.1,0.4,1.7,1.4,1.7c0.9,0,1.7-0.6,2.5-1.4v-7.1h1.5v9.5h-1.5v-1.3
			c-0.7,0.8-1.7,1.5-3,1.5C364.8,346.6,364,345.7,364,343.9z"/>
		<path fill="#353535" d="M373.7,344.2v-6.2h-1.4v-1.2h1.4v-3.4h1.4v3.4h2.1v1.2h-2.1v5.8c0,1,0.3,1.4,1.3,1.4
			c0.3,0,0.6-0.1,0.8-0.1v1.2c-0.2,0.1-0.7,0.1-1.1,0.1C374.3,346.5,373.7,345.9,373.7,344.2z"/>
		<path fill="#353535" d="M378.9,333.1h1.5v5.1c0.6-0.7,1.8-1.5,3-1.5c1.5,0,2.3,0.9,2.3,2.6v7.1h-1.4v-6.8c0-1.1-0.4-1.7-1.4-1.7
			c-0.9,0-1.9,0.7-2.6,1.4v7.1h-1.5V333.1z"/>
	</g>
</g>
<g>
	<g>
		<path fill="#353535" d="M204.4,158.7c0-4.4,1.9-6.9,4.8-6.9c2.5,0,3.7,1.7,4.1,4.2l-1.4,0.3c-0.4-2-1.2-3.1-2.8-3.1
			c-2.1,0-3.2,2.1-3.2,5.5c0,3.6,1.2,5.6,3.2,5.6c1.6,0,2.4-1,2.9-3.2l1.4,0.2c-0.5,2.6-1.8,4.4-4.3,4.4
			C206.2,165.6,204.4,163.3,204.4,158.7z"/>
		<path fill="#353535" d="M215.3,152.1h1.5v5.1c0.6-0.7,1.8-1.5,3-1.5c1.5,0,2.3,0.9,2.3,2.6v7.1h-1.4v-6.8c0-1.1-0.4-1.7-1.4-1.7
			c-0.9,0-1.9,0.7-2.6,1.4v7.1h-1.5V152.1z"/>
		<path fill="#353535" d="M224.4,152.4h1.5v1.6h-1.5V152.4z M224.4,155.9h1.5v9.5h-1.5V155.9z"/>
		<path fill="#353535" d="M228.4,152.1h1.5v13.3h-1.5V152.1z"/>
		<path fill="#353535" d="M231.8,160.6c0-3.4,1.4-5,3.3-5c1.1,0,1.9,0.5,2.6,1.3v-5h1.4v11c0,1.2,0.1,1.9,0.2,2.3h-1.5
			c-0.1-0.3-0.2-0.9-0.2-1.2c-0.6,0.7-1.4,1.4-2.6,1.4C233.2,165.5,231.8,164.1,231.8,160.6z M237.7,163v-4.8
			c-0.7-0.8-1.4-1.3-2.2-1.3c-1.3,0-2.1,1.1-2.1,3.7c0,2.5,0.9,3.7,2.2,3.7C236.3,164.3,237.1,163.7,237.7,163z"/>
		<path fill="#353535" d="M241.4,155.9h1.5v1.6h0c0.5-1,1.5-1.8,3-1.8h0.2l-0.1,1.4c0,0-0.3,0-0.3,0c-1.2,0-2.3,0.8-2.8,1.9v6.4
			h-1.5V155.9z"/>
		<path fill="#353535" d="M247.2,160.6c0-3.4,1.8-5,3.7-5c2.1,0,3.4,1.7,3.4,4.9v0.4h-5.6c0.1,2.2,0.9,3.4,2.3,3.4
			c1.1,0,1.7-0.6,2.3-1.7l1,0.6c-0.7,1.4-1.8,2.3-3.3,2.3C248.7,165.6,247.2,164,247.2,160.6z M252.8,159.8c-0.1-1.7-0.7-2.9-2-2.9
			c-1.1,0-2,0.9-2.2,2.9H252.8z"/>
		<path fill="#353535" d="M256.1,155.9h1.5v1.3c0.6-0.7,1.8-1.5,3-1.5c1.5,0,2.3,0.9,2.3,2.6v7.1h-1.4v-6.8c0-1.1-0.4-1.7-1.4-1.7
			c-0.9,0-1.9,0.7-2.6,1.4v7.1h-1.5V155.9z"/>
		<path fill="#353535" d="M265.9,153.9h-0.6v-1.9h1.7v1.7l-0.8,2h-0.7L265.9,153.9z"/>
		<path fill="#353535" d="M268.6,163.6l1-0.7c0.6,1,1.6,1.5,2.6,1.5c1.2,0,1.9-0.5,1.9-1.4c0-2.3-5-1.4-5-4.8c0-1.5,1.2-2.6,3-2.6
			c1.4,0,2.4,0.7,3.1,1.7l-1,0.8c-0.5-0.7-1.2-1.3-2.2-1.3c-1.1,0-1.6,0.5-1.6,1.3c0,2.4,4.9,1.3,4.9,4.8c0,1.7-1.5,2.7-3.3,2.7
			C270.5,165.6,269.3,164.8,268.6,163.6z"/>
		<path fill="#353535" d="M281,152.1h1.5v5.6h5.4v-5.6h1.5v13.3h-1.5v-6.3h-5.4v6.3H281V152.1z"/>
		<path fill="#353535" d="M291.5,160.6c0-3.3,1.6-5,3.8-5c2.1,0,3.7,1.7,3.7,5c0,3.3-1.6,5-3.7,5S291.5,163.9,291.5,160.6z
			 M297.6,160.6c0-2.1-0.7-3.7-2.3-3.7c-1.5,0-2.3,1.5-2.3,3.7c0,2.1,0.7,3.7,2.3,3.7C296.8,164.4,297.6,162.9,297.6,160.6z"/>
		<path fill="#353535" d="M300.9,155.9h1.5v1.3c0.7-0.7,1.7-1.5,2.9-1.5c1.3,0,1.9,0.5,2.2,1.5c0.7-0.8,1.7-1.5,3-1.5
			c1.5,0,2.3,0.9,2.3,2.6v7.1h-1.4v-6.8c0-1.1-0.4-1.7-1.3-1.7c-0.9,0-1.7,0.6-2.4,1.3v7.1H306v-6.8c0-1.1-0.3-1.7-1.3-1.7
			c-0.8,0-1.6,0.6-2.4,1.3v7.1h-1.5V155.9z"/>
		<path fill="#353535" d="M314.4,160.6c0-3.4,1.8-5,3.7-5c2.1,0,3.4,1.7,3.4,4.9v0.4h-5.6c0.1,2.2,0.9,3.4,2.3,3.4
			c1.1,0,1.7-0.6,2.3-1.7l1,0.6c-0.7,1.4-1.8,2.3-3.3,2.3C316,165.6,314.4,164,314.4,160.6z M320.1,159.8c-0.1-1.7-0.7-2.9-2-2.9
			c-1.1,0-2,0.9-2.2,2.9H320.1z"/>
		<path fill="#353535" d="M326.4,162.5l1.3-0.6c0.6,1.4,1.6,2.4,3.1,2.4c1.6,0,2.5-0.8,2.5-2.1c0-1.5-1.3-2.2-2.7-2.9
			c-1.7-0.8-3.6-1.7-3.6-4.1c0-1.9,1.6-3.3,3.6-3.3c2.1,0,3.3,1.3,4,2.8l-1.3,0.6c-0.5-1.1-1.3-2.1-2.7-2.1c-1.3,0-2.1,0.8-2.1,1.9
			c0,1.5,1.3,2.2,2.7,2.9c1.7,0.8,3.6,1.7,3.6,4.1c0,1.9-1.5,3.5-4,3.5C328.6,165.6,327.2,164.4,326.4,162.5z"/>
		<path fill="#353535" d="M336.3,160.6c0-3.3,1.6-5,3.8-5c2.1,0,3.7,1.7,3.7,5c0,3.3-1.6,5-3.7,5S336.3,163.9,336.3,160.6z
			 M342.4,160.6c0-2.1-0.7-3.7-2.3-3.7c-1.5,0-2.3,1.5-2.3,3.7c0,2.1,0.7,3.7,2.3,3.7C341.6,164.4,342.4,162.9,342.4,160.6z"/>
		<path fill="#353535" d="M345.2,160.6c0-3.4,1.7-5,3.7-5c1.9,0,2.7,1.3,3.2,2.8l-1.3,0.4c-0.3-1.2-0.8-1.9-1.9-1.9
			c-1.2,0-2.2,1.1-2.2,3.7c0,2.3,0.8,3.7,2.2,3.7c1,0,1.6-0.6,2-2l1.3,0.3c-0.5,1.8-1.6,2.8-3.3,2.8
			C346.9,165.6,345.2,163.9,345.2,160.6z"/>
		<path fill="#353535" d="M354,152.4h1.5v1.6H354V152.4z M354,155.9h1.5v9.5H354V155.9z"/>
		<path fill="#353535" d="M357.4,160.6c0-3.4,1.8-5,3.7-5c2.1,0,3.4,1.7,3.4,4.9v0.4h-5.6c0.1,2.2,0.9,3.4,2.3,3.4
			c1.1,0,1.7-0.6,2.3-1.7l1,0.6c-0.7,1.4-1.8,2.3-3.3,2.3C359,165.6,357.4,164,357.4,160.6z M363.1,159.8c-0.1-1.7-0.7-2.9-2-2.9
			c-1.1,0-2,0.9-2.2,2.9H363.1z"/>
		<path fill="#353535" d="M366.9,163.2v-6.2h-1.4v-1.2h1.4v-3.4h1.4v3.4h2.1v1.2h-2.1v5.8c0,1,0.3,1.4,1.3,1.4
			c0.3,0,0.6-0.1,0.8-0.1v1.2c-0.2,0.1-0.7,0.1-1.1,0.1C367.5,165.5,366.9,164.9,366.9,163.2z"/>
		<path fill="#353535" d="M371.1,168.8l0.3-1.2c0.2,0.1,0.7,0.1,1.2,0.1c0.8,0,1.2-0.5,1.5-1.5l0.3-0.8l-3-9.6h1.5l1.4,5
			c0.3,1,0.5,1.9,0.8,2.9h0c0.3-1,0.5-1.9,0.8-3l1.4-4.9h1.4l-3.3,10.6c-0.6,1.7-1.2,2.6-2.8,2.6C372,169,371.4,168.9,371.1,168.8z"
			/>
	</g>
</g>
<g>
	<g>
		<path fill="#353535" d="M462.6,105.1h1.5v7c0.2-0.4,0.8-1.3,1.4-2.1l3.5-4.9h1.6l-3.7,5.2l4.3,8.2h-1.6l-3.6-6.9l-1.8,2.5v4.4
			h-1.5V105.1z"/>
		<path fill="#353535" d="M475.5,112.9l-3.7-7.8h1.5l2.9,6.4h0l2.9-6.4h1.5l-3.7,7.8v5.5h-1.5V112.9z"/>
		<path fill="#353535" d="M482.3,105.1h1.8l4.2,8.2c0.5,0.9,0.7,1.4,1.2,2.4h0v-10.5h1.4v13.3h-1.4l-4.5-8.6c-0.5-1-0.8-1.5-1.3-2.5
			h0v11.1h-1.4V105.1z"/>
	</g>
</g>
<g>
	<g>
		<path fill="#353535" d="M578.4,15.7H577l3.9-13.4h1.4l3.9,13.4h-1.5l-1.1-3.8h-4.2L578.4,15.7z M582.7,8.5
			c-0.5-1.6-0.8-2.8-1.1-4.1h0c-0.3,1.3-0.7,2.5-1.1,4.1l-0.6,2.1h3.4L582.7,8.5z"/>
		<path fill="#353535" d="M587.8,6.2h1.5v1.3c0.6-0.7,1.8-1.5,3-1.5c1.5,0,2.3,0.9,2.3,2.6v7.1h-1.4V8.9c0-1.1-0.4-1.7-1.4-1.7
			c-0.9,0-1.9,0.7-2.6,1.4v7.1h-1.5V6.2z"/>
		<path fill="#353535" d="M596.4,10.9c0-3.4,1.7-5,3.7-5c1.9,0,2.7,1.3,3.2,2.8L602,9.1c-0.3-1.2-0.8-1.9-1.9-1.9
			c-1.2,0-2.2,1.1-2.2,3.7c0,2.3,0.8,3.7,2.2,3.7c1,0,1.6-0.6,2-2l1.3,0.3c-0.5,1.8-1.6,2.8-3.3,2.8C598,15.9,596.4,14.2,596.4,10.9
			z"/>
		<path fill="#353535" d="M605.1,2.7h1.5v1.6h-1.5V2.7z M605.1,6.2h1.5v9.5h-1.5V6.2z"/>
		<path fill="#353535" d="M608.6,10.9c0-3.4,1.8-5,3.7-5c2.1,0,3.4,1.7,3.4,4.9v0.4H610c0.1,2.2,0.9,3.4,2.3,3.4
			c1.1,0,1.7-0.6,2.3-1.7l1,0.6c-0.7,1.4-1.8,2.3-3.3,2.3C610.2,15.9,608.6,14.2,608.6,10.9z M614.2,10.1c-0.1-1.7-0.7-2.9-2-2.9
			c-1.1,0-2,0.9-2.2,2.9H614.2z"/>
		<path fill="#353535" d="M617.5,6.2h1.5v1.3c0.6-0.7,1.8-1.5,3-1.5c1.5,0,2.3,0.9,2.3,2.6v7.1h-1.4V8.9c0-1.1-0.4-1.7-1.4-1.7
			c-0.9,0-1.9,0.7-2.6,1.4v7.1h-1.5V6.2z"/>
		<path fill="#353535" d="M627.1,13.5V7.4h-1.4V6.2h1.4V2.8h1.4v3.4h2.1v1.2h-2.1v5.8c0,1,0.3,1.4,1.3,1.4c0.3,0,0.6-0.1,0.8-0.1
			v1.2c-0.2,0.1-0.7,0.1-1.1,0.1C627.7,15.8,627.1,15.2,627.1,13.5z"/>
		<path fill="#353535" d="M635.6,9c0-4.4,1.9-6.9,4.8-6.9c2.5,0,3.7,1.7,4.1,4.2l-1.4,0.3c-0.4-2-1.2-3.1-2.8-3.1
			c-2.1,0-3.2,2.1-3.2,5.5c0,3.6,1.2,5.6,3.2,5.6c1.6,0,2.4-1,2.9-3.2l1.4,0.2c-0.5,2.6-1.8,4.4-4.3,4.4
			C637.4,15.9,635.6,13.5,635.6,9z"/>
		<path fill="#353535" d="M646.6,2.7h1.5v1.6h-1.5V2.7z M646.6,6.2h1.5v9.5h-1.5V6.2z"/>
		<path fill="#353535" d="M651,13.5V7.4h-1.4V6.2h1.4V2.8h1.4v3.4h2.1v1.2h-2.1v5.8c0,1,0.3,1.4,1.3,1.4c0.3,0,0.6-0.1,0.8-0.1v1.2
			c-0.2,0.1-0.7,0.1-1.1,0.1C651.7,15.8,651,15.2,651,13.5z"/>
		<path fill="#353535" d="M655.3,19.1l0.3-1.2c0.2,0.1,0.7,0.1,1.2,0.1c0.8,0,1.2-0.5,1.5-1.5l0.3-0.8l-3-9.6h1.5l1.4,5
			c0.3,1,0.5,1.9,0.8,2.9h0c0.3-1,0.5-1.9,0.8-3l1.4-4.9h1.4l-3.3,10.6c-0.6,1.7-1.2,2.6-2.8,2.6C656.1,19.3,655.5,19.2,655.3,19.1z
			"/>
		<path fill="#353535" d="M668.3,2.3h3.8c2.6,0,4.1,1.2,4.1,3.8c0,2.1-1.2,3.2-2.5,3.6l2.7,5.9h-1.5l-2.6-5.7h-2.4v5.7h-1.5V2.3z
			 M672,8.7c1.8,0,2.7-0.7,2.7-2.6c0-1.8-0.9-2.4-2.7-2.4h-2.2v5H672z"/>
		<path fill="#353535" d="M678.3,13.2V6.2h1.4v6.8c0,1.1,0.4,1.7,1.4,1.7c0.9,0,1.7-0.6,2.5-1.4V6.2h1.5v9.5h-1.5v-1.3
			c-0.7,0.8-1.7,1.5-3,1.5C679.1,15.9,678.3,14.9,678.3,13.2z"/>
		<path fill="#353535" d="M688.8,14.5v1.1h-1.5V2.4h1.5v5c0.6-0.7,1.4-1.4,2.6-1.4c1.9,0,3.2,1.5,3.2,4.9c0,3.4-1.5,4.9-3.3,4.9
			C690.3,15.8,689.5,15.3,688.8,14.5z M693.2,10.9c0-2.5-0.9-3.7-2.1-3.7c-0.9,0-1.6,0.6-2.2,1.3v4.8c0.7,0.8,1.4,1.3,2.2,1.3
			C692.3,14.6,693.2,13.5,693.2,10.9z"/>
		<path fill="#353535" d="M695.5,19.1l0.3-1.2c0.2,0.1,0.7,0.1,1.2,0.1c0.8,0,1.2-0.5,1.5-1.5l0.3-0.8l-3-9.6h1.5l1.4,5
			c0.3,1,0.5,1.9,0.8,2.9h0c0.3-1,0.5-1.9,0.8-3l1.4-4.9h1.4l-3.3,10.6c-0.6,1.7-1.2,2.6-2.8,2.6C696.3,19.3,695.7,19.2,695.5,19.1z
			"/>
	</g>
</g>
<g>
	<g>
		<path fill="#353535" d="M640.3,282.3h-1.4l3.9-13.4h1.4l3.9,13.4h-1.5l-1.1-3.8h-4.2L640.3,282.3z M644.5,275.2
			c-0.4-1.6-0.8-2.8-1.1-4.1h0c-0.3,1.3-0.7,2.5-1.1,4.1l-0.6,2.1h3.4L644.5,275.2z"/>
		<path fill="#353535" d="M650,269h1.5v13.3H650V269z"/>
		<path fill="#353535" d="M653.8,275.6c0-4.3,1.8-6.9,4.8-6.9c2.4,0,3.6,1.6,4.1,4.2l-1.4,0.3c-0.5-2.1-1.2-3.1-2.8-3.1
			c-1.9,0-3.2,1.9-3.2,5.5c0,3.8,1.2,5.6,3.3,5.6c1.8,0,2.8-1.3,2.8-4h-2.5V276h3.9v6.4h-1.2v-1.8h0c-0.4,1-1.5,2.1-3.1,2.1
			C655.5,282.6,653.8,280,653.8,275.6z"/>
		<path fill="#353535" d="M665.9,282.3h-1.4l3.9-13.4h1.4l3.9,13.4h-1.5l-1.1-3.8h-4.2L665.9,282.3z M670.2,275.2
			c-0.5-1.6-0.8-2.8-1.1-4.1h0c-0.3,1.3-0.7,2.5-1.1,4.1l-0.6,2.1h3.4L670.2,275.2z"/>
		<path fill="#353535" d="M678.1,281.5l0.7-1.1c0.6,0.5,1.5,0.8,2.2,0.8c1,0,1.7-0.6,1.7-1.9V269h1.5v10.4c0,2.1-1.2,3.2-3.1,3.2
			C680,282.5,678.9,282.2,678.1,281.5z"/>
		<path fill="#353535" d="M686.1,280.1c0-1.9,1.6-3.3,5.3-4v-0.6c0-1.1-0.5-1.6-1.4-1.6c-1.2,0-2.1,0.6-2.8,1.3l-0.8-0.9
			c1-1,2.3-1.7,3.8-1.7c1.9,0,2.7,1,2.7,2.9v4.5c0,1.2,0.1,1.9,0.2,2.3h-1.5c-0.1-0.4-0.2-0.7-0.2-1.2c-0.8,0.8-1.8,1.4-3,1.4
			C687,282.5,686.1,281.6,686.1,280.1z M691.4,280v-2.9c-2.9,0.6-3.9,1.6-3.9,2.8c0,1,0.5,1.4,1.3,1.4
			C689.9,281.3,690.8,280.8,691.4,280z"/>
		<path fill="#353535" d="M694.7,277.6c0-3.4,1.7-5,3.7-5c1.9,0,2.7,1.3,3.2,2.8l-1.3,0.4c-0.3-1.2-0.8-1.9-1.9-1.9
			c-1.2,0-2.2,1.1-2.2,3.7c0,2.3,0.8,3.7,2.2,3.7c1,0,1.6-0.6,2-2l1.3,0.3c-0.5,1.8-1.6,2.8-3.3,2.8
			C696.3,282.5,694.7,280.8,694.7,277.6z"/>
		<path fill="#353535" d="M703.3,269h1.4v8.7c0.2-0.4,0.8-1.2,1.3-1.9l2.2-3h1.5l-2.6,3.5l2.9,6h-1.5l-2.3-4.8l-1.5,2v2.8h-1.4V269z
			"/>
		<path fill="#353535" d="M710.8,280.6l1-0.7c0.6,1,1.6,1.5,2.6,1.5c1.2,0,1.9-0.5,1.9-1.4c0-2.3-5-1.4-5-4.8c0-1.5,1.2-2.6,3-2.6
			c1.4,0,2.4,0.7,3.1,1.7l-1,0.8c-0.5-0.7-1.2-1.3-2.2-1.3c-1.1,0-1.6,0.5-1.6,1.3c0,2.4,4.9,1.3,4.9,4.8c0,1.7-1.5,2.7-3.3,2.7
			C712.7,282.5,711.5,281.8,710.8,280.6z"/>
		<path fill="#353535" d="M719,277.6c0-3.3,1.6-5,3.8-5c2.1,0,3.7,1.7,3.7,5c0,3.3-1.6,5-3.7,5S719,280.8,719,277.6z M725,277.6
			c0-2.1-0.7-3.7-2.3-3.7c-1.5,0-2.3,1.5-2.3,3.7c0,2.1,0.7,3.7,2.3,3.7C724.2,281.3,725,279.8,725,277.6z"/>
		<path fill="#353535" d="M728.3,272.8h1.5v1.3c0.6-0.7,1.8-1.5,3-1.5c1.5,0,2.3,0.9,2.3,2.6v7.1h-1.4v-6.8c0-1.1-0.4-1.7-1.4-1.7
			c-0.9,0-1.9,0.7-2.6,1.4v7.1h-1.5V272.8z"/>
		<path fill="#353535" d="M736.5,272.8h1.5l1.5,5.4c0.2,0.8,0.4,1.5,0.7,2.6h0c0.3-1.1,0.4-1.7,0.7-2.6l1.5-5.4h1.4l-2.9,9.5h-1.5
			L736.5,272.8z"/>
		<path fill="#353535" d="M745.4,269.4h1.5v1.6h-1.5V269.4z M745.4,272.8h1.5v9.5h-1.5V272.8z"/>
		<path fill="#353535" d="M749.3,269h1.5v13.3h-1.5V269z"/>
		<path fill="#353535" d="M753.3,269h1.5v13.3h-1.5V269z"/>
		<path fill="#353535" d="M756.7,277.6c0-3.4,1.8-5,3.7-5c2.1,0,3.4,1.7,3.4,4.9v0.4h-5.6c0.1,2.2,0.9,3.4,2.3,3.4
			c1.1,0,1.7-0.6,2.3-1.7l1,0.6c-0.7,1.4-1.8,2.3-3.3,2.3C758.3,282.5,756.7,280.9,756.7,277.6z M762.4,276.8
			c-0.1-1.7-0.7-2.9-2-2.9c-1.1,0-2,0.9-2.2,2.9H762.4z"/>
	</g>
</g>
<g>
	<g>
		<path fill="#353535" d="M514.7,333.4h1.9l3.4,11.2h0l3.3-11.2h1.9v13.3h-1.5v-10.9h0c-0.2,0.8-0.6,2.3-0.9,3.4l-2.3,7.5h-1.2
			l-2.3-7.6c-0.3-1-0.7-2.5-0.9-3.4h0v10.9h-1.3V333.4z"/>
		<path fill="#353535" d="M527.3,342c0-3.4,1.8-5,3.7-5c2.1,0,3.4,1.7,3.4,4.9v0.4h-5.6c0.1,2.2,0.9,3.4,2.3,3.4
			c1.1,0,1.7-0.6,2.3-1.7l1,0.6c-0.7,1.4-1.8,2.3-3.3,2.3C528.8,346.9,527.3,345.3,527.3,342z M532.9,341.2c-0.1-1.7-0.7-2.9-2-2.9
			c-1.1,0-2,0.9-2.2,2.9H532.9z"/>
		<path fill="#353535" d="M536.2,337.2h1.5v1.6h0c0.5-1,1.5-1.8,3-1.8h0.2l-0.1,1.4c0,0-0.3,0-0.3,0c-1.2,0-2.2,0.8-2.8,1.9v6.4
			h-1.5V337.2z"/>
		<path fill="#353535" d="M541.9,342c0-3.3,1.6-5,3.8-5c2.1,0,3.7,1.7,3.7,5c0,3.3-1.6,5-3.7,5S541.9,345.2,541.9,342z M548,342
			c0-2.1-0.7-3.7-2.3-3.7c-1.5,0-2.3,1.5-2.3,3.7c0,2.1,0.7,3.7,2.3,3.7C547.2,345.7,548,344.2,548,342z"/>
		<path fill="#353535" d="M550.5,345l1-0.7c0.6,1,1.6,1.5,2.6,1.5c1.2,0,1.9-0.5,1.9-1.4c0-2.3-5-1.4-5-4.8c0-1.5,1.2-2.6,3-2.6
			c1.4,0,2.4,0.7,3.1,1.7l-1,0.8c-0.5-0.7-1.2-1.3-2.2-1.3c-1.1,0-1.6,0.5-1.6,1.3c0,2.4,4.9,1.3,4.9,4.8c0,1.7-1.5,2.7-3.3,2.7
			C552.4,346.9,551.2,346.2,550.5,345z"/>
		<path fill="#353535" d="M563.4,346.7H562l3.9-13.4h1.4l3.9,13.4h-1.5l-1.1-3.8h-4.2L563.4,346.7z M567.7,339.5
			c-0.5-1.6-0.8-2.8-1.1-4.1h0c-0.3,1.3-0.7,2.5-1.1,4.1l-0.6,2.1h3.4L567.7,339.5z"/>
		<path fill="#353535" d="M572.4,342c0-3.4,1.7-5,3.7-5c1.9,0,2.7,1.3,3.2,2.8l-1.3,0.4c-0.3-1.2-0.8-1.9-1.9-1.9
			c-1.2,0-2.2,1.1-2.2,3.7c0,2.3,0.8,3.7,2.2,3.7c1,0,1.6-0.6,2-2l1.3,0.3c-0.5,1.8-1.6,2.8-3.3,2.8
			C574,346.9,572.4,345.2,572.4,342z"/>
		<path fill="#353535" d="M580.6,344.5c0-1.9,1.6-3.3,5.3-4v-0.6c0-1.1-0.5-1.6-1.4-1.6c-1.2,0-2.1,0.6-2.8,1.3l-0.8-0.9
			c1-1,2.3-1.7,3.8-1.7c1.9,0,2.7,1,2.7,2.9v4.5c0,1.2,0.1,1.9,0.2,2.3h-1.5c-0.1-0.4-0.2-0.7-0.2-1.2c-0.8,0.8-1.8,1.4-3,1.4
			C581.4,346.9,580.6,346,580.6,344.5z M585.9,344.4v-2.9c-2.9,0.6-3.9,1.6-3.9,2.8c0,1,0.5,1.4,1.3,1.4
			C584.3,345.7,585.2,345.1,585.9,344.4z"/>
		<path fill="#353535" d="M589.1,342c0-3.4,1.4-5,3.3-5c1.1,0,1.9,0.5,2.6,1.3v-5h1.4v11c0,1.2,0.1,1.9,0.2,2.3h-1.5
			c-0.1-0.3-0.2-0.9-0.2-1.2c-0.6,0.7-1.4,1.4-2.6,1.4C590.5,346.9,589.1,345.4,589.1,342z M595,344.4v-4.8
			c-0.7-0.8-1.4-1.3-2.3-1.3c-1.3,0-2.1,1.1-2.1,3.7c0,2.5,0.9,3.7,2.2,3.7C593.6,345.7,594.4,345,595,344.4z"/>
		<path fill="#353535" d="M598.2,342c0-3.4,1.8-5,3.7-5c2.1,0,3.4,1.7,3.4,4.9v0.4h-5.6c0.1,2.2,0.9,3.4,2.3,3.4
			c1.1,0,1.7-0.6,2.3-1.7l1,0.6c-0.7,1.4-1.8,2.3-3.3,2.3C599.8,346.9,598.2,345.3,598.2,342z M603.9,341.2c-0.1-1.7-0.7-2.9-2-2.9
			c-1.1,0-2,0.9-2.2,2.9H603.9z"/>
		<path fill="#353535" d="M607.1,337.2h1.5v1.3c0.7-0.7,1.7-1.5,2.9-1.5c1.3,0,1.9,0.5,2.2,1.5c0.7-0.8,1.7-1.5,3-1.5
			c1.5,0,2.3,0.9,2.3,2.6v7.1h-1.4V340c0-1.1-0.4-1.7-1.3-1.7c-0.9,0-1.7,0.6-2.4,1.3v7.1h-1.5V340c0-1.1-0.3-1.7-1.3-1.7
			c-0.8,0-1.6,0.6-2.4,1.3v7.1h-1.5V337.2z"/>
		<path fill="#353535" d="M620.1,350.1l0.3-1.2c0.2,0.1,0.7,0.1,1.2,0.1c0.8,0,1.2-0.5,1.5-1.5l0.3-0.8l-3-9.6h1.5l1.4,5
			c0.3,1,0.5,1.9,0.8,2.9h0c0.3-1,0.5-1.9,0.8-3l1.4-4.9h1.4l-3.3,10.6c-0.6,1.7-1.2,2.6-2.8,2.6C621,350.3,620.4,350.2,620.1,350.1
			z"/>
	</g>
</g>
<g>
	<g>
		<path fill="#353535" d="M705.5,432.1l1.3-0.6c0.6,1.4,1.6,2.4,3.1,2.4c1.6,0,2.5-0.8,2.5-2.1c0-1.5-1.3-2.2-2.7-2.9
			c-1.7-0.8-3.6-1.7-3.6-4.1c0-1.9,1.6-3.3,3.6-3.3c2.1,0,3.3,1.3,4,2.8l-1.3,0.6c-0.5-1.1-1.3-2.1-2.7-2.1c-1.3,0-2.1,0.8-2.1,1.9
			c0,1.5,1.3,2.2,2.7,2.9c1.7,0.8,3.6,1.7,3.6,4.1c0,1.9-1.5,3.5-4,3.5C707.7,435.3,706.4,434,705.5,432.1z"/>
		<path fill="#353535" d="M716.5,432.9v-6.2h-1.4v-1.2h1.4v-3.4h1.4v3.4h2.1v1.2h-2.1v5.8c0,1,0.3,1.4,1.3,1.4
			c0.3,0,0.6-0.1,0.8-0.1v1.2c-0.2,0.1-0.7,0.1-1.1,0.1C717.2,435.2,716.5,434.6,716.5,432.9z"/>
		<path fill="#353535" d="M721.3,432.8c0-1.9,1.6-3.3,5.3-4v-0.6c0-1.1-0.5-1.6-1.4-1.6c-1.2,0-2.1,0.6-2.8,1.3l-0.8-0.9
			c1-1,2.3-1.7,3.8-1.7c1.9,0,2.7,1,2.7,2.9v4.5c0,1.2,0.1,1.9,0.2,2.3h-1.5c-0.1-0.4-0.2-0.7-0.2-1.2c-0.8,0.8-1.8,1.4-3,1.4
			C722.1,435.2,721.3,434.3,721.3,432.8z M726.6,432.8v-2.9c-2.9,0.6-3.9,1.6-3.9,2.8c0,1,0.5,1.4,1.3,1.4
			C725,434,725.9,433.5,726.6,432.8z"/>
		<path fill="#353535" d="M730.3,425.6h1.5v1.6h0c0.5-1,1.5-1.8,3-1.8h0.2l-0.1,1.4c0,0-0.3,0-0.3,0c-1.2,0-2.3,0.8-2.8,1.9v6.4
			h-1.5V425.6z"/>
		<path fill="#353535" d="M737,432.9v-6.2h-1.4v-1.2h1.4v-3.4h1.4v3.4h2.1v1.2h-2.1v5.8c0,1,0.3,1.4,1.3,1.4c0.3,0,0.6-0.1,0.8-0.1
			v1.2c-0.2,0.1-0.7,0.1-1.1,0.1C737.7,435.2,737,434.6,737,432.9z"/>
		<path fill="#353535" d="M742.2,432.6v-7.1h1.4v6.8c0,1.1,0.4,1.7,1.4,1.7c0.9,0,1.7-0.6,2.5-1.4v-7.1h1.5v9.5h-1.5v-1.3
			c-0.7,0.8-1.7,1.5-3,1.5C743.1,435.3,742.2,434.3,742.2,432.6z"/>
		<path fill="#353535" d="M751.4,425.6h1.5v1.2c0.6-0.7,1.4-1.4,2.6-1.4c1.9,0,3.2,1.5,3.2,4.9c0,3.4-1.4,4.9-3.3,4.9
			c-1.1,0-1.9-0.5-2.5-1.3v4.8h-1.5V425.6z M757.2,430.3c0-2.5-0.9-3.7-2.1-3.7c-0.9,0-1.7,0.6-2.2,1.3v4.8c0.7,0.8,1.4,1.3,2.2,1.3
			C756.3,434,757.2,432.9,757.2,430.3z"/>
		<path fill="#353535" d="M763.3,434.2l0.7-1.1c0.6,0.5,1.5,0.8,2.2,0.8c1,0,1.7-0.6,1.7-1.9v-10.3h1.5v10.4c0,2.1-1.2,3.2-3.1,3.2
			C765.3,435.3,764.1,434.9,763.3,434.2z"/>
		<path fill="#353535" d="M771.3,432.8c0-1.9,1.6-3.3,5.3-4v-0.6c0-1.1-0.5-1.6-1.4-1.6c-1.2,0-2.1,0.6-2.8,1.3l-0.8-0.9
			c1-1,2.2-1.7,3.8-1.7c1.9,0,2.7,1,2.7,2.9v4.5c0,1.2,0.1,1.9,0.2,2.3h-1.5c-0.1-0.4-0.2-0.7-0.2-1.2c-0.8,0.8-1.8,1.4-3,1.4
			C772.2,435.2,771.3,434.3,771.3,432.8z M776.6,432.8v-2.9c-2.9,0.6-3.9,1.6-3.9,2.8c0,1,0.5,1.4,1.3,1.4
			C775.1,434,776,433.5,776.6,432.8z"/>
		<path fill="#353535" d="M782.3,430.1l-2.6-4.5h1.5l1.9,3.4l1.8-3.4h1.4l-2.6,4.5l2.9,5h-1.5l-2.2-3.9l-2.2,3.9h-1.4L782.3,430.1z"
			/>
	</g>
</g>
<g>
	<g>
		<path fill="#353535" d="M155.8,428.4c0-4.5,2-6.9,4.8-6.9c2.8,0,4.8,2.4,4.8,6.9c0,4.5-2,6.9-4.8,6.9
			C157.8,435.3,155.8,432.9,155.8,428.4z M163.9,428.4c0-3.5-1.3-5.5-3.3-5.5c-2.1,0-3.3,2-3.3,5.5c0,3.5,1.3,5.5,3.3,5.5
			C162.6,433.9,163.9,431.9,163.9,428.4z"/>
		<path fill="#353535" d="M167.4,425.6h1.5v1.3c0.6-0.7,1.8-1.5,3-1.5c1.5,0,2.3,0.9,2.3,2.6v7.1h-1.4v-6.8c0-1.1-0.4-1.7-1.4-1.7
			c-0.9,0-1.9,0.7-2.6,1.4v7.1h-1.5V425.6z"/>
		<path fill="#353535" d="M176,430.3c0-3.4,1.8-5,3.7-5c2.1,0,3.4,1.7,3.4,4.9v0.4h-5.6c0.1,2.2,0.9,3.4,2.3,3.4
			c1.1,0,1.7-0.6,2.3-1.7l1,0.6c-0.7,1.4-1.8,2.3-3.3,2.3C177.6,435.3,176,433.6,176,430.3z M181.6,429.5c-0.1-1.7-0.7-2.9-2-2.9
			c-1.1,0-2,0.9-2.2,2.9H181.6z"/>
		<path fill="#353535" d="M187.9,432.1l1.3-0.6c0.6,1.4,1.6,2.4,3.1,2.4c1.6,0,2.5-0.8,2.5-2.1c0-1.5-1.3-2.2-2.7-2.9
			c-1.7-0.8-3.6-1.7-3.6-4.1c0-1.9,1.6-3.3,3.6-3.3c2.1,0,3.3,1.3,4,2.8l-1.3,0.6c-0.5-1.1-1.3-2.1-2.7-2.1c-1.3,0-2.1,0.8-2.1,1.9
			c0,1.5,1.3,2.2,2.7,2.9c1.7,0.8,3.6,1.7,3.6,4.1c0,1.9-1.5,3.5-4,3.5C190.1,435.3,188.7,434,187.9,432.1z"/>
		<path fill="#353535" d="M198.3,425.6h1.5v1.2c0.6-0.7,1.4-1.4,2.6-1.4c1.9,0,3.2,1.5,3.2,4.9c0,3.4-1.4,4.9-3.3,4.9
			c-1.1,0-1.9-0.5-2.5-1.3v4.8h-1.5V425.6z M204.1,430.3c0-2.5-0.9-3.7-2.1-3.7c-0.9,0-1.7,0.6-2.2,1.3v4.8c0.7,0.8,1.4,1.3,2.3,1.3
			C203.3,434,204.1,432.9,204.1,430.3z"/>
		<path fill="#353535" d="M206.9,432.8c0-1.9,1.6-3.3,5.3-4v-0.6c0-1.1-0.5-1.6-1.4-1.6c-1.2,0-2.1,0.6-2.8,1.3l-0.8-0.9
			c1-1,2.3-1.7,3.8-1.7c1.9,0,2.7,1,2.7,2.9v4.5c0,1.2,0.1,1.9,0.2,2.3h-1.5c-0.1-0.4-0.2-0.7-0.2-1.2c-0.8,0.8-1.8,1.4-3,1.4
			C207.8,435.2,206.9,434.3,206.9,432.8z M212.3,432.8v-2.9c-2.9,0.6-3.9,1.6-3.9,2.8c0,1,0.5,1.4,1.3,1.4
			C210.7,434,211.6,433.5,212.3,432.8z"/>
		<path fill="#353535" d="M215.9,425.6h1.5v1.6h0c0.5-1,1.5-1.8,3-1.8h0.2l-0.1,1.4c0,0-0.3,0-0.3,0c-1.2,0-2.3,0.8-2.8,1.9v6.4
			h-1.5V425.6z"/>
		<path fill="#353535" d="M222.1,421.7h1.4v8.7c0.2-0.4,0.8-1.2,1.3-1.9l2.2-3h1.5L226,429l2.9,6h-1.5l-2.3-4.8l-1.5,2v2.8h-1.4
			V421.7z"/>
	</g>
</g>
<g>
	
		<line fill="none" stroke="#353535" stroke-width="3" stroke-linecap="round" stroke-linejoin="round" stroke-miterlimit="10" x1="418.9" y1="429.5" x2="240.6" y2="429.5"/>
	<circle fill="#353535" cx="419.2" cy="429.5" r="4.1"/>
	
		<line fill="none" stroke="#353535" stroke-width="3" stroke-linecap="round" stroke-linejoin="round" stroke-miterlimit="10" x1="240.1" y1="422.9" x2="240.1" y2="436.1"/>
</g>
<line fill="none" stroke="#353535" stroke-width="3" stroke-linecap="round" stroke-linejoin="round" stroke-miterlimit="10" x1="371.5" y1="240.5" x2="406.9" y2="240.5"/>
<circle fill="#353535" cx="372.8" cy="240.5" r="4.1"/>
<line fill="none" stroke="#353535" stroke-width="3" stroke-linecap="round" stroke-linejoin="round" stroke-miterlimit="10" x1="407.3" y1="247.1" x2="407.3" y2="233.9"/>
<line fill="none" stroke="#353535" stroke-width="3" stroke-linecap="round" stroke-linejoin="round" stroke-miterlimit="10" x1="293.5" y1="215.9" x2="293.5" y2="181.8"/>
<circle fill="#353535" cx="293.5" cy="216.2" r="4.1"/>
<line fill="none" stroke="#353535" stroke-width="3" stroke-linecap="round" stroke-linejoin="round" stroke-miterlimit="10" x1="300.1" y1="181.4" x2="286.9" y2="181.4"/>
<g>
	
		<line fill="none" stroke="#353535" stroke-width="3" stroke-linecap="round" stroke-linejoin="round" stroke-miterlimit="10" x1="238.9" y1="259.5" x2="238.9" y2="317.5"/>
	<circle fill="#353535" cx="238.9" cy="259.1" r="4.1"/>
	
		<line fill="none" stroke="#353535" stroke-width="3" stroke-linecap="round" stroke-linejoin="round" stroke-miterlimit="10" x1="232.2" y1="318" x2="245.5" y2="318"/>
</g>
<g>
	
		<line fill="none" stroke="#353535" stroke-width="3" stroke-linecap="round" stroke-linejoin="round" stroke-miterlimit="10" x1="347.5" y1="259.5" x2="347.5" y2="317.5"/>
	<circle fill="#353535" cx="347.5" cy="259.1" r="4.1"/>
	
		<line fill="none" stroke="#353535" stroke-width="3" stroke-linecap="round" stroke-linejoin="round" stroke-miterlimit="10" x1="340.9" y1="318" x2="354.1" y2="318"/>
</g>
<line fill="none" stroke="#353535" stroke-width="3" stroke-linecap="round" stroke-linejoin="round" stroke-miterlimit="10" x1="560.6" y1="111.8" x2="502.5" y2="111.8"/>
<circle fill="#353535" cx="560.9" cy="111.8" r="4.1"/>
<line fill="none" stroke="#353535" stroke-width="3" stroke-linecap="round" stroke-linejoin="round" stroke-miterlimit="10" x1="502.1" y1="105.2" x2="502.1" y2="118.5"/>
<line fill="none" stroke="#353535" stroke-width="3" stroke-linecap="round" stroke-linejoin="round" stroke-miterlimit="10" x1="570.5" y1="407.2" x2="570.5" y2="361.1"/>
<circle fill="#353535" cx="570.5" cy="407.5" r="4.1"/>
<line fill="none" stroke="#353535" stroke-width="3" stroke-linecap="round" stroke-linejoin="round" stroke-miterlimit="10" x1="577.1" y1="360.7" x2="563.9" y2="360.7"/>
<line fill="none" stroke="#353535" stroke-width="3" stroke-linecap="round" stroke-linejoin="round" stroke-miterlimit="10" x1="639.8" y1="87.5" x2="639.8" y2="29.5"/>
<circle fill="#353535" cx="639.8" cy="87.9" r="4.1"/>
<line fill="none" stroke="#353535" stroke-width="3" stroke-linecap="round" stroke-linejoin="round" stroke-miterlimit="10" x1="646.5" y1="29" x2="633.2" y2="29"/>
<line fill="none" stroke="#353535" stroke-width="3" stroke-linecap="round" stroke-linejoin="round" stroke-miterlimit="10" x1="702.5" y1="130.8" x2="702.5" y2="253.2"/>
<circle fill="#353535" cx="702.5" cy="130.5" r="4.1"/>
<line fill="none" stroke="#353535" stroke-width="3" stroke-linecap="round" stroke-linejoin="round" stroke-miterlimit="10" x1="695.9" y1="253.6" x2="709.1" y2="253.6"/>
<line fill="none" stroke="#353535" stroke-width="3" stroke-linecap="round" stroke-linejoin="round" stroke-miterlimit="10" x1="578.5" y1="429.5" x2="688.9" y2="429.5"/>
<circle fill="#353535" cx="578.1" cy="429.5" r="4.1"/>
<line fill="none" stroke="#353535" stroke-width="3" stroke-linecap="round" stroke-linejoin="round" stroke-miterlimit="10" x1="689.3" y1="436.1" x2="689.3" y2="422.9"/>
</svg>
