<?xml version="1.0" encoding="utf-8"?>
<!-- Generator: Adobe Illustrator 17.1.0, SVG Export Plug-In . SVG Version: 6.00 Build 0)  -->
<!DOCTYPE svg PUBLIC "-//W3C//DTD SVG 1.1//EN" "http://www.w3.org/Graphics/SVG/1.1/DTD/svg11.dtd">
<svg version="1.1" id="Layer_1" xmlns="http://www.w3.org/2000/svg" xmlns:xlink="http://www.w3.org/1999/xlink" x="0px" y="0px"
	 viewBox="0 0 884.6 466.7" enable-background="new 0 0 884.6 466.7" xml:space="preserve">
<rect x="205" y="207.5" fill="none" stroke="#FFFFFF" stroke-width="4" stroke-linecap="round" stroke-linejoin="round" stroke-miterlimit="10" width="177.1" height="60.3"/>
<rect x="204.1" y="226.1" transform="matrix(1 -7.226265e-03 7.226265e-03 1 -1.7749 2.1299)" fill="none" width="179.6" height="41.2"/>
<text transform="matrix(1 0 0 1 229.7201 249.2756)" fill="#FFFFFF" font-family="'Interborough'" font-size="36">COMMUNITY</text>
<rect x="551.6" y="79.2" fill="none" stroke="#FFFFFF" stroke-width="4" stroke-linecap="round" stroke-linejoin="round" stroke-miterlimit="10" width="177.1" height="60.3"/>
<rect x="550.7" y="97.8" transform="matrix(1 -7.226265e-03 7.226265e-03 1 -0.8385 4.6317)" fill="none" width="179.6" height="41.2"/>
<text transform="matrix(1 0 0 1 570.1553 120.9426)" fill="#FFFFFF" font-family="'Interborough'" font-size="36">DeV + Design</text>
<rect x="409.3" y="396.5" fill="none" stroke="#FFFFFF" stroke-width="4" stroke-linecap="round" stroke-linejoin="round" stroke-miterlimit="10" width="177.1" height="60.3"/>
<rect x="408.4" y="415.1" transform="matrix(1 -7.226265e-03 7.226265e-03 1 -3.1353 3.6114)" fill="none" width="179.6" height="41.2"/>
<text transform="matrix(1 0 0 1 432.5231 438.2761)" fill="#FFFFFF" font-family="'Interborough'" font-size="36">INNOVATION</text>
<g>
	<rect x="421.3" y="233.4" fill="none" width="179.7" height="17"/>
	<text transform="matrix(1 0 0 1 421.264 246.7239)" fill="#353535" font-family="'BentonSans-CondensedRegular'" font-size="18">Rethreaded</text>
</g>
<g>
	<rect x="147.8" y="332.7" fill="none" width="181" height="17"/>
	<text transform="matrix(1 0 0 1 200.0972 345.9871)" fill="#353535" font-family="'BentonSans-CondensedRegular'" font-size="18">Movember</text>
</g>
<g>
	<rect x="257.6" y="333.1" fill="none" width="179.7" height="15"/>
	<text transform="matrix(1 0 0 1 308.0281 346.3909)" fill="#353535" font-family="'BentonSans-CondensedRegular'" font-size="18">Win4Youth</text>
</g>
<g>
	<rect x="203.6" y="152.1" fill="none" width="179.7" height="45"/>
	<text transform="matrix(1 0 0 1 203.5975 165.3916)" fill="#353535" font-family="'BentonSans-CondensedRegular'" font-size="18">Children’s Home Society</text>
</g>
<g>
	<rect x="461.3" y="105.1" fill="none" width="34.9" height="16.3"/>
	<text transform="matrix(1 0 0 1 461.261 118.3911)" fill="#353535" font-family="'BentonSans-CondensedRegular'" font-size="18">KYN</text>
</g>
<g>
	<rect x="550.2" y="2.3" fill="none" width="179.7" height="45"/>
	<text transform="matrix(1 0 0 1 576.5101 15.6597)" fill="#353535" font-family="'BentonSans-CondensedRegular'" font-size="18">Ancient City Ruby</text>
</g>
<g>
	<rect x="611.6" y="269" fill="none" width="179.7" height="45"/>
	<text transform="matrix(1 0 0 1 638.3736 282.3364)" fill="#353535" font-family="'BentonSans-CondensedRegular'" font-size="18">AIGA Jacksonville</text>
</g>
<g>
	<rect x="480.9" y="333.4" fill="none" width="179.7" height="17.7"/>
	<text transform="matrix(1 0 0 1 513.3262 346.7239)" fill="#353535" font-family="'BentonSans-CondensedRegular'" font-size="18">Meros Academy</text>
</g>
<g>
	<rect x="704.9" y="421.7" fill="none" width="179.7" height="45"/>
	<text transform="matrix(1 0 0 1 704.9307 435.0579)" fill="#353535" font-family="'BentonSans-CondensedRegular'" font-size="18">Startup Jax</text>
</g>
<g>
	<rect x="102.3" y="421.7" fill="none" width="179.7" height="45"/>
	<text transform="matrix(1 0 0 1 154.9447 435.0579)" fill="#353535" font-family="'BentonSans-CondensedRegular'" font-size="18">One Spark</text>
</g>
<g>
	
		<line fill="none" stroke="#353535" stroke-width="3" stroke-linecap="round" stroke-linejoin="round" stroke-miterlimit="10" x1="418.9" y1="429.5" x2="240.6" y2="429.5"/>
	<circle fill="#353535" cx="419.2" cy="429.5" r="4.1"/>
	
		<line fill="none" stroke="#353535" stroke-width="3" stroke-linecap="round" stroke-linejoin="round" stroke-miterlimit="10" x1="240.1" y1="422.9" x2="240.1" y2="436.1"/>
</g>
<line fill="none" stroke="#353535" stroke-width="3" stroke-linecap="round" stroke-linejoin="round" stroke-miterlimit="10" x1="371.5" y1="240.5" x2="406.9" y2="240.5"/>
<circle fill="#353535" cx="372.8" cy="240.5" r="4.1"/>
<line fill="none" stroke="#353535" stroke-width="3" stroke-linecap="round" stroke-linejoin="round" stroke-miterlimit="10" x1="407.3" y1="247.1" x2="407.3" y2="233.9"/>
<line fill="none" stroke="#353535" stroke-width="3" stroke-linecap="round" stroke-linejoin="round" stroke-miterlimit="10" x1="293.5" y1="215.9" x2="293.5" y2="181.8"/>
<circle fill="#353535" cx="293.5" cy="216.2" r="4.1"/>
<line fill="none" stroke="#353535" stroke-width="3" stroke-linecap="round" stroke-linejoin="round" stroke-miterlimit="10" x1="300.1" y1="181.4" x2="286.9" y2="181.4"/>
<g>
	
		<line fill="none" stroke="#353535" stroke-width="3" stroke-linecap="round" stroke-linejoin="round" stroke-miterlimit="10" x1="238.9" y1="259.5" x2="238.9" y2="317.5"/>
	<circle fill="#353535" cx="238.9" cy="259.1" r="4.1"/>
	
		<line fill="none" stroke="#353535" stroke-width="3" stroke-linecap="round" stroke-linejoin="round" stroke-miterlimit="10" x1="232.2" y1="318" x2="245.5" y2="318"/>
</g>
<g>
	
		<line fill="none" stroke="#353535" stroke-width="3" stroke-linecap="round" stroke-linejoin="round" stroke-miterlimit="10" x1="347.5" y1="259.5" x2="347.5" y2="317.5"/>
	<circle fill="#353535" cx="347.5" cy="259.1" r="4.1"/>
	
		<line fill="none" stroke="#353535" stroke-width="3" stroke-linecap="round" stroke-linejoin="round" stroke-miterlimit="10" x1="340.9" y1="318" x2="354.1" y2="318"/>
</g>
<line fill="none" stroke="#353535" stroke-width="3" stroke-linecap="round" stroke-linejoin="round" stroke-miterlimit="10" x1="560.6" y1="111.8" x2="502.5" y2="111.8"/>
<circle fill="#353535" cx="560.9" cy="111.8" r="4.1"/>
<line fill="none" stroke="#353535" stroke-width="3" stroke-linecap="round" stroke-linejoin="round" stroke-miterlimit="10" x1="502.1" y1="105.2" x2="502.1" y2="118.5"/>
<line fill="none" stroke="#353535" stroke-width="3" stroke-linecap="round" stroke-linejoin="round" stroke-miterlimit="10" x1="570.5" y1="407.2" x2="570.5" y2="361.1"/>
<circle fill="#353535" cx="570.5" cy="407.5" r="4.1"/>
<line fill="none" stroke="#353535" stroke-width="3" stroke-linecap="round" stroke-linejoin="round" stroke-miterlimit="10" x1="577.1" y1="360.7" x2="563.9" y2="360.7"/>
<line fill="none" stroke="#353535" stroke-width="3" stroke-linecap="round" stroke-linejoin="round" stroke-miterlimit="10" x1="639.8" y1="87.5" x2="639.8" y2="29.5"/>
<circle fill="#353535" cx="639.8" cy="87.9" r="4.1"/>
<line fill="none" stroke="#353535" stroke-width="3" stroke-linecap="round" stroke-linejoin="round" stroke-miterlimit="10" x1="646.5" y1="29" x2="633.2" y2="29"/>
<line fill="none" stroke="#353535" stroke-width="3" stroke-linecap="round" stroke-linejoin="round" stroke-miterlimit="10" x1="702.5" y1="130.8" x2="702.5" y2="253.2"/>
<circle fill="#353535" cx="702.5" cy="130.5" r="4.1"/>
<line fill="none" stroke="#353535" stroke-width="3" stroke-linecap="round" stroke-linejoin="round" stroke-miterlimit="10" x1="695.9" y1="253.6" x2="709.1" y2="253.6"/>
<line fill="none" stroke="#353535" stroke-width="3" stroke-linecap="round" stroke-linejoin="round" stroke-miterlimit="10" x1="578.5" y1="429.5" x2="688.9" y2="429.5"/>
<circle fill="#353535" cx="578.1" cy="429.5" r="4.1"/>
<line fill="none" stroke="#353535" stroke-width="3" stroke-linecap="round" stroke-linejoin="round" stroke-miterlimit="10" x1="689.3" y1="436.1" x2="689.3" y2="422.9"/>
</svg>
