<?xml version="1.0" encoding="utf-8"?>
<!-- Generator: Adobe Illustrator 17.1.0, SVG Export Plug-In . SVG Version: 6.00 Build 0)  -->
<!DOCTYPE svg PUBLIC "-//W3C//DTD SVG 1.1//EN" "http://www.w3.org/Graphics/SVG/1.1/DTD/svg11.dtd">
<svg version="1.1" id="Layer_1" xmlns="http://www.w3.org/2000/svg" xmlns:xlink="http://www.w3.org/1999/xlink" x="0px" y="0px"
	 viewBox="0 0 832.1 673.5" enable-background="new 0 0 832.1 673.5" xml:space="preserve">
<g>
	<path fill="#353535" d="M584.7,394.1h3.8c2.6,0,4.1,1.2,4.1,3.8c0,2.1-1.2,3.2-2.5,3.6l2.7,5.9h-1.5l-2.6-5.7h-2.4v5.7h-1.5V394.1z
		 M588.4,400.5c1.8,0,2.7-0.7,2.7-2.6c0-1.8-0.9-2.4-2.7-2.4h-2.2v5H588.4z"/>
	<path fill="#353535" d="M594.3,402.7c0-3.4,1.8-5,3.7-5c2.1,0,3.4,1.7,3.4,4.9v0.4h-5.6c0.1,2.2,0.9,3.4,2.3,3.4
		c1.1,0,1.7-0.6,2.2-1.7l1,0.6c-0.7,1.4-1.8,2.3-3.3,2.3C595.9,407.6,594.3,406,594.3,402.7z M600,401.9c-0.1-1.7-0.7-2.9-2-2.9
		c-1.1,0-2,0.9-2.2,2.9H600z"/>
	<path fill="#353535" d="M603.2,397.9h1.5v1.2c0.6-0.7,1.4-1.4,2.6-1.4c1.9,0,3.2,1.5,3.2,4.9c0,3.4-1.4,4.9-3.3,4.9
		c-1.1,0-1.9-0.5-2.5-1.3v4.8h-1.5V397.9z M609,402.7c0-2.5-0.9-3.7-2.1-3.7c-0.9,0-1.7,0.6-2.2,1.3v4.8c0.7,0.8,1.4,1.3,2.3,1.3
		C608.2,406.4,609,405.3,609,402.7z"/>
	<path fill="#353535" d="M612.3,397.9h1.5v1.6h0c0.5-1,1.5-1.8,3-1.8h0.2l-0.1,1.4c0,0-0.3,0-0.3,0c-1.2,0-2.3,0.8-2.8,1.9v6.4h-1.5
		V397.9z"/>
	<path fill="#353535" d="M618.1,402.7c0-3.4,1.8-5,3.7-5c2.1,0,3.4,1.7,3.4,4.9v0.4h-5.6c0.1,2.2,0.9,3.4,2.3,3.4
		c1.1,0,1.7-0.6,2.2-1.7l1,0.6c-0.7,1.4-1.8,2.3-3.3,2.3C619.7,407.6,618.1,406,618.1,402.7z M623.8,401.9c-0.1-1.7-0.7-2.9-2-2.9
		c-1.1,0-2,0.9-2.2,2.9H623.8z"/>
	<path fill="#353535" d="M626.2,405.7l1-0.7c0.6,1,1.6,1.5,2.6,1.5c1.2,0,1.9-0.5,1.9-1.4c0-2.3-5-1.4-5-4.8c0-1.5,1.2-2.6,3-2.6
		c1.4,0,2.4,0.7,3.1,1.7l-1,0.8c-0.5-0.7-1.2-1.3-2.2-1.3c-1.1,0-1.6,0.5-1.6,1.3c0,2.4,4.9,1.3,4.9,4.8c0,1.7-1.5,2.7-3.3,2.7
		C628.1,407.6,627,406.9,626.2,405.7z"/>
	<path fill="#353535" d="M634.4,402.7c0-3.4,1.8-5,3.7-5c2.1,0,3.4,1.7,3.4,4.9v0.4h-5.6c0.1,2.2,0.9,3.4,2.3,3.4
		c1.1,0,1.7-0.6,2.2-1.7l1,0.6c-0.7,1.4-1.8,2.3-3.3,2.3C636,407.6,634.4,406,634.4,402.7z M640.1,401.9c-0.1-1.7-0.7-2.9-2-2.9
		c-1.1,0-2,0.9-2.2,2.9H640.1z"/>
	<path fill="#353535" d="M643.3,397.9h1.5v1.3c0.6-0.7,1.8-1.5,3-1.5c1.5,0,2.3,0.9,2.3,2.6v7.1h-1.4v-6.8c0-1.1-0.4-1.7-1.3-1.7
		c-0.9,0-1.9,0.7-2.6,1.4v7.1h-1.5V397.9z"/>
	<path fill="#353535" d="M652.9,405.3v-6.2h-1.4v-1.2h1.4v-3.4h1.4v3.4h2.1v1.2h-2.1v5.8c0,1,0.3,1.4,1.3,1.4c0.3,0,0.6-0.1,0.8-0.1
		v1.2c-0.2,0.1-0.7,0.1-1.1,0.1C653.6,407.6,652.9,406.9,652.9,405.3z"/>
	<path fill="#353535" d="M658.3,394.5h1.5v1.6h-1.5V394.5z M658.3,397.9h1.5v9.5h-1.5V397.9z"/>
	<path fill="#353535" d="M662.1,397.9h1.5v1.3c0.6-0.7,1.8-1.5,3-1.5c1.5,0,2.3,0.9,2.3,2.6v7.1h-1.4v-6.8c0-1.1-0.4-1.7-1.3-1.7
		c-0.9,0-1.9,0.7-2.6,1.4v7.1h-1.5V397.9z"/>
	<path fill="#353535" d="M678.5,397.8v1.4c-0.4,0-0.9,0.1-1.4,0.3c0.3,0.5,0.4,1.1,0.4,1.7c0,2.1-1.4,3.4-3.3,3.4
		c-0.5,0-0.9-0.1-1.3-0.2c-0.3,0.2-0.5,0.4-0.5,0.7c0,0.4,0.2,0.5,1.1,0.6l1.5,0.2c2.3,0.3,3.3,1,3.3,2.4c0,1.7-1.8,2.7-4.1,2.7
		c-2.7,0-3.7-0.9-3.7-2.3c0-1,0.6-1.7,1.5-2.1c-0.5-0.3-0.8-0.6-0.8-1.2c0-0.6,0.4-1.1,1-1.5c-0.8-0.6-1.3-1.6-1.3-2.8
		c0-2.1,1.4-3.4,3.3-3.4c1,0,1.8,0.3,2.4,1C677.1,398.3,677.8,397.9,678.5,397.8z M671.6,408.5c0,1,0.6,1.5,2.6,1.5
		c1.5,0,2.6-0.5,2.6-1.5c0-0.8-0.5-1.2-2.1-1.4l-1.5-0.2c-0.1,0-0.2,0-0.3,0C672,407.3,671.6,407.9,671.6,408.5z M676.1,401.2
		c0-1.4-0.7-2.3-1.9-2.3c-1.2,0-1.9,0.9-1.9,2.3c0,1.4,0.7,2.3,1.9,2.3C675.4,403.5,676.1,402.6,676.1,401.2z"/>
	<path fill="#353535" d="M683.3,406.1h2.1v-10.4c-0.6,0.3-1.4,0.6-2.1,0.6V395c0.9,0,1.7-0.3,2.2-0.9h1.4v12h1.9v1.3h-5.5V406.1z"/>
	<path fill="#353535" d="M691.3,407.4h-0.7v-1.9h1.7v1.7l-0.8,2h-0.7L691.3,407.4z"/>
	<path fill="#353535" d="M694.4,400.8c0-4.5,1.5-6.9,4.3-6.9c2.8,0,4.3,2.4,4.3,6.9s-1.5,6.9-4.3,6.9
		C695.9,407.7,694.4,405.3,694.4,400.8z M701.5,400.8c0-3.9-1-5.6-2.8-5.6c-1.8,0-2.8,1.7-2.8,5.6s1,5.6,2.8,5.6
		C700.5,406.4,701.5,404.7,701.5,400.8z"/>
	<path fill="#353535" d="M704.5,400.8c0-4.5,1.5-6.9,4.3-6.9c2.8,0,4.3,2.4,4.3,6.9s-1.5,6.9-4.3,6.9
		C706,407.7,704.5,405.3,704.5,400.8z M711.6,400.8c0-3.9-1-5.6-2.8-5.6c-1.8,0-2.8,1.7-2.8,5.6s1,5.6,2.8,5.6
		C710.6,406.4,711.6,404.7,711.6,400.8z"/>
	<path fill="#353535" d="M714.7,400.8c0-4.5,1.5-6.9,4.3-6.9c2.8,0,4.3,2.4,4.3,6.9s-1.5,6.9-4.3,6.9
		C716.2,407.7,714.7,405.3,714.7,400.8z M721.7,400.8c0-3.9-1-5.6-2.8-5.6c-1.8,0-2.8,1.7-2.8,5.6s1,5.6,2.8,5.6
		C720.7,406.4,721.7,404.7,721.7,400.8z"/>
	<path fill="#353535" d="M728.3,402.7c0-3.4,1.7-5,3.7-5c1.9,0,2.7,1.3,3.2,2.8l-1.3,0.4c-0.3-1.2-0.8-1.9-1.9-1.9
		c-1.2,0-2.2,1.1-2.2,3.7c0,2.3,0.8,3.7,2.2,3.7c1,0,1.6-0.6,2-2l1.3,0.3c-0.5,1.8-1.6,2.8-3.3,2.8
		C729.9,407.6,728.3,406,728.3,402.7z"/>
	<path fill="#353535" d="M737,394.5h1.5v1.6H737V394.5z M737,397.9h1.5v9.5H737V397.9z"/>
	<path fill="#353535" d="M741.5,405.3v-6.2h-1.4v-1.2h1.4v-3.4h1.4v3.4h2.1v1.2h-2.1v5.8c0,1,0.3,1.4,1.3,1.4c0.3,0,0.6-0.1,0.8-0.1
		v1.2c-0.2,0.1-0.7,0.1-1.1,0.1C742.1,407.6,741.5,406.9,741.5,405.3z"/>
	<path fill="#353535" d="M746.9,394.5h1.5v1.6h-1.5V394.5z M746.9,397.9h1.5v9.5h-1.5V397.9z"/>
	<path fill="#353535" d="M750.3,402.7c0-3.4,1.8-5,3.7-5c2.1,0,3.4,1.7,3.4,4.9v0.4h-5.6c0.1,2.2,0.9,3.4,2.3,3.4
		c1.1,0,1.7-0.6,2.2-1.7l1,0.6c-0.7,1.4-1.8,2.3-3.3,2.3C751.9,407.6,750.3,406,750.3,402.7z M755.9,401.9c-0.1-1.7-0.7-2.9-2-2.9
		c-1.1,0-2,0.9-2.2,2.9H755.9z"/>
	<path fill="#353535" d="M758.4,405.7l1-0.7c0.6,1,1.6,1.5,2.6,1.5c1.2,0,1.9-0.5,1.9-1.4c0-2.3-5-1.4-5-4.8c0-1.5,1.2-2.6,3-2.6
		c1.4,0,2.4,0.7,3.1,1.7l-1,0.8c-0.5-0.7-1.2-1.3-2.2-1.3c-1.1,0-1.6,0.5-1.6,1.3c0,2.4,4.9,1.3,4.9,4.8c0,1.7-1.5,2.7-3.3,2.7
		C760.3,407.6,759.1,406.9,758.4,405.7z"/>
	<path fill="#353535" d="M584,435.2c0-1.9,1.6-3.3,5.3-4v-0.6c0-1.1-0.5-1.6-1.4-1.6c-1.2,0-2.1,0.6-2.8,1.3l-0.8-0.9
		c1-1,2.3-1.7,3.8-1.7c1.9,0,2.7,1,2.7,2.9v4.5c0,1.2,0.1,1.9,0.2,2.3h-1.5c-0.1-0.4-0.2-0.7-0.2-1.2c-0.8,0.8-1.8,1.4-3,1.4
		C584.8,437.6,584,436.7,584,435.2z M589.3,435.1v-2.9c-2.9,0.6-3.9,1.6-3.9,2.8c0,1,0.5,1.4,1.3,1.4
		C587.7,436.4,588.6,435.9,589.3,435.1z"/>
	<path fill="#353535" d="M593,427.9h1.5v1.3c0.6-0.7,1.8-1.5,3-1.5c1.5,0,2.3,0.9,2.3,2.6v7.1h-1.4v-6.8c0-1.1-0.4-1.7-1.3-1.7
		c-0.9,0-1.9,0.7-2.6,1.4v7.1H593V427.9z"/>
	<path fill="#353535" d="M601.6,432.7c0-3.4,1.4-5,3.3-5c1.1,0,1.9,0.5,2.6,1.3v-5h1.4v11c0,1.2,0.1,1.9,0.2,2.3h-1.5
		c-0.1-0.3-0.2-0.9-0.2-1.2c-0.6,0.7-1.4,1.4-2.6,1.4C602.9,437.6,601.6,436.1,601.6,432.7z M607.4,435.1v-4.8
		c-0.7-0.8-1.4-1.3-2.3-1.3c-1.3,0-2.1,1.1-2.1,3.7c0,2.5,0.9,3.7,2.2,3.7C606,436.4,606.8,435.8,607.4,435.1z"/>
	<path fill="#353535" d="M614.2,437.2c0-5.8,6-5.7,6-9.7c0-1.4-0.7-2.3-2.1-2.3c-1.2,0-2,0.8-2.6,2.2l-1.2-0.5c0.8-1.9,2-3,3.9-3
		c2.2,0,3.4,1.4,3.4,3.5c0,4.4-5.9,5.1-5.9,8.7h5.9v1.3h-7.5V437.2z"/>
	<path fill="#353535" d="M624.6,437.4h-0.7v-1.9h1.7v1.7l-0.8,2h-0.7L624.6,437.4z"/>
	<path fill="#353535" d="M627.7,430.8c0-4.5,1.5-6.9,4.3-6.9c2.8,0,4.3,2.4,4.3,6.9s-1.5,6.9-4.3,6.9
		C629.2,437.7,627.7,435.3,627.7,430.8z M634.8,430.8c0-3.9-1-5.6-2.8-5.6c-1.8,0-2.8,1.7-2.8,5.6s1,5.6,2.8,5.6
		C633.8,436.4,634.8,434.7,634.8,430.8z"/>
	<path fill="#353535" d="M637.8,430.8c0-4.5,1.5-6.9,4.3-6.9c2.8,0,4.3,2.4,4.3,6.9s-1.5,6.9-4.3,6.9
		C639.3,437.7,637.8,435.3,637.8,430.8z M644.9,430.8c0-3.9-1-5.6-2.8-5.6c-1.8,0-2.8,1.7-2.8,5.6s1,5.6,2.8,5.6
		C643.9,436.4,644.9,434.7,644.9,430.8z"/>
	<path fill="#353535" d="M648,430.8c0-4.5,1.5-6.9,4.3-6.9c2.8,0,4.3,2.4,4.3,6.9s-1.5,6.9-4.3,6.9C649.5,437.7,648,435.3,648,430.8
		z M655,430.8c0-3.9-1-5.6-2.8-5.6c-1.8,0-2.8,1.7-2.8,5.6s1,5.6,2.8,5.6C654,436.4,655,434.7,655,430.8z"/>
	<path fill="#353535" d="M661.6,432.7c0-3.4,1.7-5,3.7-5c1.9,0,2.7,1.3,3.2,2.8l-1.3,0.4c-0.3-1.2-0.8-1.9-1.9-1.9
		c-1.2,0-2.2,1.1-2.2,3.7c0,2.3,0.8,3.7,2.2,3.7c1,0,1.6-0.6,2-2l1.3,0.3c-0.5,1.8-1.6,2.8-3.3,2.8
		C663.2,437.6,661.6,436,661.6,432.7z"/>
	<path fill="#353535" d="M669.8,432.7c0-3.3,1.6-5,3.8-5c2.1,0,3.7,1.7,3.7,5c0,3.3-1.6,5-3.7,5C671.4,437.6,669.8,436,669.8,432.7z
		 M675.8,432.7c0-2.1-0.7-3.7-2.3-3.7c-1.5,0-2.3,1.5-2.3,3.7c0,2.1,0.7,3.7,2.3,3.7C675.1,436.4,675.8,434.9,675.8,432.7z"/>
	<path fill="#353535" d="M679.2,424.1h1.5v13.3h-1.5V424.1z"/>
	<path fill="#353535" d="M683.2,424.1h1.5v13.3h-1.5V424.1z"/>
	<path fill="#353535" d="M686.6,432.7c0-3.4,1.8-5,3.7-5c2.1,0,3.4,1.7,3.4,4.9v0.4h-5.6c0.1,2.2,0.9,3.4,2.3,3.4
		c1.1,0,1.7-0.6,2.2-1.7l1,0.6c-0.7,1.4-1.8,2.3-3.3,2.3C688.2,437.6,686.6,436,686.6,432.7z M692.3,431.9c-0.1-1.7-0.7-2.9-2-2.9
		c-1.1,0-2,0.9-2.2,2.9H692.3z"/>
	<path fill="#353535" d="M702.8,427.8v1.4c-0.4,0-0.9,0.1-1.4,0.3c0.3,0.5,0.4,1.1,0.4,1.7c0,2.1-1.4,3.4-3.3,3.4
		c-0.5,0-0.9-0.1-1.3-0.2c-0.3,0.2-0.5,0.4-0.5,0.7c0,0.4,0.2,0.5,1.1,0.6l1.5,0.2c2.3,0.3,3.3,1,3.3,2.4c0,1.7-1.8,2.7-4.1,2.7
		c-2.7,0-3.7-0.9-3.7-2.3c0-1,0.6-1.7,1.5-2.1c-0.5-0.3-0.8-0.6-0.8-1.2c0-0.6,0.4-1.1,1-1.5c-0.8-0.6-1.3-1.6-1.3-2.8
		c0-2.1,1.4-3.4,3.3-3.4c1,0,1.8,0.3,2.4,1C701.4,428.3,702.2,427.9,702.8,427.8z M696,438.5c0,1,0.6,1.5,2.6,1.5
		c1.5,0,2.6-0.5,2.6-1.5c0-0.8-0.5-1.2-2.1-1.4l-1.5-0.2c-0.1,0-0.2,0-0.3,0C696.4,437.3,696,437.9,696,438.5z M700.4,431.2
		c0-1.4-0.7-2.3-1.9-2.3c-1.2,0-1.9,0.9-1.9,2.3c0,1.4,0.7,2.3,1.9,2.3C699.7,433.5,700.4,432.6,700.4,431.2z"/>
	<path fill="#353535" d="M704,432.7c0-3.4,1.8-5,3.7-5c2.1,0,3.4,1.7,3.4,4.9v0.4h-5.6c0.1,2.2,0.9,3.4,2.3,3.4
		c1.1,0,1.7-0.6,2.2-1.7l1,0.6c-0.7,1.4-1.8,2.3-3.3,2.3C705.5,437.6,704,436,704,432.7z M709.6,431.9c-0.1-1.7-0.7-2.9-2-2.9
		c-1.1,0-2,0.9-2.2,2.9H709.6z"/>
	<path fill="#353535" d="M712.1,435.7l1-0.7c0.6,1,1.6,1.5,2.6,1.5c1.2,0,1.9-0.5,1.9-1.4c0-2.3-5-1.4-5-4.8c0-1.5,1.2-2.6,3-2.6
		c1.4,0,2.4,0.7,3.1,1.7l-1,0.8c-0.5-0.7-1.2-1.3-2.2-1.3c-1.1,0-1.6,0.5-1.6,1.3c0,2.4,4.9,1.3,4.9,4.8c0,1.7-1.5,2.7-3.3,2.7
		C714,437.6,712.8,436.9,712.1,435.7z"/>
</g>
<circle fill="#353535" cx="462.4" cy="417.5" r="65.1"/>
<g>
	<path fill="#BCBCBC" d="M434.6,397.8v17.7c0,3.3-2.1,5.6-5.3,5.6c-3.2,0-5.3-2.3-5.3-5.6v-17.7c0-0.2,0.2-0.4,0.4-0.4h1.9
		c0.2,0,0.4,0.2,0.4,0.4v17.7c0,2.2,1.1,3.1,2.6,3.1c1.5,0,2.6-0.8,2.6-3.1v-17.7c0-0.2,0.2-0.4,0.4-0.4h1.9
		C434.4,397.4,434.6,397.5,434.6,397.8z"/>
	<path fill="#BCBCBC" d="M448.8,404.2c0,4.2-2.6,6.7-6.4,6.7h-1.7v9.5c0,0.2-0.2,0.4-0.4,0.4h-1.8c-0.2,0-0.4-0.2-0.4-0.4v-22.5
		c0-0.2,0.2-0.4,0.4-0.4h3.9C446.3,397.4,448.8,399.6,448.8,404.2z M446.2,404.1c0-1.8-0.5-4.1-3.6-4.1h-1.8v8.2h1.8
		C445.6,408.2,446.2,406.2,446.2,404.1z"/>
	<path fill="#BCBCBC" d="M467.4,411c0,1.8,0,3.8,0,3.8c0,3.2-1.4,6.2-5.4,6.2c-3.9,0-5.3-2.8-5.3-6.2v-1.6c0-0.2,0.2-0.4,0.4-0.4
		h1.9c0.2,0,0.4,0.2,0.4,0.4v1.8c0,1.7,0.2,3.4,2.7,3.4c2.2,0,2.6-1.7,2.6-3.4v-4.8c0-2.5-1.6-3.1-2.6-3.1c-1,0-2.2,0.3-2.6,1.4
		l-0.1,0.3c-0.1,0.1-0.2,0.2-0.4,0.2h-1.9c-0.2,0-0.4-0.1-0.4-0.3c0,0,0-0.4,0-0.5v-7.6v-3c0-0.2,0.2-0.4,0.4-0.4h2.6h7.2
		c0.2,0,0.4,0.2,0.4,0.4v1.8c0,0.2-0.2,0.4-0.4,0.4h-7.4v6c0.5-1.3,1.9-1.4,3-1.4C465.9,404.6,467.4,406.7,467.4,411z"/>
	<path fill="#BCBCBC" d="M480.9,402.6v12.9c0,3.3-2.1,5.6-5.2,5.6c-3,0-5.2-2.3-5.2-5.6v-12.9c0-3.4,1.9-5.6,5.2-5.6
		C479,397,480.9,399.2,480.9,402.6z M478.2,402.7c0-2.2-1-3.1-2.5-3.1c-1.4,0-2.4,0.9-2.4,3.1v12.7c0,2.2,1,3.1,2.4,3.1
		c1.5,0,2.5-0.9,2.5-3.1V402.7z"/>
	<path fill="#BCBCBC" d="M483.5,406.8v-5.9c0-2.3,1.6-3.7,3.7-3.7c2.1,0,3.7,1.4,3.7,3.7v5.9c0,2.4-1.9,3.7-3.7,3.7
		C485.3,410.5,483.5,409.1,483.5,406.8z M487.2,408.4c0.9,0,1.5-0.6,1.5-1.8V401c0-1.2-0.5-1.7-1.5-1.7c-0.9,0-1.5,0.5-1.5,1.7v5.7
		C485.7,407.8,486.2,408.4,487.2,408.4z M499.3,397.7l-10.8,22.7c-0.1,0.2-0.3,0.3-0.5,0.3h-1.7c-0.2,0-0.3-0.1-0.2-0.3l10.8-22.7
		c0.1-0.2,0.3-0.3,0.5-0.3h1.7C499.3,397.4,499.5,397.5,499.3,397.7z M494.7,417.2v-5.9c0-2.3,1.6-3.7,3.7-3.7
		c2.1,0,3.7,1.4,3.7,3.7v5.9c0,2.4-1.9,3.7-3.7,3.7C496.5,420.9,494.7,419.5,494.7,417.2z M498.3,418.8c0.9,0,1.5-0.6,1.5-1.8v-5.7
		c0-1.2-0.5-1.7-1.5-1.7c-0.9,0-1.5,0.5-1.5,1.7v5.7C496.8,418.2,497.4,418.8,498.3,418.8z"/>
	<path fill="#BCBCBC" d="M427.7,436.4h-1.4v-1.2h1.4v-1.4c0-1.6,0.8-2.4,2.6-2.4c0.2,0,0.7,0,0.7,0v1.2c0,0-0.5,0-0.5,0
		c-0.8,0-1.3,0.3-1.3,1.2v1.4h1.8v1.2h-1.8v8.3h-1.4V436.4z"/>
	<path fill="#BCBCBC" d="M432.4,435.2h1.5v1.6h0c0.5-1,1.5-1.8,3-1.8h0.2l-0.1,1.4c0,0-0.3,0-0.3,0c-1.2,0-2.2,0.8-2.8,1.9v6.4h-1.5
		V435.2z"/>
	<path fill="#BCBCBC" d="M438.2,439.9c0-3.3,1.6-5,3.8-5c2.1,0,3.7,1.7,3.7,5c0,3.3-1.6,5-3.7,5S438.2,443.2,438.2,439.9z
		 M444.2,439.9c0-2.1-0.7-3.7-2.3-3.7c-1.5,0-2.3,1.5-2.3,3.7c0,2.1,0.7,3.7,2.3,3.7C443.5,443.7,444.2,442.2,444.2,439.9z"/>
	<path fill="#BCBCBC" d="M447.5,435.2h1.5v1.3c0.7-0.7,1.7-1.5,2.9-1.5c1.3,0,1.9,0.5,2.2,1.5c0.7-0.8,1.7-1.5,3-1.5
		c1.5,0,2.3,0.9,2.3,2.6v7.1h-1.4v-6.8c0-1.1-0.4-1.7-1.3-1.7c-0.9,0-1.7,0.6-2.4,1.3v7.1h-1.5v-6.8c0-1.1-0.3-1.7-1.3-1.7
		c-0.8,0-1.6,0.6-2.4,1.4v7.1h-1.5V435.2z"/>
	<path fill="#BCBCBC" d="M464.7,444.4c0-5.8,6-5.7,6-9.7c0-1.4-0.7-2.3-2.1-2.3c-1.2,0-2,0.8-2.6,2.2l-1.2-0.5c0.8-1.9,2-3,3.9-3
		c2.2,0,3.4,1.4,3.4,3.5c0,4.4-5.9,5.1-5.9,8.7h5.9v1.3h-7.5V444.4z"/>
	<path fill="#BCBCBC" d="M473.9,438c0-4.5,1.5-6.9,4.3-6.9s4.3,2.4,4.3,6.9s-1.5,6.9-4.3,6.9S473.9,442.5,473.9,438z M480.9,438
		c0-3.9-1-5.6-2.8-5.6c-1.8,0-2.8,1.7-2.8,5.6s1,5.6,2.8,5.6C479.9,443.6,480.9,441.9,480.9,438z"/>
	<path fill="#BCBCBC" d="M484,443.4h2.1v-10.4c-0.6,0.3-1.4,0.6-2.1,0.6v-1.3c0.9,0,1.7-0.3,2.2-0.9h1.4v12h1.9v1.3H484V443.4z"/>
	<path fill="#BCBCBC" d="M490.3,442l1.3-0.5c0.6,1.6,1.5,2.2,2.8,2.2c1.6,0,2.6-1,2.6-2.6c0-1.9-1-2.8-3.4-2.8h-0.5V437h0.8
		c2,0,2.8-0.9,2.8-2.5c0-1.2-0.6-2.1-2.1-2.1c-1.1,0-2,0.6-2.6,1.5l-1.1-0.7c0.9-1.3,2.2-2.1,3.8-2.1c2.4,0,3.4,1.5,3.4,3.3
		c0,1.7-1,2.8-2.2,3.2c1.5,0.5,2.5,1.5,2.5,3.5c0,2.2-1.6,3.8-4,3.8C492.2,444.9,491,443.8,490.3,442z"/>
</g>
<g>
	<path fill="#FFFFFF" d="M603.6,87c-0.6,1.6-17.3,52.9-17.3,52.9c-0.2,0.6-0.6,1-1.2,1h-5.8c-0.6,0-0.8-0.5-0.8-1.1L596.4,86
		c0.7-2,0.5-1.9,0.5-2.7h-21c-0.6,0-1.1-0.5-1.1-1.1v-5c0-0.6,0.5-1.1,1.1-1.1h27.4c0.6,0,1.1,0.5,1.1,1.1c0,0,0,5.5,0,4.1
		C604.4,81.3,604.7,84.5,603.6,87z"/>
	<path fill="#FFFFFF" d="M618.3,134.6v4.9c0,1-0.5,1.9-0.8,2.6l-3.2,7.4c-0.2,0.3-0.3,0.6-0.7,0.6h-1.9c-0.4,0-0.5-0.3-0.4-0.6
		l2-8.6h-1.6c-0.6,0-1-0.4-1-1v-5.3c0-0.5,0.4-1,1-1h5.6C617.8,133.6,618.3,134.1,618.3,134.6z"/>
	<path fill="#FFFFFF" d="M656.6,119.5v6.7c0,8.4-5.7,15.8-15.1,15.8c-9.1,0-14.6-6.4-14.6-14.5V92.1c0-10.7,5.5-17,14.5-17
		c9.1,0,15,6.3,15,15.7v5.1c0,0.6-0.5,1-0.9,1h-5.8c-0.5,0-1-0.4-1-1v-5.6c0-4.3-1.6-8-7.1-8c-5.1,0-7.1,3.7-7.1,8v17
		c2.1-3.3,5.4-3.5,7.9-3.5C649.9,103.8,656.6,109.7,656.6,119.5z M634.4,119.3v7.9c0,5.3,3,7.9,7.3,7.9c4.3,0,7.3-3.5,7.3-7.9v-7.9
		c0-6-3-8.3-7.3-8.3C637.6,111,634.4,113.3,634.4,119.3z"/>
	<path fill="#FFFFFF" d="M694.3,90.7v35.8c0,9.3-5.9,15.6-14.5,15.6c-8.4,0-14.4-6.3-14.4-15.6V90.7c0-9.4,5.4-15.6,14.4-15.6
		C689,75.1,694.3,81.3,694.3,90.7z M686.7,90.9c0-6.2-2.8-8.6-6.9-8.6c-3.9,0-6.8,2.4-6.8,8.6v35.4c0,6.2,2.9,8.6,6.8,8.6
		c4.1,0,6.9-2.4,6.9-8.6V90.9z"/>
	<path fill="#FFFFFF" d="M732.4,90.7v35.8c0,9.3-5.9,15.6-14.5,15.6c-8.4,0-14.4-6.3-14.4-15.6V90.7c0-9.4,5.4-15.6,14.4-15.6
		C727.1,75.1,732.4,81.3,732.4,90.7z M724.8,90.9c0-6.2-2.8-8.6-6.9-8.6c-3.9,0-6.8,2.4-6.8,8.6v35.4c0,6.2,2.9,8.6,6.8,8.6
		c4.1,0,6.9-2.4,6.9-8.6V90.9z"/>
</g>
<g>
	<path fill="#353535" d="M65.9,460.8v9.2c0,1.1-0.9,2-2,2H15.1c-1.1,0-2-0.9-2-2c0,0,0-10.3,0-11.5c0-7.9,4-20.9,10.6-28.8
		c3.8-4.7,16-19.3,19.4-23.2c7.7-9.4,9.7-13,9.7-21.4c0-8.8-2.2-19.1-13-19.1c-5.9,0-13.1,2.3-13.1,19.1v6.7c0,1.1-0.9,2-2,2h-9.4
		c-1.1,0-2-0.9-2-2v-7.6c0-18.4,8.8-30.8,26.8-30.8c16.6,0,25.7,12.1,25.9,30.2v3.1c0,14.2-6.7,20.9-13.1,29
		c-13.1,15.7-25.9,29-25.9,40.5v2.9h36.7C65,459,65.9,459.9,65.9,460.8z"/>
	<path fill="#353535" d="M132.7,381.6V446c0,16.7-10.6,28.1-26.1,28.1c-15.1,0-25.9-11.3-25.9-28.1v-64.4c0-16.9,9.7-28.1,25.9-28.1
		C123.1,353.5,132.7,364.7,132.7,381.6z M119,382c0-11.2-5-15.5-12.4-15.5c-7,0-12.2,4.3-12.2,15.5v63.7c0,11.2,5.2,15.5,12.2,15.5
		c7.4,0,12.4-4.3,12.4-15.5V382z"/>
	<path fill="#353535" d="M161.8,460.6v8.8c0,1.8-0.9,3.4-1.4,4.7l-5.8,13.3c-0.4,0.5-0.5,1.1-1.3,1.1h-3.4c-0.7,0-0.9-0.5-0.7-1.1
		l3.6-15.5h-2.9c-1.1,0-1.8-0.7-1.8-1.8v-9.5c0-0.9,0.7-1.8,1.8-1.8H160C160.9,458.8,161.8,459.7,161.8,460.6z"/>
	<path fill="#353535" d="M229.3,381.6V446c0,16.7-10.6,28.1-26.1,28.1c-15.1,0-25.9-11.3-25.9-28.1v-64.4c0-16.9,9.7-28.1,25.9-28.1
		C219.8,353.5,229.3,364.7,229.3,381.6z M215.6,382c0-11.2-5-15.5-12.4-15.5c-7,0-12.2,4.3-12.2,15.5v63.7
		c0,11.2,5.2,15.5,12.2,15.5c7.4,0,12.4-4.3,12.4-15.5V382z"/>
	<path fill="#353535" d="M297.9,381.6V446c0,16.7-10.6,28.1-26.1,28.1c-15.1,0-25.9-11.3-25.9-28.1v-64.4c0-16.9,9.7-28.1,25.9-28.1
		C288.4,353.5,297.9,364.7,297.9,381.6z M284.2,382c0-11.2-5-15.5-12.4-15.5c-7,0-12.2,4.3-12.2,15.5v63.7
		c0,11.2,5.2,15.5,12.2,15.5c7.4,0,12.4-4.3,12.4-15.5V382z"/>
	<path fill="#353535" d="M366.5,381.6V446c0,16.7-10.6,28.1-26.1,28.1c-15.1,0-25.9-11.3-25.9-28.1v-64.4c0-16.9,9.7-28.1,25.9-28.1
		C356.9,353.5,366.5,364.7,366.5,381.6z M352.8,382c0-11.2-5-15.5-12.4-15.5c-7,0-12.2,4.3-12.2,15.5v63.7
		c0,11.2,5.2,15.5,12.2,15.5c7.4,0,12.4-4.3,12.4-15.5V382z"/>
</g>
<g>
	<path fill="#FFFFFF" d="M7.4,544.9h1.5v12h5.3v1.4H7.4V544.9z"/>
	<path fill="#FFFFFF" d="M15.4,555.9c0-1.9,1.6-3.3,5.3-4v-0.6c0-1.1-0.5-1.6-1.4-1.6c-1.2,0-2.1,0.6-2.8,1.3l-0.8-0.9
		c1-1,2.3-1.7,3.8-1.7c1.9,0,2.7,1,2.7,2.9v4.5c0,1.2,0.1,1.9,0.2,2.3h-1.5c-0.1-0.4-0.2-0.7-0.2-1.2c-0.8,0.8-1.8,1.4-3,1.4
		C16.3,558.3,15.4,557.4,15.4,555.9z M20.7,555.9V553c-2.9,0.6-3.9,1.6-3.9,2.8c0,1,0.5,1.4,1.3,1.4
		C19.2,557.1,20.1,556.6,20.7,555.9z"/>
	<path fill="#FFFFFF" d="M25,556v-6.2h-1.4v-1.2H25v-3.4h1.4v3.4h2.1v1.2h-2.1v5.8c0,1,0.3,1.4,1.3,1.4c0.3,0,0.6-0.1,0.8-0.1v1.2
		c-0.2,0.1-0.7,0.1-1.1,0.1C25.6,558.3,25,557.7,25,556z"/>
	<path fill="#FFFFFF" d="M29.8,553.4c0-3.4,1.8-5,3.7-5c2.1,0,3.4,1.7,3.4,4.9v0.4h-5.6c0.1,2.2,0.9,3.4,2.3,3.4
		c1.1,0,1.7-0.6,2.3-1.7l1,0.6c-0.7,1.4-1.8,2.3-3.3,2.3C31.4,558.4,29.8,556.7,29.8,553.4z M35.5,552.6c-0.1-1.7-0.7-2.9-2-2.9
		c-1.1,0-2,0.9-2.2,2.9H35.5z"/>
	<path fill="#FFFFFF" d="M37.9,556.4l1-0.7c0.6,1,1.6,1.5,2.6,1.5c1.2,0,1.9-0.5,1.9-1.4c0-2.3-5-1.4-5-4.8c0-1.5,1.2-2.6,3-2.6
		c1.4,0,2.4,0.7,3.1,1.7l-1,0.8c-0.5-0.7-1.2-1.3-2.2-1.3c-1.1,0-1.6,0.5-1.6,1.3c0,2.4,4.9,1.3,4.9,4.8c0,1.7-1.5,2.7-3.3,2.7
		C39.8,558.4,38.7,557.6,37.9,556.4z"/>
	<path fill="#FFFFFF" d="M47.1,556v-6.2h-1.4v-1.2h1.4v-3.4h1.4v3.4h2.1v1.2h-2.1v5.8c0,1,0.3,1.4,1.3,1.4c0.3,0,0.6-0.1,0.8-0.1
		v1.2c-0.2,0.1-0.7,0.1-1.1,0.1C47.8,558.3,47.1,557.7,47.1,556z"/>
	<path fill="#FFFFFF" d="M56,548.7h1.5v1.2c0.6-0.7,1.4-1.4,2.6-1.4c1.9,0,3.2,1.5,3.2,4.9c0,3.4-1.4,4.9-3.3,4.9
		c-1.1,0-1.9-0.5-2.5-1.3v4.8H56V548.7z M61.8,553.4c0-2.5-0.9-3.7-2.1-3.7c-0.9,0-1.7,0.6-2.2,1.3v4.8c0.7,0.8,1.4,1.3,2.3,1.3
		C61,557.1,61.8,556,61.8,553.4z"/>
	<path fill="#FFFFFF" d="M65.1,555.7v-7.1h1.4v6.8c0,1.1,0.4,1.7,1.4,1.7c0.9,0,1.7-0.6,2.5-1.4v-7.1h1.5v9.5h-1.5v-1.3
		c-0.7,0.8-1.7,1.5-3,1.5C65.9,558.4,65.1,557.5,65.1,555.7z"/>
	<path fill="#FFFFFF" d="M73.4,556.4l1-0.7c0.6,1,1.6,1.5,2.6,1.5c1.2,0,1.9-0.5,1.9-1.4c0-2.3-5-1.4-5-4.8c0-1.5,1.2-2.6,3-2.6
		c1.4,0,2.4,0.7,3.1,1.7l-1,0.8c-0.5-0.7-1.2-1.3-2.2-1.3c-1.1,0-1.6,0.5-1.6,1.3c0,2.4,4.9,1.3,4.9,4.8c0,1.7-1.5,2.7-3.3,2.7
		C75.3,558.4,74.1,557.6,73.4,556.4z"/>
	<path fill="#FFFFFF" d="M82,544.9h1.5v5.1c0.6-0.7,1.8-1.5,3-1.5c1.5,0,2.3,0.9,2.3,2.6v7.1h-1.4v-6.8c0-1.1-0.4-1.7-1.4-1.7
		c-0.9,0-1.9,0.7-2.6,1.4v7.1H82V544.9z"/>
	<path fill="#FFFFFF" d="M91.2,548.7h1.7v1.9h-1.7V548.7z M91.2,556.3h1.7v1.9h-1.7V556.3z"/>
</g>
<g>
	<g>
		<path fill="#353535" d="M603.8,168.6l0.8-2h0.7l-0.5,1.9h0.6v1.9h-1.6V168.6z M606.9,168.6l0.8-2h0.7l-0.5,1.9h0.6v1.9h-1.6V168.6
			z"/>
		<path fill="#353535" d="M610.4,166.5h1.4l1.4,6.8c0.3,1.4,0.5,2.3,0.8,3.9h0c0.3-1.6,0.5-2.5,0.8-3.9l1.4-6.8h1.4l1.4,7
			c0.3,1.4,0.5,2.3,0.7,3.8h0c0.2-1.4,0.5-2.4,0.7-3.8l1.5-7h1.4l-3,13.4h-1.3l-2.2-10.7h0l-2.2,10.7h-1.3L610.4,166.5z"/>
		<path fill="#353535" d="M625.1,166.9h1.5v1.6h-1.5V166.9z M625.1,170.4h1.5v9.5h-1.5V170.4z"/>
		<path fill="#353535" d="M628.5,175.1c0-3.4,1.7-5,3.7-5c1.9,0,2.7,1.3,3.2,2.8l-1.3,0.4c-0.3-1.2-0.8-1.9-1.9-1.9
			c-1.2,0-2.2,1.1-2.2,3.7c0,2.3,0.8,3.7,2.2,3.7c1,0,1.6-0.6,2-2l1.3,0.3c-0.5,1.8-1.6,2.8-3.3,2.8
			C630.1,180.1,628.5,178.4,628.5,175.1z"/>
		<path fill="#353535" d="M637.2,166.5h1.4v8.7c0.2-0.4,0.8-1.2,1.3-1.9l2.2-3h1.5l-2.6,3.5l2.9,6h-1.5l-2.3-4.8l-1.5,2v2.8h-1.4
			V166.5z"/>
		<path fill="#353535" d="M645,175.1c0-3.4,1.8-5,3.7-5c2.1,0,3.4,1.7,3.4,4.9v0.4h-5.6c0.1,2.2,0.9,3.4,2.3,3.4
			c1.1,0,1.7-0.6,2.3-1.7l1,0.6c-0.7,1.4-1.8,2.3-3.3,2.3C646.6,180.1,645,178.4,645,175.1z M650.6,174.3c-0.1-1.7-0.7-2.9-2-2.9
			c-1.1,0-2,0.9-2.2,2.9H650.6z"/>
		<path fill="#353535" d="M653.4,175.1c0-3.4,1.4-5,3.3-5c1.1,0,1.9,0.5,2.6,1.3v-5h1.4v11c0,1.2,0.1,1.9,0.2,2.3h-1.5
			c-0.1-0.3-0.2-0.9-0.2-1.2c-0.6,0.7-1.4,1.4-2.6,1.4C654.8,180,653.4,178.6,653.4,175.1z M659.3,177.5v-4.8
			c-0.7-0.8-1.4-1.3-2.3-1.3c-1.3,0-2.1,1.1-2.1,3.7c0,2.5,0.9,3.7,2.2,3.7C657.9,178.8,658.7,178.2,659.3,177.5z"/>
		<path fill="#353535" d="M662.5,176.9l1.3-0.6c0.6,1.4,1.6,2.4,3.1,2.4c1.6,0,2.5-0.8,2.5-2.1c0-1.5-1.3-2.2-2.7-2.9
			c-1.7-0.8-3.6-1.7-3.6-4.1c0-1.9,1.6-3.3,3.6-3.3c2.1,0,3.3,1.3,4,2.8l-1.3,0.6c-0.5-1.1-1.3-2.1-2.7-2.1c-1.3,0-2.1,0.8-2.1,1.9
			c0,1.5,1.3,2.2,2.7,2.9c1.7,0.8,3.6,1.7,3.6,4.1c0,1.9-1.5,3.5-4,3.5C664.7,180.1,663.3,178.9,662.5,176.9z"/>
		<path fill="#353535" d="M672.9,170.4h1.5v1.3c0.7-0.7,1.7-1.5,2.9-1.5c1.3,0,1.9,0.5,2.2,1.5c0.7-0.8,1.7-1.5,3-1.5
			c1.5,0,2.3,0.9,2.3,2.6v7.1h-1.4v-6.8c0-1.1-0.4-1.7-1.3-1.7c-0.9,0-1.7,0.6-2.4,1.3v7.1H678v-6.8c0-1.1-0.3-1.7-1.3-1.7
			c-0.8,0-1.6,0.6-2.4,1.4v7.1h-1.5V170.4z"/>
		<path fill="#353535" d="M686.4,177.6c0-1.9,1.6-3.3,5.3-4V173c0-1.1-0.5-1.6-1.4-1.6c-1.2,0-2.1,0.6-2.8,1.3l-0.8-0.9
			c1-1,2.3-1.7,3.8-1.7c1.9,0,2.7,1,2.7,2.9v4.5c0,1.2,0.1,1.9,0.2,2.3h-1.5c-0.1-0.4-0.2-0.7-0.2-1.2c-0.8,0.8-1.8,1.4-3,1.4
			C687.2,180,686.4,179.1,686.4,177.6z M691.7,177.6v-2.9c-2.9,0.6-3.9,1.6-3.9,2.8c0,1,0.5,1.4,1.3,1.4
			C690.1,178.8,691,178.3,691.7,177.6z"/>
		<path fill="#353535" d="M695.4,170.4h1.5v1.6h0c0.5-1,1.5-1.8,3-1.8h0.2l-0.1,1.4c0,0-0.3,0-0.3,0c-1.2,0-2.3,0.8-2.8,1.9v6.4
			h-1.5V170.4z"/>
		<path fill="#353535" d="M702.2,177.7v-6.2h-1.4v-1.2h1.4V167h1.4v3.4h2.1v1.2h-2.1v5.8c0,1,0.3,1.4,1.3,1.4c0.3,0,0.6-0.1,0.8-0.1
			v1.2c-0.2,0.1-0.7,0.1-1.1,0.1C702.8,180,702.2,179.4,702.2,177.7z"/>
		<path fill="#353535" d="M708.2,168.4h-0.6v-1.9h1.7v1.7l-0.8,2h-0.7L708.2,168.4z M711.3,168.4h-0.6v-1.9h1.6v1.7l-0.8,2h-0.7
			L711.3,168.4z"/>
		<path fill="#353535" d="M586,208.1l1-0.7c0.6,1,1.6,1.5,2.6,1.5c1.2,0,1.9-0.5,1.9-1.4c0-2.3-5-1.4-5-4.8c0-1.5,1.2-2.6,3-2.6
			c1.4,0,2.4,0.7,3.1,1.7l-1,0.8c-0.5-0.7-1.2-1.3-2.2-1.3c-1.1,0-1.6,0.5-1.6,1.3c0,2.4,4.9,1.3,4.9,4.8c0,1.7-1.5,2.7-3.3,2.7
			C587.9,210.1,586.7,209.3,586,208.1z"/>
		<path fill="#353535" d="M595.2,207.7v-6.2h-1.4v-1.2h1.4V197h1.4v3.4h2.1v1.2h-2.1v5.8c0,1,0.3,1.4,1.3,1.4c0.3,0,0.6-0.1,0.8-0.1
			v1.2c-0.2,0.1-0.7,0.1-1.1,0.1C595.8,210,595.2,209.4,595.2,207.7z"/>
		<path fill="#353535" d="M600.4,207.4v-7.1h1.4v6.8c0,1.1,0.4,1.7,1.4,1.7c0.9,0,1.7-0.6,2.5-1.4v-7.1h1.5v9.5h-1.5v-1.3
			c-0.7,0.8-1.7,1.5-3,1.5C601.2,210.1,600.4,209.1,600.4,207.4z"/>
		<path fill="#353535" d="M609.1,205.1c0-3.4,1.4-5,3.3-5c1.1,0,1.9,0.5,2.6,1.3v-5h1.4v11c0,1.2,0.1,1.9,0.2,2.3h-1.5
			c-0.1-0.3-0.2-0.9-0.2-1.2c-0.6,0.7-1.4,1.4-2.6,1.4C610.4,210,609.1,208.6,609.1,205.1z M614.9,207.5v-4.8
			c-0.7-0.8-1.4-1.3-2.2-1.3c-1.3,0-2.1,1.1-2.1,3.7c0,2.5,0.9,3.7,2.2,3.7C613.5,208.8,614.3,208.2,614.9,207.5z"/>
		<path fill="#353535" d="M618.2,205.1c0-3.4,1.8-5,3.7-5c2.1,0,3.4,1.7,3.4,4.9v0.4h-5.6c0.1,2.2,0.9,3.4,2.3,3.4
			c1.1,0,1.7-0.6,2.3-1.7l1,0.6c-0.7,1.4-1.8,2.3-3.3,2.3C619.8,210.1,618.2,208.4,618.2,205.1z M623.9,204.3
			c-0.1-1.7-0.7-2.9-2-2.9c-1.1,0-2,0.9-2.2,2.9H623.9z"/>
		<path fill="#353535" d="M627.1,200.4h1.5v1.3c0.6-0.7,1.8-1.5,3-1.5c1.5,0,2.3,0.9,2.3,2.6v7.1h-1.4v-6.8c0-1.1-0.4-1.7-1.4-1.7
			c-0.9,0-1.9,0.7-2.6,1.4v7.1h-1.5V200.4z"/>
		<path fill="#353535" d="M636.7,207.7v-6.2h-1.4v-1.2h1.4V197h1.4v3.4h2.1v1.2h-2.1v5.8c0,1,0.3,1.4,1.3,1.4c0.3,0,0.6-0.1,0.8-0.1
			v1.2c-0.2,0.1-0.7,0.1-1.1,0.1C637.4,210,636.7,209.4,636.7,207.7z"/>
		<path fill="#353535" d="M641.2,208.1l1-0.7c0.6,1,1.6,1.5,2.6,1.5c1.2,0,1.9-0.5,1.9-1.4c0-2.3-5-1.4-5-4.8c0-1.5,1.2-2.6,3-2.6
			c1.4,0,2.4,0.7,3.1,1.7l-1,0.8c-0.5-0.7-1.2-1.3-2.2-1.3c-1.1,0-1.6,0.5-1.6,1.3c0,2.4,4.9,1.3,4.9,4.8c0,1.7-1.5,2.7-3.3,2.7
			C643.1,210.1,641.9,209.3,641.2,208.1z"/>
		<path fill="#353535" d="M653,205.1c0-3.4,1.4-5,3.3-5c1.1,0,1.9,0.5,2.6,1.3v-5h1.4v11c0,1.2,0.1,1.9,0.2,2.3H659
			c-0.1-0.3-0.2-0.9-0.2-1.2c-0.6,0.7-1.4,1.4-2.6,1.4C654.3,210,653,208.6,653,205.1z M658.8,207.5v-4.8c-0.7-0.8-1.4-1.3-2.2-1.3
			c-1.3,0-2.1,1.1-2.1,3.7c0,2.5,0.9,3.7,2.2,3.7C657.4,208.8,658.2,208.2,658.8,207.5z"/>
		<path fill="#353535" d="M662.6,196.9h1.5v1.6h-1.5V196.9z M662.6,200.4h1.5v9.5h-1.5V200.4z"/>
		<path fill="#353535" d="M665.7,208.1l1-0.7c0.6,1,1.6,1.5,2.6,1.5c1.2,0,1.9-0.5,1.9-1.4c0-2.3-5-1.4-5-4.8c0-1.5,1.2-2.6,3-2.6
			c1.4,0,2.4,0.7,3.1,1.7l-1,0.8c-0.5-0.7-1.2-1.3-2.2-1.3c-1.1,0-1.6,0.5-1.6,1.3c0,2.4,4.9,1.3,4.9,4.8c0,1.7-1.5,2.7-3.3,2.7
			C667.6,210.1,666.4,209.3,665.7,208.1z"/>
		<path fill="#353535" d="M673.9,205.1c0-3.4,1.7-5,3.7-5c1.9,0,2.7,1.3,3.2,2.8l-1.3,0.4c-0.3-1.2-0.8-1.9-1.9-1.9
			c-1.2,0-2.2,1.1-2.2,3.7c0,2.3,0.8,3.7,2.2,3.7c1,0,1.6-0.6,2-2l1.3,0.3c-0.5,1.8-1.6,2.8-3.3,2.8
			C675.5,210.1,673.9,208.4,673.9,205.1z"/>
		<path fill="#353535" d="M682.1,205.1c0-3.3,1.6-5,3.8-5c2.1,0,3.7,1.7,3.7,5c0,3.3-1.6,5-3.7,5S682.1,208.4,682.1,205.1z
			 M688.1,205.1c0-2.1-0.7-3.7-2.3-3.7c-1.5,0-2.3,1.5-2.3,3.7c0,2.1,0.7,3.7,2.3,3.7C687.4,208.8,688.1,207.4,688.1,205.1z"/>
		<path fill="#353535" d="M690.6,200.4h1.5l1.5,5.4c0.2,0.8,0.4,1.5,0.7,2.6h0c0.3-1.1,0.4-1.7,0.7-2.6l1.5-5.4h1.4l-2.9,9.5h-1.5
			L690.6,200.4z"/>
		<path fill="#353535" d="M698.9,205.1c0-3.4,1.8-5,3.7-5c2.1,0,3.4,1.7,3.4,4.9v0.4h-5.6c0.1,2.2,0.9,3.4,2.3,3.4
			c1.1,0,1.7-0.6,2.3-1.7l1,0.6c-0.7,1.4-1.8,2.3-3.3,2.3C700.5,210.1,698.9,208.4,698.9,205.1z M704.6,204.3
			c-0.1-1.7-0.7-2.9-2-2.9c-1.1,0-2,0.9-2.2,2.9H704.6z"/>
		<path fill="#353535" d="M707.8,200.4h1.5v1.6h0c0.5-1,1.5-1.8,3-1.8h0.2l-0.1,1.4c0,0-0.3,0-0.3,0c-1.2,0-2.2,0.8-2.8,1.9v6.4
			h-1.5V200.4z"/>
		<path fill="#353535" d="M713.6,205.1c0-3.4,1.8-5,3.7-5c2.1,0,3.4,1.7,3.4,4.9v0.4H715c0.1,2.2,0.9,3.4,2.3,3.4
			c1.1,0,1.7-0.6,2.3-1.7l1,0.6c-0.7,1.4-1.8,2.3-3.3,2.3C715.2,210.1,713.6,208.4,713.6,205.1z M719.3,204.3
			c-0.1-1.7-0.7-2.9-2-2.9c-1.1,0-2,0.9-2.2,2.9H719.3z"/>
		<path fill="#353535" d="M722.1,205.1c0-3.4,1.4-5,3.3-5c1.1,0,1.9,0.5,2.6,1.3v-5h1.4v11c0,1.2,0.1,1.9,0.2,2.3h-1.5
			c-0.1-0.3-0.2-0.9-0.2-1.2c-0.6,0.7-1.4,1.4-2.6,1.4C723.5,210,722.1,208.6,722.1,205.1z M727.9,207.5v-4.8
			c-0.7-0.8-1.4-1.3-2.2-1.3c-1.3,0-2.1,1.1-2.1,3.7c0,2.5,0.9,3.7,2.2,3.7C726.6,208.8,727.3,208.2,727.9,207.5z"/>
	</g>
</g>
<g>
	<path fill="#353535" d="M7.7,624.2l1.1-0.5c0.5,1.2,1.3,2,2.6,2c1.3,0,2.1-0.7,2.1-1.8c0-1.3-1.1-1.8-2.3-2.4c-1.4-0.7-3-1.4-3-3.4
		c0-1.6,1.3-2.8,3-2.8c1.8,0,2.8,1.1,3.3,2.3l-1.1,0.5c-0.4-0.9-1-1.8-2.2-1.8c-1,0-1.8,0.7-1.8,1.6c0,1.3,1.1,1.8,2.2,2.4
		c1.4,0.7,3,1.4,3,3.4c0,1.6-1.3,2.9-3.3,2.9C9.5,626.8,8.4,625.8,7.7,624.2z"/>
	<path fill="#353535" d="M16.4,615.8h1.2v1.3h-1.2V615.8z M16.4,618.7h1.2v7.9h-1.2V618.7z"/>
	<path fill="#353535" d="M25.7,618.6v1.1c-0.4,0-0.8,0-1.2,0.2c0.2,0.4,0.4,0.9,0.4,1.5c0,1.8-1.1,2.8-2.7,2.8
		c-0.4,0-0.8-0.1-1.1-0.2c-0.3,0.1-0.5,0.3-0.5,0.6c0,0.3,0.2,0.4,0.9,0.5l1.2,0.2c1.9,0.2,2.7,0.8,2.7,2c0,1.4-1.5,2.2-3.4,2.2
		c-2.3,0-3.1-0.7-3.1-1.9c0-0.8,0.5-1.4,1.3-1.8c-0.4-0.2-0.7-0.5-0.7-1c0-0.5,0.4-0.9,0.9-1.2c-0.7-0.5-1-1.3-1-2.3
		c0-1.7,1.2-2.9,2.8-2.9c0.8,0,1.5,0.3,2,0.8C24.5,619,25.2,618.7,25.7,618.6z M20,627.5c0,0.8,0.5,1.2,2.1,1.2
		c1.3,0,2.2-0.5,2.2-1.2c0-0.6-0.4-1-1.8-1.2l-1.3-0.2c-0.1,0-0.2,0-0.2,0C20.4,626.5,20,627,20,627.5z M23.7,621.4
		c0-1.2-0.6-1.9-1.6-1.9c-1,0-1.6,0.8-1.6,1.9c0,1.2,0.6,1.9,1.6,1.9C23.2,623.3,23.7,622.6,23.7,621.4z"/>
	<path fill="#353535" d="M27.1,618.7h1.2v1.1c0.5-0.6,1.5-1.3,2.5-1.3c1.3,0,2,0.8,2,2.2v5.9h-1.2V621c0-0.9-0.3-1.4-1.1-1.4
		c-0.8,0-1.6,0.6-2.1,1.1v5.9h-1.2V618.7z"/>
	<path fill="#353535" d="M34.7,615.8h1.2v1.3h-1.2V615.8z M34.7,618.7h1.2v7.9h-1.2V618.7z"/>
	<path fill="#353535" d="M37.9,618.7h1.2v1.1c0.5-0.6,1.5-1.3,2.5-1.3c1.3,0,2,0.8,2,2.2v5.9h-1.2V621c0-0.9-0.3-1.4-1.1-1.4
		c-0.8,0-1.6,0.6-2.1,1.1v5.9h-1.2V618.7z"/>
	<path fill="#353535" d="M51.5,618.6v1.1c-0.4,0-0.8,0-1.2,0.2c0.2,0.4,0.4,0.9,0.4,1.5c0,1.8-1.1,2.8-2.7,2.8
		c-0.4,0-0.8-0.1-1.1-0.2c-0.3,0.1-0.5,0.3-0.5,0.6c0,0.3,0.2,0.4,0.9,0.5l1.2,0.2c1.9,0.2,2.7,0.8,2.7,2c0,1.4-1.5,2.2-3.4,2.2
		c-2.3,0-3.1-0.7-3.1-1.9c0-0.8,0.5-1.4,1.3-1.8c-0.4-0.2-0.7-0.5-0.7-1c0-0.5,0.4-0.9,0.9-1.2c-0.7-0.5-1-1.3-1-2.3
		c0-1.7,1.2-2.9,2.8-2.9c0.8,0,1.5,0.3,2,0.8C50.3,619,50.9,618.7,51.5,618.6z M45.8,627.5c0,0.8,0.5,1.2,2.1,1.2
		c1.3,0,2.2-0.5,2.2-1.2c0-0.6-0.4-1-1.8-1.2l-1.3-0.2c-0.1,0-0.2,0-0.2,0C46.1,626.5,45.8,627,45.8,627.5z M49.5,621.4
		c0-1.2-0.6-1.9-1.6-1.9c-1,0-1.6,0.8-1.6,1.9c0,1.2,0.6,1.9,1.6,1.9C48.9,623.3,49.5,622.6,49.5,621.4z"/>
	<path fill="#353535" d="M55.7,624.6v-5.9h1.2v5.7c0,0.9,0.3,1.4,1.2,1.4c0.8,0,1.4-0.5,2.1-1.1v-5.9h1.2v7.9h-1.2v-1.1
		c-0.6,0.7-1.5,1.3-2.5,1.3C56.4,626.8,55.7,626,55.7,624.6z"/>
	<path fill="#353535" d="M63.3,618.7h1.2v1c0.5-0.6,1.2-1.2,2.2-1.2c1.5,0,2.7,1.3,2.7,4.1c0,2.9-1.2,4.1-2.8,4.1
		c-0.9,0-1.6-0.4-2.1-1.1v4h-1.2V618.7z M68.2,622.7c0-2.1-0.7-3.1-1.8-3.1c-0.7,0-1.4,0.5-1.9,1.1v4c0.6,0.7,1.2,1.1,1.9,1.1
		C67.5,625.7,68.2,624.8,68.2,622.7z"/>
	<path fill="#353535" d="M73.9,615.5h1.2v4.3c0.5-0.6,1.5-1.3,2.5-1.3c1.3,0,2,0.8,2,2.2v5.9h-1.2V621c0-0.9-0.3-1.4-1.1-1.4
		c-0.8,0-1.6,0.6-2.1,1.1v5.9h-1.2V615.5z"/>
	<path fill="#353535" d="M81,624.8c0-1.6,1.3-2.7,4.4-3.3v-0.5c0-0.9-0.4-1.3-1.2-1.3c-1,0-1.7,0.5-2.3,1.1l-0.7-0.7
		c0.8-0.8,1.9-1.4,3.1-1.4c1.5,0,2.2,0.9,2.2,2.4v3.8c0,1,0,1.5,0.2,2h-1.2c-0.1-0.3-0.2-0.6-0.2-1c-0.6,0.7-1.5,1.1-2.5,1.1
		C81.7,626.7,81,626,81,624.8z M85.5,624.7v-2.4c-2.4,0.5-3.2,1.4-3.2,2.3c0,0.8,0.4,1.2,1.1,1.2C84.2,625.7,84.9,625.3,85.5,624.7z
		"/>
	<path fill="#353535" d="M87.9,625.2l0.8-0.6c0.5,0.8,1.3,1.2,2.1,1.2c1,0,1.6-0.4,1.6-1.2c0-2-4.1-1.2-4.1-4c0-1.3,1-2.1,2.5-2.1
		c1.2,0,2,0.6,2.6,1.4l-0.8,0.6c-0.4-0.6-1-1.1-1.8-1.1c-0.9,0-1.3,0.5-1.3,1.1c0,2,4.1,1.1,4.1,4c0,1.4-1.2,2.2-2.7,2.2
		C89.5,626.8,88.5,626.2,87.9,625.2z"/>
	<path fill="#353535" d="M98,618.7h1.2v1.1c0.5-0.6,1.5-1.3,2.5-1.3c1.3,0,2,0.8,2,2.2v5.9h-1.2V621c0-0.9-0.3-1.4-1.1-1.4
		c-0.8,0-1.6,0.6-2.1,1.1v5.9H98V618.7z"/>
	<path fill="#353535" d="M105.2,622.7c0-2.8,1.5-4.1,3.1-4.1c1.8,0,2.8,1.4,2.8,4.1v0.3h-4.7c0,1.9,0.8,2.9,1.9,2.9
		c0.9,0,1.4-0.5,1.9-1.4l0.8,0.5c-0.6,1.1-1.5,1.9-2.8,1.9C106.5,626.8,105.2,625.4,105.2,622.7z M109.9,622
		c-0.1-1.4-0.6-2.4-1.7-2.4c-0.9,0-1.7,0.7-1.8,2.4H109.9z"/>
	<path fill="#353535" d="M111.9,618.7h1.2l1.3,4.5c0.2,0.7,0.3,1.2,0.6,2.1h0c0.2-0.9,0.4-1.4,0.6-2.1l1.3-4.5h1.1l-2.4,8h-1.3
		L111.9,618.7z"/>
	<path fill="#353535" d="M118.8,622.7c0-2.8,1.5-4.1,3.1-4.1c1.8,0,2.8,1.4,2.8,4.1v0.3H120c0,1.9,0.8,2.9,1.9,2.9
		c0.9,0,1.4-0.5,1.9-1.4l0.8,0.5c-0.6,1.1-1.5,1.9-2.8,1.9C120.2,626.8,118.8,625.4,118.8,622.7z M123.6,622
		c-0.1-1.4-0.6-2.4-1.7-2.4c-0.9,0-1.7,0.7-1.8,2.4H123.6z"/>
	<path fill="#353535" d="M126.3,618.7h1.2v1.4h0c0.4-0.8,1.3-1.5,2.5-1.5h0.2l-0.1,1.1c0,0-0.2,0-0.3,0c-1,0-1.9,0.7-2.3,1.6v5.3
		h-1.2V618.7z"/>
	<path fill="#353535" d="M135.6,625.7v0.9h-1.2v-11.1h1.2v4.2c0.5-0.6,1.2-1.2,2.2-1.2c1.5,0,2.7,1.3,2.7,4.1c0,2.9-1.2,4.1-2.8,4.1
		C136.8,626.8,136.2,626.3,135.6,625.7z M139.3,622.7c0-2.1-0.7-3.1-1.8-3.1c-0.8,0-1.3,0.5-1.9,1.1v4c0.6,0.7,1.2,1.1,1.9,1.1
		C138.6,625.7,139.3,624.8,139.3,622.7z"/>
	<path fill="#353535" d="M141.7,622.7c0-2.8,1.5-4.1,3.1-4.1c1.8,0,2.8,1.4,2.8,4.1v0.3h-4.7c0,1.9,0.8,2.9,1.9,2.9
		c0.9,0,1.4-0.5,1.9-1.4l0.8,0.5c-0.6,1.1-1.5,1.9-2.8,1.9C143,626.8,141.7,625.4,141.7,622.7z M146.4,622c-0.1-1.4-0.6-2.4-1.7-2.4
		c-0.9,0-1.7,0.7-1.8,2.4H146.4z"/>
	<path fill="#353535" d="M148.7,622.7c0-2.8,1.5-4.1,3.1-4.1c1.8,0,2.8,1.4,2.8,4.1v0.3h-4.7c0,1.9,0.8,2.9,1.9,2.9
		c0.9,0,1.4-0.5,1.9-1.4l0.8,0.5c-0.6,1.1-1.5,1.9-2.8,1.9C150,626.8,148.7,625.4,148.7,622.7z M153.5,622c-0.1-1.4-0.6-2.4-1.7-2.4
		c-0.9,0-1.7,0.7-1.8,2.4H153.5z"/>
	<path fill="#353535" d="M156.2,618.7h1.2v1.1c0.5-0.6,1.5-1.3,2.5-1.3c1.3,0,2,0.8,2,2.2v5.9h-1.2V621c0-0.9-0.3-1.4-1.1-1.4
		c-0.8,0-1.6,0.6-2.1,1.1v5.9h-1.2V618.7z"/>
	<path fill="#353535" d="M166,625.2l0.8-0.6c0.5,0.8,1.3,1.2,2.1,1.2c1,0,1.6-0.4,1.6-1.2c0-2-4.1-1.2-4.1-4c0-1.3,1-2.1,2.5-2.1
		c1.2,0,2,0.6,2.6,1.4l-0.8,0.6c-0.4-0.6-1-1.1-1.8-1.1c-0.9,0-1.3,0.5-1.3,1.1c0,2,4.1,1.1,4.1,4c0,1.4-1.2,2.2-2.7,2.2
		C167.6,626.8,166.6,626.2,166,625.2z"/>
	<path fill="#353535" d="M173.2,615.5h1.2v4.3c0.5-0.6,1.5-1.3,2.5-1.3c1.3,0,2,0.8,2,2.2v5.9h-1.2V621c0-0.9-0.3-1.4-1.1-1.4
		c-0.8,0-1.6,0.6-2.1,1.1v5.9h-1.2V615.5z"/>
	<path fill="#353535" d="M180.3,622.7c0-2.7,1.4-4.1,3.1-4.1c1.8,0,3.1,1.4,3.1,4.1c0,2.7-1.4,4.1-3.1,4.1S180.3,625.4,180.3,622.7z
		 M185.4,622.7c0-1.7-0.6-3.1-1.9-3.1c-1.3,0-1.9,1.2-1.9,3.1c0,1.7,0.6,3.1,1.9,3.1C184.7,625.8,185.4,624.5,185.4,622.7z"/>
	<path fill="#353535" d="M188.1,618.7h1.2v1.4h0c0.4-0.8,1.3-1.5,2.5-1.5h0.2l-0.1,1.1c0,0-0.2,0-0.3,0c-1,0-1.9,0.7-2.3,1.6v5.3
		h-1.2V618.7z"/>
	<path fill="#353535" d="M193.8,624.8v-5.1h-1.2v-1h1.2v-2.8h1.2v2.8h1.7v1H195v4.9c0,0.8,0.2,1.2,1,1.2c0.2,0,0.5,0,0.7-0.1v1
		c-0.2,0.1-0.6,0.1-0.9,0.1C194.3,626.7,193.8,626.2,193.8,624.8z"/>
	<path fill="#353535" d="M197.8,622.7c0-2.8,1.5-4.1,3.1-4.1c1.8,0,2.8,1.4,2.8,4.1v0.3H199c0,1.9,0.8,2.9,1.9,2.9
		c0.9,0,1.4-0.5,1.9-1.4l0.8,0.5c-0.6,1.1-1.5,1.9-2.8,1.9C199.1,626.8,197.8,625.4,197.8,622.7z M202.5,622
		c-0.1-1.4-0.6-2.4-1.7-2.4c-0.9,0-1.7,0.7-1.8,2.4H202.5z"/>
	<path fill="#353535" d="M205.2,618.7h1.2v1.4h0c0.4-0.8,1.3-1.5,2.5-1.5h0.2l-0.1,1.1c0,0-0.2,0-0.3,0c-1,0-1.9,0.7-2.3,1.6v5.3
		h-1.2V618.7z"/>
	<path fill="#353535" d="M211.1,626.6h-0.6v-1.6h1.4v1.4l-0.7,1.7h-0.6L211.1,626.6z"/>
	<path fill="#353535" d="M217,618.7h1.2v1.1c0.6-0.6,1.4-1.3,2.4-1.3c1.1,0,1.6,0.5,1.8,1.3c0.6-0.6,1.5-1.3,2.5-1.3
		c1.3,0,1.9,0.8,1.9,2.2v5.9h-1.2V621c0-0.9-0.3-1.4-1.1-1.4c-0.7,0-1.4,0.5-2,1.1v6h-1.2V621c0-0.9-0.2-1.4-1.1-1.4
		c-0.7,0-1.4,0.5-2,1.1v5.9H217V618.7z"/>
	<path fill="#353535" d="M228.3,622.7c0-2.7,1.4-4.1,3.1-4.1c1.8,0,3.1,1.4,3.1,4.1c0,2.7-1.4,4.1-3.1,4.1S228.3,625.4,228.3,622.7z
		 M233.3,622.7c0-1.7-0.6-3.1-1.9-3.1c-1.3,0-1.9,1.2-1.9,3.1c0,1.7,0.6,3.1,1.9,3.1C232.7,625.8,233.3,624.5,233.3,622.7z"/>
	<path fill="#353535" d="M236.1,618.7h1.2v1.4h0c0.4-0.8,1.3-1.5,2.5-1.5h0.2l-0.1,1.1c0,0-0.2,0-0.3,0c-1,0-1.9,0.7-2.3,1.6v5.3
		h-1.2V618.7z"/>
	<path fill="#353535" d="M240.9,622.7c0-2.8,1.5-4.1,3.1-4.1c1.8,0,2.8,1.4,2.8,4.1v0.3h-4.7c0,1.9,0.8,2.9,1.9,2.9
		c0.9,0,1.4-0.5,1.9-1.4l0.8,0.5c-0.6,1.1-1.5,1.9-2.8,1.9C242.2,626.8,240.9,625.4,240.9,622.7z M245.6,622
		c-0.1-1.4-0.6-2.4-1.7-2.4c-0.9,0-1.7,0.7-1.8,2.4H245.6z"/>
	<path fill="#353535" d="M251.4,615.8h1.2v1.3h-1.2V615.8z M251.4,618.7h1.2v7.9h-1.2V618.7z"/>
	<path fill="#353535" d="M254.6,618.7h1.2v1.1c0.5-0.6,1.5-1.3,2.5-1.3c1.3,0,2,0.8,2,2.2v5.9h-1.2V621c0-0.9-0.3-1.4-1.1-1.4
		c-0.8,0-1.6,0.6-2.1,1.1v5.9h-1.2V618.7z"/>
	<path fill="#353535" d="M262.6,624.8v-5.1h-1.2v-1h1.2v-2.8h1.2v2.8h1.7v1h-1.7v4.9c0,0.8,0.2,1.2,1.1,1.2c0.2,0,0.5,0,0.7-0.1v1
		c-0.2,0.1-0.6,0.1-0.9,0.1C263.1,626.7,262.6,626.2,262.6,624.8z"/>
	<path fill="#353535" d="M266.9,624.6v-5.9h1.2v5.7c0,0.9,0.3,1.4,1.2,1.4c0.8,0,1.4-0.5,2.1-1.1v-5.9h1.2v7.9h-1.2v-1.1
		c-0.6,0.7-1.5,1.3-2.5,1.3C267.6,626.8,266.9,626,266.9,624.6z"/>
	<path fill="#353535" d="M274.6,615.8h1.2v1.3h-1.2V615.8z M274.6,618.7h1.2v7.9h-1.2V618.7z"/>
	<path fill="#353535" d="M278.3,624.8v-5.1h-1.2v-1h1.2v-2.8h1.2v2.8h1.7v1h-1.7v4.9c0,0.8,0.2,1.2,1,1.2c0.2,0,0.5,0,0.7-0.1v1
		c-0.2,0.1-0.6,0.1-0.9,0.1C278.8,626.7,278.3,626.2,278.3,624.8z"/>
	<path fill="#353535" d="M282.8,615.8h1.2v1.3h-1.2V615.8z M282.8,618.7h1.2v7.9h-1.2V618.7z"/>
	<path fill="#353535" d="M285.3,618.7h1.2l1.3,4.5c0.2,0.7,0.3,1.2,0.6,2.1h0c0.2-0.9,0.4-1.4,0.6-2.1l1.3-4.5h1.1l-2.4,8h-1.3
		L285.3,618.7z"/>
	<path fill="#353535" d="M292.2,622.7c0-2.8,1.5-4.1,3.1-4.1c1.8,0,2.8,1.4,2.8,4.1v0.3h-4.7c0,1.9,0.8,2.9,1.9,2.9
		c0.9,0,1.4-0.5,1.9-1.4l0.8,0.5c-0.6,1.1-1.5,1.9-2.8,1.9C293.6,626.8,292.2,625.4,292.2,622.7z M297,622c-0.1-1.4-0.6-2.4-1.7-2.4
		c-0.9,0-1.7,0.7-1.8,2.4H297z"/>
	<path fill="#353535" d="M300.3,626.6h-0.6v-1.6h1.4v1.4l-0.7,1.7h-0.6L300.3,626.6z"/>
	<path fill="#353535" d="M305.8,622.7c0-2.7,1.4-4.1,3.1-4.1c1.8,0,3.1,1.4,3.1,4.1c0,2.7-1.4,4.1-3.1,4.1S305.8,625.4,305.8,622.7z
		 M310.9,622.7c0-1.7-0.6-3.1-1.9-3.1c-1.3,0-1.9,1.2-1.9,3.1c0,1.7,0.6,3.1,1.9,3.1C310.2,625.8,310.9,624.5,310.9,622.7z"/>
	<path fill="#353535" d="M313.6,618.7h1.2v1.4h0c0.4-0.8,1.3-1.5,2.5-1.5h0.2l-0.1,1.1c0,0-0.2,0-0.3,0c-1,0-1.9,0.7-2.3,1.6v5.3
		h-1.2V618.7z"/>
	<path fill="#353535" d="M321.7,624.6v-5.9h1.2v5.7c0,0.9,0.3,1.4,1.2,1.4c0.8,0,1.4-0.5,2.1-1.1v-5.9h1.2v7.9h-1.2v-1.1
		c-0.6,0.7-1.5,1.3-2.5,1.3C322.4,626.8,321.7,626,321.7,624.6z"/>
	<path fill="#353535" d="M328.6,625.2l0.8-0.6c0.5,0.8,1.3,1.2,2.1,1.2c1,0,1.6-0.4,1.6-1.2c0-2-4.1-1.2-4.1-4c0-1.3,1-2.1,2.5-2.1
		c1.2,0,2,0.6,2.6,1.4l-0.8,0.6c-0.4-0.6-1-1.1-1.8-1.1c-0.9,0-1.3,0.5-1.3,1.1c0,2,4.1,1.1,4.1,4c0,1.4-1.2,2.2-2.7,2.2
		C330.2,626.8,329.3,626.2,328.6,625.2z"/>
	<path fill="#353535" d="M335.5,622.7c0-2.8,1.5-4.1,3.1-4.1c1.8,0,2.8,1.4,2.8,4.1v0.3h-4.7c0,1.9,0.8,2.9,1.9,2.9
		c0.9,0,1.4-0.5,1.9-1.4l0.8,0.5c-0.6,1.1-1.5,1.9-2.8,1.9C336.8,626.8,335.5,625.4,335.5,622.7z M340.2,622
		c-0.1-1.4-0.6-2.4-1.7-2.4c-0.9,0-1.7,0.7-1.8,2.4H340.2z"/>
	<path fill="#353535" d="M342.9,618.7h1.2v1.4h0c0.4-0.8,1.3-1.5,2.5-1.5h0.2l-0.1,1.1c0,0-0.2,0-0.3,0c-1,0-1.9,0.7-2.3,1.6v5.3
		h-1.2V618.7z"/>
	<path fill="#353535" d="M351.6,619.7h-1.2v-1h1.2v-1.2c0-1.3,0.7-2,2.2-2c0.1,0,0.6,0,0.6,0v1c0,0-0.4,0-0.5,0
		c-0.6,0-1.1,0.2-1.1,1v1.2h1.5v1h-1.5v6.9h-1.2V619.7z"/>
	<path fill="#353535" d="M355.5,618.7h1.2v1.4h0c0.4-0.8,1.3-1.5,2.5-1.5h0.2l-0.1,1.1c0,0-0.2,0-0.3,0c-1,0-1.9,0.7-2.3,1.6v5.3
		h-1.2V618.7z"/>
	<path fill="#353535" d="M360.7,615.8h1.2v1.3h-1.2V615.8z M360.7,618.7h1.2v7.9h-1.2V618.7z"/>
	<path fill="#353535" d="M363.6,622.7c0-2.8,1.5-4.1,3.1-4.1c1.8,0,2.8,1.4,2.8,4.1v0.3h-4.7c0,1.9,0.8,2.9,1.9,2.9
		c0.9,0,1.4-0.5,1.9-1.4l0.8,0.5c-0.6,1.1-1.5,1.9-2.8,1.9C364.9,626.8,363.6,625.4,363.6,622.7z M368.3,622
		c-0.1-1.4-0.6-2.4-1.7-2.4c-0.9,0-1.7,0.7-1.8,2.4H368.3z"/>
	<path fill="#353535" d="M371,618.7h1.2v1.1c0.5-0.6,1.5-1.3,2.5-1.3c1.3,0,2,0.8,2,2.2v5.9h-1.2V621c0-0.9-0.3-1.4-1.1-1.4
		c-0.8,0-1.6,0.6-2.1,1.1v5.9H371V618.7z"/>
	<path fill="#353535" d="M378.2,622.7c0-2.9,1.2-4.1,2.7-4.1c0.9,0,1.6,0.5,2.1,1.1v-4.1h1.2v9.1c0,1,0,1.5,0.2,2h-1.2
		c-0.1-0.3-0.2-0.8-0.2-1c-0.5,0.6-1.2,1.2-2.2,1.2C379.3,626.8,378.2,625.5,378.2,622.7z M383.1,624.7v-4c-0.6-0.7-1.2-1.1-1.9-1.1
		c-1.1,0-1.8,0.9-1.8,3.1c0,2.1,0.7,3,1.8,3C381.9,625.7,382.6,625.2,383.1,624.7z"/>
	<path fill="#353535" d="M386.2,615.5h1.2v11.1h-1.2V615.5z"/>
	<path fill="#353535" d="M388.6,629.5l0.2-1c0.2,0,0.6,0.1,1,0.1c0.7,0,1-0.4,1.2-1.2l0.2-0.7l-2.5-8h1.2l1.2,4.1
		c0.3,0.9,0.4,1.5,0.6,2.4h0c0.2-0.9,0.4-1.6,0.7-2.5l1.2-4h1.2l-2.7,8.8c-0.5,1.5-1,2.1-2.3,2.1
		C389.3,629.6,388.8,629.5,388.6,629.5z"/>
	<path fill="#353535" d="M396.4,625.1h1.4v1.6h-1.4V625.1z"/>
</g>
<path fill="none" stroke="#353535" stroke-width="6" stroke-linecap="round" stroke-linejoin="round" stroke-miterlimit="10" d="
	M796.7,321.8l-45.6-49.2c-7-7.6-6.6-19.4,1-26.4l0,0c7.6-7,19.4-6.6,26.4,1l45.6,49.2c7,7.6,6.6,19.4-1,26.4l0,0
	C815.6,329.8,803.7,329.4,796.7,321.8z"/>
<path fill="none" stroke="#353535" stroke-width="6" stroke-linecap="round" stroke-linejoin="round" stroke-miterlimit="10" d="
	M752.1,246.2c2.5-2.3,5.5-3.8,8.6-4.5L746.1,226c-4.1,4.7-8.7,8.9-13.7,12.7l14.6,15.8C747.9,251.4,749.6,248.5,752.1,246.2z"/>
<circle fill="none" stroke="#353535" stroke-width="6" stroke-linecap="round" stroke-linejoin="round" stroke-miterlimit="10" cx="654.2" cy="133.4" r="130.4"/>
<rect x="519.1" y="559.8" fill="none" stroke="#FFFFFF" stroke-width="4" stroke-linecap="round" stroke-linejoin="round" stroke-miterlimit="10" width="277.6" height="60.3"/>
<g>
	<path fill="#FFFFFF" d="M546.7,584.1v2.2c0,0.2-0.2,0.4-0.4,0.4h-1.9c-0.2,0-0.4-0.2-0.4-0.4v-2.1c0-2.2-1.1-3.1-2.7-3.1
		c-1.5,0-2.6,0.8-2.6,3.1V597c0,2.2,1.1,3.1,2.6,3.1c1.5,0,2.7-0.8,2.7-3.1v-2.2c0-0.2,0.2-0.4,0.4-0.4h1.9c0.2,0,0.4,0.2,0.4,0.4
		v2.2c0,3.3-2.1,5.6-5.3,5.6c-3.2,0-5.3-2.3-5.3-5.6v-12.9c0-3.4,1.8-5.6,5.3-5.6C544.9,578.5,546.7,580.7,546.7,584.1z"/>
	<path fill="#FFFFFF" d="M560.1,584.1V597c0,3.3-2.1,5.6-5.3,5.6c-3.2,0-5.3-2.3-5.3-5.6v-12.9c0-3.4,1.8-5.6,5.3-5.6
		C558.3,578.5,560.1,580.7,560.1,584.1z M557.4,584.1c0-2.2-1-3.1-2.6-3.1c-1.5,0-2.6,0.8-2.6,3.1V597c0,2.2,1,3.1,2.6,3.1
		c1.5,0,2.6-0.8,2.6-3.1V584.1z"/>
	<path fill="#FFFFFF" d="M574.3,596.4c0,3.5-1.8,5.8-5.3,5.8h-5c-0.2,0-0.4-0.2-0.4-0.4v-22.5c0-0.2,0.2-0.4,0.4-0.4h5
		c3.8,0,5.4,2.7,5.4,6.3V596.4z M569.1,599.6c1.8,0,2.5-1.2,2.5-2.6v-12.5c0-1.5-0.5-3-2.5-3h-2.8v18.1H569.1z"/>
	<path fill="#FFFFFF" d="M580.5,581.5v7.2h4.6c0.2,0,0.4,0.2,0.4,0.4v1.7c0,0.2-0.2,0.4-0.4,0.4h-4.6v8.4h6.6c0.2,0,0.4,0.2,0.4,0.4
		v1.8c0,0.2-0.2,0.4-0.4,0.4h-9c-0.2,0-0.4-0.2-0.4-0.4v-22.5c0-0.2,0.2-0.4,0.4-0.4h9c0.2,0,0.4,0.2,0.4,0.4v1.8
		c0,0.2-0.2,0.4-0.4,0.4H580.5z"/>
	<path fill="#FFFFFF" d="M606.2,584.1v2.2c0,0.2-0.2,0.4-0.4,0.4h-1.9c-0.2,0-0.4-0.2-0.4-0.4v-2.1c0-2.2-1.1-3.1-2.7-3.1
		c-1.5,0-2.6,0.8-2.6,3.1V597c0,2.2,1.1,3.1,2.6,3.1c1.5,0,2.7-0.8,2.7-3.1v-2.2c0-0.2,0.2-0.4,0.4-0.4h1.9c0.2,0,0.4,0.2,0.4,0.4
		v2.2c0,3.3-2.1,5.6-5.3,5.6c-3.2,0-5.3-2.3-5.3-5.6v-12.9c0-3.4,1.8-5.6,5.3-5.6C604.4,578.5,606.2,580.7,606.2,584.1z"/>
	<path fill="#FFFFFF" d="M619.6,584.1V597c0,3.3-2.1,5.6-5.3,5.6c-3.2,0-5.3-2.3-5.3-5.6v-12.9c0-3.4,1.8-5.6,5.3-5.6
		C617.8,578.5,619.6,580.7,619.6,584.1z M616.9,584.1c0-2.2-1-3.1-2.6-3.1c-1.5,0-2.6,0.8-2.6,3.1V597c0,2.2,1,3.1,2.6,3.1
		c1.5,0,2.6-0.8,2.6-3.1V584.1z"/>
	<path fill="#FFFFFF" d="M638.4,579.3v22.5c0,0.2-0.2,0.4-0.4,0.4h-1.7c-0.2,0-0.4-0.2-0.4-0.4v-16.7l-3.9,16.8
		c0,0.1-0.2,0.3-0.4,0.3h-1.8c-0.1,0-0.3-0.1-0.4-0.3c0,0-3.8-16.2-3.9-16.8v16.7c0,0.2-0.2,0.4-0.4,0.4h0h-1.7
		c-0.2,0-0.4-0.2-0.4-0.4v-22.5c0-0.2,0.2-0.4,0.4-0.4h2.4c0.2,0,0.4,0.1,0.4,0.4l4.4,18.8l4.4-18.8c0-0.2,0.3-0.4,0.4-0.4h2.4
		C638.2,578.9,638.4,579.1,638.4,579.3z"/>
	<path fill="#FFFFFF" d="M657.1,579.3v22.5c0,0.2-0.2,0.4-0.4,0.4h-1.7c-0.2,0-0.4-0.2-0.4-0.4v-16.7l-3.9,16.8
		c0,0.1-0.2,0.3-0.4,0.3h-1.8c-0.1,0-0.3-0.1-0.4-0.3c0,0-3.8-16.2-3.9-16.8v16.7c0,0.2-0.2,0.4-0.4,0.4h0h-1.7
		c-0.2,0-0.4-0.2-0.4-0.4v-22.5c0-0.2,0.2-0.4,0.4-0.4h2.4c0.2,0,0.4,0.1,0.4,0.4l4.4,18.8l4.4-18.8c0-0.2,0.3-0.4,0.4-0.4h2.4
		C657,578.9,657.1,579.1,657.1,579.3z"/>
	<path fill="#FFFFFF" d="M664.8,581.5v18.1h1.8c0.2,0,0.4,0.2,0.4,0.4v1.9c0,0.2-0.2,0.4-0.4,0.4h-6.1c-0.2,0-0.4-0.1-0.4-0.4V600
		c0-0.2,0.2-0.4,0.4-0.4h1.8v-18.1h-1.8c-0.2,0-0.4-0.1-0.4-0.4v-1.9c0-0.2,0.2-0.4,0.4-0.4h6.1c0.2,0,0.4,0.1,0.4,0.4v1.9
		c0,0.2-0.2,0.4-0.4,0.4H664.8z"/>
	<path fill="#FFFFFF" d="M679.3,579.3v1.8c0,0.2-0.2,0.4-0.4,0.4h-3.4v20.3c0,0.2-0.2,0.4-0.4,0.4h-1.9c-0.2,0-0.4-0.2-0.4-0.4
		v-20.3h-3.4c-0.2,0-0.4-0.2-0.4-0.4v-1.8c0-0.2,0.2-0.4,0.4-0.4h9.5C679.1,578.9,679.3,579.1,679.3,579.3z"/>
	<path fill="#FFFFFF" d="M691.9,595.1c0,0.6,0,2.2,0,2.2c0,3.2-2.3,5.3-5.3,5.3c-3.2,0-5.5-2.3-5.5-5.8v-2.1c0-0.2,0.1-0.4,0.4-0.4
		h1.9c0.2,0,0.4,0.2,0.4,0.4v2.6c0,2.1,1.3,2.9,2.9,2.9c1.9,0,2.6-1.3,2.6-2.9v-1.9c0-1.4-0.5-2.1-2.3-3.7l-2.8-2.6
		c-1.5-1.4-2.7-3.5-2.7-5.1c0-3.3,1.9-5.5,5.2-5.5c3.2,0,5.3,2.2,5.3,5.6v1.9c0,0.2-0.1,0.3-0.3,0.3h-2c-0.1,0-0.3-0.1-0.3-0.3v-2.2
		c0-2.2-1.1-3-2.6-3c-1.5,0-2.4,1-2.4,3c0,0.5,0.1,1.7,2.1,3.5c0.6,0.6,3.5,3.3,3.5,3.3C691.8,592.5,691.9,594.2,691.9,595.1z"/>
</g>
<g>
	<path fill="#FFFFFF" d="M738.1,595.4c0,3.9-1.8,6.2-5.4,6.2c-3.3,0-5.3-2.3-5.3-5.7v-2.2c0-0.2,0.1-0.4,0.4-0.4h1.9
		c0.2,0,0.4,0.2,0.4,0.4v2.4c0,1.5,0.8,3.1,2.7,3.1c2.5,0,2.6-2.1,2.6-3.6v-2.4c0-2.2-2.8-2.8-3.5-2.8c-0.4,0-0.4-0.2-0.4-0.4v-1.7
		c0-0.1,0.1-0.3,0.3-0.4c0,0,3.6-1.1,3.6-3.6v-0.9c0-2.2-0.8-3.3-2.7-3.3c-1.9,0-2.6,1.3-2.6,2.9v2c0,0.2-0.2,0.4-0.4,0.4h-2
		c-0.2,0-0.4-0.2-0.4-0.4v-1.9c0-3.4,2.1-5.6,5.4-5.6c3.5,0,5.2,2.4,5.2,5.8c0,0,0,0.2,0,0.6c0,3-2.6,5-3.6,5c0,0,3.6,0.6,3.6,4.9
		V595.4z"/>
	<path fill="#FFFFFF" d="M743.6,598.9v1.8c0,0.4-0.2,0.7-0.3,0.9l-1.2,2.7c-0.1,0.1-0.1,0.2-0.3,0.2h-0.7c-0.1,0-0.2-0.1-0.1-0.2
		l0.7-3.1h-0.6c-0.2,0-0.4-0.1-0.4-0.4v-1.9c0-0.2,0.1-0.4,0.4-0.4h2C743.4,598.6,743.6,598.8,743.6,598.9z"/>
	<path fill="#FFFFFF" d="M756.8,599v1.8c0,0.2-0.2,0.4-0.4,0.4h-9.8c-0.2,0-0.4-0.2-0.4-0.4c0,0,0-2.1,0-2.3c0-1.6,0.8-4.2,2.1-5.8
		c0.8-0.9,3.2-3.9,3.9-4.6c1.5-1.9,1.9-2.6,1.9-4.3c0-1.8-0.4-3.8-2.6-3.8c-1.2,0-2.6,0.5-2.6,3.8v1.3c0,0.2-0.2,0.4-0.4,0.4h-1.9
		c-0.2,0-0.4-0.2-0.4-0.4v-1.5c0-3.7,1.8-6.2,5.4-6.2c3.3,0,5.1,2.4,5.2,6v0.6c0,2.8-1.3,4.2-2.6,5.8c-2.6,3.1-5.2,5.8-5.2,8.1v0.6
		h7.3C756.6,598.6,756.8,598.8,756.8,599z"/>
	<path fill="#FFFFFF" d="M764.2,578.3v22.5c0,0.2-0.2,0.4-0.4,0.4h-1.8c-0.2,0-0.4-0.2-0.4-0.4v-18.8h-2.3c-0.2,0-0.4-0.2-0.4-0.4
		v-1c0-0.2,0.2-0.4,0.4-0.4c2.9-1,2.1-2.4,3.3-2.4c0.3,0,1.2,0,1.2,0C764,577.9,764.2,578.1,764.2,578.3z"/>
	<path fill="#FFFFFF" d="M779.1,594.3v1.5c0,0.2-0.2,0.4-0.4,0.4h-1.8v4.5c0,0.2-0.2,0.4-0.4,0.4h-1.7c-0.2,0-0.4-0.2-0.4-0.4v-4.5
		h-7.2c-0.2,0-0.4-0.2-0.4-0.4c0,0,0-0.7,0-1.3c0-0.6,0-0.8,0.3-1.5c0.3-0.7,5.8-14.9,5.8-14.9c0.1-0.2,0.3-0.4,0.5-0.4h3.1
		c0.2,0,0.4,0.2,0.4,0.4V594h1.8C778.9,594,779.1,594.1,779.1,594.3z M769.3,594h5.2v-13.5L769.3,594z"/>
</g>
<g>
	<g>
		<path fill="#353535" d="M17.7,579.9v17.7c0,3.3-2.1,5.6-5.3,5.6c-3.2,0-5.3-2.3-5.3-5.6v-17.7c0-0.2,0.2-0.4,0.4-0.4h1.9
			c0.2,0,0.4,0.2,0.4,0.4v17.7c0,2.2,1.1,3.1,2.6,3.1c1.5,0,2.6-0.8,2.6-3.1v-17.7c0-0.2,0.2-0.4,0.4-0.4h1.9
			C17.6,579.5,17.7,579.7,17.7,579.9z"/>
		<path fill="#353535" d="M32,586.3c0,4.2-2.6,6.7-6.4,6.7h-1.7v9.5c0,0.2-0.2,0.4-0.4,0.4h-1.8c-0.2,0-0.4-0.2-0.4-0.4v-22.5
			c0-0.2,0.2-0.4,0.4-0.4h3.9C29.4,579.5,32,581.7,32,586.3z M29.3,586.2c0-1.8-0.5-4.1-3.6-4.1H24v8.2h1.8
			C28.8,590.3,29.3,588.4,29.3,586.2z"/>
		<path fill="#353535" d="M45.5,592.1v10.5c0,0.1-0.1,0.3-0.3,0.3h-0.7c-0.1,0-0.3-0.1-0.3-0.2l-0.2-1.1c-1,1.1-2.4,1.7-4.1,1.7
			c-3.2,0-5.5-2.3-5.5-5.6v-12.9c0-3.4,1.8-5.6,5.3-5.6c3.5,0,5.3,2.2,5.3,5.6v2.2c0,0.2-0.2,0.4-0.4,0.4h-1.9
			c-0.2,0-0.4-0.2-0.4-0.4v-2.1c0-2.2-1.1-3.1-2.6-3.1c-1.5,0-2.6,0.8-2.6,3.1v12.8c0,2.2,1.3,3.1,2.8,3.1c1.5,0,2.8-0.8,2.8-3.1
			v-3.4h-1.5c-0.2,0-0.4-0.1-0.4-0.4v-1.8c0-0.2,0.2-0.4,0.4-0.4h3.9C45.4,591.7,45.5,591.9,45.5,592.1z"/>
		<path fill="#353535" d="M60.4,600.8v1.7c0,0.2-0.1,0.3-0.4,0.3c-3.1,0-3.5-2.4-3.5-6.2c0-3-0.7-3.9-3.4-3.9h-1.7v9.8
			c0,0.2-0.2,0.4-0.4,0.4h-1.8c-0.2,0-0.4-0.2-0.4-0.4v-22.5c0-0.2,0.2-0.4,0.4-0.4h3.9c3.9,0,6.4,2.1,6.4,6.7c0,2.8-1,4.6-2.8,5.1
			c2.3,0.5,2.4,2.6,2.4,4.4c0,0.2,0,2.1,0,2.3c0,2.3,0.6,2.3,1,2.4C60.2,600.4,60.4,600.6,60.4,600.8z M51.5,590.1h1.8
			c3,0,3.6-1.8,3.6-4c0-1.8-0.5-4-3.6-4h-1.8V590.1z"/>
		<path fill="#353535" d="M74.4,602.4c0,0.2-0.2,0.4-0.4,0.4h-2c-0.2,0-0.4-0.1-0.4-0.4l-0.7-4.5h-5.3l-0.7,4.5
			c-0.1,0.3-0.2,0.4-0.4,0.4h-2c-0.2,0-0.4-0.2-0.4-0.4l4.2-22.5c0.1-0.2,0.2-0.4,0.4-0.4h3c0.2,0,0.3,0.2,0.4,0.4L74.4,602.4z
			 M70.5,595.4l-2.2-13l-2.2,13H70.5z"/>
		<path fill="#353535" d="M87.7,597c0,3.5-1.8,5.8-5.3,5.8h-5c-0.2,0-0.4-0.2-0.4-0.4v-22.5c0-0.2,0.2-0.4,0.4-0.4h5
			c3.8,0,5.4,2.7,5.4,6.3V597z M82.5,600.2c1.8,0,2.5-1.2,2.5-2.6v-12.5c0-1.5-0.5-3-2.5-3h-2.8v18.1H82.5z"/>
		<path fill="#353535" d="M93.9,582.1v7.2h4.6c0.2,0,0.4,0.2,0.4,0.4v1.7c0,0.2-0.2,0.4-0.4,0.4h-4.6v8.4h6.6c0.2,0,0.4,0.2,0.4,0.4
			v1.8c0,0.2-0.2,0.4-0.4,0.4h-9c-0.2,0-0.4-0.2-0.4-0.4v-22.5c0-0.2,0.2-0.4,0.4-0.4h9c0.2,0,0.4,0.2,0.4,0.4v1.8
			c0,0.2-0.2,0.4-0.4,0.4H93.9z"/>
		<path fill="#353535" d="M114.5,597c0,3.5-1.8,5.8-5.3,5.8h-5c-0.2,0-0.4-0.2-0.4-0.4v-22.5c0-0.2,0.2-0.4,0.4-0.4h5
			c3.8,0,5.4,2.7,5.4,6.3V597z M109.2,600.2c1.8,0,2.5-1.2,2.5-2.6v-12.5c0-1.5-0.5-3-2.5-3h-2.8v18.1H109.2z"/>
		<path fill="#353535" d="M133.8,584.7v12.9c0,3.3-2.1,5.6-5.3,5.6c-3.2,0-5.3-2.3-5.3-5.6v-12.9c0-3.4,1.8-5.6,5.3-5.6
			C132,579.1,133.8,581.3,133.8,584.7z M131.1,584.8c0-2.2-1-3.1-2.6-3.1c-1.5,0-2.6,0.8-2.6,3.1v12.8c0,2.2,1,3.1,2.6,3.1
			c1.5,0,2.6-0.8,2.6-3.1V584.8z"/>
		<path fill="#353535" d="M148.8,579.9v22.5c0,0.2-0.2,0.4-0.4,0.4h-1.8c-0.2,0-0.5-0.3-0.6-0.4l-6.3-16.3v16.3
			c0,0.2-0.1,0.4-0.4,0.4h-1.8c-0.2,0-0.4-0.2-0.4-0.4v-22.5c0-0.2,0.2-0.4,0.4-0.4h1.8c0.2,0,0.4,0.1,0.4,0.4l6.4,17.3v-17.2
			c0-0.2,0.1-0.4,0.4-0.4h1.8C148.6,579.5,148.8,579.7,148.8,579.9z"/>
		<path fill="#353535" d="M160.7,590.6c1.9,0.5,2.8,2.6,2.8,5.5c0,3.7-1.2,6.7-5.8,6.7h-5c-0.2,0-0.4-0.2-0.4-0.4v-22.5
			c0-0.2,0.2-0.4,0.4-0.4h4c3.8,0,6.2,2.6,6.2,6.4C162.9,588,162.4,589.8,160.7,590.6z M160.3,585.8c0-1.3-0.8-3.6-3.3-3.6h-2v7.5h2
			C159.3,589.6,160.3,588,160.3,585.8z M160.8,596.3c0-3-1.2-4-3.3-4H155v7.9h2.4C159.7,600.2,160.8,599.1,160.8,596.3z"/>
		<path fill="#353535" d="M176.9,584.7v12.9c0,3.3-2.1,5.6-5.3,5.6c-3.2,0-5.3-2.3-5.3-5.6v-12.9c0-3.4,1.8-5.6,5.3-5.6
			C175.1,579.1,176.9,581.3,176.9,584.7z M174.2,584.8c0-2.2-1-3.1-2.6-3.1c-1.5,0-2.6,0.8-2.6,3.1v12.8c0,2.2,1,3.1,2.6,3.1
			c1.5,0,2.6-0.8,2.6-3.1V584.8z"/>
		<path fill="#353535" d="M191.4,602.4c0,0.2-0.2,0.4-0.4,0.4h-2c-0.2,0-0.4-0.1-0.4-0.4L188,598h-5.3l-0.7,4.5
			c-0.1,0.3-0.2,0.4-0.4,0.4h-2c-0.2,0-0.4-0.2-0.4-0.4l4.2-22.5c0.1-0.2,0.2-0.4,0.4-0.4h3c0.2,0,0.3,0.2,0.4,0.4L191.4,602.4z
			 M187.5,595.4l-2.2-13l-2.2,13H187.5z"/>
		<path fill="#353535" d="M205.7,600.8v1.7c0,0.2-0.1,0.3-0.4,0.3c-3.1,0-3.5-2.4-3.5-6.2c0-3-0.7-3.9-3.4-3.9h-1.7v9.8
			c0,0.2-0.2,0.4-0.4,0.4h-1.8c-0.2,0-0.4-0.2-0.4-0.4v-22.5c0-0.2,0.2-0.4,0.4-0.4h3.9c3.9,0,6.4,2.1,6.4,6.7c0,2.8-1,4.6-2.8,5.1
			c2.3,0.5,2.4,2.6,2.4,4.4c0,0.2,0,2.1,0,2.3c0,2.3,0.6,2.3,1,2.4C205.5,600.4,205.7,600.6,205.7,600.8z M196.8,590.1h1.8
			c3,0,3.6-1.8,3.6-4c0-1.8-0.5-4-3.6-4h-1.8V590.1z"/>
		<path fill="#353535" d="M219,597c0,3.5-1.8,5.8-5.3,5.8h-5c-0.2,0-0.4-0.2-0.4-0.4v-22.5c0-0.2,0.2-0.4,0.4-0.4h5
			c3.8,0,5.4,2.7,5.4,6.3V597z M213.8,600.2c1.8,0,2.5-1.2,2.5-2.6v-12.5c0-1.5-0.5-3-2.5-3H211v18.1H213.8z"/>
		<path fill="#353535" d="M226.5,582.1v18.1h1.8c0.2,0,0.4,0.2,0.4,0.4v1.9c0,0.2-0.2,0.4-0.4,0.4h-6.1c-0.2,0-0.4-0.1-0.4-0.4v-1.9
			c0-0.2,0.2-0.4,0.4-0.4h1.8v-18.1h-1.8c-0.2,0-0.4-0.1-0.4-0.4v-1.9c0-0.2,0.2-0.4,0.4-0.4h6.1c0.2,0,0.4,0.1,0.4,0.4v1.9
			c0,0.2-0.2,0.4-0.4,0.4H226.5z"/>
		<path fill="#353535" d="M243.2,579.9v22.5c0,0.2-0.2,0.4-0.4,0.4H241c-0.2,0-0.5-0.3-0.6-0.4l-6.3-16.3v16.3
			c0,0.2-0.1,0.4-0.4,0.4H232c-0.2,0-0.4-0.2-0.4-0.4v-22.5c0-0.2,0.2-0.4,0.4-0.4h1.8c0.2,0,0.4,0.1,0.4,0.4l6.4,17.3v-17.2
			c0-0.2,0.1-0.4,0.4-0.4h1.8C243,579.5,243.2,579.7,243.2,579.9z"/>
		<path fill="#353535" d="M257.6,592.1v10.5c0,0.1-0.1,0.3-0.3,0.3h-0.7c-0.1,0-0.3-0.1-0.3-0.2l-0.2-1.1c-1,1.1-2.4,1.7-4.1,1.7
			c-3.2,0-5.5-2.3-5.5-5.6v-12.9c0-3.4,1.8-5.6,5.3-5.6c3.5,0,5.3,2.2,5.3,5.6v2.2c0,0.2-0.2,0.4-0.4,0.4h-1.9
			c-0.2,0-0.4-0.2-0.4-0.4v-2.1c0-2.2-1.1-3.1-2.6-3.1c-1.5,0-2.6,0.8-2.6,3.1v12.8c0,2.2,1.3,3.1,2.8,3.1c1.5,0,2.8-0.8,2.8-3.1
			v-3.4h-1.5c-0.2,0-0.4-0.1-0.4-0.4v-1.8c0-0.2,0.2-0.4,0.4-0.4h3.9C257.5,591.7,257.6,591.9,257.6,592.1z"/>
	</g>
</g>
<g>
	<g>
		<path fill="none" stroke="#000000" stroke-linecap="round" stroke-linejoin="round" d="M550.3,486.5c4.9,0,8.4-4.9,8.4-10.7v-23.3
			c0-15.1-1.8-25.8,12.3-32.4"/>
	</g>
	<g>
		<path fill="none" stroke="#000000" stroke-linecap="round" stroke-linejoin="round" d="M571,420.3c-14-6.6-12.3-17.4-12.3-32.4
			v-20c0-5.9-3.6-10.7-8.4-10.7"/>
	</g>
</g>
</svg>
