<?xml version="1.0" encoding="utf-8"?>
<!-- Generator: Adobe Illustrator 17.1.0, SVG Export Plug-In . SVG Version: 6.00 Build 0)  -->
<!DOCTYPE svg PUBLIC "-//W3C//DTD SVG 1.1//EN" "http://www.w3.org/Graphics/SVG/1.1/DTD/svg11.dtd">
<svg version="1.1" id="Layer_1" xmlns="http://www.w3.org/2000/svg" xmlns:xlink="http://www.w3.org/1999/xlink" x="0px" y="0px"
	 viewBox="0 0 832.1 673.5" enable-background="new 0 0 832.1 673.5" xml:space="preserve">
<g>
	<path fill="#353535" d="M551.7,394.1h3.8c2.6,0,4.1,1.2,4.1,3.8c0,2.1-1.2,3.2-2.5,3.6l2.7,5.9h-1.5l-2.6-5.7h-2.4v5.7h-1.5V394.1z
		 M555.4,400.5c1.8,0,2.7-0.7,2.7-2.6c0-1.8-0.9-2.4-2.7-2.4h-2.2v5H555.4z"/>
	<path fill="#353535" d="M561.3,402.7c0-3.4,1.8-5,3.7-5c2.1,0,3.4,1.7,3.4,4.9v0.4h-5.6c0.1,2.2,0.9,3.4,2.3,3.4
		c1.1,0,1.7-0.6,2.2-1.7l1,0.6c-0.7,1.4-1.8,2.3-3.3,2.3C562.8,407.6,561.3,406,561.3,402.7z M566.9,401.9c-0.1-1.7-0.7-2.9-2-2.9
		c-1.1,0-2,0.9-2.2,2.9H566.9z"/>
	<path fill="#353535" d="M570.2,397.9h1.5v1.2c0.6-0.7,1.4-1.4,2.6-1.4c1.9,0,3.2,1.5,3.2,4.9c0,3.4-1.4,4.9-3.3,4.9
		c-1.1,0-1.9-0.5-2.5-1.3v4.8h-1.5V397.9z M576,402.7c0-2.5-0.9-3.7-2.1-3.7c-0.9,0-1.7,0.6-2.2,1.3v4.8c0.7,0.8,1.4,1.3,2.3,1.3
		C575.1,406.4,576,405.3,576,402.7z"/>
	<path fill="#353535" d="M579.3,397.9h1.5v1.6h0c0.5-1,1.5-1.8,3-1.8h0.2l-0.1,1.4c0,0-0.3,0-0.3,0c-1.2,0-2.3,0.8-2.8,1.9v6.4h-1.5
		V397.9z"/>
	<path fill="#353535" d="M585.1,402.7c0-3.4,1.8-5,3.7-5c2.1,0,3.4,1.7,3.4,4.9v0.4h-5.6c0.1,2.2,0.9,3.4,2.3,3.4
		c1.1,0,1.7-0.6,2.2-1.7l1,0.6c-0.7,1.4-1.8,2.3-3.3,2.3C586.7,407.6,585.1,406,585.1,402.7z M590.7,401.9c-0.1-1.7-0.7-2.9-2-2.9
		c-1.1,0-2,0.9-2.2,2.9H590.7z"/>
	<path fill="#353535" d="M593.2,405.7l1-0.7c0.6,1,1.6,1.5,2.6,1.5c1.2,0,1.9-0.5,1.9-1.4c0-2.3-5-1.4-5-4.8c0-1.5,1.2-2.6,3-2.6
		c1.4,0,2.4,0.7,3.1,1.7l-1,0.8c-0.5-0.7-1.2-1.3-2.2-1.3c-1.1,0-1.6,0.5-1.6,1.3c0,2.4,4.9,1.3,4.9,4.8c0,1.7-1.5,2.7-3.3,2.7
		C595.1,407.6,593.9,406.9,593.2,405.7z"/>
	<path fill="#353535" d="M601.4,402.7c0-3.4,1.8-5,3.7-5c2.1,0,3.4,1.7,3.4,4.9v0.4h-5.6c0.1,2.2,0.9,3.4,2.3,3.4
		c1.1,0,1.7-0.6,2.2-1.7l1,0.6c-0.7,1.4-1.8,2.3-3.3,2.3C602.9,407.6,601.4,406,601.4,402.7z M607,401.9c-0.1-1.7-0.7-2.9-2-2.9
		c-1.1,0-2,0.9-2.2,2.9H607z"/>
	<path fill="#353535" d="M610.3,397.9h1.5v1.3c0.6-0.7,1.8-1.5,3-1.5c1.5,0,2.3,0.9,2.3,2.6v7.1h-1.4v-6.8c0-1.1-0.4-1.7-1.3-1.7
		c-0.9,0-1.9,0.7-2.6,1.4v7.1h-1.5V397.9z"/>
	<path fill="#353535" d="M619.9,405.3v-6.2h-1.4v-1.2h1.4v-3.4h1.4v3.4h2.1v1.2h-2.1v5.8c0,1,0.3,1.4,1.3,1.4c0.3,0,0.6-0.1,0.8-0.1
		v1.2c-0.2,0.1-0.7,0.1-1.1,0.1C620.5,407.6,619.9,406.9,619.9,405.3z"/>
	<path fill="#353535" d="M625.2,394.5h1.5v1.6h-1.5V394.5z M625.2,397.9h1.5v9.5h-1.5V397.9z"/>
	<path fill="#353535" d="M629.1,397.9h1.5v1.3c0.6-0.7,1.8-1.5,3-1.5c1.5,0,2.3,0.9,2.3,2.6v7.1h-1.4v-6.8c0-1.1-0.4-1.7-1.3-1.7
		c-0.9,0-1.9,0.7-2.6,1.4v7.1h-1.5V397.9z"/>
	<path fill="#353535" d="M645.4,397.8v1.4c-0.4,0-0.9,0.1-1.4,0.3c0.3,0.5,0.4,1.1,0.4,1.7c0,2.1-1.4,3.4-3.3,3.4
		c-0.5,0-0.9-0.1-1.3-0.2c-0.3,0.2-0.5,0.4-0.5,0.7c0,0.4,0.2,0.5,1.1,0.6l1.5,0.2c2.3,0.3,3.3,1,3.3,2.4c0,1.7-1.8,2.7-4.1,2.7
		c-2.7,0-3.7-0.9-3.7-2.3c0-1,0.6-1.7,1.5-2.1c-0.5-0.3-0.8-0.6-0.8-1.2c0-0.6,0.4-1.1,1-1.5c-0.8-0.6-1.3-1.6-1.3-2.8
		c0-2.1,1.4-3.4,3.3-3.4c1,0,1.8,0.3,2.4,1C644,398.3,644.8,397.9,645.4,397.8z M638.6,408.5c0,1,0.6,1.5,2.6,1.5
		c1.5,0,2.6-0.5,2.6-1.5c0-0.8-0.5-1.2-2.1-1.4l-1.5-0.2c-0.1,0-0.2,0-0.3,0C639,407.3,638.6,407.9,638.6,408.5z M643.1,401.2
		c0-1.4-0.7-2.3-1.9-2.3c-1.2,0-1.9,0.9-1.9,2.3c0,1.4,0.7,2.3,1.9,2.3C642.3,403.5,643.1,402.6,643.1,401.2z"/>
	<path fill="#353535" d="M650.3,406.1h2.1v-10.4c-0.6,0.3-1.4,0.6-2.1,0.6V395c0.9,0,1.7-0.3,2.2-0.9h1.4v12h1.9v1.3h-5.5V406.1z"/>
	<path fill="#353535" d="M658.3,407.4h-0.7v-1.9h1.7v1.7l-0.8,2h-0.7L658.3,407.4z"/>
	<path fill="#353535" d="M661.4,400.8c0-4.5,1.5-6.9,4.3-6.9c2.8,0,4.3,2.4,4.3,6.9s-1.5,6.9-4.3,6.9
		C662.9,407.7,661.4,405.3,661.4,400.8z M668.4,400.8c0-3.9-1-5.6-2.8-5.6c-1.8,0-2.8,1.7-2.8,5.6s1,5.6,2.8,5.6
		C667.4,406.4,668.4,404.7,668.4,400.8z"/>
	<path fill="#353535" d="M671.5,400.8c0-4.5,1.5-6.9,4.3-6.9c2.8,0,4.3,2.4,4.3,6.9s-1.5,6.9-4.3,6.9
		C673,407.7,671.5,405.3,671.5,400.8z M678.6,400.8c0-3.9-1-5.6-2.8-5.6c-1.8,0-2.8,1.7-2.8,5.6s1,5.6,2.8,5.6
		C677.6,406.4,678.6,404.7,678.6,400.8z"/>
	<path fill="#353535" d="M681.6,400.8c0-4.5,1.5-6.9,4.3-6.9c2.8,0,4.3,2.4,4.3,6.9s-1.5,6.9-4.3,6.9
		C683.1,407.7,681.6,405.3,681.6,400.8z M688.7,400.8c0-3.9-1-5.6-2.8-5.6c-1.8,0-2.8,1.7-2.8,5.6s1,5.6,2.8,5.6
		C687.7,406.4,688.7,404.7,688.7,400.8z"/>
	<path fill="#353535" d="M695.3,402.7c0-3.4,1.7-5,3.7-5c1.9,0,2.7,1.3,3.2,2.8l-1.3,0.4c-0.3-1.2-0.8-1.9-1.9-1.9
		c-1.2,0-2.2,1.1-2.2,3.7c0,2.3,0.8,3.7,2.2,3.7c1,0,1.6-0.6,2-2l1.3,0.3c-0.5,1.8-1.6,2.8-3.3,2.8
		C696.9,407.6,695.3,406,695.3,402.7z"/>
	<path fill="#353535" d="M704,394.5h1.5v1.6H704V394.5z M704,397.9h1.5v9.5H704V397.9z"/>
	<path fill="#353535" d="M708.5,405.3v-6.2h-1.4v-1.2h1.4v-3.4h1.4v3.4h2.1v1.2h-2.1v5.8c0,1,0.3,1.4,1.3,1.4c0.3,0,0.6-0.1,0.8-0.1
		v1.2c-0.2,0.1-0.7,0.1-1.1,0.1C709.1,407.6,708.5,406.9,708.5,405.3z"/>
	<path fill="#353535" d="M713.8,394.5h1.5v1.6h-1.5V394.5z M713.8,397.9h1.5v9.5h-1.5V397.9z"/>
	<path fill="#353535" d="M717.2,402.7c0-3.4,1.8-5,3.7-5c2.1,0,3.4,1.7,3.4,4.9v0.4h-5.6c0.1,2.2,0.9,3.4,2.3,3.4
		c1.1,0,1.7-0.6,2.2-1.7l1,0.6c-0.7,1.4-1.8,2.3-3.3,2.3C718.8,407.6,717.2,406,717.2,402.7z M722.9,401.9c-0.1-1.7-0.7-2.9-2-2.9
		c-1.1,0-2,0.9-2.2,2.9H722.9z"/>
	<path fill="#353535" d="M725.4,405.7l1-0.7c0.6,1,1.6,1.5,2.6,1.5c1.2,0,1.9-0.5,1.9-1.4c0-2.3-5-1.4-5-4.8c0-1.5,1.2-2.6,3-2.6
		c1.4,0,2.4,0.7,3.1,1.7l-1,0.8c-0.5-0.7-1.2-1.3-2.2-1.3c-1.1,0-1.6,0.5-1.6,1.3c0,2.4,4.9,1.3,4.9,4.8c0,1.7-1.5,2.7-3.3,2.7
		C727.3,407.6,726.1,406.9,725.4,405.7z"/>
	<path fill="#353535" d="M550.9,435.2c0-1.9,1.6-3.3,5.3-4v-0.6c0-1.1-0.5-1.6-1.4-1.6c-1.2,0-2.1,0.6-2.8,1.3l-0.8-0.9
		c1-1,2.3-1.7,3.8-1.7c1.9,0,2.7,1,2.7,2.9v4.5c0,1.2,0.1,1.9,0.2,2.3h-1.5c-0.1-0.4-0.2-0.7-0.2-1.2c-0.8,0.8-1.8,1.4-3,1.4
		C551.8,437.6,550.9,436.7,550.9,435.2z M556.3,435.1v-2.9c-2.9,0.6-3.9,1.6-3.9,2.8c0,1,0.5,1.4,1.3,1.4
		C554.7,436.4,555.6,435.9,556.3,435.1z"/>
	<path fill="#353535" d="M559.9,427.9h1.5v1.3c0.6-0.7,1.8-1.5,3-1.5c1.5,0,2.3,0.9,2.3,2.6v7.1h-1.4v-6.8c0-1.1-0.4-1.7-1.3-1.7
		c-0.9,0-1.9,0.7-2.6,1.4v7.1h-1.5V427.9z"/>
	<path fill="#353535" d="M568.5,432.7c0-3.4,1.4-5,3.3-5c1.1,0,1.9,0.5,2.6,1.3v-5h1.4v11c0,1.2,0.1,1.9,0.2,2.3h-1.5
		c-0.1-0.3-0.2-0.9-0.2-1.2c-0.6,0.7-1.4,1.4-2.6,1.4C569.9,437.6,568.5,436.1,568.5,432.7z M574.4,435.1v-4.8
		c-0.7-0.8-1.4-1.3-2.3-1.3c-1.3,0-2.1,1.1-2.1,3.7c0,2.5,0.9,3.7,2.2,3.7C573,436.4,573.8,435.8,574.4,435.1z"/>
	<path fill="#353535" d="M581.2,437.2c0-5.8,6-5.7,6-9.7c0-1.4-0.7-2.3-2.1-2.3c-1.2,0-2,0.8-2.6,2.2l-1.2-0.5c0.8-1.9,2-3,3.9-3
		c2.2,0,3.4,1.4,3.4,3.5c0,4.4-5.9,5.1-5.9,8.7h5.9v1.3h-7.5V437.2z"/>
	<path fill="#353535" d="M591.6,437.4h-0.7v-1.9h1.7v1.7l-0.8,2h-0.7L591.6,437.4z"/>
	<path fill="#353535" d="M594.7,430.8c0-4.5,1.5-6.9,4.3-6.9c2.8,0,4.3,2.4,4.3,6.9s-1.5,6.9-4.3,6.9
		C596.2,437.7,594.7,435.3,594.7,430.8z M601.7,430.8c0-3.9-1-5.6-2.8-5.6c-1.8,0-2.8,1.7-2.8,5.6s1,5.6,2.8,5.6
		C600.7,436.4,601.7,434.7,601.7,430.8z"/>
	<path fill="#353535" d="M604.8,430.8c0-4.5,1.5-6.9,4.3-6.9c2.8,0,4.3,2.4,4.3,6.9s-1.5,6.9-4.3,6.9
		C606.3,437.7,604.8,435.3,604.8,430.8z M611.9,430.8c0-3.9-1-5.6-2.8-5.6c-1.8,0-2.8,1.7-2.8,5.6s1,5.6,2.8,5.6
		C610.9,436.4,611.9,434.7,611.9,430.8z"/>
	<path fill="#353535" d="M614.9,430.8c0-4.5,1.5-6.9,4.3-6.9c2.8,0,4.3,2.4,4.3,6.9s-1.5,6.9-4.3,6.9
		C616.4,437.7,614.9,435.3,614.9,430.8z M622,430.8c0-3.9-1-5.6-2.8-5.6c-1.8,0-2.8,1.7-2.8,5.6s1,5.6,2.8,5.6
		C621,436.4,622,434.7,622,430.8z"/>
	<path fill="#353535" d="M628.6,432.7c0-3.4,1.7-5,3.7-5c1.9,0,2.7,1.3,3.2,2.8l-1.3,0.4c-0.3-1.2-0.8-1.9-1.9-1.9
		c-1.2,0-2.2,1.1-2.2,3.7c0,2.3,0.8,3.7,2.2,3.7c1,0,1.6-0.6,2-2l1.3,0.3c-0.5,1.8-1.6,2.8-3.3,2.8
		C630.2,437.6,628.6,436,628.6,432.7z"/>
	<path fill="#353535" d="M636.8,432.7c0-3.3,1.6-5,3.8-5c2.1,0,3.7,1.7,3.7,5c0,3.3-1.6,5-3.7,5C638.4,437.6,636.8,436,636.8,432.7z
		 M642.8,432.7c0-2.1-0.7-3.7-2.3-3.7c-1.5,0-2.3,1.5-2.3,3.7c0,2.1,0.7,3.7,2.3,3.7C642,436.4,642.8,434.9,642.8,432.7z"/>
	<path fill="#353535" d="M646.2,424.1h1.5v13.3h-1.5V424.1z"/>
	<path fill="#353535" d="M650.2,424.1h1.5v13.3h-1.5V424.1z"/>
	<path fill="#353535" d="M653.6,432.7c0-3.4,1.8-5,3.7-5c2.1,0,3.4,1.7,3.4,4.9v0.4H655c0.1,2.2,0.9,3.4,2.3,3.4
		c1.1,0,1.7-0.6,2.2-1.7l1,0.6c-0.7,1.4-1.8,2.3-3.3,2.3C655.2,437.6,653.6,436,653.6,432.7z M659.3,431.9c-0.1-1.7-0.7-2.9-2-2.9
		c-1.1,0-2,0.9-2.2,2.9H659.3z"/>
	<path fill="#353535" d="M669.8,427.8v1.4c-0.4,0-0.9,0.1-1.4,0.3c0.3,0.5,0.4,1.1,0.4,1.7c0,2.1-1.4,3.4-3.3,3.4
		c-0.5,0-0.9-0.1-1.3-0.2c-0.3,0.2-0.5,0.4-0.5,0.7c0,0.4,0.2,0.5,1.1,0.6l1.5,0.2c2.3,0.3,3.3,1,3.3,2.4c0,1.7-1.8,2.7-4.1,2.7
		c-2.7,0-3.7-0.9-3.7-2.3c0-1,0.6-1.7,1.5-2.1c-0.5-0.3-0.8-0.6-0.8-1.2c0-0.6,0.4-1.1,1-1.5c-0.8-0.6-1.3-1.6-1.3-2.8
		c0-2.1,1.4-3.4,3.3-3.4c1,0,1.8,0.3,2.4,1C668.4,428.3,669.2,427.9,669.8,427.8z M663,438.5c0,1,0.6,1.5,2.6,1.5
		c1.5,0,2.6-0.5,2.6-1.5c0-0.8-0.5-1.2-2.1-1.4l-1.5-0.2c-0.1,0-0.2,0-0.3,0C663.4,437.3,663,437.9,663,438.5z M667.4,431.2
		c0-1.4-0.7-2.3-1.9-2.3c-1.2,0-1.9,0.9-1.9,2.3c0,1.4,0.7,2.3,1.9,2.3C666.7,433.5,667.4,432.6,667.4,431.2z"/>
	<path fill="#353535" d="M670.9,432.7c0-3.4,1.8-5,3.7-5c2.1,0,3.4,1.7,3.4,4.9v0.4h-5.6c0.1,2.2,0.9,3.4,2.3,3.4
		c1.1,0,1.7-0.6,2.2-1.7l1,0.6c-0.7,1.4-1.8,2.3-3.3,2.3C672.5,437.6,670.9,436,670.9,432.7z M676.6,431.9c-0.1-1.7-0.7-2.9-2-2.9
		c-1.1,0-2,0.9-2.2,2.9H676.6z"/>
	<path fill="#353535" d="M679.1,435.7l1-0.7c0.6,1,1.6,1.5,2.6,1.5c1.2,0,1.9-0.5,1.9-1.4c0-2.3-5-1.4-5-4.8c0-1.5,1.2-2.6,3-2.6
		c1.4,0,2.4,0.7,3.1,1.7l-1,0.8c-0.5-0.7-1.2-1.3-2.2-1.3c-1.1,0-1.6,0.5-1.6,1.3c0,2.4,4.9,1.3,4.9,4.8c0,1.7-1.5,2.7-3.3,2.7
		C681,437.6,679.8,436.9,679.1,435.7z"/>
</g>
<circle fill="#353535" cx="429.4" cy="417.5" r="65.1"/>
<g>
	<path fill="#BCBCBC" d="M397.7,397.8v17.7c0,3.3-2.1,5.6-5.3,5.6c-3.2,0-5.3-2.3-5.3-5.6v-17.7c0-0.2,0.2-0.4,0.4-0.4h1.9
		c0.2,0,0.4,0.2,0.4,0.4v17.7c0,2.2,1.1,3.1,2.6,3.1c1.5,0,2.6-0.8,2.6-3.1v-17.7c0-0.2,0.2-0.4,0.4-0.4h1.9
		C397.5,397.4,397.7,397.5,397.7,397.8z"/>
	<path fill="#BCBCBC" d="M411.9,404.2c0,4.2-2.6,6.7-6.4,6.7h-1.7v9.5c0,0.2-0.2,0.4-0.4,0.4h-1.8c-0.2,0-0.4-0.2-0.4-0.4v-22.5
		c0-0.2,0.2-0.4,0.4-0.4h3.9C409.4,397.4,411.9,399.6,411.9,404.2z M409.3,404.1c0-1.8-0.5-4.1-3.6-4.1H404v8.2h1.8
		C408.7,408.2,409.3,406.2,409.3,404.1z"/>
	<path fill="#BCBCBC" d="M424.2,397.8v22.5c0,0.2-0.2,0.4-0.4,0.4H422c-0.2,0-0.4-0.2-0.4-0.4v-18.8h-2.3c-0.2,0-0.4-0.2-0.4-0.4v-1
		c0-0.2,0.2-0.4,0.4-0.4c2.9-1,2.1-2.4,3.3-2.4c0.3,0,1.2,0,1.2,0C424,397.4,424.2,397.5,424.2,397.8z"/>
	<path fill="#BCBCBC" d="M438,402.6v12.9c0,3.3-2.1,5.6-5.2,5.6c-3,0-5.2-2.3-5.2-5.6v-12.9c0-3.4,1.9-5.6,5.2-5.6
		C436.1,397,438,399.2,438,402.6z M435.3,402.7c0-2.2-1-3.1-2.5-3.1c-1.4,0-2.4,0.9-2.4,3.1v12.7c0,2.2,1,3.1,2.4,3.1
		c1.5,0,2.5-0.9,2.5-3.1V402.7z"/>
	<path fill="#BCBCBC" d="M451.8,402.6v12.9c0,3.3-2.1,5.6-5.2,5.6c-3,0-5.2-2.3-5.2-5.6v-12.9c0-3.4,1.9-5.6,5.2-5.6
		C449.9,397,451.8,399.2,451.8,402.6z M449,402.7c0-2.2-1-3.1-2.5-3.1c-1.4,0-2.4,0.9-2.4,3.1v12.7c0,2.2,1,3.1,2.4,3.1
		c1.5,0,2.5-0.9,2.5-3.1V402.7z"/>
	<path fill="#BCBCBC" d="M454.4,406.8v-5.9c0-2.3,1.6-3.7,3.7-3.7c2.1,0,3.7,1.4,3.7,3.7v5.9c0,2.4-1.9,3.7-3.7,3.7
		C456.2,410.5,454.4,409.1,454.4,406.8z M458,408.4c0.9,0,1.5-0.6,1.5-1.8V401c0-1.2-0.5-1.7-1.5-1.7c-0.9,0-1.5,0.5-1.5,1.7v5.7
		C456.5,407.8,457.1,408.4,458,408.4z M470.2,397.7l-10.8,22.7c-0.1,0.2-0.3,0.3-0.5,0.3h-1.7c-0.2,0-0.3-0.1-0.2-0.3l10.8-22.7
		c0.1-0.2,0.3-0.3,0.5-0.3h1.7C470.2,397.4,470.3,397.5,470.2,397.7z M465.5,417.2v-5.9c0-2.3,1.6-3.7,3.7-3.7
		c2.1,0,3.7,1.4,3.7,3.7v5.9c0,2.4-1.9,3.7-3.7,3.7C467.3,420.9,465.5,419.5,465.5,417.2z M469.2,418.8c0.9,0,1.5-0.6,1.5-1.8v-5.7
		c0-1.2-0.5-1.7-1.5-1.7c-0.9,0-1.5,0.5-1.5,1.7v5.7C467.7,418.2,468.2,418.8,469.2,418.8z"/>
	<path fill="#BCBCBC" d="M394.7,436.4h-1.4v-1.2h1.4v-1.4c0-1.6,0.8-2.4,2.6-2.4c0.2,0,0.7,0,0.7,0v1.2c0,0-0.5,0-0.5,0
		c-0.8,0-1.3,0.3-1.3,1.2v1.4h1.8v1.2h-1.8v8.3h-1.4V436.4z"/>
	<path fill="#BCBCBC" d="M399.4,435.2h1.5v1.6h0c0.5-1,1.5-1.8,3-1.8h0.2l-0.1,1.4c0,0-0.3,0-0.3,0c-1.2,0-2.3,0.8-2.8,1.9v6.4h-1.5
		V435.2z"/>
	<path fill="#BCBCBC" d="M405.2,439.9c0-3.3,1.6-5,3.8-5c2.1,0,3.7,1.7,3.7,5c0,3.3-1.6,5-3.7,5S405.2,443.2,405.2,439.9z
		 M411.2,439.9c0-2.1-0.7-3.7-2.3-3.7c-1.5,0-2.3,1.5-2.3,3.7c0,2.1,0.7,3.7,2.3,3.7C410.4,443.7,411.2,442.2,411.2,439.9z"/>
	<path fill="#BCBCBC" d="M414.5,435.2h1.5v1.3c0.7-0.7,1.7-1.5,2.9-1.5c1.3,0,1.9,0.5,2.2,1.5c0.7-0.8,1.7-1.5,3-1.5
		c1.5,0,2.3,0.9,2.3,2.6v7.1h-1.4v-6.8c0-1.1-0.4-1.7-1.3-1.7c-0.9,0-1.7,0.6-2.4,1.3v7.1h-1.5v-6.8c0-1.1-0.3-1.7-1.3-1.7
		c-0.8,0-1.6,0.6-2.4,1.4v7.1h-1.5V435.2z"/>
	<path fill="#BCBCBC" d="M431.6,444.4c0-5.8,6-5.7,6-9.7c0-1.4-0.7-2.3-2.1-2.3c-1.2,0-2,0.8-2.6,2.2l-1.2-0.5c0.8-1.9,2-3,3.9-3
		c2.2,0,3.4,1.4,3.4,3.5c0,4.4-5.9,5.1-5.9,8.7h5.9v1.3h-7.5V444.4z"/>
	<path fill="#BCBCBC" d="M440.8,438c0-4.5,1.5-6.9,4.3-6.9s4.3,2.4,4.3,6.9s-1.5,6.9-4.3,6.9S440.8,442.5,440.8,438z M447.9,438
		c0-3.9-1-5.6-2.8-5.6c-1.8,0-2.8,1.7-2.8,5.6s1,5.6,2.8,5.6C446.9,443.6,447.9,441.9,447.9,438z"/>
	<path fill="#BCBCBC" d="M451,443.4h2.1v-10.4c-0.6,0.3-1.4,0.6-2.1,0.6v-1.3c0.9,0,1.7-0.3,2.2-0.9h1.4v12h1.9v1.3H451V443.4z"/>
	<path fill="#BCBCBC" d="M457.3,442l1.3-0.5c0.6,1.6,1.5,2.2,2.8,2.2c1.6,0,2.6-1,2.6-2.6c0-1.9-1-2.8-3.4-2.8H460V437h0.8
		c2,0,2.8-0.9,2.8-2.5c0-1.2-0.6-2.1-2.1-2.1c-1.1,0-2,0.6-2.6,1.5l-1.1-0.7c0.9-1.3,2.2-2.1,3.8-2.1c2.4,0,3.4,1.5,3.4,3.3
		c0,1.7-1,2.8-2.2,3.2c1.5,0.5,2.5,1.5,2.5,3.5c0,2.2-1.6,3.8-4,3.8C459.2,444.9,458,443.8,457.3,442z"/>
</g>
<g>
	<path fill="#FFFFFF" d="M603.6,87c-0.6,1.6-17.3,52.9-17.3,52.9c-0.2,0.6-0.6,1-1.2,1h-5.8c-0.6,0-0.8-0.5-0.8-1.1L596.4,86
		c0.7-2,0.5-1.9,0.5-2.7h-21c-0.6,0-1.1-0.5-1.1-1.1v-5c0-0.6,0.5-1.1,1.1-1.1h27.4c0.6,0,1.1,0.5,1.1,1.1c0,0,0,5.5,0,4.1
		C604.4,81.3,604.7,84.5,603.6,87z"/>
	<path fill="#FFFFFF" d="M618.3,134.6v4.9c0,1-0.5,1.9-0.8,2.6l-3.2,7.4c-0.2,0.3-0.3,0.6-0.7,0.6h-1.9c-0.4,0-0.5-0.3-0.4-0.6
		l2-8.6h-1.6c-0.6,0-1-0.4-1-1v-5.3c0-0.5,0.4-1,1-1h5.6C617.8,133.6,618.3,134.1,618.3,134.6z"/>
	<path fill="#FFFFFF" d="M656.6,119.5v6.7c0,8.4-5.7,15.8-15.1,15.8c-9.1,0-14.6-6.4-14.6-14.5V92.1c0-10.7,5.5-17,14.5-17
		c9.1,0,15,6.3,15,15.7v5.1c0,0.6-0.5,1-0.9,1h-5.8c-0.5,0-1-0.4-1-1v-5.6c0-4.3-1.6-8-7.1-8c-5.1,0-7.1,3.7-7.1,8v17
		c2.1-3.3,5.4-3.5,7.9-3.5C649.9,103.8,656.6,109.7,656.6,119.5z M634.4,119.3v7.9c0,5.3,3,7.9,7.3,7.9c4.3,0,7.3-3.5,7.3-7.9v-7.9
		c0-6-3-8.3-7.3-8.3C637.6,111,634.4,113.3,634.4,119.3z"/>
	<path fill="#FFFFFF" d="M694.3,90.7v35.8c0,9.3-5.9,15.6-14.5,15.6c-8.4,0-14.4-6.3-14.4-15.6V90.7c0-9.4,5.4-15.6,14.4-15.6
		C689,75.1,694.3,81.3,694.3,90.7z M686.7,90.9c0-6.2-2.8-8.6-6.9-8.6c-3.9,0-6.8,2.4-6.8,8.6v35.4c0,6.2,2.9,8.6,6.8,8.6
		c4.1,0,6.9-2.4,6.9-8.6V90.9z"/>
	<path fill="#FFFFFF" d="M732.4,90.7v35.8c0,9.3-5.9,15.6-14.5,15.6c-8.4,0-14.4-6.3-14.4-15.6V90.7c0-9.4,5.4-15.6,14.4-15.6
		C727.1,75.1,732.4,81.3,732.4,90.7z M724.8,90.9c0-6.2-2.8-8.6-6.9-8.6c-3.9,0-6.8,2.4-6.8,8.6v35.4c0,6.2,2.9,8.6,6.8,8.6
		c4.1,0,6.9-2.4,6.9-8.6V90.9z"/>
</g>
<g>
	<path fill="#353535" d="M37.3,357.3V470c0,1.1-0.9,2-2,2h-9.2c-1.1,0-1.8-0.9-1.8-2v-93.8H12.6c-1.1,0-2-0.9-2-2v-4.9
		c0-1.1,0.9-2,1.8-2c14.4-5.2,10.6-12.1,16.7-12.1c1.4,0,6.1,0,6.1,0C36.4,355.3,37.3,356.2,37.3,357.3z"/>
	<path fill="#353535" d="M108,433.1v11c0,19.8-9.5,29.9-27.5,29.9c-18.7,0-27-10.1-27.7-29.9v-11c0-7.6,2.5-13.7,6.7-17.8
		c1.3-1.4,2.9-2.5,4.3-3.4c-5.8-4-9.9-10.6-9.9-19.6v-9.7c0.2-17.5,7.6-29.2,26.6-29.2c18,0,26.5,11.7,26.5,29.2v9.7
		c0,9-4.1,15.7-9.9,19.6c1.6,0.9,3.1,2,4.3,3.4C105.5,419.4,108,425.5,108,433.1z M80.5,461c7.2,0,13.7-4,13.7-14.8v-13.1
		c0-10.3-6.5-14-13.7-14c-7.4,0-13.9,3.8-13.9,14v13.1C66.6,457,73.1,461,80.5,461z M80.5,366.3c-7.6,0-12.4,4.1-12.4,15.1v9.5
		c0,10.8,4.9,14.9,12.4,14.9c7.4,0,12.2-4.1,12.2-14.9v-9.5C92.7,370.4,87.8,366.3,80.5,366.3z"/>
	<path fill="#353535" d="M135.4,460.6v8.8c0,1.8-0.9,3.4-1.4,4.7l-5.8,13.3c-0.4,0.5-0.5,1.1-1.3,1.1h-3.4c-0.7,0-0.9-0.5-0.7-1.1
		l3.6-15.5h-2.9c-1.1,0-1.8-0.7-1.8-1.8v-9.5c0-0.9,0.7-1.8,1.8-1.8h10.1C134.5,458.8,135.4,459.7,135.4,460.6z"/>
	<path fill="#353535" d="M202.9,381.6V446c0,16.7-10.6,28.1-26.1,28.1c-15.1,0-25.9-11.3-25.9-28.1v-64.4c0-16.9,9.7-28.1,25.9-28.1
		C193.3,353.5,202.9,364.7,202.9,381.6z M189.2,382c0-11.2-5-15.5-12.4-15.5c-7,0-12.2,4.3-12.2,15.5v63.7
		c0,11.2,5.2,15.5,12.2,15.5c7.4,0,12.4-4.3,12.4-15.5V382z"/>
	<path fill="#353535" d="M271.4,381.6V446c0,16.7-10.6,28.1-26.1,28.1c-15.1,0-25.9-11.3-25.9-28.1v-64.4c0-16.9,9.7-28.1,25.9-28.1
		C261.9,353.5,271.4,364.7,271.4,381.6z M257.8,382c0-11.2-5-15.5-12.4-15.5c-7,0-12.2,4.3-12.2,15.5v63.7
		c0,11.2,5.2,15.5,12.2,15.5c7.4,0,12.4-4.3,12.4-15.5V382z"/>
	<path fill="#353535" d="M340,381.6V446c0,16.7-10.6,28.1-26.1,28.1c-15.1,0-25.9-11.3-25.9-28.1v-64.4c0-16.9,9.7-28.1,25.9-28.1
		C330.5,353.5,340,364.7,340,381.6z M326.3,382c0-11.2-5-15.5-12.4-15.5c-7,0-12.2,4.3-12.2,15.5v63.7c0,11.2,5.2,15.5,12.2,15.5
		c7.4,0,12.4-4.3,12.4-15.5V382z"/>
</g>
<g>
	<path fill="#FFFFFF" d="M7.4,544.9h1.5v12h5.3v1.4H7.4V544.9z"/>
	<path fill="#FFFFFF" d="M15.4,555.9c0-1.9,1.6-3.3,5.3-4v-0.6c0-1.1-0.5-1.6-1.4-1.6c-1.2,0-2.1,0.6-2.8,1.3l-0.8-0.9
		c1-1,2.3-1.7,3.8-1.7c1.9,0,2.7,1,2.7,2.9v4.5c0,1.2,0.1,1.9,0.2,2.3h-1.5c-0.1-0.4-0.2-0.7-0.2-1.2c-0.8,0.8-1.8,1.4-3,1.4
		C16.3,558.3,15.4,557.4,15.4,555.9z M20.7,555.9V553c-2.9,0.6-3.9,1.6-3.9,2.8c0,1,0.5,1.4,1.3,1.4
		C19.2,557.1,20.1,556.6,20.7,555.9z"/>
	<path fill="#FFFFFF" d="M25,556v-6.2h-1.4v-1.2H25v-3.4h1.4v3.4h2.1v1.2h-2.1v5.8c0,1,0.3,1.4,1.3,1.4c0.3,0,0.6-0.1,0.8-0.1v1.2
		c-0.2,0.1-0.7,0.1-1.1,0.1C25.6,558.3,25,557.7,25,556z"/>
	<path fill="#FFFFFF" d="M29.8,553.4c0-3.4,1.8-5,3.7-5c2.1,0,3.4,1.7,3.4,4.9v0.4h-5.6c0.1,2.2,0.9,3.4,2.3,3.4
		c1.1,0,1.7-0.6,2.3-1.7l1,0.6c-0.7,1.4-1.8,2.3-3.3,2.3C31.4,558.4,29.8,556.7,29.8,553.4z M35.5,552.6c-0.1-1.7-0.7-2.9-2-2.9
		c-1.1,0-2,0.9-2.2,2.9H35.5z"/>
	<path fill="#FFFFFF" d="M37.9,556.4l1-0.7c0.6,1,1.6,1.5,2.6,1.5c1.2,0,1.9-0.5,1.9-1.4c0-2.3-5-1.4-5-4.8c0-1.5,1.2-2.6,3-2.6
		c1.4,0,2.4,0.7,3.1,1.7l-1,0.8c-0.5-0.7-1.2-1.3-2.2-1.3c-1.1,0-1.6,0.5-1.6,1.3c0,2.4,4.9,1.3,4.9,4.8c0,1.7-1.5,2.7-3.3,2.7
		C39.8,558.4,38.7,557.6,37.9,556.4z"/>
	<path fill="#FFFFFF" d="M47.1,556v-6.2h-1.4v-1.2h1.4v-3.4h1.4v3.4h2.1v1.2h-2.1v5.8c0,1,0.3,1.4,1.3,1.4c0.3,0,0.6-0.1,0.8-0.1
		v1.2c-0.2,0.1-0.7,0.1-1.1,0.1C47.8,558.3,47.1,557.7,47.1,556z"/>
	<path fill="#FFFFFF" d="M56,548.7h1.5v1.2c0.6-0.7,1.4-1.4,2.6-1.4c1.9,0,3.2,1.5,3.2,4.9c0,3.4-1.4,4.9-3.3,4.9
		c-1.1,0-1.9-0.5-2.5-1.3v4.8H56V548.7z M61.8,553.4c0-2.5-0.9-3.7-2.1-3.7c-0.9,0-1.7,0.6-2.2,1.3v4.8c0.7,0.8,1.4,1.3,2.2,1.3
		C61,557.1,61.8,556,61.8,553.4z"/>
	<path fill="#FFFFFF" d="M65.1,555.7v-7.1h1.4v6.8c0,1.1,0.4,1.7,1.4,1.7c0.9,0,1.7-0.6,2.5-1.4v-7.1h1.5v9.5h-1.5v-1.3
		c-0.7,0.8-1.7,1.5-3,1.5C65.9,558.4,65.1,557.5,65.1,555.7z"/>
	<path fill="#FFFFFF" d="M73.4,556.4l1-0.7c0.6,1,1.6,1.5,2.6,1.5c1.2,0,1.9-0.5,1.9-1.4c0-2.3-5-1.4-5-4.8c0-1.5,1.2-2.6,3-2.6
		c1.4,0,2.4,0.7,3.1,1.7l-1,0.8c-0.5-0.7-1.2-1.3-2.2-1.3c-1.1,0-1.6,0.5-1.6,1.3c0,2.4,4.9,1.3,4.9,4.8c0,1.7-1.5,2.7-3.3,2.7
		C75.3,558.4,74.1,557.6,73.4,556.4z"/>
	<path fill="#FFFFFF" d="M82,544.9h1.5v5.1c0.6-0.7,1.8-1.5,3-1.5c1.5,0,2.3,0.9,2.3,2.6v7.1h-1.4v-6.8c0-1.1-0.4-1.7-1.4-1.7
		c-0.9,0-1.9,0.7-2.6,1.4v7.1H82V544.9z"/>
	<path fill="#FFFFFF" d="M91.2,548.7h1.7v1.9h-1.7V548.7z M91.2,556.3h1.7v1.9h-1.7V556.3z"/>
</g>
<g>
	<g>
		<path fill="#353535" d="M603.8,168.6l0.8-2h0.7l-0.5,1.9h0.6v1.9h-1.6V168.6z M606.9,168.6l0.8-2h0.7l-0.5,1.9h0.6v1.9h-1.6V168.6
			z"/>
		<path fill="#353535" d="M610.4,166.5h1.4l1.4,6.8c0.3,1.4,0.5,2.3,0.8,3.9h0c0.3-1.6,0.5-2.5,0.8-3.9l1.4-6.8h1.4l1.4,7
			c0.3,1.4,0.5,2.3,0.7,3.8h0c0.2-1.4,0.5-2.4,0.7-3.8l1.5-7h1.4l-3,13.4h-1.3l-2.2-10.7h0l-2.2,10.7h-1.3L610.4,166.5z"/>
		<path fill="#353535" d="M625.1,166.9h1.5v1.6h-1.5V166.9z M625.1,170.4h1.5v9.5h-1.5V170.4z"/>
		<path fill="#353535" d="M628.5,175.1c0-3.4,1.7-5,3.7-5c1.9,0,2.7,1.3,3.2,2.8l-1.3,0.4c-0.3-1.2-0.8-1.9-1.9-1.9
			c-1.2,0-2.2,1.1-2.2,3.7c0,2.3,0.8,3.7,2.2,3.7c1,0,1.6-0.6,2-2l1.3,0.3c-0.5,1.8-1.6,2.8-3.3,2.8
			C630.1,180.1,628.5,178.4,628.5,175.1z"/>
		<path fill="#353535" d="M637.2,166.5h1.4v8.7c0.2-0.4,0.8-1.2,1.3-1.9l2.2-3h1.5l-2.6,3.5l2.9,6h-1.5l-2.3-4.8l-1.5,2v2.8h-1.4
			V166.5z"/>
		<path fill="#353535" d="M645,175.1c0-3.4,1.8-5,3.7-5c2.1,0,3.4,1.7,3.4,4.9v0.4h-5.6c0.1,2.2,0.9,3.4,2.3,3.4
			c1.1,0,1.7-0.6,2.3-1.7l1,0.6c-0.7,1.4-1.8,2.3-3.3,2.3C646.6,180.1,645,178.4,645,175.1z M650.6,174.3c-0.1-1.7-0.7-2.9-2-2.9
			c-1.1,0-2,0.9-2.2,2.9H650.6z"/>
		<path fill="#353535" d="M653.4,175.1c0-3.4,1.4-5,3.3-5c1.1,0,1.9,0.5,2.6,1.3v-5h1.4v11c0,1.2,0.1,1.9,0.2,2.3h-1.5
			c-0.1-0.3-0.2-0.9-0.2-1.2c-0.6,0.7-1.4,1.4-2.6,1.4C654.8,180,653.4,178.6,653.4,175.1z M659.3,177.5v-4.8
			c-0.7-0.8-1.4-1.3-2.3-1.3c-1.3,0-2.1,1.1-2.1,3.7c0,2.5,0.9,3.7,2.2,3.7C657.9,178.8,658.7,178.2,659.3,177.5z"/>
		<path fill="#353535" d="M662.5,176.9l1.3-0.6c0.6,1.4,1.6,2.4,3.1,2.4c1.6,0,2.5-0.8,2.5-2.1c0-1.5-1.3-2.2-2.7-2.9
			c-1.7-0.8-3.6-1.7-3.6-4.1c0-1.9,1.6-3.3,3.6-3.3c2.1,0,3.3,1.3,4,2.8l-1.3,0.6c-0.5-1.1-1.3-2.1-2.7-2.1c-1.3,0-2.1,0.8-2.1,1.9
			c0,1.5,1.3,2.2,2.7,2.9c1.7,0.8,3.6,1.7,3.6,4.1c0,1.9-1.5,3.5-4,3.5C664.7,180.1,663.3,178.9,662.5,176.9z"/>
		<path fill="#353535" d="M672.9,170.4h1.5v1.3c0.7-0.7,1.7-1.5,2.9-1.5c1.3,0,1.9,0.5,2.2,1.5c0.7-0.8,1.7-1.5,3-1.5
			c1.5,0,2.3,0.9,2.3,2.6v7.1h-1.4v-6.8c0-1.1-0.4-1.7-1.3-1.7c-0.9,0-1.7,0.6-2.4,1.3v7.1H678v-6.8c0-1.1-0.3-1.7-1.3-1.7
			c-0.8,0-1.6,0.6-2.4,1.4v7.1h-1.5V170.4z"/>
		<path fill="#353535" d="M686.4,177.6c0-1.9,1.6-3.3,5.3-4V173c0-1.1-0.5-1.6-1.4-1.6c-1.2,0-2.1,0.6-2.8,1.3l-0.8-0.9
			c1-1,2.3-1.7,3.8-1.7c1.9,0,2.7,1,2.7,2.9v4.5c0,1.2,0.1,1.9,0.2,2.3h-1.5c-0.1-0.4-0.2-0.7-0.2-1.2c-0.8,0.8-1.8,1.4-3,1.4
			C687.2,180,686.4,179.1,686.4,177.6z M691.7,177.6v-2.9c-2.9,0.6-3.9,1.6-3.9,2.8c0,1,0.5,1.4,1.3,1.4
			C690.1,178.8,691,178.3,691.7,177.6z"/>
		<path fill="#353535" d="M695.4,170.4h1.5v1.6h0c0.5-1,1.5-1.8,3-1.8h0.2l-0.1,1.4c0,0-0.3,0-0.3,0c-1.2,0-2.3,0.8-2.8,1.9v6.4
			h-1.5V170.4z"/>
		<path fill="#353535" d="M702.2,177.7v-6.2h-1.4v-1.2h1.4V167h1.4v3.4h2.1v1.2h-2.1v5.8c0,1,0.3,1.4,1.3,1.4c0.3,0,0.6-0.1,0.8-0.1
			v1.2c-0.2,0.1-0.7,0.1-1.1,0.1C702.8,180,702.2,179.4,702.2,177.7z"/>
		<path fill="#353535" d="M708.2,168.4h-0.6v-1.9h1.7v1.7l-0.8,2h-0.7L708.2,168.4z M711.3,168.4h-0.6v-1.9h1.6v1.7l-0.8,2h-0.7
			L711.3,168.4z"/>
		<path fill="#353535" d="M583.9,208.1l1-0.7c0.6,1,1.6,1.5,2.6,1.5c1.2,0,1.9-0.5,1.9-1.4c0-2.3-5-1.4-5-4.8c0-1.5,1.2-2.6,3-2.6
			c1.4,0,2.4,0.7,3.1,1.7l-1,0.8c-0.5-0.7-1.2-1.3-2.2-1.3c-1.1,0-1.6,0.5-1.6,1.3c0,2.4,4.9,1.3,4.9,4.8c0,1.7-1.5,2.7-3.3,2.7
			C585.8,210.1,584.6,209.3,583.9,208.1z"/>
		<path fill="#353535" d="M593.1,207.7v-6.2h-1.4v-1.2h1.4V197h1.4v3.4h2.1v1.2h-2.1v5.8c0,1,0.3,1.4,1.3,1.4c0.3,0,0.6-0.1,0.8-0.1
			v1.2c-0.2,0.1-0.7,0.1-1.1,0.1C593.7,210,593.1,209.4,593.1,207.7z"/>
		<path fill="#353535" d="M598.3,207.4v-7.1h1.4v6.8c0,1.1,0.4,1.7,1.4,1.7c0.9,0,1.7-0.6,2.5-1.4v-7.1h1.5v9.5h-1.5v-1.3
			c-0.7,0.8-1.7,1.5-3,1.5C599.1,210.1,598.3,209.1,598.3,207.4z"/>
		<path fill="#353535" d="M606.9,205.1c0-3.4,1.4-5,3.3-5c1.1,0,1.9,0.5,2.6,1.3v-5h1.4v11c0,1.2,0.1,1.9,0.2,2.3H613
			c-0.1-0.3-0.2-0.9-0.2-1.2c-0.6,0.7-1.4,1.4-2.6,1.4C608.3,210,606.9,208.6,606.9,205.1z M612.8,207.5v-4.8
			c-0.7-0.8-1.4-1.3-2.2-1.3c-1.3,0-2.1,1.1-2.1,3.7c0,2.5,0.9,3.7,2.2,3.7C611.4,208.8,612.2,208.2,612.8,207.5z"/>
		<path fill="#353535" d="M616.1,205.1c0-3.4,1.8-5,3.7-5c2.1,0,3.4,1.7,3.4,4.9v0.4h-5.6c0.1,2.2,0.9,3.4,2.3,3.4
			c1.1,0,1.7-0.6,2.3-1.7l1,0.6c-0.7,1.4-1.8,2.3-3.3,2.3C617.6,210.1,616.1,208.4,616.1,205.1z M621.7,204.3
			c-0.1-1.7-0.7-2.9-2-2.9c-1.1,0-2,0.9-2.2,2.9H621.7z"/>
		<path fill="#353535" d="M625,200.4h1.5v1.3c0.6-0.7,1.8-1.5,3-1.5c1.5,0,2.3,0.9,2.3,2.6v7.1h-1.4v-6.8c0-1.1-0.4-1.7-1.4-1.7
			c-0.9,0-1.9,0.7-2.6,1.4v7.1H625V200.4z"/>
		<path fill="#353535" d="M634.6,207.7v-6.2h-1.4v-1.2h1.4V197h1.4v3.4h2.1v1.2H636v5.8c0,1,0.3,1.4,1.3,1.4c0.3,0,0.6-0.1,0.8-0.1
			v1.2c-0.2,0.1-0.7,0.1-1.1,0.1C635.2,210,634.6,209.4,634.6,207.7z"/>
		<path fill="#353535" d="M639.1,208.1l1-0.7c0.6,1,1.6,1.5,2.6,1.5c1.2,0,1.9-0.5,1.9-1.4c0-2.3-5-1.4-5-4.8c0-1.5,1.2-2.6,3-2.6
			c1.4,0,2.4,0.7,3.1,1.7l-1,0.8c-0.5-0.7-1.2-1.3-2.2-1.3c-1.1,0-1.6,0.5-1.6,1.3c0,2.4,4.9,1.3,4.9,4.8c0,1.7-1.5,2.7-3.3,2.7
			C641,210.1,639.8,209.3,639.1,208.1z"/>
		<path fill="#353535" d="M650.8,205.1c0-3.4,1.4-5,3.3-5c1.1,0,1.9,0.5,2.6,1.3v-5h1.4v11c0,1.2,0.1,1.9,0.2,2.3h-1.5
			c-0.1-0.3-0.2-0.9-0.2-1.2c-0.6,0.7-1.4,1.4-2.6,1.4C652.2,210,650.8,208.6,650.8,205.1z M656.7,207.5v-4.8
			c-0.7-0.8-1.4-1.3-2.2-1.3c-1.3,0-2.1,1.1-2.1,3.7c0,2.5,0.9,3.7,2.2,3.7C655.3,208.8,656.1,208.2,656.7,207.5z"/>
		<path fill="#353535" d="M660.5,196.9h1.5v1.6h-1.5V196.9z M660.5,200.4h1.5v9.5h-1.5V200.4z"/>
		<path fill="#353535" d="M663.6,208.1l1-0.7c0.6,1,1.6,1.5,2.6,1.5c1.2,0,1.9-0.5,1.9-1.4c0-2.3-5-1.4-5-4.8c0-1.5,1.2-2.6,3-2.6
			c1.4,0,2.4,0.7,3.1,1.7l-1,0.8c-0.5-0.7-1.2-1.3-2.2-1.3c-1.1,0-1.6,0.5-1.6,1.3c0,2.4,4.9,1.3,4.9,4.8c0,1.7-1.5,2.7-3.3,2.7
			C665.5,210.1,664.3,209.3,663.6,208.1z"/>
		<path fill="#353535" d="M671.7,205.1c0-3.4,1.7-5,3.7-5c1.9,0,2.7,1.3,3.2,2.8l-1.3,0.4c-0.3-1.2-0.8-1.9-1.9-1.9
			c-1.2,0-2.2,1.1-2.2,3.7c0,2.3,0.8,3.7,2.2,3.7c1,0,1.6-0.6,2-2l1.3,0.3c-0.5,1.8-1.6,2.8-3.3,2.8
			C673.4,210.1,671.7,208.4,671.7,205.1z"/>
		<path fill="#353535" d="M680,205.1c0-3.3,1.6-5,3.8-5c2.1,0,3.7,1.7,3.7,5c0,3.3-1.6,5-3.7,5S680,208.4,680,205.1z M686,205.1
			c0-2.1-0.7-3.7-2.3-3.7c-1.5,0-2.3,1.5-2.3,3.7c0,2.1,0.7,3.7,2.3,3.7C685.2,208.8,686,207.4,686,205.1z"/>
		<path fill="#353535" d="M688.5,200.4h1.5l1.5,5.4c0.2,0.8,0.4,1.5,0.7,2.6h0c0.3-1.1,0.4-1.7,0.7-2.6l1.5-5.4h1.4l-2.9,9.5h-1.5
			L688.5,200.4z"/>
		<path fill="#353535" d="M696.8,205.1c0-3.4,1.8-5,3.7-5c2.1,0,3.4,1.7,3.4,4.9v0.4h-5.6c0.1,2.2,0.9,3.4,2.3,3.4
			c1.1,0,1.7-0.6,2.3-1.7l1,0.6c-0.7,1.4-1.8,2.3-3.3,2.3C698.4,210.1,696.8,208.4,696.8,205.1z M702.5,204.3
			c-0.1-1.7-0.7-2.9-2-2.9c-1.1,0-2,0.9-2.2,2.9H702.5z"/>
		<path fill="#353535" d="M705.7,200.4h1.5v1.6h0c0.5-1,1.5-1.8,3-1.8h0.2l-0.1,1.4c0,0-0.3,0-0.3,0c-1.2,0-2.3,0.8-2.8,1.9v6.4
			h-1.5V200.4z"/>
		<path fill="#353535" d="M711.5,205.1c0-3.4,1.8-5,3.7-5c2.1,0,3.4,1.7,3.4,4.9v0.4h-5.6c0.1,2.2,0.9,3.4,2.3,3.4
			c1.1,0,1.7-0.6,2.3-1.7l1,0.6c-0.7,1.4-1.8,2.3-3.3,2.3C713.1,210.1,711.5,208.4,711.5,205.1z M717.1,204.3
			c-0.1-1.7-0.7-2.9-2-2.9c-1.1,0-2,0.9-2.2,2.9H717.1z"/>
		<path fill="#353535" d="M720,205.1c0-3.4,1.4-5,3.3-5c1.1,0,1.9,0.5,2.6,1.3v-5h1.4v11c0,1.2,0.1,1.9,0.2,2.3H726
			c-0.1-0.3-0.2-0.9-0.2-1.2c-0.6,0.7-1.4,1.4-2.6,1.4C721.3,210,720,208.6,720,205.1z M725.8,207.5v-4.8c-0.7-0.8-1.4-1.3-2.3-1.3
			c-1.3,0-2.1,1.1-2.1,3.7c0,2.5,0.9,3.7,2.2,3.7C724.4,208.8,725.2,208.2,725.8,207.5z"/>
		<path fill="#353535" d="M729.7,208h1.7v1.9h-1.7V208z"/>
	</g>
</g>
<g>
	<path fill="#353535" d="M7.7,624.2l1.1-0.5c0.5,1.2,1.3,2,2.6,2c1.3,0,2.1-0.7,2.1-1.8c0-1.3-1.1-1.8-2.3-2.4c-1.4-0.7-3-1.4-3-3.4
		c0-1.6,1.3-2.8,3-2.8c1.8,0,2.8,1.1,3.3,2.3l-1.1,0.5c-0.4-0.9-1-1.8-2.2-1.8c-1,0-1.8,0.7-1.8,1.6c0,1.3,1.1,1.8,2.2,2.4
		c1.4,0.7,3,1.4,3,3.4c0,1.6-1.3,2.9-3.3,2.9C9.5,626.8,8.4,625.8,7.7,624.2z"/>
	<path fill="#353535" d="M16.4,615.8h1.2v1.3h-1.2V615.8z M16.4,618.7h1.2v7.9h-1.2V618.7z"/>
	<path fill="#353535" d="M25.7,618.6v1.1c-0.4,0-0.8,0-1.2,0.2c0.2,0.4,0.4,0.9,0.4,1.5c0,1.8-1.1,2.8-2.7,2.8
		c-0.4,0-0.8-0.1-1.1-0.2c-0.3,0.1-0.5,0.3-0.5,0.6c0,0.3,0.2,0.4,0.9,0.5l1.2,0.2c1.9,0.2,2.7,0.8,2.7,2c0,1.4-1.5,2.2-3.4,2.2
		c-2.3,0-3.1-0.7-3.1-1.9c0-0.8,0.5-1.4,1.3-1.8c-0.4-0.2-0.7-0.5-0.7-1c0-0.5,0.4-0.9,0.9-1.2c-0.7-0.5-1-1.3-1-2.3
		c0-1.7,1.2-2.9,2.8-2.9c0.8,0,1.5,0.3,2,0.8C24.5,619,25.2,618.7,25.7,618.6z M20,627.5c0,0.8,0.5,1.2,2.1,1.2
		c1.3,0,2.2-0.5,2.2-1.2c0-0.6-0.4-1-1.8-1.2l-1.3-0.2c-0.1,0-0.2,0-0.2,0C20.4,626.5,20,627,20,627.5z M23.7,621.4
		c0-1.2-0.6-1.9-1.6-1.9c-1,0-1.6,0.8-1.6,1.9c0,1.2,0.6,1.9,1.6,1.9C23.2,623.3,23.7,622.6,23.7,621.4z"/>
	<path fill="#353535" d="M27.1,618.7h1.2v1.1c0.5-0.6,1.5-1.3,2.5-1.3c1.3,0,2,0.8,2,2.2v5.9h-1.2V621c0-0.9-0.3-1.4-1.1-1.4
		c-0.8,0-1.6,0.6-2.1,1.1v5.9h-1.2V618.7z"/>
	<path fill="#353535" d="M34.5,624.6v-5.9h1.2v5.7c0,0.9,0.3,1.4,1.2,1.4c0.8,0,1.4-0.5,2.1-1.1v-5.9h1.2v7.9H39v-1.1
		c-0.6,0.7-1.5,1.3-2.5,1.3C35.2,626.8,34.5,626,34.5,624.6z"/>
	<path fill="#353535" d="M42.1,618.7h1.2v1c0.5-0.6,1.2-1.2,2.2-1.2c1.5,0,2.7,1.3,2.7,4.1c0,2.9-1.2,4.1-2.8,4.1
		c-0.9,0-1.6-0.4-2.1-1.1v4h-1.2V618.7z M47,622.7c0-2.1-0.7-3.1-1.8-3.1c-0.7,0-1.4,0.5-1.9,1.1v4c0.6,0.7,1.2,1.1,1.9,1.1
		C46.3,625.7,47,624.8,47,622.7z"/>
	<path fill="#353535" d="M52.8,615.8H54v1.3h-1.2V615.8z M52.8,618.7H54v7.9h-1.2V618.7z"/>
	<path fill="#353535" d="M55.4,625.2l0.8-0.6c0.5,0.8,1.3,1.2,2.1,1.2c1,0,1.6-0.4,1.6-1.2c0-2-4.1-1.2-4.1-4c0-1.3,1-2.1,2.5-2.1
		c1.2,0,2,0.6,2.6,1.4l-0.8,0.6c-0.4-0.6-1-1.1-1.8-1.1c-0.9,0-1.3,0.5-1.3,1.1c0,2,4.1,1.1,4.1,4c0,1.4-1.2,2.2-2.7,2.2
		C56.9,626.8,56,626.2,55.4,625.2z"/>
	<path fill="#353535" d="M65.5,618.7h1.2v1.1c0.6-0.6,1.4-1.3,2.4-1.3c1.1,0,1.6,0.5,1.8,1.3c0.6-0.6,1.5-1.3,2.5-1.3
		c1.3,0,1.9,0.8,1.9,2.2v5.9h-1.2V621c0-0.9-0.3-1.4-1.1-1.4c-0.7,0-1.4,0.5-2,1.1v6h-1.2V621c0-0.9-0.2-1.4-1.1-1.4
		c-0.7,0-1.4,0.5-2,1.1v5.9h-1.2V618.7z"/>
	<path fill="#353535" d="M76.8,622.7c0-2.7,1.4-4.1,3.1-4.1c1.8,0,3.1,1.4,3.1,4.1c0,2.7-1.4,4.1-3.1,4.1S76.8,625.4,76.8,622.7z
		 M81.9,622.7c0-1.7-0.6-3.1-1.9-3.1c-1.3,0-1.9,1.2-1.9,3.1c0,1.7,0.6,3.1,1.9,3.1C81.2,625.8,81.9,624.5,81.9,622.7z"/>
	<path fill="#353535" d="M84.6,618.7h1.2v1.4h0c0.4-0.8,1.3-1.5,2.5-1.5h0.2l-0.1,1.1c0,0-0.2,0-0.3,0c-1,0-1.9,0.7-2.3,1.6v5.3
		h-1.2V618.7z"/>
	<path fill="#353535" d="M89.4,622.7c0-2.8,1.5-4.1,3.1-4.1c1.8,0,2.8,1.4,2.8,4.1v0.3h-4.7c0,1.9,0.8,2.9,1.9,2.9
		c0.9,0,1.4-0.5,1.9-1.4l0.8,0.5c-0.6,1.1-1.5,1.9-2.8,1.9C90.8,626.8,89.4,625.4,89.4,622.7z M94.2,622c-0.1-1.4-0.6-2.4-1.7-2.4
		c-0.9,0-1.7,0.7-1.8,2.4H94.2z"/>
	<path fill="#353535" d="M99.9,615.8h1.2v1.3h-1.2V615.8z M99.9,618.7h1.2v7.9h-1.2V618.7z"/>
	<path fill="#353535" d="M103.1,618.7h1.2v1.1c0.5-0.6,1.5-1.3,2.5-1.3c1.3,0,2,0.8,2,2.2v5.9h-1.2V621c0-0.9-0.3-1.4-1.1-1.4
		c-0.8,0-1.6,0.6-2.1,1.1v5.9h-1.2V618.7z"/>
	<path fill="#353535" d="M111.2,624.8v-5.1H110v-1h1.2v-2.8h1.2v2.8h1.7v1h-1.7v4.9c0,0.8,0.2,1.2,1.1,1.2c0.2,0,0.5,0,0.7-0.1v1
		c-0.2,0.1-0.6,0.1-0.9,0.1C111.7,626.7,111.2,626.2,111.2,624.8z"/>
	<path fill="#353535" d="M115.5,624.6v-5.9h1.2v5.7c0,0.9,0.3,1.4,1.2,1.4c0.8,0,1.4-0.5,2.1-1.1v-5.9h1.2v7.9h-1.2v-1.1
		c-0.6,0.7-1.5,1.3-2.5,1.3C116.2,626.8,115.5,626,115.5,624.6z"/>
	<path fill="#353535" d="M123.2,615.8h1.2v1.3h-1.2V615.8z M123.2,618.7h1.2v7.9h-1.2V618.7z"/>
	<path fill="#353535" d="M126.9,624.8v-5.1h-1.2v-1h1.2v-2.8h1.2v2.8h1.7v1h-1.7v4.9c0,0.8,0.2,1.2,1,1.2c0.2,0,0.5,0,0.7-0.1v1
		c-0.2,0.1-0.6,0.1-0.9,0.1C127.4,626.7,126.9,626.2,126.9,624.8z"/>
	<path fill="#353535" d="M131.3,615.8h1.2v1.3h-1.2V615.8z M131.3,618.7h1.2v7.9h-1.2V618.7z"/>
	<path fill="#353535" d="M133.9,618.7h1.2l1.3,4.5c0.2,0.7,0.3,1.2,0.6,2.1h0c0.2-0.9,0.4-1.4,0.6-2.1l1.3-4.5h1.1l-2.4,8h-1.3
		L133.9,618.7z"/>
	<path fill="#353535" d="M140.8,622.7c0-2.8,1.5-4.1,3.1-4.1c1.8,0,2.8,1.4,2.8,4.1v0.3H142c0,1.9,0.8,2.9,1.9,2.9
		c0.9,0,1.4-0.5,1.9-1.4l0.8,0.5c-0.6,1.1-1.5,1.9-2.8,1.9C142.1,626.8,140.8,625.4,140.8,622.7z M145.5,622
		c-0.1-1.4-0.6-2.4-1.7-2.4c-0.9,0-1.7,0.7-1.8,2.4H145.5z"/>
	<path fill="#353535" d="M150.8,624.8c0-1.6,1.3-2.7,4.4-3.3v-0.5c0-0.9-0.4-1.3-1.2-1.3c-1,0-1.7,0.5-2.3,1.1l-0.7-0.7
		c0.8-0.8,1.9-1.4,3.1-1.4c1.5,0,2.2,0.9,2.2,2.4v3.8c0,1,0,1.5,0.2,2h-1.2c-0.1-0.3-0.2-0.6-0.2-1c-0.6,0.7-1.5,1.1-2.5,1.1
		C151.5,626.7,150.8,626,150.8,624.8z M155.2,624.7v-2.4c-2.4,0.5-3.2,1.4-3.2,2.3c0,0.8,0.4,1.2,1.1,1.2
		C153.9,625.7,154.7,625.3,155.2,624.7z"/>
	<path fill="#353535" d="M158.3,618.7h1.2v1.1c0.5-0.6,1.5-1.3,2.5-1.3c1.3,0,2,0.8,2,2.2v5.9h-1.2V621c0-0.9-0.3-1.4-1.1-1.4
		c-0.8,0-1.6,0.6-2.1,1.1v5.9h-1.2V618.7z"/>
	<path fill="#353535" d="M165.4,622.7c0-2.9,1.2-4.1,2.7-4.1c0.9,0,1.6,0.5,2.1,1.1v-4.1h1.2v9.1c0,1,0,1.5,0.2,2h-1.2
		c-0.1-0.3-0.2-0.8-0.2-1c-0.5,0.6-1.2,1.2-2.2,1.2C166.6,626.8,165.4,625.5,165.4,622.7z M170.3,624.7v-4c-0.6-0.7-1.2-1.1-1.9-1.1
		c-1.1,0-1.8,0.9-1.8,3.1c0,2.1,0.7,3,1.8,3C169.2,625.7,169.8,625.2,170.3,624.7z"/>
	<path fill="#353535" d="M176.3,624.6v-5.9h1.2v5.7c0,0.9,0.3,1.4,1.2,1.4c0.8,0,1.4-0.5,2.1-1.1v-5.9h1.2v7.9h-1.2v-1.1
		c-0.6,0.7-1.5,1.3-2.5,1.3C177,626.8,176.3,626,176.3,624.6z"/>
	<path fill="#353535" d="M183.3,625.2l0.8-0.6c0.5,0.8,1.3,1.2,2.1,1.2c1,0,1.6-0.4,1.6-1.2c0-2-4.1-1.2-4.1-4c0-1.3,1-2.1,2.5-2.1
		c1.2,0,2,0.6,2.6,1.4l-0.8,0.6c-0.4-0.6-1-1.1-1.8-1.1c-0.9,0-1.3,0.5-1.3,1.1c0,2,4.1,1.1,4.1,4c0,1.4-1.2,2.2-2.7,2.2
		C184.9,626.8,183.9,626.2,183.3,625.2z"/>
	<path fill="#353535" d="M190.1,622.7c0-2.8,1.5-4.1,3.1-4.1c1.8,0,2.8,1.4,2.8,4.1v0.3h-4.7c0,1.9,0.8,2.9,1.9,2.9
		c0.9,0,1.4-0.5,1.9-1.4l0.8,0.5c-0.6,1.1-1.5,1.9-2.8,1.9C191.4,626.8,190.1,625.4,190.1,622.7z M194.8,622
		c-0.1-1.4-0.6-2.4-1.7-2.4c-0.9,0-1.7,0.7-1.8,2.4H194.8z"/>
	<path fill="#353535" d="M197.5,618.7h1.2v1.4h0c0.4-0.8,1.3-1.5,2.5-1.5h0.2l-0.1,1.1c0,0-0.2,0-0.3,0c-1,0-1.9,0.7-2.3,1.6v5.3
		h-1.2V618.7z"/>
	<path fill="#353535" d="M202.5,621.4h3.1v1h-3.1V621.4z"/>
	<path fill="#353535" d="M207.8,619.7h-1.2v-1h1.2v-1.2c0-1.3,0.7-2,2.2-2c0.1,0,0.6,0,0.6,0v1c0,0-0.4,0-0.5,0
		c-0.6,0-1.1,0.2-1.1,1v1.2h1.5v1H209v6.9h-1.2V619.7z"/>
	<path fill="#353535" d="M211.8,618.7h1.2v1.4h0c0.4-0.8,1.3-1.5,2.5-1.5h0.2l-0.1,1.1c0,0-0.2,0-0.3,0c-1,0-1.9,0.7-2.3,1.6v5.3
		h-1.2V618.7z"/>
	<path fill="#353535" d="M217,615.8h1.2v1.3H217V615.8z M217,618.7h1.2v7.9H217V618.7z"/>
	<path fill="#353535" d="M219.9,622.7c0-2.8,1.5-4.1,3.1-4.1c1.8,0,2.8,1.4,2.8,4.1v0.3h-4.7c0,1.9,0.8,2.9,1.9,2.9
		c0.9,0,1.4-0.5,1.9-1.4l0.8,0.5c-0.6,1.1-1.5,1.9-2.8,1.9C221.2,626.8,219.9,625.4,219.9,622.7z M224.6,622
		c-0.1-1.4-0.6-2.4-1.7-2.4c-0.9,0-1.7,0.7-1.8,2.4H224.6z"/>
	<path fill="#353535" d="M227.3,618.7h1.2v1.1c0.5-0.6,1.5-1.3,2.5-1.3c1.3,0,2,0.8,2,2.2v5.9h-1.2V621c0-0.9-0.3-1.4-1.1-1.4
		c-0.8,0-1.6,0.6-2.1,1.1v5.9h-1.2V618.7z"/>
	<path fill="#353535" d="M234.5,622.7c0-2.9,1.2-4.1,2.7-4.1c0.9,0,1.6,0.5,2.1,1.1v-4.1h1.2v9.1c0,1,0,1.5,0.2,2h-1.2
		c-0.1-0.3-0.2-0.8-0.2-1c-0.5,0.6-1.2,1.2-2.2,1.2C235.6,626.8,234.5,625.5,234.5,622.7z M239.3,624.7v-4c-0.6-0.7-1.2-1.1-1.9-1.1
		c-1.1,0-1.8,0.9-1.8,3.1c0,2.1,0.7,3,1.8,3C238.2,625.7,238.8,625.2,239.3,624.7z"/>
	<path fill="#353535" d="M242.5,615.5h1.2v11.1h-1.2V615.5z"/>
	<path fill="#353535" d="M244.9,629.5l0.2-1c0.2,0,0.6,0.1,1,0.1c0.7,0,1-0.4,1.2-1.2l0.2-0.7l-2.5-8h1.2l1.2,4.1
		c0.3,0.9,0.4,1.5,0.6,2.4h0c0.2-0.9,0.4-1.6,0.7-2.5l1.2-4h1.2l-2.7,8.8c-0.5,1.5-1,2.1-2.3,2.1
		C245.6,629.6,245.1,629.5,244.9,629.5z"/>
	<path fill="#353535" d="M256,624.8v-5.1h-1.2v-1h1.2v-2.8h1.2v2.8h1.7v1h-1.7v4.9c0,0.8,0.2,1.2,1,1.2c0.2,0,0.5,0,0.7-0.1v1
		c-0.2,0.1-0.6,0.1-0.9,0.1C256.6,626.7,256,626.2,256,624.8z"/>
	<path fill="#353535" d="M260.4,615.5h1.2v4.3c0.5-0.6,1.5-1.3,2.5-1.3c1.3,0,2,0.8,2,2.2v5.9h-1.2V621c0-0.9-0.3-1.4-1.1-1.4
		c-0.8,0-1.6,0.6-2.1,1.1v5.9h-1.2V615.5z"/>
	<path fill="#353535" d="M267.5,624.8c0-1.6,1.3-2.7,4.4-3.3v-0.5c0-0.9-0.4-1.3-1.2-1.3c-1,0-1.7,0.5-2.3,1.1l-0.7-0.7
		c0.8-0.8,1.9-1.4,3.1-1.4c1.5,0,2.2,0.9,2.2,2.4v3.8c0,1,0,1.5,0.2,2h-1.2c-0.1-0.3-0.2-0.6-0.2-1c-0.6,0.7-1.5,1.1-2.5,1.1
		C268.2,626.7,267.5,626,267.5,624.8z M272,624.7v-2.4c-2.4,0.5-3.2,1.4-3.2,2.3c0,0.8,0.4,1.2,1.1,1.2
		C270.6,625.7,271.4,625.3,272,624.7z"/>
	<path fill="#353535" d="M275,618.7h1.2v1.1c0.5-0.6,1.5-1.3,2.5-1.3c1.3,0,2,0.8,2,2.2v5.9h-1.2V621c0-0.9-0.3-1.4-1.1-1.4
		c-0.8,0-1.6,0.6-2.1,1.1v5.9H275V618.7z"/>
	<path fill="#353535" d="M285.2,622.7c0-2.8,1.5-4.1,3.1-4.1c1.8,0,2.8,1.4,2.8,4.1v0.3h-4.7c0,1.9,0.8,2.9,1.9,2.9
		c0.9,0,1.4-0.5,1.9-1.4l0.8,0.5c-0.6,1.1-1.5,1.9-2.8,1.9C286.5,626.8,285.2,625.4,285.2,622.7z M289.9,622
		c-0.1-1.4-0.6-2.4-1.7-2.4c-0.9,0-1.7,0.7-1.8,2.4H289.9z"/>
	<path fill="#353535" d="M291.9,618.7h1.2l1.3,4.5c0.2,0.7,0.3,1.2,0.6,2.1h0c0.2-0.9,0.4-1.4,0.6-2.1l1.3-4.5h1.1l-2.4,8h-1.3
		L291.9,618.7z"/>
	<path fill="#353535" d="M298.8,622.7c0-2.8,1.5-4.1,3.1-4.1c1.8,0,2.8,1.4,2.8,4.1v0.3H300c0,1.9,0.8,2.9,1.9,2.9
		c0.9,0,1.4-0.5,1.9-1.4l0.8,0.5c-0.6,1.1-1.5,1.9-2.8,1.9C300.1,626.8,298.8,625.4,298.8,622.7z M303.5,622
		c-0.1-1.4-0.6-2.4-1.7-2.4c-0.9,0-1.7,0.7-1.8,2.4H303.5z"/>
	<path fill="#353535" d="M306.2,618.7h1.2v1.4h0c0.4-0.8,1.3-1.5,2.5-1.5h0.2l-0.1,1.1c0,0-0.2,0-0.3,0c-1,0-1.9,0.7-2.3,1.6v5.3
		h-1.2V618.7z"/>
	<path fill="#353535" d="M315.6,625.7v0.9h-1.2v-11.1h1.2v4.2c0.5-0.6,1.2-1.2,2.2-1.2c1.5,0,2.7,1.3,2.7,4.1c0,2.9-1.2,4.1-2.8,4.1
		C316.8,626.8,316.2,626.3,315.6,625.7z M319.3,622.7c0-2.1-0.7-3.1-1.8-3.1c-0.8,0-1.3,0.5-1.9,1.1v4c0.6,0.7,1.2,1.1,1.9,1.1
		C318.5,625.7,319.3,624.8,319.3,622.7z"/>
	<path fill="#353535" d="M321.6,622.7c0-2.8,1.5-4.1,3.1-4.1c1.8,0,2.8,1.4,2.8,4.1v0.3h-4.7c0,1.9,0.8,2.9,1.9,2.9
		c0.9,0,1.4-0.5,1.9-1.4l0.8,0.5c-0.6,1.1-1.5,1.9-2.8,1.9C323,626.8,321.6,625.4,321.6,622.7z M326.4,622c-0.1-1.4-0.6-2.4-1.7-2.4
		c-0.9,0-1.7,0.7-1.8,2.4H326.4z"/>
	<path fill="#353535" d="M329.6,619.7h-1.2v-1h1.2v-1.2c0-1.3,0.7-2,2.2-2c0.1,0,0.6,0,0.6,0v1c0,0-0.4,0-0.5,0
		c-0.6,0-1.1,0.2-1.1,1v1.2h1.5v1h-1.5v6.9h-1.2V619.7z"/>
	<path fill="#353535" d="M333.1,622.7c0-2.7,1.4-4.1,3.1-4.1c1.8,0,3.1,1.4,3.1,4.1c0,2.7-1.4,4.1-3.1,4.1S333.1,625.4,333.1,622.7z
		 M338.2,622.7c0-1.7-0.6-3.1-1.9-3.1c-1.3,0-1.9,1.2-1.9,3.1c0,1.7,0.6,3.1,1.9,3.1C337.5,625.8,338.2,624.5,338.2,622.7z"/>
	<path fill="#353535" d="M340.9,618.7h1.2v1.4h0c0.4-0.8,1.3-1.5,2.5-1.5h0.2l-0.1,1.1c0,0-0.2,0-0.3,0c-1,0-1.9,0.7-2.3,1.6v5.3
		h-1.2V618.7z"/>
	<path fill="#353535" d="M345.7,622.7c0-2.8,1.5-4.1,3.1-4.1c1.8,0,2.8,1.4,2.8,4.1v0.3h-4.7c0,1.9,0.8,2.9,1.9,2.9
		c0.9,0,1.4-0.5,1.9-1.4l0.8,0.5c-0.6,1.1-1.5,1.9-2.8,1.9C347.1,626.8,345.7,625.4,345.7,622.7z M350.5,622
		c-0.1-1.4-0.6-2.4-1.7-2.4c-0.9,0-1.7,0.7-1.8,2.4H350.5z"/>
	<path fill="#353535" d="M353.3,625.1h1.4v1.6h-1.4V625.1z"/>
</g>
<path fill="none" stroke="#353535" stroke-width="6" stroke-linecap="round" stroke-linejoin="round" stroke-miterlimit="10" d="
	M796.7,321.8l-45.6-49.2c-7-7.6-6.6-19.4,1-26.4l0,0c7.6-7,19.4-6.6,26.4,1l45.6,49.2c7,7.6,6.6,19.4-1,26.4l0,0
	C815.6,329.8,803.7,329.4,796.7,321.8z"/>
<path fill="none" stroke="#353535" stroke-width="6" stroke-linecap="round" stroke-linejoin="round" stroke-miterlimit="10" d="
	M752.1,246.2c2.5-2.3,5.5-3.8,8.6-4.5L746.1,226c-4.1,4.7-8.7,8.9-13.7,12.7l14.6,15.8C747.9,251.4,749.6,248.5,752.1,246.2z"/>
<circle fill="none" stroke="#353535" stroke-width="6" stroke-linecap="round" stroke-linejoin="round" stroke-miterlimit="10" cx="654.2" cy="133.4" r="130.4"/>
<rect x="519.1" y="559.8" fill="none" stroke="#FFFFFF" stroke-width="4" stroke-linecap="round" stroke-linejoin="round" stroke-miterlimit="10" width="277.6" height="60.3"/>
<g>
	<path fill="#FFFFFF" d="M546.7,584.1v2.2c0,0.2-0.2,0.4-0.4,0.4h-1.9c-0.2,0-0.4-0.2-0.4-0.4v-2.1c0-2.2-1.1-3.1-2.7-3.1
		c-1.5,0-2.6,0.8-2.6,3.1V597c0,2.2,1.1,3.1,2.6,3.1c1.5,0,2.7-0.8,2.7-3.1v-2.2c0-0.2,0.2-0.4,0.4-0.4h1.9c0.2,0,0.4,0.2,0.4,0.4
		v2.2c0,3.3-2.1,5.6-5.3,5.6c-3.2,0-5.3-2.3-5.3-5.6v-12.9c0-3.4,1.8-5.6,5.3-5.6C544.9,578.5,546.7,580.7,546.7,584.1z"/>
	<path fill="#FFFFFF" d="M560.1,584.1V597c0,3.3-2.1,5.6-5.3,5.6c-3.2,0-5.3-2.3-5.3-5.6v-12.9c0-3.4,1.8-5.6,5.3-5.6
		C558.3,578.5,560.1,580.7,560.1,584.1z M557.4,584.1c0-2.2-1-3.1-2.6-3.1c-1.5,0-2.6,0.8-2.6,3.1V597c0,2.2,1,3.1,2.6,3.1
		c1.5,0,2.6-0.8,2.6-3.1V584.1z"/>
	<path fill="#FFFFFF" d="M574.3,596.4c0,3.5-1.8,5.8-5.3,5.8h-5c-0.2,0-0.4-0.2-0.4-0.4v-22.5c0-0.2,0.2-0.4,0.4-0.4h5
		c3.8,0,5.4,2.7,5.4,6.3V596.4z M569.1,599.6c1.8,0,2.5-1.2,2.5-2.6v-12.5c0-1.5-0.5-3-2.5-3h-2.8v18.1H569.1z"/>
	<path fill="#FFFFFF" d="M580.5,581.5v7.2h4.6c0.2,0,0.4,0.2,0.4,0.4v1.7c0,0.2-0.2,0.4-0.4,0.4h-4.6v8.4h6.6c0.2,0,0.4,0.2,0.4,0.4
		v1.8c0,0.2-0.2,0.4-0.4,0.4h-9c-0.2,0-0.4-0.2-0.4-0.4v-22.5c0-0.2,0.2-0.4,0.4-0.4h9c0.2,0,0.4,0.2,0.4,0.4v1.8
		c0,0.2-0.2,0.4-0.4,0.4H580.5z"/>
	<path fill="#FFFFFF" d="M606.2,584.1v2.2c0,0.2-0.2,0.4-0.4,0.4h-1.9c-0.2,0-0.4-0.2-0.4-0.4v-2.1c0-2.2-1.1-3.1-2.7-3.1
		c-1.5,0-2.6,0.8-2.6,3.1V597c0,2.2,1.1,3.1,2.6,3.1c1.5,0,2.7-0.8,2.7-3.1v-2.2c0-0.2,0.2-0.4,0.4-0.4h1.9c0.2,0,0.4,0.2,0.4,0.4
		v2.2c0,3.3-2.1,5.6-5.3,5.6c-3.2,0-5.3-2.3-5.3-5.6v-12.9c0-3.4,1.8-5.6,5.3-5.6C604.4,578.5,606.2,580.7,606.2,584.1z"/>
	<path fill="#FFFFFF" d="M619.6,584.1V597c0,3.3-2.1,5.6-5.3,5.6c-3.2,0-5.3-2.3-5.3-5.6v-12.9c0-3.4,1.8-5.6,5.3-5.6
		C617.8,578.5,619.6,580.7,619.6,584.1z M616.9,584.1c0-2.2-1-3.1-2.6-3.1c-1.5,0-2.6,0.8-2.6,3.1V597c0,2.2,1,3.1,2.6,3.1
		c1.5,0,2.6-0.8,2.6-3.1V584.1z"/>
	<path fill="#FFFFFF" d="M638.4,579.3v22.5c0,0.2-0.2,0.4-0.4,0.4h-1.7c-0.2,0-0.4-0.2-0.4-0.4v-16.7l-3.9,16.8
		c0,0.1-0.2,0.3-0.4,0.3h-1.8c-0.1,0-0.3-0.1-0.4-0.3c0,0-3.8-16.2-3.9-16.8v16.7c0,0.2-0.2,0.4-0.4,0.4h0h-1.7
		c-0.2,0-0.4-0.2-0.4-0.4v-22.5c0-0.2,0.2-0.4,0.4-0.4h2.4c0.2,0,0.4,0.1,0.4,0.4l4.4,18.8l4.4-18.8c0-0.2,0.3-0.4,0.4-0.4h2.4
		C638.2,578.9,638.4,579.1,638.4,579.3z"/>
	<path fill="#FFFFFF" d="M657.1,579.3v22.5c0,0.2-0.2,0.4-0.4,0.4h-1.7c-0.2,0-0.4-0.2-0.4-0.4v-16.7l-3.9,16.8
		c0,0.1-0.2,0.3-0.4,0.3h-1.8c-0.1,0-0.3-0.1-0.4-0.3c0,0-3.8-16.2-3.9-16.8v16.7c0,0.2-0.2,0.4-0.4,0.4h0h-1.7
		c-0.2,0-0.4-0.2-0.4-0.4v-22.5c0-0.2,0.2-0.4,0.4-0.4h2.4c0.2,0,0.4,0.1,0.4,0.4l4.4,18.8l4.4-18.8c0-0.2,0.3-0.4,0.4-0.4h2.4
		C657,578.9,657.1,579.1,657.1,579.3z"/>
	<path fill="#FFFFFF" d="M664.8,581.5v18.1h1.8c0.2,0,0.4,0.2,0.4,0.4v1.9c0,0.2-0.2,0.4-0.4,0.4h-6.1c-0.2,0-0.4-0.1-0.4-0.4V600
		c0-0.2,0.2-0.4,0.4-0.4h1.8v-18.1h-1.8c-0.2,0-0.4-0.1-0.4-0.4v-1.9c0-0.2,0.2-0.4,0.4-0.4h6.1c0.2,0,0.4,0.1,0.4,0.4v1.9
		c0,0.2-0.2,0.4-0.4,0.4H664.8z"/>
	<path fill="#FFFFFF" d="M679.3,579.3v1.8c0,0.2-0.2,0.4-0.4,0.4h-3.4v20.3c0,0.2-0.2,0.4-0.4,0.4h-1.9c-0.2,0-0.4-0.2-0.4-0.4
		v-20.3h-3.4c-0.2,0-0.4-0.2-0.4-0.4v-1.8c0-0.2,0.2-0.4,0.4-0.4h9.5C679.1,578.9,679.3,579.1,679.3,579.3z"/>
	<path fill="#FFFFFF" d="M691.9,595.1c0,0.6,0,2.2,0,2.2c0,3.2-2.3,5.3-5.3,5.3c-3.2,0-5.5-2.3-5.5-5.8v-2.1c0-0.2,0.1-0.4,0.4-0.4
		h1.9c0.2,0,0.4,0.2,0.4,0.4v2.6c0,2.1,1.3,2.9,2.9,2.9c1.9,0,2.6-1.3,2.6-2.9v-1.9c0-1.4-0.5-2.1-2.3-3.7l-2.8-2.6
		c-1.5-1.4-2.7-3.5-2.7-5.1c0-3.3,1.9-5.5,5.2-5.5c3.2,0,5.3,2.2,5.3,5.6v1.9c0,0.2-0.1,0.3-0.3,0.3h-2c-0.1,0-0.3-0.1-0.3-0.3v-2.2
		c0-2.2-1.1-3-2.6-3c-1.5,0-2.4,1-2.4,3c0,0.5,0.1,1.7,2.1,3.5c0.6,0.6,3.5,3.3,3.5,3.3C691.8,592.5,691.9,594.2,691.9,595.1z"/>
</g>
<g>
	<path fill="#FFFFFF" d="M738.1,595.4c0,3.9-1.8,6.2-5.4,6.2c-3.3,0-5.3-2.3-5.3-5.7v-2.2c0-0.2,0.1-0.4,0.4-0.4h1.9
		c0.2,0,0.4,0.2,0.4,0.4v2.4c0,1.5,0.8,3.1,2.7,3.1c2.5,0,2.6-2.1,2.6-3.6v-2.4c0-2.2-2.8-2.8-3.5-2.8c-0.4,0-0.4-0.2-0.4-0.4v-1.7
		c0-0.1,0.1-0.3,0.3-0.4c0,0,3.6-1.1,3.6-3.6v-0.9c0-2.2-0.8-3.3-2.7-3.3c-1.9,0-2.6,1.3-2.6,2.9v2c0,0.2-0.2,0.4-0.4,0.4h-2
		c-0.2,0-0.4-0.2-0.4-0.4v-1.9c0-3.4,2.1-5.6,5.4-5.6c3.5,0,5.2,2.4,5.2,5.8c0,0,0,0.2,0,0.6c0,3-2.6,5-3.6,5c0,0,3.6,0.6,3.6,4.9
		V595.4z"/>
	<path fill="#FFFFFF" d="M743.6,598.9v1.8c0,0.4-0.2,0.7-0.3,0.9l-1.2,2.7c-0.1,0.1-0.1,0.2-0.3,0.2h-0.7c-0.1,0-0.2-0.1-0.1-0.2
		l0.7-3.1h-0.6c-0.2,0-0.4-0.1-0.4-0.4v-1.9c0-0.2,0.1-0.4,0.4-0.4h2C743.4,598.6,743.6,598.8,743.6,598.9z"/>
	<path fill="#FFFFFF" d="M756.8,599v1.8c0,0.2-0.2,0.4-0.4,0.4h-9.8c-0.2,0-0.4-0.2-0.4-0.4c0,0,0-2.1,0-2.3c0-1.6,0.8-4.2,2.1-5.8
		c0.8-0.9,3.2-3.9,3.9-4.6c1.5-1.9,1.9-2.6,1.9-4.3c0-1.8-0.4-3.8-2.6-3.8c-1.2,0-2.6,0.5-2.6,3.8v1.3c0,0.2-0.2,0.4-0.4,0.4h-1.9
		c-0.2,0-0.4-0.2-0.4-0.4v-1.5c0-3.7,1.8-6.2,5.4-6.2c3.3,0,5.1,2.4,5.2,6v0.6c0,2.8-1.3,4.2-2.6,5.8c-2.6,3.1-5.2,5.8-5.2,8.1v0.6
		h7.3C756.6,598.6,756.8,598.8,756.8,599z"/>
	<path fill="#FFFFFF" d="M764.2,578.3v22.5c0,0.2-0.2,0.4-0.4,0.4h-1.8c-0.2,0-0.4-0.2-0.4-0.4v-18.8h-2.3c-0.2,0-0.4-0.2-0.4-0.4
		v-1c0-0.2,0.2-0.4,0.4-0.4c2.9-1,2.1-2.4,3.3-2.4c0.3,0,1.2,0,1.2,0C764,577.9,764.2,578.1,764.2,578.3z"/>
	<path fill="#FFFFFF" d="M779.1,594.3v1.5c0,0.2-0.2,0.4-0.4,0.4h-1.8v4.5c0,0.2-0.2,0.4-0.4,0.4h-1.7c-0.2,0-0.4-0.2-0.4-0.4v-4.5
		h-7.2c-0.2,0-0.4-0.2-0.4-0.4c0,0,0-0.7,0-1.3c0-0.6,0-0.8,0.3-1.5c0.3-0.7,5.8-14.9,5.8-14.9c0.1-0.2,0.3-0.4,0.5-0.4h3.1
		c0.2,0,0.4,0.2,0.4,0.4V594h1.8C778.9,594,779.1,594.1,779.1,594.3z M769.3,594h5.2v-13.5L769.3,594z"/>
</g>
<g>
	<g>
		<path fill="#353535" d="M17.7,579.9v17.7c0,3.3-2.1,5.6-5.3,5.6c-3.2,0-5.3-2.3-5.3-5.6v-17.7c0-0.2,0.2-0.4,0.4-0.4h1.9
			c0.2,0,0.4,0.2,0.4,0.4v17.7c0,2.2,1.1,3.1,2.6,3.1c1.5,0,2.6-0.8,2.6-3.1v-17.7c0-0.2,0.2-0.4,0.4-0.4h1.9
			C17.6,579.5,17.7,579.7,17.7,579.9z"/>
		<path fill="#353535" d="M32,586.3c0,4.2-2.6,6.7-6.4,6.7h-1.7v9.5c0,0.2-0.2,0.4-0.4,0.4h-1.8c-0.2,0-0.4-0.2-0.4-0.4v-22.5
			c0-0.2,0.2-0.4,0.4-0.4h3.9C29.4,579.5,32,581.7,32,586.3z M29.3,586.2c0-1.8-0.5-4.1-3.6-4.1H24v8.2h1.8
			C28.8,590.3,29.3,588.4,29.3,586.2z"/>
		<path fill="#353535" d="M45.5,592.1v10.5c0,0.1-0.1,0.3-0.3,0.3h-0.7c-0.1,0-0.3-0.1-0.3-0.2l-0.2-1.1c-1,1.1-2.4,1.7-4.1,1.7
			c-3.2,0-5.5-2.3-5.5-5.6v-12.9c0-3.4,1.8-5.6,5.3-5.6c3.5,0,5.3,2.2,5.3,5.6v2.2c0,0.2-0.2,0.4-0.4,0.4h-1.9
			c-0.2,0-0.4-0.2-0.4-0.4v-2.1c0-2.2-1.1-3.1-2.6-3.1c-1.5,0-2.6,0.8-2.6,3.1v12.8c0,2.2,1.3,3.1,2.8,3.1c1.5,0,2.8-0.8,2.8-3.1
			v-3.4h-1.5c-0.2,0-0.4-0.1-0.4-0.4v-1.8c0-0.2,0.2-0.4,0.4-0.4h3.9C45.4,591.7,45.5,591.9,45.5,592.1z"/>
		<path fill="#353535" d="M60.4,600.8v1.7c0,0.2-0.1,0.3-0.4,0.3c-3.1,0-3.5-2.4-3.5-6.2c0-3-0.7-3.9-3.4-3.9h-1.7v9.8
			c0,0.2-0.2,0.4-0.4,0.4h-1.8c-0.2,0-0.4-0.2-0.4-0.4v-22.5c0-0.2,0.2-0.4,0.4-0.4h3.9c3.9,0,6.4,2.1,6.4,6.7c0,2.8-1,4.6-2.8,5.1
			c2.3,0.5,2.4,2.6,2.4,4.4c0,0.2,0,2.1,0,2.3c0,2.3,0.6,2.3,1,2.4C60.2,600.4,60.4,600.6,60.4,600.8z M51.5,590.1h1.8
			c3,0,3.6-1.8,3.6-4c0-1.8-0.5-4-3.6-4h-1.8V590.1z"/>
		<path fill="#353535" d="M74.4,602.4c0,0.2-0.2,0.4-0.4,0.4h-2c-0.2,0-0.4-0.1-0.4-0.4l-0.7-4.5h-5.3l-0.7,4.5
			c-0.1,0.3-0.2,0.4-0.4,0.4h-2c-0.2,0-0.4-0.2-0.4-0.4l4.2-22.5c0.1-0.2,0.2-0.4,0.4-0.4h3c0.2,0,0.3,0.2,0.4,0.4L74.4,602.4z
			 M70.5,595.4l-2.2-13l-2.2,13H70.5z"/>
		<path fill="#353535" d="M87.7,597c0,3.5-1.8,5.8-5.3,5.8h-5c-0.2,0-0.4-0.2-0.4-0.4v-22.5c0-0.2,0.2-0.4,0.4-0.4h5
			c3.8,0,5.4,2.7,5.4,6.3V597z M82.5,600.2c1.8,0,2.5-1.2,2.5-2.6v-12.5c0-1.5-0.5-3-2.5-3h-2.8v18.1H82.5z"/>
		<path fill="#353535" d="M93.9,582.1v7.2h4.6c0.2,0,0.4,0.2,0.4,0.4v1.7c0,0.2-0.2,0.4-0.4,0.4h-4.6v8.4h6.6c0.2,0,0.4,0.2,0.4,0.4
			v1.8c0,0.2-0.2,0.4-0.4,0.4h-9c-0.2,0-0.4-0.2-0.4-0.4v-22.5c0-0.2,0.2-0.4,0.4-0.4h9c0.2,0,0.4,0.2,0.4,0.4v1.8
			c0,0.2-0.2,0.4-0.4,0.4H93.9z"/>
		<path fill="#353535" d="M114.5,597c0,3.5-1.8,5.8-5.3,5.8h-5c-0.2,0-0.4-0.2-0.4-0.4v-22.5c0-0.2,0.2-0.4,0.4-0.4h5
			c3.8,0,5.4,2.7,5.4,6.3V597z M109.2,600.2c1.8,0,2.5-1.2,2.5-2.6v-12.5c0-1.5-0.5-3-2.5-3h-2.8v18.1H109.2z"/>
		<path fill="#353535" d="M133.8,584.7v12.9c0,3.3-2.1,5.6-5.3,5.6c-3.2,0-5.3-2.3-5.3-5.6v-12.9c0-3.4,1.8-5.6,5.3-5.6
			C132,579.1,133.8,581.3,133.8,584.7z M131.1,584.8c0-2.2-1-3.1-2.6-3.1c-1.5,0-2.6,0.8-2.6,3.1v12.8c0,2.2,1,3.1,2.6,3.1
			c1.5,0,2.6-0.8,2.6-3.1V584.8z"/>
		<path fill="#353535" d="M148.8,579.9v22.5c0,0.2-0.2,0.4-0.4,0.4h-1.8c-0.2,0-0.5-0.3-0.6-0.4l-6.3-16.3v16.3
			c0,0.2-0.1,0.4-0.4,0.4h-1.8c-0.2,0-0.4-0.2-0.4-0.4v-22.5c0-0.2,0.2-0.4,0.4-0.4h1.8c0.2,0,0.4,0.1,0.4,0.4l6.4,17.3v-17.2
			c0-0.2,0.1-0.4,0.4-0.4h1.8C148.6,579.5,148.8,579.7,148.8,579.9z"/>
		<path fill="#353535" d="M152.3,593.7c-0.2,0-0.4-0.2-0.4-0.4v-1.8c0-0.2,0.2-0.4,0.4-0.4h5.6c0.2,0,0.4,0.2,0.4,0.4v1.8
			c0,0.2-0.2,0.4-0.4,0.4H152.3z"/>
		<path fill="#353535" d="M170,590.6c1.9,0.5,2.8,2.6,2.8,5.5c0,3.7-1.2,6.7-5.8,6.7h-5c-0.2,0-0.4-0.2-0.4-0.4v-22.5
			c0-0.2,0.2-0.4,0.4-0.4h4c3.8,0,6.2,2.6,6.2,6.4C172.2,588,171.7,589.8,170,590.6z M169.6,585.8c0-1.3-0.8-3.6-3.3-3.6h-2v7.5h2
			C168.6,589.6,169.6,588,169.6,585.8z M170.1,596.3c0-3-1.2-4-3.3-4h-2.4v7.9h2.4C168.9,600.2,170.1,599.1,170.1,596.3z"/>
		<path fill="#353535" d="M186.2,584.7v12.9c0,3.3-2.1,5.6-5.3,5.6c-3.2,0-5.3-2.3-5.3-5.6v-12.9c0-3.4,1.8-5.6,5.3-5.6
			C184.4,579.1,186.2,581.3,186.2,584.7z M183.5,584.8c0-2.2-1-3.1-2.6-3.1c-1.5,0-2.6,0.8-2.6,3.1v12.8c0,2.2,1,3.1,2.6,3.1
			c1.5,0,2.6-0.8,2.6-3.1V584.8z"/>
		<path fill="#353535" d="M200.7,602.4c0,0.2-0.2,0.4-0.4,0.4h-2c-0.2,0-0.4-0.1-0.4-0.4l-0.7-4.5H192l-0.7,4.5
			c-0.1,0.3-0.2,0.4-0.4,0.4h-2c-0.2,0-0.4-0.2-0.4-0.4l4.2-22.5c0.1-0.2,0.2-0.4,0.4-0.4h3c0.2,0,0.3,0.2,0.4,0.4L200.7,602.4z
			 M196.8,595.4l-2.2-13l-2.2,13H196.8z"/>
		<path fill="#353535" d="M215,600.8v1.7c0,0.2-0.1,0.3-0.4,0.3c-3.1,0-3.5-2.4-3.5-6.2c0-3-0.7-3.9-3.4-3.9H206v9.8
			c0,0.2-0.2,0.4-0.4,0.4h-1.8c-0.2,0-0.4-0.2-0.4-0.4v-22.5c0-0.2,0.2-0.4,0.4-0.4h3.9c3.9,0,6.4,2.1,6.4,6.7c0,2.8-1,4.6-2.8,5.1
			c2.3,0.5,2.4,2.6,2.4,4.4c0,0.2,0,2.1,0,2.3c0,2.3,0.6,2.3,1,2.4C214.8,600.4,215,600.6,215,600.8z M206.1,590.1h1.8
			c3,0,3.6-1.8,3.6-4c0-1.8-0.5-4-3.6-4h-1.8V590.1z"/>
		<path fill="#353535" d="M228.3,597c0,3.5-1.8,5.8-5.3,5.8h-5c-0.2,0-0.4-0.2-0.4-0.4v-22.5c0-0.2,0.2-0.4,0.4-0.4h5
			c3.8,0,5.4,2.7,5.4,6.3V597z M223.1,600.2c1.8,0,2.5-1.2,2.5-2.6v-12.5c0-1.5-0.5-3-2.5-3h-2.8v18.1H223.1z"/>
		<path fill="#353535" d="M235.8,582.1v18.1h1.8c0.2,0,0.4,0.2,0.4,0.4v1.9c0,0.2-0.2,0.4-0.4,0.4h-6.1c-0.2,0-0.4-0.1-0.4-0.4v-1.9
			c0-0.2,0.2-0.4,0.4-0.4h1.8v-18.1h-1.8c-0.2,0-0.4-0.1-0.4-0.4v-1.9c0-0.2,0.2-0.4,0.4-0.4h6.1c0.2,0,0.4,0.1,0.4,0.4v1.9
			c0,0.2-0.2,0.4-0.4,0.4H235.8z"/>
		<path fill="#353535" d="M252.5,579.9v22.5c0,0.2-0.2,0.4-0.4,0.4h-1.8c-0.2,0-0.5-0.3-0.6-0.4l-6.3-16.3v16.3
			c0,0.2-0.1,0.4-0.4,0.4h-1.8c-0.2,0-0.4-0.2-0.4-0.4v-22.5c0-0.2,0.2-0.4,0.4-0.4h1.8c0.2,0,0.4,0.1,0.4,0.4l6.4,17.3v-17.2
			c0-0.2,0.1-0.4,0.4-0.4h1.8C252.3,579.5,252.5,579.7,252.5,579.9z"/>
		<path fill="#353535" d="M266.9,592.1v10.5c0,0.1-0.1,0.3-0.3,0.3H266c-0.1,0-0.3-0.1-0.3-0.2l-0.2-1.1c-1,1.1-2.4,1.7-4.1,1.7
			c-3.2,0-5.5-2.3-5.5-5.6v-12.9c0-3.4,1.8-5.6,5.3-5.6c3.5,0,5.3,2.2,5.3,5.6v2.2c0,0.2-0.2,0.4-0.4,0.4h-1.9
			c-0.2,0-0.4-0.2-0.4-0.4v-2.1c0-2.2-1.1-3.1-2.6-3.1c-1.5,0-2.6,0.8-2.6,3.1v12.8c0,2.2,1.3,3.1,2.8,3.1c1.5,0,2.8-0.8,2.8-3.1
			v-3.4h-1.5c-0.2,0-0.4-0.1-0.4-0.4v-1.8c0-0.2,0.2-0.4,0.4-0.4h3.9C266.8,591.7,266.9,591.9,266.9,592.1z"/>
	</g>
</g>
<g>
	<g>
		<path fill="none" stroke="#000000" stroke-linecap="round" stroke-linejoin="round" d="M517.3,486.5c4.9,0,8.4-4.9,8.4-10.7v-23.3
			c0-15.1-1.8-25.8,12.3-32.4"/>
	</g>
	<g>
		<path fill="none" stroke="#000000" stroke-linecap="round" stroke-linejoin="round" d="M537.9,420.3c-14-6.6-12.3-17.4-12.3-32.4
			v-20c0-5.9-3.6-10.7-8.4-10.7"/>
	</g>
</g>
</svg>
